<?xml version="1.0" encoding="utf-8"?>
<!-- Generator: Adobe Illustrator 16.0.0, SVG Export Plug-In . SVG Version: 6.00 Build 0)  -->
<!DOCTYPE svg PUBLIC "-//W3C//DTD SVG 1.1//EN" "http://www.w3.org/Graphics/SVG/1.1/DTD/svg11.dtd">
<svg version="1.1" xmlns="http://www.w3.org/2000/svg" xmlns:xlink="http://www.w3.org/1999/xlink" x="0px" y="0px" width="30.67px"
	 height="32.1px" viewBox="0 0 30.67 32.1" enable-background="new 0 0 30.67 32.1" xml:space="preserve">
<g id="Layer_1">
	<g>
		<g>
			<path fill-rule="evenodd" clip-rule="evenodd" fill="#395253" d="M6.28,8.43c2.56-2.56,5.64-3.83,9.26-3.83
				c3.62,0,6.71,1.28,9.27,3.83c2.55,2.56,3.83,5.64,3.83,9.26c0,3.62-1.28,6.71-3.83,9.27c-2.56,2.56-5.64,3.83-9.27,3.83
				c-3.62,0-6.71-1.28-9.26-3.83c-2.56-2.56-3.83-5.64-3.83-9.27C2.45,14.07,3.72,10.98,6.28,8.43z"/>
			<path fill-rule="evenodd" clip-rule="evenodd" fill="#395253" d="M6.28,8.43c2.56-2.56,5.64-3.83,9.26-3.83
				c3.62,0,6.71,1.28,9.27,3.83c2.55,2.56,3.83,5.64,3.83,9.26c0,3.62-1.28,6.71-3.83,9.27c-2.56,2.56-5.64,3.83-9.27,3.83
				c-3.62,0-6.71-1.28-9.26-3.83c-2.56-2.56-3.83-5.64-3.83-9.27C2.45,14.07,3.72,10.98,6.28,8.43z"/>
			<path fill-rule="evenodd" clip-rule="evenodd" fill="#1A40A3" d="M15.53,3.15c3.36,0,6.23,1.18,8.6,3.55
				c2.34,2.34,3.5,5.19,3.5,8.55c0,3.33-1.16,6.18-3.5,8.55c-2.37,2.37-5.24,3.55-8.6,3.55c-3.33,0-6.18-1.18-8.55-3.55
				c-2.37-2.37-3.55-5.22-3.55-8.55c0-3.36,1.18-6.21,3.55-8.55C9.36,4.33,12.21,3.15,15.53,3.15z"/>
			<path fill-rule="evenodd" clip-rule="evenodd" fill="#1A40A3" d="M15.53,3.15c3.36,0,6.23,1.18,8.6,3.55
				c2.34,2.34,3.5,5.19,3.5,8.55c0,3.33-1.16,6.18-3.5,8.55c-2.37,2.37-5.24,3.55-8.6,3.55c-3.33,0-6.18-1.18-8.55-3.55
				c-2.37-2.37-3.55-5.22-3.55-8.55c0-3.36,1.18-6.21,3.55-8.55C9.36,4.33,12.21,3.15,15.53,3.15z"/>
			<path fill-rule="evenodd" clip-rule="evenodd" fill="#161E1F" d="M5.58,5.3c2.76-2.77,6.08-4.15,9.95-4.15
				c3.91,0,7.24,1.39,10,4.15c2.73,2.72,4.1,6.04,4.1,9.95c0,3.87-1.37,7.19-4.1,9.95c-2.76,2.76-6.09,4.15-10,4.15
				c-3.87,0-7.19-1.39-9.95-4.15c-2.77-2.76-4.15-6.08-4.15-9.95C1.44,11.34,2.82,8.03,5.58,5.3z M15.53,3.15
				c-3.33,0-6.18,1.18-8.55,3.55c-2.37,2.34-3.55,5.19-3.55,8.55c0,3.33,1.18,6.18,3.55,8.55c2.37,2.37,5.22,3.55,8.55,3.55
				c3.36,0,6.23-1.18,8.6-3.55c2.34-2.37,3.5-5.22,3.5-8.55c0-3.36-1.16-6.21-3.5-8.55C21.76,4.33,18.89,3.15,15.53,3.15z"/>
			<path fill-rule="evenodd" clip-rule="evenodd" fill="#161E1F" d="M5.58,5.3c2.76-2.77,6.08-4.15,9.95-4.15
				c3.91,0,7.24,1.39,10,4.15c2.73,2.72,4.1,6.04,4.1,9.95c0,3.87-1.37,7.19-4.1,9.95c-2.76,2.76-6.09,4.15-10,4.15
				c-3.87,0-7.19-1.39-9.95-4.15c-2.77-2.76-4.15-6.08-4.15-9.95C1.44,11.34,2.82,8.03,5.58,5.3z M15.53,3.15
				c-3.33,0-6.18,1.18-8.55,3.55c-2.37,2.34-3.55,5.19-3.55,8.55c0,3.33,1.18,6.18,3.55,8.55c2.37,2.37,5.22,3.55,8.55,3.55
				c3.36,0,6.23-1.18,8.6-3.55c2.34-2.37,3.5-5.22,3.5-8.55c0-3.36-1.16-6.21-3.5-8.55C21.76,4.33,18.89,3.15,15.53,3.15z"/>
			<radialGradient id="SVGID_1_" cx="15.7095" cy="15.2754" r="13.3247" gradientUnits="userSpaceOnUse">
				<stop  offset="0" style="stop-color:#1A40A3;stop-opacity:0.251"/>
				<stop  offset="0.5922" style="stop-color:#1A40A3;stop-opacity:0"/>
				<stop  offset="0.6863" style="stop-color:#C3CCE6;stop-opacity:0.0431"/>
				<stop  offset="0.8667" style="stop-color:#FFFFFF;stop-opacity:0.0941"/>
				<stop  offset="1" style="stop-color:#1A40A3;stop-opacity:0"/>
			</radialGradient>
			<path fill-rule="evenodd" clip-rule="evenodd" fill="url(#SVGID_1_)" d="M25.08,5.9c2.6,2.6,3.9,5.72,3.9,9.35
				c0,3.67-1.3,6.8-3.9,9.4c-2.57,2.6-5.68,3.9-9.35,3.9s-6.8-1.3-9.4-3.9c-2.6-2.6-3.9-5.73-3.9-9.4c0-3.63,1.3-6.75,3.9-9.35
				c2.6-2.6,5.73-3.9,9.4-3.9S22.52,3.3,25.08,5.9z"/>
			<radialGradient id="SVGID_2_" cx="15.7095" cy="15.2754" r="13.3247" gradientUnits="userSpaceOnUse">
				<stop  offset="0" style="stop-color:#1A40A3;stop-opacity:0.251"/>
				<stop  offset="0.5922" style="stop-color:#1A40A3;stop-opacity:0"/>
				<stop  offset="0.6863" style="stop-color:#C3CCE6;stop-opacity:0.0431"/>
				<stop  offset="0.8667" style="stop-color:#FFFFFF;stop-opacity:0.0941"/>
				<stop  offset="1" style="stop-color:#1A40A3;stop-opacity:0"/>
			</radialGradient>
			<path fill-rule="evenodd" clip-rule="evenodd" fill="url(#SVGID_2_)" d="M25.08,5.9c2.6,2.6,3.9,5.72,3.9,9.35
				c0,3.67-1.3,6.8-3.9,9.4c-2.57,2.6-5.68,3.9-9.35,3.9s-6.8-1.3-9.4-3.9c-2.6-2.6-3.9-5.73-3.9-9.4c0-3.63,1.3-6.75,3.9-9.35
				c2.6-2.6,5.73-3.9,9.4-3.9S22.52,3.3,25.08,5.9z"/>
		</g>
		<path fill-rule="evenodd" clip-rule="evenodd" fill="#FFFFFF" d="M12.26,12.13l-0.73-1.15c0.37-0.46,0.83-0.85,1.36-1.2
			c1.37-0.88,2.82-1.16,4.36-0.85c1.56,0.34,2.78,1.19,3.66,2.54s1.15,2.81,0.83,4.39c-0.32,1.58-1.17,2.8-2.54,3.68
			c-1.35,0.88-2.81,1.14-4.39,0.8c-1.45-0.31-2.6-1.07-3.46-2.29l1.07-0.68c0.67,0.89,1.56,1.46,2.68,1.71
			c1.22,0.28,2.36,0.07,3.41-0.61c1.06-0.68,1.71-1.64,1.97-2.88c0.26-1.24,0.05-2.38-0.63-3.44c-0.68-1.04-1.64-1.69-2.88-1.95
			c-1.22-0.26-2.36-0.05-3.41,0.63C13.02,11.19,12.58,11.62,12.26,12.13z"/>
		<g>
			<polygon fill-rule="evenodd" clip-rule="evenodd" fill="#FFFFFF" points="12.75,10.68 14.75,12.53 9.95,12.73 11.95,7.88 			"/>
		</g>
	</g>
</g>
<g id="Layer_2">
</g>
</svg>
