<?xml version="1.0" encoding="utf-8"?>
<!-- Generator: Adobe Illustrator 16.0.0, SVG Export Plug-In . SVG Version: 6.00 Build 0)  -->
<!DOCTYPE svg PUBLIC "-//W3C//DTD SVG 1.1//EN" "http://www.w3.org/Graphics/SVG/1.1/DTD/svg11.dtd">
<svg version="1.1" id="Layer_1" xmlns="http://www.w3.org/2000/svg" xmlns:xlink="http://www.w3.org/1999/xlink" x="0px" y="0px"
	 width="270px" height="155px" viewBox="0 0 270 155" enable-background="new 0 0 270 155" xml:space="preserve">
<g>
	<path fill-rule="evenodd" clip-rule="evenodd" fill="#CDCACA" d="M235.05,75.1l0.1,0.25h-18.1H37.55l0.1-0.25h179.4H235.05z
		 M235.05,62.1l0.1,0.25h-18.1H37.65V62.1h179.4H235.05z M235.05,36l0.1,0.25h-18.1H37.65V36h179.4H235H235.05z M235.05,49.1
		l0.1,0.25h-18.1H37.55l0.1-0.25h179.4H235.05z"/>
	<g>
		
			<radialGradient id="SVGID_1_" cx="56" cy="12.4004" r="37.9999" gradientTransform="matrix(1 0 0 0.1545 5.4502 141.1796)" gradientUnits="userSpaceOnUse">
			<stop  offset="0" style="stop-color:#000000;stop-opacity:0.498"/>
			<stop  offset="0.1882" style="stop-color:#000000;stop-opacity:0.4"/>
			<stop  offset="0.4078" style="stop-color:#000000;stop-opacity:0.251"/>
			<stop  offset="0.6941" style="stop-color:#000000;stop-opacity:0.0902"/>
			<stop  offset="0.9098" style="stop-color:#000000;stop-opacity:7.843138e-003"/>
			<stop  offset="1" style="stop-color:#000000;stop-opacity:0"/>
		</radialGradient>
		<path fill-rule="evenodd" clip-rule="evenodd" fill="url(#SVGID_1_)" d="M32.6,147.25c-7.97-1.14-11.95-2.53-11.95-4.16
			s3.98-3.03,11.95-4.19c7.97-1.14,17.58-1.71,28.85-1.71s20.88,0.57,28.85,1.71c7.97,1.16,11.95,2.56,11.95,4.19
			s-3.98,3.02-11.95,4.16c-7.97,1.16-17.58,1.74-28.85,1.74S40.57,148.41,32.6,147.25z"/>
		
			<radialGradient id="SVGID_2_" cx="56" cy="12.4004" r="37.9999" gradientTransform="matrix(1 0 0 0.1545 154.25 141.1796)" gradientUnits="userSpaceOnUse">
			<stop  offset="0" style="stop-color:#000000;stop-opacity:0.498"/>
			<stop  offset="0.1882" style="stop-color:#000000;stop-opacity:0.4"/>
			<stop  offset="0.4078" style="stop-color:#000000;stop-opacity:0.251"/>
			<stop  offset="0.6941" style="stop-color:#000000;stop-opacity:0.0863"/>
			<stop  offset="0.9098" style="stop-color:#000000;stop-opacity:7.843138e-003"/>
			<stop  offset="1" style="stop-color:#000000;stop-opacity:0"/>
		</radialGradient>
		<path fill-rule="evenodd" clip-rule="evenodd" fill="url(#SVGID_2_)" d="M181.4,147.25c-7.97-1.14-11.95-2.53-11.95-4.16
			s3.98-3.03,11.95-4.19c7.97-1.14,17.58-1.71,28.85-1.71s20.88,0.57,28.85,1.71c7.97,1.16,11.95,2.56,11.95,4.19
			s-3.98,3.02-11.95,4.16c-7.97,1.16-17.58,1.74-28.85,1.74S189.37,148.41,181.4,147.25z"/>
		
			<radialGradient id="SVGID_3_" cx="61.7212" cy="12.4004" r="37.9999" gradientTransform="matrix(2.7448 0 0 0.1545 -27.819 141.1796)" gradientUnits="userSpaceOnUse">
			<stop  offset="0" style="stop-color:#000000;stop-opacity:0.2706"/>
			<stop  offset="0.1961" style="stop-color:#000000;stop-opacity:0.2118"/>
			<stop  offset="0.3569" style="stop-color:#000000;stop-opacity:0.1569"/>
			<stop  offset="0.6235" style="stop-color:#000000;stop-opacity:0.0863"/>
			<stop  offset="0.8431" style="stop-color:#000000;stop-opacity:7.843138e-003"/>
			<stop  offset="1" style="stop-color:#000000;stop-opacity:0"/>
		</radialGradient>
		<path fill-rule="evenodd" clip-rule="evenodd" fill="url(#SVGID_3_)" d="M62.41,147.25c-21.87-1.14-32.8-2.53-32.8-4.16
			s10.93-3.03,32.8-4.19c21.87-1.14,48.26-1.71,79.19-1.71c30.92,0,57.32,0.57,79.19,1.71c21.87,1.16,32.8,2.56,32.8,4.19
			s-10.93,3.02-32.8,4.16c-21.87,1.16-48.26,1.74-79.19,1.74C110.67,149,84.27,148.41,62.41,147.25z"/>
		
			<radialGradient id="SVGID_4_" cx="61.4575" cy="12.4004" r="37.9995" gradientTransform="matrix(2.5402 0 0 0.1545 -36.4758 139.9296)" gradientUnits="userSpaceOnUse">
			<stop  offset="0" style="stop-color:#000000;stop-opacity:0.2706"/>
			<stop  offset="0.1961" style="stop-color:#000000;stop-opacity:0.2118"/>
			<stop  offset="0.3569" style="stop-color:#000000;stop-opacity:0.1529"/>
			<stop  offset="0.6235" style="stop-color:#000000;stop-opacity:0.0863"/>
			<stop  offset="0.8431" style="stop-color:#000000;stop-opacity:7.843138e-003"/>
			<stop  offset="1" style="stop-color:#000000;stop-opacity:0"/>
		</radialGradient>
		<path fill-rule="evenodd" clip-rule="evenodd" fill="url(#SVGID_4_)" d="M46.35,146C26.12,144.86,16,143.48,16,141.84
			s10.12-3.03,30.35-4.19c20.24-1.14,44.67-1.71,73.29-1.71s53.05,0.57,73.28,1.71c20.24,1.16,30.36,2.56,30.36,4.19
			s-10.12,3.02-30.36,4.16c-20.24,1.16-44.67,1.74-73.28,1.74S66.59,147.16,46.35,146z"/>
		
			<radialGradient id="SVGID_5_" cx="59.9424" cy="12.4004" r="37.9995" gradientTransform="matrix(1.7794 0 0 0.1545 70.2727 139.8798)" gradientUnits="userSpaceOnUse">
			<stop  offset="0" style="stop-color:#000000;stop-opacity:0.2706"/>
			<stop  offset="0.1961" style="stop-color:#000000;stop-opacity:0.2118"/>
			<stop  offset="0.3569" style="stop-color:#000000;stop-opacity:0.149"/>
			<stop  offset="0.6235" style="stop-color:#000000;stop-opacity:0.0863"/>
			<stop  offset="0.8431" style="stop-color:#000000;stop-opacity:7.843138e-003"/>
			<stop  offset="1" style="stop-color:#000000;stop-opacity:0"/>
		</radialGradient>
		<path fill-rule="evenodd" clip-rule="evenodd" fill="url(#SVGID_5_)" d="M125.6,145.95c-14.18-1.14-21.26-2.53-21.26-4.16
			s7.09-3.03,21.26-4.19c14.18-1.14,31.29-1.71,51.34-1.71s37.16,0.57,51.34,1.71c14.18,1.16,21.26,2.56,21.26,4.19
			s-7.09,3.02-21.26,4.16c-14.18,1.16-31.29,1.74-51.34,1.74S139.77,147.11,125.6,145.95z"/>
		
			<radialGradient id="SVGID_6_" cx="97.8501" cy="140.5508" r="67.6124" gradientTransform="matrix(1 0 0 0.0869 0 128.338)" gradientUnits="userSpaceOnUse">
			<stop  offset="0" style="stop-color:#000000;stop-opacity:0.2706"/>
			<stop  offset="0.1961" style="stop-color:#000000;stop-opacity:0.2118"/>
			<stop  offset="0.3569" style="stop-color:#000000;stop-opacity:0.1451"/>
			<stop  offset="0.6235" style="stop-color:#000000;stop-opacity:0.0863"/>
			<stop  offset="0.8431" style="stop-color:#000000;stop-opacity:7.843138e-003"/>
			<stop  offset="1" style="stop-color:#000000;stop-opacity:0"/>
		</radialGradient>
		<path fill-rule="evenodd" clip-rule="evenodd" fill="url(#SVGID_6_)" d="M149.15,144.7c-14.17,1.17-31.27,1.75-51.3,1.75
			c-20.07,0-37.18-0.58-51.35-1.75c-14.17-1.13-21.25-2.52-21.25-4.15c0-1.63,7.08-3.03,21.25-4.2c14.17-1.13,31.28-1.7,51.35-1.7
			c20.03,0,37.13,0.57,51.3,1.7c14.2,1.17,21.3,2.57,21.3,4.2C170.45,142.18,163.35,143.57,149.15,144.7z"/>
	</g>
	<g>
		<path fill-rule="evenodd" clip-rule="evenodd" d="M210.6,6.95c6.7,0.13,12.42,2.57,17.15,7.3c4.9,4.9,7.35,10.8,7.35,17.7v77
			c0,6.9-2.45,12.78-7.35,17.65c-4.73,4.77-10.45,7.22-17.15,7.35H62.65c-0.17,0-0.33,0-0.5,0c-0.63,0-1.25-0.03-1.85-0.1
			c-5.83-0.5-10.9-2.87-15.2-7.1c-0.03-0.03-0.08-0.08-0.15-0.15c-4.87-4.87-7.3-10.75-7.3-17.65v-77c0-6.9,2.43-12.8,7.3-17.7
			c4.77-4.73,10.5-7.17,17.2-7.3c0.17,0,0.33,0,0.5,0H210.6z"/>
	</g>
	<g>
		<linearGradient id="SVGID_7_" gradientUnits="userSpaceOnUse" x1="37.6499" y1="72.4502" x2="235.5999" y2="72.4502">
			<stop  offset="0" style="stop-color:#2A3A3A"/>
			<stop  offset="0.0353" style="stop-color:#293334"/>
			<stop  offset="0.0745" style="stop-color:#3F4E4F"/>
			<stop  offset="0.1137" style="stop-color:#2A3A3A"/>
			<stop  offset="0.9098" style="stop-color:#252E33"/>
			<stop  offset="0.9412" style="stop-color:#364344"/>
			<stop  offset="0.9686" style="stop-color:#242D2E"/>
		</linearGradient>
		<path fill-rule="evenodd" clip-rule="evenodd" fill="url(#SVGID_7_)" d="M210.6,8.95c6.7,0.13,12.42,2.57,17.15,7.3
			c4.9,4.9,7.35,10.8,7.35,17.7v77c0,6.9-2.45,12.78-7.35,17.65c-4.73,4.77-10.45,7.22-17.15,7.35H62.65c-0.17,0-0.33,0-0.5,0
			c-0.63,0-1.25-0.03-1.85-0.1c-5.83-0.5-10.9-2.87-15.2-7.1c-0.03-0.03-0.08-0.08-0.15-0.15c-4.87-4.87-7.3-10.75-7.3-17.65v-77
			c0-6.9,2.43-12.8,7.3-17.7c4.77-4.73,10.5-7.17,17.2-7.3c0.17,0,0.33,0,0.5,0H210.6z"/>
	</g>
	<g>
		
			<linearGradient id="SVGID_8_" gradientUnits="userSpaceOnUse" x1="127.8706" y1="-595.5947" x2="133.688" y2="-595.5947" gradientTransform="matrix(0.0774 0.997 -1.003 1.314123e-005 -471.1859 -57.6407)">
			<stop  offset="0" style="stop-color:#151515"/>
			<stop  offset="0.1216" style="stop-color:#303030"/>
			<stop  offset="0.4196" style="stop-color:#282828"/>
			<stop  offset="1" style="stop-color:#000000"/>
		</linearGradient>
		<rect x="37.6" y="69.25" fill-rule="evenodd" clip-rule="evenodd" fill="url(#SVGID_8_)" width="197.35" height="5.95"/>
	</g>
	<g>
		
			<linearGradient id="SVGID_9_" gradientUnits="userSpaceOnUse" x1="114.8315" y1="-596.6006" x2="120.649" y2="-596.6006" gradientTransform="matrix(0.0774 0.997 -1.003 1.314123e-005 -471.1859 -57.6407)">
			<stop  offset="0" style="stop-color:#151515"/>
			<stop  offset="0.1216" style="stop-color:#303030"/>
			<stop  offset="0.4196" style="stop-color:#282828"/>
			<stop  offset="1" style="stop-color:#000000"/>
		</linearGradient>
		<rect x="37.6" y="56.25" fill-rule="evenodd" clip-rule="evenodd" fill="url(#SVGID_9_)" width="197.35" height="5.95"/>
	</g>
	<g>
		
			<linearGradient id="SVGID_10_" gradientUnits="userSpaceOnUse" x1="101.8433" y1="-597.6519" x2="107.6607" y2="-597.6519" gradientTransform="matrix(0.0774 0.997 -1.003 1.314123e-005 -471.1859 -57.6407)">
			<stop  offset="0" style="stop-color:#151515"/>
			<stop  offset="0.1216" style="stop-color:#303030"/>
			<stop  offset="0.4196" style="stop-color:#282828"/>
			<stop  offset="1" style="stop-color:#000000"/>
		</linearGradient>
		<rect x="37.65" y="43.3" fill-rule="evenodd" clip-rule="evenodd" fill="url(#SVGID_10_)" width="197.35" height="5.95"/>
	</g>
	<g>
		
			<linearGradient id="SVGID_11_" gradientUnits="userSpaceOnUse" x1="88.5532" y1="-598.6094" x2="94.3707" y2="-598.6094" gradientTransform="matrix(0.0774 0.997 -1.003 1.314123e-005 -471.1859 -57.6407)">
			<stop  offset="0" style="stop-color:#333333"/>
			<stop  offset="0.4196" style="stop-color:#282828"/>
			<stop  offset="1" style="stop-color:#000000"/>
		</linearGradient>
		<path fill-rule="evenodd" clip-rule="evenodd" fill="url(#SVGID_11_)" d="M234.8,30.05c0.23,1.7,0.33,3.22,0.3,4.55
			c0,1.17-0.05,1.63-0.15,1.4H37.65c-0.07-1.87,0.02-3.85,0.25-5.95H234.8z"/>
	</g>
	<g>
		<path fill-rule="evenodd" clip-rule="evenodd" fill="#313C40" d="M142.1,43.35h-0.7h-1h-1.95H92.3h-2.45h-11.5H77.4h-15H37.7
			c-1.5-2.1-1.5-4.53,0-7.3h24.7h15h0.95h11.5h2.45h46.15h1.95h1h0.7h68.2h8.75h6.1h9.95c1.47,2.77,1.47,5.2,0,7.3h-24.8H142.1z"/>
	</g>
	<g>
		<path fill-rule="evenodd" clip-rule="evenodd" fill="#313C40" d="M142.05,56.35h-0.75h-0.95h-2h-46.1H89.8H78.35h-1h-15h-24.7
			c-1.5-2.1-1.5-4.53,0-7.3h24.7h15h1H89.8h2.45h46.1h2h0.95h0.75h68.2h8.7h6.1h10c1.47,2.77,1.47,5.2,0,7.3h-24.8H142.05z"/>
	</g>
	<g>
		<path fill-rule="evenodd" clip-rule="evenodd" fill="#313C40" d="M141.35,62.05h0.75h68.2h8.7h6.1h10c1.47,2.77,1.47,5.2,0,7.3
			h-24.8h-68.2h-0.75h-0.95h-2H92.2h-2.45h-11.4h-1h-15H37.6c-1.5-2.1-1.5-4.53,0-7.3h24.75h15h1h11.4h2.45h46.2h2H141.35z"/>
	</g>
	<g>
		<path fill-rule="evenodd" clip-rule="evenodd" fill="#313C40" d="M138.35,75.05h2h0.95h0.75h68.2H219h6.1h9.95
			c1.47,2.77,1.47,5.2,0,7.3h-24.8h-68.2h-0.75h-0.95h-2H92.2h-2.45h-11.4h-1h-15H37.6c-1.47-2.1-1.47-4.53,0-7.3h24.75h15h1h11.4
			h2.45H138.35z"/>
	</g>
	<g>
		<path fill-rule="evenodd" clip-rule="evenodd" d="M120.9,17.35h4.5h18h0.75h11.5h0.75h7.5h5h44.7c5.67,0,8.5,2.85,8.5,8.55v94.4
			c0,5.7-2.83,8.55-8.5,8.55h-44.7h-5h-7.5h-0.75h-11.5h-0.75h-18h-4.5H58.95c-5.7,0-8.55-2.85-8.55-8.55V25.9
			c0-5.7,2.85-8.55,8.55-8.55H120.9z"/>
	</g>
	<linearGradient id="SVGID_12_" gradientUnits="userSpaceOnUse" x1="136.2871" y1="133.2002" x2="136.2638" y2="10.7007">
		<stop  offset="0" style="stop-color:#2A3A3A"/>
		<stop  offset="0.9098" style="stop-color:#252E33"/>
		<stop  offset="0.9412" style="stop-color:#435454"/>
		<stop  offset="0.9569" style="stop-color:#353F40"/>
		<stop  offset="0.9765" style="stop-color:#2C3637"/>
		<stop  offset="1" style="stop-color:#242D2E"/>
	</linearGradient>
	<path fill-rule="evenodd" clip-rule="evenodd" fill="url(#SVGID_12_)" d="M159.15,18h5h9.5h2.5h36.25c5.67,0,8.5,2.85,8.5,8.55
		v27.9v2.5v17v2.5v4.75v5v2v2.5v8.55v1.9v18.2c0,5.67-2.83,8.5-8.5,8.5h-36.25h-2.5h-9.5h-5h-73.5h-2.5h-23
		c-5.67,0-8.5-2.83-8.5-8.5v-18.2v-1.9V93.6v-2.9v-2.5v-2v-5v-4.75v-2.5v-17v-2.5v-27.9c0-5.7,2.83-8.55,8.5-8.55h23h2.5H159.15z"/>
	<g>
		<linearGradient id="SVGID_13_" gradientUnits="userSpaceOnUse" x1="136.2754" y1="54.5625" x2="136.2754" y2="95.5375">
			<stop  offset="0" style="stop-color:#B1C6B7"/>
			<stop  offset="0.5255" style="stop-color:#A0ADA4"/>
			<stop  offset="1" style="stop-color:#878787"/>
		</linearGradient>
		<path fill-rule="evenodd" clip-rule="evenodd" fill="url(#SVGID_13_)" d="M203.25,29.55c5.7,0,8.55,2.83,8.55,8.5v13.7V81
			c0,5.7-2.85,8.55-8.55,8.55H116.6H69.3c-5.7,0-8.55-2.85-8.55-8.55V51.75v-13.7c0-5.67,2.85-8.5,8.55-8.5h47.3H203.25z"/>
	</g>
	<g>
		<linearGradient id="SVGID_14_" gradientUnits="userSpaceOnUse" x1="66.001" y1="60.6836" x2="101.8754" y2="29.0829">
			<stop  offset="0" style="stop-color:#202F36"/>
			<stop  offset="0.1412" style="stop-color:#202D35"/>
			<stop  offset="0.2824" style="stop-color:#3D4F51"/>
			<stop  offset="0.5412" style="stop-color:#152630"/>
		</linearGradient>
		<path fill-rule="evenodd" clip-rule="evenodd" fill="url(#SVGID_14_)" d="M137.55,28.45v3H115.7H71.2c-5.67,0-8.5,2.85-8.5,8.55
			v13.7v5.95h-3v-3V50.7V37c0-5.7,2.83-8.55,8.5-8.55h44.5H137.55z"/>
		<linearGradient id="SVGID_15_" gradientUnits="userSpaceOnUse" x1="176.7734" y1="35.2002" x2="197.0901" y2="70.7049">
			<stop  offset="0" style="stop-color:#152630"/>
			<stop  offset="0.1412" style="stop-color:#202D35"/>
			<stop  offset="0.2824" style="stop-color:#3D4F51"/>
			<stop  offset="0.5412" style="stop-color:#131B1E"/>
		</linearGradient>
		<path fill-rule="evenodd" clip-rule="evenodd" fill="url(#SVGID_15_)" d="M137.55,28.45h67c5.7,0,8.55,2.85,8.55,8.55v13.7v5.95v3
			h-3V53.7V40c0-5.7-2.85-8.55-8.55-8.55h-64V28.45z"/>
		<linearGradient id="SVGID_16_" gradientUnits="userSpaceOnUse" x1="79.0117" y1="64.0532" x2="99.9275" y2="89.0859">
			<stop  offset="0" style="stop-color:#202F36"/>
			<stop  offset="0.1412" style="stop-color:#202D35"/>
			<stop  offset="0.2824" style="stop-color:#3D4F51"/>
			<stop  offset="0.5412" style="stop-color:#384444"/>
		</linearGradient>
		<path fill-rule="evenodd" clip-rule="evenodd" fill="url(#SVGID_16_)" d="M62.7,59.65V79.8c0,5.7,2.83,8.55,8.5,8.55h44.5h21.85v3
			H112.7H68.2c-5.67,0-8.5-2.85-8.5-8.55V59.65H62.7z"/>
		<linearGradient id="SVGID_17_" gradientUnits="userSpaceOnUse" x1="203.3818" y1="69.1089" x2="183.4583" y2="82.6109">
			<stop  offset="0" style="stop-color:#131B1E"/>
			<stop  offset="0.1412" style="stop-color:#202D35"/>
			<stop  offset="0.2824" style="stop-color:#3D4F51"/>
			<stop  offset="0.7294" style="stop-color:#384444"/>
		</linearGradient>
		<path fill-rule="evenodd" clip-rule="evenodd" fill="url(#SVGID_17_)" d="M213.1,59.65V82.8c0,5.7-2.85,8.55-8.55,8.55h-67v-3h64
			c5.7,0,8.55-2.85,8.55-8.55V59.65H213.1z"/>
	</g>
	
		<radialGradient id="SVGID_18_" cx="201.1504" cy="-98.1499" r="75.725" gradientTransform="matrix(1 0 0 2.202 -63.3501 244.22)" gradientUnits="userSpaceOnUse">
		<stop  offset="0" style="stop-color:#FFFFFF;stop-opacity:0.2392"/>
		<stop  offset="0.5569" style="stop-color:#FFFFFF;stop-opacity:0.1961"/>
		<stop  offset="1" style="stop-color:#FFFFFF;stop-opacity:0"/>
	</radialGradient>
	<path fill-rule="evenodd" clip-rule="evenodd" fill="url(#SVGID_18_)" d="M205.45,27.81c0.04-0.01,0.07,0.01,0.1,0.06
		c0.02,0.07,0.03,0.14,0.02,0.23c0,0.09,0,0.17-0.02,0.23c-0.03,0.05-0.06,0.07-0.1,0.06H66.25c-0.04,0.01-0.07-0.01-0.1-0.06
		c-0.02-0.07-0.03-0.15-0.03-0.23c0-0.09,0-0.17,0.03-0.23c0.03-0.05,0.06-0.07,0.1-0.06H205.45z"/>
	
		<radialGradient id="SVGID_19_" cx="202.2998" cy="-34.5498" r="73.0875" gradientTransform="matrix(1 0 0 2.4756 -63.3501 178.4338)" gradientUnits="userSpaceOnUse">
		<stop  offset="0" style="stop-color:#FFFFFF;stop-opacity:0.2392"/>
		<stop  offset="0.7098" style="stop-color:#FFFFFF;stop-opacity:0.1961"/>
		<stop  offset="1" style="stop-color:#FFFFFF;stop-opacity:0"/>
	</radialGradient>
	<path fill-rule="evenodd" clip-rule="evenodd" fill="url(#SVGID_19_)" d="M63.5,92.22c-0.04,0.01-0.07-0.01-0.1-0.07
		c-0.02-0.08-0.03-0.19-0.03-0.3c0-0.12,0-0.21,0.03-0.3c0.03-0.06,0.06-0.09,0.1-0.08h146.3c0.04-0.01,0.07,0.01,0.1,0.08
		c0.02,0.08,0.03,0.18,0.03,0.3c0,0.12-0.01,0.22-0.03,0.3c-0.03,0.06-0.06,0.09-0.1,0.07H63.5z"/>
	<g>
		<path fill-rule="evenodd" clip-rule="evenodd" fill="#0B191A" d="M115.7,88.35H71.2c-5.67,0-8.5-2.85-8.5-8.55v-1.25
			c0.13,5.4,2.97,8.1,8.5,8.1h44.5h21.85h64c5.53,0,8.38-2.7,8.55-8.1v1.25c0,5.7-2.85,8.55-8.55,8.55h-64H115.7z"/>
	</g>
	
		<radialGradient id="SVGID_20_" cx="153.0664" cy="-14.7012" r="7.7005" gradientTransform="matrix(10.79 0 1.525879e-005 0.3177 -1508.2893 22.7152)" gradientUnits="userSpaceOnUse">
		<stop  offset="0" style="stop-color:#FFFFFF;stop-opacity:0.4392"/>
		<stop  offset="0.1176" style="stop-color:#FFFFFF;stop-opacity:0.2667"/>
		<stop  offset="0.2431" style="stop-color:#FFFFFF;stop-opacity:0.149"/>
		<stop  offset="0.4549" style="stop-color:#FFFFFF;stop-opacity:0.0667"/>
		<stop  offset="0.6627" style="stop-color:#FFFFFF;stop-opacity:7.843138e-003"/>
		<stop  offset="0.8431" style="stop-color:#FFFFFF;stop-opacity:7.843138e-003"/>
		<stop  offset="1" style="stop-color:#FFFFFF;stop-opacity:0"/>
	</radialGradient>
	<path fill-rule="evenodd" clip-rule="evenodd" fill="url(#SVGID_20_)" d="M66.69,18.04c0-0.63,7.38-1.16,22.12-1.6
		c15.11-0.43,33.28-0.65,54.5-0.65c21.21,0,39.2,0.22,53.95,0.65c15.1,0.44,22.65,0.98,22.66,1.6c0,0.62-7.56,1.15-22.66,1.59
		c-14.75,0.44-32.74,0.67-53.95,0.67c-21.22,0-39.39-0.22-54.5-0.67C74.06,19.2,66.69,18.67,66.69,18.04z"/>
	
		<radialGradient id="SVGID_21_" cx="153.0664" cy="-14.7002" r="7.7" gradientTransform="matrix(10.79 0 1.525879e-005 0.3177 -1503.1877 96.4652)" gradientUnits="userSpaceOnUse">
		<stop  offset="0" style="stop-color:#FFFFFF;stop-opacity:0.4392"/>
		<stop  offset="0.1176" style="stop-color:#FFFFFF;stop-opacity:0.2667"/>
		<stop  offset="0.2431" style="stop-color:#FFFFFF;stop-opacity:0.1451"/>
		<stop  offset="0.4549" style="stop-color:#FFFFFF;stop-opacity:0.0667"/>
		<stop  offset="0.6627" style="stop-color:#FFFFFF;stop-opacity:7.843138e-003"/>
		<stop  offset="0.8431" style="stop-color:#FFFFFF;stop-opacity:7.843138e-003"/>
		<stop  offset="1" style="stop-color:#FFFFFF;stop-opacity:0"/>
	</radialGradient>
	<path fill-rule="evenodd" clip-rule="evenodd" fill="url(#SVGID_21_)" d="M71.79,91.79c0-0.63,7.38-1.16,22.12-1.6
		c15.11-0.43,33.28-0.65,54.5-0.65c21.21,0,39.2,0.22,53.95,0.65c15.1,0.44,22.66,0.98,22.66,1.6s-7.55,1.15-22.66,1.59
		c-14.75,0.45-32.74,0.67-53.95,0.67c-21.22,0-39.39-0.22-54.5-0.67C79.16,92.95,71.79,92.42,71.79,91.79z"/>
	
		<radialGradient id="SVGID_22_" cx="140.6738" cy="10.6006" r="7.7003" gradientTransform="matrix(0.3403 0.3403 -0.1778 0.1779 16.1866 39.4342)" gradientUnits="userSpaceOnUse">
		<stop  offset="0" style="stop-color:#FFFFFF;stop-opacity:0.4392"/>
		<stop  offset="0.1176" style="stop-color:#FFFFFF;stop-opacity:0.2667"/>
		<stop  offset="0.2431" style="stop-color:#FFFFFF;stop-opacity:0.1412"/>
		<stop  offset="0.4549" style="stop-color:#FFFFFF;stop-opacity:0.0667"/>
		<stop  offset="0.6627" style="stop-color:#FFFFFF;stop-opacity:7.843138e-003"/>
		<stop  offset="0.8431" style="stop-color:#FFFFFF;stop-opacity:7.843138e-003"/>
		<stop  offset="1" style="stop-color:#FFFFFF;stop-opacity:0"/>
	</radialGradient>
	<path fill-rule="evenodd" clip-rule="evenodd" fill="url(#SVGID_22_)" d="M59.75,86.77c0.35-0.35,0.88-0.42,1.6-0.2
		c0.72,0.23,1.41,0.68,2.08,1.35c0.67,0.67,1.11,1.36,1.34,2.07c0.23,0.72,0.17,1.26-0.18,1.61c-0.35,0.35-0.88,0.41-1.6,0.17
		c-0.71-0.22-1.41-0.66-2.07-1.33c-0.67-0.67-1.12-1.37-1.35-2.09C59.34,87.65,59.4,87.12,59.75,86.77z"/>
	<g>
		<g>
			<path fill-rule="evenodd" clip-rule="evenodd" fill="#27292A" d="M35.3,94.85c0.53-0.67,0.83-1,0.9-1h13.5l-1.1,1.05v-0.05H35.3z
				"/>
			<linearGradient id="SVGID_23_" gradientUnits="userSpaceOnUse" x1="69.2065" y1="225.5508" x2="49.9593" y2="107.4044">
				<stop  offset="0" style="stop-color:#161D25"/>
				<stop  offset="0.4784" style="stop-color:#151C22"/>
				<stop  offset="1" style="stop-color:#30363B"/>
			</linearGradient>
			<path fill-rule="evenodd" clip-rule="evenodd" fill="url(#SVGID_23_)" d="M71.05,130.65h0.05v12.9l-16,0.2
				c-0.27-0.03-0.52-0.05-0.75-0.05c-4.7-0.63-8.8-2.65-12.3-6.05c-0.1-0.1-0.2-0.2-0.3-0.3c-4.2-4.23-6.37-9.28-6.5-15.15V94.85
				h0.05h13.3v0.05v27.25c0.07,2.3,0.92,4.27,2.55,5.9c0.97,0.97,2.03,1.67,3.2,2.1c0.7,0.27,1.43,0.43,2.2,0.5c0.2,0,0.4,0,0.6,0
				H71.05z"/>
			<path fill-rule="evenodd" clip-rule="evenodd" fill="#101212" d="M71.85,129.65l-0.8,1h-13.9c-0.2,0-0.4,0-0.6,0
				c-0.77-0.07-1.5-0.23-2.2-0.5c-1.17-0.43-2.23-1.13-3.2-2.1c-1.63-1.63-2.48-3.6-2.55-5.9V94.9l1.1-1.05v27.25
				c0.07,2.3,0.92,4.27,2.55,5.9c0.97,0.97,2.03,1.67,3.2,2.1c0.7,0.27,1.43,0.43,2.2,0.5c0.2,0,0.4,0,0.6,0H71.9L71.85,129.65z"/>
			<polygon fill-rule="evenodd" clip-rule="evenodd" fill="#191919" points="71.1,143.55 71.1,130.65 71.05,130.65 71.85,129.65 
				71.85,141.3 			"/>
		</g>
		<g>
			<polygon fill-rule="evenodd" clip-rule="evenodd" fill="#7B7B7B" points="48.6,95 48.5,95 35.25,95 35.25,94.85 35.3,94.75 
				48.8,94.75 			"/>
			<path fill-rule="evenodd" clip-rule="evenodd" fill="#2A2A2A" d="M48.6,95h0.15v27.15c0.07,2.27,0.9,4.2,2.5,5.8
				c0.97,0.97,2.02,1.67,3.15,2.1c0.7,0.23,1.42,0.4,2.15,0.5c0.2,0,0.4,0,0.6,0h13.9c0.03-0.03,0.07-0.03,0.1,0s0.05,0.07,0.05,0.1
				c0,0.03-0.02,0.07-0.05,0.1s-0.07,0.05-0.1,0.05h-13.9c-0.2,0-0.4,0-0.6,0c-0.8-0.07-1.55-0.23-2.25-0.5
				c-1.2-0.47-2.28-1.18-3.25-2.15c-1.67-1.67-2.52-3.67-2.55-6V95H48.6z"/>
		</g>
		
			<radialGradient id="SVGID_24_" cx="148.209" cy="-4.7021" r="7.7008" gradientTransform="matrix(0.791 0.7909 -0.4501 0.4501 -68.1669 11.8748)" gradientUnits="userSpaceOnUse">
			<stop  offset="0" style="stop-color:#FFFFFF;stop-opacity:0.4392"/>
			<stop  offset="0.1176" style="stop-color:#FFFFFF;stop-opacity:0.2667"/>
			<stop  offset="0.2431" style="stop-color:#FFFFFF;stop-opacity:0.149"/>
			<stop  offset="0.4549" style="stop-color:#FFFFFF;stop-opacity:0.0667"/>
			<stop  offset="0.6627" style="stop-color:#FFFFFF;stop-opacity:7.843138e-003"/>
			<stop  offset="0.8431" style="stop-color:#FFFFFF;stop-opacity:7.843138e-003"/>
			<stop  offset="1" style="stop-color:#FFFFFF;stop-opacity:0"/>
		</radialGradient>
		<path fill-rule="evenodd" clip-rule="evenodd" fill="url(#SVGID_24_)" d="M45.56,121.37c0.88-0.88,2.18-1.1,3.89-0.65
			c1.72,0.49,3.36,1.52,4.92,3.07c1.56,1.55,2.57,3.18,3.03,4.88c0.48,1.74,0.27,3.05-0.61,3.93c-0.88,0.89-2.19,1.08-3.91,0.59
			c-1.71-0.45-3.35-1.45-4.9-3.01c-1.56-1.55-2.57-3.2-3.05-4.94C44.47,123.54,44.68,122.25,45.56,121.37z"/>
		
			<radialGradient id="SVGID_25_" cx="41.2998" cy="136.3496" r="21.885" gradientTransform="matrix(0.7071 0.7071 -0.2719 0.2719 49.1667 70.076)" gradientUnits="userSpaceOnUse">
			<stop  offset="0" style="stop-color:#FFFFFF;stop-opacity:0.4392"/>
			<stop  offset="0.1176" style="stop-color:#FFFFFF;stop-opacity:0.2667"/>
			<stop  offset="0.2431" style="stop-color:#FFFFFF;stop-opacity:0.1451"/>
			<stop  offset="0.4549" style="stop-color:#FFFFFF;stop-opacity:0.0667"/>
			<stop  offset="0.6627" style="stop-color:#FFFFFF;stop-opacity:7.843138e-003"/>
			<stop  offset="0.8431" style="stop-color:#FFFFFF;stop-opacity:7.843138e-003"/>
			<stop  offset="1" style="stop-color:#FFFFFF;stop-opacity:0"/>
		</radialGradient>
		<path fill-rule="evenodd" clip-rule="evenodd" fill="url(#SVGID_25_)" d="M54.35,143.7c-4.83-0.67-9.03-2.78-12.6-6.35
			c-4.15-4.19-6.32-9.17-6.5-14.95c3.8,1.74,7.65,4.55,11.55,8.45c3.93,3.93,6.75,7.82,8.45,11.65c0.19,0.43,0.37,0.84,0.52,1.25
			H55.1C54.83,143.72,54.58,143.7,54.35,143.7z"/>
		
			<radialGradient id="SVGID_26_" cx="123.1138" cy="15.793" r="7.7005" gradientTransform="matrix(0.1462 0.1462 -0.1476 0.1476 32.8907 74.562)" gradientUnits="userSpaceOnUse">
			<stop  offset="0" style="stop-color:#FFFFFF"/>
			<stop  offset="0.0549" style="stop-color:#FFFFFF;stop-opacity:0.7373"/>
			<stop  offset="0.1843" style="stop-color:#FFFFFF;stop-opacity:0.251"/>
			<stop  offset="0.3451" style="stop-color:#FFFFFF;stop-opacity:0.1765"/>
			<stop  offset="0.5373" style="stop-color:#FFFFFF;stop-opacity:0.0667"/>
			<stop  offset="0.7176" style="stop-color:#FFFFFF;stop-opacity:7.843138e-003"/>
			<stop  offset="1" style="stop-color:#FFFFFF;stop-opacity:0"/>
		</radialGradient>
		<path fill-rule="evenodd" clip-rule="evenodd" fill="url(#SVGID_26_)" d="M47.52,93.85c0.29-0.29,0.64-0.44,1.04-0.45
			c0.41,0,0.75,0.15,1.04,0.44c0.29,0.29,0.43,0.63,0.43,1.03c0,0.41-0.15,0.76-0.44,1.05c-0.29,0.29-0.64,0.43-1.04,0.43
			c-0.41,0.01-0.75-0.13-1.04-0.42c-0.29-0.29-0.43-0.64-0.43-1.05C47.08,94.49,47.23,94.14,47.52,93.85z"/>
	</g>
	<g>
		<g>
			<path fill-rule="evenodd" clip-rule="evenodd" fill="#27292A" d="M224.1,94.9l-1.1-1.05h13.5c0.07,0,0.37,0.33,0.9,1h-13.3V94.9z
				"/>
			
				<linearGradient id="SVGID_27_" gradientUnits="userSpaceOnUse" x1="-25.3174" y1="-817.3457" x2="32.7188" y2="-817.3457" gradientTransform="matrix(-0.3426 0.9395 -0.9395 -0.3426 -544.2021 -163.2126)">
				<stop  offset="0" style="stop-color:#42484E"/>
				<stop  offset="1" style="stop-color:#21262A"/>
			</linearGradient>
			<path fill-rule="evenodd" clip-rule="evenodd" fill="url(#SVGID_27_)" d="M201.6,143.55v-12.9h0.05h13.9c0.2,0,0.4,0,0.6,0
				c0.77-0.07,1.5-0.23,2.2-0.5c1.17-0.43,2.23-1.13,3.2-2.1c1.63-1.63,2.48-3.6,2.55-5.9V94.9v-0.05h13.3h0.05v27.35
				c-0.13,5.87-2.3,10.92-6.5,15.15c-0.1,0.1-0.2,0.2-0.3,0.3c-3.5,3.4-7.6,5.42-12.3,6.05c-0.23,0-0.48,0.02-0.75,0.05
				L201.6,143.55z"/>
			<path fill-rule="evenodd" clip-rule="evenodd" fill="#101212" d="M201.65,130.65l-0.8-1l-0.05-0.05h13.65c0.2,0,0.4,0,0.6,0
				c0.77-0.07,1.5-0.23,2.2-0.5c1.17-0.43,2.23-1.13,3.2-2.1c1.63-1.63,2.48-3.6,2.55-5.9V93.85l1.1,1.05v27.25
				c-0.07,2.3-0.92,4.27-2.55,5.9c-0.97,0.97-2.03,1.67-3.2,2.1c-0.7,0.27-1.43,0.43-2.2,0.5c-0.2,0-0.4,0-0.6,0H201.65z"/>
			<polygon fill-rule="evenodd" clip-rule="evenodd" fill="#191919" points="200.85,129.65 201.65,130.65 201.6,130.65 
				201.6,143.55 200.85,141.3 			"/>
		</g>
		<g>
			<polygon fill-rule="evenodd" clip-rule="evenodd" fill="#7B7B7B" points="224.2,95 224.1,95 223.9,94.75 237.4,94.75 
				237.45,94.85 237.45,95 			"/>
			<path fill-rule="evenodd" clip-rule="evenodd" fill="#2A2A2A" d="M224.1,95h0.1v27.15c-0.03,2.33-0.88,4.33-2.55,6
				c-0.97,0.97-2.05,1.68-3.25,2.15c-0.7,0.27-1.45,0.43-2.25,0.5c-0.2,0-0.4,0-0.6,0h-13.9c-0.03,0-0.07-0.02-0.1-0.05
				s-0.05-0.07-0.05-0.1c0-0.03,0.02-0.07,0.05-0.1s0.07-0.03,0.1,0h13.9c0.2,0,0.4,0,0.6,0c0.73-0.1,1.45-0.27,2.15-0.5
				c1.13-0.43,2.18-1.13,3.15-2.1c1.6-1.6,2.43-3.53,2.5-5.8V95H224.1z"/>
		</g>
		
			<radialGradient id="SVGID_28_" cx="159.5898" cy="-24.6982" r="7.7" gradientTransform="matrix(-0.791 0.7909 0.4501 0.4501 358.8676 11.8748)" gradientUnits="userSpaceOnUse">
			<stop  offset="0" style="stop-color:#FFFFFF;stop-opacity:0.4392"/>
			<stop  offset="0.1176" style="stop-color:#FFFFFF;stop-opacity:0.2667"/>
			<stop  offset="0.2431" style="stop-color:#FFFFFF;stop-opacity:0.1451"/>
			<stop  offset="0.4549" style="stop-color:#FFFFFF;stop-opacity:0.0667"/>
			<stop  offset="0.6627" style="stop-color:#FFFFFF;stop-opacity:7.843138e-003"/>
			<stop  offset="0.8431" style="stop-color:#FFFFFF;stop-opacity:7.843138e-003"/>
			<stop  offset="1" style="stop-color:#FFFFFF;stop-opacity:0"/>
		</radialGradient>
		<path fill-rule="evenodd" clip-rule="evenodd" fill="url(#SVGID_28_)" d="M227.14,121.37c-0.89-0.88-2.18-1.1-3.89-0.65
			c-1.72,0.49-3.36,1.52-4.92,3.07c-1.55,1.55-2.57,3.18-3.03,4.88c-0.48,1.74-0.27,3.05,0.61,3.93c0.89,0.89,2.19,1.08,3.91,0.59
			c1.71-0.45,3.35-1.45,4.9-3.01c1.56-1.55,2.57-3.2,3.05-4.94C228.23,123.54,228.02,122.25,227.14,121.37z"/>
		
			<radialGradient id="SVGID_29_" cx="122.6499" cy="9.8999" r="21.885" gradientTransform="matrix(-0.7071 0.7071 0.2719 0.2719 315.4359 46.932)" gradientUnits="userSpaceOnUse">
			<stop  offset="0" style="stop-color:#FFFFFF;stop-opacity:0.4392"/>
			<stop  offset="0.1176" style="stop-color:#FFFFFF;stop-opacity:0.2667"/>
			<stop  offset="0.2431" style="stop-color:#FFFFFF;stop-opacity:0.1412"/>
			<stop  offset="0.4549" style="stop-color:#FFFFFF;stop-opacity:0.0667"/>
			<stop  offset="0.6627" style="stop-color:#FFFFFF;stop-opacity:7.843138e-003"/>
			<stop  offset="0.8431" style="stop-color:#FFFFFF;stop-opacity:7.843138e-003"/>
			<stop  offset="1" style="stop-color:#FFFFFF;stop-opacity:0"/>
		</radialGradient>
		<path fill-rule="evenodd" clip-rule="evenodd" fill="url(#SVGID_29_)" d="M218.35,143.7c4.83-0.67,9.03-2.78,12.6-6.35
			c4.15-4.19,6.32-9.17,6.5-14.95c-3.8,1.74-7.65,4.55-11.55,8.45c-3.93,3.93-6.75,7.82-8.45,11.65c-0.19,0.43-0.37,0.85-0.52,1.25
			h0.67C217.87,143.72,218.12,143.7,218.35,143.7z"/>
		
			<radialGradient id="SVGID_30_" cx="184.6855" cy="-45.1953" r="7.7016" gradientTransform="matrix(-0.1462 0.1462 0.1476 0.1476 257.8085 74.562)" gradientUnits="userSpaceOnUse">
			<stop  offset="0" style="stop-color:#FFFFFF"/>
			<stop  offset="0.0549" style="stop-color:#FFFFFF;stop-opacity:0.7333"/>
			<stop  offset="0.1843" style="stop-color:#FFFFFF;stop-opacity:0.251"/>
			<stop  offset="0.3451" style="stop-color:#FFFFFF;stop-opacity:0.1725"/>
			<stop  offset="0.5373" style="stop-color:#FFFFFF;stop-opacity:0.0667"/>
			<stop  offset="0.7176" style="stop-color:#FFFFFF;stop-opacity:7.843138e-003"/>
			<stop  offset="1" style="stop-color:#FFFFFF;stop-opacity:0"/>
		</radialGradient>
		<path fill-rule="evenodd" clip-rule="evenodd" fill="url(#SVGID_30_)" d="M225.18,93.85c-0.29-0.29-0.64-0.44-1.04-0.45
			c-0.41,0-0.75,0.15-1.04,0.44c-0.29,0.29-0.43,0.63-0.43,1.03c0,0.41,0.15,0.76,0.44,1.05c0.29,0.29,0.64,0.43,1.04,0.43
			c0.41,0.01,0.75-0.13,1.04-0.42c0.29-0.29,0.43-0.64,0.43-1.05C225.62,94.49,225.47,94.14,225.18,93.85z"/>
	</g>
	<g>
		<path fill-rule="evenodd" clip-rule="evenodd" d="M165.1,73.85V71.1h2.35v2.75H165.1z M165.1,65.75V63h2.35v2.75H165.1z
			 M129.8,73.85V71.1h2.35v2.75H129.8z M129.8,65.75V63h2.35v2.75H129.8z M95.1,73.85V71.1h2.35v2.75H95.1z M95.1,65.75V63h2.35
			v2.75H95.1z"/>
	</g>
	<g>
		<path fill-rule="evenodd" clip-rule="evenodd" fill="#1C2326" d="M180.65,47.95h-2.05v-8.7h2.5l1.95,4.3l1.9-4.3h2.55v8.7h-2.2
			V42.2l-1.6,3.7h-1.45l-1.6-3.7V47.95z M147.6,39.25c0.5,0.1,0.95,0.25,1.35,0.45v1.95h-0.2c-0.3-0.27-0.68-0.5-1.15-0.7
			c-0.47-0.17-0.95-0.25-1.45-0.25c-0.2,0-0.37,0-0.5,0c-0.17,0.03-0.33,0.1-0.5,0.2c-0.13,0.07-0.25,0.15-0.35,0.25
			c-0.1,0.13-0.15,0.27-0.15,0.4c0,0.23,0.08,0.42,0.25,0.55c0.17,0.13,0.47,0.25,0.9,0.35c0.3,0.07,0.58,0.13,0.85,0.2
			c0.27,0.07,0.55,0.15,0.85,0.25c0.6,0.23,1.05,0.53,1.35,0.9c0.3,0.37,0.45,0.85,0.45,1.45c0,0.87-0.33,1.55-1,2.05
			c-0.7,0.53-1.62,0.8-2.75,0.8c-0.67,0-1.25-0.07-1.75-0.2c-0.53-0.13-1-0.28-1.4-0.45v-2.1h0.15c0.47,0.37,0.95,0.65,1.45,0.85
			c0.53,0.2,1.05,0.3,1.55,0.3c0.13,0,0.3,0,0.5,0c0.2-0.03,0.37-0.08,0.5-0.15c0.13-0.07,0.25-0.15,0.35-0.25
			c0.1-0.13,0.15-0.3,0.15-0.5c0-0.2-0.08-0.38-0.25-0.55c-0.17-0.13-0.37-0.23-0.6-0.3c-0.3-0.07-0.62-0.13-0.95-0.2
			c-0.33-0.07-0.65-0.15-0.95-0.25c-0.67-0.23-1.15-0.55-1.45-0.95c-0.27-0.4-0.4-0.9-0.4-1.5c0-0.83,0.33-1.5,1-2
			c0.7-0.5,1.57-0.75,2.6-0.75C146.55,39.1,147.07,39.15,147.6,39.25z M150,41.85c0-0.83,0.33-1.5,1-2c0.7-0.5,1.57-0.75,2.6-0.75
			c0.5,0,1.02,0.05,1.55,0.15c0.5,0.1,0.95,0.25,1.35,0.45v1.95h-0.2c-0.3-0.27-0.68-0.5-1.15-0.7c-0.47-0.17-0.95-0.25-1.45-0.25
			c-0.2,0-0.37,0-0.5,0c-0.17,0.03-0.33,0.1-0.5,0.2c-0.13,0.07-0.25,0.15-0.35,0.25c-0.1,0.13-0.15,0.27-0.15,0.4
			c0,0.23,0.08,0.42,0.25,0.55c0.17,0.13,0.47,0.25,0.9,0.35c0.3,0.07,0.58,0.13,0.85,0.2c0.27,0.07,0.55,0.15,0.85,0.25
			c0.6,0.23,1.05,0.53,1.35,0.9c0.3,0.37,0.45,0.85,0.45,1.45c0,0.87-0.33,1.55-1,2.05c-0.7,0.53-1.62,0.8-2.75,0.8
			c-0.67,0-1.25-0.07-1.75-0.2c-0.53-0.13-1-0.28-1.4-0.45v-2.1h0.15c0.47,0.37,0.95,0.65,1.45,0.85c0.53,0.2,1.05,0.3,1.55,0.3
			c0.13,0,0.3,0,0.5,0c0.2-0.03,0.37-0.08,0.5-0.15c0.13-0.07,0.25-0.15,0.35-0.25c0.1-0.13,0.15-0.3,0.15-0.5
			c0-0.2-0.08-0.38-0.25-0.55c-0.17-0.13-0.37-0.23-0.6-0.3c-0.3-0.07-0.62-0.13-0.95-0.2c-0.33-0.07-0.65-0.15-0.95-0.25
			c-0.67-0.23-1.15-0.55-1.45-0.95C150.13,42.95,150,42.45,150,41.85z M121.4,45.9h-1.45l-1.6-3.7v5.75h-2.05v-8.7h2.5l1.95,4.3
			l1.9-4.3h2.55v8.7H123V42.2L121.4,45.9z M105.65,39.25h2.5l1.95,4.3l1.9-4.3h2.55v8.7h-2.2V42.2l-1.6,3.7h-1.45l-1.6-3.7v5.75
			h-2.05V39.25z M189.85,39.85c0.7-0.5,1.57-0.75,2.6-0.75c0.5,0,1.02,0.05,1.55,0.15c0.5,0.1,0.95,0.25,1.35,0.45v1.95h-0.2
			c-0.3-0.27-0.68-0.5-1.15-0.7c-0.47-0.17-0.95-0.25-1.45-0.25c-0.2,0-0.37,0-0.5,0c-0.17,0.03-0.33,0.1-0.5,0.2
			c-0.13,0.07-0.25,0.15-0.35,0.25c-0.1,0.13-0.15,0.27-0.15,0.4c0,0.23,0.08,0.42,0.25,0.55c0.17,0.13,0.47,0.25,0.9,0.35
			c0.3,0.07,0.58,0.13,0.85,0.2c0.27,0.07,0.55,0.15,0.85,0.25c0.6,0.23,1.05,0.53,1.35,0.9s0.45,0.85,0.45,1.45
			c0,0.87-0.33,1.55-1,2.05c-0.7,0.53-1.62,0.8-2.75,0.8c-0.67,0-1.25-0.07-1.75-0.2c-0.53-0.13-1-0.28-1.4-0.45v-2.1h0.15
			c0.47,0.37,0.95,0.65,1.45,0.85c0.53,0.2,1.05,0.3,1.55,0.3c0.13,0,0.3,0,0.5,0c0.2-0.03,0.37-0.08,0.5-0.15
			c0.13-0.07,0.25-0.15,0.35-0.25c0.1-0.13,0.15-0.3,0.15-0.5c0-0.2-0.08-0.38-0.25-0.55c-0.17-0.13-0.37-0.23-0.6-0.3
			c-0.3-0.07-0.62-0.13-0.95-0.2c-0.33-0.07-0.65-0.15-0.95-0.25c-0.67-0.23-1.15-0.55-1.45-0.95c-0.27-0.4-0.4-0.9-0.4-1.5
			C188.85,41.02,189.18,40.35,189.85,39.85z M87.45,39.25h2.2v8.7h-2.2V44.1H84.5v3.85h-2.2v-8.7h2.2v3.2h2.95V39.25z M80.5,47.95
			h-2.2V44.1h-2.95v3.85h-2.2v-8.7h2.2v3.2h2.95v-3.2h2.2V47.95z"/>
	</g>
</g>
</svg>
