<?xml version="1.0" encoding="utf-8"?>
<!-- Generator: Adobe Illustrator 16.0.0, SVG Export Plug-In . SVG Version: 6.00 Build 0)  -->
<!DOCTYPE svg PUBLIC "-//W3C//DTD SVG 1.1//EN" "http://www.w3.org/Graphics/SVG/1.1/DTD/svg11.dtd">
<svg version="1.1" id="Layer_2" xmlns="http://www.w3.org/2000/svg" xmlns:xlink="http://www.w3.org/1999/xlink" x="0px" y="0px"
	 width="30.67px" height="32.1px" viewBox="0 0 30.67 32.1" enable-background="new 0 0 30.67 32.1" xml:space="preserve">
<g>
	<path fill-rule="evenodd" clip-rule="evenodd" fill="#395253" d="M24.76,8.4c2.56,2.56,3.84,5.65,3.84,9.28
		c0,3.62-1.28,6.71-3.84,9.25c-2.56,2.56-5.64,3.84-9.25,3.84c-3.62,0-6.72-1.28-9.28-3.84C3.68,24.39,2.4,21.3,2.4,17.68
		c0-3.62,1.28-6.72,3.84-9.28c2.56-2.56,5.65-3.84,9.28-3.84C19.12,4.56,22.2,5.84,24.76,8.4z"/>
	<path fill-rule="evenodd" clip-rule="evenodd" fill="#E32332" d="M6.22,5.97c2.56-2.56,5.64-3.83,9.27-3.83s6.71,1.28,9.27,3.83
		s3.83,5.65,3.83,9.27c0,3.62-1.28,6.71-3.83,9.26c-2.56,2.55-5.64,3.83-9.27,3.83s-6.71-1.28-9.27-3.83
		c-2.56-2.56-3.83-5.64-3.83-9.26C2.38,11.62,3.66,8.53,6.22,5.97z"/>
	
		<path fill-rule="evenodd" clip-rule="evenodd" fill="none" stroke="#161E1F" stroke-width="2" stroke-linecap="round" stroke-linejoin="round" stroke-miterlimit="3" d="
		M6.22,5.97c2.56-2.56,5.64-3.83,9.27-3.83s6.71,1.28,9.27,3.83s3.83,5.65,3.83,9.27c0,3.62-1.28,6.71-3.83,9.26
		c-2.56,2.55-5.64,3.83-9.27,3.83s-6.71-1.28-9.27-3.83c-2.56-2.56-3.83-5.64-3.83-9.26C2.38,11.62,3.66,8.53,6.22,5.97z"/>
	
		<radialGradient id="SVGID_1_" cx="92.7119" cy="-180.697" r="23.3993" gradientTransform="matrix(0.5692 0 0 0.5692 -37.2686 118.1088)" gradientUnits="userSpaceOnUse">
		<stop  offset="0" style="stop-color:#E1282E;stop-opacity:0.251"/>
		<stop  offset="0.5922" style="stop-color:#EB2234;stop-opacity:0"/>
		<stop  offset="0.6863" style="stop-color:#ED2333;stop-opacity:0.0431"/>
		<stop  offset="0.7922" style="stop-color:#FF9597;stop-opacity:0.3059"/>
		<stop  offset="1" style="stop-color:#E4192C;stop-opacity:0"/>
	</radialGradient>
	<path fill-rule="evenodd" clip-rule="evenodd" fill="url(#SVGID_1_)" d="M15.49,2c3.68,0,6.81,1.29,9.39,3.87
		c2.58,2.6,3.87,5.73,3.87,9.39c0,3.66-1.29,6.78-3.87,9.36c-2.58,2.6-5.71,3.9-9.39,3.9c-3.66,0-6.78-1.3-9.36-3.9
		c-2.58-2.58-3.87-5.7-3.87-9.36c0-3.66,1.29-6.79,3.87-9.39C8.7,3.29,11.82,2,15.49,2z"/>
	<g>
		<rect x="11.3" y="11.46" fill-rule="evenodd" clip-rule="evenodd" fill="#FFFFFF" width="8.11" height="8.11"/>
	</g>
</g>
</svg>
