<?xml version="1.0" encoding="utf-8"?>
<!-- Generator: Adobe Illustrator 16.0.0, SVG Export Plug-In . SVG Version: 6.00 Build 0)  -->
<!DOCTYPE svg PUBLIC "-//W3C//DTD SVG 1.1//EN" "http://www.w3.org/Graphics/SVG/1.1/DTD/svg11.dtd">
<svg version="1.1" xmlns="http://www.w3.org/2000/svg" xmlns:xlink="http://www.w3.org/1999/xlink" x="0px" y="0px" width="38px"
	 height="38px" viewBox="0 0 38 38" enable-background="new 0 0 38 38" xml:space="preserve">
<g id="Layer_1">
</g>
<g id="Layer_2">
	<g>
		<g>
			<path fill-rule="evenodd" clip-rule="evenodd" fill="#DF3238" d="M34.2,4.1c-4.2,4-8.1,8.2-11.6,12.6c4.7,4.7,8.6,9.5,11.7,14.3
				c-4.2-4.5-8.6-8.5-13.3-12.2c-3.7,4.8-6.9,10-9.7,15.4v-0.1l-0.8-7.5l0.1-0.1c2.7-3.5,5.4-6.6,8.1-9.5c-4.6-3.4-9.4-6.4-14.4-9
				l0.1-0.1l7.4-0.8l0.1,0.1c3.2,2.5,6.2,5,8.9,7.6C25.2,10.6,29.7,7,34.2,4.1z"/>
		</g>
	</g>
</g>
</svg>
