<?xml version="1.0" encoding="utf-8"?>
<!-- Generator: Adobe Illustrator 16.0.0, SVG Export Plug-In . SVG Version: 6.00 Build 0)  -->
<!DOCTYPE svg PUBLIC "-//W3C//DTD SVG 1.1//EN" "http://www.w3.org/Graphics/SVG/1.1/DTD/svg11.dtd">
<svg version="1.1" id="Layer_1" xmlns="http://www.w3.org/2000/svg" xmlns:xlink="http://www.w3.org/1999/xlink" x="0px" y="0px"
	 width="700px" height="700px" viewBox="0 0 700 700" enable-background="new 0 0 700 700" xml:space="preserve">
<g>
	<g>
		
			<radialGradient id="SVGID_1_" cx="998.2002" cy="496.2998" r="1369.3375" fx="1008.9401" fy="496.2998" gradientTransform="matrix(1 0 0 1.461 0 -228.8116)" gradientUnits="userSpaceOnUse">
			<stop  offset="0" style="stop-color:#A68171"/>
			<stop  offset="0.3373" style="stop-color:#4A3735"/>
			<stop  offset="1" style="stop-color:#2E201F"/>
		</radialGradient>
		<rect x="-10" y="-12" fill-rule="evenodd" clip-rule="evenodd" fill="url(#SVGID_1_)" width="722.2" height="720.2"/>
	</g>
	<g>
		
			<linearGradient id="SVGID_2_" gradientUnits="userSpaceOnUse" x1="-1563.9854" y1="-591.4707" x2="1208.4431" y2="-591.4707" gradientTransform="matrix(-0.9874 -0.1583 0.1321 -0.9916 4.153103e-004 -7.663965e-004)">
			<stop  offset="0" style="stop-color:#503E3A"/>
			<stop  offset="0.302" style="stop-color:#6C5146"/>
			<stop  offset="1" style="stop-color:#000000"/>
		</linearGradient>
		<rect x="-10" y="627.6" fill-rule="evenodd" clip-rule="evenodd" fill="url(#SVGID_2_)" width="722.2" height="55.4"/>
		
			<linearGradient id="SVGID_3_" gradientUnits="userSpaceOnUse" x1="-1591.4321" y1="602.5469" x2="636.7117" y2="602.5469" gradientTransform="matrix(0.9772 0.2124 -0.1452 0.9918 -1.128465e-004 -1.370907e-004)">
			<stop  offset="0" style="stop-color:#121212"/>
			<stop  offset="1" style="stop-color:#24251F"/>
		</linearGradient>
		<rect x="-10" y="683.8" fill-rule="evenodd" clip-rule="evenodd" fill="url(#SVGID_3_)" width="722.2" height="18.2"/>
	</g>
	<g>
		
			<radialGradient id="SVGID_4_" cx="284.1753" cy="17.7998" r="278.4973" gradientTransform="matrix(1 0 0 1.2646 0 -4.7106)" gradientUnits="userSpaceOnUse">
			<stop  offset="0" style="stop-color:#B08F82;stop-opacity:0.3725"/>
			<stop  offset="1" style="stop-color:#503E3A;stop-opacity:0"/>
		</radialGradient>
		<polygon fill-rule="evenodd" clip-rule="evenodd" fill="url(#SVGID_4_)" points="182.4,-12 379.5,-12 544.2,357.5 24.2,357.5 
			24.2,355.9 		"/>
	</g>
	<g>
		<g>
			<g>
				<linearGradient id="SVGID_5_" gradientUnits="userSpaceOnUse" x1="679.9248" y1="63.2002" x2="707.7748" y2="63.2002">
					<stop  offset="0" style="stop-color:#C46F1F"/>
					<stop  offset="1" style="stop-color:#CC711E"/>
				</linearGradient>
				<path fill-rule="evenodd" clip-rule="evenodd" fill="url(#SVGID_5_)" d="M681.5,64.3l1.3-2.1h25v2.1H703c0,0,0-0.1,0-0.1
					c0-0.2-0.4-0.4-1.1-0.6c-0.7-0.1-1.6-0.2-2.7-0.2s-2,0.1-2.8,0.2c-0.7,0.2-1.1,0.4-1.1,0.6c0,0.1,0,0.1,0.1,0.1H681.5z"/>
			</g>
			<g>
				<path fill-rule="evenodd" clip-rule="evenodd" fill="#B25C13" d="M707.8,96.1h-31.1l2.7-4.1h7.6v1.6c0,0.1,0.1,0.3,0.3,0.4
					c0.2,0.1,0.5,0.3,0.9,0.4c0.4,0.1,0.8,0.1,1.4,0.1c0.5,0,0.9-0.1,1.2-0.1c0.2-0.1,0.5-0.2,0.7-0.3c0.2-0.2,0.3-0.3,0.3-0.4V92
					h16.1V96.1z M695.4,94.1c0,0.2,0.4,0.4,1.1,0.5c0.8,0.2,1.7,0.3,2.8,0.3s2-0.1,2.7-0.3c0.8-0.1,1.1-0.3,1.1-0.5
					c0-0.2-0.4-0.4-1.1-0.6c-0.7-0.1-1.6-0.2-2.7-0.2s-2,0.1-2.8,0.2C695.8,93.7,695.4,93.9,695.4,94.1z"/>
				<polygon fill-rule="evenodd" clip-rule="evenodd" fill="#86450D" points="676.7,96.1 707.8,96.1 707.8,98.4 676.6,98.4 
					676.6,96.2 				"/>
				<path fill-rule="evenodd" clip-rule="evenodd" fill="#8E4D13" d="M695.4,94.1c0-0.2,0.4-0.4,1.1-0.6c0.8-0.1,1.7-0.2,2.8-0.2
					s2,0.1,2.7,0.2c0.8,0.2,1.1,0.4,1.1,0.6c0,0.2-0.4,0.4-1.1,0.5c-0.7,0.2-1.6,0.3-2.7,0.3s-2-0.1-2.8-0.3
					C695.8,94.5,695.4,94.3,695.4,94.1z"/>
			</g>
			<g>
				<path fill-rule="evenodd" clip-rule="evenodd" fill="#FFFFFF" fill-opacity="0.4196" d="M702.3,51.6c-0.6,0.3-1.4,0.4-2.5,0.4
					v-0.6c0.7,0,1.3-0.1,1.8-0.2c0.3,0,0.5-0.1,0.7-0.1c0,0,0.1,0,0.1,0V51.6z"/>
				<path fill-rule="evenodd" clip-rule="evenodd" fill="#FFFFFF" fill-opacity="0.2314" d="M702.3,51.1
					C702.3,51.1,702.2,51.1,702.3,51.1c-0.3,0.1-0.5,0.1-0.8,0.1c-0.5,0.1-1.1,0.1-1.8,0.2c0.8-0.3,1.1-0.6,0.9-1
					c0.3,0,0.6,0.1,0.8,0.1c0.6,0.1,1,0.2,1,0.4C702.5,51,702.4,51.1,702.3,51.1z"/>
				<path fill-rule="evenodd" clip-rule="evenodd" fill="#FFFFFF" fill-opacity="7.843138e-003" d="M699.8,51.5c-0.2,0-0.3,0-0.5,0
					c-0.8,0-1.5,0-2-0.1c-0.1,0-0.2-0.1-0.3-0.1c-0.3,0-0.5-0.1-0.7-0.1h0C696,51.1,696,51,696,51c0-0.1,0.3-0.3,1-0.4
					c0.6-0.1,1.4-0.1,2.3-0.1c0.5,0,1,0,1.5,0C700.9,50.9,700.6,51.2,699.8,51.5z"/>
				<path fill-rule="evenodd" clip-rule="evenodd" fill="#FFFFFF" fill-opacity="0.451" d="M699.8,52c-0.7,0-1.5,0-2.3,0
					c-0.2-0.2-0.3-0.4-0.3-0.6c0.6,0.1,1.3,0.1,2,0.1c0.2,0,0.4,0,0.5,0V52z"/>
				
					<linearGradient id="SVGID_6_" gradientUnits="userSpaceOnUse" x1="81.2632" y1="-693.1797" x2="127.3116" y2="-693.1797" gradientTransform="matrix(5.646226e-002 0.9984 -0.9993 4.118572e-002 -1.832843e-004 -2.063811e-005)">
					<stop  offset="0" style="stop-color:#FFFFFF"/>
					<stop  offset="0.9725" style="stop-color:#FFFFFF;stop-opacity:0"/>
				</linearGradient>
				<path fill-rule="evenodd" clip-rule="evenodd" fill="url(#SVGID_6_)" d="M699.2,54.4c0-0.1-0.1-0.1-0.2-0.1
					c-0.1,0-0.2-0.1-0.3-0.1c-0.1,0-0.2,0-0.3,0.1s-0.1,0.1-0.1,0.3s0,0.2,0.1,0.3s0.1,0.1,0.3,0.1c0.1,0,0.1,0,0.2,0
					c0.1,0,0.1-0.1,0.1-0.1v0c0,0.1,0,0.1,0,0.1c0,0.1,0,0.1,0,0.1c0,0-0.1,0.1-0.1,0.1c0,0-0.1,0-0.1,0c-0.1,0-0.1,0-0.2,0
					c0,0-0.1-0.1-0.1-0.1l-0.2,0c0,0.1,0.1,0.1,0.2,0.2c0,0,0.1,0,0.2,0c0.1,0,0.2,0,0.3,0c0.1,0,0.1-0.1,0.2-0.2c0-0.1,0-0.2,0-0.4
					S699.2,54.4,699.2,54.4z M699,54.3c0,0,0,0.1,0,0.2c0,0.1,0,0.1,0,0.2c0,0-0.1,0-0.2,0c-0.1,0-0.1,0-0.2,0c0-0.1,0-0.1,0-0.2
					s0-0.1,0.1-0.2c0,0,0.1,0,0.2,0S698.9,54.3,699,54.3z M697.5,52c0.9,0.1,1.6,0.1,2.3,0v2.7v4v4v4.1v4V75V79v4v4.1v4v0.5
					c-0.1,0.4-0.1,0.7-0.1,0.9c-0.1,0.2-0.1,0.4-0.2,0.5c-1.7-0.2-2.6-0.3-2.5-0.5c0-0.1,0.1-0.3,0.1-0.4c0.2-0.4,0.5-0.8,0.9-1
					V52.4C697.8,52.3,697.6,52.1,697.5,52z M699,58.9c0.1,0,0.1,0.1,0.1,0.1c0,0.1,0,0.1-0.1,0.2c0,0-0.1,0-0.2,0s-0.1,0-0.1,0
					c-0.1,0-0.1-0.1-0.1-0.1c0,0,0-0.1,0-0.1c0-0.1,0-0.1,0.1-0.1c0,0,0.1,0,0.2,0C698.8,58.9,698.9,58.9,699,58.9z M699.1,58.7
					c0-0.1,0.1-0.1,0.1-0.2c0-0.1,0-0.2-0.1-0.2c-0.1-0.1-0.2-0.1-0.3-0.1c-0.1,0-0.2,0-0.3,0.1c-0.1,0-0.1,0.1-0.1,0.2
					c0,0,0,0.1,0,0.2c0,0,0.1,0.1,0.1,0.1c-0.1,0-0.2,0-0.2,0.1c0,0.1-0.1,0.1-0.1,0.2c0,0.1,0,0.2,0.1,0.3c0.1,0.1,0.2,0.1,0.3,0.1
					c0.1,0,0.2,0,0.3-0.1c0.1-0.1,0.1-0.1,0.1-0.3c0-0.1,0-0.1,0-0.1c0-0.1-0.1-0.1-0.2-0.1C699,58.8,699.1,58.7,699.1,58.7z
					 M699,58.6c-0.1,0-0.1,0.1-0.2,0.1c-0.1,0-0.2,0-0.2-0.1c0,0,0-0.1,0-0.1c0-0.1,0-0.1,0-0.1c0.1,0,0.1,0,0.2,0c0,0,0.1,0,0.2,0
					c0,0,0,0.1,0,0.1C699,58.6,699,58.6,699,58.6z M698.3,71.1c0,0.1,0.1,0.2,0.2,0.3c0.1,0.1,0.2,0.1,0.3,0.1c0.2,0,0.3,0,0.3-0.1
					c0.1-0.1,0.1-0.1,0.1-0.3c0-0.1,0-0.2-0.1-0.3c-0.1-0.1-0.2-0.1-0.3-0.1c-0.1,0-0.2,0-0.3,0l0-0.3h0.6v-0.1h-0.7l-0.1,0.6h0.1
					c0,0,0-0.1,0-0.1c0.1,0,0.1,0,0.2,0c0.1,0,0.2,0,0.2,0C699,71,699,71,699,71.1c0,0.1,0,0.1-0.1,0.2c0,0-0.1,0.1-0.2,0.1
					c-0.1,0-0.1,0-0.2-0.1c0,0-0.1-0.1-0.1-0.1H698.3z M698.5,67c0-0.1,0-0.1,0-0.2c0,0,0.1-0.1,0.2-0.1c0.1,0,0.1,0,0.2,0.1
					C699,66.9,699,67,699,67c0,0.1,0,0.1-0.1,0.2c0,0-0.1,0-0.2,0s-0.1,0-0.1,0c0,0-0.1-0.1-0.1-0.1C698.5,67.1,698.5,67.1,698.5,67
					z M698.5,66.9c0-0.1,0-0.2,0-0.3c0,0,0.1-0.1,0.1-0.1c0,0,0.1-0.1,0.1-0.1s0.1,0,0.2,0.1c0,0,0,0.1,0,0.1l0.2-0.1
					c0-0.1,0-0.1-0.1-0.2c-0.1,0-0.1-0.1-0.3-0.1c-0.1,0-0.2,0-0.3,0.1c-0.1,0.1-0.2,0.3-0.2,0.5c0,0.2,0,0.3,0.1,0.4
					c0.1,0.1,0.2,0.1,0.3,0.1c0.1,0,0.1,0,0.2,0s0.1-0.1,0.2-0.1c0-0.1,0-0.1,0-0.2c0-0.1,0-0.2-0.1-0.3c-0.1-0.1-0.2-0.1-0.3-0.1
					c-0.1,0-0.1,0-0.1,0C698.6,66.7,698.5,66.8,698.5,66.9z M698.6,63c0,0.1,0,0.3,0,0.4h0.2c0-0.1,0-0.2,0-0.3
					c0.1-0.1,0.1-0.3,0.2-0.4s0.1-0.2,0.3-0.3v-0.1h-0.9v0.1h0.7c-0.1,0.1-0.2,0.2-0.3,0.3C698.7,62.8,698.6,63,698.6,63z
					 M699.2,78.8c0-0.1,0-0.1-0.1-0.1c0,0-0.1-0.1-0.1-0.1c-0.1,0-0.1,0-0.2,0c-0.1,0-0.2,0-0.3,0.1c-0.1,0-0.1,0.1-0.2,0.2h0.2
					c0-0.1,0-0.1,0-0.1c0,0,0.1,0,0.2,0s0.1,0,0.2,0c0.1,0,0.1,0.1,0.1,0.1c0,0.1,0,0.1-0.1,0.2c-0.1,0-0.1,0-0.2,0v0l0,0.1
					c0.1,0,0.1-0.1,0.1-0.1c0.1,0,0.1,0,0.2,0.1c0.1,0,0.1,0.1,0.1,0.1c0,0.1,0,0.1-0.1,0.2c0,0.1-0.1,0.1-0.2,0.1
					c-0.1,0-0.1,0-0.2,0c0-0.1-0.1-0.1-0.1-0.2l-0.2,0.1c0,0.1,0.1,0.1,0.2,0.2c0.1,0.1,0.2,0.1,0.3,0.1c0.1,0,0.2,0,0.3-0.1
					c0.1-0.1,0.2-0.1,0.2-0.3c0-0.1,0-0.1,0-0.2c-0.1,0-0.1-0.1-0.2-0.1c0.1,0,0.1,0,0.1-0.1C699.1,78.9,699.2,78.8,699.2,78.8z
					 M698.8,74.6v0.6h-0.4L698.8,74.6z M699,74.5L699,74.5l-0.7,0.8v0.1h0.5v0.3h0.2v-0.3h0.2v-0.1H699V74.5z M699,86.5h-0.1
					c0,0-0.1,0.1-0.1,0.2c-0.1,0-0.2,0.1-0.3,0.1V87c0.1,0,0.1,0,0.2-0.1c0.1,0,0.1-0.1,0.1-0.1v0.9h0.2V86.5z M698.8,82.6
					c0.1,0,0.1,0,0.2,0.1c0.1,0,0.1,0.1,0.1,0.1c0,0.1,0,0.1-0.1,0.1c0,0.1-0.1,0.1-0.3,0.3c-0.1,0.1-0.2,0.1-0.2,0.2
					c0,0-0.1,0.1-0.1,0.1c0,0,0,0,0,0h0.9v-0.1h-0.7c0,0,0-0.1,0-0.1c0,0,0.1-0.1,0.2-0.2c0.1-0.1,0.2-0.1,0.3-0.1
					c0-0.1,0.1-0.1,0.1-0.1c0,0,0-0.1,0-0.1c0-0.1,0-0.1-0.2-0.2c-0.1-0.1-0.1-0.1-0.3-0.1c-0.1,0-0.2,0-0.3,0.1
					c-0.1,0-0.2,0.1-0.2,0.3h0.2c0-0.1,0-0.1,0.1-0.1C698.6,82.7,698.7,82.6,698.8,82.6z M698.5,90.6c-0.1,0-0.1,0.1-0.1,0.2
					c0,0.1-0.1,0.2-0.1,0.3c0,0.2,0.1,0.4,0.2,0.4c0.1,0.1,0.2,0.1,0.3,0.1c0.1,0,0.2,0,0.3,0c0,0,0.1-0.1,0.1-0.2
					c0-0.1,0-0.2,0-0.3c0-0.1,0-0.2,0-0.3c0-0.1-0.1-0.1-0.1-0.1c0-0.1-0.1-0.1-0.1-0.1c-0.1,0-0.1-0.1-0.2-0.1
					C698.7,90.5,698.6,90.6,698.5,90.6z M698.5,91.1c0-0.2,0-0.3,0-0.4c0.1-0.1,0.1-0.1,0.2-0.1s0.1,0,0.2,0.1c0,0.1,0,0.2,0,0.4
					c0,0.2,0,0.3,0,0.4c-0.1,0.1-0.1,0.1-0.2,0.1s-0.1,0-0.2-0.1C698.6,91.4,698.5,91.3,698.5,91.1z"/>
				<path fill-rule="evenodd" clip-rule="evenodd" fill-opacity="0.6118" d="M699,54.3c-0.1,0-0.1,0-0.2,0s-0.1,0-0.2,0
					c-0.1,0.1-0.1,0.1-0.1,0.2s0,0.1,0,0.2c0.1,0,0.1,0,0.2,0c0.1,0,0.2,0,0.2,0c0-0.1,0-0.1,0-0.2C699,54.4,699,54.3,699,54.3z
					 M699.2,54.4c0,0.1,0,0.2,0,0.3s0,0.3,0,0.4c0,0.1-0.1,0.2-0.2,0.2c-0.1,0-0.2,0-0.3,0c-0.1,0-0.2,0-0.2,0
					c-0.1-0.1-0.1-0.1-0.2-0.2l0.2,0c0,0.1,0.1,0.1,0.1,0.1c0,0,0.1,0,0.2,0c0,0,0.1,0,0.1,0c0,0,0.1-0.1,0.1-0.1c0,0,0-0.1,0-0.1
					c0,0,0-0.1,0-0.1v0c0,0.1-0.1,0.1-0.1,0.1c-0.1,0-0.1,0-0.2,0c-0.1,0-0.2,0-0.3-0.1s-0.1-0.1-0.1-0.3s0-0.2,0.1-0.3
					s0.2-0.1,0.3-0.1c0.1,0,0.2,0,0.3,0.1C699.1,54.2,699.1,54.3,699.2,54.4z M699,58.6c0,0,0-0.1,0-0.1c0-0.1,0-0.1,0-0.1
					c-0.1,0-0.1,0-0.2,0c-0.1,0-0.1,0-0.2,0c0,0,0,0.1,0,0.1c0,0,0,0.1,0,0.1c0,0,0.1,0.1,0.2,0.1C698.8,58.7,698.9,58.7,699,58.6z
					 M699.1,58.7c0,0-0.1,0.1-0.1,0.1c0.1,0,0.2,0,0.2,0.1c0,0,0,0.1,0,0.1c0,0.1,0,0.2-0.1,0.3c-0.1,0.1-0.2,0.1-0.3,0.1
					c-0.2,0-0.3,0-0.3-0.1c-0.1-0.1-0.1-0.1-0.1-0.3c0-0.1,0-0.1,0.1-0.2c0,0,0.1-0.1,0.2-0.1c-0.1,0-0.1-0.1-0.1-0.1
					c0-0.1,0-0.1,0-0.2c0-0.1,0-0.2,0.1-0.2c0.1-0.1,0.2-0.1,0.3-0.1c0.1,0,0.2,0,0.3,0.1c0.1,0,0.1,0.1,0.1,0.2
					C699.2,58.6,699.1,58.6,699.1,58.7z M699,58.9c0,0-0.1,0-0.2,0c-0.1,0-0.1,0-0.2,0c-0.1,0-0.1,0.1-0.1,0.1c0,0,0,0.1,0,0.1
					c0,0,0,0.1,0.1,0.1c0,0,0.1,0,0.1,0s0.1,0,0.2,0c0.1,0,0.1-0.1,0.1-0.2C699,59,699,58.9,699,58.9z M698.6,63
					c0-0.1,0.1-0.2,0.2-0.3c0.1-0.1,0.2-0.2,0.3-0.3h-0.7v-0.1h0.9v0.1c-0.1,0.1-0.2,0.2-0.3,0.3s-0.1,0.3-0.2,0.4
					c0,0.1,0,0.2,0,0.3h-0.2C698.5,63.3,698.6,63.2,698.6,63z M698.5,66.9c0-0.1,0.1-0.1,0.2-0.1c0,0,0.1,0,0.1,0
					c0.1,0,0.2,0,0.3,0.1c0.1,0.1,0.1,0.2,0.1,0.3c0,0.1,0,0.1,0,0.2c0,0-0.1,0.1-0.2,0.1s-0.1,0-0.2,0c-0.1,0-0.3,0-0.3-0.1
					c-0.1-0.1-0.1-0.2-0.1-0.4c0-0.2,0.1-0.4,0.2-0.5c0.1-0.1,0.2-0.1,0.3-0.1c0.1,0,0.2,0,0.3,0.1c0.1,0.1,0.1,0.1,0.1,0.2
					l-0.2,0.1c0-0.1,0-0.1,0-0.1c0,0-0.1-0.1-0.2-0.1s-0.1,0-0.1,0.1c0,0-0.1,0.1-0.1,0.1C698.5,66.6,698.5,66.7,698.5,66.9z
					 M698.5,67c0,0,0,0.1,0,0.2c0,0,0.1,0.1,0.1,0.1c0,0,0.1,0,0.1,0s0.1,0,0.2,0c0.1-0.1,0.1-0.1,0.1-0.2c0-0.1,0-0.1-0.1-0.2
					c0,0-0.1-0.1-0.2-0.1c-0.1,0-0.2,0-0.2,0.1C698.6,66.9,698.5,67,698.5,67z M698.3,71.1h0.2c0,0.1,0.1,0.1,0.1,0.1
					c0,0,0.1,0.1,0.2,0.1c0.1,0,0.2,0,0.2-0.1c0.1-0.1,0.1-0.1,0.1-0.2c0-0.1,0-0.1-0.1-0.2c0,0-0.1,0-0.2,0c0,0-0.1,0-0.2,0
					c0,0,0,0.1,0,0.1h-0.1l0.1-0.6h0.7v0.1h-0.6l0,0.3c0.1,0,0.2,0,0.3,0c0.1,0,0.2,0,0.3,0.1c0.1,0,0.1,0.1,0.1,0.3
					c0,0.1,0,0.2-0.1,0.3c-0.1,0.1-0.2,0.1-0.3,0.1c-0.1,0-0.2,0-0.3-0.1C698.4,71.3,698.3,71.3,698.3,71.1z M699,74.5v0.8h0.2v0.1
					H699v0.3h-0.2v-0.3h-0.5v-0.1L699,74.5L699,74.5z M698.8,74.6l-0.4,0.6h0.4V74.6z M699.2,78.8c0,0,0,0.1-0.1,0.1
					c0,0.1-0.1,0.1-0.1,0.1c0.1,0,0.1,0.1,0.2,0.1c0,0.1,0,0.1,0,0.2c0,0.1,0,0.2-0.2,0.3c-0.1,0.1-0.2,0.1-0.3,0.1
					c-0.1,0-0.2,0-0.3-0.1c-0.1-0.1-0.2-0.1-0.2-0.2l0.2-0.1c0,0.1,0.1,0.1,0.1,0.2c0,0,0.1,0,0.2,0c0.1,0,0.2,0,0.2-0.1
					c0.1,0,0.1-0.1,0.1-0.2c0-0.1,0-0.1-0.1-0.1c0-0.1-0.1-0.1-0.2-0.1c0,0-0.1,0-0.1,0.1l0-0.1v0c0.1,0,0.1,0,0.2,0
					c0.1,0,0.1-0.1,0.1-0.2c0-0.1,0-0.1-0.1-0.1c0,0-0.1,0-0.2,0s-0.1,0-0.2,0c0,0,0,0.1,0,0.1h-0.2c0-0.1,0.1-0.2,0.2-0.2
					c0.1-0.1,0.2-0.1,0.3-0.1c0.1,0,0.1,0,0.2,0c0.1,0,0.1,0.1,0.1,0.1C699.1,78.7,699.2,78.7,699.2,78.8z M698.8,82.6
					c-0.1,0-0.2,0-0.2,0.1c-0.1,0-0.1,0.1-0.1,0.1h-0.2c0-0.1,0.1-0.2,0.2-0.3c0.1-0.1,0.2-0.1,0.3-0.1c0.1,0,0.2,0,0.3,0.1
					c0.1,0.1,0.2,0.1,0.2,0.2c0,0.1,0,0.1,0,0.1c0,0-0.1,0.1-0.1,0.1c0,0-0.1,0.1-0.3,0.1c-0.1,0.1-0.2,0.2-0.2,0.2c0,0,0,0.1,0,0.1
					h0.7v0.1h-0.9c0,0,0,0,0,0c0-0.1,0.1-0.1,0.1-0.1c0-0.1,0.1-0.1,0.2-0.2c0.2-0.1,0.3-0.2,0.3-0.3c0.1,0,0.1-0.1,0.1-0.1
					c0,0,0-0.1-0.1-0.1C698.9,82.7,698.9,82.6,698.8,82.6z M699,86.5v1.1h-0.2v-0.9c0,0-0.1,0-0.1,0.1c-0.1,0.1-0.1,0.1-0.2,0.1
					v-0.2c0.1,0,0.2-0.1,0.3-0.1c0.1-0.1,0.1-0.1,0.1-0.2H699z M698.5,91.1c0,0.2,0,0.3,0,0.4c0.1,0.1,0.1,0.1,0.2,0.1
					s0.1,0,0.2-0.1c0,0,0-0.2,0-0.4c0-0.2,0-0.3,0-0.4c-0.1-0.1-0.1-0.1-0.2-0.1s-0.1,0-0.2,0.1C698.6,90.8,698.5,90.9,698.5,91.1z
					 M698.5,90.6c0.1,0,0.2-0.1,0.3-0.1c0.1,0,0.1,0,0.2,0.1c0,0,0.1,0,0.1,0.1c0,0,0.1,0.1,0.1,0.1c0,0.1,0,0.1,0,0.3
					c0,0.1,0,0.2,0,0.3c0,0.1-0.1,0.2-0.1,0.2c-0.1,0-0.1,0-0.3,0c-0.1,0-0.2,0-0.3-0.1c-0.1-0.1-0.2-0.3-0.2-0.4
					c0-0.1,0-0.2,0.1-0.3C698.4,90.7,698.5,90.6,698.5,90.6z"/>
				<path fill-rule="evenodd" clip-rule="evenodd" fill="#FFFFFF" fill-opacity="8.627451e-002" d="M697,92.1
					c-0.3,0-0.5-0.1-0.8-0.1c0-0.2,0-0.4,0-0.6V51.1c0.2,0.1,0.4,0.1,0.7,0.1c0.1,0,0.2,0,0.3,0.1c-0.1,0.2,0,0.4,0.3,0.6
					c0.1,0.1,0.3,0.3,0.5,0.4v38.8C697.5,91.4,697.3,91.7,697,92.1z M699.8,58.8v-4V52c1.1,0,1.9-0.2,2.5-0.4v39.7
					c0,0.6,0,1.2,0,1.8c-0.3,0-0.4,0-0.4,0c-0.1,0-0.3-0.1-0.4-0.1c-0.8-0.3-1.4-0.8-1.7-1.3v-0.5v-4V83v-4V75v-4.1v-4v-4.1V58.8
					h1.6H699.8z M699.8,54.7h1.6H699.8z M701.3,55.4h-1H701.3z M701.3,61.2h-1H701.3z M701.3,60.4h-1H701.3z M701.3,59.5h-1H701.3z
					 M701.3,57.9h-1H701.3z M701.3,56.3h-1H701.3z M701.3,57.1h-1H701.3z M701.3,63.5h-1H701.3z M701.3,64.5h-1H701.3z M701.3,65.3
					h-1H701.3z M701.3,66.1h-1H701.3z M701.3,62h-1H701.3z M699.8,62.8h1.6H699.8z M701.3,67.6h-1H701.3z M701.4,66.9h-1.6H701.4z
					 M701.3,72.5h-1H701.3z M701.3,73.4h-1H701.3z M701.3,74.2h-1H701.3z M701.3,71.7h-1H701.3z M701.3,68.5h-1H701.3z M701.3,70.1
					h-1H701.3z M701.3,69.3h-1H701.3z M699.8,70.9h1.6H699.8z M701.3,77.4h-1H701.3z M701.3,75.7h-1H701.3z M701.3,76.6h-1H701.3z
					 M701.3,78.2h-1H701.3z M699.8,79h1.6H699.8z M699.8,75h1.6H699.8z M701.3,79.8h-1H701.3z M701.4,83h-1.6H701.4z M701.3,80.6h-1
					H701.3z M701.3,81.5h-1H701.3z M701.3,83.8h-1H701.3z M701.3,82.3h-1H701.3z M701.3,86.4h-1H701.3z M701.3,84.7h-1H701.3z
					 M701.3,85.5h-1H701.3z M699.8,94.5L699.8,94.5c-1.2,0.4-2.3,0-3.3-1.1c0.1,0,0.1,0,0.2,0C697.7,94.3,698.7,94.7,699.8,94.5z
					 M701.4,88.8h-1.1H701.4z M701.4,89.6h-1.1H701.4z M699.8,91.1h1.6H699.8z M699.8,87.1h1.6H699.8z M701.4,90.4h-1.1H701.4z
					 M701.4,87.9h-1.1H701.4z M701.9,92.5V55.8V92.5z"/>
				<path fill-rule="evenodd" clip-rule="evenodd" fill="none" d="M702.3,51.1c0.1-0.1,0.2-0.1,0.2-0.2c0-0.1-0.3-0.3-1-0.4
					c-0.3,0-0.5-0.1-0.8-0.1c-0.4,0-0.9,0-1.5,0c-0.9,0-1.7,0-2.3,0.1c-0.6,0.1-1,0.2-1,0.4c0,0.1,0.1,0.1,0.3,0.2h0
					c0.2,0.1,0.4,0.1,0.7,0.1c0.1,0,0.2,0,0.3,0.1c0.6,0.1,1.3,0.1,2,0.1c0.2,0,0.4,0,0.5,0c0.7,0,1.3-0.1,1.8-0.2
					C701.8,51.3,702,51.2,702.3,51.1C702.2,51.1,702.3,51.1,702.3,51.1z M702.3,51.6v-0.5 M696.3,92c0,0.3,0,0.5,0,0.8
					c0,0.1,0,0.1,0,0.2c0.1,0.1,0.2,0.2,0.4,0.4c1,0.9,2.1,1.3,3.1,1.1c0.8-0.1,1.7-0.6,2.5-1.5 M696.3,51.1v40.3c0,0.2,0,0.4,0,0.6
					 M702.3,51.6v39.7c0,0.6,0,1.2,0,1.8"/>
				
					<path fill-rule="evenodd" clip-rule="evenodd" fill="none" stroke="#000000" stroke-width="0.1" stroke-linecap="round" stroke-linejoin="round" stroke-miterlimit="3" stroke-opacity="0.1294" d="
					M699.8,54.7h1.6 M701.3,55.4h-1 M701.3,61.2h-1 M701.3,60.4h-1 M701.3,59.5h-1 M699.8,58.8h1.6 M701.3,57.9h-1 M701.3,56.3h-1
					 M701.3,57.1h-1 M701.3,63.5h-1 M701.3,64.5h-1 M701.3,65.3h-1 M701.3,66.1h-1 M701.3,62h-1 M699.8,62.8h1.6 M701.3,67.6h-1
					 M701.4,66.9h-1.6 M701.3,72.5h-1 M701.3,73.4h-1 M701.3,74.2h-1 M701.3,71.7h-1 M701.3,68.5h-1 M701.3,70.1h-1 M701.3,69.3h-1
					 M699.8,70.9h1.6 M701.3,77.4h-1 M701.3,75.7h-1 M701.3,76.6h-1 M701.3,78.2h-1 M699.8,79h1.6 M699.8,75h1.6 M701.3,79.8h-1
					 M701.4,83h-1.6 M701.3,80.6h-1 M701.3,81.5h-1 M701.3,83.8h-1 M701.3,82.3h-1 M701.3,86.4h-1 M701.3,84.7h-1 M701.3,85.5h-1
					 M701.4,88.8h-1.1 M701.4,89.6h-1.1 M699.8,91.1h1.6 M699.8,87.1h1.6 M701.4,90.4h-1.1 M701.4,87.9h-1.1"/>
			</g>
			<g>
				<linearGradient id="SVGID_7_" gradientUnits="userSpaceOnUse" x1="679.9502" y1="65.4502" x2="707.7998" y2="65.4502">
					<stop  offset="0" style="stop-color:#C46F1F"/>
					<stop  offset="1" style="stop-color:#CC711E"/>
				</linearGradient>
				<path fill-rule="evenodd" clip-rule="evenodd" fill="url(#SVGID_7_)" d="M707.8,66.6H680l1.5-2.4h14c0.1,0.1,0.5,0.3,1,0.4
					c0.8,0.2,1.7,0.3,2.8,0.3s2-0.1,2.7-0.3c0.6-0.1,0.9-0.2,1.1-0.4h4.8V66.6z"/>
				<linearGradient id="SVGID_8_" gradientUnits="userSpaceOnUse" x1="679.9502" y1="67.7749" x2="707.7998" y2="67.7749">
					<stop  offset="0" style="stop-color:#955117"/>
					<stop  offset="1" style="stop-color:#AE6119"/>
				</linearGradient>
				<polygon fill-rule="evenodd" clip-rule="evenodd" fill="url(#SVGID_8_)" points="680,66.6 707.8,66.6 707.8,68.9 691.7,68.9 
					687,68.9 680,68.9 				"/>
				<linearGradient id="SVGID_9_" gradientUnits="userSpaceOnUse" x1="686.9502" y1="81.6812" x2="691.6502" y2="81.6812">
					<stop  offset="0" style="stop-color:#955315"/>
					<stop  offset="0.4706" style="stop-color:#DB812E"/>
					<stop  offset="1" style="stop-color:#B6681F"/>
				</linearGradient>
				<path fill-rule="evenodd" clip-rule="evenodd" fill="url(#SVGID_9_)" d="M687,68.9h4.7v24.7c0.1,0.1,0,0.3-0.3,0.4
					c-0.2,0.1-0.5,0.2-0.7,0.3c-0.2,0-0.6,0.1-1.2,0.1c-0.6,0-1,0-1.4-0.1c-0.4-0.1-0.7-0.2-0.9-0.4c-0.2-0.1-0.3-0.3-0.3-0.4V68.9z
					"/>
			</g>
		</g>
		<g>
			<g>
				<linearGradient id="SVGID_10_" gradientUnits="userSpaceOnUse" x1="677.5254" y1="131.2002" x2="705.3754" y2="131.2002">
					<stop  offset="0" style="stop-color:#C46F1F"/>
					<stop  offset="1" style="stop-color:#CC711E"/>
				</linearGradient>
				<path fill-rule="evenodd" clip-rule="evenodd" fill="url(#SVGID_10_)" d="M705.4,132.3h-4.8c0,0,0-0.1,0-0.1
					c0-0.2-0.4-0.4-1.2-0.6c-0.7-0.1-1.6-0.2-2.7-0.2c-1.1,0-2,0.1-2.8,0.2c-0.7,0.2-1.1,0.4-1.1,0.6c0,0.1,0,0.1,0.1,0.1h-14
					l1.3-2.1h25.1V132.3z"/>
			</g>
			<g>
				<polygon fill-rule="evenodd" clip-rule="evenodd" fill="#86450D" points="674.3,164.1 705.4,164.1 705.4,166.4 674.2,166.4 
					674.2,164.2 				"/>
				<path fill-rule="evenodd" clip-rule="evenodd" fill="#B25C13" d="M705.4,164.1h-31.2l2.7-4.1h7.6v1.6c0,0.1,0.1,0.3,0.3,0.4
					c0.2,0.1,0.5,0.3,0.9,0.4c0.4,0.1,0.8,0.1,1.4,0.1c0.5,0,0.9-0.1,1.1-0.1c0.2-0.1,0.5-0.2,0.7-0.3c0.2-0.2,0.3-0.3,0.3-0.4V160
					h16.2V164.1z M694.1,162.6c0.8,0.2,1.7,0.3,2.8,0.3c1.1,0,2-0.1,2.7-0.3c0.8-0.1,1.2-0.3,1.2-0.5c0-0.2-0.4-0.4-1.2-0.6
					c-0.7-0.1-1.6-0.2-2.7-0.2c-1.1,0-2,0.1-2.8,0.2c-0.7,0.2-1.1,0.4-1.1,0.6C693,162.3,693.4,162.5,694.1,162.6z"/>
				<path fill-rule="evenodd" clip-rule="evenodd" fill="#8E4D13" d="M694.1,162.6c-0.7-0.1-1.1-0.3-1.1-0.5c0-0.2,0.4-0.4,1.1-0.6
					c0.8-0.1,1.7-0.2,2.8-0.2c1.1,0,2,0.1,2.7,0.2c0.8,0.2,1.2,0.4,1.2,0.6c0,0.2-0.4,0.4-1.2,0.5c-0.7,0.2-1.6,0.3-2.7,0.3
					C695.8,162.9,694.9,162.8,694.1,162.6z"/>
			</g>
			<g>
				<path fill-rule="evenodd" clip-rule="evenodd" fill="#FFFFFF" fill-opacity="0.451" d="M697.4,120c-0.7,0-1.5,0-2.4,0
					c-0.2-0.2-0.3-0.4-0.3-0.6c0.6,0.1,1.3,0.1,2,0.1c0.2,0,0.4,0,0.6,0V120z"/>
				<path fill-rule="evenodd" clip-rule="evenodd" fill="#FFFFFF" fill-opacity="0.4196" d="M699.9,119.6c-0.6,0.3-1.4,0.4-2.5,0.4
					v-0.6c0.7,0,1.3-0.1,1.8-0.2c0.3,0,0.5-0.1,0.6-0.1c0,0,0.1,0,0.1,0V119.6z"/>
				<path fill-rule="evenodd" clip-rule="evenodd" fill="#FFFFFF" fill-opacity="7.843138e-003" d="M698.3,118.5
					c0.2,0.4-0.1,0.7-0.9,1c-0.2,0-0.4,0-0.6,0c-0.8,0-1.5,0-2-0.1c-0.1,0-0.2-0.1-0.3-0.1c-0.3,0-0.5-0.1-0.7-0.1h0
					c-0.2-0.1-0.3-0.1-0.3-0.2c0-0.1,0.3-0.3,1-0.4s1.4-0.1,2.3-0.1C697.4,118.5,697.9,118.5,698.3,118.5z"/>
				<path fill-rule="evenodd" clip-rule="evenodd" fill="#FFFFFF" fill-opacity="0.2314" d="M699.9,119.1c0,0-0.1,0-0.1,0
					c-0.2,0.1-0.4,0.1-0.6,0.1c-0.5,0.1-1.1,0.1-1.8,0.2c0.8-0.3,1.1-0.6,0.9-1c0.3,0,0.6,0.1,0.9,0.1c0.6,0.1,0.9,0.2,0.9,0.4
					C700.1,119,700,119.1,699.9,119.1z"/>
				<path fill-rule="evenodd" clip-rule="evenodd" fill="#FFFFFF" fill-opacity="8.627451e-002" d="M694.7,160.1
					c-0.3,0-0.6-0.1-0.8-0.1c0-0.2-0.1-0.4-0.1-0.6v-40.3c0.2,0.1,0.4,0.1,0.7,0.1c0.1,0,0.2,0,0.3,0.1c-0.1,0.2,0,0.4,0.3,0.6
					c0.1,0.1,0.3,0.3,0.5,0.4v38.8C695.2,159.4,694.8,159.7,694.7,160.1z M699.9,119.6v39.7c0,0.6,0,1.2-0.1,1.8c-0.3,0-0.4,0-0.4,0
					c-0.1,0-0.3-0.1-0.4-0.1c-0.8-0.3-1.4-0.8-1.6-1.3v-0.5v-4V151v-4V143v-4.1v-4v-4.1v-4v-4h1.6h-1.6V120
					C698.5,120,699.3,119.9,699.9,119.6z M698.9,123.4h-1.1H698.9z M698.8,145.4h-1H698.8z M698.8,143.7h-1H698.8z M698.8,144.6h-1
					H698.8z M698.8,146.2h-1H698.8z M697.4,147h1.6H697.4z M697.4,143h1.6H697.4z M697.4,138.9h1.6H697.4z M698.8,137.3h-1H698.8z
					 M698.8,138.1h-1H698.8z M698.8,136.5h-1H698.8z M698.8,135.6h-1H698.8z M699,134.9h-1.6H699z M698.8,130h-1H698.8z
					 M697.4,130.8h1.6H697.4z M698.8,128.4h-1H698.8z M698.8,127.5h-1H698.8z M697.4,126.8h1.6H697.4z M698.8,129.2h-1H698.8z
					 M698.9,147.8h-1.1H698.9z M698.9,139.7h-1.1H698.9z M698.9,142.2h-1.1H698.9z M698.9,141.4h-1.1H698.9z M698.9,140.5h-1.1
					H698.9z M698.9,133.3h-1.1H698.9z M698.9,134.1h-1.1H698.9z M698.9,131.5h-1.1H698.9z M698.9,132.5h-1.1H698.9z M698.9,125.9
					h-1.1H698.9z M698.9,125.1h-1.1H698.9z M698.9,124.3h-1.1H698.9z M697.3,162.5L697.3,162.5c-1.2,0.4-2.3,0-3.3-1.1
					c0.1,0,0.1,0,0.2,0C695.3,162.3,696.3,162.7,697.3,162.5z M697.4,159.1h1.6H697.4z M697.4,155.1h1.6H697.4z M699,151h-1.6H699z
					 M699,157.6h-1H699z M699,156.8h-1H699z M699,158.4h-1H699z M699,155.9h-1H699z M699,151.8h-1H699z M699,153.5h-1H699z
					 M699,152.7h-1H699z M699,154.4h-1H699z M698.9,150.3h-1.1H698.9z M698.9,149.5h-1.1H698.9z M698.9,148.6h-1.1H698.9z
					 M699.5,160.5v-36.7V160.5z"/>
				
					<linearGradient id="SVGID_11_" gradientUnits="userSpaceOnUse" x1="149.1143" y1="-686.9434" x2="195.1627" y2="-686.9434" gradientTransform="matrix(5.646226e-002 0.9984 -0.9993 4.118572e-002 -1.832843e-004 -2.063811e-005)">
					<stop  offset="0" style="stop-color:#FFFFFF"/>
					<stop  offset="0.9725" style="stop-color:#FFFFFF;stop-opacity:0"/>
				</linearGradient>
				<path fill-rule="evenodd" clip-rule="evenodd" fill="url(#SVGID_11_)" d="M697.4,159.6c-0.1,0.4-0.1,0.7-0.2,0.9
					c-0.1,0.2-0.1,0.4-0.2,0.5c-1.7-0.2-2.6-0.3-2.5-0.5c0-0.1,0.1-0.3,0.1-0.4c0.2-0.4,0.5-0.8,0.9-1v-38.8
					c-0.2-0.1-0.4-0.2-0.5-0.4c0.9,0.1,1.7,0.1,2.4,0v2.7v4v4v4.1v4v4.1v4.1v4v4.1v4V159.6z M696.5,122.3c0,0,0,0.1,0,0.2
					c0,0.1,0,0.1,0,0.2c0,0-0.1,0-0.2,0c-0.1,0-0.1,0-0.2,0c0-0.1-0.1-0.1-0.1-0.2s0-0.1,0.1-0.2c0,0,0.1,0,0.1,0
					C696.4,122.3,696.5,122.3,696.5,122.3z M696,122.5c0,0.1,0,0.2,0.1,0.3s0.2,0.1,0.3,0.1c0.1,0,0.1,0,0.2,0
					c0.1,0,0.1-0.1,0.2-0.1v0c0,0.1,0,0.1-0.1,0.1c0,0.1,0,0.1,0,0.1c0,0-0.1,0.1-0.1,0.1c0,0-0.1,0-0.1,0c-0.1,0-0.1,0-0.1,0
					s-0.1-0.1-0.1-0.1l-0.1,0c0,0.1,0.1,0.1,0.1,0.2c0,0,0.1,0,0.2,0c0.1,0,0.2,0,0.3,0c0.1,0,0.1-0.1,0.2-0.2s0-0.2,0-0.4
					s0-0.2,0-0.3c0-0.1-0.1-0.1-0.2-0.1c-0.1,0-0.1-0.1-0.3-0.1c-0.1,0-0.2,0-0.3,0.1S696,122.4,696,122.5z M696.2,134.9
					c0,0,0.1-0.1,0.2-0.1c0.1,0,0.1,0,0.1,0.1c0.1,0.1,0.1,0.1,0.1,0.2c0,0.1,0,0.1-0.1,0.2c0,0-0.1,0-0.1,0c-0.1,0-0.1,0-0.2,0
					c0,0-0.1-0.1-0.1-0.1c0-0.1,0-0.1,0-0.2C696.2,135,696.2,134.9,696.2,134.9z M696,134.9c0,0.2,0,0.3,0.1,0.4
					c0.1,0.1,0.2,0.1,0.4,0.1c0.1,0,0.1,0,0.2,0c0.1,0,0.1-0.1,0.2-0.1c0-0.1,0-0.1,0-0.2c0-0.1,0-0.2-0.1-0.3
					c-0.1-0.1-0.2-0.1-0.3-0.1c-0.1,0-0.1,0-0.2,0c-0.1,0-0.1,0.1-0.2,0.1c0-0.1,0-0.2,0.1-0.3c0,0,0.1-0.1,0.1-0.1
					c0,0,0.1-0.1,0.2-0.1c0.1,0,0.1,0,0.1,0.1c0,0,0,0.1,0,0.1l0.2-0.1c0-0.1,0-0.1-0.1-0.2c-0.1,0-0.2-0.1-0.3-0.1
					c-0.1,0-0.2,0-0.3,0.1C696,134.5,696,134.7,696,134.9z M696.8,130.4v-0.1H696v0.1h0.6c-0.1,0.1-0.1,0.2-0.3,0.3
					c-0.1,0.1-0.1,0.3-0.1,0.3c0,0.1,0,0.3,0,0.4h0.1c0-0.1,0-0.2,0-0.3c0.1-0.1,0.1-0.3,0.2-0.4S696.7,130.5,696.8,130.4z
					 M696.7,127c0,0.1,0,0.1-0.1,0.2c0,0-0.1,0-0.1,0c-0.1,0-0.1,0-0.2,0c-0.1,0-0.1-0.1-0.1-0.1c0,0-0.1-0.1-0.1-0.1
					c0-0.1,0-0.1,0.1-0.1c0,0,0.1,0,0.1,0c0.1,0,0.2,0,0.2,0C696.6,126.9,696.7,127,696.7,127z M696.2,126.4c0.1,0,0.1,0,0.2,0
					c0,0,0.1,0,0.1,0c0,0,0,0.1,0,0.1c0,0,0,0.1,0,0.1c-0.1,0-0.1,0.1-0.1,0.1c-0.1,0-0.2,0-0.2-0.1s0-0.1,0-0.1
					C696.2,126.5,696.2,126.4,696.2,126.4z M696.3,126.3c-0.1,0-0.2,0-0.3,0.1c-0.1,0-0.1,0.1-0.1,0.2c0,0,0,0.1,0,0.2
					c0,0,0.1,0.1,0.2,0.1c-0.1,0-0.2,0-0.2,0.1c0,0.1,0,0.1,0,0.2c0,0.1,0,0.2,0.1,0.3c0.1,0.1,0.2,0.1,0.4,0.1c0.1,0,0.2,0,0.3-0.1
					c0.1-0.1,0.1-0.1,0.1-0.3c0-0.1,0-0.1,0-0.1c0-0.1-0.1-0.1-0.2-0.1c0.1,0,0.1-0.1,0.2-0.1c0-0.1,0-0.1,0-0.2
					c0-0.1,0-0.2-0.1-0.2C696.6,126.3,696.5,126.3,696.3,126.3z M696.5,146.5c-0.1,0-0.1,0-0.2,0c-0.1,0-0.2,0-0.3,0.1
					c-0.1,0-0.1,0.1-0.1,0.2h0.2c0-0.1,0-0.1,0-0.1s0.1,0,0.1,0c0.1,0,0.1,0,0.2,0c0.1,0,0.1,0.1,0.1,0.1c0,0.1,0,0.1-0.1,0.2
					c-0.1,0-0.1,0-0.2,0v0l0,0.1c0.1,0,0.1-0.1,0.2-0.1c0.1,0,0.1,0,0.1,0.1c0.1,0,0.1,0.1,0.1,0.1c0,0.1,0,0.1-0.1,0.2
					c0,0.1-0.1,0.1-0.2,0.1c-0.1,0-0.1,0-0.1,0c0-0.1-0.1-0.1-0.1-0.2l-0.1,0.1c0,0.1,0,0.1,0.1,0.2c0.1,0.1,0.2,0.1,0.3,0.1
					c0.1,0,0.2,0,0.3-0.1c0.1-0.1,0.1-0.1,0.1-0.3c0-0.1,0-0.1,0-0.2c-0.1,0-0.1-0.1-0.2-0.1c0.1,0,0.1,0,0.2-0.1c0,0,0-0.1,0-0.1
					c0-0.1,0-0.1,0-0.1S696.6,146.6,696.5,146.5z M696.5,142.6v0.6H696L696.5,142.6z M696.6,142.5L696.6,142.5l-0.7,0.8v0.1h0.5v0.3
					h0.1v-0.3h0.2v-0.1h-0.2V142.5z M696.7,138.9c-0.1-0.1-0.2-0.1-0.3-0.1c-0.1,0-0.2,0-0.3,0l0-0.3h0.5v-0.1h-0.7L696,139h0.2
					c0,0,0-0.1,0-0.1c0.1,0,0.1,0,0.1,0c0.1,0,0.2,0,0.2,0c0.1,0.1,0.1,0.1,0.1,0.2c0,0.1,0,0.1-0.1,0.2c0,0-0.1,0.1-0.2,0.1
					c-0.1,0-0.1,0-0.1-0.1c0,0-0.1-0.1-0.1-0.1H696c0,0.1,0,0.2,0.1,0.3c0.1,0.1,0.2,0.1,0.3,0.1c0.2,0,0.3,0,0.4-0.1
					c0.1-0.1,0.1-0.1,0.1-0.3C696.8,139,696.8,138.9,696.7,138.9z M696.5,154.5L696.5,154.5c-0.1,0-0.2,0.1-0.3,0.2
					c-0.1,0-0.1,0.1-0.3,0.1v0.2c0.1,0,0.1,0,0.2-0.1c0.1,0,0.1-0.1,0.2-0.1v0.9h0.1V154.5z M696.7,150.6c-0.1-0.1-0.2-0.1-0.3-0.1
					c-0.1,0-0.2,0-0.3,0.1c-0.1,0-0.1,0.1-0.1,0.3h0.1c0-0.1,0-0.1,0.1-0.1c0-0.1,0.1-0.1,0.2-0.1c0.1,0,0.1,0,0.1,0.1
					c0.1,0,0.1,0.1,0.1,0.1c0,0.1,0,0.1-0.1,0.1c0,0.1-0.1,0.1-0.3,0.3c-0.1,0.1-0.2,0.1-0.2,0.2c0,0-0.1,0.1-0.1,0.1c0,0,0,0,0,0
					h0.8v-0.1h-0.6c0,0,0-0.1,0-0.1c0,0,0.1-0.1,0.2-0.2c0.1-0.1,0.2-0.1,0.3-0.1c0-0.1,0.1-0.1,0.1-0.1s0-0.1,0-0.1
					C696.8,150.8,696.8,150.7,696.7,150.6z M696.6,158.8c0,0.1,0.1,0.2,0.1,0.4c0,0.2,0,0.3-0.1,0.4c-0.1,0.1-0.1,0.1-0.2,0.1
					c-0.1,0-0.1,0-0.2-0.1c0,0,0-0.2,0-0.4c0-0.2,0-0.3,0-0.4c0.1-0.1,0.1-0.1,0.2-0.1C696.5,158.6,696.5,158.7,696.6,158.8z
					 M696,158.8c0,0.1,0,0.2,0,0.3c0,0.2,0,0.4,0.1,0.4c0.1,0.1,0.2,0.1,0.3,0.1c0.1,0,0.2,0,0.3,0c0,0,0.1-0.1,0.1-0.2
					c0-0.1,0-0.2,0-0.3c0-0.1,0-0.2,0-0.3c0-0.1-0.1-0.1-0.1-0.1c0-0.1-0.1-0.1-0.1-0.1c-0.1,0-0.1-0.1-0.2-0.1
					c-0.1,0-0.2,0-0.3,0.1C696.1,158.6,696,158.7,696,158.8z"/>
				<path fill-rule="evenodd" clip-rule="evenodd" fill-opacity="0.6118" d="M696,122.5c0-0.1,0-0.2,0.1-0.3s0.2-0.1,0.3-0.1
					c0.1,0,0.2,0,0.3,0.1c0.1,0,0.1,0.1,0.2,0.1c0,0.1,0,0.2,0,0.3s0,0.3,0,0.4s-0.1,0.2-0.2,0.2c-0.1,0-0.2,0-0.3,0
					c-0.1,0-0.2,0-0.2,0c-0.1-0.1-0.1-0.1-0.1-0.2l0.1,0c0,0.1,0.1,0.1,0.1,0.1s0.1,0,0.1,0c0,0,0.1,0,0.1,0c0,0,0.1-0.1,0.1-0.1
					c0,0,0-0.1,0-0.1c0,0,0.1-0.1,0.1-0.1v0c0,0.1-0.1,0.1-0.2,0.1c-0.1,0-0.1,0-0.2,0c-0.1,0-0.2,0-0.3-0.1S696,122.6,696,122.5z
					 M696.5,122.3c-0.1,0-0.1,0-0.2,0c-0.1,0-0.1,0-0.1,0c-0.1,0.1-0.1,0.1-0.1,0.2s0,0.1,0.1,0.2c0.1,0,0.1,0,0.2,0
					c0.1,0,0.2,0,0.2,0c0-0.1,0-0.1,0-0.2C696.6,122.4,696.6,122.3,696.5,122.3z M696.3,126.3c0.1,0,0.2,0,0.3,0.1
					c0.1,0,0.1,0.1,0.1,0.2c0,0,0,0.1,0,0.2c0,0-0.1,0.1-0.2,0.1c0.1,0,0.2,0,0.2,0.1c0,0,0,0.1,0,0.1c0,0.1,0,0.2-0.1,0.3
					c-0.1,0.1-0.2,0.1-0.3,0.1c-0.2,0-0.3,0-0.4-0.1c-0.1-0.1-0.1-0.1-0.1-0.3c0-0.1,0-0.1,0-0.2c0,0,0.1-0.1,0.2-0.1
					c-0.1,0-0.1-0.1-0.2-0.1c0-0.1,0-0.1,0-0.2c0-0.1,0-0.2,0.1-0.2C696.2,126.3,696.3,126.3,696.3,126.3z M696.2,126.4
					c0,0,0,0.1,0,0.1c0,0,0,0.1,0,0.1s0.1,0.1,0.2,0.1c0,0,0.1,0,0.1-0.1c0,0,0-0.1,0-0.1c0-0.1,0-0.1,0-0.1c-0.1,0-0.1,0-0.1,0
					C696.3,126.4,696.3,126.4,696.2,126.4z M696.7,127c0-0.1,0-0.1-0.1-0.1c0,0-0.1,0-0.2,0c-0.1,0-0.1,0-0.1,0
					c-0.1,0-0.1,0.1-0.1,0.1c0,0,0,0.1,0.1,0.1c0,0,0,0.1,0.1,0.1c0,0,0.1,0,0.2,0c0.1,0,0.1,0,0.1,0
					C696.6,127.2,696.7,127.1,696.7,127z M696.8,130.4c-0.1,0.1-0.2,0.2-0.3,0.3s-0.1,0.3-0.2,0.4c0,0.1,0,0.2,0,0.3h-0.1
					c0-0.1,0-0.2,0-0.4c0-0.1,0.1-0.2,0.1-0.3c0.1-0.1,0.2-0.2,0.3-0.3H696v-0.1h0.8V130.4z M696,134.9c0-0.2,0-0.4,0.1-0.5
					c0.1-0.1,0.2-0.1,0.3-0.1c0.1,0,0.2,0,0.3,0.1c0.1,0.1,0.1,0.1,0.1,0.2l-0.2,0.1c0-0.1,0-0.1,0-0.1c0,0-0.1-0.1-0.1-0.1
					c-0.1,0-0.1,0-0.2,0.1c0,0-0.1,0.1-0.1,0.1c0,0.1-0.1,0.2-0.1,0.3c0-0.1,0.1-0.1,0.2-0.1c0,0,0.1,0,0.2,0c0.1,0,0.2,0,0.3,0.1
					c0.1,0.1,0.1,0.2,0.1,0.3c0,0.1,0,0.1,0,0.2c0,0-0.1,0.1-0.2,0.1c-0.1,0-0.1,0-0.2,0c-0.1,0-0.3,0-0.4-0.1
					C696,135.2,696,135.1,696,134.9z M696.2,134.9c0,0.1,0,0.1,0,0.2c0,0,0,0.1,0,0.2c0,0,0.1,0.1,0.1,0.1c0,0,0.1,0,0.2,0
					c0.1,0,0.1,0,0.1,0c0.1-0.1,0.1-0.1,0.1-0.2c0-0.1,0-0.1-0.1-0.2c0,0-0.1-0.1-0.1-0.1C696.3,134.8,696.2,134.8,696.2,134.9z
					 M696.7,138.9c0.1,0,0.1,0.1,0.1,0.3c0,0.1,0,0.2-0.1,0.3c-0.1,0.1-0.2,0.1-0.4,0.1c-0.1,0-0.2,0-0.3-0.1
					c-0.1-0.1-0.1-0.1-0.1-0.3h0.1c0,0.1,0.1,0.1,0.1,0.1c0,0,0.1,0.1,0.1,0.1c0.1,0,0.2,0,0.2-0.1c0.1-0.1,0.1-0.1,0.1-0.2
					c0-0.1,0-0.1-0.1-0.2c0,0-0.1,0-0.2,0c0,0-0.1,0-0.1,0c0,0,0,0.1,0,0.1H696l0.1-0.6h0.7v0.1h-0.5l0,0.3c0.1,0,0.1,0,0.3,0
					C696.5,138.8,696.6,138.8,696.7,138.9z M696.6,142.5v0.8h0.2v0.1h-0.2v0.3h-0.1v-0.3h-0.5v-0.1L696.6,142.5L696.6,142.5z
					 M696.5,142.6l-0.4,0.6h0.4V142.6z M696.5,146.5c0.1,0,0.1,0.1,0.2,0.1s0,0.1,0,0.1c0,0,0,0.1,0,0.1c0,0.1-0.1,0.1-0.2,0.1
					c0.1,0,0.1,0.1,0.2,0.1c0,0.1,0,0.1,0,0.2c0,0.1,0,0.2-0.1,0.3c-0.1,0.1-0.2,0.1-0.3,0.1c-0.1,0-0.2,0-0.3-0.1
					c-0.1-0.1-0.1-0.1-0.1-0.2l0.1-0.1c0,0.1,0.1,0.1,0.1,0.2c0,0,0.1,0,0.1,0c0.1,0,0.2,0,0.2-0.1c0.1,0,0.1-0.1,0.1-0.2
					c0-0.1,0-0.1-0.1-0.1c0-0.1-0.1-0.1-0.1-0.1c0,0-0.1,0-0.2,0.1l0-0.1v0c0.1,0,0.1,0,0.2,0c0.1,0,0.1-0.1,0.1-0.2
					c0-0.1,0-0.1-0.1-0.1c0,0-0.1,0-0.2,0c-0.1,0-0.1,0-0.1,0s0,0.1,0,0.1H696c0-0.1,0.1-0.2,0.1-0.2c0.1-0.1,0.2-0.1,0.3-0.1
					C696.4,146.5,696.5,146.5,696.5,146.5z M696.7,150.6c0.1,0.1,0.1,0.1,0.1,0.2c0,0.1,0,0.1,0,0.1s-0.1,0.1-0.1,0.1
					c0,0-0.1,0.1-0.3,0.1c-0.1,0.1-0.2,0.2-0.2,0.2c0,0,0,0.1,0,0.1h0.6v0.1H696c0,0,0,0,0,0c0-0.1,0.1-0.1,0.1-0.1
					c0-0.1,0.1-0.1,0.2-0.2c0.2-0.1,0.3-0.2,0.3-0.3c0.1,0,0.1-0.1,0.1-0.1c0,0,0-0.1-0.1-0.1c0-0.1-0.1-0.1-0.1-0.1
					c-0.1,0-0.2,0-0.2,0.1c-0.1,0-0.1,0.1-0.1,0.1H696c0-0.1,0-0.2,0.1-0.3c0.1-0.1,0.2-0.1,0.3-0.1
					C696.5,150.5,696.6,150.6,696.7,150.6z M696.5,154.5v1.1h-0.1v-0.9c0,0-0.1,0-0.2,0.1c-0.1,0.1-0.1,0.1-0.2,0.1v-0.2
					c0.1,0,0.2-0.1,0.3-0.1C696.4,154.6,696.4,154.6,696.5,154.5L696.5,154.5z M696,158.8c0-0.1,0.1-0.2,0.2-0.2
					c0.1,0,0.1-0.1,0.3-0.1c0.1,0,0.1,0,0.2,0.1c0,0,0.1,0,0.1,0.1c0,0,0.1,0.1,0.1,0.1c0,0.1,0,0.1,0,0.3c0,0.1,0,0.2,0,0.3
					c0,0.1-0.1,0.2-0.1,0.2c-0.1,0-0.2,0-0.3,0c-0.1,0-0.2,0-0.3-0.1c-0.1-0.1-0.1-0.3-0.1-0.4C696,159,696,158.9,696,158.8z
					 M696.6,158.8c-0.1-0.1-0.1-0.1-0.2-0.1c-0.1,0-0.1,0-0.2,0.1c0,0.1,0,0.2,0,0.4c0,0.2,0,0.3,0,0.4c0.1,0.1,0.1,0.1,0.2,0.1
					c0.1,0,0.1,0,0.2-0.1c0,0,0.1-0.2,0.1-0.4C696.7,158.9,696.6,158.8,696.6,158.8z"/>
				<path fill-rule="evenodd" clip-rule="evenodd" fill="none" d="M698.3,118.5c-0.4,0-0.9,0-1.5,0c-0.9,0-1.7,0-2.3,0.1
					s-1,0.2-1,0.4c0,0.1,0.1,0.1,0.3,0.2h0c0.2,0.1,0.4,0.1,0.7,0.1c0.1,0,0.2,0,0.3,0.1c0.6,0.1,1.3,0.1,2,0.1c0.2,0,0.4,0,0.6,0
					c0.7,0,1.3-0.1,1.8-0.2c0.3,0,0.5-0.1,0.6-0.1c0,0,0.1,0,0.1,0c0.1-0.1,0.2-0.1,0.2-0.2c0-0.1-0.3-0.3-0.9-0.4
					C698.9,118.6,698.6,118.5,698.3,118.5z M699.9,119.6v-0.5 M693.8,119.1v40.3c0,0.2,0,0.4,0.1,0.6c0,0.3,0,0.5,0,0.8
					c0,0.1,0,0.1,0,0.2c0.1,0.1,0.2,0.2,0.3,0.4c1,0.9,2.1,1.3,3.1,1.1c0.8-0.1,1.7-0.6,2.5-1.5 M699.9,119.6v39.7
					c0,0.6,0,1.2-0.1,1.8"/>
				
					<path fill-rule="evenodd" clip-rule="evenodd" fill="none" stroke="#000000" stroke-width="0.1" stroke-linecap="round" stroke-linejoin="round" stroke-miterlimit="3" stroke-opacity="0.1255" d="
					M697.4,122.7h1.6 M698.9,123.4h-1.1 M698.8,145.4h-1 M698.8,143.7h-1 M698.8,144.6h-1 M698.8,146.2h-1 M697.4,147h1.6
					 M697.4,143h1.6 M697.4,138.9h1.6 M698.8,137.3h-1 M698.8,138.1h-1 M698.8,136.5h-1 M698.8,135.6h-1 M699,134.9h-1.6 M698.8,130
					h-1 M697.4,130.8h1.6 M698.8,128.4h-1 M698.8,127.5h-1 M697.4,126.8h1.6 M698.8,129.2h-1 M698.9,147.8h-1.1 M698.9,139.7h-1.1
					 M698.9,142.2h-1.1 M698.9,141.4h-1.1 M698.9,140.5h-1.1 M698.9,133.3h-1.1 M698.9,134.1h-1.1 M698.9,131.5h-1.1 M698.9,132.5
					h-1.1 M698.9,125.9h-1.1 M698.9,125.1h-1.1 M698.9,124.3h-1.1 M697.4,159.1h1.6 M697.4,155.1h1.6 M699,151h-1.6 M699,157.6h-1
					 M699,156.8h-1 M699,158.4h-1 M699,155.9h-1 M699,151.8h-1 M699,153.5h-1 M699,152.7h-1 M699,154.4h-1 M698.9,150.3h-1.1
					 M698.9,149.5h-1.1 M698.9,148.6h-1.1"/>
				
					<line fill-rule="evenodd" clip-rule="evenodd" fill="none" stroke="#FFFFFF" stroke-width="0.1" stroke-linecap="round" stroke-linejoin="round" stroke-miterlimit="3" stroke-opacity="0.4314" x1="699.5" y1="160.5" x2="699.5" y2="123.8"/>
			</g>
			<g>
				<linearGradient id="SVGID_12_" gradientUnits="userSpaceOnUse" x1="677.5498" y1="133.4502" x2="705.4004" y2="133.4502">
					<stop  offset="0" style="stop-color:#C46F1F"/>
					<stop  offset="1" style="stop-color:#CC711E"/>
				</linearGradient>
				<path fill-rule="evenodd" clip-rule="evenodd" fill="url(#SVGID_12_)" d="M677.5,134.6l1.5-2.4h14c0.1,0.1,0.5,0.3,1,0.4
					c0.8,0.2,1.7,0.3,2.8,0.3c1.1,0,2-0.1,2.7-0.3c0.6-0.1,0.9-0.2,1.1-0.4h4.8v2.4H677.5z"/>
				<linearGradient id="SVGID_13_" gradientUnits="userSpaceOnUse" x1="677.5498" y1="135.7749" x2="705.4004" y2="135.7749">
					<stop  offset="0" style="stop-color:#955117"/>
					<stop  offset="1" style="stop-color:#AE6119"/>
				</linearGradient>
				<polygon fill-rule="evenodd" clip-rule="evenodd" fill="url(#SVGID_13_)" points="689.3,136.9 684.5,136.9 677.5,136.9 
					677.5,134.6 705.4,134.6 705.4,136.9 				"/>
				<linearGradient id="SVGID_14_" gradientUnits="userSpaceOnUse" x1="684.5498" y1="149.6812" x2="689.2498" y2="149.6812">
					<stop  offset="0" style="stop-color:#955315"/>
					<stop  offset="0.4706" style="stop-color:#DB812E"/>
					<stop  offset="1" style="stop-color:#B6681F"/>
				</linearGradient>
				<path fill-rule="evenodd" clip-rule="evenodd" fill="url(#SVGID_14_)" d="M689.3,136.9v24.7c0.1,0.1,0,0.3-0.3,0.4
					c-0.2,0.1-0.5,0.2-0.7,0.3c-0.2,0-0.6,0.1-1.1,0.1c-0.6,0-1,0-1.4-0.1c-0.4-0.1-0.7-0.2-0.9-0.4c-0.2-0.1-0.3-0.3-0.3-0.4v-24.7
					H689.3z"/>
			</g>
		</g>
		<g>
			<g>
				<linearGradient id="SVGID_15_" gradientUnits="userSpaceOnUse" x1="660.1504" y1="134.5" x2="816.9004" y2="134.5">
					<stop  offset="0" style="stop-color:#CE9C6B"/>
					<stop  offset="1" style="stop-color:#95602D"/>
				</linearGradient>
				<polygon fill-rule="evenodd" clip-rule="evenodd" fill="url(#SVGID_15_)" points="712.2,101.3 712.2,112.7 675.4,112.7 
					675.4,153.5 712.2,153.5 712.2,167.7 660.2,167.7 660.2,101.3 				"/>
				<linearGradient id="SVGID_16_" gradientUnits="userSpaceOnUse" x1="660.1504" y1="67.5752" x2="816.9004" y2="67.5752">
					<stop  offset="0" style="stop-color:#CE9C6B"/>
					<stop  offset="1" style="stop-color:#95602D"/>
				</linearGradient>
				<polygon fill-rule="evenodd" clip-rule="evenodd" fill="url(#SVGID_16_)" points="712.2,34.3 712.2,45.7 675.4,45.7 675.4,86.6 
					712.2,86.6 712.2,100.9 660.2,100.9 660.2,34.3 				"/>
			</g>
			<g>
				
					<radialGradient id="SVGID_17_" cx="711.2998" cy="90.7002" r="115.0375" fx="713.1043" fy="90.7002" gradientUnits="userSpaceOnUse">
					<stop  offset="0" style="stop-color:#503E3A;stop-opacity:0"/>
					<stop  offset="0.4471" style="stop-color:#483734;stop-opacity:0.2353"/>
					<stop  offset="0.7882" style="stop-color:#231A18;stop-opacity:0.6627"/>
					<stop  offset="1" style="stop-color:#2A1F1D"/>
				</radialGradient>
				<rect x="675.4" y="45.7" fill-rule="evenodd" clip-rule="evenodd" fill="url(#SVGID_17_)" width="36.8" height="40.9"/>
				
					<radialGradient id="SVGID_18_" cx="711.2998" cy="157.6499" r="115.0375" fx="713.1043" fy="157.6499" gradientUnits="userSpaceOnUse">
					<stop  offset="0" style="stop-color:#503E3A;stop-opacity:0"/>
					<stop  offset="0.4471" style="stop-color:#483734;stop-opacity:0.2353"/>
					<stop  offset="0.7882" style="stop-color:#231A18;stop-opacity:0.6627"/>
					<stop  offset="1" style="stop-color:#2A1F1D"/>
				</radialGradient>
				<rect x="675.4" y="112.7" fill-rule="evenodd" clip-rule="evenodd" fill="url(#SVGID_18_)" width="36.8" height="40.8"/>
				
					<linearGradient id="SVGID_19_" gradientUnits="userSpaceOnUse" x1="-215.9375" y1="689.543" x2="-138.756" y2="689.543" gradientTransform="matrix(1.295648e-002 -0.9999 0.9998 2.496688e-002 -1.988895e-004 -4.190989e-004)">
					<stop  offset="0" style="stop-color:#503E3A;stop-opacity:0"/>
					<stop  offset="0.4471" style="stop-color:#483734;stop-opacity:0.2353"/>
					<stop  offset="1" style="stop-color:#2A1F1D"/>
				</linearGradient>
				<polygon fill-rule="evenodd" clip-rule="evenodd" fill="url(#SVGID_19_)" points="712.2,167.7 712.2,276.1 700.2,277.5 
					661.3,167.7 				"/>
			</g>
			<g>
				<polygon fill-rule="evenodd" clip-rule="evenodd" fill="#A37140" points="672.6,45.6 675.5,45.6 675.5,87.1 712.2,87.3 
					712.2,90.1 672.6,90 				"/>
				
					<line fill-rule="evenodd" clip-rule="evenodd" fill="none" stroke="#FFFFFF" stroke-width="3" stroke-linecap="square" stroke-linejoin="round" stroke-miterlimit="3" stroke-opacity="0.3255" x1="673.8" y1="113.5" x2="673.8" y2="152.6"/>
				<line fill-rule="evenodd" clip-rule="evenodd" fill="none" x1="674.3" y1="154.1" x2="712.2" y2="154.3"/>
			</g>
		</g>
	</g>
</g>
</svg>
