<?xml version="1.0" encoding="utf-8"?>
<!-- Generator: Adobe Illustrator 16.0.0, SVG Export Plug-In . SVG Version: 6.00 Build 0)  -->
<!DOCTYPE svg PUBLIC "-//W3C//DTD SVG 1.1//EN" "http://www.w3.org/Graphics/SVG/1.1/DTD/svg11.dtd">
<svg version="1.1" id="Layer_1" xmlns="http://www.w3.org/2000/svg" xmlns:xlink="http://www.w3.org/1999/xlink" x="0px" y="0px"
	 width="97px" height="128.33px" viewBox="0 0 97 128.33" enable-background="new 0 0 97 128.33" xml:space="preserve">
<g>
	
		<linearGradient id="SVGID_1_" gradientUnits="userSpaceOnUse" x1="63.8818" y1="-19.5908" x2="63.8818" y2="139.4336" gradientTransform="matrix(1 0 0 -1 -15.4502 144.3047)">
		<stop  offset="0" style="stop-color:#FFFFFF;stop-opacity:0.2"/>
		<stop  offset="1" style="stop-color:#FFFFFF;stop-opacity:0"/>
	</linearGradient>
	<path fill="url(#SVGID_1_)" d="M36.5,27.78V2.13c6.73-0.53,14.57-0.53,23.5,0v25.3l0.05,0.15c-0.23,2.93,0.58,6.03,2.45,9.3
		l32.35,67.75c0,0.07,0,0.12,0,0.15c0.4,2.63,0.28,5.02-0.35,7.15c-2.1,6.47-9.05,10.6-20.85,12.4c-21.27,3.6-39.83,3.33-55.7-0.8
		c-0.1,0-0.2-0.03-0.3-0.1c-0.27-0.03-0.5-0.08-0.7-0.15c-7.77-2.17-12.53-5.95-14.3-11.35c-0.83-2.33-1.07-4.93-0.7-7.8
		c0-0.07,0-0.12,0-0.15l32.45-66.5C35.9,34.02,36.6,30.78,36.5,27.78z"/>
</g>
</svg>
