<?xml version="1.0" encoding="utf-8"?>
<!-- Generator: Adobe Illustrator 16.0.0, SVG Export Plug-In . SVG Version: 6.00 Build 0)  -->
<!DOCTYPE svg PUBLIC "-//W3C//DTD SVG 1.1//EN" "http://www.w3.org/Graphics/SVG/1.1/DTD/svg11.dtd">
<svg version="1.1" id="Layer_1" xmlns="http://www.w3.org/2000/svg" xmlns:xlink="http://www.w3.org/1999/xlink" x="0px" y="0px"
	 width="41.63px" height="41.25px" viewBox="0 0 41.63 41.25" enable-background="new 0 0 41.63 41.25" xml:space="preserve">
<symbol  id="cross_x5C_" viewBox="-95.99 -104.34 191.98 200.29">
	<g id="Layer_3_1_">
		<path fill-rule="evenodd" clip-rule="evenodd" fill="#333333" fill-opacity="0.0902" d="M51.65,82.85c6.33,6.33,12.67,6.33,19,0
			L91.2,62.3c6.33-6.33,6.33-12.67,0-19L39.55-8.35L91.2-60c6.37-6.37,6.38-12.72,0.05-19.05L70.7-99.6
			c-6.33-6.33-12.68-6.32-19.05,0.05L0-47.9l-51.65-51.65c-6.37-6.37-12.72-6.38-19.05-0.05l-20.55,20.55
			c-6.33,6.33-6.32,12.68,0.05,19.05l51.65,51.65L-91.2,43.3c-6.33,6.33-6.33,12.67,0,19l20.55,20.55c6.33,6.33,12.67,6.33,19,0
			L0,31.2L51.65,82.85z"/>
	</g>
	<g id="Layer_1_2_">
		<linearGradient id="SVGID_1_" gradientUnits="userSpaceOnUse" x1="55.2349" y1="-62.2788" x2="-77.5729" y2="87.3393">
			<stop  offset="0" style="stop-color:#AEAEAE"/>
			<stop  offset="1" style="stop-color:#FAFAFA"/>
			<stop  offset="1" style="stop-color:#FFFFFF"/>
		</linearGradient>
		<path fill-rule="evenodd" clip-rule="evenodd" fill="url(#SVGID_1_)" d="M69.95,90.5L90.5,69.95c5.86-5.87,5.86-11.73,0-17.6
			l-52-52c-0.1-0.1-0.15-0.21-0.15-0.35c0-0.14,0.05-0.25,0.15-0.35l52-52c5.9-5.9,5.91-11.78,0.05-17.65L70-90.55
			c-5.87-5.86-11.75-5.85-17.65,0.05l-52,52c-0.1,0.1-0.21,0.15-0.35,0.15c-0.14,0-0.25-0.05-0.35-0.15l-52-52
			c-5.9-5.9-11.78-5.91-17.65-0.05L-90.55-70c-5.86,5.87-5.85,11.75,0.05,17.65l52,52c0.1,0.1,0.15,0.21,0.15,0.35
			c0,0.14-0.05,0.25-0.15,0.35l-52,52c-5.86,5.87-5.86,11.73,0,17.6l20.55,20.55c5.87,5.86,11.73,5.86,17.6,0l52-52
			c0.1-0.1,0.21-0.15,0.35-0.15c0.14,0,0.25,0.05,0.35,0.15l52,52C58.22,96.36,64.08,96.36,69.95,90.5z"/>
		<path fill-rule="evenodd" clip-rule="evenodd" fill="#FFFFFF" d="M69.95,90.5c-5.87,5.86-11.73,5.86-17.6,0l-52-52
			c-0.1-0.1-0.21-0.15-0.35-0.15c-0.14,0-0.25,0.05-0.35,0.15l-52,52c-5.87,5.86-11.73,5.86-17.6,0L-90.5,69.95
			c-5.86-5.87-5.86-11.73,0-17.6l52-52c0.1-0.1,0.15-0.21,0.15-0.35c0-0.14-0.05-0.25-0.15-0.35l-52-52
			c-5.9-5.9-5.91-11.78-0.05-17.65L-70-90.55c5.87-5.86,11.75-5.85,17.65,0.05l52,52c0.1,0.1,0.21,0.15,0.35,0.15
			c0.14,0,0.25-0.05,0.35-0.15l52-52c5.9-5.9,11.78-5.91,17.65-0.05L90.55-70c5.86,5.87,5.85,11.75-0.05,17.65l-52,52
			c-0.1,0.1-0.15,0.21-0.15,0.35c0,0.14,0.05,0.25,0.15,0.35l52,52c5.86,5.87,5.86,11.73,0,17.6L69.95,90.5z M51.65,91.2
			c6.33,6.34,12.67,6.34,19,0L91.2,70.65c6.34-6.33,6.34-12.67,0-19L39.55,0L91.2-51.65c6.37-6.37,6.39-12.72,0.05-19.05L70.7-91.25
			c-6.33-6.34-12.68-6.32-19.05,0.05L0-39.55L-51.65-91.2c-6.37-6.37-12.72-6.39-19.05-0.05L-91.25-70.7
			c-6.34,6.33-6.32,12.68,0.05,19.05L-39.55,0L-91.2,51.65c-6.34,6.33-6.34,12.67,0,19l20.55,20.55c6.33,6.34,12.67,6.34,19,0
			L0,39.55L51.65,91.2z"/>
	</g>
</symbol>
<g>
	<g>
		
			<use xlink:href="#cross_x5C_"  width="191.98" height="200.29" x="-95.99" y="-104.34" transform="matrix(0.1229 0 0 -0.1229 22.0752 22)" overflow="visible"/>
	</g>
	<g>
		
			<linearGradient id="SVGID_2_" gradientUnits="userSpaceOnUse" x1="-403.5684" y1="-314.7139" x2="-219.8283" y2="-75.9142" gradientTransform="matrix(0.1321 0 0 0.1321 62.004 46.4762)">
			<stop  offset="0" style="stop-color:#FFFFFF"/>
			<stop  offset="0.5373" style="stop-color:#B3B3B3"/>
			<stop  offset="1" style="stop-color:#FFFFFF"/>
			<stop  offset="1" style="stop-color:#FAFAFA"/>
		</linearGradient>
		<path fill-rule="evenodd" clip-rule="evenodd" fill="url(#SVGID_2_)" d="M33.82,7.7c-0.49-0.49-1-0.95-1.52-1.37
			c-0.69-0.56-1.4-1.06-2.14-1.51c-2.76-1.66-5.88-2.5-9.33-2.5c-5.07,0-9.4,1.79-12.99,5.38c-2.44,2.44-4.05,5.22-4.83,8.35
			c-0.37,1.47-0.55,3.01-0.55,4.63c0,1.62,0.18,3.17,0.55,4.64c0.22,0.9,0.52,1.78,0.88,2.63c0.31,0.73,0.68,1.43,1.1,2.12
			c0.77,1.27,1.72,2.47,2.85,3.6c3.59,3.59,7.92,5.38,12.99,5.38c5.07,0,9.4-1.79,12.98-5.38c3.59-3.58,5.38-7.91,5.38-12.98
			c0-1.22-0.1-2.4-0.31-3.53c-0.22-1.22-0.57-2.39-1.03-3.51C36.97,11.47,35.62,9.49,33.82,7.7z M34.89,6.63
			c2.21,2.21,3.79,4.68,4.74,7.41c0.37,1.06,0.65,2.16,0.83,3.3c0.17,1.08,0.26,2.2,0.26,3.35c0,5.49-1.94,10.17-5.82,14.05
			c-3.88,3.88-8.56,5.82-14.05,5.82c-5.49,0-10.18-1.94-14.06-5.82c-0.93-0.93-1.75-1.91-2.46-2.93c-0.46-0.67-0.87-1.36-1.24-2.07
			c-0.12-0.22-0.23-0.45-0.34-0.68c-1.19-2.54-1.78-5.34-1.78-8.38c0-3.31,0.71-6.33,2.12-9.06c0.93-1.79,2.16-3.46,3.7-5
			c3.88-3.88,8.57-5.82,14.06-5.82c3.41,0,6.51,0.75,9.3,2.25c1.6,0.85,3.1,1.96,4.5,3.31C34.73,6.46,34.81,6.54,34.89,6.63z"/>
		
			<radialGradient id="SVGID_3_" cx="-311.6748" cy="-195.2734" r="141.0119" gradientTransform="matrix(0.1321 0 0 0.1321 62.004 46.4762)" gradientUnits="userSpaceOnUse">
			<stop  offset="0.9137" style="stop-color:#BF3737"/>
			<stop  offset="1" style="stop-color:#982C2C"/>
		</radialGradient>
		<path fill-rule="evenodd" clip-rule="evenodd" fill="url(#SVGID_3_)" d="M33.82,7.7c1.8,1.79,3.14,3.77,4.04,5.94
			c0.46,1.12,0.81,2.29,1.03,3.51c0.21,1.13,0.31,2.31,0.31,3.53c0,5.07-1.79,9.4-5.38,12.98c-3.58,3.59-7.91,5.38-12.98,5.38
			c-5.07,0-9.4-1.79-12.99-5.38c-1.13-1.13-2.08-2.33-2.85-3.6c-0.42-0.69-0.78-1.39-1.1-2.12c-0.37-0.85-0.66-1.73-0.88-2.63
			c-0.37-1.47-0.55-3.02-0.55-4.64c0-1.62,0.18-3.16,0.55-4.63c0.78-3.13,2.39-5.91,4.83-8.35c3.59-3.58,7.92-5.38,12.99-5.38
			c3.46,0,6.57,0.83,9.33,2.5c0.74,0.44,1.45,0.94,2.14,1.51C32.83,6.75,33.33,7.21,33.82,7.7z"/>
		<path fill-rule="evenodd" clip-rule="evenodd" fill="#666666" d="M34.89,6.63c-0.08-0.08-0.17-0.17-0.25-0.25
			c-1.4-1.35-2.9-2.46-4.5-3.31c-2.79-1.5-5.89-2.25-9.3-2.25c-5.49,0-10.18,1.94-14.06,5.82c-1.54,1.54-2.77,3.21-3.7,5
			c-1.41,2.72-2.12,5.74-2.12,9.06c0,3.04,0.59,5.83,1.78,8.38c0.11,0.23,0.22,0.45,0.34,0.68c0.37,0.71,0.78,1.4,1.24,2.07
			c0.71,1.02,1.53,2,2.46,2.93c3.88,3.88,8.57,5.82,14.06,5.82c5.49,0,10.17-1.94,14.05-5.82c3.88-3.88,5.82-8.56,5.82-14.05
			c0-1.15-0.09-2.27-0.26-3.35c-0.18-1.14-0.46-2.24-0.83-3.3C38.68,11.3,37.1,8.83,34.89,6.63z M34.74,6.28
			c0.08,0.08,0.17,0.17,0.25,0.25c2.22,2.22,3.81,4.7,4.77,7.45c0.38,1.07,0.65,2.18,0.83,3.33c0.17,1.09,0.26,2.21,0.26,3.37
			c0,5.53-1.96,10.24-5.86,14.14c-3.9,3.91-8.62,5.86-14.14,5.86S10.6,38.74,6.69,34.83c-0.94-0.94-1.76-1.92-2.47-2.95
			c-0.46-0.67-0.88-1.37-1.25-2.08c-0.12-0.23-0.23-0.45-0.34-0.68c-1.2-2.56-1.8-5.37-1.8-8.43c0-3.33,0.71-6.37,2.13-9.12
			C3.9,9.76,5.15,8.08,6.69,6.53c3.91-3.9,8.63-5.86,14.15-5.86c3.43,0,6.55,0.75,9.36,2.27C31.82,3.8,33.33,4.92,34.74,6.28z"/>
	</g>
	<g>
		
			<use xlink:href="#cross_x5C_"  width="191.98" height="200.29" x="-95.99" y="-104.34" transform="matrix(0.1229 0 0 -0.1229 21.0752 21)" overflow="visible"/>
	</g>
	<g>
		<path fill-rule="evenodd" clip-rule="evenodd" fill-opacity="0.0863" d="M39.21,20.68c0,5.07-1.79,9.4-5.38,12.98
			c-3.58,3.59-7.91,5.38-12.98,5.38c-5.07,0-9.4-1.79-12.99-5.38c-1.13-1.13-2.08-2.33-2.85-3.6c-0.42-0.69-0.78-1.39-1.1-2.12
			c9.44-8.52,21.1-12.12,34.98-10.8C39.1,18.28,39.21,19.46,39.21,20.68z"/>
	</g>
</g>
</svg>
