<?xml version="1.0" encoding="utf-8"?>
<!-- Generator: Adobe Illustrator 16.0.0, SVG Export Plug-In . SVG Version: 6.00 Build 0)  -->
<!DOCTYPE svg PUBLIC "-//W3C//DTD SVG 1.1//EN" "http://www.w3.org/Graphics/SVG/1.1/DTD/svg11.dtd">
<svg version="1.1" id="Layer_1" xmlns="http://www.w3.org/2000/svg" xmlns:xlink="http://www.w3.org/1999/xlink" x="0px" y="0px"
	 width="97px" height="128.3px" viewBox="0 0 97 128.3" enable-background="new 0 0 97 128.3" xml:space="preserve">
<g>
	
		<linearGradient id="SVGID_1_" gradientUnits="userSpaceOnUse" x1="79.3311" y1="826.6162" x2="79.331" y2="667.5918" gradientTransform="matrix(1 0 0 1 -30.9004 -662.7207)">
		<stop  offset="0" style="stop-color:#DB499A;stop-opacity:0.8"/>
		<stop  offset="1" style="stop-color:#DB499A;stop-opacity:0.2314"/>
	</linearGradient>
	<path fill="url(#SVGID_1_)" d="M36.5,27.8V2.1c6.7-0.5,14.6-0.5,23.5,0v25.3l0,0.1c-0.2,2.9,0.6,6,2.5,9.3l32.3,67.8
		c0,0.1,0,0.1,0,0.2c0.4,2.6,0.3,5-0.3,7.2c-2.1,6.5-9,10.6-20.8,12.4c-21.3,3.6-39.8,3.3-55.7-0.8c-0.1,0-0.2,0-0.3-0.1
		c-0.3,0-0.5-0.1-0.7-0.2c-7.8-2.2-12.5-6-14.3-11.3c-0.8-2.3-1.1-4.9-0.7-7.8c0-0.1,0-0.1,0-0.2l32.4-66.5
		C35.9,34,36.6,30.8,36.5,27.8z"/>
</g>
</svg>
