<?xml version="1.0" encoding="utf-8"?>
<!-- Generator: Adobe Illustrator 16.0.0, SVG Export Plug-In . SVG Version: 6.00 Build 0)  -->
<!DOCTYPE svg PUBLIC "-//W3C//DTD SVG 1.1//EN" "http://www.w3.org/Graphics/SVG/1.1/DTD/svg11.dtd">
<svg version="1.1" id="Layer_1" xmlns="http://www.w3.org/2000/svg" xmlns:xlink="http://www.w3.org/1999/xlink" x="0px" y="0px"
	 width="65px" height="8px" viewBox="0 0 65 8" enable-background="new 0 0 65 8" xml:space="preserve">
<g>
	<g>
		<path fill-rule="evenodd" clip-rule="evenodd" fill="#FFFFFF" d="M56,4.7c-0.03,0-0.07,0-0.1,0c-0.7-0.4-0.5-0.72,0.6-0.95
			C55.6,3.68,55.4,3.43,55.9,3c0-0.03,0.02-0.05,0.05-0.05c1.03,0.07,1.33,0.33,0.9,0.8C57.42,4.15,57.13,4.47,56,4.7z M51.4,5.05
			c-0.43-0.53,0.02-0.85,1.35-0.95c0.7,0.6,0.28,0.92-1.25,0.95C51.47,5.05,51.43,5.05,51.4,5.05z M51.95,2.7
			c0.47,0.37,0.33,0.67-0.4,0.9c-0.93-0.23-1.07-0.53-0.4-0.9c0.23,0.07,0.47,0.07,0.7,0C51.88,2.7,51.92,2.7,51.95,2.7z M47.9,2.45
			h0.05c0.53,0.67,0.27,0.83-0.8,0.5c-0.3-0.1-0.37-0.23-0.2-0.4c0.07-0.07,0.15-0.1,0.25-0.1C47.43,2.52,47.67,2.52,47.9,2.45z
			 M45.95,4.8c-0.23,0.8-0.52,0.8-0.85,0c0-0.07,0.05-0.1,0.15-0.1c0.23-0.03,0.43-0.02,0.6,0.05C45.88,4.75,45.92,4.77,45.95,4.8z
			 M47.9,4.55c0.07-0.07,0.15-0.1,0.25-0.1c0.27,0.03,0.52,0.03,0.75,0c0.03,0,0.07,0,0.1,0c0.47,0.7,0.15,0.85-0.95,0.45
			C47.78,4.83,47.73,4.72,47.9,4.55z M44.95,2.2c1.27,0.4,1.22,0.62-0.15,0.65c-0.1,0-0.18-0.07-0.25-0.2
			C44.48,2.45,44.62,2.3,44.95,2.2z M40.85,1.95c0.57,0.73,0.18,0.92-1.15,0.55c-0.2-0.07-0.25-0.17-0.15-0.3
			c0.03-0.07,0.08-0.12,0.15-0.15c0.33,0,0.67-0.03,1-0.1C40.77,1.95,40.82,1.95,40.85,1.95z M37.3,5.65
			C36.83,5.45,36.73,5.2,37,4.9c0.07-0.03,0.15-0.07,0.25-0.1c0.23-0.03,0.43-0.02,0.6,0.05c0.03,0.03,0.07,0.05,0.1,0.05
			c0.23,0.27,0.17,0.48-0.2,0.65C37.62,5.62,37.47,5.65,37.3,5.65z M38.4,3.15c0.23,0,0.48-0.02,0.75-0.05
			c0.1,0,0.18-0.02,0.25-0.05c0.57,0.7,0.23,0.88-1,0.55c-0.23-0.03-0.3-0.13-0.2-0.3C38.27,3.27,38.33,3.22,38.4,3.15z M32.5,2.75
			c0.1,0.17,0.05,0.33-0.15,0.5c-0.27,0.17-0.73,0.23-1.4,0.2C30.88,3.42,30.8,3.4,30.7,3.4c-0.23-0.13-0.33-0.27-0.3-0.4
			c0.03-0.2,0.22-0.35,0.55-0.45c0.43,0,0.85,0.02,1.25,0.05c0.03,0,0.07,0,0.1,0C32.4,2.63,32.47,2.68,32.5,2.75z M32.55,5.4
			c0.07-0.13,0.23-0.23,0.5-0.3c0.83,0.6,0.73,0.8-0.3,0.6C32.52,5.67,32.45,5.57,32.55,5.4z M32.9,3.95
			c0.27,0.8,0.03,0.92-0.7,0.35c-0.2-0.17-0.15-0.28,0.15-0.35c0.17,0.03,0.33,0.03,0.5,0H32.9z M27.25,2.55
			c0.27-0.03,0.48-0.02,0.65,0.05c0.03,0.03,0.07,0.05,0.1,0.05c0.17,0.13,0.22,0.28,0.15,0.45c-0.03,0.07-0.1,0.13-0.2,0.2
			c-0.2,0.07-0.43,0.08-0.7,0.05c-0.07-0.03-0.13-0.05-0.2-0.05C26.82,3.1,26.8,2.9,27,2.7C27.03,2.63,27.12,2.58,27.25,2.55z
			 M21.1,2.75c1.07,0.57,0.57,0.87-1.5,0.9c-0.03,0-0.07,0-0.1,0c-0.6-0.6-0.12-0.9,1.45-0.9C21.02,2.75,21.07,2.75,21.1,2.75z
			 M20.95,4.15c0.03,0.03,0.07,0.05,0.1,0.05c-0.23,0.83-0.52,0.85-0.85,0.05c0-0.07,0.05-0.12,0.15-0.15
			C20.62,4.07,20.82,4.08,20.95,4.15z M25.25,4.5c0.57,0.23,0.6,0.5,0.1,0.8c-0.03,0.03-0.07,0.05-0.1,0.05
			C24.68,5.05,24.68,4.77,25.25,4.5z M24.55,3.2c1.33,0.4,1.3,0.58-0.1,0.55c-0.23,0-0.32-0.08-0.25-0.25
			C24.2,3.33,24.32,3.23,24.55,3.2z M23.8,5.2c-0.6-0.27-0.57-0.53,0.1-0.8h0.05c0.57,0.3,0.53,0.57-0.1,0.8H23.8z M15.7,3.05
			c0.33,0.5-0.13,0.77-1.4,0.8c-0.1,0-0.2,0-0.3,0c-0.5-0.33-0.42-0.58,0.25-0.75c0.23-0.07,0.47-0.12,0.7-0.15
			C15.22,2.92,15.43,2.93,15.6,3C15.63,3,15.67,3.02,15.7,3.05z M11.05,4.2H11c-0.9-0.17-1.03-0.45-0.4-0.85
			C11.4,3.55,11.55,3.83,11.05,4.2z M7.45,4.3c0,0.03-0.02,0.05-0.05,0.05c-0.73-0.23-0.8-0.5-0.2-0.8h0.05
			C7.88,3.75,7.95,4,7.45,4.3z"/>
	</g>
	<g>
		<path fill-rule="evenodd" clip-rule="evenodd" fill="#FFFFFF" fill-opacity="0.298" d="M62,4c0-0.27-2.78-0.58-8.35-0.95
			c-5.83-0.33-12.85-0.5-21.05-0.5c-8.2,0-15.18,0.17-20.95,0.5C6.15,3.42,3.38,3.73,3.35,4c0.07,0.27,2.87,0.57,8.4,0.9
			C17.58,5.27,24.6,5.45,32.8,5.45c8.2,0,15.18-0.18,20.95-0.55C59.28,4.57,62.03,4.27,62,4z M53.6,2.25
			c6.07,0.4,9.12,0.98,9.15,1.75c0.03,0.73-2.95,1.3-8.95,1.7c-5.77,0.37-12.75,0.55-20.95,0.55c-8.2,0-15.23-0.18-21.1-0.55
			C5.68,5.3,2.65,4.73,2.65,4c-0.07-0.77,2.9-1.35,8.9-1.75c5.8-0.33,12.8-0.5,21-0.5C40.75,1.75,47.77,1.92,53.6,2.25z"/>
	</g>
</g>
</svg>
