<?xml version="1.0" encoding="utf-8"?>
<!-- Generator: Adobe Illustrator 16.0.0, SVG Export Plug-In . SVG Version: 6.00 Build 0)  -->
<!DOCTYPE svg PUBLIC "-//W3C//DTD SVG 1.1//EN" "http://www.w3.org/Graphics/SVG/1.1/DTD/svg11.dtd">
<svg version="1.1" id="Layer_1" xmlns="http://www.w3.org/2000/svg" xmlns:xlink="http://www.w3.org/1999/xlink" x="0px" y="0px"
	 width="21px" height="13px" viewBox="0 0 21 13" enable-background="new 0 0 21 13" xml:space="preserve">
<g>
	<g>
		<path fill-rule="evenodd" clip-rule="evenodd" fill-opacity="0.498" d="M12.8,3.9c0.5-0.3,1.1-0.4,1.6-0.4c0.5,0,0.9,0.3,1.2,0.6
			v0.1c0.3,0.4,0.3,0.8,0.2,1.3c-0.2,0.5-0.6,0.9-1.1,1.3l-5.8,3.7c-0.6,0.4-1.3,0.6-1.9,0.6c-0.7,0-1.3-0.2-1.6-0.7v-0.1
			C5,9.9,5,9.3,5.4,8.7C5.6,8.1,6,7.6,6.7,7.2L12.8,3.9z"/>
	</g>
	<g>
		<linearGradient id="SVGID_1_" gradientUnits="userSpaceOnUse" x1="9.3789" y1="4.4902" x2="11.4577" y2="7.7879">
			<stop  offset="0" style="stop-color:#F1EEE7"/>
			<stop  offset="0.4078" style="stop-color:#FFFFFF"/>
			<stop  offset="1" style="stop-color:#C3AF93"/>
		</linearGradient>
		<path fill-rule="evenodd" clip-rule="evenodd" fill="url(#SVGID_1_)" d="M13,2.1C13.5,2,14.1,2,14.7,2.4l0,0
			c0.5,0.3,0.8,0.7,1,1.3c0.2,0.6,0.1,1.2-0.2,1.7L9.6,9.3c-0.6,0.5-1.1,0.8-1.7,1c-0.6,0.2-1.2,0.1-1.7-0.2h0
			c-0.5-0.3-0.9-0.8-1-1.4C5.1,8,5.1,7.5,5.5,7l6-4C11.9,2.6,12.4,2.3,13,2.1z"/>
	</g>
</g>
</svg>
