<?xml version="1.0" encoding="utf-8"?>
<!-- Generator: Adobe Illustrator 16.0.0, SVG Export Plug-In . SVG Version: 6.00 Build 0)  -->
<!DOCTYPE svg PUBLIC "-//W3C//DTD SVG 1.1//EN" "http://www.w3.org/Graphics/SVG/1.1/DTD/svg11.dtd">
<svg version="1.1" id="Layer_1" xmlns="http://www.w3.org/2000/svg" xmlns:xlink="http://www.w3.org/1999/xlink" x="0px" y="0px"
	 width="21px" height="13px" viewBox="0 0 21 13" enable-background="new 0 0 21 13" xml:space="preserve">
<g>
	<g>
		<path fill-rule="evenodd" clip-rule="evenodd" fill-opacity="0.498" d="M4,5.8l12.9,2.7c1,0.3,1.2,0.8,0.8,1.3
			c-0.3,0.4-0.8,0.5-1.4,0.5L3.8,7C3.6,6.9,3.4,6.8,3.3,6.6C3.2,6.5,3.2,6.3,3.2,6.1c0-0.2,0.1-0.3,0.3-0.4C3.7,5.7,3.8,5.7,4,5.8z"
			/>
	</g>
	<g>
		<g>
			<linearGradient id="SVGID_1_" gradientUnits="userSpaceOnUse" x1="10.8779" y1="3.8691" x2="9.6795" y2="8.3196">
				<stop  offset="0" style="stop-color:#F1EEE7"/>
				<stop  offset="0.4078" style="stop-color:#FFFFFF"/>
				<stop  offset="1" style="stop-color:#C3AF93"/>
			</linearGradient>
			<path fill-rule="evenodd" clip-rule="evenodd" fill="url(#SVGID_1_)" d="M17.5,8.4c-0.3,0.5-0.7,0.9-1.3,1
				c-0.6,0.2-1.1,0.2-1.7,0L4,6.5C3.4,6.3,3,5.8,2.9,5.2C2.7,4.7,2.8,4.1,3,3.6V3.5C3.4,3,3.8,2.6,4.4,2.5c0.6-0.1,1.3-0.1,2,0.1
				l10.4,2.9c0.5,0.3,0.9,0.7,1,1.3C17.9,7.3,17.9,7.8,17.5,8.4L17.5,8.4z"/>
		</g>
	</g>
</g>
</svg>
