<?xml version="1.0" encoding="utf-8"?>
<!-- Generator: Adobe Illustrator 16.0.0, SVG Export Plug-In . SVG Version: 6.00 Build 0)  -->
<!DOCTYPE svg PUBLIC "-//W3C//DTD SVG 1.1//EN" "http://www.w3.org/Graphics/SVG/1.1/DTD/svg11.dtd">
<svg version="1.1" id="Layer_1" xmlns="http://www.w3.org/2000/svg" xmlns:xlink="http://www.w3.org/1999/xlink" x="0px" y="0px"
	 width="21px" height="13px" viewBox="0 0 21 13" enable-background="new 0 0 21 13" xml:space="preserve">
<g>
	<g>
		<path fill-rule="evenodd" clip-rule="evenodd" fill-opacity="0.498" d="M19.4,8.1c0,0.1-0.1,0.2-0.3,0.3c-0.2,0.1-0.4,0.2-0.6,0.2
			h-16C2.4,8.6,2.1,8.5,2,8.4C1.8,8.3,1.7,8.2,1.7,8.1C1.7,8,1.8,7.8,2,7.8c0.2-0.1,0.4-0.1,0.6-0.1h16c0.2,0,0.4,0,0.6,0.1
			C19.3,7.8,19.4,8,19.4,8.1z"/>
	</g>
	<g>
		<linearGradient id="SVGID_1_" gradientUnits="userSpaceOnUse" x1="10.4756" y1="4.1001" x2="10.4756" y2="8.1001">
			<stop  offset="0" style="stop-color:#F1EEE7"/>
			<stop  offset="0.4078" style="stop-color:#FFFFFF"/>
			<stop  offset="1" style="stop-color:#C3AF93"/>
		</linearGradient>
		<path fill-rule="evenodd" clip-rule="evenodd" fill="url(#SVGID_1_)" d="M19.3,4.4C19.7,4.8,20,5.4,20,6v0c0,0.6-0.2,1.1-0.7,1.5
			c-0.4,0.5-0.9,0.7-1.5,0.7H3.2C2.6,8.3,2.1,8,1.6,7.5C1.2,7.2,1,6.6,1,6v0c0-0.6,0.2-1.1,0.6-1.6c0.5-0.4,1-0.6,1.6-0.6h14.5
			C18.3,3.8,18.8,4,19.3,4.4z"/>
	</g>
</g>
</svg>
