<?xml version="1.0" encoding="utf-8"?>
<!-- Generator: Adobe Illustrator 16.0.0, SVG Export Plug-In . SVG Version: 6.00 Build 0)  -->
<!DOCTYPE svg PUBLIC "-//W3C//DTD SVG 1.1//EN" "http://www.w3.org/Graphics/SVG/1.1/DTD/svg11.dtd">
<svg version="1.1" id="Layer_1" xmlns="http://www.w3.org/2000/svg" xmlns:xlink="http://www.w3.org/1999/xlink" x="0px" y="0px"
	 width="21px" height="13px" viewBox="0 0 21 13" enable-background="new 0 0 21 13" xml:space="preserve">
<g>
	<g>
		<path fill-rule="evenodd" clip-rule="evenodd" fill-opacity="0.498" d="M12.7,9.4c0,0.6-0.2,1.2-0.7,1.6c-0.5,0.5-1.2,0.7-1.8,0.7
			h-0.1c-0.7,0-1.3-0.3-1.7-0.8c-0.5-0.4-0.7-1-0.6-1.6l0.6-5.6c0-0.5,0.3-1,0.8-1.3c0.4-0.3,0.9-0.5,1.6-0.5h0
			c0.6,0,1.1,0.2,1.5,0.5c0.4,0.4,0.7,0.9,0.7,1.4L12.7,9.4z"/>
	</g>
	<g>
		<linearGradient id="SVGID_1_" gradientUnits="userSpaceOnUse" x1="8.1499" y1="5.8066" x2="12.7504" y2="6.2007">
			<stop  offset="0" style="stop-color:#F1EEE7"/>
			<stop  offset="0.4078" style="stop-color:#FFFFFF"/>
			<stop  offset="1" style="stop-color:#C3AF93"/>
		</linearGradient>
		<path fill-rule="evenodd" clip-rule="evenodd" fill="url(#SVGID_1_)" d="M12.5,9.1c0,0.6-0.2,1.1-0.7,1.5c-0.5,0.4-1,0.6-1.6,0.6
			h0c-0.6,0-1.1-0.2-1.5-0.7C8.2,10.1,8,9.5,8,9l0.5-6.1c0-0.6,0.2-1.1,0.7-1.5c0.4-0.4,0.9-0.6,1.6-0.6h0c0.6,0,1.1,0.3,1.5,0.7
			c0.4,0.5,0.6,1,0.5,1.6L12.5,9.1z"/>
	</g>
</g>
</svg>
