<?xml version="1.0" encoding="utf-8"?>
<!-- Generator: Adobe Illustrator 16.0.0, SVG Export Plug-In . SVG Version: 6.00 Build 0)  -->
<!DOCTYPE svg PUBLIC "-//W3C//DTD SVG 1.1//EN" "http://www.w3.org/Graphics/SVG/1.1/DTD/svg11.dtd">
<svg version="1.1" id="Layer_1" xmlns="http://www.w3.org/2000/svg" xmlns:xlink="http://www.w3.org/1999/xlink" x="0px" y="0px"
	 width="25px" height="38px" viewBox="0 0 25 38" enable-background="new 0 0 25 38" xml:space="preserve">
<g>
	
		<radialGradient id="SVGID_1_" cx="-12.8501" cy="-6.6001" r="2.875" gradientTransform="matrix(-1 0 0 1.4 0 15.8402)" gradientUnits="userSpaceOnUse">
		<stop  offset="0.2039" style="stop-color:#FFFFFF;stop-opacity:0.6902"/>
		<stop  offset="0.5412" style="stop-color:#EAEAEA;stop-opacity:0"/>
		<stop  offset="1" style="stop-color:#CCCCCC"/>
	</radialGradient>
	<path fill-rule="evenodd" clip-rule="evenodd" fill="url(#SVGID_1_)" d="M13.75,9.65L13.8,8.8c-0.53-0.5-1.1-0.58-1.7-0.25
		L11.95,9.1c-0.3-0.43-0.45-0.97-0.45-1.6s0.15-1.17,0.45-1.6c0.17-0.23,0.35-0.4,0.55-0.5s0.42-0.15,0.65-0.15
		c0.3,0,0.57,0.1,0.8,0.3c0.03,0.03,0.07,0.08,0.1,0.15c0.1,0.03,0.17,0.1,0.2,0.2c0.33,0.43,0.5,0.97,0.5,1.6s-0.17,1.18-0.5,1.65
		C14.12,9.35,13.95,9.52,13.75,9.65z"/>
	
		<linearGradient id="SVGID_2_" gradientUnits="userSpaceOnUse" x1="12.7031" y1="8.2813" x2="15.5745" y2="8.2813" gradientTransform="matrix(0.9925 0.1219 -0.1701 0.9866 -1.968741e-004 4.802048e-004)">
		<stop  offset="0" style="stop-color:#FFFFFF"/>
		<stop  offset="0.4392" style="stop-color:#FFFFFF;stop-opacity:0"/>
		<stop  offset="1" style="stop-color:#FFFFFF"/>
	</linearGradient>
	<path fill-rule="evenodd" clip-rule="evenodd" fill="url(#SVGID_2_)" d="M13.6,11.3c-0.83-0.03-1.62-0.03-2.35,0l0.7-2.2l0.15-0.55
		c0.6-0.33,1.17-0.25,1.7,0.25l-0.05,0.85L13.6,11.3z"/>
	
		<linearGradient id="SVGID_3_" gradientUnits="userSpaceOnUse" x1="-16.7593" y1="12.1396" x2="-9.1342" y2="12.1396" gradientTransform="matrix(4.464153e-003 -1 1 4.464153e-003 3.718883e-004 -1.652539e-005)">
		<stop  offset="0.3922" style="stop-color:#FDFCFC;stop-opacity:0.349"/>
		<stop  offset="1" style="stop-color:#FFFFFF"/>
	</linearGradient>
	<path fill-rule="evenodd" clip-rule="evenodd" fill="url(#SVGID_3_)" d="M15.1,16.85H7.95L8.7,11.3c0.7,0,1.55,0,2.55,0
		c0.73-0.03,1.52-0.03,2.35,0c0.5,0,1,0,1.5,0c0.1,0.1,0.27,0.22,0.5,0.35c0.2,0.13,0.4,0.3,0.6,0.5l-0.75-0.55
		C15.25,13.3,15.13,15.05,15.1,16.85z"/>
	
		<radialGradient id="SVGID_4_" cx="-21.4897" cy="-16.7129" r="5.75" gradientTransform="matrix(-1 6.070255e-004 3.260785e-003 5.3717 0.065 106.4899)" gradientUnits="userSpaceOnUse">
		<stop  offset="0" style="stop-color:#FFFFFF;stop-opacity:0.498"/>
		<stop  offset="0.1098" style="stop-color:#FFFFFF;stop-opacity:0"/>
		<stop  offset="0.2588" style="stop-color:#FFFFFF;stop-opacity:0.7059"/>
		<stop  offset="0.5098" style="stop-color:#FFFFFF;stop-opacity:0"/>
		<stop  offset="0.851" style="stop-color:#CCCCCC;stop-opacity:0.1255"/>
		<stop  offset="1" style="stop-color:#FFFFFF;stop-opacity:0.5373"/>
	</radialGradient>
	<path fill-rule="evenodd" clip-rule="evenodd" fill="url(#SVGID_4_)" d="M18,22.8c-0.37-3.77-0.32-7.37,0.15-10.8
		c0.17-1.23,0.33-2.23,0.5-3c0.23-0.2,0.47-0.35,0.7-0.45v3.5H19.3c-0.03,0-0.07,0.03-0.1,0.1c-0.03,0.07-0.03,0.12,0,0.15v0.05
		c0,0.03,0,0.07,0,0.1c-0.47,3.93-0.48,7.52-0.05,10.75c0.03,0.03,0.07,0.08,0.1,0.15h0.05v4.45c-0.53-0.2-0.85-0.67-0.95-1.4
		C18.15,25.17,18.03,23.97,18,22.8z"/>
	
		<radialGradient id="SVGID_5_" cx="-17.4385" cy="-16.7119" r="3.1625" gradientTransform="matrix(-1 6.867870e-004 1.976211e-003 2.8775 0.0444 64.7997)" gradientUnits="userSpaceOnUse">
		<stop  offset="0.3922" style="stop-color:#E1DFD2;stop-opacity:0.4824"/>
		<stop  offset="1" style="stop-color:#FFFFFF"/>
	</radialGradient>
	<path fill-rule="evenodd" clip-rule="evenodd" fill="url(#SVGID_5_)" d="M18.15,12c-0.47,3.43-0.52,7.03-0.15,10.8
		c-0.57-0.4-1.1-0.42-1.6-0.05c0,0.03-0.02,0.05-0.05,0.05c-0.17,0.3-0.4,0.73-0.7,1.3L15.1,17c0-0.07,0-0.12,0-0.15
		c0.03-1.8,0.15-3.55,0.35-5.25l0.75,0.55c0.07,0.03,0.13,0.07,0.2,0.1C17.07,12.62,17.65,12.53,18.15,12z"/>
	
		<radialGradient id="SVGID_6_" cx="-19.3301" cy="-17.8716" r="4.0375" gradientTransform="matrix(-1 1.106189e-003 1.547984e-003 1.3994 0.0477 42.8806)" gradientUnits="userSpaceOnUse">
		<stop  offset="0" style="stop-color:#FFFFFF"/>
		<stop  offset="1" style="stop-color:#FFFFFF;stop-opacity:0"/>
	</radialGradient>
	<path fill-rule="evenodd" clip-rule="evenodd" fill="url(#SVGID_6_)" d="M19.3,23.35h-0.05c-0.03-0.07-0.07-0.12-0.1-0.15
		c-0.43-3.23-0.42-6.82,0.05-10.75c0-0.03,0-0.07,0-0.1V12.3c-0.03-0.03-0.03-0.08,0-0.15c0.03-0.07,0.07-0.1,0.1-0.1h0.05
		l0.05,0.05c0.03,0,0.05,0.03,0.05,0.1c0.03,0.07,0.05,0.13,0.05,0.2c0,0.03,0,0.07,0,0.1c-0.07,0.47-0.12,0.93-0.15,1.4
		c-0.27,2.9-0.28,5.6-0.05,8.1c0.07,0.37,0.12,0.73,0.15,1.1c0.03,0.07,0.03,0.12,0,0.15c-0.03,0.07-0.07,0.1-0.1,0.1H19.3z"/>
	
		<linearGradient id="SVGID_7_" gradientUnits="userSpaceOnUse" x1="14.9424" y1="-11.6987" x2="24.4675" y2="-11.6987" gradientTransform="matrix(4.928790e-003 1 -1 4.928790e-003 3.621336e-004 -1.022518e-004)">
		<stop  offset="0.3922" style="stop-color:#FFFFFF;stop-opacity:0.6902"/>
		<stop  offset="1" style="stop-color:#CCCCCC"/>
	</linearGradient>
	<path fill-rule="evenodd" clip-rule="evenodd" fill="url(#SVGID_7_)" d="M7.95,16.85h7.15c0,0.03,0,0.08,0,0.15l0.55,7.1H12.1
		l0.6-3.05c-0.93-1.3-1.88-1.38-2.85-0.25L9.8,24.1H8.75c-0.03-0.07-0.12-0.18-0.25-0.35L7.95,16.85z"/>
	
		<linearGradient id="SVGID_8_" gradientUnits="userSpaceOnUse" x1="12.0879" y1="20.748" x2="14.9536" y2="20.748" gradientTransform="matrix(0.9862 0.1658 -0.1041 0.9965 -1.769960e-004 -2.259016e-004)">
		<stop  offset="0" style="stop-color:#FFFFFF"/>
		<stop  offset="0.4392" style="stop-color:#FFFFFF;stop-opacity:0"/>
		<stop  offset="1" style="stop-color:#FFFFFF"/>
	</linearGradient>
	<path fill-rule="evenodd" clip-rule="evenodd" fill="url(#SVGID_8_)" d="M11.8,25.9v0.05c-0.03-0.07-0.08-0.12-0.15-0.15
		c-0.3-0.27-0.65-0.4-1.05-0.4h-0.1c-0.23,0-0.45,0.03-0.65,0.1c-0.02,0-0.04,0.01-0.05,0.03V24.1l0.05-3.3
		c0.97-1.13,1.92-1.05,2.85,0.25l-0.6,3.05L11.8,25.9z"/>
	
		<radialGradient id="SVGID_9_" cx="-9.9692" cy="-27.1113" r="3.9125" gradientTransform="matrix(-1 1.141620e-003 1.597542e-003 1.3994 0.074 65.0495)" gradientUnits="userSpaceOnUse">
		<stop  offset="0.2039" style="stop-color:#FFFFFF;stop-opacity:0.6902"/>
		<stop  offset="0.5412" style="stop-color:#EAEAEA;stop-opacity:0"/>
		<stop  offset="1" style="stop-color:#CCCCCC"/>
	</radialGradient>
	<path fill-rule="evenodd" clip-rule="evenodd" fill="url(#SVGID_9_)" d="M9.8,25.53c0.01-0.02,0.03-0.03,0.05-0.03
		c0.2-0.07,0.42-0.1,0.65-0.1h0.1c0.4,0,0.75,0.13,1.05,0.4c0.07,0.03,0.12,0.08,0.15,0.15V25.9c0.1,0.1,0.18,0.2,0.25,0.3
		c0.4,0.53,0.6,1.22,0.6,2.05c0,0.8-0.2,1.47-0.6,2c-0.4,0.57-0.9,0.85-1.5,0.85c-0.57,0-1.05-0.28-1.45-0.85
		c-0.4-0.53-0.6-1.2-0.6-2c0-0.83,0.2-1.52,0.6-2.05c0.2-0.3,0.42-0.52,0.65-0.65L9.8,25.53z"/>
</g>
</svg>
