<?xml version="1.0" encoding="utf-8"?>
<!-- Generator: Adobe Illustrator 16.0.0, SVG Export Plug-In . SVG Version: 6.00 Build 0)  -->
<!DOCTYPE svg PUBLIC "-//W3C//DTD SVG 1.1//EN" "http://www.w3.org/Graphics/SVG/1.1/DTD/svg11.dtd">
<svg version="1.1" id="Layer_2" xmlns="http://www.w3.org/2000/svg" xmlns:xlink="http://www.w3.org/1999/xlink" x="0px" y="0px"
	 width="399px" height="190.5px" viewBox="0 0 399 190.5" enable-background="new 0 0 399 190.5" xml:space="preserve">
<symbol  id="button2_x5F_cd" viewBox="-19.9 -39 51.3 54.7">
	<g id="Layer_12_1_">
	</g>
	<g id="Layer_14_1_">
	</g>
	<g id="Layer_9_1_">
	</g>
	<g id="Layer_8_1_">
	</g>
	<g id="Layer_1_3_">
	</g>
	<g id="Layer_7_1_">
	</g>
	<g id="Layer_6_1_">
	</g>
	<g id="Layer_5_1_">
	</g>
	<g id="glace_x5F_cc_5_">
	</g>
	<g id="glace_x5F_cc_4_">
	</g>
	<g id="glace_x5F_cc_3_">
		<g>
			<g>
				<radialGradient id="SVGID_1_" cx="3.2002" cy="-6.2998" r="26.975" gradientUnits="userSpaceOnUse">
					<stop  offset="0" style="stop-color:#040404;stop-opacity:0.6118"/>
					<stop  offset="0.5961" style="stop-color:#020202;stop-opacity:0.1608"/>
					<stop  offset="1" style="stop-color:#000000;stop-opacity:0"/>
				</radialGradient>
				<path fill-rule="evenodd" clip-rule="evenodd" fill="url(#SVGID_1_)" d="M-2.5-39c-15.6,28.1-18.9,37.4-9.7,27.9L15.7,4
					c5.7-3.3,11-11.5,15.8-24.5L-2.5-39z"/>
			</g>
			<g>
				
					<radialGradient id="SVGID_2_" cx="10727.3799" cy="-18554.5859" r="6.3506" gradientTransform="matrix(-0.8659 -0.5001 -0.2774 0.4803 4126.915 14270.7734)" gradientUnits="userSpaceOnUse">
					<stop  offset="0" style="stop-color:#333333"/>
					<stop  offset="0.6196" style="stop-color:#363838"/>
					<stop  offset="1" style="stop-color:#9C9FA1"/>
				</radialGradient>
				<path fill-rule="evenodd" clip-rule="evenodd" fill="url(#SVGID_2_)" d="M-13.2-3.5l-5.9-3.1C-20-8-19.5-9-17.9-9.4l6.3,1.8
					c0.1-0.1,0.1-0.2,0.2-0.3l-6.8-1.8c-1.6,0.5-2.1,1.6-1.3,3.2l6.3,3.4C-13.3-3.2-13.2-3.3-13.2-3.5z"/>
				
					<radialGradient id="SVGID_3_" cx="10714.8164" cy="-18559.207" r="5.8855" gradientTransform="matrix(-0.8654 -0.5011 -0.2771 0.4785 4114.0527 14245.0508)" gradientUnits="userSpaceOnUse">
					<stop  offset="0" style="stop-color:#EAEAEA"/>
					<stop  offset="0.6196" style="stop-color:#9C9FA1"/>
					<stop  offset="1" style="stop-color:#9C9FA1"/>
				</radialGradient>
				<path fill-rule="evenodd" clip-rule="evenodd" fill="url(#SVGID_3_)" d="M-13.2-3.5c0.3-1.5,0.9-2.9,1.6-4.2l-6.3-1.8
					C-19.5-9-20-8-19.1-6.6L-13.2-3.5z"/>
			</g>
			<g>
				<path fill-rule="evenodd" clip-rule="evenodd" d="M0,15.8c4.5,0,8.3-1.6,11.5-4.8c3.2-3.2,4.8-7,4.8-11.5S14.7-8.8,11.5-12
					c-3.2-3.2-7-4.8-11.5-4.8s-8.3,1.6-11.5,4.8c-3.2,3.2-4.8,7-4.8,11.5s1.6,8.3,4.8,11.5C-8.3,14.2-4.5,15.8,0,15.8z"/>
			</g>
			<g>
				
					<linearGradient id="SVGID_4_" gradientUnits="userSpaceOnUse" x1="7842.978" y1="-18933.2773" x2="7867.5679" y2="-18933.2773" gradientTransform="matrix(-0.7078 -0.7064 0.7064 -0.7078 18931.5508 -7850.5874)">
					<stop  offset="0" style="stop-color:#040404"/>
					<stop  offset="0.2549" style="stop-color:#040404"/>
					<stop  offset="0.349" style="stop-color:#737373"/>
					<stop  offset="0.4902" style="stop-color:#030303"/>
					<stop  offset="1" style="stop-color:#000000"/>
				</linearGradient>
				<path fill-rule="evenodd" clip-rule="evenodd" fill="url(#SVGID_4_)" d="M13-1C3.8-4.3-5.3-2-14.5,5.8c0.7,1.7,1.8,3.3,3.3,4.6
					c2.7,2.8,6.1,4.2,10,4.2c3.9,0,7.3-1.4,10.1-4.2c2.8-2.8,4.1-6.1,4.1-10C13-0.1,13-0.6,13-1z"/>
				<path fill-rule="evenodd" clip-rule="evenodd" d="M13-1c-0.3-3.4-1.6-6.3-4.1-8.8C6-12.5,2.6-13.9-1.3-13.9
					c-3.9,0-7.3,1.4-10,4.1c-2.8,2.8-4.3,6.2-4.3,10.1c0,1.9,0.3,3.7,1,5.4C-5.3-2,3.8-4.3,13-1z"/>
			</g>
			<g>
				
					<radialGradient id="SVGID_5_" cx="12.3501" cy="4.6499" r="5.8889" gradientTransform="matrix(0.9272 0.3745 -0.2075 0.5139 1.8633 -2.3643)" gradientUnits="userSpaceOnUse">
					<stop  offset="0" style="stop-color:#777777"/>
					<stop  offset="0.3686" style="stop-color:#20282D"/>
					<stop  offset="0.6196" style="stop-color:#192B39"/>
					<stop  offset="1" style="stop-color:#000000"/>
				</radialGradient>
				<path fill-rule="evenodd" clip-rule="evenodd" fill="url(#SVGID_5_)" d="M11.3,0.1c0,1.8-0.7,3.4-1.9,4.8L16.8,7
					C18,6.4,18.4,5.4,18,4L11.3,0.1z"/>
			</g>
			<g>
				<path fill-rule="evenodd" clip-rule="evenodd" d="M1,10.9c2.8,0,5.2-1,7.3-3c2-2,3-4.5,3-7.3c0-2.8-1-5.2-3-7.2
					c-2-2-4.5-3-7.3-3s-5.2,1-7.2,3c-2,2-3,4.4-3,7.2c0,2.8,1,5.2,3,7.3C-4.2,9.9-1.8,10.9,1,10.9z"/>
			</g>
			<g>
				
					<linearGradient id="SVGID_6_" gradientUnits="userSpaceOnUse" x1="15680.6895" y1="-0.8442" x2="15699.9893" y2="-0.8442" gradientTransform="matrix(5.181347e-005 1 -1 -1.000000e-003 0.5928 -15690.8408)">
					<stop  offset="0" style="stop-color:#393140"/>
					<stop  offset="0.502" style="stop-color:#121518"/>
					<stop  offset="1" style="stop-color:#2F4751"/>
				</linearGradient>
				<path fill-rule="evenodd" clip-rule="evenodd" fill="url(#SVGID_6_)" d="M2.3,9.1c2.6,0,4.9-0.9,6.8-2.8
					c1.9-1.9,2.9-4.2,2.9-6.9c0-2.6-0.9-4.9-2.9-6.8c-1.9-1.9-4.2-2.9-6.8-2.9s-4.9,1-6.8,2.9c-1.9,1.9-2.9,4.1-2.9,6.8
					c0,2.7,0.9,5,2.9,6.9C-2.6,8.2-0.4,9.1,2.3,9.1z"/>
			</g>
			<g>
				
					<linearGradient id="SVGID_7_" gradientUnits="userSpaceOnUse" x1="11967.6172" y1="-18134.3984" x2="11973.6543" y2="-18134.3984" gradientTransform="matrix(-0.9196 -0.393 0.393 -0.9196 18134.3145 -11969.7383)">
					<stop  offset="0" style="stop-color:#1D1D1D"/>
					<stop  offset="0.3647" style="stop-color:#131313"/>
					<stop  offset="0.4549" style="stop-color:#666666"/>
					<stop  offset="0.5843" style="stop-color:#0D0D0D"/>
					<stop  offset="1" style="stop-color:#000000"/>
				</linearGradient>
				<path fill-rule="evenodd" clip-rule="evenodd" fill="url(#SVGID_7_)" d="M3.1-0.5L3.1-0.5l-0.2,0v-0.3l-5.6,4
					C-2.5,3.5-2.3,3.8-2,4c1.3,1.3,2.9,2,4.8,2c0.2,0,0.4,0,0.6,0L3.1-0.5z"/>
				<path fill-rule="evenodd" clip-rule="evenodd" fill="#0E0300" d="M9.4,0.1C9.5-1,8.8-3,7.1-5.8C5.9-6.9,4.4-7.5,2.7-7.5
					c-1.8,0-3.4,0.7-4.8,2c-1.3,1.3-2,2.9-2,4.8c0,1.1,0.2,2.1,0.7,3C-3.2,2.6-3,3-2.8,3.3l5.6-4v0.3h0.2v0C5.2,0,7.3,0.3,9.4,0.4
					c0,0,0-0.1,0-0.1V0.1z"/>
				
					<linearGradient id="SVGID_8_" gradientUnits="userSpaceOnUse" x1="18567.7793" y1="-10645.3145" x2="18572.8086" y2="-10645.3145" gradientTransform="matrix(-0.8628 0.5055 -0.5055 -0.8628 10644.627 -18570.5625)">
					<stop  offset="0" style="stop-color:#000000"/>
					<stop  offset="0.1451" style="stop-color:#464646"/>
					<stop  offset="0.2667" style="stop-color:#AAAAAA"/>
					<stop  offset="0.5059" style="stop-color:#656565"/>
					<stop  offset="0.7059" style="stop-color:#191919"/>
					<stop  offset="1" style="stop-color:#000000"/>
				</linearGradient>
				<path fill-rule="evenodd" clip-rule="evenodd" fill="url(#SVGID_8_)" d="M9.4,0.4C7.3,0.3,5.2,0,3.1-0.5L3.3,6
					c1.1-0.1,2-0.4,2.9-1c0.5-0.3,0.9-0.6,1.3-1c0.8-0.9,1.4-1.8,1.7-2.9C9.3,1,9.3,0.8,9.4,0.5C9.4,0.5,9.4,0.4,9.4,0.4z M9.4,0.1
					c0-0.3,0.1-0.5,0.1-0.9c0-0.7-0.1-1.4-0.3-2c-0.3-1-0.9-1.9-1.6-2.8C7.4-5.6,7.3-5.7,7.1-5.8C8.8-3,9.5-1,9.4,0.1z"/>
			</g>
			<g>
				<path fill-rule="evenodd" clip-rule="evenodd" d="M19.4,11.8v-0.9h1.1v0.9h0.3V9.6h-0.3v1h-1.1v-1h-0.3v2.1H19.4z M18.5,11.1
					c-0.1,0.2-0.1,0.3-0.3,0.4c-0.1,0.1-0.2,0.1-0.4,0.1c-0.2,0-0.3,0-0.4-0.1c-0.1-0.1-0.2-0.2-0.3-0.3c0-0.1,0-0.3,0-0.4
					c0-0.2,0-0.4,0-0.5c0.1-0.1,0.1-0.2,0.3-0.3c0.1-0.1,0.3-0.1,0.4-0.1s0.3,0.1,0.4,0.2c0.1,0.1,0.2,0.2,0.2,0.4l0.3-0.1
					c-0.1-0.2-0.2-0.4-0.3-0.5c-0.2-0.1-0.4-0.2-0.6-0.2s-0.4,0.1-0.5,0.2c-0.1,0.1-0.3,0.2-0.4,0.4c-0.1,0.2-0.1,0.4-0.1,0.6
					c0,0.2,0.1,0.4,0.1,0.5c0.1,0.2,0.2,0.3,0.4,0.4c0.2,0.1,0.3,0.1,0.5,0.1c0.2,0,0.4-0.1,0.6-0.2c0.1-0.1,0.2-0.3,0.3-0.5
					L18.5,11.1z M13.6,10.3c-0.1,0.1-0.1,0.2-0.1,0.4c0,0.2,0,0.3,0.1,0.4c0.1,0.1,0.2,0.2,0.4,0.2c0.2,0,0.3-0.1,0.4-0.2
					c0.1-0.1,0.1-0.2,0.1-0.4c0-0.2-0.1-0.3-0.1-0.4c-0.1-0.1-0.2-0.1-0.4-0.1C13.9,10.1,13.8,10.1,13.6,10.3z M18.1,0.7
					c0.1-0.1,0.1-0.2,0.1-0.4c0-0.2,0-0.3-0.1-0.4s-0.2-0.1-0.4-0.1c-0.2,0-0.3,0-0.4,0.1c-0.1,0.1-0.1,0.2-0.1,0.4
					c0,0.2,0.1,0.3,0.1,0.4c0.1,0.1,0.2,0.1,0.4,0.1C17.9,0.9,18,0.8,18.1,0.7z M27.1,11.8l-0.9-0.9l1-1.3h-0.4L26,10.7l-0.3-0.4
					V9.6h-0.3v2.1h0.3v-1l1,1H27.1z M24.5,11.5c-0.1,0.1-0.2,0.1-0.3,0.1c-0.2,0-0.3,0-0.4-0.1c-0.1-0.1-0.2-0.2-0.3-0.3
					c0-0.1,0-0.3,0-0.4c0-0.2,0-0.4,0-0.5c0.1-0.1,0.2-0.2,0.3-0.3c0.1-0.1,0.3-0.1,0.4-0.1s0.3,0.1,0.4,0.2
					c0.1,0.1,0.2,0.2,0.2,0.4l0.3-0.1c-0.1-0.2-0.2-0.4-0.3-0.5c-0.2-0.1-0.4-0.2-0.6-0.2c-0.2,0-0.4,0.1-0.6,0.2
					c-0.1,0.1-0.3,0.2-0.4,0.4c-0.1,0.2-0.1,0.4-0.1,0.6c0,0.2,0,0.4,0.1,0.5c0.1,0.2,0.2,0.3,0.4,0.4c0.2,0.1,0.3,0.1,0.5,0.1
					c0.2,0,0.4-0.1,0.5-0.2c0.1-0.1,0.2-0.3,0.3-0.5l-0.3,0C24.7,11.3,24.6,11.4,24.5,11.5z M22.9,11.5h-1.3v-0.6h1.2v-0.3h-1.2V9.9
					h1.4V9.6h-1.6v2.1h1.6V11.5z M21,0.9C21.2,1,21.4,1,21.5,1C21.8,1,22,1,22.1,0.9c0.1-0.1,0.2-0.3,0.3-0.5l-0.3,0
					c-0.1,0.2-0.1,0.3-0.3,0.4c-0.1,0.1-0.2,0.1-0.4,0.1c-0.2,0-0.3,0-0.4-0.1C21,0.6,21,0.5,20.9,0.4c0-0.1,0-0.3,0-0.4
					c0-0.2,0-0.4,0-0.5C21-0.7,21-0.8,21.1-0.9C21.3-0.9,21.4-1,21.5-1s0.3,0.1,0.4,0.2c0.1,0.1,0.2,0.2,0.2,0.4l0.3-0.1
					c-0.1-0.2-0.2-0.4-0.3-0.5c-0.2-0.1-0.4-0.2-0.6-0.2c-0.2,0-0.4,0.1-0.5,0.2c-0.1,0.1-0.3,0.2-0.4,0.4c-0.1,0.2-0.1,0.4-0.1,0.6
					c0,0.2,0.1,0.4,0.2,0.5C20.8,0.7,20.9,0.8,21,0.9z M23.7,0.8c-0.2,0-0.4-0.1-0.5-0.2S23,0.2,23-0.1c0-0.3,0.1-0.5,0.2-0.6
					C23.3-0.9,23.5-1,23.7-1c0.2,0,0.4,0.1,0.5,0.3c0.1,0.1,0.2,0.3,0.2,0.6c0,0.2,0,0.4-0.1,0.5c0,0.1-0.1,0.2-0.3,0.3
					C24,0.8,23.9,0.8,23.7,0.8z M24.6,0.5c0.1-0.2,0.1-0.4,0.1-0.6c0-0.2,0-0.4-0.1-0.5C24.5-0.8,24.4-1,24.3-1
					c-0.2-0.1-0.4-0.2-0.5-0.2c-0.2,0-0.4,0.1-0.5,0.2C23-1,22.9-0.8,22.8-0.6c-0.1,0.2-0.1,0.4-0.1,0.5c0,0.4,0.1,0.6,0.3,0.9
					C23.2,1,23.4,1,23.7,1c0.2,0,0.4,0,0.5-0.1S24.5,0.7,24.6,0.5z M28,0.8h-0.5v-1.6H28c0.2,0,0.3,0,0.4,0c0.1,0,0.2,0.1,0.2,0.1
					c0.1,0.1,0.1,0.2,0.2,0.3c0,0.1,0,0.2,0,0.4c0,0.2,0,0.4-0.1,0.5c-0.1,0.1-0.1,0.2-0.3,0.3C28.3,0.7,28.2,0.8,28,0.8z M28,1
					c0.2,0,0.3,0,0.4,0c0.1,0,0.2-0.1,0.3-0.2c0.1-0.1,0.2-0.2,0.3-0.3C29,0.3,29,0.1,29,0c0-0.2,0-0.3,0-0.5s-0.1-0.2-0.1-0.3
					C28.8-0.9,28.7-1,28.6-1c-0.1-0.1-0.1-0.1-0.3-0.1c-0.1,0-0.2,0-0.4,0h-0.8V1H28z M26.8,1v-2.1h-0.3l-1.1,1.7v-1.7h-0.3V1h0.3
					l1.1-1.7V1H26.8z M23-9.3h-1.3v-0.6h1.2v-0.3h-1.2v-0.8H23v-0.3h-1.6V-9H23V-9.3z M23.7-9v-1.9h1v-0.3h-1.4V-9H23.7z M20.8-9.6
					c-0.1,0.2-0.1,0.3-0.3,0.4c-0.1,0.1-0.2,0.1-0.3,0.1c-0.2,0-0.3,0-0.4-0.1c-0.1-0.1-0.2-0.2-0.3-0.3c0-0.1,0-0.3,0-0.4
					c0-0.2,0-0.4,0-0.5c0.1-0.1,0.2-0.2,0.3-0.3c0.1-0.1,0.3-0.1,0.4-0.1s0.3,0.1,0.4,0.2c0.1,0.1,0.2,0.2,0.2,0.4l0.3-0.1
					c-0.1-0.2-0.2-0.4-0.3-0.5c-0.2-0.1-0.4-0.2-0.6-0.2c-0.2,0-0.4,0.1-0.6,0.2c-0.1,0.1-0.3,0.2-0.4,0.4c-0.1,0.2-0.1,0.4-0.1,0.6
					c0,0.2,0,0.4,0.1,0.5c0.1,0.2,0.2,0.3,0.4,0.4C19.9-9,20-9,20.2-9c0.2,0,0.4-0.1,0.5-0.2C20.9-9.3,21-9.4,21-9.6L20.8-9.6z
					 M25-9h0.3v-1.9h1v-0.3H25V-9z M28.4-13.3h-0.7v-1.9h-0.3v1.9h-0.8v0.3h1.7V-13.3z M26.3-13.3c0.1-0.1,0.1-0.2,0.2-0.4l-0.3,0
					c0,0.2,0,0.3-0.1,0.4c-0.1,0.1-0.2,0.1-0.4,0.1c-0.2,0-0.3,0-0.4-0.1c-0.1-0.1-0.1-0.2-0.1-0.3c0-0.1,0-0.1,0.1-0.2
					c0.1,0,0.2-0.1,0.4-0.1c0.2,0,0.4-0.1,0.5-0.1c0.1-0.1,0.2-0.1,0.3-0.3c0.1-0.1,0.1-0.2,0.1-0.3c0-0.1,0-0.2-0.1-0.3
					c-0.1-0.1-0.2-0.2-0.3-0.3c-0.1-0.1-0.2-0.1-0.4-0.1c-0.2,0-0.4,0-0.5,0.1C25.1-15,25-15,24.9-14.9c-0.1,0.1-0.1,0.2-0.1,0.4H25
					c0-0.1,0-0.2,0.1-0.3c0-0.1,0.1-0.1,0.2-0.1c0.1-0.1,0.2-0.1,0.4-0.1c0.1,0,0.2,0,0.3,0.1c0.1,0,0.2,0.1,0.2,0.1
					s0.1,0.1,0.1,0.2c0,0.1,0,0.1-0.1,0.1c0,0.1-0.1,0.1-0.2,0.1c0,0-0.2,0-0.4,0.1c-0.2,0-0.4,0.1-0.5,0.1C25-14,25-13.9,25-13.9
					c-0.1,0.1-0.1,0.2-0.1,0.3c0,0.1,0,0.2,0.1,0.3c0.1,0.1,0.2,0.2,0.3,0.2c0.1,0.1,0.2,0.1,0.4,0.1c0.2,0,0.3,0,0.4-0.1
					C26.2-13.1,26.3-13.1,26.3-13.3z M24.4-13v-2.1h-0.3L23-13.5v-1.7h-0.3v2.1H23l1.1-1.7v1.7H24.4z M22.2-13.5
					c0.1-0.2,0.1-0.4,0.1-0.6c0-0.2-0.1-0.4-0.1-0.5C22.1-14.8,22-15,21.9-15c-0.2-0.1-0.4-0.2-0.6-0.2c-0.2,0-0.4,0.1-0.5,0.2
					c-0.2,0.1-0.3,0.2-0.4,0.4c-0.1,0.2-0.1,0.4-0.1,0.5c0,0.4,0.1,0.6,0.3,0.9C20.8-13,21-13,21.3-13c0.2,0,0.4,0,0.6-0.1
					C22-13.2,22.1-13.3,22.2-13.5z M21.7-13.3c-0.1,0.1-0.2,0.1-0.4,0.1c-0.2,0-0.4-0.1-0.5-0.2s-0.2-0.4-0.2-0.7
					c0-0.3,0.1-0.5,0.2-0.6c0.1-0.2,0.3-0.3,0.5-0.3c0.2,0,0.4,0.1,0.6,0.3c0.1,0.1,0.2,0.3,0.2,0.6c0,0.2,0,0.4-0.1,0.5
					C21.9-13.5,21.8-13.4,21.7-13.3z M15.9-10.5c0,0.2,0.1,0.3,0.1,0.4c0.1,0.1,0.2,0.1,0.4,0.1c0.2,0,0.3,0,0.4-0.1
					s0.1-0.2,0.1-0.4c0-0.2,0-0.3-0.1-0.4c-0.1-0.1-0.2-0.1-0.4-0.1c-0.2,0-0.3,0.1-0.4,0.1C16-10.9,15.9-10.7,15.9-10.5z
					 M19.7-13.1c0.1-0.1,0.2-0.3,0.3-0.5l-0.3,0c-0.1,0.2-0.1,0.3-0.3,0.4c-0.1,0.1-0.2,0.1-0.4,0.1c-0.2,0-0.3,0-0.4-0.1
					c-0.1-0.1-0.2-0.2-0.3-0.3c0-0.1,0-0.3,0-0.4c0-0.2,0-0.4,0-0.5c0.1-0.1,0.1-0.2,0.3-0.3c0.1-0.1,0.3-0.1,0.4-0.1
					s0.3,0.1,0.4,0.2c0.1,0.1,0.2,0.2,0.2,0.4l0.3-0.1c-0.1-0.2-0.2-0.4-0.3-0.5c-0.2-0.1-0.4-0.2-0.6-0.2s-0.4,0.1-0.5,0.2
					c-0.1,0.1-0.3,0.2-0.4,0.4c-0.1,0.2-0.1,0.4-0.1,0.6c0,0.2,0.1,0.4,0.1,0.5c0.1,0.2,0.2,0.3,0.4,0.4C18.8-13,19-13,19.1-13
					C19.4-13,19.6-13,19.7-13.1z"/>
			</g>
			<g>
				
					<radialGradient id="SVGID_9_" cx="6693.0146" cy="86.0396" r="3.0377" gradientTransform="matrix(0.9999 1.234474e-002 -0.2387 0.2798 -6670.2197 -116.8491)" gradientUnits="userSpaceOnUse">
					<stop  offset="0" style="stop-color:#FFFFFF;stop-opacity:0.8314"/>
					<stop  offset="0.1294" style="stop-color:#FEFEFE;stop-opacity:0.6196"/>
					<stop  offset="0.5765" style="stop-color:#F9F9F9;stop-opacity:4.705882e-002"/>
					<stop  offset="1" style="stop-color:#F6F6F6;stop-opacity:0"/>
				</radialGradient>
				<path fill-rule="evenodd" clip-rule="evenodd" fill="url(#SVGID_9_)" d="M5.3-10c0.3-0.3,0.2-0.6-0.4-0.9
					c-0.6-0.2-1.3-0.3-2.1-0.3c-1.1,0-2.1,0.1-3,0.3C-1.1-10.7-1.8-10.4-2-10c-0.3,0.3-0.1,0.6,0.4,0.8c0.5,0.2,1.3,0.4,2.3,0.4
					c1,0,1.9-0.1,2.8-0.3C4.4-9.4,5-9.7,5.3-10z"/>
			</g>
		</g>
	</g>
	<g id="Layer_13_1_">
	</g>
</symbol>
<g>
	<g>
		<path fill-rule="evenodd" clip-rule="evenodd" fill="#CFD1B6" d="M39,7.3c3.5-4,7.6-5.9,12.3-5.8h300.2c3.5,0.3,6.7,1.9,9.5,4.8
			l26.9,27.3c3.4,4.8,5,9.1,4.8,12.9l4.9,114.8c0.4,4.5,0,9.6-1,15.3l-1.4,8.2c-0.5,2.7-1.9,4-4.2,3.8H10.2c-2.8-0.2-4.7-1.3-5.7-3
			c-0.3-2.2-0.7-5.1-1.3-8.9c-1-5.6-1.4-10.5-1.3-14.7L6.6,48.1c0.5-6.3,2.8-11.6,6.9-15.8l6-5.8L39,7.3z"/>
	</g>
	<g>
		<path fill-rule="evenodd" clip-rule="evenodd" fill="#4B5467" d="M123.1,131.5v5.3h-0.7v-5.3H123.1z M124.6,131.5l1.4,3.8
			c0.1,0.3,0.2,0.6,0.3,0.9c0-0.1,0-0.2,0-0.2c0.1-0.3,0.2-0.5,0.3-0.7l1.5-3.8h0.7l-2.1,5.3h-0.7l-2-5.3H124.6z M111.1,131.5v3
			c0,0.5-0.1,1-0.2,1.3c-0.1,0.3-0.3,0.5-0.6,0.7c-0.4,0.2-0.8,0.3-1.3,0.3c-0.5,0-0.9-0.1-1.2-0.3c-0.4-0.2-0.6-0.4-0.7-0.8
			c-0.2-0.4-0.3-0.8-0.3-1.3v-3h0.8v3c0,0.5,0,0.8,0.1,1c0.1,0.2,0.3,0.4,0.5,0.5c0.2,0.1,0.4,0.2,0.7,0.2c0.5,0,0.9-0.1,1.1-0.4
			c0.2-0.2,0.4-0.7,0.4-1.3v-3H111.1z M117.4,132v-0.6h4.2v0.6h-1.8v4.7h-0.7V132H117.4z M116,133c-0.1-0.4-0.3-0.7-0.5-0.8
			c-0.3-0.2-0.6-0.3-0.9-0.3c-0.4,0-0.8,0.1-1,0.3c-0.3,0.2-0.5,0.4-0.6,0.8c-0.1,0.3-0.2,0.7-0.2,1c0,0.5,0.1,0.9,0.3,1.2
			c0.1,0.3,0.3,0.6,0.5,0.8c0.3,0.2,0.6,0.3,1,0.3c0.4,0,0.7-0.1,1-0.3s0.4-0.6,0.5-1.1l0.8,0.2c-0.1,0.6-0.4,1-0.8,1.4
			c-0.4,0.3-0.8,0.4-1.4,0.4c-0.6,0-1.1-0.1-1.4-0.4c-0.4-0.2-0.6-0.5-0.9-1c-0.2-0.5-0.3-1-0.3-1.5c0-0.6,0.1-1.1,0.4-1.5
			c0.2-0.4,0.5-0.7,0.9-0.9c0.4-0.2,0.8-0.4,1.3-0.4c0.5,0,1,0.1,1.4,0.4c0.3,0.3,0.6,0.7,0.8,1.1L116,133z M129.5,131.5h0.7v5.3
			h-0.7V131.5z M143.8,131.5l1.3,3.8c0.1,0.3,0.2,0.6,0.3,0.8c0-0.2,0.1-0.5,0.3-0.8l1.3-3.7h0.9v5.3h-0.6v-4.5l-1.5,4.5H145
			l-1.5-4.5v4.5h-0.7v-5.3H143.8z M136.3,131.5l1.1,1.6c0.2,0.3,0.4,0.6,0.5,0.9c0.1-0.3,0.3-0.6,0.6-1l1-1.5h0.9l-2.1,3v2.3h-0.8
			v-2.3l-2.1-3H136.3z M135.3,131.5v0.6h-1.8v4.7h-0.7V132H131v-0.6H135.3z M149.7,136.1h3.3v0.7h-4v-5.3h3.9v0.6h-3.1v1.6h2.9v0.6
			h-2.9V136.1z M165.9,131.5c0.5,0,0.9,0,1,0.1c0.3,0.1,0.5,0.3,0.6,0.5c0.2,0.3,0.3,0.5,0.3,0.8c0,0.4-0.1,0.7-0.4,1
			c-0.2,0.3-0.6,0.4-1.1,0.5c0.2,0.1,0.3,0.2,0.5,0.3c0.2,0.2,0.4,0.4,0.5,0.7l1,1.5h-0.9l-0.8-1.1c-0.2-0.3-0.4-0.6-0.5-0.8
			c-0.1-0.2-0.3-0.3-0.4-0.3c-0.1-0.1-0.2-0.2-0.3-0.2c0,0-0.1,0-0.2,0c-0.1,0-0.1,0-0.3,0h-0.8v2.3h-0.8v-5.3H165.9z M157.8,131.5
			v0.6H156v4.7h-0.7V132h-1.8v-0.6H157.8z M159.3,133.7h2.9v0.6h-2.9v1.8h3.3v0.7h-4v-5.3h3.9v0.6h-3.1V133.7z M166.8,132.3
			c-0.2-0.2-0.5-0.3-0.9-0.3h-1.6v1.8h1.5c0.3,0,0.6,0,0.8-0.1c0.2,0,0.3-0.1,0.4-0.3c0.1-0.1,0.2-0.3,0.2-0.5
			C167,132.6,167,132.4,166.8,132.3z M65.9,131.5c0.3,0.1,0.5,0.3,0.8,0.5c0.1,0.2,0.3,0.5,0.4,0.9l-0.7,0.2
			c-0.1-0.3-0.2-0.5-0.3-0.6c-0.1-0.1-0.3-0.3-0.5-0.4c-0.2-0.1-0.4-0.1-0.7-0.1c-0.3,0-0.6,0-0.8,0.1c-0.2,0.1-0.4,0.3-0.6,0.4
			c-0.1,0.2-0.2,0.3-0.3,0.5c-0.1,0.4-0.2,0.7-0.2,1.1c0,0.5,0.1,0.9,0.3,1.2c0.1,0.3,0.4,0.5,0.6,0.7c0.4,0.2,0.7,0.3,1,0.3
			c0.3,0,0.6-0.1,0.9-0.2c0.3-0.1,0.5-0.2,0.7-0.3v-1h-1.6V134H67v2c-0.4,0.3-0.7,0.5-1.1,0.7c-0.3,0.1-0.7,0.2-1.2,0.2
			c-0.5,0-0.9-0.1-1.3-0.3c-0.5-0.2-0.8-0.5-1-1c-0.2-0.4-0.4-0.9-0.4-1.5c0-0.5,0.1-1,0.4-1.4c0.2-0.5,0.5-0.8,0.9-1
			c0.4-0.2,0.9-0.4,1.4-0.4C65.2,131.3,65.5,131.4,65.9,131.5z M68.9,131.5v5.3h-0.6v-5.3H68.9z M61,131.5v5.3h-0.7v-5.3H61z
			 M56.6,131.5c0.4,0,0.8,0,1,0c0.3,0.1,0.6,0.2,0.8,0.4c0.3,0.2,0.5,0.5,0.6,0.9c0.2,0.4,0.3,0.8,0.3,1.3c0,0.4,0,0.8-0.1,1.1
			c-0.1,0.3-0.2,0.5-0.4,0.8c-0.2,0.2-0.3,0.4-0.5,0.5c-0.2,0.1-0.4,0.2-0.6,0.3c-0.3,0.1-0.5,0.1-0.9,0.1h-1.9v-5.3H56.6z
			 M58.3,132.8c-0.2-0.3-0.4-0.5-0.7-0.6c-0.2-0.1-0.5-0.1-1-0.1h-1.1v4h1.1c0.4,0,0.7,0,0.9-0.1c0.2,0,0.3-0.1,0.5-0.3
			c0.1-0.1,0.3-0.3,0.4-0.6c0.1-0.3,0.1-0.6,0.1-1C58.5,133.5,58.4,133,58.3,132.8z M76.4,131.5l2.2,5.3h-0.8l-0.6-1.6h-2.2
			l-0.6,1.6h-0.8l2.1-5.3H76.4z M74,131.5v0.6h-1.8v4.7h-0.7V132h-1.8v-0.6H74z M75.1,134.6h1.8l-0.6-1.5c-0.1-0.5-0.3-0.8-0.3-1.1
			c-0.1,0.3-0.2,0.7-0.3,1L75.1,134.6z M88.5,132.7c-0.1-0.2-0.2-0.3-0.3-0.4c-0.3-0.2-0.6-0.3-1-0.3c-0.4,0-0.7,0.1-1,0.3
			c-0.3,0.2-0.5,0.4-0.6,0.8c-0.1,0.3-0.2,0.7-0.2,1c0,0.5,0.1,0.9,0.2,1.2c0.1,0.3,0.3,0.6,0.6,0.8c0.3,0.2,0.6,0.3,0.9,0.3
			c0.4,0,0.8-0.1,1-0.3c0.1-0.1,0.2-0.3,0.3-0.4c0.1-0.2,0.2-0.4,0.3-0.7l0.8,0.2c-0.2,0.6-0.4,1-0.8,1.4c0,0-0.1,0.1-0.2,0.1
			c-0.3,0.2-0.8,0.3-1.3,0.3c-0.6,0-1-0.1-1.3-0.4c-0.4-0.2-0.7-0.5-0.9-1c-0.2-0.5-0.3-1-0.3-1.5c0-0.6,0.1-1.1,0.4-1.5
			c0.2-0.4,0.5-0.7,0.9-0.9c0.4-0.2,0.8-0.4,1.3-0.4c0.5,0,0.9,0.1,1.3,0.4c0.1,0,0.1,0,0.2,0c0.3,0.3,0.6,0.7,0.8,1.1l-0.7,0.2
			C88.7,132.9,88.6,132.8,88.5,132.7z M82.5,136.1v0.7h-3.4v-5.3h0.7v4.6H82.5z M103.4,131.5c0.4,0,0.8,0,1,0
			c0.3,0.1,0.6,0.2,0.8,0.4c0.3,0.2,0.5,0.5,0.6,0.9c0.2,0.4,0.3,0.8,0.3,1.3c0,0.4-0.1,0.8-0.2,1.1c-0.1,0.3-0.2,0.5-0.3,0.8
			c-0.1,0.2-0.3,0.4-0.5,0.5c-0.2,0.1-0.4,0.2-0.6,0.3c-0.3,0.1-0.6,0.1-0.9,0.1h-1.9v-5.3H103.4z M100.4,131.5v5.3h-0.6l-2.8-4.2
			v4.2h-0.7v-5.3H97l2.8,4.1v-4.1H100.4z M95.3,134.1c0,0.5-0.1,1-0.3,1.5c-0.2,0.4-0.6,0.8-1,1c-0.4,0.2-0.8,0.3-1.3,0.3
			c-0.5,0-1-0.1-1.4-0.4c-0.4-0.2-0.7-0.5-0.9-1c-0.2-0.4-0.3-0.9-0.3-1.3c0-0.9,0.2-1.6,0.7-2.2c0.5-0.5,1.1-0.8,1.9-0.8
			c0.5,0,0.9,0.1,1.3,0.4c0.4,0.3,0.7,0.6,1,1C95.2,133.1,95.3,133.6,95.3,134.1z M94.4,133c-0.1-0.3-0.3-0.6-0.6-0.7
			c-0.3-0.2-0.7-0.3-1-0.3c-0.5,0-0.9,0.2-1.3,0.5c-0.4,0.3-0.6,0.9-0.6,1.8c0,0.6,0.2,1.1,0.6,1.5c0.3,0.4,0.8,0.6,1.3,0.6
			s1-0.2,1.3-0.6c0.4-0.4,0.6-0.9,0.6-1.6C94.6,133.7,94.5,133.3,94.4,133z M105,132.8c-0.2-0.3-0.4-0.5-0.7-0.6
			c-0.2-0.1-0.5-0.1-0.9-0.1h-1.1v4h1.1c0.3,0,0.6,0,0.9-0.1c0.2,0,0.4-0.1,0.5-0.3c0.1-0.1,0.3-0.3,0.4-0.6c0.1-0.3,0.1-0.6,0.1-1
			C105.3,133.5,105.2,133,105,132.8z"/>
		<g>
			<path fill-rule="evenodd" clip-rule="evenodd" fill="#EEEEE6" d="M380.8,26.5H19.5L39,7.3c3.5-4,7.6-5.9,12.3-5.8h300.2
				c3.5,0.3,6.7,1.9,9.5,4.8L380.8,26.5z"/>
			<linearGradient id="SVGID_10_" gradientUnits="userSpaceOnUse" x1="199.6279" y1="25.9121" x2="199.6466" y2="57.9871">
				<stop  offset="0" style="stop-color:#EEEEE6"/>
				<stop  offset="0.149" style="stop-color:#EEEEE6"/>
				<stop  offset="0.302" style="stop-color:#E9E9DD"/>
				<stop  offset="0.4863" style="stop-color:#F9F8F4"/>
				<stop  offset="0.6157" style="stop-color:#CFD1B6"/>
				<stop  offset="1" style="stop-color:#CFD1B6"/>
			</linearGradient>
			<path fill-rule="evenodd" clip-rule="evenodd" fill="url(#SVGID_10_)" d="M393.3,63.2H6l0.6-15.1c0.5-6.3,2.8-11.6,6.9-15.8
				l6-5.8h361.3l7,7.2c3.4,4.8,5,9.1,4.8,12.9L393.3,63.2z"/>
			<polygon fill-rule="evenodd" clip-rule="evenodd" fill="#CFD1B6" points="396.7,142.8 3,142.8 6,63.2 393.3,63.2 			"/>
			<linearGradient id="SVGID_11_" gradientUnits="userSpaceOnUse" x1="199.811" y1="150.2627" x2="199.811" y2="182.3377">
				<stop  offset="0" style="stop-color:#CFD1B6"/>
				<stop  offset="0.502" style="stop-color:#DADCC7"/>
				<stop  offset="0.6196" style="stop-color:#8B8A5A"/>
				<stop  offset="0.8784" style="stop-color:#8B8A5A"/>
				<stop  offset="1" style="stop-color:#837D52"/>
			</linearGradient>
			<path fill-rule="evenodd" clip-rule="evenodd" fill="url(#SVGID_11_)" d="M396.5,176.6H3.3c-1-5.6-1.4-10.5-1.3-14.7l1-19.1
				h393.7l0.8,18.5C397.8,165.8,397.5,170.9,396.5,176.6z"/>
			<linearGradient id="SVGID_12_" gradientUnits="userSpaceOnUse" x1="199.8999" y1="173.2246" x2="199.8999" y2="187.8746">
				<stop  offset="0" style="stop-color:#8B8A5A"/>
				<stop  offset="0.8549" style="stop-color:#898859"/>
				<stop  offset="1" style="stop-color:#A98D4E"/>
			</linearGradient>
			<path fill-rule="evenodd" clip-rule="evenodd" fill="url(#SVGID_12_)" d="M3.3,176.6h393.2l-1.4,8.2c-0.5,2.7-1.9,4-4.2,3.8H10.2
				c-2.8-0.2-4.7-1.3-5.7-3C4.3,183.3,3.8,180.4,3.3,176.6z"/>
		</g>
		<g>
			
				<radialGradient id="SVGID_13_" cx="-928.0806" cy="42.2607" r="90.6319" gradientTransform="matrix(1 -7.300082e-003 8.112732e-002 3.718909e-002 1053.6226 32.6023)" gradientUnits="userSpaceOnUse">
				<stop  offset="0" style="stop-color:#FFFFFF"/>
				<stop  offset="0.1412" style="stop-color:#FFFFFF"/>
				<stop  offset="0.3176" style="stop-color:#FEFEFE"/>
				<stop  offset="0.5373" style="stop-color:#FBFBFB;stop-opacity:0.498"/>
				<stop  offset="0.7529" style="stop-color:#F9F9F9;stop-opacity:9.019608e-002"/>
				<stop  offset="1" style="stop-color:#F6F6F6;stop-opacity:0"/>
			</radialGradient>
			<path fill-rule="evenodd" clip-rule="evenodd" fill="url(#SVGID_13_)" d="M236.8,39.7c2.8,1.4-5.8,2.6-25.9,3.5
				c-18.7,0.9-43,1.4-72.9,1.7c-29.4,0.2-56.3,0-80.6-0.6c-22.9-0.7-35.7-1.8-38.6-3c-2.3-1.3,6.1-2.4,25.3-3.3
				c20.1-1.1,44.9-1.8,74.3-2c30.4-0.2,56.5,0,78.4,0.8C220.6,37.4,234,38.4,236.8,39.7z"/>
		</g>
		<g>
			
				<radialGradient id="SVGID_14_" cx="-4511.9766" cy="164.5977" r="154.1589" gradientTransform="matrix(1 4.615709e-003 8.105833e-002 1.093194e-002 4705.3325 184.8274)" gradientUnits="userSpaceOnUse">
				<stop  offset="0" style="stop-color:#FFFFFF"/>
				<stop  offset="0.1412" style="stop-color:#FFFFFF"/>
				<stop  offset="0.3176" style="stop-color:#FEFEFE"/>
				<stop  offset="0.5373" style="stop-color:#FBFBFB;stop-opacity:0.498"/>
				<stop  offset="0.7529" style="stop-color:#F9F9F9;stop-opacity:9.019608e-002"/>
				<stop  offset="1" style="stop-color:#F6F6F6;stop-opacity:0"/>
			</radialGradient>
			<path fill-rule="evenodd" clip-rule="evenodd" fill="url(#SVGID_14_)" d="M19.4,164.7c-4-0.6,10.3-1,42.9-1.3
				c34.2-0.3,76.3-0.3,126.4-0.1c51.6,0.3,96.1,0.7,133.5,1.3c40.5,0.6,63.1,1.2,67.9,1.8c4.8,0.7-9.9,1.2-44.1,1.4
				c-31.8,0.2-73.1,0.2-124,0c-50-0.2-95.7-0.6-137.1-1.2C46,165.9,24.1,165.3,19.4,164.7z"/>
		</g>
		<g>
			<polygon fill-rule="evenodd" clip-rule="evenodd" fill="#FFFFFF" fill-opacity="0.298" points="14.8,51.6 11,161.5 11.5,161.5 
				12.4,161.5 391.1,161.5 386.8,47.7 388.5,49.3 392.7,161.5 392.8,163 9.7,163 13.7,50.7 			"/>
		</g>
		<g>
			<polygon fill-rule="evenodd" clip-rule="evenodd" fill="#CFD1B6" points="13.4,50 9.6,160 10,160 11,160 389.7,160 385.3,47.7 
				387.2,47.7 391.3,160 391.4,161.3 8.4,161.3 12.4,50 			"/>
		</g>
		<g>
			
				<path fill-rule="evenodd" clip-rule="evenodd" fill="none" stroke="#FFFFFF" stroke-linecap="round" stroke-linejoin="round" stroke-miterlimit="3" stroke-opacity="0.498" d="
				M197.7,64h-12c-3.8,0-5.7,1.9-5.7,5.8v72.5 M378.3,142.8l-3.3-73c0-3.8-1.9-5.8-5.8-5.8h-10.8"/>
		</g>
		<g>
			<path fill-rule="evenodd" clip-rule="evenodd" fill="#93985F" d="M377.2,141.6c0-0.2,0.1-0.3,0.1-0.5h0.7v4.4
				c0,3.8-1.9,5.8-5.8,5.8H184c-3.8,0-5.8-1.9-5.8-5.8V141h0.7c0.5,2.7,2.2,4,5.3,4.1H373C375.3,144.8,376.7,143.6,377.2,141.6z"/>
			
				<path fill-rule="evenodd" clip-rule="evenodd" fill="none" stroke="#93985F" stroke-linecap="round" stroke-linejoin="round" stroke-miterlimit="3" d="
				M196.5,62.8h-11.9c-3.8,0-5.7,1.9-5.7,5.8V141 M377.2,141.6l-3.4-73c0-3.8-1.9-5.8-5.7-5.8h-10.9"/>
		</g>
		<g>
			<g>
				
					<radialGradient id="SVGID_15_" cx="440.4795" cy="73.8877" r="31.4346" gradientTransform="matrix(0.9953 9.662919e-002 -0.3014 0.975 -135.9468 -5.9565)" gradientUnits="userSpaceOnUse">
					<stop  offset="0" style="stop-color:#040404;stop-opacity:0.6118"/>
					<stop  offset="0.5961" style="stop-color:#020202;stop-opacity:0.1529"/>
					<stop  offset="1" style="stop-color:#000000;stop-opacity:0"/>
				</radialGradient>
				<polygon fill-rule="evenodd" clip-rule="evenodd" fill="url(#SVGID_15_)" points="284.9,99.5 309.4,135 281.2,145.1 
					266.5,116.4 				"/>
			</g>
			<g>
				
					<path fill-rule="evenodd" clip-rule="evenodd" fill="none" stroke="#000000" stroke-width="0.1" stroke-linecap="round" stroke-linejoin="round" stroke-miterlimit="3" stroke-opacity="0.251" d="
					M306,106.8l-28.8,0.1l25,14.4 M291.5,131.9l-14.3-25l-14.5,24.9 M277.2,106.9l-0.1-0.1l-0.1,0.1H277.2L277.2,106.9l-0.1-0.1
					 M277.1,78l0.1,28.8l14.4-25 M277.2,106.8l25-14.5 M252.1,92.4l25,14.4l-14.4-25 M252.1,121.3l24.9-14.3l-28.8-0.1"/>
			</g>
			<g>
				
					<path fill-rule="evenodd" clip-rule="evenodd" fill="none" stroke="#000000" stroke-width="0.1" stroke-linecap="round" stroke-linejoin="round" stroke-miterlimit="3" stroke-opacity="0.251" d="
					M262.5,93.5l14.5,13.3l-0.1-0.2L264,92 M265.6,90.7l11.3,15.8l0.1,0.3l0.2,0.1l-0.1-0.1l-8-18.3 M261.3,95.1l15.8,11.8l-0.1-0.1
					l0,0 M277.2,106.8L277.2,106.8l-0.1-0.1l-6.1-19 M277.1,106.8l0.1,0.1v-0.1H277.1l-17.8-8 M277.3,106.9L277.3,106.9L277.3,106.9
					L277.3,106.9z M296.3,111.1l-19-4.2h0l18.5,6.2 M276.9,107L276.9,107L276.9,107L276.9,107z M277,107l0.2,0L277,107L277,107z
					 M265.8,123.3L277,107l-0.1,0.1l-0.1,0L264.2,122 M277,107L277,107 M277,107L277,107l-0.1,0.1 M276.6,107.1l0.3,0l-0.1-0.1
					L276.6,107.1z M277.1,106.9l-0.3,0l-19,2.3 M277.2,106.9L277,107 M296.5,104.7l-19.3,2.2l19.3,2 M295.7,100.6l-18.5,6.3l19-4.3
					 M292.9,95l-15.6,11.9l17.8-8.3 M295,115l-17.8-8.1l15.7,11.8 M291.7,120.3L277.2,107l13.1,14.8 M288.8,123.2L277.2,107
					 M277.2,106.8l-2.2-20 M273,87.3l4.1,19.5 M291.6,93.3l-14.4,13.5 M279.1,86.8l-1.9,20l3.8-19.6 M283.1,87.8l-5.9,19.1l7.8-18.4
					 M288.5,90.5l-11.3,16.3l13-15 M258.6,113.2l18-6.1l-18.5,4.1 M276.9,107.2l-14.1,13.3 M258.6,100.8l18.6,6.2 M261.5,118.8
					l15.5-11.7 M257.8,104.9l19.3,2l-19.1-4.1 M276.9,107l-17.5,8.1"/>
			</g>
			<g>
				<path fill-rule="evenodd" clip-rule="evenodd" d="M266.8,95.5c3.2-2.5,6.8-3.6,10.8-3.3c4,0.4,7.3,2.1,9.9,5.2
					c2.6,3.2,3.7,6.8,3.3,10.8c-0.2,2.2-0.8,4.1-1.8,5.9c-0.1,0.1-0.1,0.2-0.2,0.3c-0.9,1.3-2,2.5-3.3,3.5
					c-3.1,2.6-6.7,3.8-10.6,3.4c-4-0.4-7.3-2.1-10-5.3c-1.2-1.5-2.1-3-2.6-4.6c-0.6-1.9-0.9-4-0.6-6.2
					C261.9,101.4,263.6,98.2,266.8,95.5z M267.5,108.5c0,0.2,0,0.3,0,0.3C267.6,108.7,267.6,108.6,267.5,108.5L267.5,108.5z
					 M264.8,107L264.8,107c0-0.1,0-0.2,0-0.3C264.8,106.8,264.8,106.9,264.8,107z"/>
			</g>
			<g>
				<linearGradient id="SVGID_16_" gradientUnits="userSpaceOnUse" x1="265.1147" y1="103.9072" x2="287.3897" y2="106.0322">
					<stop  offset="0" style="stop-color:#080808"/>
					<stop  offset="0.3294" style="stop-color:#212121"/>
					<stop  offset="0.5098" style="stop-color:#6A6A6A"/>
					<stop  offset="0.6471" style="stop-color:#222222"/>
					<stop  offset="1" style="stop-color:#000000"/>
				</linearGradient>
				<path fill-rule="evenodd" clip-rule="evenodd" fill="url(#SVGID_16_)" d="M267.5,109.1c0,0.1,0,0.2,0,0.3v0.1
					c-0.1,1,0,1.9,0.4,2.8l-2.3-0.2c-0.6-1.3-0.9-2.8-0.8-4.4c0-0.1,0-0.2,0-0.3v-0.1c0-0.1,0-0.2,0.1-0.4c0.3-3.1,1.6-5.6,4-7.5
					c2.4-2,5.1-2.8,8.1-2.5c3.1,0.3,5.6,1.6,7.5,4c2,2.4,2.9,5.1,2.6,8.2c0,0.1,0,0.3,0,0.4c0,0.1,0,0.3-0.1,0.4
					c-0.3,1.6-0.8,3-1.6,4.2l-2.4-0.2c0.5-0.8,0.8-1.7,0.9-2.7c0-0.1,0-0.3,0-0.4c0.2-2.3-0.4-4.3-1.9-6.1c-1.5-1.7-3.3-2.7-5.5-2.9
					c-2.3-0.2-4.3,0.4-6,1.8C268.7,105,267.7,106.8,267.5,109.1z"/>
				<path fill-rule="evenodd" clip-rule="evenodd" d="M288.7,114.7c-0.1,0.1-0.2,0.3-0.3,0.4c-0.9,1.3-2,2.5-3.3,3.6
					c-3.1,2.6-6.6,3.7-10.6,3.3c-4-0.4-7.3-2.2-9.9-5.3c-1.2-1.4-2.1-3-2.6-4.6l1.2,0.2c-0.5-1.6-0.6-3.3-0.5-5.1
					c0.4-3.6,1.9-6.6,4.6-8.9c2.8-2.3,6-3.2,9.7-2.9c3.6,0.3,6.5,1.9,8.7,4.7c2.4,2.8,3.4,6,3,9.6c-0.2,1.8-0.6,3.4-1.4,4.9
					L288.7,114.7z M264.8,107.3c0,0.1,0,0.2,0,0.3h0c-0.1,1.6,0.2,3.1,0.8,4.4l2.3,0.2c-0.3-0.9-0.4-1.8-0.4-2.8v-0.1
					c0-0.1,0-0.2,0-0.3h0c0.2-2.3,1.2-4.1,3-5.6c1.7-1.5,3.7-2.1,6-1.8c2.2,0.2,4.1,1.2,5.5,2.9c1.4,1.8,2.1,3.8,1.9,6.1
					c0,0.1,0,0.3,0,0.4c-0.2,1-0.5,1.9-0.9,2.7l2.4,0.2c0.8-1.2,1.4-2.6,1.6-4.2c0-0.1,0.1-0.3,0.1-0.4c0-0.1,0-0.3,0-0.4
					c0.3-3.1-0.6-5.8-2.6-8.2c-1.9-2.4-4.4-3.7-7.5-4c-3.1-0.3-5.8,0.5-8.1,2.5c-2.4,1.9-3.7,4.4-4,7.5
					C264.8,107,264.8,107.2,264.8,107.3L264.8,107.3z"/>
				<linearGradient id="SVGID_17_" gradientUnits="userSpaceOnUse" x1="261.9155" y1="101.8066" x2="290.8635" y2="104.6064">
					<stop  offset="0" style="stop-color:#040404"/>
					<stop  offset="0.3176" style="stop-color:#030303"/>
					<stop  offset="0.4745" style="stop-color:#BEBEBE"/>
					<stop  offset="0.6431" style="stop-color:#020202"/>
					<stop  offset="1" style="stop-color:#000000"/>
				</linearGradient>
				<path fill-rule="evenodd" clip-rule="evenodd" fill="url(#SVGID_17_)" d="M288.7,114.7l-1.3-0.1c0.8-1.5,1.3-3.1,1.4-4.9
					c0.4-3.6-0.6-6.8-3-9.6c-2.2-2.8-5.1-4.4-8.7-4.7c-3.6-0.3-6.9,0.6-9.7,2.9c-2.7,2.3-4.3,5.3-4.6,8.9c-0.2,1.8,0,3.5,0.5,5.1
					l-1.2-0.2c-0.6-1.9-0.9-3.9-0.6-6c0.4-4,2.1-7.3,5.3-9.8c3.1-2.6,6.7-3.7,10.6-3.3c4,0.4,7.2,2.1,9.8,5.2
					c2.6,3.1,3.7,6.6,3.3,10.6C290.3,111,289.7,112.9,288.7,114.7z"/>
			</g>
			<g>
				<linearGradient id="SVGID_18_" gradientUnits="userSpaceOnUse" x1="278.0938" y1="96.7188" x2="273.571" y2="116.0193">
					<stop  offset="0" style="stop-color:#444444"/>
					<stop  offset="1" style="stop-color:#000000"/>
				</linearGradient>
				<path fill-rule="evenodd" clip-rule="evenodd" fill="url(#SVGID_18_)" d="M270.4,100.6c1.8-1.4,3.8-2.1,6.1-1.9
					c2.3,0.2,4.1,1.3,5.6,3c1.5,1.8,2.1,3.8,1.9,6.1c-0.2,2.3-1.2,4.1-3,5.6c-1.8,1.5-3.8,2.1-6.1,1.8c-2.3-0.2-4.2-1.2-5.6-3
					c-1.4-1.7-2-3.7-1.8-6C267.6,104,268.6,102.1,270.4,100.6z"/>
			</g>
			<g>
				<path fill-rule="evenodd" clip-rule="evenodd" fill="none" d="M270.5,100.7c1.7-1.5,3.8-2.1,6-1.9c2.3,0.2,4.2,1.2,5.7,3
					c1.5,1.8,2.1,3.8,1.8,6.2c-0.2,2.3-1.2,4.1-3,5.5c-1.8,1.5-3.8,2.1-6.1,1.9c-2.3-0.2-4.2-1.3-5.6-3c-1.5-1.7-2.1-3.7-1.9-6
					C267.7,104,268.7,102.1,270.5,100.7z"/>
			</g>
			<g>
				<path fill-rule="evenodd" clip-rule="evenodd" fill-opacity="0.7255" d="M249.5,91.3c0.2-0.1,0.4-0.1,0.5-0.1
					c0.2,0,0.4,0,0.5,0.3c0.2,0.1,0.3,0.2,0.2,0.5c0.1,0.2,0,0.4-0.1,0.6c-0.2,0.2-0.4,0.3-0.6,0.3c-0.2-0.1-0.4-0.2-0.5-0.3
					c-0.2-0.1-0.3-0.2-0.3-0.4l0.4-0.1c0,0.1,0.1,0.2,0.1,0.3c0.1,0.1,0.2,0.2,0.3,0.2c0.2,0,0.3-0.1,0.3-0.1
					c0.1-0.1,0.2-0.3,0.2-0.5c0-0.1,0-0.3-0.1-0.4c-0.1-0.1-0.3-0.2-0.5-0.1c-0.1,0-0.1,0-0.2,0c0,0-0.1,0.1-0.2,0.2h-0.3l0.2-1.4
					l1.2,0.1v0.3l-0.9,0L249.5,91.3z M248,90.7c0.1-0.1,0.2-0.2,0.3-0.4h0.2l0,2.5l-0.4,0V91c-0.1,0-0.2,0-0.3,0.1s-0.2,0.1-0.3,0.2
					V91C247.7,90.8,247.9,90.8,248,90.7z M262.1,78.8c0.1,0,0.2,0.1,0.3,0.3c0.1,0.1,0.1,0.2,0.1,0.3c0.1,0.2,0.1,0.4,0.1,0.6
					c0,0.3,0,0.5,0,0.7c0,0.2-0.1,0.3-0.3,0.4c-0.1,0.1-0.3,0.1-0.5,0.2c-0.2,0-0.4-0.2-0.5-0.3c-0.2-0.1-0.3-0.5-0.3-1
					c0-0.3,0-0.5,0.1-0.7c0.1-0.2,0.2-0.3,0.3-0.4c0.1-0.1,0.2-0.1,0.4-0.1C261.9,78.7,262,78.7,262.1,78.8z M262.1,79.2
					c-0.1-0.1-0.2-0.2-0.4-0.2c-0.1,0-0.2,0-0.3,0.2c-0.1,0.1-0.1,0.4-0.1,0.8c0,0.4,0,0.6,0.1,0.8c0.1,0.1,0.3,0.2,0.4,0.2
					c0.1,0,0.2-0.1,0.3-0.2c0.1-0.2,0.1-0.4,0.1-0.8C262.3,79.5,262.2,79.3,262.1,79.2z M260.5,78.9c0.1,0.2,0.2,0.3,0.2,0.5
					c0,0.1,0,0.2-0.1,0.3c0,0.1-0.1,0.2-0.1,0.3c-0.1,0.1-0.3,0.2-0.5,0.5c-0.1,0.1-0.2,0.2-0.3,0.3c-0.1,0.1-0.1,0.1-0.1,0.1
					l1.2,0.1l0,0.3l-1.6,0c0-0.1,0-0.2,0-0.3c0-0.1,0.1-0.1,0.2-0.2c0.1-0.2,0.2-0.3,0.4-0.5c0.3-0.2,0.5-0.3,0.5-0.5
					c0.2-0.1,0.2-0.2,0.2-0.4c0-0.1-0.1-0.2-0.2-0.3c0-0.1-0.1-0.1-0.3-0.1c-0.2,0-0.3,0-0.4,0.1c-0.1,0.1-0.2,0.2-0.1,0.3h-0.3
					c0-0.2,0-0.4,0.1-0.6c0.2-0.1,0.4-0.1,0.6-0.1C260.2,78.7,260.4,78.8,260.5,78.9z M243.2,106.3c-0.1,0.1-0.2,0.1-0.3,0.1
					l-0.1-0.3c0.2,0,0.4-0.1,0.5-0.2c0.1-0.1,0.2-0.3,0.2-0.4l0.2,0l0,2.5l-0.3,0l0-2C243.4,106.1,243.3,106.2,243.2,106.3z
					 M244.9,105.7c0.2-0.1,0.3-0.2,0.5-0.2c0.1,0,0.3,0,0.4,0.1c0,0,0.1,0.1,0.2,0.3c0.1,0.1,0.1,0.2,0.1,0.4c0,0.1,0.1,0.3,0.1,0.5
					c0,0.3-0.1,0.5-0.1,0.7c-0.1,0.2-0.2,0.3-0.3,0.4s-0.3,0.1-0.5,0.1c-0.2,0-0.4-0.1-0.5-0.3c-0.2-0.2-0.3-0.5-0.3-1
					c0-0.3,0-0.5,0.1-0.7C244.7,105.9,244.8,105.8,244.9,105.7z M245.8,106c-0.1-0.1-0.3-0.2-0.4-0.2s-0.2,0.1-0.3,0.2
					c-0.1,0.2-0.2,0.4-0.1,0.8c0,0.4,0,0.6,0,0.8c0.1,0.1,0.3,0.2,0.4,0.3c0.1-0.1,0.3-0.1,0.4-0.3c0.1-0.1,0.1-0.4,0.1-0.8
					C245.9,106.4,245.8,106.1,245.8,106z M249.3,122.2l0.3-1.3l1.2,0v0.3l-1,0l-0.1,0.6c0.1,0,0.3,0,0.5,0c0.2,0,0.4,0.1,0.5,0.2
					c0.2,0.1,0.3,0.2,0.3,0.5c0,0.2,0,0.4-0.2,0.6c-0.1,0.2-0.3,0.3-0.6,0.3c-0.2,0-0.4-0.1-0.6-0.3c-0.2-0.1-0.3-0.2-0.3-0.4
					l0.4-0.1c0,0.2,0,0.3,0.1,0.4c0.1,0.1,0.2,0.1,0.4,0.1s0.3,0,0.4-0.1c0.1-0.1,0.1-0.3,0.1-0.5c0-0.2,0-0.3,0-0.4
					c-0.2-0.2-0.3-0.2-0.5-0.2c-0.1,0-0.2,0-0.3,0c0,0-0.1,0.1-0.3,0.2H249.3z M261.4,133.2c0.1-0.1,0.3-0.2,0.4-0.2
					c0.2,0,0.3,0,0.4,0.1c0.1,0,0.2,0.1,0.3,0.3c0.1,0.1,0.1,0.2,0,0.4c0.1,0.2,0.1,0.4,0.1,0.6c0,0.3,0,0.5-0.1,0.6
					c0,0.2-0.1,0.3-0.2,0.4c-0.2,0.1-0.3,0.2-0.5,0.2c-0.2,0-0.4-0.2-0.5-0.3c-0.2-0.2-0.3-0.5-0.3-0.9c0-0.3,0-0.6,0.1-0.7
					C261.2,133.3,261.3,133.2,261.4,133.2z M262.3,133.5c-0.1-0.1-0.3-0.2-0.4-0.2s-0.2,0.1-0.3,0.2c-0.2,0.1-0.2,0.4-0.2,0.8
					c0,0.3,0,0.6,0.1,0.8c0.1,0.1,0.3,0.2,0.4,0.2c0.1,0,0.3-0.1,0.4-0.2c0.1-0.1,0.1-0.4,0.1-0.7
					C262.3,133.8,262.3,133.5,262.3,133.5z M277.5,75.5c0.2,0,0.4,0,0.5,0c0.2,0,0.4,0.1,0.5,0.3c0.2,0.1,0.3,0.3,0.3,0.5
					c0,0.2,0,0.4-0.2,0.6c-0.1,0.2-0.3,0.3-0.6,0.3c-0.2,0-0.4-0.1-0.5-0.3c-0.2-0.1-0.3-0.2-0.3-0.4l0.3-0.2
					c0.1,0.2,0.1,0.3,0.1,0.4c0.1,0.1,0.2,0.1,0.4,0.1s0.2,0,0.3-0.1c0.1-0.1,0.2-0.3,0.2-0.5c0-0.1,0-0.3-0.1-0.4
					c-0.2-0.1-0.3-0.2-0.5-0.1c-0.1,0-0.1,0-0.2,0.1c0,0-0.1,0.1-0.2,0.1h-0.3l0.2-1.3l1.2,0v0.3h-0.9L277.5,75.5z M276.6,75.8
					c-0.1,0.1-0.3,0.3-0.5,0.5c-0.2,0.2-0.3,0.3-0.4,0.3c0,0.1-0.1,0.1-0.1,0.1l1.2,0.1l0,0.3l-1.6,0c0-0.1,0-0.1,0-0.2
					c0-0.1,0.1-0.2,0.2-0.3c0.1-0.2,0.3-0.3,0.4-0.4c0.3-0.2,0.5-0.4,0.5-0.5c0.1-0.1,0.1-0.2,0.1-0.3c0-0.1,0-0.3-0.1-0.3
					c-0.1-0.1-0.2-0.1-0.3-0.1c-0.2,0-0.3,0-0.4,0.1c-0.1,0.1-0.2,0.2-0.2,0.3l-0.3,0c0-0.2,0.1-0.5,0.2-0.6
					c0.2-0.1,0.4-0.1,0.6-0.1c0.2,0,0.4,0,0.5,0.3c0.2,0.1,0.3,0.3,0.3,0.5c0,0.1,0,0.2-0.1,0.3C276.7,75.7,276.7,75.7,276.6,75.8z
					 M296.1,79c0.1,0,0.1,0.1,0.3,0.3c0.1,0.1,0.1,0.2,0.1,0.3c0,0.1,0.1,0.3,0.1,0.6c0,0.2-0.1,0.4-0.1,0.6c0,0.2-0.1,0.3-0.3,0.4
					s-0.3,0.1-0.5,0.1c-0.2,0-0.3-0.1-0.4-0.3c-0.2-0.2-0.4-0.5-0.4-1c0-0.3,0-0.5,0.1-0.7c0.1-0.1,0.2-0.3,0.3-0.4
					c0.1-0.1,0.3-0.1,0.5-0.1C296,78.9,296.1,78.9,296.1,79z M293.9,78.8c0.1,0,0.2,0,0.4,0.1c0.1,0,0.2,0.1,0.4,0.3
					c0,0.1,0,0.2,0,0.3c0,0.1,0,0.2,0,0.3c-0.1,0.1-0.2,0.2-0.3,0.2c0.1,0,0.2,0.1,0.4,0.2c0.1,0.1,0.1,0.2,0.1,0.3
					c0,0.2-0.1,0.4-0.2,0.6c-0.2,0.1-0.4,0.2-0.6,0.2c-0.2,0-0.4-0.1-0.5-0.3c-0.2-0.1-0.3-0.3-0.3-0.5l0.3,0c0,0.2,0.1,0.3,0.1,0.4
					c0.1,0.1,0.3,0.2,0.4,0.2c0.2,0,0.3-0.1,0.3-0.2c0.1-0.1,0.2-0.2,0.2-0.3c0-0.2,0-0.3-0.1-0.4c-0.1-0.1-0.2-0.1-0.4-0.1
					c-0.1,0-0.1,0-0.2,0v-0.2h0.1c0.1,0,0.3,0,0.4-0.1c0.1-0.1,0.1-0.2,0.1-0.3c0-0.1,0-0.2,0-0.3c-0.1,0-0.2,0-0.3,0
					c-0.1,0-0.2,0-0.3,0c-0.1,0.1-0.1,0.2-0.2,0.3l-0.3,0c0.1-0.2,0.1-0.4,0.3-0.5C293.5,78.9,293.7,78.8,293.9,78.8z M296.2,79.3
					c-0.1-0.1-0.3-0.1-0.4-0.1c-0.1,0-0.2,0-0.3,0.1c-0.1,0.2-0.2,0.4-0.1,0.8c0,0.3,0,0.6,0.1,0.8c0.2,0.2,0.3,0.3,0.4,0.3
					c0.2,0,0.3-0.1,0.4-0.2c0.1-0.1,0.1-0.4,0.1-0.8C296.3,79.7,296.3,79.4,296.2,79.3z M304.8,90.7c0-0.1,0-0.2-0.1-0.3
					c-0.1,0-0.2,0-0.3,0c-0.1,0-0.2,0-0.3,0c-0.1,0.1-0.2,0.2-0.3,0.4l-0.3,0c0.1-0.2,0.1-0.3,0.2-0.5c0.2-0.1,0.3-0.2,0.5-0.2
					c0.1,0,0.3,0,0.4,0.1c0.1,0,0.3,0.1,0.3,0.3c0,0.1,0,0.2,0,0.3c0,0.1,0,0.2,0,0.3c-0.1,0.1-0.2,0.2-0.3,0.2
					c0.1,0.1,0.2,0.2,0.3,0.3c0.1,0.1,0.2,0.2,0.2,0.3c0,0.2-0.1,0.4-0.3,0.5c-0.1,0.2-0.3,0.3-0.5,0.3c-0.2,0-0.4-0.1-0.6-0.3
					c-0.1-0.1-0.2-0.2-0.2-0.4l0.3-0.1c0.1,0.2,0.1,0.3,0.2,0.4c0.1,0.1,0.2,0.1,0.3,0.1c0.2,0,0.3-0.1,0.3-0.1
					c0.1-0.1,0.2-0.3,0.2-0.4c0-0.2,0-0.3-0.1-0.3c-0.1-0.1-0.3-0.2-0.3-0.2c-0.1,0-0.2,0-0.3,0.1l0-0.4l0,0c0.2,0,0.3,0,0.4-0.1
					C304.7,90.9,304.8,90.8,304.8,90.7z M306,91.3c0,0-0.1,0-0.2,0.1h-0.3l0.2-1.4l1.2,0.1v0.3l-0.9-0.1l-0.2,0.7c0.2,0,0.4,0,0.6,0
					c0.1,0,0.3,0.1,0.4,0.2c0.2,0.1,0.3,0.3,0.2,0.6c0,0.2,0,0.3-0.1,0.5c-0.2,0.2-0.4,0.3-0.7,0.3c-0.2,0-0.3-0.1-0.5-0.3
					c-0.2-0.1-0.3-0.2-0.3-0.4l0.4-0.1c0,0.1,0.1,0.3,0.2,0.4c0.1,0.1,0.2,0.1,0.3,0.1c0.1,0,0.2,0,0.3-0.1c0.1-0.1,0.2-0.3,0.2-0.5
					s0-0.3-0.2-0.4c-0.1-0.2-0.2-0.2-0.3-0.2C306.2,91.2,306.1,91.2,306,91.3z M309.3,106c0.1-0.2,0.2-0.3,0.3-0.5
					c0.1-0.1,0.2-0.2,0.4-0.1c0.1-0.1,0.3,0,0.4,0c0.1,0,0.2,0.1,0.3,0.3c0.1,0.1,0.1,0.2,0,0.4c0.1,0.2,0.1,0.4,0.1,0.6
					c0,0.3,0,0.5,0,0.7c0,0.2-0.1,0.3-0.3,0.4c-0.1,0.1-0.3,0.2-0.5,0.2c-0.2,0-0.4-0.1-0.5-0.3c-0.2-0.1-0.3-0.4-0.3-0.9
					C309.3,106.4,309.3,106.2,309.3,106z M308.6,105.4v1.7h0.3l0,0.3h-0.3v0.6l-0.4,0v-0.6h-1l0-0.3l1.1-1.6H308.6z M309.8,105.9
					c-0.1,0.1-0.2,0.4-0.2,0.8c0,0.4,0,0.6,0.1,0.8c0.2,0.1,0.3,0.2,0.4,0.2c0.2,0,0.3-0.1,0.4-0.2c0.1-0.2,0.1-0.4,0.1-0.8
					c0-0.4-0.1-0.7-0.1-0.8c-0.1-0.1-0.2-0.2-0.4-0.2C310,105.7,309.8,105.8,309.8,105.9z M308.3,107V106l-0.8,1.1L308.3,107z
					 M291,133.9c0.1,0,0.3-0.1,0.5-0.1s0.4,0.1,0.5,0.2c0.2,0.1,0.3,0.3,0.3,0.6c0,0.2-0.1,0.3-0.2,0.5c-0.2,0.2-0.4,0.3-0.6,0.3
					c-0.2,0-0.4-0.1-0.5-0.3c-0.1-0.1-0.2-0.2-0.2-0.4l0.3-0.1c0.1,0.2,0.1,0.3,0.2,0.4c0.1,0.1,0.2,0.1,0.4,0.1s0.3,0,0.3-0.1
					c0.1-0.1,0.1-0.3,0.1-0.4c0-0.2,0-0.3-0.1-0.4c-0.1-0.2-0.3-0.2-0.5-0.2c-0.1,0-0.1,0-0.2,0.2c0,0-0.1,0.1-0.2,0.1h-0.2l0.1-1.3
					l1.2,0.1l0.1,0.3h-1L291,133.9z M307.3,123c0.1-0.1,0.1-0.3,0.1-0.5c0-0.2,0-0.3-0.1-0.4c-0.1-0.1-0.3-0.2-0.4-0.2
					c-0.1,0-0.2,0-0.3,0.1c0,0-0.1,0.1-0.2,0.1h-0.3l0.3-1.3l1.2,0.1l0,0.3h-1l-0.3,0.6c0.2,0,0.4,0,0.5,0c0.2,0,0.4,0.1,0.5,0.2
					c0.2,0.1,0.2,0.3,0.2,0.6c0,0.2,0,0.4-0.2,0.5c-0.2,0.2-0.4,0.3-0.6,0.3c-0.2,0-0.4-0.1-0.5-0.3c-0.2-0.1-0.3-0.3-0.3-0.4
					l0.3-0.1c0,0.2,0.1,0.3,0.2,0.4c0.1,0.1,0.2,0.1,0.3,0.1C307.1,123,307.3,123,307.3,123z M305.5,120.8v1.6h0.3l0,0.3h-0.3v0.6
					h-0.3v-0.6l-1,0l0-0.3l1.1-1.7L305.5,120.8z M305.2,122.4v-1.1l-0.8,1.2L305.2,122.4z M293.6,133.1c0.1,0,0.2,0.1,0.3,0.2
					c0.1,0.1,0.1,0.2,0.1,0.4c0.1,0.2,0.1,0.4,0.2,0.6c-0.1,0.3-0.1,0.5-0.1,0.7c0,0.2-0.1,0.3-0.2,0.3c-0.2,0.1-0.3,0.2-0.5,0.3
					c-0.2,0-0.4-0.1-0.5-0.3c-0.2-0.2-0.3-0.5-0.3-1c0-0.3,0-0.6,0.1-0.7c0.1-0.2,0.2-0.3,0.3-0.5c0.2-0.1,0.3-0.1,0.5-0.1
					C293.4,132.9,293.5,133,293.6,133.1z M292.8,134.3c0,0.4,0.1,0.6,0.2,0.8c0.1,0.1,0.3,0.2,0.4,0.2c0.1,0,0.2-0.1,0.3-0.2
					c0.1-0.2,0.2-0.4,0.2-0.8c0-0.4-0.1-0.7-0.2-0.8c-0.1-0.1-0.2-0.2-0.4-0.2c-0.1,0-0.2,0.1-0.3,0.2
					C292.8,133.5,292.8,133.8,292.8,134.3z"/>
			</g>
			<g>
				
					<radialGradient id="SVGID_19_" cx="-187.6089" cy="102.207" r="3.4752" gradientTransform="matrix(0.9999 -1.079074e-002 0.2374 0.2806 438.7852 68.0007)" gradientUnits="userSpaceOnUse">
					<stop  offset="0" style="stop-color:#FFFFFF;stop-opacity:0.8314"/>
					<stop  offset="0.1294" style="stop-color:#FEFEFE;stop-opacity:0.6196"/>
					<stop  offset="0.5765" style="stop-color:#F9F9F9;stop-opacity:4.705882e-002"/>
					<stop  offset="1" style="stop-color:#F6F6F6;stop-opacity:0"/>
				</radialGradient>
				<path fill-rule="evenodd" clip-rule="evenodd" fill="url(#SVGID_19_)" d="M274.3,97.3c1.2,0,2.3,0.1,3.1,0.4
					c1.1,0.2,1.8,0.5,2.1,0.9c0.3,0.4,0.2,0.7-0.5,1c-0.6,0.2-1.5,0.3-2.5,0.3c-1.3,0-2.4-0.1-3.4-0.3c-1-0.3-1.7-0.6-2-1
					c-0.3-0.4-0.1-0.6,0.5-0.8C272.2,97.5,273.1,97.3,274.3,97.3z"/>
			</g>
		</g>
		<g>
			<g>
				<radialGradient id="SVGID_20_" cx="216.75" cy="111.2998" r="30.9" gradientUnits="userSpaceOnUse">
					<stop  offset="0" style="stop-color:#040404;stop-opacity:0.6118"/>
					<stop  offset="0.5961" style="stop-color:#020202;stop-opacity:0.1529"/>
					<stop  offset="1" style="stop-color:#000000;stop-opacity:0"/>
				</radialGradient>
				<polygon fill-rule="evenodd" clip-rule="evenodd" fill="url(#SVGID_20_)" points="231,99.5 249.1,127.5 219.4,148.7 
					199.1,116.8 				"/>
			</g>
			<g>
				
					<radialGradient id="SVGID_21_" cx="-147.1157" cy="-1052.3398" r="7.2709" gradientTransform="matrix(-0.9659 0.2589 0.1438 0.5365 204.1087 710.014)" gradientUnits="userSpaceOnUse">
					<stop  offset="0" style="stop-color:#333333"/>
					<stop  offset="0.6196" style="stop-color:#363838"/>
					<stop  offset="1" style="stop-color:#9C9FA1"/>
				</radialGradient>
				<path fill-rule="evenodd" clip-rule="evenodd" fill="url(#SVGID_21_)" d="M197.8,104.2l-7.5,1.8c-1.3,1.3-1.1,2.5,0.5,3.5
					l7.5-0.2c0,0.2,0.1,0.3,0.1,0.4h-7.9c-1.7-1.1-1.9-2.4-0.6-4l8-2C197.8,103.9,197.8,104,197.8,104.2z"/>
				
					<radialGradient id="SVGID_22_" cx="-147.2646" cy="-1050.8413" r="6.7403" gradientTransform="matrix(-0.9658 0.2592 0.1439 0.5362 203.7096 707.3414)" gradientUnits="userSpaceOnUse">
					<stop  offset="0" style="stop-color:#EAEAEA"/>
					<stop  offset="0.6196" style="stop-color:#9C9FA1"/>
					<stop  offset="1" style="stop-color:#9C9FA1"/>
				</radialGradient>
				<path fill-rule="evenodd" clip-rule="evenodd" fill="url(#SVGID_22_)" d="M197.8,104.2c-0.1,1.8,0,3.5,0.5,5.1l-7.5,0.2
					c-1.7-1-1.9-2.2-0.5-3.5L197.8,104.2z"/>
			</g>
			<g>
				<path fill-rule="evenodd" clip-rule="evenodd" d="M226.2,91.5c3.7,3.7,5.5,8.1,5.5,13.2c0,5.1-1.8,9.5-5.5,13.1
					c-3.6,3.7-8,5.5-13.1,5.5c-5.1,0-9.5-1.8-13.2-5.5c-3.6-3.6-5.4-8-5.4-13.1c0-5.1,1.8-9.5,5.4-13.2c3.7-3.6,8.1-5.5,13.2-5.5
					C218.2,86,222.6,87.9,226.2,91.5z"/>
			</g>
			<g>
				<linearGradient id="SVGID_23_" gradientUnits="userSpaceOnUse" x1="193.0732" y1="105.6484" x2="232.1219" y2="83.1211">
					<stop  offset="0" style="stop-color:#040404"/>
					<stop  offset="0.2549" style="stop-color:#040404"/>
					<stop  offset="0.349" style="stop-color:#484848"/>
					<stop  offset="0.4902" style="stop-color:#030303"/>
					<stop  offset="1" style="stop-color:#000000"/>
				</linearGradient>
				<path fill-rule="evenodd" clip-rule="evenodd" fill="url(#SVGID_23_)" d="M228.5,95.9l-31.4,7.7c0-0.5-0.1-1-0.1-1.5
					c0-4.5,1.6-8.3,4.8-11.5c3.2-3.2,7.1-4.8,11.6-4.8c4.5,0,8.4,1.6,11.5,4.8C226.5,92.2,227.7,94,228.5,95.9z"/>
				<path fill-rule="evenodd" clip-rule="evenodd" d="M197.1,103.6l31.4-7.7c0.8,1.9,1.2,4,1.2,6.2c0,4.5-1.6,8.4-4.9,11.6
					c-3.1,3.2-7,4.8-11.5,4.8c-4.5,0-8.3-1.6-11.6-4.8C199,110.8,197.4,107.5,197.1,103.6z"/>
			</g>
			<g>
				<path fill-rule="evenodd" clip-rule="evenodd" d="M224,103c0,3.2-1.2,6-3.5,8.3c-2.3,2.3-5,3.5-8.3,3.5c-3.2,0-6-1.2-8.4-3.5
					c-2.3-2.3-3.4-5-3.4-8.3s1.1-6,3.4-8.3c2.3-2.3,5.1-3.5,8.4-3.5c3.2,0,6,1.1,8.3,3.5C222.8,97,224,99.8,224,103z"/>
			</g>
			<g>
				<linearGradient id="SVGID_24_" gradientUnits="userSpaceOnUse" x1="211.5503" y1="115.9502" x2="211.5503" y2="93.8496">
					<stop  offset="0" style="stop-color:#393140"/>
					<stop  offset="0.502" style="stop-color:#121518"/>
					<stop  offset="1" style="stop-color:#2F4751"/>
				</linearGradient>
				<path fill-rule="evenodd" clip-rule="evenodd" fill="url(#SVGID_24_)" d="M203.8,112.7c-2.2-2.1-3.3-4.7-3.3-7.8
					c0-3,1.1-5.7,3.3-7.9c2.2-2.1,4.8-3.2,7.8-3.2c3,0,5.6,1.1,7.8,3.2c2.2,2.2,3.3,4.8,3.3,7.9c0,3-1.1,5.6-3.3,7.8
					c-2.2,2.2-4.8,3.3-7.8,3.3C208.5,116,205.9,114.8,203.8,112.7z"/>
			</g>
			<g>
				<linearGradient id="SVGID_25_" gradientUnits="userSpaceOnUse" x1="210.7363" y1="99.3643" x2="217.0913" y2="102.0776">
					<stop  offset="0" style="stop-color:#1D1D1D"/>
					<stop  offset="0.3647" style="stop-color:#131313"/>
					<stop  offset="0.4549" style="stop-color:#666666"/>
					<stop  offset="0.5843" style="stop-color:#0D0D0D"/>
					<stop  offset="1" style="stop-color:#000000"/>
				</linearGradient>
				<path fill-rule="evenodd" clip-rule="evenodd" fill="url(#SVGID_25_)" d="M217.6,99.7l-6.2,3.9v-0.1l-0.7-7c0.2,0,0.5,0,0.7,0
					c2.1,0,3.9,0.8,5.4,2.3C217.1,99,217.4,99.3,217.6,99.7z"/>
				<path fill-rule="evenodd" clip-rule="evenodd" fill="#0E0300" d="M206.4,110c-1.8-3.2-2.7-5.5-2.6-6.8v-0.1c0-0.1,0-0.1,0-0.1
					c0.3-1.7,2.8-1.4,7.4,1l0.1-0.3l0.1-0.1v0l6.2-3.9c0.3,0.3,0.5,0.7,0.7,1.1c0.5,1,0.8,2.2,0.8,3.4c0,2.1-0.8,3.9-2.3,5.4
					c-1.5,1.5-3.3,2.3-5.4,2.3C209.5,111.9,207.8,111.3,206.4,110z"/>
				<linearGradient id="SVGID_26_" gradientUnits="userSpaceOnUse" x1="208.6523" y1="102.749" x2="213.6163" y2="99.8301">
					<stop  offset="0" style="stop-color:#000000"/>
					<stop  offset="0.1451" style="stop-color:#464646"/>
					<stop  offset="0.2667" style="stop-color:#AAAAAA"/>
					<stop  offset="0.5059" style="stop-color:#656565"/>
					<stop  offset="0.7059" style="stop-color:#191919"/>
					<stop  offset="1" style="stop-color:#000000"/>
				</linearGradient>
				<path fill-rule="evenodd" clip-rule="evenodd" fill="url(#SVGID_26_)" d="M203.8,103.2c-0.1,1.3,0.8,3.6,2.6,6.8
					c-0.1-0.1-0.3-0.2-0.4-0.4c-0.9-0.9-1.6-1.9-1.9-3.1c-0.2-0.7-0.3-1.5-0.3-2.3C203.7,103.8,203.7,103.5,203.8,103.2z
					 M210.8,96.5l0.7,7v0.1v0l-0.1,0.1l-0.1,0.3c-4.6-2.4-7.1-2.7-7.4-1c0-0.1,0-0.1,0-0.2c0-0.2,0.1-0.5,0.2-0.7
					c0.3-1.2,1-2.3,2-3.3c0.4-0.4,0.9-0.8,1.4-1.1C208.4,96.9,209.5,96.6,210.8,96.5z"/>
			</g>
			<g>
				
					<radialGradient id="SVGID_27_" cx="-654.375" cy="-467.6206" r="5.7581" gradientTransform="matrix(-0.4559 -0.89 0.5536 -0.254 166.394 -608.142)" gradientUnits="userSpaceOnUse">
					<stop  offset="0" style="stop-color:#FFFFFF;stop-opacity:0.8314"/>
					<stop  offset="0.1294" style="stop-color:#FEFEFE;stop-opacity:0.6196"/>
					<stop  offset="0.5765" style="stop-color:#F9F9F9;stop-opacity:4.705882e-002"/>
					<stop  offset="1" style="stop-color:#F6F6F6;stop-opacity:0"/>
				</radialGradient>
				<path fill-rule="evenodd" clip-rule="evenodd" fill="url(#SVGID_27_)" d="M202.5,87c1.2-0.6,2.5-0.5,4,0.5
					c1.3,0.9,2.4,2.1,3.3,3.7c0.8,1.8,1.2,3.4,1.2,5c-0.3,1.6-1.1,2.7-2.4,3.3c-1.2,0.6-2.4,0.4-3.7-0.5c-1.6-0.8-2.8-2.1-3.6-3.8
					c-0.8-1.7-1.1-3.3-0.9-4.8C200.5,88.7,201.2,87.6,202.5,87z"/>
			</g>
			<g>
				
					<radialGradient id="SVGID_28_" cx="-407.5313" cy="156.5449" r="3.4786" gradientTransform="matrix(0.981 -0.194 0.2839 0.23 567.9955 0.7694)" gradientUnits="userSpaceOnUse">
					<stop  offset="0" style="stop-color:#FFFFFF;stop-opacity:0.8314"/>
					<stop  offset="0.1294" style="stop-color:#FEFEFE;stop-opacity:0.6196"/>
					<stop  offset="0.5765" style="stop-color:#F9F9F9;stop-opacity:4.705882e-002"/>
					<stop  offset="1" style="stop-color:#F6F6F6;stop-opacity:0"/>
				</radialGradient>
				<path fill-rule="evenodd" clip-rule="evenodd" fill="url(#SVGID_28_)" d="M211.2,114.7c1.2-0.2,2.2-0.3,3.1-0.3
					c1.1,0.1,1.9,0.3,2.3,0.5c0.4,0.3,0.3,0.6-0.4,1c-0.6,0.4-1.4,0.6-2.4,0.8c-1.2,0.2-2.3,0.4-3.4,0.4c-1.1-0.1-1.8-0.3-2.1-0.6
					c-0.4-0.3-0.3-0.6,0.4-1C209.3,115.2,210.1,114.9,211.2,114.7z"/>
			</g>
			<g>
				
					<radialGradient id="SVGID_29_" cx="229.3501" cy="102.0498" r="6.7367" gradientTransform="matrix(0.9927 -0.1205 6.687540e-002 0.5511 -5.1543 73.4421)" gradientUnits="userSpaceOnUse">
					<stop  offset="0" style="stop-color:#9D9D9D"/>
					<stop  offset="0.3686" style="stop-color:#333F48"/>
					<stop  offset="0.6196" style="stop-color:#192B39"/>
					<stop  offset="1" style="stop-color:#000000"/>
				</radialGradient>
				<path fill-rule="evenodd" clip-rule="evenodd" fill="url(#SVGID_29_)" d="M226.9,106.7c0.5-2,0.3-4-0.7-5.9l8.8-0.1
					c1.2,1.2,1.3,2.4,0.4,3.7L226.9,106.7z"/>
			</g>
			<g>
				<path fill-rule="evenodd" clip-rule="evenodd" d="M188.3,87.7c-0.1,0.1-0.2,0.2-0.2,0.3l-0.3,0c0-0.2,0.1-0.4,0.3-0.5
					c0.2-0.1,0.4-0.2,0.5-0.2c0.2,0,0.4,0.1,0.6,0.2c0.1,0.1,0.1,0.3,0.1,0.5c0,0.1,0,0.2,0,0.3c0,0.1-0.1,0.2-0.1,0.3
					c-0.1,0.1-0.3,0.3-0.6,0.5c-0.1,0.1-0.2,0.2-0.3,0.3c-0.1,0.1-0.1,0.1-0.1,0.2h1.2v0.3h-1.6c0-0.1,0-0.2,0-0.3
					c0.1-0.1,0.2-0.2,0.3-0.3c0.1-0.1,0.2-0.2,0.4-0.4c0.3-0.2,0.4-0.4,0.5-0.5c0.1-0.1,0.2-0.2,0.2-0.3c0-0.1,0-0.2-0.1-0.4
					c-0.1-0.1-0.2-0.1-0.4-0.1S188.3,87.5,188.3,87.7z M190.1,87.7c-0.1,0.2-0.1,0.5-0.1,0.9c0,0.4,0,0.6,0.1,0.8
					c0.1,0.1,0.3,0.2,0.4,0.2c0.2,0,0.3,0,0.4-0.2c0.1-0.2,0.1-0.4,0.1-0.8c0-0.4,0-0.7-0.1-0.8c-0.1-0.2-0.2-0.3-0.4-0.3
					C190.3,87.5,190.2,87.5,190.1,87.7z M190.4,87.3c0.2,0,0.3,0,0.4,0.1c0.1,0.1,0.2,0.1,0.3,0.2c0.1,0.1,0.1,0.3,0.2,0.4
					c0,0.1,0,0.3,0,0.6s0,0.5-0.1,0.7c-0.1,0.2-0.2,0.3-0.3,0.4c-0.1,0.1-0.3,0.2-0.5,0.2c-0.2,0-0.4-0.1-0.5-0.3
					c-0.2-0.2-0.3-0.5-0.3-1c0-0.3,0-0.6,0.1-0.7c0.1-0.2,0.2-0.3,0.3-0.4C190.1,87.3,190.3,87.3,190.4,87.3z M187.2,93.9
					c0.2,0,0.4,0.1,0.5,0.2c0.1,0.1,0.2,0.3,0.2,0.5c0,0.1,0,0.2-0.1,0.3c0,0.1-0.1,0.1-0.2,0.3c-0.1,0.1-0.3,0.3-0.5,0.5
					c-0.2,0.1-0.3,0.2-0.4,0.3c0,0-0.1,0.1-0.1,0.2h1.2v0.3h-1.6c0-0.1,0-0.1,0-0.2c0.1-0.1,0.1-0.2,0.2-0.3
					c0.1-0.1,0.2-0.2,0.4-0.4c0.3-0.2,0.4-0.4,0.5-0.5c0.1-0.1,0.1-0.3,0.1-0.4c0-0.1,0-0.2-0.1-0.3c-0.1-0.1-0.3-0.1-0.3-0.1
					c-0.2,0-0.3,0-0.4,0.1c-0.1,0.1-0.1,0.2-0.1,0.4l-0.3-0.1c0-0.2,0.1-0.4,0.3-0.5C186.8,94,187,93.9,187.2,93.9z M190.5,94.7
					c0.1,0,0.2,0.1,0.2,0.3c0.1-0.2,0.3-0.4,0.6-0.4c0.2,0,0.3,0,0.4,0.2c0.1,0.1,0.1,0.3,0.1,0.5v1.2h-0.3v-1.1
					c0-0.1,0-0.2-0.1-0.3c0-0.1,0-0.1-0.1-0.1c0,0-0.1-0.1-0.1-0.1c-0.1,0-0.2,0-0.3,0.1c-0.1,0.1-0.1,0.2-0.1,0.4v1h-0.4v-1.1
					c0-0.2,0-0.3-0.1-0.3c0-0.1-0.1-0.1-0.3-0.1c-0.1,0-0.1,0-0.2,0.1c-0.1,0-0.2,0.1-0.2,0.1c0,0.1,0,0.3,0,0.4v0.9h-0.3v-1.8h0.3
					v0.3c0-0.1,0.1-0.2,0.3-0.2c0.1-0.1,0.1-0.1,0.3-0.1C190.3,94.5,190.4,94.6,190.5,94.7z M185.4,101.3c0.2,0,0.3,0,0.5,0
					c0.1,0.1,0.1,0.2,0.2,0.3c0.1,0.1,0.1,0.2,0.2,0.4c0,0.1,0,0.3,0,0.5s0,0.5-0.1,0.7c-0.1,0.2-0.1,0.3-0.3,0.4
					c-0.1,0.1-0.3,0.1-0.5,0.1c-0.2,0-0.4-0.1-0.5-0.3c-0.2-0.2-0.3-0.5-0.3-1c0-0.3,0-0.5,0.1-0.7c0.1-0.2,0.1-0.3,0.3-0.4
					C185.1,101.3,185.3,101.3,185.4,101.3z M185.1,101.7c-0.1,0.2-0.2,0.5-0.2,0.8c0,0.4,0,0.7,0.1,0.8c0.1,0.1,0.2,0.2,0.3,0.2
					c0.2,0,0.3-0.1,0.5-0.2c0.1-0.1,0.1-0.4,0.1-0.8c0-0.4,0-0.7-0.1-0.8c-0.1-0.1-0.3-0.2-0.5-0.2
					C185.3,101.5,185.2,101.6,185.1,101.7z M183.6,101.5c-0.2,0-0.3,0-0.4,0.2c-0.1,0.1-0.1,0.2-0.1,0.3l-0.3,0
					c0-0.2,0.1-0.4,0.2-0.5c0.2-0.1,0.4-0.2,0.6-0.2s0.4,0,0.5,0.2c0.1,0.2,0.2,0.3,0.2,0.5c0,0.1,0,0.2-0.1,0.3
					c-0.1,0.1-0.1,0.2-0.2,0.3c-0.1,0.1-0.3,0.3-0.5,0.5c-0.2,0.2-0.3,0.3-0.4,0.3c0,0-0.1,0.1-0.1,0.2h1.2v0.3h-1.6
					c0-0.1,0-0.1,0-0.2c0.1-0.1,0.1-0.2,0.2-0.3c0.1-0.1,0.2-0.2,0.4-0.4c0.3-0.2,0.4-0.4,0.5-0.5c0.1-0.1,0.1-0.3,0.1-0.3
					c0-0.1,0-0.3-0.1-0.3C183.8,101.6,183.7,101.5,183.6,101.5z M189.9,102.1c0.1,0.1,0.1,0.2,0.1,0.5v1.2h-0.3v-1.2
					c0-0.1,0-0.2-0.1-0.2c0-0.1,0-0.2-0.1-0.2c0,0-0.1,0-0.1,0c-0.1,0-0.2,0-0.3,0.1c-0.1,0.1-0.1,0.2-0.1,0.4v1h-0.4v-1.2
					c0-0.1,0-0.2-0.1-0.3c0-0.1-0.1-0.1-0.2-0.1c-0.1,0-0.1,0-0.3,0c-0.1,0.1-0.1,0.1-0.1,0.2c0,0.1-0.1,0.2-0.1,0.4v0.9h-0.3V102
					h0.3v0.2c0-0.1,0.1-0.1,0.2-0.2c0.1-0.1,0.2-0.1,0.3-0.1c0.2,0,0.3,0,0.4,0.1c0.1,0,0.1,0.1,0.1,0.2c0.2-0.2,0.4-0.3,0.6-0.3
					C189.6,102,189.8,102,189.9,102.1z M187.1,109.5c0.1,0,0.3,0,0.4,0c0.1,0.1,0.1,0.2,0.2,0.3c0.1,0.1,0.2,0.2,0.2,0.4
					c0,0.1,0,0.3,0,0.5s0,0.5,0,0.7c-0.1,0.2-0.2,0.3-0.3,0.4c-0.1,0.1-0.3,0.1-0.4,0.1c-0.2,0-0.4-0.1-0.6-0.3
					c-0.2-0.2-0.3-0.5-0.3-1c0-0.3,0-0.5,0.1-0.7c0.1-0.2,0.2-0.3,0.3-0.4C186.8,109.6,186.9,109.5,187.1,109.5z M185.9,109.8
					c0.1,0.1,0.1,0.2,0.1,0.4c0,0.1,0,0.3,0,0.5s0,0.5,0,0.7c-0.1,0.2-0.2,0.3-0.3,0.4c-0.1,0.1-0.3,0.1-0.4,0.1
					c-0.2,0-0.4-0.1-0.5-0.3c-0.2-0.2-0.3-0.5-0.3-1c0-0.3,0-0.5,0.1-0.7c0.1-0.2,0.2-0.3,0.3-0.4c0.1-0.1,0.2-0.1,0.4-0.1
					c0.1,0,0.3,0,0.4,0C185.7,109.7,185.8,109.8,185.9,109.8z M186.8,110c-0.1,0.2-0.1,0.5-0.1,0.8c0,0.4,0,0.7,0.1,0.8
					c0.1,0.1,0.2,0.2,0.4,0.2s0.3-0.1,0.4-0.2c0.1-0.1,0.1-0.4,0.1-0.8c0-0.4,0-0.7-0.1-0.8c-0.1-0.1-0.3-0.2-0.4-0.2
					S186.9,109.8,186.8,110z M185.6,110c-0.1-0.1-0.3-0.2-0.4-0.2s-0.2,0-0.3,0.2c-0.1,0.2-0.1,0.5-0.1,0.8c0,0.4,0,0.7,0.1,0.8
					c0.1,0.1,0.2,0.2,0.4,0.2s0.3-0.1,0.4-0.2c0.1-0.1,0.1-0.4,0.1-0.8C185.7,110.4,185.7,110.1,185.6,110z M190,110.5
					c-0.1,0-0.1,0-0.2,0c-0.1,0.1-0.2,0.1-0.2,0.2c0,0.1-0.1,0.2-0.1,0.4v0.9h-0.3v-1.8h0.3v0.2c0-0.1,0.1-0.1,0.3-0.2
					c0.1-0.1,0.2-0.1,0.3-0.1c0.2,0,0.3,0,0.4,0.1c0.1,0,0.1,0.1,0.2,0.2c0.1-0.2,0.3-0.3,0.5-0.3c0.2,0,0.3,0,0.4,0.1
					c0.1,0.1,0.1,0.2,0.1,0.5v1.2h-0.3v-1.2c0-0.1,0-0.2-0.1-0.2c0-0.1,0-0.2-0.1-0.2c0,0-0.1,0-0.2,0c-0.1,0-0.2,0-0.3,0.1
					c-0.1,0.1-0.1,0.2-0.1,0.4v1h-0.4v-1.2c0-0.1,0-0.2,0-0.3C190.2,110.5,190.1,110.5,190,110.5z M183,110
					c-0.1,0.1-0.1,0.2-0.1,0.3l-0.3,0c0-0.2,0.1-0.4,0.3-0.5c0.1-0.1,0.3-0.2,0.6-0.2s0.4,0,0.6,0.2c0.1,0.2,0.1,0.3,0.1,0.5
					c0,0.1,0,0.2-0.1,0.3c0,0.1-0.1,0.2-0.1,0.3c-0.1,0.1-0.3,0.3-0.5,0.5c-0.1,0.2-0.3,0.3-0.4,0.3c0,0-0.1,0.1-0.1,0.2h1.2v0.3
					h-1.6c0-0.1,0-0.1,0-0.2c0.1-0.1,0.1-0.2,0.3-0.3c0.1-0.1,0.2-0.3,0.4-0.4c0.3-0.2,0.4-0.4,0.5-0.5c0.1-0.1,0.1-0.3,0.1-0.3
					c0-0.1,0-0.3-0.1-0.3c-0.1-0.1-0.2-0.1-0.4-0.1S183.1,109.8,183,110z M185.1,117.8v-0.3c0.1-0.1,0.3-0.2,0.4-0.3
					c0.1-0.1,0.2-0.2,0.3-0.3h0.2v2.4h-0.3v-1.9c-0.1,0.1-0.2,0.1-0.3,0.2C185.3,117.7,185.2,117.8,185.1,117.8z M187.1,117
					c0.1-0.1,0.2-0.1,0.4-0.1c0.1,0,0.3,0,0.4,0c0.1,0.1,0.1,0.1,0.2,0.2c0.1,0.1,0.2,0.3,0.2,0.4c0,0.1,0,0.3,0,0.6s0,0.5,0,0.7
					c-0.1,0.2-0.2,0.3-0.3,0.4c-0.1,0.1-0.3,0.2-0.5,0.2c-0.2,0-0.4-0.1-0.5-0.3c-0.2-0.2-0.3-0.5-0.3-0.9c0-0.3,0-0.5,0.1-0.7
					C186.9,117.3,187,117.1,187.1,117z M187.2,117.3c-0.1,0.1-0.2,0.4-0.2,0.9c0,0.4,0,0.6,0.1,0.8c0.1,0.1,0.2,0.1,0.4,0.1
					s0.3,0,0.4-0.1c0.1-0.2,0.1-0.4,0.1-0.8c0-0.4,0-0.7-0.1-0.8c-0.1-0.2-0.3-0.3-0.4-0.3S187.3,117.2,187.2,117.3z M190.2,117.5
					c0,0.1,0,0.3,0,0.6s0,0.5-0.1,0.7c-0.1,0.2-0.1,0.3-0.3,0.4c-0.1,0.1-0.3,0.2-0.5,0.2c-0.2,0-0.4-0.1-0.5-0.3
					c-0.2-0.2-0.3-0.5-0.3-0.9c0-0.3,0.1-0.5,0.2-0.7c0.1-0.2,0.2-0.4,0.3-0.5c0.1-0.1,0.2-0.1,0.4-0.1c0.1,0,0.3,0,0.4,0
					c0.1,0.1,0.1,0.1,0.2,0.2C190.1,117.3,190.1,117.4,190.2,117.5z M189.4,117.1c-0.1,0-0.2,0.1-0.3,0.2c-0.1,0.1-0.2,0.4-0.2,0.9
					c0,0.4,0.1,0.6,0.1,0.8c0.1,0.1,0.2,0.1,0.4,0.1s0.3,0,0.4-0.1c0.1-0.2,0.1-0.4,0.1-0.8c0-0.4,0-0.7-0.1-0.8
					C189.7,117.2,189.5,117.1,189.4,117.1z M195.8,88.3c0.1-0.2,0.3-0.3,0.6-0.3c0.2,0,0.3,0,0.4,0.1c0.1,0.1,0.1,0.3,0.1,0.5v1.2
					h-0.3v-1.2c0-0.1,0-0.2-0.1-0.3c0-0.1,0-0.1-0.1-0.1c0,0-0.1,0-0.1,0c-0.1,0-0.2,0-0.3,0.1c-0.1,0.1-0.1,0.2-0.1,0.4v1h-0.4
					v-1.2c0-0.2,0-0.3,0-0.3c0-0.1-0.1-0.1-0.3-0.1c-0.1,0-0.1,0-0.2,0c-0.1,0-0.2,0.1-0.2,0.2c0,0.1,0,0.3,0,0.4v1h-0.3V88h0.3v0.3
					c0-0.1,0.1-0.2,0.3-0.2c0.1-0.1,0.2-0.1,0.3-0.1s0.2,0,0.3,0.1C195.7,88,195.8,88.1,195.8,88.3z M191.9,87.4
					c0.1-0.1,0.2-0.2,0.4-0.2c0.2,0,0.3,0,0.4,0.1c0.1,0.1,0.1,0.1,0.3,0.2c0.1,0.1,0.1,0.3,0.1,0.4c0,0.1,0,0.3,0,0.6
					s0,0.5-0.1,0.7c-0.1,0.2-0.2,0.3-0.3,0.4c-0.1,0.1-0.3,0.2-0.5,0.2c-0.2,0-0.4-0.1-0.5-0.3c-0.2-0.2-0.3-0.5-0.3-1
					c0-0.3,0-0.6,0.1-0.7C191.7,87.7,191.8,87.5,191.9,87.4z M192,87.7c-0.1,0.2-0.1,0.5-0.1,0.9c0,0.4,0,0.6,0.1,0.8
					c0.1,0.1,0.3,0.2,0.3,0.2c0.2,0,0.3,0,0.4-0.2c0.1-0.2,0.1-0.4,0.1-0.8c0-0.4,0-0.7-0.1-0.8c-0.1-0.2-0.2-0.3-0.4-0.3
					C192.2,87.5,192.1,87.5,192,87.7z M198.1,89.2c0-0.3,0.1-0.5,0.2-0.7c0.2-0.1,0.4-0.2,0.7-0.2c0.3,0,0.5,0.1,0.7,0.2
					c0.2,0.2,0.3,0.4,0.3,0.7s-0.1,0.5-0.3,0.6c-0.2,0.2-0.4,0.3-0.7,0.3c-0.3,0-0.5-0.1-0.7-0.3C198.2,89.6,198.1,89.4,198.1,89.2z
					 M195.4,95.5c0,0.3-0.1,0.5-0.3,0.7c-0.2,0.2-0.4,0.3-0.6,0.3c-0.3,0-0.5-0.1-0.7-0.3c-0.2-0.2-0.3-0.4-0.3-0.7s0.1-0.5,0.3-0.6
					c0.2-0.2,0.4-0.3,0.7-0.3c0.3,0,0.5,0.1,0.6,0.3C195.3,95.1,195.4,95.3,195.4,95.5z M191.7,102.9c0-0.3,0.1-0.5,0.3-0.7
					c0.2-0.1,0.4-0.2,0.7-0.2s0.5,0.1,0.6,0.2c0.2,0.2,0.3,0.4,0.3,0.7s-0.1,0.5-0.3,0.6c-0.1,0.2-0.3,0.3-0.6,0.3s-0.5-0.1-0.7-0.3
					C191.8,103.4,191.7,103.2,191.7,102.9z M192.9,110.5c0.2-0.1,0.4-0.2,0.7-0.2c0.3,0,0.5,0.1,0.7,0.2c0.2,0.2,0.3,0.4,0.3,0.7
					s-0.1,0.5-0.3,0.6c-0.2,0.2-0.4,0.3-0.7,0.3c-0.3,0-0.5-0.1-0.7-0.3c-0.1-0.2-0.2-0.4-0.2-0.6S192.7,110.7,192.9,110.5z
					 M192,117.5c0,0.1,0,0.3,0,0.6s0,0.5,0,0.7c-0.1,0.2-0.2,0.3-0.3,0.4c-0.1,0.1-0.3,0.2-0.5,0.2c-0.2,0-0.4-0.1-0.5-0.3
					c-0.2-0.2-0.3-0.5-0.3-0.9c0-0.3,0-0.5,0.1-0.7c0.1-0.2,0.1-0.4,0.3-0.5c0.1-0.1,0.3-0.1,0.4-0.1c0.2,0,0.3,0,0.4,0
					c0.1,0.1,0.2,0.1,0.3,0.2C192,117.3,192,117.4,192,117.5z M191,117.3c-0.1,0.1-0.2,0.4-0.2,0.9c0,0.4,0,0.6,0.1,0.8
					c0.1,0.1,0.3,0.1,0.4,0.1c0.2,0,0.3,0,0.4-0.1c0.1-0.2,0.1-0.4,0.1-0.8c0-0.4,0-0.7-0.1-0.8c-0.1-0.2-0.2-0.3-0.4-0.3
					C191.1,117.1,191.1,117.2,191,117.3z M193.8,117.5v0.3c0-0.1,0.1-0.1,0.2-0.2c0.1-0.1,0.2-0.1,0.3-0.1s0.3,0,0.4,0.1
					c0.1,0.1,0.1,0.2,0.1,0.3c0.2-0.2,0.4-0.3,0.6-0.3c0.1,0,0.3,0.1,0.4,0.2c0.1,0.1,0.1,0.2,0.1,0.5v1.2h-0.3v-1.1
					c0-0.1,0-0.2,0-0.3c0-0.1,0-0.1-0.1-0.1c0,0-0.1,0-0.2,0c-0.1,0-0.2,0-0.3,0.1c-0.1,0.1-0.2,0.2-0.2,0.4v1h-0.3v-1.1
					c0-0.2,0-0.3-0.1-0.3c0-0.1-0.1-0.1-0.2-0.1c-0.1,0-0.2,0-0.3,0c-0.1,0-0.1,0.1-0.2,0.2c0,0.1,0,0.3,0,0.5v0.9h-0.3v-1.8H193.8z
					 M197.2,118.3c0-0.3,0.1-0.5,0.3-0.7c0.2-0.1,0.4-0.2,0.7-0.2s0.5,0.1,0.6,0.2c0.2,0.2,0.3,0.4,0.3,0.7s-0.1,0.5-0.3,0.7
					c-0.1,0.2-0.3,0.3-0.6,0.3s-0.5-0.1-0.7-0.3C197.3,118.7,197.2,118.5,197.2,118.3z"/>
			</g>
		</g>
		
			<use xlink:href="#button2_x5F_cd"  width="51.3" height="54.7" x="-19.9" y="-39" transform="matrix(1.1455 0 0 -1.1455 336.3496 104.0996)" overflow="visible"/>
		<g>
			<g>
				<radialGradient id="SVGID_30_" cx="26.6499" cy="101.7002" r="21.6375" gradientUnits="userSpaceOnUse">
					<stop  offset="0" style="stop-color:#040404;stop-opacity:0.6118"/>
					<stop  offset="0.5961" style="stop-color:#020202;stop-opacity:0.1529"/>
					<stop  offset="1" style="stop-color:#000000;stop-opacity:0"/>
				</radialGradient>
				<polygon fill-rule="evenodd" clip-rule="evenodd" fill="url(#SVGID_30_)" points="49.3,113 28.5,127.9 14.3,105.5 36.7,93.4 
									"/>
			</g>
			<g>
				<path fill-rule="evenodd" clip-rule="evenodd" d="M26.5,82.4c4.1,0,7.5,1.4,10.4,4.3c2.9,2.9,4.4,6.4,4.4,10.5
					c0,4.1-1.5,7.5-4.4,10.5c-2.9,2.9-6.3,4.3-10.4,4.3c-4.1,0-7.7-1.5-10.6-4.3c-2.9-2.9-4.3-6.4-4.3-10.5c0-4.1,1.4-7.6,4.3-10.5
					C18.8,83.8,22.3,82.4,26.5,82.4z"/>
			</g>
			<g>
				<path fill-rule="evenodd" clip-rule="evenodd" d="M24.1,84c3.6,0,6.6,1.3,9.1,3.8c2.6,2.6,3.9,5.6,3.9,9.2
					c0,3.6-1.3,6.7-3.9,9.2c-2.5,2.6-5.6,3.8-9.1,3.8c-3.6,0-6.7-1.3-9.3-3.8c-2.5-2.5-3.8-5.6-3.8-9.2c0-3.6,1.3-6.6,3.8-9.2
					C17.4,85.3,20.5,84,24.1,84z"/>
			</g>
			<g>
				<linearGradient id="SVGID_31_" gradientUnits="userSpaceOnUse" x1="10.0986" y1="97.7559" x2="37.4373" y2="81.9612">
					<stop  offset="0" style="stop-color:#040404"/>
					<stop  offset="0.2549" style="stop-color:#040404"/>
					<stop  offset="0.349" style="stop-color:#484848"/>
					<stop  offset="0.4902" style="stop-color:#030303"/>
					<stop  offset="1" style="stop-color:#000000"/>
				</linearGradient>
				<path fill-rule="evenodd" clip-rule="evenodd" fill="url(#SVGID_31_)" d="M34.9,91l-22,5.3c0-0.3,0-0.7,0-1
					c0-3.1,1.1-5.8,3.4-8.1c2.3-2.2,5-3.3,8.1-3.3s5.8,1.1,8.1,3.3C33.5,88.3,34.3,89.5,34.9,91z"/>
				<path fill-rule="evenodd" clip-rule="evenodd" d="M12.9,96.3l22-5.3c0.5,1.3,0.8,2.8,0.8,4.3c0,3.2-1.1,5.9-3.4,8.1
					s-4.9,3.4-8.1,3.4s-5.8-1.1-8.1-3.4C14.2,101.4,13.1,99,12.9,96.3z"/>
			</g>
			<g>
				<path fill-rule="evenodd" clip-rule="evenodd" d="M23.5,87.6c2.3,0,4.2,0.8,5.8,2.4c1.6,1.7,2.5,3.6,2.5,5.8
					c0,2.3-0.8,4.2-2.5,5.8c-1.6,1.6-3.5,2.4-5.8,2.4c-2.2,0-4.1-0.8-5.8-2.4c-1.6-1.6-2.4-3.5-2.4-5.8c0-2.2,0.8-4.2,2.4-5.8
					C19.3,88.4,21.3,87.6,23.5,87.6z"/>
			</g>
			<g>
				<linearGradient id="SVGID_32_" gradientUnits="userSpaceOnUse" x1="23" y1="104.9873" x2="23" y2="89.5123">
					<stop  offset="0" style="stop-color:#393140"/>
					<stop  offset="0.502" style="stop-color:#121518"/>
					<stop  offset="1" style="stop-color:#2F4751"/>
				</linearGradient>
				<path fill-rule="evenodd" clip-rule="evenodd" fill="url(#SVGID_32_)" d="M23,89.5c2.1,0,3.9,0.8,5.5,2.3
					c1.5,1.5,2.3,3.4,2.3,5.5c0,2.1-0.8,3.9-2.3,5.3c-1.5,1.6-3.4,2.4-5.5,2.4s-3.9-0.8-5.5-2.4c-1.5-1.5-2.3-3.3-2.3-5.3
					c0-2.1,0.8-4,2.3-5.5C19.1,90.3,20.9,89.5,23,89.5z"/>
			</g>
			<g>
				<linearGradient id="SVGID_33_" gradientUnits="userSpaceOnUse" x1="22.4111" y1="93.3369" x2="26.8675" y2="95.2471">
					<stop  offset="0" style="stop-color:#1D1D1D"/>
					<stop  offset="0.3647" style="stop-color:#131313"/>
					<stop  offset="0.4549" style="stop-color:#666666"/>
					<stop  offset="0.5843" style="stop-color:#0D0D0D"/>
					<stop  offset="1" style="stop-color:#000000"/>
				</linearGradient>
				<path fill-rule="evenodd" clip-rule="evenodd" fill="url(#SVGID_33_)" d="M27.3,93.5L23,96.3v-0.1l-0.6-4.9c0.2,0,0.4,0,0.6,0
					c1.4,0,2.7,0.5,3.8,1.6C26.9,93.1,27.1,93.3,27.3,93.5z"/>
				<linearGradient id="SVGID_34_" gradientUnits="userSpaceOnUse" x1="20.9951" y1="95.7129" x2="24.4846" y2="93.6699">
					<stop  offset="0" style="stop-color:#000000"/>
					<stop  offset="0.1451" style="stop-color:#464646"/>
					<stop  offset="0.2667" style="stop-color:#AAAAAA"/>
					<stop  offset="0.5059" style="stop-color:#656565"/>
					<stop  offset="0.7059" style="stop-color:#191919"/>
					<stop  offset="1" style="stop-color:#000000"/>
				</linearGradient>
				<path fill-rule="evenodd" clip-rule="evenodd" fill="url(#SVGID_34_)" d="M17.5,96c-0.1,0.9,0.5,2.5,1.8,4.8
					c-0.1-0.1-0.2-0.2-0.3-0.3c-0.6-0.7-1-1.4-1.3-2.2c-0.2-0.5-0.3-1.1-0.3-1.6C17.5,96.4,17.5,96.2,17.5,96z M22.4,91.3l0.6,4.9
					v0.1h-0.1l-0.1,0.3c-3.2-1.7-4.9-1.9-5.1-0.7c0,0,0-0.1,0-0.1c0-0.2,0-0.3,0.1-0.5c0.2-0.9,0.6-1.7,1.3-2.3
					c0.3-0.3,0.7-0.6,1.1-0.8C20.8,91.6,21.6,91.4,22.4,91.3z"/>
				<path fill-rule="evenodd" clip-rule="evenodd" fill="#0E0300" d="M19.4,100.8c-1.3-2.3-1.9-3.8-1.8-4.8v-0.1l0.1-0.1
					c0.2-1.2,1.9-1,5.1,0.7l0.1-0.3H23l4.3-2.8c0.2,0.3,0.4,0.5,0.5,0.8c0.4,0.7,0.5,1.5,0.5,2.4c0,1.5-0.5,2.8-1.6,3.8
					c-1.1,1.1-2.3,1.6-3.8,1.6C21.6,102.1,20.4,101.7,19.4,100.8z"/>
			</g>
			<g>
				
					<radialGradient id="SVGID_35_" cx="-54.2822" cy="-1001.8022" r="1.8146" gradientTransform="matrix(-0.9851 0.1722 -7.577383e-002 -0.5993 -110.8317 -493.284)" gradientUnits="userSpaceOnUse">
					<stop  offset="0" style="stop-color:#FFFFFF;stop-opacity:0.498"/>
					<stop  offset="0.1804" style="stop-color:#FEFEFE;stop-opacity:0.2"/>
					<stop  offset="0.5686" style="stop-color:#F9F9F9;stop-opacity:4.705882e-002"/>
					<stop  offset="1" style="stop-color:#F6F6F6;stop-opacity:0"/>
				</radialGradient>
				<path fill-rule="evenodd" clip-rule="evenodd" fill="url(#SVGID_35_)" d="M17.2,99.2c-0.5-0.2-0.7-0.5-0.8-1
					c0-0.4,0.1-0.8,0.5-1.1c0.4-0.3,0.9-0.5,1.5-0.6c0.6-0.1,1.1-0.1,1.6,0.1c0.5,0.2,0.7,0.5,0.8,1c0.1,0.5-0.1,0.8-0.5,1.1
					c-0.4,0.4-0.9,0.7-1.5,0.8C18.1,99.4,17.6,99.4,17.2,99.2z"/>
			</g>
			<g>
				
					<radialGradient id="SVGID_36_" cx="-571.8608" cy="-631.0806" r="2.9909" gradientTransform="matrix(-0.4556 -0.8902 0.5559 -0.2549 109.6281 -582.0649)" gradientUnits="userSpaceOnUse">
					<stop  offset="0" style="stop-color:#FFFFFF;stop-opacity:0.8314"/>
					<stop  offset="0.1294" style="stop-color:#FEFEFE;stop-opacity:0.6196"/>
					<stop  offset="0.5765" style="stop-color:#F9F9F9;stop-opacity:4.705882e-002"/>
					<stop  offset="1" style="stop-color:#F6F6F6;stop-opacity:0"/>
				</radialGradient>
				<path fill-rule="evenodd" clip-rule="evenodd" fill="url(#SVGID_36_)" d="M17.5,84.8c0.7-0.3,1.4-0.2,2.1,0.3
					c0.7,0.4,1.3,1,1.8,1.9c0.4,0.9,0.6,1.8,0.6,2.6c-0.1,0.8-0.5,1.4-1.2,1.7c-0.6,0.3-1.3,0.3-2-0.3c-0.8-0.4-1.5-1.1-1.9-2
					c-0.4-0.9-0.5-1.8-0.4-2.5C16.5,85.6,16.9,85,17.5,84.8z"/>
			</g>
			<g>
				
					<radialGradient id="SVGID_37_" cx="113.2871" cy="-992.7021" r="3.9136" gradientTransform="matrix(-0.9263 0.3769 -0.1821 -0.3865 -50.2462 -322.1992)" gradientUnits="userSpaceOnUse">
					<stop  offset="0" style="stop-color:#FFFFFF;stop-opacity:0.498"/>
					<stop  offset="0.1804" style="stop-color:#FEFEFE;stop-opacity:0.2"/>
					<stop  offset="0.5686" style="stop-color:#F9F9F9;stop-opacity:4.705882e-002"/>
					<stop  offset="1" style="stop-color:#F6F6F6;stop-opacity:0"/>
				</radialGradient>
				<path fill-rule="evenodd" clip-rule="evenodd" fill="url(#SVGID_37_)" d="M24.6,102.3c1.2-0.4,2.4-0.6,3.4-0.7
					c1,0.1,1.7,0.4,2,1c0.3,0.6,0,1.2-0.7,1.9c-0.6,0.8-1.6,1.4-2.8,1.9c-1.2,0.4-2.3,0.6-3.3,0.6c-1.1-0.1-1.8-0.4-2.1-1
					c-0.3-0.6,0-1.2,0.7-1.9C22.6,103.5,23.5,102.9,24.6,102.3z"/>
			</g>
			<g>
				<radialGradient id="SVGID_38_" cx="26.4502" cy="96.5" r="9.65" fx="27.3963" fy="96.5" gradientUnits="userSpaceOnUse">
					<stop  offset="0" style="stop-color:#FFFFFF;stop-opacity:0.4902"/>
					<stop  offset="1" style="stop-color:#FBFBFB;stop-opacity:0"/>
					<stop  offset="1" style="stop-color:#F1F1F1"/>
				</radialGradient>
				<path fill-rule="evenodd" clip-rule="evenodd" fill="url(#SVGID_38_)" d="M17.4,91.6c1.6-1.5,3.4-2.2,5.6-2.2s4,0.7,5.5,2.2
					c1.5,1.6,2.3,3.4,2.3,5.6c0,2.1-0.8,4-2.3,5.5c-1.5,1.6-3.4,2.3-5.5,2.3s-4-0.8-5.6-2.3c-1.5-1.5-2.3-3.3-2.3-5.5
					C15.1,95,15.9,93.2,17.4,91.6z M23,89.6c-2.1,0-3.9,0.7-5.4,2.2c-1.5,1.5-2.3,3.3-2.3,5.4c0,2.1,0.8,3.9,2.3,5.3
					c1.5,1.5,3.3,2.3,5.4,2.3c2.1,0,3.8-0.8,5.3-2.3c1.5-1.4,2.3-3.2,2.3-5.3c0-2.1-0.8-3.9-2.3-5.4C26.8,90.3,25,89.6,23,89.6z"/>
			</g>
			<g>
				<linearGradient id="SVGID_39_" gradientUnits="userSpaceOnUse" x1="15.7432" y1="91.6904" x2="22.9886" y2="97.3713">
					<stop  offset="0" style="stop-color:#555555"/>
					<stop  offset="0.3373" style="stop-color:#282828"/>
					<stop  offset="1" style="stop-color:#000000"/>
				</linearGradient>
				<path fill-rule="evenodd" clip-rule="evenodd" fill="url(#SVGID_39_)" d="M27.1,88.7c0.5,0.3,1.1,0.6,1.6,1c0.1,0,0.1,0,0.1,0
					c0,0-0.1,0-0.1,0c-0.1,0-0.1,0-0.1,0.1c-0.1,0.2-0.2,0.4-0.2,0.6v0c0,0.1,0,0.2,0.1,0.3c0,0.1,0.1,0.2,0.1,0.3
					c0.1,0,0.1,0,0.1,0.1c0.1,0.1,0.2,0.2,0.4,0.2c0.1,0.1,0.3,0.2,0.4,0.2c0.1,0,0.1,0,0.1,0c0.2-0.1,0.3-0.1,0.4-0.2
					c0.1,0,0.2-0.1,0.2-0.1h0.1c0.6,0.8,1,1.5,1.3,2.3c-0.1,0-0.3,0.1-0.4,0.3c0,0-0.1,0.1-0.1,0.2c-0.1,0.2-0.2,0.4-0.2,0.6
					c0,0.1,0,0.2,0.1,0.3c0,0.1,0.1,0.3,0.1,0.3c0,0,0.1,0,0.1,0.2c0.1,0.1,0.3,0.2,0.4,0.2c0.2,0.1,0.3,0.1,0.4,0.1
					c0.1,0,0.1,0,0.2,0c0.1,0.4,0.1,0.9,0.1,1.3c0,0.5,0,1-0.1,1.5l-0.1,0c0,0-0.1,0-0.1,0c-0.1,0-0.1,0-0.2,0.1
					c-0.2,0-0.4,0.1-0.6,0.3c0,0.1-0.1,0.1-0.1,0.1c-0.1,0.2-0.2,0.5-0.2,0.7v0c0,0.1,0,0.2,0.1,0.3c0,0.1,0.1,0.2,0.1,0.3
					c0,0.1,0.1,0.1,0.1,0.1c0.1,0.1,0.3,0.2,0.4,0.2v0c-0.5,1-1.1,1.9-1.9,2.8l-0.2,0.2h0c-0.1-0.1-0.1-0.2-0.3-0.3
					c-0.2-0.1-0.3-0.1-0.5-0.1c-0.1,0-0.2,0-0.3,0.1c-0.2,0-0.4,0.1-0.5,0.3c-0.1,0.1-0.1,0.1-0.1,0.1c-0.1,0.2-0.2,0.5-0.2,0.7v0
					c0,0.1,0,0.2,0,0.4c0,0.1,0.1,0.1,0.1,0.3l-0.1,0.1c0,0-0.1,0.1-0.2,0.2c-0.1,0-0.2,0-0.2,0.1c-0.8,0.4-1.6,0.7-2.5,0.9
					c0-0.2-0.1-0.5-0.3-0.7c-0.1,0-0.1,0-0.2,0c0-0.1,0-0.2-0.1-0.2c0,0-0.1,0-0.1,0c-0.2-0.1-0.4-0.1-0.5-0.1s-0.2,0-0.3,0h-0.1
					c-0.2,0.1-0.4,0.2-0.5,0.3c-0.1,0.1-0.1,0.1-0.1,0.2c-0.1,0.2-0.1,0.4-0.1,0.6l-0.3,0.1c-1.4-0.1-2.7-0.4-3.9-1.1
					c0.1-0.2,0.2-0.4,0.3-0.6v-0.1c0-0.3-0.1-0.6-0.4-0.8c-0.1-0.1-0.1-0.2-0.3-0.3h0c-0.1-0.1-0.3-0.1-0.5-0.1c-0.1,0-0.2,0-0.3,0
					c-0.2,0.1-0.4,0.2-0.6,0.3c0,0,0,0.1,0,0.1l-0.1,0c0-0.1-0.1-0.1-0.1-0.1c-0.1-0.1-0.2-0.2-0.3-0.3c-0.7-0.8-1.3-1.6-1.8-2.4
					c0.1-0.1,0.1-0.2,0.3-0.3c0.2-0.2,0.3-0.5,0.3-0.8v-0.1c0-0.3-0.1-0.6-0.3-0.8c-0.1-0.1-0.2-0.2-0.3-0.3
					c-0.2-0.1-0.3-0.1-0.5-0.1c-0.1,0-0.1,0-0.2,0c-0.2-0.7-0.3-1.4-0.3-2.2c0-0.4,0-0.8,0.1-1.2c0.3,0,0.6-0.1,0.9-0.3
					c0.2-0.2,0.3-0.5,0.3-0.8v0c0-0.3-0.1-0.6-0.3-0.8c-0.1-0.1-0.2-0.2-0.3-0.3c0.4-1.2,1.1-2.2,2.1-3.2c0,0,0-0.1,0.1-0.1
					c0.2,0.1,0.4,0.2,0.7,0.2c0.3,0,0.6-0.1,0.8-0.4c0.2-0.1,0.3-0.3,0.3-0.5c0-0.1,0.1-0.2,0.1-0.3c0-0.1,0-0.3-0.1-0.4
					c0.8-0.5,1.7-0.9,2.6-1.2c0,0.1,0.1,0.3,0.1,0.3c0,0,0,0.1,0.1,0.1c0.2,0.2,0.3,0.3,0.4,0.3c0.2,0.1,0.3,0.1,0.4,0.1
					c0.3,0,0.6-0.1,0.8-0.4c0.2-0.2,0.4-0.4,0.4-0.7c0.1,0,0.1,0,0.1,0c0.7,0,1.4,0,2.1,0.2c0,0,0,0.1,0,0.1v0c0,0.1,0,0.1,0,0.2
					c0,0.1,0.1,0.1,0.1,0.2c0,0.1,0,0.2,0.1,0.3c0,0,0.1,0.1,0.1,0.1c0.1,0.1,0.3,0.2,0.4,0.3c0.1,0.1,0.3,0.1,0.5,0.1
					c0.1,0,0.1,0,0.2,0c0.1,0,0.2-0.1,0.4-0.1c0-0.1,0.1-0.1,0.2-0.1c0-0.1,0-0.2,0.1-0.2h0.1l0,0L27.1,88.7z M17.3,91.8
					C17.2,91.8,17.2,91.8,17.3,91.8c-1.6,1.5-2.4,3.4-2.4,5.5c0,2.2,0.8,4,2.4,5.5c1.2,1.2,2.6,1.9,4.1,2.2c0.4,0.1,0.9,0.2,1.4,0.2
					c2.1,0,4-0.8,5.5-2.3c1.5-1.5,2.3-3.4,2.3-5.5c0-2.2-0.8-4-2.3-5.5c-1.6-1.6-3.4-2.3-5.5-2.3C20.6,89.5,18.8,90.2,17.3,91.8z"/>
				<linearGradient id="SVGID_40_" gradientUnits="userSpaceOnUse" x1="22.3877" y1="87.9248" x2="22.0127" y2="87.9248">
					<stop  offset="0" style="stop-color:#555555"/>
					<stop  offset="0.3373" style="stop-color:#282828"/>
					<stop  offset="1" style="stop-color:#000000"/>
				</linearGradient>
				<path fill-rule="evenodd" clip-rule="evenodd" fill="url(#SVGID_40_)" d="M24.9,87.9c-0.7-0.1-1.4-0.2-2.1-0.2c0,0-0.1,0-0.1,0
					c0,0.3-0.1,0.5-0.4,0.7c-0.2,0.3-0.5,0.4-0.8,0.4c-0.1,0-0.2,0-0.4-0.1c-0.1,0-0.2-0.1-0.4-0.3c0,0-0.1,0-0.1-0.1
					c0.5-0.3,1-0.5,1.5-0.8c0.7-0.3,1.5-0.4,2.3-0.5c0.3,0,0.7,0,1,0c0.6,0,1.2,0,1.8,0.2L24.9,87.9z"/>
				<linearGradient id="SVGID_41_" gradientUnits="userSpaceOnUse" x1="27.7817" y1="87.7461" x2="30.2144" y2="89.6614">
					<stop  offset="0" style="stop-color:#555555"/>
					<stop  offset="0.3373" style="stop-color:#282828"/>
					<stop  offset="1" style="stop-color:#000000"/>
				</linearGradient>
				<path fill-rule="evenodd" clip-rule="evenodd" fill="url(#SVGID_41_)" d="M28.7,89.8c-0.5-0.4-1.1-0.8-1.6-1l2.1-0.9
					c0.6,0.3,1.1,0.6,1.7,1L28.7,89.8z"/>
				<linearGradient id="SVGID_42_" gradientUnits="userSpaceOnUse" x1="30.7583" y1="90.9756" x2="33.4812" y2="93.0992">
					<stop  offset="0" style="stop-color:#555555"/>
					<stop  offset="0.3373" style="stop-color:#282828"/>
					<stop  offset="1" style="stop-color:#000000"/>
				</linearGradient>
				<path fill-rule="evenodd" clip-rule="evenodd" fill="url(#SVGID_42_)" d="M31.8,93.8c-0.3-0.8-0.7-1.6-1.3-2.3v0l2.2-1
					c0.6,0.7,1.1,1.3,1.4,2L31.8,93.8z"/>
				<linearGradient id="SVGID_43_" gradientUnits="userSpaceOnUse" x1="32.4375" y1="95.7998" x2="34.5916" y2="97.4946">
					<stop  offset="0" style="stop-color:#555555"/>
					<stop  offset="0.3373" style="stop-color:#282828"/>
					<stop  offset="1" style="stop-color:#000000"/>
				</linearGradient>
				<path fill-rule="evenodd" clip-rule="evenodd" fill="url(#SVGID_43_)" d="M32.4,98.8c0.1-0.5,0.1-1,0.1-1.5c0-0.5,0-0.9-0.1-1.3
					l2.4-1.4c0.1,0.6,0.1,1.3,0.1,2c0,0.2,0,0.4,0,0.5L32.4,98.8z"/>
			</g>
			<g>
				<path fill-rule="evenodd" clip-rule="evenodd" fill="none" d="M22.6,87.8c0.7-0.1,1.5-0.1,2.3,0.1"/>
				<path fill-rule="evenodd" clip-rule="evenodd" fill="none" d="M32.4,96c0.2,1.5,0,3-0.6,4.5c-0.8,1.7-2,3-3.6,3.8
					c-0.4,0.2-0.9,0.3-1.3,0.5"/>
				<path fill-rule="evenodd" clip-rule="evenodd" fill="none" d="M30.5,91.5c0.5,0.7,0.9,1.5,1.3,2.3"/>
				<path fill-rule="evenodd" clip-rule="evenodd" fill="none" d="M27.2,88.8c0.6,0.3,1.2,0.7,1.6,1.1"/>
			</g>
		</g>
		<g>
			<path fill-rule="evenodd" clip-rule="evenodd" fill="#28291B" d="M257.7,61.6h-1.4v3.6h-0.6v-3.6h-1.3v-0.5h3.3V61.6z
				 M261.3,61.6h-2.4v1.3h2.3v0.5h-2.3v1.4h2.5v0.5h-3v-4.1h2.9V61.6z M267.5,61.6V63h1.1c0.3,0,0.6-0.1,0.7-0.2
				c0.2-0.1,0.3-0.3,0.3-0.5c0-0.2,0-0.3-0.1-0.4c-0.1-0.1-0.2-0.2-0.4-0.3c-0.1,0-0.3-0.1-0.5-0.1H267.5z M268.5,61.1
				c0.3,0,0.5,0,0.6,0.1c0.2,0,0.4,0.1,0.4,0.1c0.2,0.1,0.3,0.3,0.4,0.4c0.1,0.2,0.1,0.4,0.1,0.6c0,0.3-0.1,0.6-0.3,0.9
				c-0.2,0.2-0.6,0.3-1.2,0.3h-1.1v1.7h-0.6v-4.1H268.5z M271.3,62.8h2.3v0.5h-2.3v1.4h2.5v0.5h-3v-4.1h3v0.5h-2.5V62.8z M266,61.1
				v4.1h-0.5v-3.4l-1.2,3.4h-0.5l-1.1-3.5v3.5h-0.6v-4.1h0.9l1,2.9c0.1,0.3,0.1,0.5,0.1,0.7c0.1-0.2,0.1-0.4,0.3-0.7l0.9-2.9H266z
				 M217.8,61.7c0.3,0,0.6,0.1,0.8,0.2c0.2,0.1,0.4,0.2,0.5,0.4c0.2,0.1,0.3,0.3,0.3,0.6L219,63c-0.1-0.2-0.2-0.4-0.3-0.5
				c-0.1-0.1-0.2-0.2-0.4-0.3c-0.1-0.1-0.3-0.2-0.6-0.2c-0.2,0-0.4,0.1-0.6,0.2c-0.2,0.1-0.4,0.2-0.4,0.3c-0.1,0.1-0.2,0.3-0.3,0.5
				c-0.1,0.2-0.2,0.5-0.2,0.8c0,0.4,0.1,0.7,0.2,0.9c0.2,0.2,0.4,0.4,0.6,0.5c0.2,0.1,0.5,0.2,0.8,0.2c0.3,0,0.5-0.1,0.7-0.2
				c0.2-0.1,0.4-0.2,0.5-0.3v-0.8h-1.2v-0.5l1.8,0v1.5c-0.3,0.2-0.5,0.4-0.8,0.5c-0.3,0.1-0.6,0.2-0.9,0.2c-0.4,0-0.8-0.1-1.1-0.2
				c-0.3-0.2-0.6-0.5-0.8-0.8c-0.2-0.4-0.3-0.7-0.3-1.1c0-0.4,0.1-0.8,0.3-1.1c0.2-0.3,0.4-0.6,0.7-0.8
				C217,61.8,217.4,61.7,217.8,61.7z M212.3,61.7l2.2,3.3v-3.3h0.5v4.1h-0.6l-2.1-3.2v3.2h-0.5v-4.1H212.3z M220.4,61.7h3v0.5h-2.5
				v1.3h2.3V64h-2.3v1.5h2.5v0.4h-3V61.7z M206.5,62.8c0-0.2,0-0.3-0.1-0.4c-0.2-0.1-0.4-0.2-0.7-0.2h-1.4v1.3h1.3
				c0.2,0,0.4,0,0.6,0c0.2-0.1,0.3-0.2,0.3-0.3C206.5,63.1,206.5,63,206.5,62.8z M207,62.8c0,0.3-0.1,0.6-0.3,0.8
				c-0.2,0.2-0.5,0.3-0.8,0.4c0.1,0.1,0.2,0.1,0.3,0.3c0.2,0.1,0.3,0.3,0.4,0.5l0.8,1.1h-0.6l-0.5-0.8c-0.2-0.2-0.3-0.4-0.4-0.6
				c-0.1-0.1-0.2-0.2-0.3-0.3c-0.1-0.1-0.2-0.1-0.3-0.1c-0.1,0-0.2,0-0.3,0h-0.7v1.8h-0.5v-4.1h1.9c0.3,0,0.6,0,0.8,0.1
				c0.2,0.1,0.3,0.2,0.4,0.4S207,62.7,207,62.8z M209.3,62.2c0,0.3-0.1,0.5-0.2,0.8l-0.4,1.2h1.3l-0.4-1.2
				C209.5,62.7,209.4,62.4,209.3,62.2z M209.6,61.7l1.6,4.1h-0.6l-0.5-1.3h-1.7l-0.5,1.3h-0.6l1.5-4.1H209.6z M338.3,61v4.1h-0.6V61
				H338.3z M341,60.9c0.4,0,0.7,0.1,1,0.3c0.3,0.2,0.6,0.5,0.7,0.8c0.2,0.3,0.3,0.7,0.3,1.1c0,0.4-0.1,0.8-0.3,1.2
				c-0.1,0.3-0.4,0.5-0.8,0.8c-0.3,0.1-0.6,0.2-1,0.2c-0.4,0-0.8-0.1-1-0.3c-0.3-0.2-0.5-0.4-0.7-0.7c-0.1-0.3-0.2-0.7-0.2-1.1
				c0-0.7,0.2-1.2,0.5-1.6C340,61.1,340.5,60.9,341,60.9z M339.7,63.1c0,0.5,0.1,0.9,0.4,1.2c0.3,0.3,0.6,0.4,1,0.4
				c0.4,0,0.7-0.1,1-0.4c0.3-0.3,0.4-0.7,0.4-1.3c0-0.3,0-0.6-0.2-0.8c-0.1-0.3-0.3-0.5-0.5-0.6c-0.2-0.1-0.5-0.2-0.8-0.2
				c-0.4,0-0.7,0.1-1,0.4S339.7,62.5,339.7,63.1z M333.3,62.1l-0.5,0.2c-0.1-0.3-0.3-0.5-0.4-0.7c-0.2-0.1-0.4-0.2-0.7-0.2
				c-0.3,0-0.6,0.1-0.8,0.2c-0.2,0.2-0.4,0.4-0.5,0.7s-0.1,0.5-0.1,0.8c0,0.3,0,0.6,0.1,0.9c0.1,0.2,0.3,0.4,0.5,0.6
				c0.2,0.1,0.4,0.2,0.7,0.2c0.3,0,0.5-0.1,0.8-0.3c0.2-0.2,0.4-0.4,0.5-0.8l0.5,0.1c-0.1,0.4-0.3,0.8-0.6,1
				c-0.3,0.2-0.7,0.4-1.1,0.4c-0.5,0-0.8-0.1-1.1-0.2c-0.3-0.2-0.5-0.5-0.6-0.8c-0.2-0.4-0.3-0.7-0.3-1.1c0-0.5,0.1-0.8,0.3-1.1
				c0.2-0.3,0.4-0.5,0.7-0.7c0.3-0.2,0.6-0.3,1-0.3c0.4,0,0.8,0.1,1,0.3C333.1,61.5,333.3,61.7,333.3,62.1z M337,61v0.5h-1.4v3.6
				h-0.5v-3.6h-1.4V61H337z M344.3,61l2.2,3.3V61h0.5v4.1h-0.6l-2.1-3.2v3.2h-0.5V61H344.3z M318.8,61.5v1.3h1.9v0.5h-1.9v1.9h-0.5
				V61h2.8v0.5H318.8z M321.8,61h0.5v2.4c0,0.3,0,0.6,0.1,0.8c0.1,0.2,0.2,0.3,0.4,0.4c0.2,0.1,0.4,0.2,0.6,0.2
				c0.4,0,0.7-0.1,0.9-0.3c0.2-0.2,0.3-0.5,0.3-1V61h0.5v2.4c0,0.4,0,0.7-0.1,0.9c-0.1,0.2-0.3,0.4-0.5,0.6c-0.2,0.1-0.5,0.2-1,0.2
				c-0.4,0-0.7-0.1-0.9-0.2c-0.3-0.2-0.4-0.4-0.5-0.6c-0.1-0.3-0.2-0.6-0.2-1V61z M329,61v4.1h-0.5l-2.1-3.2v3.2h-0.6V61h0.6
				l2.1,3.3V61H329z M297,61.6h-2.5v1.3h2.3v0.5h-2.3v1.4h2.5v0.5h-3v-4.1h3V61.6z M292.3,63.5c0.2,0.2,0.3,0.4,0.4,0.6l0.8,1h-0.7
				l-0.5-0.9c-0.2-0.2-0.3-0.4-0.4-0.5c-0.1-0.1-0.2-0.2-0.3-0.3c-0.1,0-0.1,0-0.3,0c-0.1,0-0.2,0-0.3,0h-0.6v1.8h-0.5v-4.1h1.8
				c0.4,0,0.6,0,0.8,0.1c0.2,0.1,0.4,0.2,0.5,0.4c0.1,0.2,0.1,0.4,0.1,0.7c0,0.3-0.1,0.5-0.3,0.8c-0.2,0.2-0.4,0.3-0.8,0.3
				C292.1,63.4,292.2,63.5,292.3,63.5z M292.4,61.8c-0.1-0.2-0.4-0.3-0.7-0.3h-1.3V63h1.2c0.2,0,0.4,0,0.6-0.1
				c0.1-0.1,0.2-0.1,0.3-0.3c0.1-0.1,0.1-0.3,0.1-0.3C292.5,62,292.5,61.9,292.4,61.8z M277.6,63c-0.2,0.2-0.5,0.3-0.9,0.3
				c0.2,0.1,0.3,0.1,0.3,0.2c0.2,0.2,0.3,0.4,0.4,0.6l0.8,1h-0.7l-0.5-0.9c-0.2-0.2-0.3-0.4-0.4-0.5c-0.1-0.1-0.2-0.2-0.3-0.3
				c-0.1,0-0.1,0-0.2,0c-0.1,0-0.2,0-0.4,0h-0.6v1.8h-0.5v-4.1h1.9c0.3,0,0.6,0,0.8,0.1c0.2,0.1,0.3,0.2,0.5,0.4
				c0.1,0.2,0.1,0.4,0.1,0.7C277.9,62.5,277.8,62.8,277.6,63z M277.1,61.8c-0.1-0.2-0.4-0.3-0.6-0.3h-1.4V63h1.2
				c0.2,0,0.4,0,0.6-0.1c0.1-0.1,0.2-0.1,0.3-0.3c0.1-0.1,0.1-0.3,0.1-0.3C277.3,62,277.2,61.9,277.1,61.8z M280.9,63.5l-0.5-1.1
				c-0.1-0.3-0.2-0.6-0.3-0.9c0,0.3-0.1,0.5-0.3,0.8l-0.4,1.2H280.9z M280.5,61.1l1.6,4.1h-0.6L281,64h-1.7l-0.4,1.3h-0.6l1.5-4.1
				H280.5z M288.9,61.1v2.4c0,0.4,0,0.8-0.1,1c-0.1,0.2-0.3,0.4-0.5,0.6c-0.2,0.1-0.6,0.2-1,0.2c-0.4,0-0.7,0-0.9-0.2
				c-0.3-0.2-0.4-0.3-0.5-0.5c-0.1-0.3-0.2-0.6-0.2-1v-2.4h0.5v2.4c0,0.3,0,0.6,0.1,0.8c0.1,0.2,0.2,0.3,0.4,0.4
				c0.1,0.1,0.3,0.1,0.5,0.1c0.4,0,0.7-0.1,0.9-0.3c0.2-0.2,0.3-0.5,0.3-1v-2.4H288.9z M283.7,61.6v3.6h-0.5v-3.6h-1.4v-0.5h3.3v0.5
				H283.7z"/>
		</g>
		<g>
			
				<path fill-rule="evenodd" clip-rule="evenodd" fill="none" stroke="#4B5467" stroke-width="0.1" stroke-linecap="round" stroke-linejoin="round" stroke-miterlimit="3" stroke-opacity="0.251" d="
				M23.9,52.9h46.9 M23.9,62h46.9"/>
		</g>
		<g>
			<path fill-rule="evenodd" clip-rule="evenodd" fill="#4B5467" d="M25.3,55.6c0.3-0.2,0.6-0.3,1-0.3c0.4,0,0.8,0.1,1,0.4
				c0.3,0.2,0.5,0.5,0.6,0.8l-0.5,0.2c-0.1-0.3-0.3-0.6-0.5-0.7c-0.2-0.2-0.4-0.3-0.6-0.3c-0.3,0-0.6,0.1-0.8,0.3
				c-0.2,0.2-0.4,0.4-0.5,0.7s-0.1,0.5-0.1,0.8c0,0.3,0,0.6,0.1,0.9c0,0,0,0.1,0,0.1c0.1,0.2,0.3,0.4,0.5,0.5
				c0.2,0.1,0.4,0.2,0.7,0.2c0.3,0,0.5-0.1,0.8-0.3c0.2-0.1,0.3-0.3,0.3-0.4c0-0.1,0.1-0.2,0.1-0.4l0.5,0.1c0,0.1,0,0.2,0,0.3
				c-0.1,0.3-0.3,0.6-0.5,0.8c-0.3,0.2-0.7,0.3-1.1,0.3c-0.5,0-0.8-0.1-1.1-0.3c-0.3-0.2-0.5-0.4-0.6-0.8c0,0,0-0.1,0-0.1
				c-0.1-0.3-0.2-0.6-0.2-1c0-0.5,0.1-0.9,0.3-1.2C24.8,56,25,55.7,25.3,55.6z M69.5,59.5H69v-3.6h-1.4v-0.6h3.3v0.6h-1.3V59.5z
				 M61.3,55.8c0,0.3-0.1,0.6-0.2,0.9l-0.4,1.2H62l-0.4-1.1C61.5,56.3,61.4,56,61.3,55.8z M61.6,55.3l1.6,4.2h-0.6l-0.5-1.3h-1.8
				L60,59.5h-0.5l1.5-4.2H61.6z M64.3,55.3l2.2,3.3v-3.3H67v4.2h-0.6l-2.1-3.2v3.2h-0.5v-4.2H64.3z M59.7,55.9h-1.4v3.6h-0.6v-3.6
				h-1.3v-0.6h3.3V55.9z M53.6,55.5c0.2-0.1,0.4-0.2,0.7-0.2c0.3,0,0.6,0.1,0.9,0.2c0.3,0.1,0.5,0.2,0.6,0.4
				c0.1,0.2,0.1,0.4,0.1,0.6h-0.5c0-0.3-0.1-0.5-0.3-0.5c-0.1-0.1-0.3-0.2-0.6-0.2c-0.4,0-0.6,0.1-0.8,0.2c-0.2,0.1-0.3,0.2-0.3,0.4
				c0,0.2,0.1,0.3,0.2,0.4c0.1,0.1,0.4,0.2,0.8,0.3c0.4,0.1,0.7,0.1,0.9,0.2c0.3,0.1,0.4,0.3,0.5,0.5c0.1,0.2,0.2,0.4,0.2,0.6v0.1
				c0,0.2-0.1,0.4-0.2,0.5c-0.1,0.2-0.3,0.3-0.5,0.5c-0.2,0.1-0.5,0.1-0.8,0.1c-0.4,0-0.7,0-0.9-0.1c-0.3-0.1-0.5-0.3-0.6-0.5
				c-0.1-0.1-0.1-0.3-0.2-0.5c-0.1-0.1-0.1-0.2-0.1-0.3l0.5-0.1c0,0.1,0,0.2,0,0.3c0,0.1,0.1,0.1,0.1,0.3c0.1,0.1,0.3,0.2,0.5,0.3
				c0.2,0.1,0.4,0.1,0.6,0.1c0.2,0,0.4,0,0.5-0.1c0.2,0,0.3-0.1,0.4-0.2c0.1-0.1,0.1-0.3,0.1-0.3c0-0.2,0-0.3-0.1-0.4
				c-0.1-0.1-0.2-0.2-0.4-0.3c-0.1,0-0.4-0.1-0.8-0.2c-0.4-0.1-0.6-0.1-0.8-0.3c-0.2-0.1-0.3-0.2-0.4-0.4c-0.1-0.1-0.1-0.3-0.1-0.5
				s0.1-0.4,0.1-0.5C53.2,55.7,53.4,55.6,53.6,55.5z M49.4,55.3l2.1,3.3v-3.3H52v4.2h-0.6l-2.1-3.2v3.2h-0.5v-4.2H49.4z M41,55.6
				c0.3-0.2,0.6-0.3,1-0.3c0.4,0,0.8,0.1,1,0.4c0.3,0.2,0.5,0.5,0.6,0.8l-0.5,0.2c-0.1-0.3-0.3-0.6-0.5-0.7
				c-0.2-0.2-0.4-0.3-0.6-0.3c-0.3,0-0.6,0.1-0.8,0.3c-0.2,0.2-0.4,0.4-0.5,0.7s-0.1,0.5-0.1,0.8c0,0.3,0,0.6,0.1,0.9
				c0,0,0,0.1,0,0.1c0.1,0.2,0.3,0.4,0.5,0.5c0.2,0.1,0.4,0.2,0.7,0.2c0.3,0,0.5-0.1,0.8-0.3c0.2-0.1,0.3-0.3,0.3-0.4
				c0-0.1,0.1-0.2,0.1-0.4l0.5,0.1c0,0.1,0,0.2,0,0.3c-0.1,0.3-0.3,0.6-0.5,0.8c-0.3,0.2-0.7,0.3-1.1,0.3c-0.5,0-0.8-0.1-1.1-0.3
				c-0.3-0.2-0.5-0.4-0.6-0.8c0,0,0-0.1,0-0.1c-0.1-0.3-0.2-0.6-0.2-1c0-0.5,0.1-0.9,0.3-1.2C40.5,56,40.7,55.7,41,55.6z M45.1,56.2
				c-0.3,0.3-0.4,0.7-0.4,1.3c0,0.3,0.1,0.6,0.3,0.9c0,0.1,0.1,0.2,0.1,0.3c0.3,0.3,0.6,0.4,1,0.4s0.7-0.1,1-0.4
				c0.1-0.1,0.2-0.2,0.3-0.3c0.1-0.3,0.1-0.6,0.1-1c0-0.3,0-0.6-0.1-0.9c-0.1-0.3-0.3-0.5-0.5-0.5c-0.2-0.2-0.5-0.3-0.8-0.3
				C45.8,55.8,45.4,55.9,45.1,56.2z M47.9,56.3c0.2,0.3,0.3,0.7,0.3,1.1c0,0.3-0.1,0.6-0.2,1c0,0.1,0,0.1,0,0.1
				c-0.2,0.3-0.4,0.6-0.8,0.8c-0.3,0.2-0.6,0.3-1,0.3c-0.4,0-0.8-0.1-1-0.3c-0.3-0.2-0.5-0.5-0.7-0.8c0,0,0-0.1,0-0.1
				c-0.1-0.3-0.1-0.6-0.1-0.9c0-0.7,0.2-1.2,0.5-1.6c0.4-0.4,0.9-0.6,1.4-0.6c0.4,0,0.7,0.1,1,0.3C47.5,55.8,47.7,56,47.9,56.3z
				 M31.4,57.2v0.4h-2.3V59h2.5v0.5h-3v-4.2h3v0.6h-2.5v1.3H31.4z M33,55.3V59h2v0.5h-2.6v-4.2H33z M36.1,55.3V59h2v0.5h-2.5v-4.2
				H36.1z"/>
		</g>
		<g>
			<path fill-rule="evenodd" clip-rule="evenodd" fill="#2C313A" d="M164.7,70.2c0.2,0.2,0.5,0.9,0.9,2c-0.6-0.1-1.2-0.2-1.9-0.2
				H68.4c-3.8,0-5.7,1.9-5.7,5.7v27.4c0,0.6,0,1.1,0.1,1.6v0.4l0.1,0.1l0.2,0.3l0.1,0.1c0,0-0.1,0-0.2,0c-0.9-0.2-1.5-0.6-2-1.2
				c-0.6-0.7-0.9-1.5-1.1-2.6l-0.2-1.2v0c0,0,0-0.1,0-0.1c0-0.1,0-0.1,0-0.1V74.8c0-3.8,1.9-5.8,5.8-5.8h95.3l1.6,0.2
				C163.3,69.4,164.1,69.7,164.7,70.2z"/>
			<path fill-rule="evenodd" clip-rule="evenodd" fill="#EEEFE4" d="M63.1,107.5c0.1,0.1,0.4,0.1,0.9,0c0.7-0.1,1.3-0.2,1.6-0.2
				h95.4c3.4,0,5.1-1.7,5.1-5.1V74.8c0-0.9-0.1-1.7-0.3-2.3l-0.1,0c0,0,0-0.1,0-0.1l-0.1-0.3c-0.4-1.1-0.7-1.8-0.9-2
				c0.3,0,0.8,0.4,1.6,1.3c0.4,0.4,0.6,1,0.8,1.8c0-0.2,0.1,0.3,0.2,1.5v27.4c0,4.2-2.1,6.3-6.3,6.3H65.8
				C64.4,108.4,63.5,108,63.1,107.5c0,0.1,0.1,0.1,0.1,0.1L63.1,107.5z M62.8,107.1c0,0,0.1,0,0.1,0.1c0,0,0,0,0,0L62.8,107.1z"/>
			<path fill-rule="evenodd" clip-rule="evenodd" fill="#4B5467" d="M62.9,107.2C62.9,107.2,62.9,107.2,62.9,107.2
				c0-0.1-0.1-0.1-0.1-0.1v-0.4c-0.1-0.5-0.1-1-0.1-1.6V77.7c0-3.8,1.9-5.7,5.7-5.7h95.4c0.7,0,1.3,0,1.9,0.2l0.1,0.3
				c0,0,0,0.1,0,0.1l0.1,0c0.2,0.6,0.3,1.4,0.3,2.3v27.4c0,3.4-1.7,5.1-5.1,5.1H65.5c-0.3,0-0.9,0.1-1.6,0.2c-0.4,0-0.7,0-0.9,0
				L62.9,107.2z"/>
		</g>
		<g>
			<path fill-rule="evenodd" clip-rule="evenodd" fill="#FFFFFF" d="M162.6,74.5c0.3,0.4,0.5,0.9,0.5,1.6v3.7h-1.9v-2.8
				c0-0.3,0-0.6,0-0.8c0-0.2,0-0.4-0.1-0.5c0-0.1-0.1-0.2-0.3-0.3c-0.1-0.1-0.3-0.1-0.5-0.1c-0.2,0-0.3,0-0.4,0.1
				c-0.2,0.1-0.4,0.1-0.6,0.3v4h-1.8v-2.8c0-0.3,0-0.6-0.1-0.8c0-0.2,0-0.4-0.1-0.5c0-0.1-0.1-0.2-0.2-0.3c-0.2-0.1-0.4-0.1-0.6-0.1
				c-0.2,0-0.4,0-0.5,0.1c-0.2,0.1-0.3,0.2-0.4,0.3v4h-1.9V74h1.9v0.6c0.3-0.2,0.6-0.4,0.8-0.6c0.3-0.1,0.6-0.2,1-0.2
				c0.3,0,0.7,0.1,1,0.3c0.3,0.2,0.5,0.4,0.7,0.8c0.3-0.3,0.7-0.6,1-0.8c0.4-0.2,0.7-0.3,1-0.3C161.9,73.9,162.3,74.1,162.6,74.5z
				 M152.1,75.7c-0.1-0.1-0.2-0.2-0.4-0.3c-0.1-0.1-0.3-0.1-0.4-0.2c-0.2,0-0.4,0-0.6,0c-0.5,0-0.8,0.1-1.1,0.5
				c-0.2,0.3-0.4,0.7-0.4,1.3c0,0.5,0.1,0.9,0.4,1.3c0.3,0.3,0.6,0.4,1.1,0.4c0.2,0,0.5,0,0.6,0c0.2-0.1,0.4-0.1,0.5-0.2
				c0.1-0.1,0.2-0.1,0.3-0.2c0.1-0.1,0.2-0.1,0.3-0.2h0.3v1.5c-0.3,0.2-0.6,0.3-0.9,0.3c-0.3,0.1-0.6,0.2-1,0.2
				c-0.5,0-0.9-0.1-1.3-0.2c-0.4-0.1-0.8-0.3-1.1-0.5c-0.3-0.2-0.5-0.6-0.7-1c-0.1-0.4-0.2-0.8-0.2-1.3c0-0.5,0.1-1,0.2-1.4
				c0.2-0.4,0.4-0.7,0.8-1c0.3-0.3,0.7-0.4,1.1-0.5c0.4-0.1,0.8-0.1,1.2-0.1s0.8,0,1.1,0.1c0.3,0.1,0.6,0.2,0.9,0.3v1.5h-0.3
				C152.3,75.8,152.3,75.8,152.1,75.7z M127.8,74v4c0.2,0.1,0.3,0.2,0.5,0.3c0.2,0,0.4,0.1,0.6,0.1c0.1,0,0.3,0,0.5-0.1
				c0.2,0,0.4-0.1,0.5-0.3v-4h1.9v5.7H130l-0.1-0.4c-0.2,0.1-0.4,0.3-0.6,0.4c-0.1,0.1-0.3,0.1-0.6,0.1c-0.2,0-0.4,0-0.6-0.1
				c-0.2-0.1-0.3-0.2-0.4-0.3v2.4h-1.9V74H127.8z M140.5,81.3l3.9-9.5h1.6l-4,9.5H140.5z M139.1,72.6v1.7H139
				c-0.3-0.3-0.7-0.5-1.1-0.6c-0.4-0.2-0.9-0.3-1.4-0.3c-0.1,0-0.3,0-0.5,0c-0.2,0-0.4,0.1-0.5,0.2c-0.1,0-0.2,0.1-0.3,0.2
				c-0.1,0.1-0.1,0.2-0.1,0.4c0,0.2,0.1,0.3,0.2,0.5c0.2,0.1,0.5,0.2,0.9,0.3c0.3,0,0.5,0.1,0.8,0.2c0.2,0,0.5,0.1,0.8,0.1
				c0.6,0.2,1,0.5,1.3,0.8c0.3,0.3,0.4,0.7,0.4,1.3c0,0.7-0.3,1.3-1,1.8c-0.6,0.4-1.4,0.6-2.5,0.6c-0.7,0-1.2,0-1.6-0.1
				c-0.5-0.1-0.9-0.3-1.3-0.5v-1.8h0.1c0.4,0.3,0.9,0.6,1.4,0.8c0.5,0.2,1,0.3,1.4,0.3c0.1,0,0.3,0,0.5,0c0.2,0,0.4-0.1,0.5-0.1
				c0.2-0.1,0.3-0.2,0.3-0.3c0.1-0.1,0.2-0.2,0.2-0.4c0-0.2-0.1-0.3-0.3-0.4c-0.1-0.2-0.3-0.3-0.6-0.3c-0.3-0.1-0.6-0.1-0.9-0.2
				c-0.3,0-0.6-0.1-0.9-0.2c-0.6-0.2-1-0.5-1.3-0.8c-0.3-0.3-0.4-0.8-0.4-1.3c0-0.7,0.3-1.3,0.9-1.8c0.6-0.4,1.4-0.6,2.4-0.6
				c0.5,0,1,0,1.4,0.1C138.4,72.3,138.8,72.5,139.1,72.6z"/>
		</g>
		<g>
			<linearGradient id="SVGID_44_" gradientUnits="userSpaceOnUse" x1="156.5381" y1="73.7383" x2="146.9381" y2="83.3383">
				<stop  offset="0" style="stop-color:#FFFFFF;stop-opacity:0.1294"/>
				<stop  offset="1" style="stop-color:#FAFAFA;stop-opacity:0"/>
			</linearGradient>
			<path fill-rule="evenodd" clip-rule="evenodd" fill="url(#SVGID_44_)" d="M163.9,71v16.7c-1.2-10.7-9.9-16.3-26-16.7H163.9z"/>
			<linearGradient id="SVGID_45_" gradientUnits="userSpaceOnUse" x1="127.2749" y1="100.5996" x2="135.9249" y2="100.5996">
				<stop  offset="0" style="stop-color:#FFFFFF;stop-opacity:0.1294"/>
				<stop  offset="1" style="stop-color:#FAFAFA;stop-opacity:0"/>
			</linearGradient>
			<polygon fill-rule="evenodd" clip-rule="evenodd" fill="url(#SVGID_45_)" points="122.4,106.3 132.5,94.8 135.9,94.8 
				127.3,106.3 			"/>
			<linearGradient id="SVGID_46_" gradientUnits="userSpaceOnUse" x1="62.5" y1="88.8496" x2="90.0498" y2="88.8496">
				<stop  offset="0" style="stop-color:#FFFFFF;stop-opacity:0.1294"/>
				<stop  offset="1" style="stop-color:#FAFAFA;stop-opacity:0"/>
			</linearGradient>
			<polygon fill-rule="evenodd" clip-rule="evenodd" fill="url(#SVGID_46_)" points="79,70.5 90,70.5 62.5,107.2 62.5,91.8 			"/>
		</g>
	</g>
</g>
</svg>
