<?xml version="1.0" encoding="utf-8"?>
<!-- Generator: Adobe Illustrator 16.0.0, SVG Export Plug-In . SVG Version: 6.00 Build 0)  -->
<!DOCTYPE svg PUBLIC "-//W3C//DTD SVG 1.1//EN" "http://www.w3.org/Graphics/SVG/1.1/DTD/svg11.dtd">
<svg version="1.1" xmlns="http://www.w3.org/2000/svg" xmlns:xlink="http://www.w3.org/1999/xlink" x="0px" y="0px" width="397.8px"
	 height="189.3px" viewBox="0 0 397.8 189.3" enable-background="new 0 0 397.8 189.3" xml:space="preserve">
<symbol  id="button2_x5F_cd" viewBox="-19.9 -39 51.3 54.7">
	<g id="Layer_12_1_">
	</g>
	<g id="Layer_14_1_">
	</g>
	<g id="Layer_9_1_">
	</g>
	<g id="Layer_8_1_">
	</g>
	<g id="Layer_1_3_">
	</g>
	<g id="Layer_7_1_">
	</g>
	<g id="Layer_6_1_">
	</g>
	<g id="Layer_5_1_">
	</g>
	<g id="glace_x5F_cc_5_">
	</g>
	<g id="glace_x5F_cc_4_">
	</g>
	<g id="glace_x5F_cc_3_">
		<g>
			<g>
				<radialGradient id="SVGID_1_" cx="3.2002" cy="-6.2998" r="26.975" gradientUnits="userSpaceOnUse">
					<stop  offset="0" style="stop-color:#040404;stop-opacity:0.6118"/>
					<stop  offset="0.5961" style="stop-color:#020202;stop-opacity:0.1608"/>
					<stop  offset="1" style="stop-color:#000000;stop-opacity:0"/>
				</radialGradient>
				<path fill-rule="evenodd" clip-rule="evenodd" fill="url(#SVGID_1_)" d="M-2.5-39c-15.6,28.1-18.9,37.4-9.7,27.9L15.7,4
					c5.7-3.3,11-11.5,15.8-24.5L-2.5-39z"/>
			</g>
			<g>
				
					<radialGradient id="SVGID_2_" cx="10727.3799" cy="-18554.5859" r="6.3506" gradientTransform="matrix(-0.8659 -0.5001 -0.2774 0.4803 4126.915 14270.7734)" gradientUnits="userSpaceOnUse">
					<stop  offset="0" style="stop-color:#333333"/>
					<stop  offset="0.6196" style="stop-color:#363838"/>
					<stop  offset="1" style="stop-color:#9C9FA1"/>
				</radialGradient>
				<path fill-rule="evenodd" clip-rule="evenodd" fill="url(#SVGID_2_)" d="M-13.2-3.5l-5.9-3.1C-20-8-19.5-9-17.9-9.4l6.3,1.8
					c0.1-0.1,0.1-0.2,0.2-0.3l-6.8-1.8c-1.6,0.5-2.1,1.6-1.3,3.2l6.3,3.4C-13.3-3.2-13.2-3.3-13.2-3.5z"/>
				
					<radialGradient id="SVGID_3_" cx="10714.8164" cy="-18559.207" r="5.8855" gradientTransform="matrix(-0.8654 -0.5011 -0.2771 0.4785 4114.0527 14245.0508)" gradientUnits="userSpaceOnUse">
					<stop  offset="0" style="stop-color:#EAEAEA"/>
					<stop  offset="0.6196" style="stop-color:#9C9FA1"/>
					<stop  offset="1" style="stop-color:#9C9FA1"/>
				</radialGradient>
				<path fill-rule="evenodd" clip-rule="evenodd" fill="url(#SVGID_3_)" d="M-13.2-3.5c0.3-1.5,0.9-2.9,1.6-4.2l-6.3-1.8
					C-19.5-9-20-8-19.1-6.6L-13.2-3.5z"/>
			</g>
			<g>
				<path fill-rule="evenodd" clip-rule="evenodd" d="M0,15.8c4.5,0,8.3-1.6,11.5-4.8c3.2-3.2,4.8-7,4.8-11.5S14.7-8.8,11.5-12
					c-3.2-3.2-7-4.8-11.5-4.8s-8.3,1.6-11.5,4.8c-3.2,3.2-4.8,7-4.8,11.5s1.6,8.3,4.8,11.5C-8.3,14.2-4.5,15.8,0,15.8z"/>
			</g>
			<g>
				
					<linearGradient id="SVGID_4_" gradientUnits="userSpaceOnUse" x1="7842.978" y1="-18933.2773" x2="7867.5679" y2="-18933.2773" gradientTransform="matrix(-0.7078 -0.7064 0.7064 -0.7078 18931.5508 -7850.5874)">
					<stop  offset="0" style="stop-color:#040404"/>
					<stop  offset="0.2549" style="stop-color:#040404"/>
					<stop  offset="0.349" style="stop-color:#737373"/>
					<stop  offset="0.4902" style="stop-color:#030303"/>
					<stop  offset="1" style="stop-color:#000000"/>
				</linearGradient>
				<path fill-rule="evenodd" clip-rule="evenodd" fill="url(#SVGID_4_)" d="M13-1C3.8-4.3-5.3-2-14.5,5.8c0.7,1.7,1.8,3.3,3.3,4.6
					c2.7,2.8,6.1,4.2,10,4.2c3.9,0,7.3-1.4,10.1-4.2c2.8-2.8,4.1-6.1,4.1-10C13-0.1,13-0.6,13-1z"/>
				<path fill-rule="evenodd" clip-rule="evenodd" d="M13-1c-0.3-3.4-1.6-6.3-4.1-8.8C6-12.5,2.6-13.9-1.3-13.9
					c-3.9,0-7.3,1.4-10,4.1c-2.8,2.8-4.3,6.2-4.3,10.1c0,1.9,0.3,3.7,1,5.4C-5.3-2,3.8-4.3,13-1z"/>
			</g>
			<g>
				
					<radialGradient id="SVGID_5_" cx="12.3501" cy="4.6499" r="5.8889" gradientTransform="matrix(0.9272 0.3745 -0.2075 0.5139 1.8633 -2.3643)" gradientUnits="userSpaceOnUse">
					<stop  offset="0" style="stop-color:#777777"/>
					<stop  offset="0.3686" style="stop-color:#20282D"/>
					<stop  offset="0.6196" style="stop-color:#192B39"/>
					<stop  offset="1" style="stop-color:#000000"/>
				</radialGradient>
				<path fill-rule="evenodd" clip-rule="evenodd" fill="url(#SVGID_5_)" d="M11.3,0.1c0,1.8-0.7,3.4-1.9,4.8L16.8,7
					C18,6.4,18.4,5.4,18,4L11.3,0.1z"/>
			</g>
			<g>
				<path fill-rule="evenodd" clip-rule="evenodd" d="M1,10.9c2.8,0,5.2-1,7.3-3c2-2,3-4.5,3-7.3c0-2.8-1-5.2-3-7.2
					c-2-2-4.5-3-7.3-3s-5.2,1-7.2,3c-2,2-3,4.4-3,7.2c0,2.8,1,5.2,3,7.3C-4.2,9.9-1.8,10.9,1,10.9z"/>
			</g>
			<g>
				
					<linearGradient id="SVGID_6_" gradientUnits="userSpaceOnUse" x1="15680.6895" y1="-0.8442" x2="15699.9893" y2="-0.8442" gradientTransform="matrix(5.181347e-005 1 -1 -1.000000e-003 0.5928 -15690.8408)">
					<stop  offset="0" style="stop-color:#393140"/>
					<stop  offset="0.502" style="stop-color:#121518"/>
					<stop  offset="1" style="stop-color:#2F4751"/>
				</linearGradient>
				<path fill-rule="evenodd" clip-rule="evenodd" fill="url(#SVGID_6_)" d="M2.3,9.1c2.6,0,4.9-0.9,6.8-2.8
					c1.9-1.9,2.9-4.2,2.9-6.9c0-2.6-0.9-4.9-2.9-6.8c-1.9-1.9-4.2-2.9-6.8-2.9s-4.9,1-6.8,2.9c-1.9,1.9-2.9,4.1-2.9,6.8
					c0,2.7,0.9,5,2.9,6.9C-2.6,8.2-0.4,9.1,2.3,9.1z"/>
			</g>
			<g>
				
					<linearGradient id="SVGID_7_" gradientUnits="userSpaceOnUse" x1="11967.6172" y1="-18134.3984" x2="11973.6543" y2="-18134.3984" gradientTransform="matrix(-0.9196 -0.393 0.393 -0.9196 18134.3145 -11969.7383)">
					<stop  offset="0" style="stop-color:#1D1D1D"/>
					<stop  offset="0.3647" style="stop-color:#131313"/>
					<stop  offset="0.4549" style="stop-color:#666666"/>
					<stop  offset="0.5843" style="stop-color:#0D0D0D"/>
					<stop  offset="1" style="stop-color:#000000"/>
				</linearGradient>
				<path fill-rule="evenodd" clip-rule="evenodd" fill="url(#SVGID_7_)" d="M3.1-0.5L3.1-0.5l-0.2,0v-0.3l-5.6,4
					C-2.5,3.5-2.3,3.8-2,4c1.3,1.3,2.9,2,4.8,2c0.2,0,0.4,0,0.6,0L3.1-0.5z"/>
				<path fill-rule="evenodd" clip-rule="evenodd" fill="#0E0300" d="M9.4,0.1C9.5-1,8.8-3,7.1-5.8C5.9-6.9,4.4-7.5,2.7-7.5
					c-1.8,0-3.4,0.7-4.8,2c-1.3,1.3-2,2.9-2,4.8c0,1.1,0.2,2.1,0.7,3C-3.2,2.6-3,3-2.8,3.3l5.6-4v0.3h0.2v0C5.2,0,7.3,0.3,9.4,0.4
					c0,0,0-0.1,0-0.1V0.1z"/>
				
					<linearGradient id="SVGID_8_" gradientUnits="userSpaceOnUse" x1="18567.7793" y1="-10645.3145" x2="18572.8086" y2="-10645.3145" gradientTransform="matrix(-0.8628 0.5055 -0.5055 -0.8628 10644.627 -18570.5625)">
					<stop  offset="0" style="stop-color:#000000"/>
					<stop  offset="0.1451" style="stop-color:#464646"/>
					<stop  offset="0.2667" style="stop-color:#AAAAAA"/>
					<stop  offset="0.5059" style="stop-color:#656565"/>
					<stop  offset="0.7059" style="stop-color:#191919"/>
					<stop  offset="1" style="stop-color:#000000"/>
				</linearGradient>
				<path fill-rule="evenodd" clip-rule="evenodd" fill="url(#SVGID_8_)" d="M9.4,0.4C7.3,0.3,5.2,0,3.1-0.5L3.3,6
					c1.1-0.1,2-0.4,2.9-1c0.5-0.3,0.9-0.6,1.3-1c0.8-0.9,1.4-1.8,1.7-2.9C9.3,1,9.3,0.8,9.4,0.5C9.4,0.5,9.4,0.4,9.4,0.4z M9.4,0.1
					c0-0.3,0.1-0.5,0.1-0.9c0-0.7-0.1-1.4-0.3-2c-0.3-1-0.9-1.9-1.6-2.8C7.4-5.6,7.3-5.7,7.1-5.8C8.8-3,9.5-1,9.4,0.1z"/>
			</g>
			<g>
				<path fill-rule="evenodd" clip-rule="evenodd" d="M19.4,11.8v-0.9h1.1v0.9h0.3V9.6h-0.3v1h-1.1v-1h-0.3v2.1H19.4z M18.5,11.1
					c-0.1,0.2-0.1,0.3-0.3,0.4c-0.1,0.1-0.2,0.1-0.4,0.1c-0.2,0-0.3,0-0.4-0.1c-0.1-0.1-0.2-0.2-0.3-0.3c0-0.1,0-0.3,0-0.4
					c0-0.2,0-0.4,0-0.5c0.1-0.1,0.1-0.2,0.3-0.3c0.1-0.1,0.3-0.1,0.4-0.1s0.3,0.1,0.4,0.2c0.1,0.1,0.2,0.2,0.2,0.4l0.3-0.1
					c-0.1-0.2-0.2-0.4-0.3-0.5c-0.2-0.1-0.4-0.2-0.6-0.2s-0.4,0.1-0.5,0.2c-0.1,0.1-0.3,0.2-0.4,0.4c-0.1,0.2-0.1,0.4-0.1,0.6
					c0,0.2,0.1,0.4,0.1,0.5c0.1,0.2,0.2,0.3,0.4,0.4c0.2,0.1,0.3,0.1,0.5,0.1c0.2,0,0.4-0.1,0.6-0.2c0.1-0.1,0.2-0.3,0.3-0.5
					L18.5,11.1z M13.6,10.3c-0.1,0.1-0.1,0.2-0.1,0.4c0,0.2,0,0.3,0.1,0.4c0.1,0.1,0.2,0.2,0.4,0.2c0.2,0,0.3-0.1,0.4-0.2
					c0.1-0.1,0.1-0.2,0.1-0.4c0-0.2-0.1-0.3-0.1-0.4c-0.1-0.1-0.2-0.1-0.4-0.1C13.9,10.1,13.8,10.1,13.6,10.3z M18.1,0.7
					c0.1-0.1,0.1-0.2,0.1-0.4c0-0.2,0-0.3-0.1-0.4s-0.2-0.1-0.4-0.1c-0.2,0-0.3,0-0.4,0.1c-0.1,0.1-0.1,0.2-0.1,0.4
					c0,0.2,0.1,0.3,0.1,0.4c0.1,0.1,0.2,0.1,0.4,0.1C17.9,0.9,18,0.8,18.1,0.7z M27.1,11.8l-0.9-0.9l1-1.3h-0.4L26,10.7l-0.3-0.4
					V9.6h-0.3v2.1h0.3v-1l1,1H27.1z M24.5,11.5c-0.1,0.1-0.2,0.1-0.3,0.1c-0.2,0-0.3,0-0.4-0.1c-0.1-0.1-0.2-0.2-0.3-0.3
					c0-0.1,0-0.3,0-0.4c0-0.2,0-0.4,0-0.5c0.1-0.1,0.2-0.2,0.3-0.3c0.1-0.1,0.3-0.1,0.4-0.1s0.3,0.1,0.4,0.2
					c0.1,0.1,0.2,0.2,0.2,0.4l0.3-0.1c-0.1-0.2-0.2-0.4-0.3-0.5c-0.2-0.1-0.4-0.2-0.6-0.2c-0.2,0-0.4,0.1-0.6,0.2
					c-0.1,0.1-0.3,0.2-0.4,0.4c-0.1,0.2-0.1,0.4-0.1,0.6c0,0.2,0,0.4,0.1,0.5c0.1,0.2,0.2,0.3,0.4,0.4c0.2,0.1,0.3,0.1,0.5,0.1
					c0.2,0,0.4-0.1,0.5-0.2c0.1-0.1,0.2-0.3,0.3-0.5l-0.3,0C24.7,11.3,24.6,11.4,24.5,11.5z M22.9,11.5h-1.3v-0.6h1.2v-0.3h-1.2V9.9
					h1.4V9.6h-1.6v2.1h1.6V11.5z M21,0.9C21.2,1,21.4,1,21.5,1C21.8,1,22,1,22.1,0.9c0.1-0.1,0.2-0.3,0.3-0.5l-0.3,0
					c-0.1,0.2-0.1,0.3-0.3,0.4c-0.1,0.1-0.2,0.1-0.4,0.1c-0.2,0-0.3,0-0.4-0.1C21,0.6,21,0.5,20.9,0.4c0-0.1,0-0.3,0-0.4
					c0-0.2,0-0.4,0-0.5C21-0.7,21-0.8,21.1-0.9C21.3-0.9,21.4-1,21.5-1s0.3,0.1,0.4,0.2c0.1,0.1,0.2,0.2,0.2,0.4l0.3-0.1
					c-0.1-0.2-0.2-0.4-0.3-0.5c-0.2-0.1-0.4-0.2-0.6-0.2c-0.2,0-0.4,0.1-0.5,0.2c-0.1,0.1-0.3,0.2-0.4,0.4c-0.1,0.2-0.1,0.4-0.1,0.6
					c0,0.2,0.1,0.4,0.2,0.5C20.8,0.7,20.9,0.8,21,0.9z M23.7,0.8c-0.2,0-0.4-0.1-0.5-0.2S23,0.2,23-0.1c0-0.3,0.1-0.5,0.2-0.6
					C23.3-0.9,23.5-1,23.7-1c0.2,0,0.4,0.1,0.5,0.3c0.1,0.1,0.2,0.3,0.2,0.6c0,0.2,0,0.4-0.1,0.5c0,0.1-0.1,0.2-0.3,0.3
					C24,0.8,23.9,0.8,23.7,0.8z M24.6,0.5c0.1-0.2,0.1-0.4,0.1-0.6c0-0.2,0-0.4-0.1-0.5C24.5-0.8,24.4-1,24.3-1
					c-0.2-0.1-0.4-0.2-0.5-0.2c-0.2,0-0.4,0.1-0.5,0.2C23-1,22.9-0.8,22.8-0.6c-0.1,0.2-0.1,0.4-0.1,0.5c0,0.4,0.1,0.6,0.3,0.9
					C23.2,1,23.4,1,23.7,1c0.2,0,0.4,0,0.5-0.1S24.5,0.7,24.6,0.5z M28,0.8h-0.5v-1.6H28c0.2,0,0.3,0,0.4,0c0.1,0,0.2,0.1,0.2,0.1
					c0.1,0.1,0.1,0.2,0.2,0.3c0,0.1,0,0.2,0,0.4c0,0.2,0,0.4-0.1,0.5c-0.1,0.1-0.1,0.2-0.3,0.3C28.3,0.7,28.2,0.8,28,0.8z M28,1
					c0.2,0,0.3,0,0.4,0c0.1,0,0.2-0.1,0.3-0.2c0.1-0.1,0.2-0.2,0.3-0.3C29,0.3,29,0.1,29,0c0-0.2,0-0.3,0-0.5s-0.1-0.2-0.1-0.3
					C28.8-0.9,28.7-1,28.6-1c-0.1-0.1-0.1-0.1-0.3-0.1c-0.1,0-0.2,0-0.4,0h-0.8V1H28z M26.8,1v-2.1h-0.3l-1.1,1.7v-1.7h-0.3V1h0.3
					l1.1-1.7V1H26.8z M23-9.3h-1.3v-0.6h1.2v-0.3h-1.2v-0.8H23v-0.3h-1.6V-9H23V-9.3z M23.7-9v-1.9h1v-0.3h-1.4V-9H23.7z M20.8-9.6
					c-0.1,0.2-0.1,0.3-0.3,0.4c-0.1,0.1-0.2,0.1-0.3,0.1c-0.2,0-0.3,0-0.4-0.1c-0.1-0.1-0.2-0.2-0.3-0.3c0-0.1,0-0.3,0-0.4
					c0-0.2,0-0.4,0-0.5c0.1-0.1,0.2-0.2,0.3-0.3c0.1-0.1,0.3-0.1,0.4-0.1s0.3,0.1,0.4,0.2c0.1,0.1,0.2,0.2,0.2,0.4l0.3-0.1
					c-0.1-0.2-0.2-0.4-0.3-0.5c-0.2-0.1-0.4-0.2-0.6-0.2c-0.2,0-0.4,0.1-0.6,0.2c-0.1,0.1-0.3,0.2-0.4,0.4c-0.1,0.2-0.1,0.4-0.1,0.6
					c0,0.2,0,0.4,0.1,0.5c0.1,0.2,0.2,0.3,0.4,0.4C19.9-9,20-9,20.2-9c0.2,0,0.4-0.1,0.5-0.2C20.9-9.3,21-9.4,21-9.6L20.8-9.6z
					 M25-9h0.3v-1.9h1v-0.3H25V-9z M28.4-13.3h-0.7v-1.9h-0.3v1.9h-0.8v0.3h1.7V-13.3z M26.3-13.3c0.1-0.1,0.1-0.2,0.2-0.4l-0.3,0
					c0,0.2,0,0.3-0.1,0.4c-0.1,0.1-0.2,0.1-0.4,0.1c-0.2,0-0.3,0-0.4-0.1c-0.1-0.1-0.1-0.2-0.1-0.3c0-0.1,0-0.1,0.1-0.2
					c0.1,0,0.2-0.1,0.4-0.1c0.2,0,0.4-0.1,0.5-0.1c0.1-0.1,0.2-0.1,0.3-0.3c0.1-0.1,0.1-0.2,0.1-0.3c0-0.1,0-0.2-0.1-0.3
					c-0.1-0.1-0.2-0.2-0.3-0.3c-0.1-0.1-0.2-0.1-0.4-0.1c-0.2,0-0.4,0-0.5,0.1C25.1-15,25-15,24.9-14.9c-0.1,0.1-0.1,0.2-0.1,0.4H25
					c0-0.1,0-0.2,0.1-0.3c0-0.1,0.1-0.1,0.2-0.1c0.1-0.1,0.2-0.1,0.4-0.1c0.1,0,0.2,0,0.3,0.1c0.1,0,0.2,0.1,0.2,0.1
					s0.1,0.1,0.1,0.2c0,0.1,0,0.1-0.1,0.1c0,0.1-0.1,0.1-0.2,0.1c0,0-0.2,0-0.4,0.1c-0.2,0-0.4,0.1-0.5,0.1C25-14,25-13.9,25-13.9
					c-0.1,0.1-0.1,0.2-0.1,0.3c0,0.1,0,0.2,0.1,0.3c0.1,0.1,0.2,0.2,0.3,0.2c0.1,0.1,0.2,0.1,0.4,0.1c0.2,0,0.3,0,0.4-0.1
					C26.2-13.1,26.3-13.1,26.3-13.3z M24.4-13v-2.1h-0.3L23-13.5v-1.7h-0.3v2.1H23l1.1-1.7v1.7H24.4z M22.2-13.5
					c0.1-0.2,0.1-0.4,0.1-0.6c0-0.2-0.1-0.4-0.1-0.5C22.1-14.8,22-15,21.9-15c-0.2-0.1-0.4-0.2-0.6-0.2c-0.2,0-0.4,0.1-0.5,0.2
					c-0.2,0.1-0.3,0.2-0.4,0.4c-0.1,0.2-0.1,0.4-0.1,0.5c0,0.4,0.1,0.6,0.3,0.9C20.8-13,21-13,21.3-13c0.2,0,0.4,0,0.6-0.1
					C22-13.2,22.1-13.3,22.2-13.5z M21.7-13.3c-0.1,0.1-0.2,0.1-0.4,0.1c-0.2,0-0.4-0.1-0.5-0.2s-0.2-0.4-0.2-0.7
					c0-0.3,0.1-0.5,0.2-0.6c0.1-0.2,0.3-0.3,0.5-0.3c0.2,0,0.4,0.1,0.6,0.3c0.1,0.1,0.2,0.3,0.2,0.6c0,0.2,0,0.4-0.1,0.5
					C21.9-13.5,21.8-13.4,21.7-13.3z M15.9-10.5c0,0.2,0.1,0.3,0.1,0.4c0.1,0.1,0.2,0.1,0.4,0.1c0.2,0,0.3,0,0.4-0.1
					s0.1-0.2,0.1-0.4c0-0.2,0-0.3-0.1-0.4c-0.1-0.1-0.2-0.1-0.4-0.1c-0.2,0-0.3,0.1-0.4,0.1C16-10.9,15.9-10.7,15.9-10.5z
					 M19.7-13.1c0.1-0.1,0.2-0.3,0.3-0.5l-0.3,0c-0.1,0.2-0.1,0.3-0.3,0.4c-0.1,0.1-0.2,0.1-0.4,0.1c-0.2,0-0.3,0-0.4-0.1
					c-0.1-0.1-0.2-0.2-0.3-0.3c0-0.1,0-0.3,0-0.4c0-0.2,0-0.4,0-0.5c0.1-0.1,0.1-0.2,0.3-0.3c0.1-0.1,0.3-0.1,0.4-0.1
					s0.3,0.1,0.4,0.2c0.1,0.1,0.2,0.2,0.2,0.4l0.3-0.1c-0.1-0.2-0.2-0.4-0.3-0.5c-0.2-0.1-0.4-0.2-0.6-0.2s-0.4,0.1-0.5,0.2
					c-0.1,0.1-0.3,0.2-0.4,0.4c-0.1,0.2-0.1,0.4-0.1,0.6c0,0.2,0.1,0.4,0.1,0.5c0.1,0.2,0.2,0.3,0.4,0.4C18.8-13,19-13,19.1-13
					C19.4-13,19.6-13,19.7-13.1z"/>
			</g>
			<g>
				
					<radialGradient id="SVGID_9_" cx="6693.0146" cy="86.0396" r="3.0377" gradientTransform="matrix(0.9999 1.234474e-002 -0.2387 0.2798 -6670.2197 -116.8491)" gradientUnits="userSpaceOnUse">
					<stop  offset="0" style="stop-color:#FFFFFF;stop-opacity:0.8314"/>
					<stop  offset="0.1294" style="stop-color:#FEFEFE;stop-opacity:0.6196"/>
					<stop  offset="0.5765" style="stop-color:#F9F9F9;stop-opacity:4.705882e-002"/>
					<stop  offset="1" style="stop-color:#F6F6F6;stop-opacity:0"/>
				</radialGradient>
				<path fill-rule="evenodd" clip-rule="evenodd" fill="url(#SVGID_9_)" d="M5.3-10c0.3-0.3,0.2-0.6-0.4-0.9
					c-0.6-0.2-1.3-0.3-2.1-0.3c-1.1,0-2.1,0.1-3,0.3C-1.1-10.7-1.8-10.4-2-10c-0.3,0.3-0.1,0.6,0.4,0.8c0.5,0.2,1.3,0.4,2.3,0.4
					c1,0,1.9-0.1,2.8-0.3C4.4-9.4,5-9.7,5.3-10z"/>
			</g>
		</g>
	</g>
	<g id="Layer_13_1_">
	</g>
</symbol>
<g id="Layer_1">
	<g>
		<linearGradient id="SVGID_10_" gradientUnits="userSpaceOnUse" x1="198.6768" y1="63.583" x2="198.8871" y2="219.8376">
			<stop  offset="0" style="stop-color:#CFD1B6"/>
			<stop  offset="0.502" style="stop-color:#DADCC7"/>
			<stop  offset="0.6196" style="stop-color:#8B8A5A"/>
			<stop  offset="0.8784" style="stop-color:#8B8A5A"/>
			<stop  offset="1" style="stop-color:#837D52"/>
		</linearGradient>
		<path fill="url(#SVGID_10_)" d="M396.5,160.8L391.6,46c0.2-3.8-1.4-8.1-4.8-12.9L360,5.8c-2.8-2.9-6-4.5-9.5-4.8H50.3
			C45.5,1,41.4,2.9,38,6.9L18.5,26l-6,5.8C8.4,36,6.1,41.3,5.6,47.6L1,161.4c-0.1,4.2,0.3,9.1,1.3,14.7c0.5,3.7,1,6.7,1.3,8.9
			c1,1.8,2.8,2.8,5.7,3h380.7c2.3,0.2,3.7-1.1,4.2-3.8l1.4-8.1C396.5,170.4,396.8,165.3,396.5,160.8z"/>
		<g>
			<path fill-rule="evenodd" clip-rule="evenodd" fill="#EEEEE6" d="M379.8,26H18.5L38,6.9c3.4-4,7.5-5.9,12.3-5.8h300.2
				c3.5,0.3,6.6,1.9,9.5,4.8L379.8,26z"/>
			
				<linearGradient id="SVGID_11_" gradientUnits="userSpaceOnUse" x1="-53.6475" y1="-510.7988" x2="-53.6288" y2="-482.7988" gradientTransform="matrix(1.1455 0 0 1.1455 260.0828 610.5375)">
				<stop  offset="0" style="stop-color:#EEEEE6"/>
				<stop  offset="0.149" style="stop-color:#EEEEE6"/>
				<stop  offset="0.302" style="stop-color:#E9E9DD"/>
				<stop  offset="0.4863" style="stop-color:#F9F8F4"/>
				<stop  offset="0.6157" style="stop-color:#CFD1B6"/>
				<stop  offset="1" style="stop-color:#CFD1B6"/>
			</linearGradient>
			<path fill-rule="evenodd" clip-rule="evenodd" fill="url(#SVGID_11_)" d="M392.3,62.7H5l0.6-15.1c0.5-6.3,2.8-11.6,6.9-15.8
				l6-5.8h361.3l7,7.2c3.4,4.8,5,9.1,4.8,12.9L392.3,62.7z"/>
			
				<linearGradient id="SVGID_12_" gradientUnits="userSpaceOnUse" x1="-53.4253" y1="-382.2002" x2="-53.4253" y2="-369.4002" gradientTransform="matrix(1.1455 0 0 1.1455 260.0828 610.5375)">
				<stop  offset="0" style="stop-color:#8B8A5A"/>
				<stop  offset="0.8549" style="stop-color:#898859"/>
				<stop  offset="1" style="stop-color:#A98D4E"/>
			</linearGradient>
			<path fill-rule="evenodd" clip-rule="evenodd" fill="url(#SVGID_12_)" d="M2.3,176.1h393.2l-1.4,8.1c-0.5,2.7-1.9,4-4.2,3.8H9.2
				c-2.8-0.2-4.7-1.2-5.7-3C3.2,182.8,2.8,179.9,2.3,176.1z"/>
			
				<linearGradient id="SVGID_13_" gradientUnits="userSpaceOnUse" x1="-53.4907" y1="-402.25" x2="-53.4907" y2="-374.25" gradientTransform="matrix(1.1455 0 0 1.1455 260.0828 610.5375)">
				<stop  offset="0" style="stop-color:#CFD1B6"/>
				<stop  offset="0.502" style="stop-color:#DADCC7"/>
				<stop  offset="0.6196" style="stop-color:#8B8A5A"/>
				<stop  offset="0.8784" style="stop-color:#8B8A5A"/>
				<stop  offset="1" style="stop-color:#837D52"/>
			</linearGradient>
			<path fill-rule="evenodd" clip-rule="evenodd" fill="url(#SVGID_13_)" d="M2,142.3h393.6l0.8,18.5c0.4,4.5,0.1,9.6-1,15.3H2.3
				c-1-5.6-1.4-10.5-1.3-14.7L2,142.3z"/>
			<polygon fill-rule="evenodd" clip-rule="evenodd" fill="#CFD1B6" points="5,62.7 392.3,62.7 395.7,142.3 2,142.3 			"/>
		</g>
		<g>
			
				<radialGradient id="SVGID_14_" cx="-13.2075" cy="-498.1484" r="79.1629" gradientTransform="matrix(1.1454 -8.313437e-003 9.289362e-002 4.265155e-002 189.3304 61.5692)" gradientUnits="userSpaceOnUse">
				<stop  offset="0" style="stop-color:#FFFFFF"/>
				<stop  offset="0.1412" style="stop-color:#FFFFFF"/>
				<stop  offset="0.3176" style="stop-color:#FEFEFE"/>
				<stop  offset="0.5373" style="stop-color:#FBFBFB;stop-opacity:0.502"/>
				<stop  offset="0.7529" style="stop-color:#F9F9F9;stop-opacity:9.411765e-002"/>
				<stop  offset="1" style="stop-color:#F6F6F6;stop-opacity:0"/>
			</radialGradient>
			<path fill-rule="evenodd" clip-rule="evenodd" fill="url(#SVGID_14_)" d="M209.9,42.7c-18.7,0.8-43,1.4-72.9,1.7
				c-29.4,0.2-56.3,0-80.6-0.6c-22.9-0.7-35.7-1.7-38.5-3c-2.3-1.3,6.1-2.3,25.3-3.3c20.1-1.1,44.8-1.8,74.3-1.9
				c30.4-0.2,56.5,0.1,78.5,0.7c23.8,0.7,37.2,1.7,40,3C238.6,40.5,229.9,41.7,209.9,42.7z"/>
		</g>
		<g>
			
				<radialGradient id="SVGID_15_" cx="-521.3711" cy="-388.728" r="134.6822" gradientTransform="matrix(1.1455 5.312425e-003 9.286117e-002 1.253732e-002 838.9158 172.9335)" gradientUnits="userSpaceOnUse">
				<stop  offset="0" style="stop-color:#FFFFFF"/>
				<stop  offset="0.1412" style="stop-color:#FFFFFF"/>
				<stop  offset="0.3176" style="stop-color:#FEFEFE"/>
				<stop  offset="0.5373" style="stop-color:#FBFBFB;stop-opacity:0.502"/>
				<stop  offset="0.7529" style="stop-color:#F9F9F9;stop-opacity:9.411765e-002"/>
				<stop  offset="1" style="stop-color:#F6F6F6;stop-opacity:0"/>
			</radialGradient>
			<path fill-rule="evenodd" clip-rule="evenodd" fill="url(#SVGID_15_)" d="M221,167.3c-50.1-0.2-95.7-0.6-137.1-1.2
				c-38.9-0.6-60.8-1.3-65.6-1.9c-4-0.6,10.3-1,42.9-1.3c34.2-0.3,76.3-0.3,126.4-0.1c51.7,0.3,96.2,0.7,133.5,1.3
				c40.5,0.6,63.2,1.2,67.9,1.8c4.8,0.7-9.9,1.1-44.1,1.4C313.2,167.5,271.9,167.5,221,167.3z"/>
		</g>
		<g>
			<polygon fill-rule="evenodd" clip-rule="evenodd" fill="#FFFFFF" fill-opacity="0.298" points="387.6,48.8 391.7,161.1 
				391.8,162.4 8.7,162.4 12.7,50.2 13.7,51.1 10,161.1 10.4,161.1 11.3,161.1 390.1,161.1 385.7,47.2 			"/>
		</g>
		<g>
			<polygon fill-rule="evenodd" clip-rule="evenodd" fill="#CFD1B6" points="386.2,47.2 390.3,159.4 390.4,160.8 7.3,160.8 
				11.3,49.5 12.4,49.5 8.6,159.4 9.1,159.4 10,159.4 388.7,159.4 384.4,47.2 			"/>
		</g>
		<g>
			
				<path fill-rule="evenodd" clip-rule="evenodd" fill="none" stroke="#FFFFFF" stroke-linecap="round" stroke-linejoin="round" stroke-miterlimit="3" stroke-opacity="0.498" d="
				M377.3,142.3L374,69.2c0-3.8-1.9-5.7-5.7-5.7h-10.9 M196.7,63.5h-11.9c-3.8,0-5.7,1.9-5.7,5.7v72.5"/>
		</g>
		<g>
			<path fill-rule="evenodd" clip-rule="evenodd" fill="#93985F" d="M376.2,141.1c0-0.2,0.1-0.4,0.1-0.6h0.7v4.4
				c0,3.8-1.9,5.7-5.7,5.7H182.9c-3.8,0-5.7-1.9-5.7-5.7v-4.4h0.7c0.5,2.7,2.2,4,5.3,4.1h188.8C374.3,144.3,375.7,143.1,376.2,141.1
				z"/>
			
				<path fill-rule="evenodd" clip-rule="evenodd" fill="none" stroke="#93985F" stroke-linecap="round" stroke-linejoin="round" stroke-miterlimit="3" d="
				M376.2,141.1L372.9,68c0-3.8-1.9-5.7-5.7-5.7h-10.9 M195.5,62.3h-11.9c-3.8,0-5.7,1.9-5.7,5.7v72.5"/>
		</g>
		<g>
			<g>
				
					<radialGradient id="SVGID_16_" cx="18.5645" cy="-445.4351" r="27.4408" gradientTransform="matrix(1.1401 0.1106 -0.3454 1.1172 104.1812 603.7021)" gradientUnits="userSpaceOnUse">
					<stop  offset="0" style="stop-color:#040404;stop-opacity:0.6118"/>
					<stop  offset="0.5961" style="stop-color:#020202;stop-opacity:0.1569"/>
					<stop  offset="1" style="stop-color:#000000;stop-opacity:0"/>
				</radialGradient>
				<polygon fill-rule="evenodd" clip-rule="evenodd" fill="url(#SVGID_16_)" points="265.5,115.9 283.9,99 308.4,134.5 
					280.2,144.6 				"/>
			</g>
			<g>
				
					<path fill-rule="evenodd" clip-rule="evenodd" fill="none" stroke="#000000" stroke-width="0.1" stroke-linecap="round" stroke-linejoin="round" stroke-miterlimit="3" stroke-opacity="0.251" d="
					M276.2,106.4L276.2,106.4L276.2,106.4L276.2,106.4z M276.1,106.4L276.1,106.4L276.1,106.4 M290.5,131.4l-14.3-25l-14.5,24.9
					 M251.1,120.7l24.9-14.3l-28.8-0.1 M305,106.4l-28.8,0.1l25,14.4 M290.6,81.3l-14.4,25l25-14.5 M276.1,77.5l0.1,28.9
					 M251.1,91.9l25,14.4l-14.4-25"/>
			</g>
			<g>
				
					<path fill-rule="evenodd" clip-rule="evenodd" fill="none" stroke="#000000" stroke-width="0.1" stroke-linecap="round" stroke-linejoin="round" stroke-miterlimit="3" stroke-opacity="0.251" d="
					M276.2,106.4L276.2,106.4L276.2,106.4L276.2,106.4l-0.1,0.1v-0.1l-0.1,0.2 M295.3,110.6l-19-4.2h-0.1l18.5,6.2 M276.1,106.4
					L276.1,106.4L276.1,106.4L276.1,106.4z M264.6,90.1l11.3,15.9l0.2,0.2l0.1,0.1l-0.1-0.2l-8-18.2 M276.1,106.4L276.1,106.4
					L276.1,106.4L276.1,106.4z M260.3,94.6l15.8,11.7l-0.1-0.1l-0.1-0.1L261.6,93 M276.2,106.4L276.2,106.4l-0.1-0.2l-6.1-19
					 M275.8,106.5L275.8,106.5l0.1,0l0.2-0.1L275.8,106.5L275.8,106.5l0.1,0 M264.8,122.8l11.3-16.3l-0.1,0.1l-0.1,0.1l-12.7,14.8
					 M276.1,106.5l-0.1,0.1 M276,106.2l-0.1-0.2L263,91.5 M275.8,106.5l-0.2,0.1L275.8,106.5l-17.4,8.2 M287.7,122.7l-11.6-16.2
					 M290.7,119.8l-14.5-13.3l13.2,14.8 M256.8,104.4l19.3,2l-19.1-4.1 M275.8,106.5l-19,2.2 M260.4,118.3l15.5-11.7 M257.6,100.2
					l18.6,6.2l-17.9-8.1 M275.9,106.7L261.7,120 M257.6,112.7l18-6.1l-18.5,4.1 M295.5,104.2l-19.2,2.2l19.2,2.1 M294.7,100.1
					l-18.5,6.3l19.1-4.2 M291.9,94.5l-15.7,11.9l17.8-8.3 M294,114.5l-17.8-8.1l15.7,11.8 M287.6,90l-11.4,16.3l13-15.1 M282.1,87.2
					l-6,19.1l7.8-18.4 M278.1,86.4l-1.9,19.9l3.9-19.6 M290.6,92.8l-14.4,13.5 M272,86.8l4.1,19.4 M276.2,106.3l-2.1-19.9"/>
			</g>
			<g>
				<path fill-rule="evenodd" clip-rule="evenodd" d="M284.4,117.6c-3.1,2.6-6.7,3.8-10.7,3.4c-4-0.4-7.3-2.2-10-5.3
					c-1.2-1.5-2-3-2.6-4.5c-0.6-1.9-0.9-4-0.7-6.2c0.4-4,2.2-7.3,5.3-9.9c3.2-2.6,6.8-3.6,10.8-3.3c4,0.4,7.3,2.1,9.9,5.2
					c2.6,3.2,3.7,6.8,3.3,10.8c-0.2,2.2-0.8,4.1-1.8,5.9c-0.1,0.1-0.2,0.2-0.2,0.3C286.8,115.3,285.7,116.5,284.4,117.6z
					 M263.7,106.5L263.7,106.5c0.1-0.1,0.1-0.2,0.1-0.3C263.8,106.3,263.8,106.4,263.7,106.5z M266.6,108L266.6,108
					c-0.1,0.1-0.1,0.2-0.1,0.3C266.6,108.2,266.6,108.1,266.6,108z"/>
			</g>
			<g>
				
					<linearGradient id="SVGID_17_" gradientUnits="userSpaceOnUse" x1="3.5244" y1="-442.7334" x2="22.9744" y2="-440.8834" gradientTransform="matrix(1.1455 0 0 1.1455 260.0828 610.5375)">
					<stop  offset="0" style="stop-color:#080808"/>
					<stop  offset="0.3294" style="stop-color:#212121"/>
					<stop  offset="0.5098" style="stop-color:#6A6A6A"/>
					<stop  offset="0.6471" style="stop-color:#222222"/>
					<stop  offset="1" style="stop-color:#000000"/>
				</linearGradient>
				<path fill-rule="evenodd" clip-rule="evenodd" fill="url(#SVGID_17_)" d="M266.5,108.6c0,0.1,0,0.2,0,0.3v0.1
					c-0.1,1,0,1.9,0.3,2.8l-2.2-0.2c-0.6-1.3-0.9-2.8-0.8-4.5c0-0.1,0-0.2,0-0.3v-0.1c0-0.1,0-0.2,0.1-0.4c0.3-3.1,1.6-5.6,4-7.5
					c2.4-2,5.1-2.8,8.1-2.5c3.1,0.3,5.6,1.6,7.6,4c2,2.4,2.8,5.1,2.6,8.2c0,0.2-0.1,0.3-0.1,0.4c0,0.2,0,0.3-0.1,0.4
					c-0.3,1.6-0.8,3-1.6,4.2l-2.5-0.2c0.5-0.8,0.8-1.7,0.9-2.7c0-0.1,0-0.2,0-0.4c0.2-2.3-0.4-4.3-1.8-6.1c-1.5-1.8-3.3-2.7-5.6-3
					c-2.3-0.2-4.3,0.4-6,1.8C267.7,104.5,266.7,106.3,266.5,108.6z"/>
				<path fill-rule="evenodd" clip-rule="evenodd" d="M261.2,111.6l1.2,0.1c-0.5-1.6-0.6-3.3-0.5-5.1c0.3-3.6,1.9-6.5,4.6-8.8
					c2.8-2.3,6-3.3,9.6-2.9c3.6,0.3,6.5,1.9,8.7,4.7c2.4,2.8,3.4,6,3,9.6c-0.2,1.8-0.7,3.4-1.5,4.9l1.3,0.1
					c-0.1,0.2-0.2,0.3-0.2,0.5c-0.9,1.3-2,2.5-3.3,3.6c-3.1,2.6-6.6,3.7-10.6,3.3c-4-0.4-7.3-2.1-9.9-5.3
					C262.6,114.8,261.7,113.2,261.2,111.6z M266.5,108.9c0-0.1,0-0.2,0.1-0.3h-0.1c0.2-2.3,1.2-4.1,3-5.6c1.8-1.5,3.8-2.1,6-1.8
					c2.3,0.2,4.1,1.2,5.6,3c1.5,1.8,2.1,3.8,1.8,6.1c0,0.2,0,0.3,0,0.4c-0.2,1-0.5,1.9-0.9,2.7l2.5,0.2c0.8-1.2,1.3-2.6,1.6-4.2
					c0-0.1,0.1-0.2,0.1-0.4c0-0.1,0-0.2,0.1-0.4c0.3-3.1-0.6-5.8-2.6-8.2c-1.9-2.4-4.5-3.7-7.6-4c-3.1-0.3-5.8,0.5-8.1,2.5
					c-2.4,1.9-3.7,4.4-4,7.5c0,0.2-0.1,0.3-0.1,0.4v0.1c0,0,0,0.1-0.1,0.3h0.1c-0.1,1.6,0.2,3.1,0.8,4.5l2.2,0.2
					C266.5,110.9,266.4,110,266.5,108.9L266.5,108.9z"/>
				
					<linearGradient id="SVGID_18_" gradientUnits="userSpaceOnUse" x1="0.7158" y1="-444.5669" x2="26.0103" y2="-442.115" gradientTransform="matrix(1.1455 0 0 1.1455 260.0828 610.5375)">
					<stop  offset="0" style="stop-color:#040404"/>
					<stop  offset="0.3176" style="stop-color:#030303"/>
					<stop  offset="0.4745" style="stop-color:#BEBEBE"/>
					<stop  offset="0.6431" style="stop-color:#020202"/>
					<stop  offset="1" style="stop-color:#000000"/>
				</linearGradient>
				<path fill-rule="evenodd" clip-rule="evenodd" fill="url(#SVGID_18_)" d="M287.7,114.1l-1.3-0.1c0.8-1.5,1.3-3.1,1.5-4.9
					c0.3-3.6-0.7-6.8-3-9.6c-2.2-2.8-5.1-4.4-8.7-4.7c-3.6-0.3-6.8,0.6-9.6,2.9c-2.7,2.3-4.3,5.2-4.6,8.8c-0.2,1.8,0,3.5,0.5,5.1
					l-1.2-0.1c-0.6-1.9-0.9-3.9-0.7-6c0.4-4,2.2-7.3,5.3-9.9c3.1-2.6,6.7-3.6,10.7-3.3s7.2,2.1,9.8,5.2c2.6,3.1,3.7,6.6,3.3,10.7
					C289.3,110.5,288.7,112.4,287.7,114.1z"/>
			</g>
			<g>
				
					<linearGradient id="SVGID_19_" gradientUnits="userSpaceOnUse" x1="14.8369" y1="-449.0034" x2="10.8857" y2="-432.1537" gradientTransform="matrix(1.1455 0 0 1.1455 260.0828 610.5375)">
					<stop  offset="0" style="stop-color:#444444"/>
					<stop  offset="1" style="stop-color:#000000"/>
				</linearGradient>
				<path fill-rule="evenodd" clip-rule="evenodd" fill="url(#SVGID_19_)" d="M266.4,105.7c0.2-2.3,1.2-4.2,3-5.6
					c1.8-1.5,3.8-2.1,6.1-1.9c2.3,0.2,4.2,1.2,5.7,3c1.5,1.8,2.1,3.8,1.8,6.1c-0.2,2.3-1.2,4.1-3,5.6c-1.8,1.5-3.8,2.1-6.1,1.9
					c-2.3-0.2-4.2-1.2-5.6-3C266.8,110,266.2,108,266.4,105.7z"/>
			</g>
			<g>
				<path fill-rule="evenodd" clip-rule="evenodd" fill="none" d="M266.5,105.8c0.2-2.3,1.2-4.2,3-5.6c1.8-1.5,3.8-2.1,6.1-1.9
					c2.3,0.2,4.2,1.2,5.7,3c1.5,1.8,2.1,3.8,1.8,6.1c-0.2,2.3-1.2,4.1-3,5.5c-1.8,1.5-3.8,2.1-6.1,1.9c-2.3-0.2-4.2-1.2-5.6-3
					C266.9,110.1,266.3,108.1,266.5,105.8z"/>
			</g>
			<g>
				<path fill-rule="evenodd" clip-rule="evenodd" fill-opacity="0.7294" d="M258.9,78.2c0.2,0,0.4,0.1,0.6,0.2
					c0.1,0.2,0.2,0.3,0.2,0.5c0,0.1,0,0.2-0.1,0.3c0,0.1-0.1,0.2-0.1,0.3c-0.1,0.1-0.3,0.2-0.6,0.5c-0.1,0.1-0.2,0.2-0.3,0.2
					c-0.1,0.1-0.1,0.1-0.2,0.2l1.2,0.1l0.1,0.3l-1.6-0.1c0-0.1,0-0.2,0-0.2c0-0.1,0.1-0.2,0.2-0.2c0.1-0.2,0.2-0.3,0.3-0.5
					c0.3-0.2,0.5-0.4,0.5-0.5c0.2-0.1,0.2-0.2,0.2-0.3c0-0.1-0.1-0.2-0.2-0.3c0-0.1-0.1-0.1-0.3-0.1c-0.2,0-0.3,0-0.3,0.1
					c-0.1,0.1-0.2,0.2-0.1,0.3h-0.3c0-0.2,0-0.4,0.2-0.6C258.5,78.2,258.7,78.2,258.9,78.2z M261.1,78.3c0.1,0,0.2,0.1,0.3,0.3
					c0.1,0.1,0.1,0.2,0.1,0.3c0.1,0.2,0.1,0.3,0.1,0.6c0,0.3,0,0.5-0.1,0.7s-0.1,0.3-0.3,0.4c-0.1,0.1-0.3,0.1-0.5,0.2
					c-0.2,0-0.4-0.2-0.5-0.3c-0.2-0.2-0.3-0.5-0.3-1c0-0.3,0-0.5,0.1-0.7c0.1-0.2,0.2-0.3,0.3-0.4s0.2-0.2,0.3-0.2
					C260.9,78.2,261,78.2,261.1,78.3z M260.4,79.4c0,0.4,0,0.6,0.1,0.8c0.2,0.2,0.3,0.2,0.4,0.2c0.2,0,0.3-0.1,0.3-0.2
					c0.1-0.2,0.1-0.4,0.1-0.8c0-0.5-0.1-0.7-0.1-0.9c-0.1-0.1-0.2-0.2-0.4-0.1c-0.1,0-0.2,0-0.3,0.1
					C260.4,78.8,260.3,79.1,260.4,79.4z M248.7,90.1l-0.2,0.6c0.2-0.1,0.3-0.1,0.5-0.1c0.2,0,0.4,0,0.5,0.2c0.2,0.1,0.3,0.2,0.2,0.5
					c0,0.2,0,0.4-0.2,0.6c-0.2,0.2-0.4,0.3-0.6,0.3c-0.2,0-0.4-0.1-0.5-0.3c-0.2-0.1-0.3-0.2-0.3-0.4l0.3-0.1c0,0.2,0.1,0.3,0.1,0.3
					c0.1,0.1,0.2,0.2,0.3,0.2c0.2,0,0.3-0.1,0.3-0.1c0.1-0.1,0.2-0.3,0.1-0.5c0-0.2,0-0.3-0.1-0.4c-0.2-0.2-0.3-0.2-0.5-0.2
					c-0.1,0-0.2,0-0.2,0.1c0,0-0.1,0.1-0.2,0.2h-0.3l0.2-1.3l1.2,0.1v0.3L248.7,90.1z M246.6,90.4c0.2-0.1,0.3-0.2,0.4-0.3
					c0.1-0.1,0.2-0.2,0.3-0.3h0.2l0.1,2.5l-0.3,0.1v-1.9c-0.1,0-0.2,0-0.3,0.1c-0.1,0.1-0.2,0.1-0.3,0.2V90.4z M277.7,74.4h-1
					l-0.2,0.6c0.2,0,0.3-0.1,0.5-0.1c0.2,0,0.4,0.1,0.5,0.2c0.2,0.1,0.3,0.3,0.2,0.6c0,0.2,0,0.4-0.2,0.6c-0.2,0.2-0.4,0.3-0.6,0.3
					c-0.2,0-0.4-0.1-0.5-0.3c-0.2-0.1-0.3-0.2-0.3-0.4l0.3-0.1c0,0.2,0.1,0.3,0.1,0.4c0.1,0.1,0.2,0.1,0.3,0.1c0.2,0,0.3,0,0.3-0.1
					c0.1-0.1,0.2-0.3,0.1-0.5c0-0.2,0-0.3-0.1-0.4c-0.2-0.2-0.3-0.2-0.5-0.2c-0.1,0-0.2,0-0.2,0.1c0,0-0.1,0.1-0.2,0.1h-0.3l0.2-1.3
					l1.2,0.1V74.4z M274.5,74.2c0.2-0.1,0.4-0.2,0.6-0.1c0.2,0,0.4,0,0.5,0.2c0.2,0.1,0.2,0.3,0.2,0.5c0,0.1,0,0.2-0.1,0.3
					c0,0.1-0.1,0.2-0.1,0.3c-0.2,0.1-0.3,0.3-0.6,0.5c-0.2,0.2-0.3,0.2-0.3,0.3c0,0.1-0.1,0.1-0.1,0.1l1.2,0.1l0.1,0.3l-1.7-0.1
					c0-0.1,0.1-0.2,0.1-0.2c0-0.1,0.1-0.2,0.2-0.3c0.1-0.2,0.2-0.3,0.4-0.4c0.3-0.2,0.5-0.4,0.5-0.6c0.1-0.1,0.2-0.2,0.2-0.3
					c0-0.1-0.1-0.2-0.2-0.3c-0.1-0.1-0.2-0.1-0.3-0.1c-0.2,0-0.3,0-0.3,0.1c-0.1,0.1-0.2,0.2-0.2,0.3l-0.3,0.1
					C274.3,74.6,274.3,74.4,274.5,74.2z M292.9,78.3c0.1,0,0.2,0,0.3,0.1c0.1,0,0.2,0.1,0.3,0.2c0,0.1,0,0.2,0,0.3
					c0,0.1,0,0.2,0,0.3c-0.1,0.1-0.2,0.1-0.3,0.2c0.1,0,0.2,0.1,0.3,0.2c0.1,0.1,0.2,0.2,0.2,0.3c0,0.2-0.1,0.4-0.2,0.6
					c-0.2,0.1-0.4,0.2-0.6,0.2c-0.2,0-0.4-0.1-0.5-0.3c-0.2-0.1-0.2-0.3-0.2-0.5l0.3-0.1c0,0.2,0.1,0.3,0.2,0.3
					c0.1,0.1,0.2,0.2,0.3,0.2c0.2,0,0.2-0.1,0.3-0.2c0.1-0.1,0.2-0.2,0.2-0.3c0-0.2,0-0.3-0.1-0.4c-0.1-0.1-0.2-0.2-0.3-0.1
					c-0.1,0-0.2,0-0.2,0v-0.2h0.1c0.2,0,0.3,0,0.3-0.1c0.1-0.1,0.2-0.2,0.1-0.3c0-0.1,0-0.2-0.1-0.3c-0.1,0-0.2-0.1-0.3-0.1
					s-0.2,0-0.3,0.1c-0.1,0.1-0.2,0.2-0.2,0.3l-0.3-0.1c0.1-0.2,0.2-0.4,0.2-0.5C292.5,78.4,292.7,78.3,292.9,78.3z M294.2,78.9
					c0.1-0.2,0.2-0.3,0.2-0.4c0.2-0.1,0.3-0.2,0.5-0.1c0.2,0,0.2,0,0.3,0.1c0.1,0,0.2,0.1,0.3,0.3c0.1,0.1,0.1,0.2,0.1,0.3
					c0,0.2,0.1,0.3,0.1,0.6c0,0.2-0.1,0.4-0.1,0.6c0,0.2-0.1,0.3-0.2,0.4c-0.2,0.1-0.3,0.1-0.5,0.2c-0.2,0-0.3-0.2-0.4-0.3
					c-0.2-0.2-0.3-0.5-0.3-0.9C294,79.3,294.1,79.1,294.2,78.9z M295.2,78.8c-0.1-0.1-0.2-0.2-0.3-0.1c-0.1,0-0.2,0-0.3,0.1
					c-0.2,0.2-0.2,0.4-0.2,0.8c0,0.3,0,0.6,0.1,0.7c0.2,0.2,0.3,0.2,0.3,0.2c0.2,0,0.3-0.1,0.3-0.2c0.1-0.2,0.2-0.4,0.2-0.7
					C295.3,79.2,295.3,78.9,295.2,78.8z M302.8,89.7c0.2-0.1,0.3-0.2,0.5-0.1c0.1,0,0.2,0,0.3,0.1c0.1,0,0.2,0.1,0.3,0.3
					c0,0.1,0,0.2,0,0.3c0,0.1,0,0.2,0,0.3c-0.1,0.1-0.2,0.2-0.3,0.2c0.1,0.1,0.2,0.2,0.3,0.3c0.1,0.1,0.2,0.2,0.2,0.3
					c0,0.2-0.1,0.4-0.3,0.6c-0.2,0.2-0.3,0.2-0.6,0.2c-0.2,0-0.4-0.1-0.5-0.3c-0.2-0.1-0.2-0.2-0.2-0.4l0.3-0.1
					c0,0.2,0.1,0.3,0.2,0.3c0.1,0.1,0.2,0.2,0.3,0.2c0.2,0,0.3-0.1,0.3-0.1c0.1-0.1,0.2-0.2,0.2-0.3c0-0.2,0-0.3-0.1-0.3
					c-0.1-0.2-0.2-0.2-0.3-0.2c-0.1,0-0.2,0-0.2,0.1l-0.1-0.3l0.1,0.1c0.2,0,0.3,0,0.4-0.1c0.1-0.1,0.2-0.2,0.1-0.3
					c0-0.1,0-0.2-0.1-0.3c-0.1,0-0.2,0-0.3,0c-0.1,0-0.2,0-0.3,0c-0.1,0.1-0.2,0.2-0.2,0.3l-0.3-0.1C302.7,90,302.7,89.8,302.8,89.7
					z M306,89.9l-0.9-0.1l-0.2,0.6c0.2,0,0.3-0.1,0.5-0.1c0.2,0,0.3,0.1,0.5,0.2c0.2,0.1,0.3,0.3,0.2,0.6c0,0.2-0.1,0.4-0.2,0.6
					c-0.2,0.2-0.4,0.3-0.6,0.3c-0.2,0-0.4-0.1-0.5-0.3c-0.2-0.1-0.3-0.2-0.3-0.4l0.4-0.1c0,0.2,0,0.3,0.1,0.4
					c0.1,0.1,0.2,0.1,0.3,0.1s0.2,0,0.3-0.1c0.1-0.1,0.1-0.3,0.1-0.5c0-0.2,0-0.3-0.1-0.4c-0.1-0.2-0.2-0.2-0.3-0.2
					c-0.1,0-0.2,0-0.3,0.1c0,0-0.1,0-0.2,0.1h-0.3l0.2-1.3l1.2,0.1V89.9z M307.6,104.9v1.7h0.3l0.1,0.3h-0.3v0.6l-0.3-0.1v-0.6h-1
					l-0.1-0.3l1.1-1.6H307.6z M308.6,106.2c0,0.4,0,0.6,0.1,0.8c0.2,0.2,0.3,0.2,0.4,0.2c0.2,0,0.3-0.1,0.3-0.2
					c0.1-0.2,0.1-0.4,0.1-0.8c0-0.4-0.1-0.7-0.1-0.9c-0.1-0.1-0.2-0.2-0.4-0.1c-0.1,0-0.2,0-0.3,0.1
					C308.6,105.5,308.6,105.8,308.6,106.2z M308.3,105.6c0.1-0.2,0.2-0.3,0.3-0.5c0.1-0.1,0.2-0.2,0.4-0.1c0.2,0,0.3,0,0.4,0.1
					c0.1,0,0.2,0.1,0.3,0.3c0.1,0.1,0.1,0.2,0.1,0.3c0.1,0.2,0.1,0.3,0.1,0.6c0,0.3,0,0.5-0.1,0.7c0,0.2-0.1,0.3-0.3,0.4
					c-0.1,0.1-0.3,0.2-0.5,0.2c-0.2,0-0.4-0.1-0.5-0.3c-0.2-0.2-0.3-0.5-0.3-0.9C308.3,105.9,308.3,105.7,308.3,105.6z M307.3,105.4
					l-0.7,1.1l0.7-0.1V105.4z M304.5,120.3v1.6h0.3l0.1,0.3h-0.3v0.6h-0.3v-0.6l-1,0.1l-0.1-0.3l1.1-1.7L304.5,120.3z M304.2,121.9
					v-1.1l-0.7,1.1L304.2,121.9z M306.1,121.2c0.2,0,0.3,0.1,0.5,0.2c0.2,0.1,0.3,0.3,0.2,0.6c0,0.2,0,0.4-0.2,0.6
					c-0.2,0.2-0.4,0.3-0.6,0.3c-0.2,0-0.4-0.1-0.5-0.2c-0.2-0.1-0.3-0.3-0.3-0.5l0.3-0.1c0,0.2,0.1,0.3,0.2,0.3
					c0.1,0.1,0.2,0.1,0.3,0.1c0.2,0,0.3,0,0.4-0.1c0.1-0.1,0.1-0.3,0.1-0.5c0-0.2,0-0.3-0.1-0.4c-0.2-0.1-0.3-0.2-0.5-0.2
					c-0.1,0-0.2,0-0.2,0.1c0,0-0.1,0.1-0.2,0.1h-0.3l0.2-1.3l1.2,0.1l0.1,0.3h-1l-0.2,0.6C305.7,121.2,305.9,121.2,306.1,121.2z
					 M292,132.9c-0.2,0.1-0.2,0.4-0.2,0.8c0,0.4,0,0.6,0.1,0.8c0.2,0.1,0.3,0.2,0.4,0.2c0.2,0,0.3-0.1,0.3-0.2
					c0.1-0.2,0.2-0.4,0.2-0.8c0-0.4-0.1-0.7-0.2-0.8c-0.1-0.1-0.2-0.2-0.4-0.2C292.2,132.8,292.1,132.8,292,132.9z M292.6,132.6
					c0.1,0,0.2,0.1,0.3,0.2c0.1,0.1,0.1,0.2,0.1,0.3c0.1,0.2,0.1,0.4,0.2,0.6c0,0.3-0.1,0.5-0.1,0.7c0,0.2-0.1,0.3-0.2,0.3
					c-0.2,0.1-0.3,0.2-0.5,0.2c-0.2,0-0.4-0.2-0.5-0.3c-0.2-0.2-0.3-0.5-0.3-1c0-0.3,0-0.5,0.1-0.7c0.1-0.2,0.2-0.3,0.3-0.5
					c0.2-0.1,0.3-0.1,0.5-0.1C292.4,132.4,292.5,132.5,292.6,132.6z M249.8,120.8l-1-0.1l-0.2,0.6c0.2,0,0.3-0.1,0.5-0.1
					s0.4,0.1,0.5,0.2c0.2,0.1,0.3,0.2,0.2,0.5c0,0.2,0,0.4-0.2,0.6c-0.2,0.2-0.4,0.3-0.6,0.3c-0.2,0-0.4-0.1-0.5-0.3
					c-0.2-0.1-0.3-0.2-0.3-0.4l0.3-0.1c0,0.2,0,0.3,0.1,0.4c0.1,0.1,0.2,0.1,0.3,0.1c0.2,0,0.3,0,0.3-0.1c0.1-0.1,0.2-0.3,0.1-0.5
					c0-0.2,0-0.3-0.1-0.4c-0.2-0.2-0.3-0.2-0.5-0.2c-0.1,0-0.2,0-0.2,0.1c0,0-0.1,0.1-0.2,0.2h-0.3l0.3-1.3l1.2,0.1V120.8z
					 M260.8,132.8c-0.1,0-0.2,0.1-0.3,0.2c-0.2,0.2-0.2,0.4-0.2,0.8c0,0.3,0,0.6,0.1,0.7c0.2,0.2,0.3,0.2,0.4,0.2
					c0.2,0,0.3-0.1,0.3-0.2c0.1-0.1,0.1-0.3,0.1-0.7c0-0.5-0.1-0.7-0.1-0.9C261.1,132.8,261,132.8,260.8,132.8z M260.8,132.5
					c0.2,0,0.3,0,0.4,0.1c0.1,0,0.2,0.1,0.3,0.3c0.1,0.1,0.1,0.2,0.1,0.3c0.1,0.2,0.1,0.3,0.1,0.6c0,0.3,0,0.5-0.1,0.6
					c0,0.2-0.1,0.3-0.2,0.4c-0.2,0.1-0.3,0.1-0.5,0.2c-0.2,0-0.4-0.2-0.5-0.3c-0.2-0.2-0.3-0.5-0.3-0.9c0-0.3,0-0.5,0.1-0.7
					c0.1-0.2,0.2-0.3,0.3-0.4C260.5,132.5,260.6,132.5,260.8,132.5z M291.1,132.8h-1l-0.2,0.6c0.2,0,0.3-0.1,0.5-0.1
					c0.2,0,0.4,0.1,0.5,0.2c0.2,0.1,0.2,0.3,0.2,0.6c0,0.2-0.1,0.4-0.2,0.6c-0.2,0.2-0.4,0.3-0.7,0.3c-0.2,0-0.4-0.1-0.5-0.3
					c-0.2-0.1-0.2-0.2-0.2-0.4l0.3-0.1c0,0.2,0.1,0.3,0.2,0.4c0.1,0.1,0.2,0.1,0.3,0.1c0.2,0,0.3,0,0.3-0.1c0.1-0.1,0.1-0.3,0.1-0.5
					c0-0.2,0-0.3-0.1-0.4c-0.1-0.2-0.3-0.2-0.5-0.2c-0.1,0-0.2,0-0.2,0.1c0,0-0.1,0.1-0.2,0.1h-0.2l0.2-1.3l1.2,0.1L291.1,132.8z
					 M242.7,105l0.1,2.5l-0.3,0.1l-0.1-1.9c-0.1,0-0.2,0.1-0.2,0.2c-0.1,0.1-0.2,0.1-0.3,0.1l-0.1-0.3c0.2,0,0.3-0.1,0.5-0.2
					c0.1-0.1,0.2-0.2,0.2-0.4L242.7,105z M243.9,106.3c0,0.4,0,0.6,0.1,0.8c0.2,0.1,0.3,0.2,0.4,0.2c0.2,0,0.3-0.1,0.3-0.2
					c0.1-0.1,0.2-0.4,0.2-0.8c0-0.4-0.1-0.7-0.2-0.8c-0.1-0.1-0.2-0.2-0.4-0.2c-0.1,0-0.2,0.1-0.3,0.2
					C243.9,105.6,243.9,105.9,243.9,106.3z M245,105.4c0.1,0.1,0.1,0.2,0.1,0.4c0,0.2,0.1,0.3,0.1,0.6c0,0.3-0.1,0.5-0.1,0.7
					c-0.1,0.2-0.2,0.3-0.3,0.4c-0.1,0.1-0.3,0.1-0.5,0.2c-0.2,0-0.4-0.2-0.5-0.3c-0.2-0.2-0.3-0.5-0.3-1c0-0.3,0-0.5,0.1-0.7
					c0.1-0.2,0.2-0.3,0.2-0.4c0.2-0.1,0.3-0.2,0.5-0.2s0.3,0,0.4,0.1C244.8,105.2,244.8,105.3,245,105.4z"/>
			</g>
			<g>
				
					<radialGradient id="SVGID_20_" cx="9.1235" cy="-446.4351" r="3.0377" gradientTransform="matrix(1.1454 -1.414062e-002 0.2734 0.3205 386.0574 241.4434)" gradientUnits="userSpaceOnUse">
					<stop  offset="0" style="stop-color:#FFFFFF;stop-opacity:0.8314"/>
					<stop  offset="0.1294" style="stop-color:#FEFEFE;stop-opacity:0.6196"/>
					<stop  offset="0.5765" style="stop-color:#F9F9F9;stop-opacity:4.705882e-002"/>
					<stop  offset="1" style="stop-color:#F6F6F6;stop-opacity:0"/>
				</radialGradient>
				<path fill-rule="evenodd" clip-rule="evenodd" fill="url(#SVGID_20_)" d="M270.6,97.2c0.6-0.3,1.5-0.4,2.6-0.5
					c1.2,0,2.2,0.1,3.1,0.3c1.1,0.2,1.8,0.5,2.1,0.9c0.3,0.4,0.2,0.7-0.5,1c-0.6,0.2-1.5,0.3-2.5,0.3c-1.3,0-2.4-0.1-3.4-0.3
					c-1-0.3-1.7-0.6-2.1-1C269.8,97.7,270,97.4,270.6,97.2z"/>
			</g>
		</g>
		<g>
			<g>
				
					<radialGradient id="SVGID_21_" cx="-38.7002" cy="-436.25" r="26.975" gradientTransform="matrix(1.1455 0 0 1.1455 260.0828 610.5375)" gradientUnits="userSpaceOnUse">
					<stop  offset="0" style="stop-color:#040404;stop-opacity:0.6118"/>
					<stop  offset="0.5961" style="stop-color:#020202;stop-opacity:0.1569"/>
					<stop  offset="1" style="stop-color:#000000;stop-opacity:0"/>
				</radialGradient>
				<polygon fill-rule="evenodd" clip-rule="evenodd" fill="url(#SVGID_21_)" points="230.1,99 248.1,127 218.4,148.2 198.1,116.3 
									"/>
			</g>
			<g>
				
					<radialGradient id="SVGID_22_" cx="-46.5674" cy="-459.7729" r="6.3522" gradientTransform="matrix(-1.1065 0.2961 0.1641 0.6132 217.7935 402.552)" gradientUnits="userSpaceOnUse">
					<stop  offset="0" style="stop-color:#333333"/>
					<stop  offset="0.6196" style="stop-color:#363838"/>
					<stop  offset="1" style="stop-color:#9C9FA1"/>
				</radialGradient>
				<path fill-rule="evenodd" clip-rule="evenodd" fill="url(#SVGID_22_)" d="M197.2,108.8c0,0.2,0.1,0.3,0.1,0.4h-8
					c-1.7-1.1-1.9-2.4-0.6-4l8-1.9c0,0.1,0,0.2,0,0.4l-7.6,1.7c-1.3,1.3-1.1,2.5,0.6,3.5L197.2,108.8z"/>
				
					<radialGradient id="SVGID_23_" cx="-46.8174" cy="-458.4414" r="5.8852" gradientTransform="matrix(-1.1065 0.2964 0.1643 0.6134 217.2925 400.3566)" gradientUnits="userSpaceOnUse">
					<stop  offset="0" style="stop-color:#EAEAEA"/>
					<stop  offset="0.6196" style="stop-color:#9C9FA1"/>
					<stop  offset="1" style="stop-color:#9C9FA1"/>
				</radialGradient>
				<path fill-rule="evenodd" clip-rule="evenodd" fill="url(#SVGID_23_)" d="M196.7,103.7c-0.1,1.8,0.1,3.5,0.5,5.1l-7.4,0.1
					c-1.7-1-1.9-2.2-0.6-3.5L196.7,103.7z"/>
			</g>
			<g>
				<path fill-rule="evenodd" clip-rule="evenodd" d="M212.1,85.6c5.1,0,9.5,1.8,13.1,5.4c3.7,3.7,5.5,8.1,5.5,13.2
					c0,5.1-1.8,9.5-5.5,13.1c-3.6,3.7-8,5.5-13.1,5.5s-9.5-1.8-13.2-5.5c-3.6-3.6-5.4-8-5.4-13.1c0-5.1,1.8-9.5,5.4-13.2
					C202.6,87.4,207,85.6,212.1,85.6z"/>
			</g>
			<g>
				
					<linearGradient id="SVGID_24_" gradientUnits="userSpaceOnUse" x1="-59.3838" y1="-441.1938" x2="-25.2839" y2="-460.869" gradientTransform="matrix(1.1455 0 0 1.1455 260.0828 610.5375)">
					<stop  offset="0" style="stop-color:#040404"/>
					<stop  offset="0.2549" style="stop-color:#040404"/>
					<stop  offset="0.349" style="stop-color:#484848"/>
					<stop  offset="0.4902" style="stop-color:#030303"/>
					<stop  offset="1" style="stop-color:#000000"/>
				</linearGradient>
				<path fill-rule="evenodd" clip-rule="evenodd" fill="url(#SVGID_24_)" d="M227.6,95.4l-31.4,7.7c0-0.5-0.1-1-0.1-1.5
					c0-4.5,1.6-8.3,4.8-11.6c3.2-3.2,7.1-4.8,11.6-4.8c4.5,0,8.3,1.6,11.5,4.8C225.5,91.7,226.7,93.5,227.6,95.4z"/>
				<path fill-rule="evenodd" clip-rule="evenodd" d="M196.1,103.1l31.4-7.7c0.8,1.9,1.1,4,1.1,6.2c0,4.5-1.6,8.4-4.9,11.6
					c-3.1,3.2-6.9,4.8-11.5,4.8c-4.5,0-8.3-1.6-11.6-4.8C198,110.3,196.4,107,196.1,103.1z"/>
			</g>
			<g>
				<path fill-rule="evenodd" clip-rule="evenodd" d="M219.5,94.2c2.3,2.3,3.5,5.1,3.5,8.3s-1.2,6-3.5,8.2c-2.3,2.3-5,3.5-8.2,3.5
					c-3.2,0-6-1.2-8.3-3.5c-2.3-2.3-3.4-5-3.4-8.2s1.1-6,3.4-8.3c2.3-2.3,5.1-3.4,8.3-3.4C214.4,90.7,217.2,91.9,219.5,94.2z"/>
			</g>
			<g>
				
					<linearGradient id="SVGID_25_" gradientUnits="userSpaceOnUse" x1="-43.2505" y1="-432.2012" x2="-43.2505" y2="-451.5005" gradientTransform="matrix(1.1455 0 0 1.1455 260.0828 610.5375)">
					<stop  offset="0" style="stop-color:#393140"/>
					<stop  offset="0.502" style="stop-color:#121518"/>
					<stop  offset="1" style="stop-color:#2F4751"/>
				</linearGradient>
				<path fill-rule="evenodd" clip-rule="evenodd" fill="url(#SVGID_25_)" d="M210.5,115.5c-3,0-5.6-1.1-7.8-3.3
					c-2.2-2.1-3.3-4.7-3.3-7.7c0-3.1,1.1-5.7,3.3-7.8c2.2-2.1,4.8-3.2,7.8-3.2c3,0,5.6,1.1,7.8,3.2c2.2,2.2,3.3,4.8,3.3,7.8
					c0,3-1.1,5.6-3.3,7.7C216.2,114.4,213.6,115.5,210.5,115.5z"/>
			</g>
			<g>
				
					<linearGradient id="SVGID_26_" gradientUnits="userSpaceOnUse" x1="-43.9927" y1="-446.6616" x2="-38.4415" y2="-444.2895" gradientTransform="matrix(1.1455 0 0 1.1455 260.0828 610.5375)">
					<stop  offset="0" style="stop-color:#1D1D1D"/>
					<stop  offset="0.3647" style="stop-color:#131313"/>
					<stop  offset="0.4549" style="stop-color:#666666"/>
					<stop  offset="0.5843" style="stop-color:#0D0D0D"/>
					<stop  offset="1" style="stop-color:#000000"/>
				</linearGradient>
				<path fill-rule="evenodd" clip-rule="evenodd" fill="url(#SVGID_26_)" d="M209.7,96c0.2,0,0.5-0.1,0.7-0.1
					c2.1,0,3.9,0.8,5.4,2.3c0.3,0.3,0.5,0.6,0.8,0.9l-6.3,4l0.1-0.1V103L209.7,96z"/>
				
					<linearGradient id="SVGID_27_" gradientUnits="userSpaceOnUse" x1="-45.7676" y1="-443.7412" x2="-41.4278" y2="-446.2838" gradientTransform="matrix(1.1455 0 0 1.1455 260.0828 610.5375)">
					<stop  offset="0" style="stop-color:#000000"/>
					<stop  offset="0.1451" style="stop-color:#464646"/>
					<stop  offset="0.2667" style="stop-color:#AAAAAA"/>
					<stop  offset="0.5059" style="stop-color:#656565"/>
					<stop  offset="0.7059" style="stop-color:#191919"/>
					<stop  offset="1" style="stop-color:#000000"/>
				</linearGradient>
				<path fill-rule="evenodd" clip-rule="evenodd" fill="url(#SVGID_27_)" d="M202.8,102.5c0-0.1,0-0.2,0-0.2c0-0.2,0.1-0.5,0.2-0.7
					c0.3-1.2,1-2.3,1.9-3.3c0.5-0.5,1-0.8,1.5-1.1c1-0.6,2.1-1,3.3-1.1l0.7,7v0.1l-0.1,0.1l-0.2,0.3
					C205.6,101.1,203.2,100.7,202.8,102.5z M202.8,102.7c-0.1,1.3,0.7,3.6,2.6,6.8c-0.1-0.1-0.2-0.2-0.4-0.4c-0.9-0.9-1.5-2-1.9-3.1
					c-0.2-0.7-0.3-1.5-0.3-2.3C202.7,103.3,202.7,103,202.8,102.7z"/>
				<path fill-rule="evenodd" clip-rule="evenodd" fill="#0E0300" d="M205.3,109.5c-1.8-3.2-2.7-5.5-2.6-6.8v-0.1c0,0,0-0.1,0.1-0.1
					c0.3-1.7,2.8-1.4,7.4,1l0.2-0.3l6.3-4c0.3,0.3,0.5,0.7,0.7,1.1c0.5,1,0.8,2.2,0.8,3.4c0,2.1-0.8,4-2.3,5.4
					c-1.5,1.5-3.3,2.3-5.4,2.3C208.5,111.4,206.8,110.8,205.3,109.5z"/>
			</g>
			<g>
				
					<radialGradient id="SVGID_28_" cx="-54.1592" cy="-445.0068" r="5.0258" gradientTransform="matrix(-0.5214 -1.0199 0.6353 -0.2906 459.3608 -92.0042)" gradientUnits="userSpaceOnUse">
					<stop  offset="0" style="stop-color:#FFFFFF;stop-opacity:0.8314"/>
					<stop  offset="0.1294" style="stop-color:#FEFEFE;stop-opacity:0.6196"/>
					<stop  offset="0.5765" style="stop-color:#F9F9F9;stop-opacity:4.705882e-002"/>
					<stop  offset="1" style="stop-color:#F6F6F6;stop-opacity:0"/>
				</radialGradient>
				<path fill-rule="evenodd" clip-rule="evenodd" fill="url(#SVGID_28_)" d="M208.8,90.7c0.8,1.8,1.2,3.4,1.2,4.9
					c-0.3,1.6-1.1,2.7-2.3,3.3c-1.2,0.6-2.5,0.4-3.7-0.6c-1.6-0.8-2.8-2-3.6-3.7c-0.8-1.8-1.1-3.3-0.9-4.8c0.2-1.7,0.9-2.8,2.1-3.4
					c1.2-0.6,2.5-0.4,4,0.5C206.8,87.9,207.9,89.2,208.8,90.7z"/>
			</g>
			<g>
				
					<radialGradient id="SVGID_29_" cx="-62.7026" cy="-430.4751" r="3.0325" gradientTransform="matrix(1.1238 -0.2219 0.3258 0.2644 422.3429 215.2574)" gradientUnits="userSpaceOnUse">
					<stop  offset="0" style="stop-color:#FFFFFF;stop-opacity:0.8314"/>
					<stop  offset="0.1294" style="stop-color:#FEFEFE;stop-opacity:0.6196"/>
					<stop  offset="0.5765" style="stop-color:#F9F9F9;stop-opacity:4.705882e-002"/>
					<stop  offset="1" style="stop-color:#F6F6F6;stop-opacity:0"/>
				</radialGradient>
				<path fill-rule="evenodd" clip-rule="evenodd" fill="url(#SVGID_29_)" d="M207.7,115.1c0.5-0.4,1.4-0.7,2.5-0.9
					c1.2-0.2,2.2-0.3,3.1-0.2c1.1,0,1.9,0.2,2.3,0.5c0.4,0.3,0.3,0.6-0.3,1c-0.6,0.3-1.4,0.6-2.4,0.8c-1.2,0.2-2.3,0.3-3.3,0.3
					c-1.1-0.1-1.8-0.3-2.2-0.6C207,115.8,207.1,115.5,207.7,115.1z"/>
			</g>
			<g>
				
					<radialGradient id="SVGID_30_" cx="-27.7002" cy="-444.3501" r="5.8808" gradientTransform="matrix(1.1372 -0.1375 7.621272e-002 0.6305 293.7186 377.9077)" gradientUnits="userSpaceOnUse">
					<stop  offset="0" style="stop-color:#9D9D9D"/>
					<stop  offset="0.3686" style="stop-color:#333F48"/>
					<stop  offset="0.6196" style="stop-color:#192B39"/>
					<stop  offset="1" style="stop-color:#000000"/>
				</radialGradient>
				<path fill-rule="evenodd" clip-rule="evenodd" fill="url(#SVGID_30_)" d="M234,100.2c1.1,1.1,1.3,2.4,0.5,3.7l-8.5,2.3
					c0.5-2,0.3-4-0.7-5.9L234,100.2z"/>
			</g>
			<g>
				<path fill-rule="evenodd" clip-rule="evenodd" d="M186.8,87.5c0-0.2,0.1-0.4,0.2-0.5c0.2-0.1,0.3-0.2,0.6-0.2s0.4,0.1,0.6,0.2
					c0.1,0.2,0.2,0.3,0.2,0.5c0,0.1,0,0.2-0.1,0.3c0,0.1-0.1,0.2-0.2,0.3c-0.1,0.1-0.3,0.3-0.5,0.5c-0.2,0.2-0.3,0.2-0.3,0.3
					c0,0-0.1,0.1-0.1,0.2h1.2v0.3h-1.6c0-0.1,0-0.2,0-0.2c0.1-0.1,0.2-0.2,0.2-0.3c0.1-0.1,0.2-0.2,0.4-0.4c0.3-0.2,0.4-0.4,0.5-0.5
					c0.1-0.1,0.2-0.2,0.2-0.3c0-0.1,0-0.2-0.1-0.3c-0.1-0.1-0.2-0.1-0.3-0.1c-0.2,0-0.3,0.1-0.3,0.2c-0.1,0.1-0.2,0.2-0.2,0.3
					L186.8,87.5z M185.6,93.6c0.2-0.1,0.3-0.2,0.6-0.2c0.2,0,0.4,0.1,0.6,0.2c0.1,0.2,0.2,0.3,0.2,0.5c0,0.1,0,0.2-0.1,0.3
					c0,0.1-0.1,0.2-0.2,0.3c-0.1,0.1-0.3,0.3-0.5,0.5c-0.2,0.2-0.3,0.2-0.3,0.3c0,0-0.1,0.1-0.1,0.2h1.2v0.3h-1.6c0-0.1,0-0.2,0-0.2
					c0.1-0.1,0.2-0.2,0.2-0.3c0.1-0.1,0.2-0.2,0.4-0.4c0.3-0.2,0.4-0.4,0.5-0.5c0.1-0.1,0.2-0.2,0.2-0.3c0-0.1,0-0.2-0.1-0.3
					c-0.1-0.1-0.2-0.1-0.3-0.1c-0.2,0-0.3,0.1-0.3,0.2c-0.1,0.1-0.2,0.2-0.2,0.3l-0.3-0.1C185.4,93.9,185.5,93.7,185.6,93.6z
					 M190,87.1c0.1,0.1,0.1,0.2,0.2,0.4c0,0.1,0,0.3,0,0.6s0,0.5-0.1,0.7c-0.1,0.2-0.2,0.3-0.3,0.4c-0.1,0.1-0.3,0.2-0.5,0.2
					c-0.2,0-0.4-0.1-0.5-0.3c-0.2-0.2-0.3-0.5-0.3-1c0-0.3,0-0.5,0.1-0.7c0.1-0.2,0.2-0.3,0.3-0.5c0.1-0.1,0.2-0.1,0.4-0.1
					s0.3,0,0.4,0.1C189.9,86.9,190,87,190,87.1z M189.4,87c-0.1,0-0.2,0.1-0.3,0.2c-0.1,0.2-0.2,0.4-0.2,0.9c0,0.4,0,0.6,0.1,0.8
					c0.1,0.1,0.2,0.2,0.3,0.2c0.2,0,0.3-0.1,0.4-0.2c0.1-0.2,0.1-0.4,0.1-0.8c0-0.4,0-0.7-0.1-0.8C189.7,87.1,189.6,87,189.4,87z
					 M191.3,87c-0.1,0-0.2,0.1-0.3,0.2c-0.1,0.2-0.2,0.4-0.2,0.9c0,0.4,0,0.6,0.1,0.8c0.1,0.1,0.2,0.2,0.3,0.2
					c0.2,0,0.3-0.1,0.4-0.2c0.1-0.2,0.1-0.4,0.1-0.8c0-0.4,0-0.7-0.1-0.8C191.6,87.1,191.4,87,191.3,87z M190.9,86.9
					c0.1-0.1,0.2-0.1,0.4-0.1c0.2,0,0.3,0,0.4,0.1c0.1,0.1,0.2,0.2,0.2,0.2c0.1,0.1,0.1,0.2,0.2,0.4c0,0.1,0,0.3,0,0.6
					s0,0.5-0.1,0.7c-0.1,0.2-0.2,0.3-0.3,0.4c-0.1,0.1-0.3,0.2-0.5,0.2c-0.2,0-0.4-0.1-0.5-0.3c-0.2-0.2-0.3-0.5-0.3-1
					c0-0.3,0-0.5,0.1-0.7C190.7,87.2,190.8,87,190.9,86.9z M188.6,94.3c0-0.1,0.1-0.1,0.2-0.2c0.1-0.1,0.2-0.1,0.3-0.1
					c0.2,0,0.3,0,0.3,0.1c0.1,0,0.1,0.1,0.2,0.2c0.2-0.2,0.3-0.3,0.6-0.3c0.2,0,0.3,0.1,0.4,0.2c0.1,0.1,0.1,0.2,0.1,0.5v1.2h-0.3
					v-1.1c0-0.1,0-0.2-0.1-0.2c0-0.1,0-0.1-0.1-0.1c0,0-0.1-0.1-0.2-0.1c-0.1,0-0.2,0-0.3,0.1c-0.1,0.1-0.1,0.2-0.1,0.4v1h-0.3v-1.1
					c0-0.2,0-0.2-0.1-0.3c0-0.1-0.1-0.1-0.2-0.1c-0.1,0-0.2,0-0.2,0.1c-0.1,0-0.1,0.1-0.2,0.2c0,0.1-0.1,0.2-0.1,0.4v0.9h-0.3v-1.8
					h0.3V94.3z M198.1,89.6c-0.3,0-0.5-0.1-0.7-0.3c-0.2-0.2-0.2-0.4-0.2-0.6s0.1-0.5,0.2-0.7c0.2-0.2,0.4-0.2,0.7-0.2
					c0.3,0,0.5,0.1,0.6,0.2c0.2,0.2,0.3,0.4,0.3,0.7s-0.1,0.5-0.3,0.6C198.5,89.5,198.3,89.6,198.1,89.6z M195.9,88v1.2h-0.3v-1.1
					c0-0.1,0-0.2-0.1-0.2c0-0.1,0-0.1-0.1-0.1c0,0-0.1-0.1-0.2-0.1c-0.1,0-0.2,0-0.3,0.1c-0.1,0.1-0.1,0.2-0.1,0.4v1h-0.3v-1.1
					c0-0.2,0-0.2-0.1-0.3c0-0.1-0.1-0.1-0.2-0.1c-0.1,0-0.2,0-0.2,0.1c-0.1,0-0.1,0.1-0.2,0.2c0,0.1-0.1,0.2-0.1,0.4v0.9h-0.3v-1.8
					h0.3v0.2c0-0.1,0.1-0.1,0.2-0.2c0.1-0.1,0.2-0.1,0.3-0.1c0.2,0,0.3,0,0.3,0.1c0.1,0,0.1,0.1,0.2,0.2c0.2-0.2,0.3-0.3,0.6-0.3
					c0.2,0,0.3,0.1,0.4,0.2C195.8,87.6,195.9,87.8,195.9,88z M194.1,94.4c0.2,0.2,0.3,0.4,0.3,0.7c0,0.3-0.1,0.5-0.3,0.6
					c-0.2,0.2-0.4,0.3-0.6,0.3c-0.3,0-0.5-0.1-0.7-0.3c-0.2-0.2-0.2-0.4-0.2-0.6c0-0.3,0.1-0.5,0.2-0.7c0.2-0.2,0.4-0.2,0.7-0.2
					C193.7,94.2,194,94.2,194.1,94.4z M187.7,101.5c0.1,0,0.1,0.1,0.2,0.2c0.2-0.2,0.3-0.3,0.6-0.3c0.2,0,0.3,0.1,0.4,0.2
					c0.1,0.1,0.1,0.2,0.1,0.5v1.2h-0.3v-1.1c0-0.1,0-0.2-0.1-0.2c0-0.1,0-0.1-0.1-0.1c0,0-0.1-0.1-0.2-0.1c-0.1,0-0.2,0-0.3,0.1
					c-0.1,0.1-0.1,0.2-0.1,0.4v1h-0.3v-1.1c0-0.2,0-0.2-0.1-0.3c0-0.1-0.1-0.1-0.2-0.1c-0.1,0-0.2,0-0.2,0.1c-0.1,0-0.1,0.1-0.2,0.2
					c0,0.1-0.1,0.2-0.1,0.4v0.9h-0.3v-1.8h0.3v0.2c0-0.1,0.1-0.1,0.2-0.2c0.1-0.1,0.2-0.1,0.3-0.1
					C187.6,101.4,187.7,101.5,187.7,101.5z M191,103c-0.2-0.2-0.2-0.4-0.2-0.6c0-0.3,0.1-0.5,0.2-0.7c0.2-0.2,0.4-0.2,0.7-0.2
					c0.3,0,0.5,0.1,0.6,0.2c0.2,0.2,0.3,0.4,0.3,0.7c0,0.3-0.1,0.5-0.3,0.6c-0.2,0.2-0.4,0.3-0.6,0.3
					C191.4,103.3,191.1,103.2,191,103z M181.8,101.5c0-0.2,0.1-0.4,0.2-0.5c0.2-0.1,0.3-0.2,0.6-0.2s0.4,0.1,0.6,0.2
					c0.1,0.2,0.2,0.3,0.2,0.5c0,0.1,0,0.2-0.1,0.3c0,0.1-0.1,0.2-0.2,0.3c-0.1,0.1-0.3,0.3-0.5,0.5c-0.2,0.2-0.3,0.2-0.3,0.3
					c0,0-0.1,0.1-0.1,0.2h1.2v0.3h-1.6c0-0.1,0-0.2,0-0.2c0.1-0.1,0.2-0.2,0.2-0.3c0.1-0.1,0.2-0.2,0.4-0.4c0.3-0.2,0.4-0.4,0.5-0.5
					c0.1-0.1,0.2-0.2,0.2-0.3c0-0.1,0-0.2-0.1-0.3c-0.1-0.1-0.2-0.1-0.3-0.1c-0.2,0-0.3,0.1-0.3,0.2c-0.1,0.1-0.2,0.2-0.2,0.3
					L181.8,101.5z M184,100.9c0.1-0.1,0.2-0.1,0.4-0.1s0.3,0,0.4,0.1c0.1,0.1,0.2,0.2,0.2,0.2c0.1,0.1,0.1,0.2,0.2,0.4
					c0,0.1,0,0.3,0,0.6s0,0.5-0.1,0.7c-0.1,0.2-0.2,0.3-0.3,0.4c-0.1,0.1-0.3,0.2-0.5,0.2c-0.2,0-0.4-0.1-0.5-0.3
					c-0.2-0.2-0.3-0.5-0.3-1c0-0.3,0-0.5,0.1-0.7C183.8,101.2,183.9,101,184,100.9z M184.4,101c-0.1,0-0.2,0.1-0.3,0.2
					c-0.1,0.2-0.2,0.4-0.2,0.9c0,0.4,0,0.6,0.1,0.8c0.1,0.1,0.2,0.2,0.3,0.2c0.2,0,0.3-0.1,0.4-0.2c0.1-0.2,0.1-0.4,0.1-0.8
					c0-0.4,0-0.7-0.1-0.8C184.7,101.1,184.6,101,184.4,101z M186.5,109.1c0.1,0.1,0.2,0.2,0.2,0.2c0.1,0.1,0.1,0.2,0.2,0.4
					c0,0.1,0,0.3,0,0.6s0,0.5-0.1,0.7c-0.1,0.2-0.2,0.3-0.3,0.4c-0.1,0.1-0.3,0.2-0.5,0.2c-0.2,0-0.4-0.1-0.5-0.3
					c-0.2-0.2-0.3-0.5-0.3-1c0-0.3,0-0.5,0.1-0.7c0.1-0.2,0.2-0.3,0.3-0.5c0.1-0.1,0.2-0.1,0.4-0.1S186.4,109.1,186.5,109.1z
					 M186.5,109.5c-0.1-0.2-0.2-0.2-0.4-0.2c-0.1,0-0.2,0.1-0.3,0.2c-0.1,0.2-0.2,0.4-0.2,0.9c0,0.4,0,0.6,0.1,0.8
					c0.1,0.1,0.2,0.2,0.3,0.2c0.2,0,0.3-0.1,0.4-0.2c0.1-0.2,0.1-0.4,0.1-0.8C186.6,109.9,186.6,109.6,186.5,109.5z M185,109.7
					c0,0.1,0,0.3,0,0.6s0,0.5-0.1,0.7c-0.1,0.2-0.2,0.3-0.3,0.4c-0.1,0.1-0.3,0.2-0.5,0.2c-0.2,0-0.4-0.1-0.5-0.3
					c-0.2-0.2-0.3-0.5-0.3-1c0-0.3,0-0.5,0.1-0.7c0.1-0.2,0.2-0.3,0.3-0.5c0.1-0.1,0.2-0.1,0.4-0.1c0.2,0,0.3,0,0.4,0.1
					c0.1,0.1,0.2,0.2,0.2,0.2C184.9,109.4,185,109.6,185,109.7z M184.6,109.5c-0.1-0.2-0.2-0.2-0.4-0.2c-0.1,0-0.2,0.1-0.3,0.2
					c-0.1,0.2-0.2,0.4-0.2,0.9c0,0.4,0,0.6,0.1,0.8c0.1,0.1,0.2,0.2,0.3,0.2c0.2,0,0.3-0.1,0.4-0.2c0.1-0.2,0.1-0.4,0.1-0.8
					C184.7,109.9,184.7,109.6,184.6,109.5z M182.9,110.3c-0.1,0.1-0.3,0.3-0.5,0.5c-0.2,0.2-0.3,0.2-0.3,0.3c0,0-0.1,0.1-0.1,0.2
					h1.2v0.3h-1.6c0-0.1,0-0.2,0-0.2c0.1-0.1,0.2-0.2,0.2-0.3c0.1-0.1,0.2-0.2,0.4-0.4c0.3-0.2,0.4-0.4,0.5-0.5
					c0.1-0.1,0.2-0.2,0.2-0.3c0-0.1,0-0.2-0.1-0.3c-0.1-0.1-0.2-0.1-0.3-0.1c-0.2,0-0.3,0.1-0.3,0.2c-0.1,0.1-0.2,0.2-0.2,0.3
					l-0.3-0.1c0-0.2,0.1-0.4,0.2-0.5c0.2-0.1,0.3-0.2,0.6-0.2s0.4,0.1,0.6,0.2c0.1,0.2,0.2,0.3,0.2,0.5c0,0.1,0,0.2-0.1,0.3
					C183,110.1,183,110.2,182.9,110.3z M186.5,116.6c-0.1,0-0.2,0.1-0.3,0.2c-0.1,0.2-0.2,0.4-0.2,0.9c0,0.4,0,0.6,0.1,0.8
					c0.1,0.1,0.2,0.2,0.3,0.2c0.2,0,0.3-0.1,0.4-0.2c0.1-0.2,0.1-0.4,0.1-0.8c0-0.4,0-0.7-0.1-0.8
					C186.8,116.7,186.6,116.6,186.5,116.6z M186.9,116.4c0.1,0.1,0.2,0.2,0.2,0.2c0.1,0.1,0.1,0.2,0.2,0.4c0,0.1,0,0.3,0,0.6
					c0,0.3,0,0.5-0.1,0.7c-0.1,0.2-0.2,0.3-0.3,0.4c-0.1,0.1-0.3,0.2-0.5,0.2c-0.2,0-0.4-0.1-0.5-0.3c-0.2-0.2-0.3-0.5-0.3-1
					c0-0.3,0-0.5,0.1-0.7c0.1-0.2,0.2-0.3,0.3-0.5c0.1-0.1,0.2-0.1,0.4-0.1S186.8,116.4,186.9,116.4z M184.4,117.1
					c-0.1,0.1-0.2,0.1-0.3,0.2V117c0.2-0.1,0.3-0.2,0.4-0.3c0.2-0.1,0.2-0.2,0.3-0.3h0.2v2.5h-0.3v-1.9
					C184.6,117,184.5,117,184.4,117.1z M193.5,110.7c0,0.3-0.1,0.5-0.3,0.6c-0.2,0.2-0.4,0.3-0.6,0.3c-0.3,0-0.5-0.1-0.7-0.3
					c-0.2-0.2-0.2-0.4-0.2-0.6s0.1-0.5,0.2-0.7c0.2-0.2,0.4-0.2,0.7-0.2c0.3,0,0.5,0.1,0.6,0.2C193.4,110.2,193.5,110.4,193.5,110.7
					z M190.2,110c0,0-0.1-0.1-0.2-0.1c-0.1,0-0.2,0-0.3,0.1c-0.1,0.1-0.1,0.2-0.1,0.4v1h-0.3v-1.1c0-0.2,0-0.2-0.1-0.3
					c0-0.1-0.1-0.1-0.2-0.1c-0.1,0-0.2,0-0.2,0.1s-0.1,0.1-0.2,0.2c0,0.1-0.1,0.2-0.1,0.4v0.9h-0.3v-1.8h0.3v0.2
					c0-0.1,0.1-0.1,0.2-0.2c0.1-0.1,0.2-0.1,0.3-0.1c0.2,0,0.3,0,0.3,0.1c0.1,0,0.1,0.1,0.2,0.2c0.2-0.2,0.3-0.3,0.6-0.3
					c0.2,0,0.3,0.1,0.4,0.2c0.1,0.1,0.1,0.2,0.1,0.5v1.2h-0.3v-1.1c0-0.1,0-0.2-0.1-0.2C190.3,110.1,190.3,110,190.2,110z
					 M193,117.1c0.1-0.1,0.2-0.1,0.3-0.1c0.2,0,0.3,0,0.3,0.1c0.1,0,0.1,0.1,0.2,0.2c0.2-0.2,0.3-0.3,0.6-0.3c0.2,0,0.3,0.1,0.4,0.2
					c0.1,0.1,0.1,0.2,0.1,0.5v1.2h-0.3v-1.1c0-0.1,0-0.2-0.1-0.2c0-0.1,0-0.1-0.1-0.1c0,0-0.1-0.1-0.2-0.1c-0.1,0-0.2,0-0.3,0.1
					c-0.1,0.1-0.1,0.2-0.1,0.4v1h-0.3v-1.1c0-0.2,0-0.2-0.1-0.3c0-0.1-0.1-0.1-0.2-0.1c-0.1,0-0.2,0-0.2,0.1c-0.1,0-0.1,0.1-0.2,0.2
					c0,0.1-0.1,0.2-0.1,0.4v0.9h-0.3v-1.8h0.3v0.2C192.8,117.2,192.8,117.2,193,117.1z M190.3,116.6c-0.1,0-0.2,0.1-0.3,0.2
					c-0.1,0.2-0.2,0.4-0.2,0.9c0,0.4,0,0.6,0.1,0.8c0.1,0.1,0.2,0.2,0.3,0.2c0.2,0,0.3-0.1,0.4-0.2c0.1-0.2,0.1-0.4,0.1-0.8
					c0-0.4,0-0.7-0.1-0.8C190.6,116.7,190.4,116.6,190.3,116.6z M191.1,117.1c0,0.1,0,0.3,0,0.6c0,0.3,0,0.5-0.1,0.7
					c-0.1,0.2-0.2,0.3-0.3,0.4c-0.1,0.1-0.3,0.2-0.5,0.2c-0.2,0-0.4-0.1-0.5-0.3c-0.2-0.2-0.3-0.5-0.3-1c0-0.3,0-0.5,0.1-0.7
					c0.1-0.2,0.2-0.3,0.3-0.5c0.1-0.1,0.2-0.1,0.4-0.1c0.2,0,0.3,0,0.4,0.1c0.1,0.1,0.2,0.2,0.2,0.2
					C191,116.8,191,116.9,191.1,117.1z M189.2,117.1c0,0.1,0,0.3,0,0.6c0,0.3,0,0.5-0.1,0.7c-0.1,0.2-0.2,0.3-0.3,0.4
					c-0.1,0.1-0.3,0.2-0.5,0.2c-0.2,0-0.4-0.1-0.5-0.3c-0.2-0.2-0.3-0.5-0.3-1c0-0.3,0-0.5,0.1-0.7c0.1-0.2,0.2-0.3,0.3-0.5
					c0.1-0.1,0.2-0.1,0.4-0.1c0.2,0,0.3,0,0.4,0.1c0.1,0.1,0.2,0.2,0.2,0.2C189.1,116.8,189.1,116.9,189.2,117.1z M188.1,116.8
					c-0.1,0.2-0.2,0.4-0.2,0.9c0,0.4,0,0.6,0.1,0.8c0.1,0.1,0.2,0.2,0.3,0.2c0.2,0,0.3-0.1,0.4-0.2c0.1-0.2,0.1-0.4,0.1-0.8
					c0-0.4,0-0.7-0.1-0.8c-0.1-0.2-0.2-0.2-0.4-0.2C188.3,116.6,188.2,116.7,188.1,116.8z M196.5,117.1c0.2-0.2,0.4-0.2,0.7-0.2
					c0.3,0,0.5,0.1,0.6,0.2c0.2,0.2,0.3,0.4,0.3,0.7c0,0.3-0.1,0.5-0.3,0.6c-0.2,0.2-0.4,0.3-0.6,0.3c-0.3,0-0.5-0.1-0.7-0.3
					c-0.2-0.2-0.2-0.4-0.2-0.6C196.2,117.5,196.3,117.3,196.5,117.1z"/>
			</g>
		</g>
		
			<use xlink:href="#button2_x5F_cd"  width="51.3" height="54.7" x="-19.9" y="-39" transform="matrix(1.1455 0 0 -1.1455 335.3496 103.5996)" overflow="visible"/>
		<g>
			<g>
				
					<radialGradient id="SVGID_31_" cx="-204.6499" cy="-444.6499" r="18.8875" gradientTransform="matrix(1.1455 0 0 1.1455 260.0828 610.5375)" gradientUnits="userSpaceOnUse">
					<stop  offset="0" style="stop-color:#040404;stop-opacity:0.6118"/>
					<stop  offset="0.5961" style="stop-color:#020202;stop-opacity:0.1569"/>
					<stop  offset="1" style="stop-color:#000000;stop-opacity:0"/>
				</radialGradient>
				<polygon fill-rule="evenodd" clip-rule="evenodd" fill="url(#SVGID_31_)" points="27.5,127.4 13.3,105 35.7,92.9 48.3,112.5 
									"/>
			</g>
			<g>
				<path fill-rule="evenodd" clip-rule="evenodd" d="M25.4,81.9c4.1,0,7.6,1.5,10.4,4.4c2.9,2.9,4.4,6.4,4.4,10.5
					c0,4.1-1.5,7.6-4.4,10.5c-2.9,2.9-6.3,4.4-10.4,4.4c-4.1,0-7.6-1.5-10.5-4.4c-2.9-2.9-4.3-6.4-4.3-10.5c0-4.1,1.4-7.6,4.3-10.5
					C17.8,83.4,21.3,81.9,25.4,81.9z"/>
			</g>
			<g>
				<path fill-rule="evenodd" clip-rule="evenodd" d="M23.1,83.5c3.6,0,6.6,1.3,9.2,3.8c2.6,2.6,3.9,5.6,3.9,9.2s-1.3,6.6-3.9,9.2
					c-2.5,2.6-5.6,3.9-9.2,3.9c-3.6,0-6.7-1.3-9.2-3.9c-2.6-2.5-3.8-5.6-3.8-9.2s1.3-6.7,3.8-9.2C16.4,84.8,19.5,83.5,23.1,83.5z"/>
			</g>
			<g>
				
					<linearGradient id="SVGID_32_" gradientUnits="userSpaceOnUse" x1="-219.1167" y1="-448.0996" x2="-195.2484" y2="-461.8861" gradientTransform="matrix(1.1455 0 0 1.1455 260.0828 610.5375)">
					<stop  offset="0" style="stop-color:#040404"/>
					<stop  offset="0.2549" style="stop-color:#040404"/>
					<stop  offset="0.349" style="stop-color:#484848"/>
					<stop  offset="0.4902" style="stop-color:#030303"/>
					<stop  offset="1" style="stop-color:#000000"/>
				</linearGradient>
				<path fill-rule="evenodd" clip-rule="evenodd" fill="url(#SVGID_32_)" d="M33.9,90.4l-22,5.4c0-0.3-0.1-0.7-0.1-1.1
					c0-3.1,1.1-5.8,3.3-8.1c2.3-2.2,5-3.3,8.1-3.3c3.1,0,5.8,1.1,8,3.3C32.5,87.8,33.3,89.1,33.9,90.4z"/>
				<path fill-rule="evenodd" clip-rule="evenodd" d="M11.9,95.8l22-5.4c0.5,1.3,0.8,2.8,0.8,4.3c0,3.2-1.1,5.9-3.4,8.1
					c-2.2,2.2-4.9,3.3-8,3.3c-3.1,0-5.8-1.1-8.1-3.3C13.2,100.9,12.1,98.5,11.9,95.8z"/>
			</g>
			<g>
				<path fill-rule="evenodd" clip-rule="evenodd" d="M28.2,89.5c1.6,1.6,2.5,3.6,2.5,5.8s-0.8,4.2-2.5,5.8
					c-1.6,1.6-3.5,2.5-5.8,2.5c-2.2,0-4.1-0.8-5.8-2.5c-1.6-1.6-2.4-3.5-2.4-5.8s0.8-4.2,2.4-5.8c1.6-1.6,3.6-2.4,5.8-2.4
					C24.7,87.1,26.6,87.9,28.2,89.5z"/>
			</g>
			<g>
				
					<linearGradient id="SVGID_33_" gradientUnits="userSpaceOnUse" x1="-207.8506" y1="-441.8003" x2="-207.8506" y2="-455.3003" gradientTransform="matrix(1.1455 0 0 1.1455 260.0828 610.5375)">
					<stop  offset="0" style="stop-color:#393140"/>
					<stop  offset="0.502" style="stop-color:#121518"/>
					<stop  offset="1" style="stop-color:#2F4751"/>
				</linearGradient>
				<path fill-rule="evenodd" clip-rule="evenodd" fill="url(#SVGID_33_)" d="M27.4,91.2c1.5,1.5,2.3,3.4,2.3,5.5
					c0,2.1-0.8,3.9-2.3,5.4c-1.5,1.6-3.3,2.3-5.4,2.3c-2.1,0-3.9-0.8-5.4-2.3c-1.5-1.5-2.3-3.3-2.3-5.4c0-2.1,0.8-4,2.3-5.5
					c1.5-1.5,3.3-2.2,5.4-2.2C24.1,89,25.9,89.7,27.4,91.2z"/>
			</g>
			<g>
				
					<linearGradient id="SVGID_34_" gradientUnits="userSpaceOnUse" x1="-209.6143" y1="-449.8926" x2="-206.5696" y2="-451.6768" gradientTransform="matrix(1.1455 0 0 1.1455 260.0828 610.5375)">
					<stop  offset="0" style="stop-color:#000000"/>
					<stop  offset="0.1451" style="stop-color:#464646"/>
					<stop  offset="0.2667" style="stop-color:#AAAAAA"/>
					<stop  offset="0.5059" style="stop-color:#656565"/>
					<stop  offset="0.7059" style="stop-color:#191919"/>
					<stop  offset="1" style="stop-color:#000000"/>
				</linearGradient>
				<path fill-rule="evenodd" clip-rule="evenodd" fill="url(#SVGID_34_)" d="M16.6,95.4c0,0,0-0.1,0-0.2c0-0.2,0-0.3,0.1-0.5
					c0.2-0.9,0.7-1.7,1.3-2.3c0.3-0.3,0.7-0.6,1.1-0.8c0.7-0.5,1.5-0.7,2.3-0.7l0.5,4.9v0.1v0h-0.1L21.8,96
					C18.6,94.4,16.8,94.1,16.6,95.4z M16.6,95.5c-0.1,0.9,0.5,2.5,1.8,4.8c-0.1-0.1-0.2-0.2-0.3-0.3c-0.6-0.6-1.1-1.4-1.3-2.2
					c-0.2-0.5-0.2-1.1-0.2-1.6C16.5,96,16.5,95.7,16.6,95.5z"/>
				<path fill-rule="evenodd" clip-rule="evenodd" fill="#0E0300" d="M18.3,100.3c-1.3-2.3-1.9-3.8-1.8-4.8v-0.1l0.1-0.1
					c0.2-1.2,1.9-1,5.2,0.7l0.1-0.2h0.1v0l4.4-2.8c0.2,0.3,0.3,0.5,0.5,0.8c0.4,0.7,0.6,1.5,0.6,2.4c0,1.5-0.5,2.7-1.6,3.8
					c-1.1,1.1-2.3,1.6-3.8,1.6C20.6,101.6,19.4,101.2,18.3,100.3z"/>
				
					<linearGradient id="SVGID_35_" gradientUnits="userSpaceOnUse" x1="-208.3672" y1="-451.9683" x2="-204.4877" y2="-450.3036" gradientTransform="matrix(1.1455 0 0 1.1455 260.0828 610.5375)">
					<stop  offset="0" style="stop-color:#1D1D1D"/>
					<stop  offset="0.3647" style="stop-color:#131313"/>
					<stop  offset="0.4549" style="stop-color:#666666"/>
					<stop  offset="0.5843" style="stop-color:#0D0D0D"/>
					<stop  offset="1" style="stop-color:#000000"/>
				</linearGradient>
				<path fill-rule="evenodd" clip-rule="evenodd" fill="url(#SVGID_35_)" d="M26.3,93l-4.4,2.8v-0.1l-0.5-4.9
					c0.2,0,0.3-0.1,0.5-0.1c1.5,0,2.7,0.5,3.8,1.6C25.9,92.6,26.1,92.8,26.3,93z"/>
			</g>
			<g>
				
					<radialGradient id="SVGID_36_" cx="103.8589" cy="-425.4331" r="1.5865" gradientTransform="matrix(-1.1281 0.1986 -9.025104e-002 -0.6859 96.3012 -215.1799)" gradientUnits="userSpaceOnUse">
					<stop  offset="0" style="stop-color:#FFFFFF;stop-opacity:0.498"/>
					<stop  offset="0.1804" style="stop-color:#FEFEFE;stop-opacity:0.2"/>
					<stop  offset="0.5686" style="stop-color:#F9F9F9;stop-opacity:4.705882e-002"/>
					<stop  offset="1" style="stop-color:#F6F6F6;stop-opacity:0"/>
				</radialGradient>
				<path fill-rule="evenodd" clip-rule="evenodd" fill="url(#SVGID_36_)" d="M17.8,98.9c-0.6,0.1-1.1,0-1.5-0.2
					c-0.5-0.2-0.7-0.5-0.8-1c0-0.4,0.1-0.8,0.5-1.1c0.4-0.3,0.9-0.6,1.4-0.7c0.6-0.1,1.1,0,1.6,0.1c0.5,0.2,0.7,0.6,0.7,1
					c0.1,0.5-0.1,0.8-0.5,1.1C18.8,98.5,18.3,98.8,17.8,98.9z"/>
			</g>
			<g>
				
					<radialGradient id="SVGID_37_" cx="17.6753" cy="-587.9883" r="2.6139" gradientTransform="matrix(-0.521 -1.0201 0.6362 -0.2907 401.6227 -65.4813)" gradientUnits="userSpaceOnUse">
					<stop  offset="0" style="stop-color:#FFFFFF;stop-opacity:0.8314"/>
					<stop  offset="0.1294" style="stop-color:#FEFEFE;stop-opacity:0.6196"/>
					<stop  offset="0.5765" style="stop-color:#F9F9F9;stop-opacity:4.705882e-002"/>
					<stop  offset="1" style="stop-color:#F6F6F6;stop-opacity:0"/>
				</radialGradient>
				<path fill-rule="evenodd" clip-rule="evenodd" fill="url(#SVGID_37_)" d="M15.5,86c0.1-0.9,0.4-1.5,1.1-1.8
					c0.6-0.3,1.3-0.2,2.1,0.3c0.7,0.5,1.3,1.1,1.7,1.9c0.4,0.9,0.6,1.8,0.6,2.6c-0.2,0.8-0.6,1.4-1.2,1.7s-1.3,0.2-1.9-0.3
					c-0.8-0.4-1.5-1.1-1.9-1.9C15.5,87.6,15.4,86.7,15.5,86z"/>
			</g>
			<g>
				
					<radialGradient id="SVGID_38_" cx="87.6836" cy="-400.5581" r="3.4145" gradientTransform="matrix(-1.0609 0.4319 -0.2097 -0.4445 33.6139 -112.256)" gradientUnits="userSpaceOnUse">
					<stop  offset="0" style="stop-color:#FFFFFF;stop-opacity:0.498"/>
					<stop  offset="0.1804" style="stop-color:#FEFEFE;stop-opacity:0.2"/>
					<stop  offset="0.5686" style="stop-color:#F9F9F9;stop-opacity:4.705882e-002"/>
					<stop  offset="1" style="stop-color:#F6F6F6;stop-opacity:0"/>
				</radialGradient>
				<path fill-rule="evenodd" clip-rule="evenodd" fill="url(#SVGID_38_)" d="M20.9,103.7c0.7-0.7,1.6-1.3,2.7-1.8
					c1.2-0.4,2.4-0.6,3.4-0.7c1,0.1,1.7,0.5,2,1c0.3,0.6,0,1.2-0.7,1.9c-0.6,0.8-1.6,1.4-2.7,1.9c-1.2,0.4-2.3,0.6-3.3,0.6
					c-1.1,0-1.8-0.3-2.1-0.9C20,105,20.2,104.4,20.9,103.7z"/>
			</g>
			<g>
				
					<radialGradient id="SVGID_39_" cx="-204.8501" cy="-449.2002" r="8.425" fx="-204.0241" fy="-449.2002" gradientTransform="matrix(1.1455 0 0 1.1455 260.0828 610.5375)" gradientUnits="userSpaceOnUse">
					<stop  offset="0" style="stop-color:#FFFFFF;stop-opacity:0.4902"/>
					<stop  offset="1" style="stop-color:#FBFBFB;stop-opacity:0"/>
					<stop  offset="1" style="stop-color:#F1F1F1"/>
				</radialGradient>
				<path fill-rule="evenodd" clip-rule="evenodd" fill="url(#SVGID_39_)" d="M27.3,91.3c-1.5-1.5-3.3-2.2-5.3-2.2
					c-2.1,0-3.9,0.7-5.4,2.2c-1.5,1.5-2.2,3.3-2.2,5.4c0,2.1,0.7,3.9,2.2,5.3c1.5,1.5,3.3,2.3,5.4,2.3c2.1,0,3.8-0.8,5.3-2.3
					c1.5-1.5,2.3-3.2,2.3-5.3C29.5,94.6,28.8,92.8,27.3,91.3z M21.9,88.9c2.1,0,4,0.7,5.5,2.2c1.5,1.6,2.3,3.4,2.3,5.6
					c0,2.1-0.8,4-2.3,5.5c-1.5,1.6-3.4,2.3-5.5,2.3c-2.1,0-4-0.8-5.6-2.3c-1.5-1.5-2.3-3.4-2.2-5.5c0-2.1,0.7-4,2.2-5.6
					C17.9,89.6,19.8,88.9,21.9,88.9z"/>
			</g>
			<g>
				
					<linearGradient id="SVGID_40_" gradientUnits="userSpaceOnUse" x1="-214.1899" y1="-453.4033" x2="-207.8682" y2="-448.4491" gradientTransform="matrix(1.1455 0 0 1.1455 260.0828 610.5375)">
					<stop  offset="0" style="stop-color:#555555"/>
					<stop  offset="0.3373" style="stop-color:#282828"/>
					<stop  offset="1" style="stop-color:#000000"/>
				</linearGradient>
				<path fill-rule="evenodd" clip-rule="evenodd" fill="url(#SVGID_40_)" d="M31.3,95.5c0.1,0.4,0.1,0.9,0.1,1.3c0,0.5,0,1-0.1,1.5
					l-0.1,0.1c0,0-0.1,0-0.1,0c-0.1,0-0.2,0-0.2,0.1c-0.2,0-0.4,0.1-0.6,0.3c0,0.1-0.1,0.1-0.1,0.2c-0.1,0.2-0.2,0.4-0.2,0.6v0.1
					c0,0.1,0,0.2,0.1,0.3c0,0.1,0.1,0.2,0.1,0.3c0,0,0.1,0.1,0.1,0.1c0.1,0.1,0.2,0.2,0.3,0.2v0.1c-0.5,1-1.1,1.9-1.8,2.8l-0.2,0.1
					h-0.1c0-0.1-0.1-0.2-0.2-0.2c-0.2-0.1-0.3-0.1-0.5-0.1c-0.1,0-0.2,0-0.3,0.1c-0.2,0-0.4,0.1-0.5,0.3c-0.1,0.1-0.1,0.1-0.1,0.2
					c-0.2,0.2-0.2,0.4-0.2,0.6v0.1c0,0.1,0,0.2,0.1,0.3c0,0.1,0.1,0.2,0.1,0.3l-0.2,0.1c0,0-0.1,0.1-0.2,0.2c-0.1,0-0.2,0-0.2,0.1
					c-0.8,0.4-1.6,0.7-2.5,0.9c0-0.2-0.2-0.5-0.3-0.7c0,0-0.1-0.1-0.1-0.1c0-0.1,0-0.1-0.1-0.1c0,0-0.1,0-0.1-0.1
					c-0.2-0.1-0.4-0.1-0.5-0.1c-0.1,0-0.2,0-0.3,0.1h-0.1c-0.2,0.1-0.3,0.2-0.5,0.3c-0.1,0.1-0.1,0.1-0.2,0.2
					c-0.1,0.2-0.1,0.4-0.2,0.6l-0.2,0.1c-1.4-0.1-2.7-0.4-3.8-1.1c0.1-0.2,0.2-0.4,0.2-0.6v-0.1c0-0.3-0.1-0.6-0.4-0.8
					c-0.1-0.1-0.2-0.2-0.2-0.2H17c-0.2-0.1-0.3-0.1-0.5-0.1c-0.1,0-0.2,0-0.2,0c-0.2,0.1-0.4,0.2-0.6,0.3c0,0-0.1,0.1-0.1,0.1
					l-0.1,0.1c0-0.1-0.1-0.1-0.1-0.1c-0.1-0.1-0.2-0.2-0.3-0.3c-0.8-0.8-1.4-1.6-1.8-2.4c0.1-0.1,0.2-0.2,0.2-0.2
					c0.2-0.2,0.3-0.5,0.3-0.7v-0.1c0-0.3-0.1-0.6-0.3-0.8c-0.1-0.1-0.2-0.2-0.3-0.3c-0.2-0.1-0.3-0.1-0.5-0.1c-0.1,0-0.2,0-0.2,0.1
					c-0.2-0.7-0.2-1.4-0.2-2.2c0-0.4,0-0.8,0.1-1.2c0.3,0,0.6-0.1,0.8-0.3c0.2-0.2,0.3-0.5,0.3-0.7v-0.1c0-0.3-0.1-0.6-0.3-0.8
					c-0.1-0.1-0.2-0.2-0.3-0.2c0.4-1.2,1.1-2.3,2.1-3.2c0,0,0-0.1,0.1-0.1c0.2,0.2,0.4,0.2,0.7,0.2c0.3,0,0.6-0.1,0.8-0.4
					c0.2-0.2,0.2-0.3,0.3-0.5c0-0.1,0.1-0.2,0.1-0.3c0-0.2,0-0.3-0.1-0.5c0.8-0.5,1.7-0.9,2.6-1.1c0,0.1,0.1,0.2,0.2,0.3
					c0,0,0,0.1,0.1,0.1c0.2,0.2,0.3,0.2,0.4,0.3c0.2,0.1,0.3,0.1,0.4,0.1c0.3,0,0.6-0.1,0.8-0.4c0.2-0.2,0.3-0.4,0.3-0.7
					c0.1,0,0.1,0,0.2,0c0.7,0,1.4,0.1,2,0.2c0,0,0,0.1,0,0.1v0.1c0,0,0,0.1,0,0.1c0,0.1,0.1,0.2,0.1,0.2c0,0.1,0,0.2,0.1,0.3
					c0,0,0.1,0.1,0.1,0.1c0.1,0.1,0.2,0.2,0.3,0.3s0.3,0.1,0.5,0.1c0,0,0.1,0,0.2,0c0.1,0,0.2-0.1,0.4-0.1c0-0.1,0.1-0.1,0.2-0.1
					c0-0.1,0-0.1,0.1-0.2h0.1l0.1-0.1l0.2-0.1c0.5,0.3,1.1,0.6,1.6,1c0,0,0.1,0.1,0.1,0.1c0,0-0.1,0-0.1,0.1c0,0-0.1,0-0.1,0.1
					c-0.1,0.2-0.2,0.4-0.2,0.6v0.1c0,0.1,0,0.2,0.1,0.3c0,0.1,0.1,0.2,0.1,0.3c0,0,0.1,0,0.1,0.1c0.1,0.1,0.2,0.2,0.3,0.2
					c0.1,0.1,0.3,0.1,0.5,0.1c0.1,0,0.1,0,0.2,0c0.2,0,0.3-0.1,0.4-0.1c0.1,0,0.1-0.1,0.2-0.1h0.1c0.6,0.8,1.1,1.5,1.3,2.3
					c-0.2,0-0.3,0.1-0.4,0.2c0,0-0.1,0.1-0.1,0.2c-0.1,0.2-0.2,0.4-0.2,0.6c0,0.1,0,0.2,0.1,0.3c0,0.1,0.1,0.2,0.1,0.3
					c0,0,0.1,0,0.1,0.1c0.1,0.1,0.2,0.2,0.3,0.2c0.2,0.1,0.3,0.1,0.5,0.1C31.2,95.5,31.3,95.5,31.3,95.5z M16.3,91.3
					C16.2,91.3,16.2,91.3,16.3,91.3c-1.6,1.5-2.3,3.4-2.3,5.5c0,2.2,0.8,4,2.3,5.6c1.2,1.2,2.6,1.9,4.1,2.2c0.4,0.1,0.9,0.1,1.4,0.1
					c2.1,0,4-0.8,5.6-2.3c1.5-1.5,2.3-3.4,2.3-5.6c0-2.2-0.8-4-2.3-5.5c-1.6-1.6-3.4-2.3-5.6-2.3C19.7,88.9,17.8,89.7,16.3,91.3z"/>
				
					<linearGradient id="SVGID_41_" gradientUnits="userSpaceOnUse" x1="-208.3877" y1="-456.6748" x2="-208.7127" y2="-456.6748" gradientTransform="matrix(1.1455 0 0 1.1455 260.0828 610.5375)">
					<stop  offset="0" style="stop-color:#555555"/>
					<stop  offset="0.3373" style="stop-color:#282828"/>
					<stop  offset="1" style="stop-color:#000000"/>
				</linearGradient>
				<path fill-rule="evenodd" clip-rule="evenodd" fill="url(#SVGID_41_)" d="M23.8,87.4c-0.6-0.1-1.3-0.2-2-0.2c0,0-0.1,0-0.2,0
					c0,0.3-0.1,0.5-0.3,0.7c-0.2,0.3-0.5,0.4-0.8,0.4c-0.1,0-0.2,0-0.4-0.1c-0.1,0-0.2-0.1-0.4-0.3c0,0-0.1,0-0.1-0.1
					c0.5-0.3,1-0.6,1.5-0.7c0.7-0.3,1.5-0.4,2.3-0.5c0.3,0,0.7-0.1,1-0.1c0.6,0,1.2,0.1,1.8,0.2L23.8,87.4z"/>
				
					<linearGradient id="SVGID_42_" gradientUnits="userSpaceOnUse" x1="-201.0542" y1="-454.0034" x2="-198.6807" y2="-452.1515" gradientTransform="matrix(1.1455 0 0 1.1455 260.0828 610.5375)">
					<stop  offset="0" style="stop-color:#555555"/>
					<stop  offset="0.3373" style="stop-color:#282828"/>
					<stop  offset="1" style="stop-color:#000000"/>
				</linearGradient>
				<path fill-rule="evenodd" clip-rule="evenodd" fill="url(#SVGID_42_)" d="M30.8,93.3c-0.3-0.8-0.7-1.6-1.3-2.3v-0.1l2.2-1
					c0.6,0.6,1,1.3,1.4,2L30.8,93.3z"/>
				
					<linearGradient id="SVGID_43_" gradientUnits="userSpaceOnUse" x1="-203.666" y1="-456.8315" x2="-201.5374" y2="-455.1611" gradientTransform="matrix(1.1455 0 0 1.1455 260.0828 610.5375)">
					<stop  offset="0" style="stop-color:#555555"/>
					<stop  offset="0.3373" style="stop-color:#282828"/>
					<stop  offset="1" style="stop-color:#000000"/>
				</linearGradient>
				<path fill-rule="evenodd" clip-rule="evenodd" fill="url(#SVGID_43_)" d="M27.7,89.2c-0.5-0.4-1.1-0.8-1.6-1l2.1-0.9
					c0.6,0.3,1.1,0.6,1.7,1L27.7,89.2z"/>
				
					<linearGradient id="SVGID_44_" gradientUnits="userSpaceOnUse" x1="-199.6133" y1="-449.8047" x2="-197.7361" y2="-448.3324" gradientTransform="matrix(1.1455 0 0 1.1455 260.0828 610.5375)">
					<stop  offset="0" style="stop-color:#555555"/>
					<stop  offset="0.3373" style="stop-color:#282828"/>
					<stop  offset="1" style="stop-color:#000000"/>
				</linearGradient>
				<path fill-rule="evenodd" clip-rule="evenodd" fill="url(#SVGID_44_)" d="M31.3,98.3c0.1-0.5,0.1-1,0.1-1.5c0-0.5,0-0.9-0.1-1.3
					l2.4-1.4c0.1,0.6,0.2,1.3,0.2,1.9c0,0.2,0,0.4,0,0.6L31.3,98.3z"/>
			</g>
			<g>
				<path fill-rule="evenodd" clip-rule="evenodd" fill="none" d="M26.2,88.3c0.6,0.3,1.2,0.7,1.7,1.1"/>
				<path fill-rule="evenodd" clip-rule="evenodd" fill="none" d="M29.5,91.1c0.5,0.7,0.9,1.4,1.3,2.2"/>
				<path fill-rule="evenodd" clip-rule="evenodd" fill="none" d="M21.7,87.3c0.7-0.1,1.5-0.1,2.3,0.1"/>
				<path fill-rule="evenodd" clip-rule="evenodd" fill="none" d="M31.4,95.5c0.2,1.5,0,3.1-0.6,4.6c-0.8,1.7-2,2.9-3.6,3.7
					c-0.4,0.2-0.9,0.4-1.3,0.5"/>
			</g>
		</g>
		<g>
			<path fill-rule="evenodd" clip-rule="evenodd" fill="#28291B" d="M222.2,63.5h-2.3v1.4h2.5v0.5h-3v-4.1h3v0.5h-2.5V63h2.3V63.5z
				 M204.5,63.1c0.2,0,0.4,0,0.6-0.1c0.2-0.1,0.2-0.2,0.3-0.3c0.1-0.1,0.1-0.2,0.1-0.3c0-0.2-0.1-0.3-0.2-0.5
				c-0.2-0.2-0.4-0.2-0.7-0.2h-1.3v1.4H204.5z M202.8,65.3v-4.1h1.8c0.3,0,0.6,0,0.8,0.1c0.2,0.1,0.3,0.2,0.5,0.4
				c0.1,0.2,0.2,0.4,0.2,0.6c0,0.3-0.1,0.6-0.3,0.7c-0.2,0.2-0.5,0.3-0.9,0.3c0.2,0.1,0.3,0.2,0.3,0.2c0.2,0.2,0.3,0.3,0.4,0.6
				l0.7,1.1h-0.7l-0.5-0.9c-0.2-0.2-0.3-0.4-0.4-0.6c-0.1-0.1-0.2-0.2-0.3-0.3c-0.1,0-0.2-0.1-0.2-0.1c-0.1,0-0.2-0.1-0.3-0.1h-0.6
				v1.8H202.8z M208.7,61.2l1.7,4.1h-0.6l-0.5-1.3h-1.7l-0.5,1.3h-0.6l1.5-4.1H208.7z M208.1,62.5l-0.4,1.2h1.4l-0.5-1.1
				c-0.1-0.3-0.2-0.6-0.3-0.9C208.3,61.9,208.2,62.2,208.1,62.5z M214,61.2v4.1h-0.6l-2.1-3.2v3.2h-0.5v-4.1h0.5l2.2,3.3v-3.3H214z
				 M215.7,61.5c0.3-0.2,0.7-0.3,1.1-0.3c0.3,0,0.6,0.1,0.8,0.2c0.2,0.1,0.4,0.2,0.6,0.4c0.2,0.2,0.2,0.4,0.3,0.6l-0.5,0.2
				c-0.1-0.2-0.2-0.4-0.2-0.5c-0.1-0.1-0.2-0.2-0.4-0.3c-0.2-0.1-0.3-0.1-0.6-0.1c-0.2,0-0.4,0-0.6,0.1s-0.3,0.2-0.5,0.3
				c-0.1,0.2-0.2,0.3-0.2,0.5c-0.1,0.2-0.2,0.5-0.2,0.8c0,0.4,0.1,0.7,0.2,0.9c0.2,0.2,0.3,0.4,0.6,0.6c0.2,0.1,0.5,0.2,0.7,0.2
				c0.3,0,0.5-0.1,0.7-0.2c0.2-0.1,0.4-0.2,0.5-0.3v-0.7h-1.2v-0.5l1.8-0.1v1.5c-0.3,0.2-0.6,0.4-0.9,0.5c-0.3,0.1-0.6,0.2-0.9,0.2
				c-0.4,0-0.8-0.1-1.1-0.2c-0.3-0.2-0.6-0.4-0.7-0.7c-0.2-0.3-0.3-0.7-0.3-1.1c0-0.4,0.1-0.8,0.3-1.1
				C215.2,61.9,215.4,61.6,215.7,61.5z M272.7,61.1h-2.5v1.3h2.3v0.5h-2.3v1.4h2.5v0.5h-3v-4.1h3V61.1z M274.1,62.4h1.2
				c0.2,0,0.4,0,0.6-0.1c0.2-0.1,0.2-0.2,0.3-0.3c0.1-0.1,0.1-0.2,0.1-0.3c0-0.2-0.1-0.3-0.2-0.5c-0.2-0.2-0.4-0.2-0.7-0.2h-1.3
				V62.4z M268.9,61.2c0.1,0.2,0.1,0.4,0.1,0.6c0,0.3-0.1,0.6-0.3,0.9c-0.2,0.2-0.6,0.3-1.2,0.3h-1.1v1.7h-0.5v-4.1h1.5
				c0.3,0,0.5,0,0.6,0.1c0.2,0,0.3,0.1,0.5,0.2C268.7,60.9,268.8,61.1,268.9,61.2z M273.6,64.7v-4.1h1.8c0.3,0,0.6,0,0.8,0.1
				c0.2,0.1,0.3,0.2,0.5,0.4c0.1,0.2,0.2,0.4,0.2,0.6c0,0.3-0.1,0.6-0.3,0.7c-0.2,0.2-0.5,0.3-0.9,0.3c0.2,0.1,0.3,0.2,0.3,0.2
				c0.2,0.2,0.3,0.3,0.4,0.6l0.7,1.1h-0.7l-0.5-0.9c-0.2-0.2-0.3-0.4-0.4-0.6c-0.1-0.1-0.2-0.2-0.3-0.3c-0.1,0-0.2-0.1-0.2-0.1
				c-0.1,0-0.2-0.1-0.3-0.1h-0.6v1.8H273.6z M279.4,60.6l1.7,4.1h-0.6l-0.5-1.3h-1.7l-0.5,1.3h-0.6l1.5-4.1H279.4z M278.9,61.9
				l-0.4,1.2h1.4l-0.5-1.1c-0.1-0.3-0.2-0.6-0.3-0.9C279.1,61.3,279,61.6,278.9,61.9z M285.2,60.6V63c0,0.3,0,0.6,0.1,0.7
				c0.1,0.2,0.2,0.3,0.3,0.4c0.2,0.1,0.3,0.2,0.6,0.2c0.4,0,0.7-0.1,0.9-0.3c0.2-0.2,0.3-0.5,0.3-1v-2.4h0.5V63c0,0.4,0,0.7-0.1,1
				c-0.1,0.2-0.3,0.4-0.5,0.6c-0.2,0.2-0.6,0.2-1,0.2c-0.4,0-0.7-0.1-0.9-0.2c-0.3-0.2-0.4-0.3-0.5-0.6c-0.1-0.3-0.2-0.6-0.2-1v-2.4
				H285.2z M284.1,61.1h-1.4v3.6h-0.5v-3.6h-1.4v-0.5h3.3V61.1z M291.5,60.7c0.2,0.1,0.3,0.2,0.5,0.4c0.1,0.2,0.2,0.4,0.2,0.6
				c0,0.3-0.1,0.6-0.3,0.7c-0.2,0.2-0.5,0.3-0.9,0.3c0.2,0.1,0.3,0.2,0.3,0.2c0.2,0.2,0.3,0.3,0.4,0.6l0.7,1.1h-0.7l-0.5-0.9
				c-0.2-0.2-0.3-0.4-0.4-0.6c-0.1-0.1-0.2-0.2-0.3-0.3c-0.1,0-0.2-0.1-0.2-0.1c-0.1,0-0.2-0.1-0.3-0.1h-0.6v1.8h-0.5v-4.1h1.8
				C291,60.6,291.3,60.6,291.5,60.7z M289.3,62.4h1.2c0.2,0,0.4,0,0.6-0.1c0.2-0.1,0.2-0.2,0.3-0.3c0.1-0.1,0.1-0.2,0.1-0.3
				c0-0.2-0.1-0.3-0.2-0.5c-0.2-0.2-0.4-0.2-0.7-0.2h-1.3V62.4z M253.4,60.6h3.3v0.5h-1.4v3.6h-0.5v-3.6h-1.4V60.6z M262,60.6l1,2.9
				c0.1,0.3,0.1,0.5,0.2,0.6c0-0.2,0.1-0.4,0.2-0.7l1-2.9h0.7v4.1h-0.5v-3.4l-1.2,3.4h-0.5l-1.1-3.5v3.5h-0.6v-4.1H262z M260.3,61.1
				h-2.5v1.3h2.3v0.5h-2.3v1.4h2.5v0.5h-3v-4.1h3V61.1z M268,61.2c-0.1,0-0.2-0.1-0.5-0.1h-1v1.4h1.1c0.3,0,0.6-0.1,0.7-0.2
				s0.2-0.3,0.2-0.6c0-0.2-0.1-0.3-0.2-0.4C268.3,61.3,268.1,61.2,268,61.2z M320,61h-2.2v1.3h1.9v0.5h-1.9v1.9h-0.6v-4.1h2.7V61z
				 M325.4,60.5l2.2,3.3v-3.3h0.5v4.1h-0.6l-2.1-3.2v3.2h-0.5v-4.1H325.4z M321.3,60.5v2.4c0,0.3,0,0.6,0.1,0.7
				c0.1,0.2,0.2,0.3,0.3,0.4c0.2,0.1,0.3,0.2,0.6,0.2c0.4,0,0.7-0.1,0.9-0.3c0.2-0.2,0.3-0.5,0.3-1v-2.4h0.5v2.4c0,0.4,0,0.7-0.1,1
				c-0.1,0.2-0.3,0.4-0.5,0.6c-0.2,0.2-0.6,0.2-1,0.2c-0.4,0-0.7-0.1-0.9-0.2c-0.3-0.2-0.4-0.3-0.5-0.6c-0.1-0.3-0.2-0.6-0.2-1v-2.4
				H321.3z M329.4,62.5c0,0.3,0,0.6,0.1,0.9c0.1,0.2,0.3,0.4,0.5,0.6c0.2,0.1,0.4,0.2,0.7,0.2c0.3,0,0.6-0.1,0.7-0.2
				c0.2-0.2,0.4-0.5,0.5-0.8l0.5,0.1c-0.1,0.5-0.3,0.8-0.6,1c-0.3,0.2-0.7,0.3-1.1,0.3c-0.5,0-0.8-0.1-1.1-0.2
				c-0.3-0.2-0.5-0.5-0.6-0.8c-0.2-0.3-0.2-0.7-0.2-1.1c0-0.5,0.1-0.8,0.2-1.1c0.2-0.3,0.4-0.5,0.7-0.7c0.3-0.2,0.6-0.3,1-0.3
				c0.4,0,0.8,0.1,1,0.3c0.3,0.2,0.5,0.5,0.6,0.9l-0.5,0.1c-0.1-0.3-0.3-0.5-0.5-0.6c-0.2-0.2-0.4-0.2-0.6-0.2
				c-0.3,0-0.6,0.1-0.8,0.2c-0.2,0.2-0.4,0.4-0.5,0.6C329.4,62,329.4,62.3,329.4,62.5z M337.3,60.5v4.1h-0.6v-4.1H337.3z M336,61
				h-1.4v3.6h-0.5V61h-1.4v-0.5h3.3V61z M295.9,61.1h-2.5v1.3h2.3v0.5h-2.3v1.4h2.5v0.5h-3v-4.1h3V61.1z M343.2,60.5l2.2,3.3v-3.3
				h0.5v4.1h-0.6l-2.1-3.2v3.2h-0.5v-4.1H343.2z M341.8,61.5c0.2,0.3,0.2,0.7,0.2,1.1c0,0.4-0.1,0.8-0.2,1.1
				c-0.2,0.3-0.4,0.6-0.7,0.7c-0.3,0.2-0.6,0.2-1,0.2c-0.4,0-0.7-0.1-1-0.3c-0.3-0.2-0.5-0.4-0.7-0.7c-0.2-0.3-0.2-0.6-0.2-1
				c0-0.7,0.2-1.2,0.5-1.6c0.4-0.4,0.9-0.6,1.4-0.6c0.4,0,0.7,0.1,1,0.3C341.4,60.9,341.6,61.1,341.8,61.5z M341.3,61.7
				c-0.1-0.3-0.3-0.5-0.5-0.6c-0.2-0.2-0.5-0.2-0.7-0.2c-0.4,0-0.7,0.1-1,0.4c-0.3,0.3-0.4,0.7-0.4,1.3c0,0.5,0.1,0.9,0.4,1.2
				c0.3,0.3,0.6,0.4,1,0.4c0.4,0,0.8-0.1,1-0.4c0.3-0.3,0.4-0.7,0.4-1.3C341.5,62.2,341.4,61.9,341.3,61.7z"/>
		</g>
		<g>
			
				<path fill-rule="evenodd" clip-rule="evenodd" fill="none" stroke="#4B5467" stroke-width="0.1" stroke-linecap="round" stroke-linejoin="round" stroke-miterlimit="3" stroke-opacity="0.251" d="
				M22.9,61.5h46.8 M22.9,52.4h46.8"/>
		</g>
		<g>
			<path fill-rule="evenodd" clip-rule="evenodd" fill="#4B5467" d="M46.2,55.1c0.3,0.2,0.5,0.4,0.7,0.7c0.2,0.3,0.2,0.7,0.2,1.1
				c0,0.3-0.1,0.7-0.2,1c0,0.1,0,0.1-0.1,0.2c-0.2,0.3-0.4,0.6-0.7,0.7c-0.3,0.2-0.6,0.2-1,0.2c-0.4,0-0.7-0.1-1-0.3
				c-0.3-0.2-0.5-0.4-0.7-0.7c0,0,0-0.1-0.1-0.1c-0.1-0.3-0.2-0.6-0.2-0.9c0-0.7,0.2-1.2,0.5-1.6c0.4-0.4,0.9-0.6,1.4-0.6
				C45.5,54.8,45.9,54.9,46.2,55.1z M45.1,55.3c-0.4,0-0.7,0.1-1,0.4c-0.3,0.3-0.4,0.7-0.4,1.3c0,0.3,0.1,0.6,0.2,0.9
				c0,0.1,0.1,0.2,0.2,0.3c0.3,0.3,0.6,0.4,1,0.4c0.4,0,0.8-0.1,1-0.4c0.1-0.1,0.2-0.2,0.2-0.3c0.1-0.3,0.2-0.6,0.2-1
				c0-0.3-0.1-0.6-0.2-0.9c-0.1-0.3-0.3-0.5-0.5-0.6C45.6,55.3,45.4,55.3,45.1,55.3z M42.6,57.9c-0.1,0.3-0.3,0.6-0.5,0.8
				C41.8,58.9,41.4,59,41,59c-0.5,0-0.8-0.1-1.1-0.2c-0.3-0.2-0.5-0.5-0.6-0.8c0,0,0-0.1-0.1-0.1c-0.1-0.3-0.2-0.6-0.2-1
				c0-0.5,0.1-0.8,0.2-1.1c0.2-0.3,0.4-0.5,0.7-0.7c0.3-0.2,0.6-0.3,1-0.3c0.4,0,0.8,0.1,1,0.3c0.3,0.2,0.5,0.5,0.6,0.9l-0.5,0.1
				c-0.1-0.3-0.3-0.5-0.5-0.6c-0.2-0.2-0.4-0.2-0.6-0.2c-0.3,0-0.6,0.1-0.8,0.2c-0.2,0.2-0.4,0.4-0.5,0.6c-0.1,0.3-0.1,0.5-0.1,0.8
				c0,0.3,0,0.6,0.1,0.9c0,0,0,0.1,0.1,0.1c0.1,0.2,0.3,0.4,0.5,0.5c0.2,0.1,0.4,0.2,0.7,0.2c0.3,0,0.6-0.1,0.7-0.2
				c0.2-0.1,0.3-0.3,0.3-0.5c0-0.1,0.1-0.2,0.1-0.3l0.5,0.1C42.6,57.7,42.6,57.8,42.6,57.9z M47.8,54.9h0.5l2.2,3.3v-3.3H51V59h-0.6
				l-2.1-3.2V59h-0.5V54.9z M37.2,59h-2.6v-4.1h0.6v3.7h2V59z M57.3,55.4V59h-0.5v-3.6h-1.4v-0.5h3.3v0.5H57.3z M54.7,55.4
				c0.1,0.2,0.2,0.4,0.2,0.7h-0.5c0-0.3-0.1-0.5-0.3-0.6c-0.2-0.1-0.4-0.2-0.7-0.2c-0.3,0-0.6,0.1-0.7,0.2c-0.2,0.1-0.2,0.2-0.2,0.4
				c0,0.2,0.1,0.3,0.2,0.4c0.1,0.1,0.4,0.2,0.8,0.3c0.5,0.1,0.8,0.2,0.9,0.2c0.3,0.1,0.4,0.3,0.5,0.5c0.1,0.2,0.2,0.3,0.2,0.6v0.1
				c0,0.2-0.1,0.4-0.2,0.6c-0.1,0.2-0.3,0.3-0.5,0.4C54.1,59,53.8,59,53.5,59c-0.4,0-0.7-0.1-0.9-0.2c-0.3-0.1-0.5-0.2-0.6-0.5
				c-0.1-0.2-0.1-0.3-0.2-0.5c0-0.1-0.1-0.2-0.1-0.2l0.5-0.1c0,0.1,0,0.2,0.1,0.3c0,0.1,0.1,0.2,0.1,0.2c0.1,0.1,0.3,0.2,0.5,0.3
				c0.2,0.1,0.4,0.1,0.6,0.1c0.2,0,0.4,0,0.5-0.1c0.2,0,0.3-0.1,0.3-0.2c0.1-0.1,0.1-0.2,0.1-0.3c0-0.2,0-0.3-0.1-0.3
				c-0.1-0.1-0.2-0.2-0.3-0.3c-0.1,0-0.4-0.1-0.7-0.2c-0.4-0.1-0.6-0.2-0.8-0.2c-0.2-0.1-0.3-0.2-0.4-0.4c-0.1-0.2-0.2-0.3-0.2-0.5
				c0-0.2,0.1-0.4,0.2-0.6s0.3-0.3,0.5-0.4c0.2-0.1,0.5-0.2,0.7-0.2c0.3,0,0.6,0.1,0.8,0.2C54.4,55.1,54.6,55.2,54.7,55.4z M59.1,59
				h-0.6l1.5-4.1h0.6l1.7,4.1h-0.6l-0.5-1.3h-1.7L59.1,59z M23.5,55.8c0.2-0.3,0.4-0.5,0.7-0.7c0.3-0.2,0.6-0.3,1-0.3
				c0.4,0,0.8,0.1,1,0.3c0.3,0.2,0.5,0.5,0.6,0.9l-0.5,0.1c-0.1-0.3-0.3-0.5-0.5-0.6c-0.2-0.2-0.4-0.2-0.6-0.2
				c-0.3,0-0.6,0.1-0.8,0.2c-0.2,0.2-0.4,0.4-0.5,0.6c-0.1,0.3-0.1,0.5-0.1,0.8c0,0.3,0,0.6,0.1,0.9c0,0,0,0.1,0.1,0.1
				c0.1,0.2,0.3,0.4,0.5,0.5c0.2,0.1,0.4,0.2,0.7,0.2c0.3,0,0.6-0.1,0.7-0.2c0.2-0.1,0.3-0.3,0.3-0.5c0-0.1,0.1-0.2,0.1-0.3l0.5,0.1
				c0,0.1-0.1,0.2-0.1,0.2c-0.1,0.3-0.3,0.6-0.5,0.8C26,58.9,25.7,59,25.3,59c-0.5,0-0.8-0.1-1.1-0.2c-0.3-0.2-0.5-0.5-0.6-0.8
				c0,0,0-0.1-0.1-0.1c-0.1-0.3-0.2-0.6-0.2-1C23.3,56.5,23.4,56.1,23.5,55.8z M32,54.9v3.7h2V59h-2.6v-4.1H32z M30.6,59h-3v-4.1h3
				v0.5h-2.5v1.3h2.3v0.5h-2.3v1.4h2.5V59z M69.8,55.4h-1.4V59h-0.5v-3.6h-1.4v-0.5h3.3V55.4z M66,54.9V59h-0.6l-2.1-3.2V59h-0.5
				v-4.1h0.5l2.2,3.3v-3.3H66z M59.7,57.3h1.4l-0.5-1.1c-0.1-0.3-0.2-0.6-0.3-0.9c0,0.3-0.1,0.5-0.2,0.8L59.7,57.3z"/>
		</g>
		<g>
			<path fill-rule="evenodd" clip-rule="evenodd" fill="#2C313A" d="M61.8,106.6l0.1,0.1l0.2,0.2l0.1,0.2c0,0-0.1-0.1-0.2-0.1
				c-0.8-0.2-1.5-0.6-2-1.2c-0.5-0.6-0.9-1.5-1.1-2.6l-0.1-1.2v-0.1c0,0,0-0.1,0-0.1s0-0.1,0-0.1V74.3c0-3.8,1.9-5.7,5.7-5.7h95.2
				l1.5,0.1c1,0.2,1.7,0.5,2.3,0.9c0.2,0.2,0.5,0.9,0.9,2c-0.6-0.1-1.2-0.2-1.8-0.2H67.4c-3.8,0-5.7,1.9-5.7,5.7v27.4
				c0,0.6,0,1.1,0.1,1.6V106.6z"/>
			<path fill-rule="evenodd" clip-rule="evenodd" fill="#4B5467" d="M61.9,106.7C61.9,106.7,61.9,106.6,61.9,106.7
				c0-0.1-0.1-0.1-0.1-0.1v-0.4c-0.1-0.5-0.1-1-0.1-1.6V77.2c0-3.8,1.9-5.7,5.7-5.7h95.4c0.6,0,1.3,0.1,1.8,0.2l0.1,0.2
				c0,0,0,0.1,0,0.1l0.1,0.1c0.2,0.6,0.3,1.4,0.3,2.3v27.4c0,3.4-1.7,5.2-5.2,5.2H64.5c-0.3,0-0.9,0-1.6,0.1c-0.4,0-0.7,0-0.9-0.1
				L61.9,106.7z"/>
			<path fill-rule="evenodd" clip-rule="evenodd" fill="#EEEFE4" d="M62.1,106.9c0.2,0.1,0.4,0.1,0.9,0.1c0.7-0.1,1.3-0.1,1.6-0.1
				h95.4c3.4,0,5.2-1.7,5.2-5.2V74.3c0-0.9-0.1-1.6-0.3-2.3l-0.1-0.1c0,0,0-0.1,0-0.1l-0.1-0.2c-0.4-1.1-0.7-1.8-0.9-2
				c0.3,0,0.8,0.4,1.6,1.4c0.4,0.4,0.6,1,0.7,1.8c0-0.2,0.1,0.3,0.2,1.5v27.4c0,4.2-2.1,6.3-6.3,6.3H64.8c-1.4-0.2-2.3-0.5-2.7-1
				c0.1,0,0.1,0,0.2,0.1L62.1,106.9z M61.8,106.6c0,0,0.1,0,0.1,0.1c0,0,0,0,0,0.1L61.8,106.6z"/>
		</g>
		<g>
			<path fill-rule="evenodd" clip-rule="evenodd" fill="#FFFFFF" d="M128.3,77.8c0.2,0,0.4-0.1,0.5-0.2v-4.1h1.8v5.7H129l-0.1-0.4
				c-0.2,0.1-0.3,0.2-0.5,0.3c-0.2,0.1-0.4,0.1-0.6,0.1c-0.2,0-0.4,0-0.6-0.1c-0.2-0.1-0.3-0.2-0.4-0.3v2.4h-1.8v-7.7h1.8v4.1
				c0.2,0.1,0.3,0.2,0.5,0.2c0.2,0,0.4,0.1,0.6,0.1C127.9,77.9,128.1,77.9,128.3,77.8z M145,71.4l-4,9.5h-1.5l4-9.5H145z
				 M150.7,73.5c0.3,0.1,0.6,0.2,0.9,0.3v1.5h-0.3c0,0-0.1-0.1-0.2-0.2c-0.1-0.1-0.2-0.2-0.3-0.2c-0.2-0.1-0.3-0.2-0.5-0.2
				c-0.2,0-0.4-0.1-0.6-0.1c-0.5,0-0.9,0.2-1.1,0.5c-0.2,0.3-0.3,0.7-0.3,1.3s0.1,1,0.3,1.3c0.3,0.3,0.6,0.4,1.1,0.4
				c0.2,0,0.4,0,0.6-0.1c0.2-0.1,0.3-0.2,0.5-0.2c0.1,0,0.2-0.1,0.3-0.2c0.1-0.1,0.2-0.2,0.2-0.2h0.3v1.5c-0.3,0.2-0.6,0.3-0.9,0.3
				c-0.3,0.1-0.6,0.1-1,0.1c-0.5,0-0.9-0.1-1.3-0.2c-0.4-0.2-0.8-0.3-1.1-0.6c-0.3-0.2-0.5-0.5-0.7-0.9s-0.2-0.8-0.2-1.3
				c0-0.5,0.1-1,0.2-1.4c0.2-0.4,0.4-0.7,0.7-0.9c0.3-0.3,0.7-0.5,1.1-0.6c0.4-0.1,0.8-0.1,1.2-0.1C150,73.4,150.4,73.5,150.7,73.5z
				 M135.1,73c-0.2,0-0.4,0.1-0.5,0.2c-0.1,0-0.2,0.1-0.3,0.2c-0.1,0.1-0.2,0.2-0.2,0.3c0,0.2,0.1,0.3,0.2,0.5
				c0.2,0.1,0.4,0.2,0.9,0.3c0.3,0,0.5,0.1,0.8,0.2c0.2,0,0.5,0.1,0.8,0.2c0.6,0.2,1,0.5,1.3,0.8c0.3,0.3,0.4,0.7,0.4,1.3
				c0,0.7-0.3,1.3-0.9,1.8s-1.5,0.7-2.5,0.7c-0.6,0-1.2,0-1.7-0.1c-0.5-0.1-0.9-0.3-1.3-0.5V77h0.2c0.4,0.3,0.9,0.6,1.4,0.7
				c0.5,0.2,1,0.2,1.4,0.2c0.1,0,0.3,0,0.5,0c0.2,0,0.3-0.1,0.5-0.1c0.2-0.1,0.3-0.2,0.3-0.2c0.1-0.1,0.2-0.2,0.2-0.4
				c0-0.2-0.1-0.3-0.2-0.4c-0.2-0.2-0.4-0.2-0.6-0.3c-0.3-0.1-0.6-0.2-0.9-0.2c-0.3,0-0.6-0.1-0.9-0.2c-0.6-0.2-1-0.5-1.3-0.9
				c-0.3-0.3-0.5-0.8-0.5-1.3c0-0.7,0.3-1.3,1-1.7c0.6-0.4,1.4-0.6,2.4-0.6c0.5,0,1,0,1.4,0.1c0.5,0.1,0.9,0.2,1.3,0.4v1.7H138
				c-0.3-0.3-0.7-0.5-1.1-0.6c-0.4-0.2-0.9-0.2-1.3-0.2C135.4,73,135.2,73,135.1,73z M155.7,74.9c-0.2,0-0.4,0-0.6,0.1
				c-0.2,0.1-0.3,0.2-0.4,0.2v4h-1.8v-5.7h1.8v0.6c0.3-0.2,0.6-0.4,0.9-0.6c0.3-0.1,0.6-0.2,1-0.2c0.3,0,0.7,0.1,1,0.2
				c0.3,0.2,0.5,0.4,0.7,0.7c0.3-0.3,0.7-0.6,1-0.7c0.3-0.2,0.7-0.2,1-0.2c0.6,0,1.1,0.2,1.4,0.5c0.3,0.4,0.5,0.9,0.5,1.6v3.7h-1.8
				v-2.8c0-0.3,0-0.6,0-0.7c0-0.2,0-0.3-0.1-0.5c0-0.1-0.1-0.2-0.3-0.2c-0.1-0.1-0.3-0.1-0.5-0.1c-0.2,0-0.3,0-0.4,0.1
				c-0.2,0-0.3,0.1-0.6,0.2v4h-1.8v-2.8c0-0.3,0-0.6-0.1-0.7c0-0.2,0-0.3-0.1-0.5c0-0.1-0.1-0.2-0.2-0.2
				C156,74.9,155.9,74.9,155.7,74.9z"/>
		</g>
		<g>
			
				<linearGradient id="SVGID_45_" gradientUnits="userSpaceOnUse" x1="-173.375" y1="-455.875" x2="-149.3247" y2="-455.875" gradientTransform="matrix(1.1455 0 0 1.1455 260.0828 610.5375)">
				<stop  offset="0" style="stop-color:#FFFFFF;stop-opacity:0.1333"/>
				<stop  offset="1" style="stop-color:#FAFAFA;stop-opacity:0"/>
			</linearGradient>
			<polygon fill-rule="evenodd" clip-rule="evenodd" fill="url(#SVGID_45_)" points="78,70 89.1,70 61.5,106.7 61.5,91.3 			"/>
			
				<linearGradient id="SVGID_46_" gradientUnits="userSpaceOnUse" x1="-116.8252" y1="-445.6255" x2="-109.2752" y2="-445.6255" gradientTransform="matrix(1.1455 0 0 1.1455 260.0828 610.5375)">
				<stop  offset="0" style="stop-color:#FFFFFF;stop-opacity:0.1333"/>
				<stop  offset="1" style="stop-color:#FAFAFA;stop-opacity:0"/>
			</linearGradient>
			<polygon fill-rule="evenodd" clip-rule="evenodd" fill="url(#SVGID_46_)" points="131.4,94.3 134.9,94.3 126.2,105.8 
				121.4,105.8 			"/>
			
				<linearGradient id="SVGID_47_" gradientUnits="userSpaceOnUse" x1="-91.2871" y1="-469.062" x2="-99.6621" y2="-460.687" gradientTransform="matrix(1.1455 0 0 1.1455 260.0828 610.5375)">
				<stop  offset="0" style="stop-color:#FFFFFF;stop-opacity:0.1333"/>
				<stop  offset="1" style="stop-color:#FAFAFA;stop-opacity:0"/>
			</linearGradient>
			<path fill-rule="evenodd" clip-rule="evenodd" fill="url(#SVGID_47_)" d="M162.9,70.6v16.7c-1.2-10.7-9.9-16.2-26.1-16.7H162.9z"
				/>
		</g>
	</g>
</g>
<g id="Layer_2">
	<g>
		<path fill="#3A3A31" d="M55.1,122.4c0.4-0.1,1-0.1,1.5-0.1c1,0,1.8,0.2,2.3,0.7c0.5,0.5,0.8,1.1,0.8,2c0,0.9-0.3,1.7-0.8,2.2
			c-0.5,0.5-1.4,0.8-2.5,0.8c-0.5,0-0.9,0-1.3-0.1V122.4z M55.8,127.3c0.2,0,0.4,0,0.7,0c1.5,0,2.4-0.9,2.4-2.4
			c0-1.3-0.7-2.1-2.3-2.1c-0.4,0-0.7,0-0.8,0.1V127.3z"/>
		<path fill="#3A3A31" d="M61.5,122.3v5.6h-0.7v-5.6H61.5z"/>
		<path fill="#3A3A31" d="M67.2,127.7c-0.3,0.1-1,0.3-1.7,0.3c-0.8,0-1.5-0.2-2.1-0.7c-0.5-0.5-0.8-1.2-0.8-2.1c0-1.7,1.1-2.9,3-2.9
			c0.6,0,1.1,0.1,1.4,0.3l-0.2,0.6c-0.3-0.1-0.7-0.2-1.2-0.2c-1.4,0-2.2,0.8-2.2,2.2c0,1.4,0.9,2.2,2.1,2.2c0.5,0,0.8-0.1,1-0.1
			v-1.7h-1.1V125h1.8V127.7z"/>
		<path fill="#3A3A31" d="M69.3,122.3v5.6h-0.7v-5.6H69.3z"/>
		<path fill="#3A3A31" d="M71.8,123h-1.7v-0.6h4.1v0.6h-1.7v5h-0.7V123z"/>
		<path fill="#3A3A31" d="M75.3,126.2l-0.6,1.8H74l1.9-5.6h0.9l1.9,5.6h-0.8l-0.6-1.8H75.3z M77.1,125.6l-0.5-1.6
			c-0.1-0.4-0.2-0.7-0.3-1h0c-0.1,0.3-0.2,0.7-0.3,1l-0.5,1.6H77.1z"/>
		<path fill="#3A3A31" d="M79.7,122.3h0.7v5h2.4v0.6h-3.1V122.3z"/>
		<path fill="#3A3A31" d="M89.6,127.7c-0.3,0.1-0.8,0.3-1.5,0.3c-1.6,0-2.7-1-2.7-2.8c0-1.7,1.2-2.9,2.9-2.9c0.7,0,1.1,0.1,1.3,0.2
			l-0.2,0.6c-0.3-0.1-0.7-0.2-1.1-0.2c-1.3,0-2.2,0.8-2.2,2.3c0,1.4,0.8,2.2,2.1,2.2c0.4,0,0.9-0.1,1.2-0.2L89.6,127.7z"/>
		<path fill="#3A3A31" d="M95.3,125.1c0,1.9-1.2,2.9-2.6,2.9c-1.5,0-2.5-1.1-2.5-2.8c0-1.8,1.1-2.9,2.6-2.9
			C94.3,122.3,95.3,123.4,95.3,125.1z M91,125.2c0,1.2,0.6,2.3,1.8,2.3c1.1,0,1.8-1,1.8-2.3c0-1.1-0.6-2.3-1.8-2.3
			C91.6,122.8,91,123.9,91,125.2z"/>
		<path fill="#3A3A31" d="M96.4,127.9v-5.6h0.8l1.8,2.8c0.4,0.7,0.7,1.2,1,1.8l0,0c-0.1-0.7-0.1-1.4-0.1-2.3v-2.3h0.7v5.6h-0.7
			l-1.8-2.8c-0.4-0.6-0.8-1.3-1-1.9l0,0c0,0.7,0.1,1.4,0.1,2.3v2.4H96.4z"/>
		<path fill="#3A3A31" d="M102.1,122.4c0.4-0.1,1-0.1,1.5-0.1c1,0,1.8,0.2,2.3,0.7c0.5,0.5,0.8,1.1,0.8,2c0,0.9-0.3,1.7-0.8,2.2
			c-0.5,0.5-1.4,0.8-2.5,0.8c-0.5,0-0.9,0-1.3-0.1V122.4z M102.8,127.3c0.2,0,0.4,0,0.7,0c1.5,0,2.4-0.9,2.4-2.4
			c0-1.3-0.7-2.1-2.3-2.1c-0.4,0-0.7,0-0.8,0.1V127.3z"/>
		<path fill="#3A3A31" d="M108.5,122.3v3.3c0,1.2,0.6,1.8,1.3,1.8c0.8,0,1.4-0.5,1.4-1.8v-3.3h0.7v3.2c0,1.7-0.9,2.4-2.1,2.4
			c-1.1,0-2-0.7-2-2.4v-3.3H108.5z"/>
		<path fill="#3A3A31" d="M117.2,127.7c-0.3,0.1-0.8,0.3-1.5,0.3c-1.6,0-2.7-1-2.7-2.8c0-1.7,1.2-2.9,2.9-2.9c0.7,0,1.1,0.1,1.3,0.2
			l-0.2,0.6c-0.3-0.1-0.7-0.2-1.1-0.2c-1.3,0-2.2,0.8-2.2,2.3c0,1.4,0.8,2.2,2.1,2.2c0.4,0,0.9-0.1,1.2-0.2L117.2,127.7z"/>
		<path fill="#3A3A31" d="M119.6,123h-1.7v-0.6h4.1v0.6h-1.7v5h-0.7V123z"/>
		<path fill="#3A3A31" d="M123.5,122.3v5.6h-0.7v-5.6H123.5z"/>
		<path fill="#3A3A31" d="M126.2,127.9l-1.8-5.6h0.8l0.9,2.7c0.2,0.8,0.4,1.4,0.6,2.1h0c0.2-0.6,0.4-1.3,0.6-2.1l0.9-2.7h0.8l-2,5.6
			H126.2z"/>
		<path fill="#3A3A31" d="M130.5,122.3v5.6h-0.7v-5.6H130.5z"/>
		<path fill="#3A3A31" d="M133.1,123h-1.7v-0.6h4.1v0.6h-1.7v5h-0.7V123z"/>
		<path fill="#3A3A31" d="M137.8,127.9v-2.4l-1.8-3.2h0.8l0.8,1.5c0.2,0.4,0.4,0.8,0.6,1.1h0c0.2-0.4,0.3-0.7,0.6-1.1l0.8-1.5h0.8
			l-1.9,3.2v2.4H137.8z"/>
		<path fill="#3A3A31" d="M147.8,125.5c0-0.8-0.1-1.7-0.1-2.4h0c-0.2,0.7-0.4,1.3-0.7,2.1l-1,2.7h-0.5l-0.9-2.6
			c-0.3-0.8-0.5-1.5-0.6-2.2h0c0,0.7-0.1,1.6-0.1,2.5l-0.1,2.4H143l0.4-5.6h0.9l0.9,2.7c0.2,0.7,0.4,1.3,0.6,1.9h0
			c0.1-0.6,0.3-1.2,0.6-1.9l1-2.7h0.9l0.3,5.6H148L147.8,125.5z"/>
		<path fill="#3A3A31" d="M152.9,125.3h-2.2v2h2.4v0.6H150v-5.6h3v0.6h-2.3v1.8h2.2V125.3z"/>
		<path fill="#3A3A31" d="M155.4,123h-1.7v-0.6h4.1v0.6h-1.7v5h-0.7V123z"/>
		<path fill="#3A3A31" d="M161.6,125.3h-2.2v2h2.4v0.6h-3.1v-5.6h3v0.6h-2.3v1.8h2.2V125.3z"/>
		<path fill="#3A3A31" d="M163,122.4c0.4-0.1,0.9-0.1,1.4-0.1c0.8,0,1.3,0.1,1.6,0.5c0.3,0.2,0.4,0.6,0.4,1.1c0,0.7-0.5,1.2-1,1.4v0
			c0.4,0.1,0.7,0.5,0.8,1.1c0.2,0.8,0.3,1.3,0.4,1.5h-0.7c-0.1-0.2-0.2-0.6-0.4-1.3c-0.2-0.8-0.5-1.1-1.1-1.1h-0.7v2.4H163V122.4z
			 M163.7,124.9h0.7c0.8,0,1.3-0.4,1.3-1.1c0-0.7-0.5-1-1.3-1c-0.3,0-0.6,0-0.7,0.1V124.9z"/>
	</g>
</g>
</svg>
