<?xml version="1.0" encoding="utf-8"?>
<!-- Generator: Adobe Illustrator 16.0.0, SVG Export Plug-In . SVG Version: 6.00 Build 0)  -->
<!DOCTYPE svg PUBLIC "-//W3C//DTD SVG 1.1//EN" "http://www.w3.org/Graphics/SVG/1.1/DTD/svg11.dtd">
<svg version="1.1" id="Layer_1" xmlns="http://www.w3.org/2000/svg" xmlns:xlink="http://www.w3.org/1999/xlink" x="0px" y="0px"
	 width="130px" height="140px" viewBox="0 0 130 140" enable-background="new 0 0 130 140" xml:space="preserve">
<g>
	<g>
		
			<radialGradient id="SVGID_1_" cx="67.2002" cy="69.6499" r="179.4" gradientTransform="matrix(1 0 0 -0.3637 0 94.9824)" gradientUnits="userSpaceOnUse">
			<stop  offset="0" style="stop-color:#040404"/>
			<stop  offset="0.3216" style="stop-color:#040404;stop-opacity:0.498"/>
			<stop  offset="0.4431" style="stop-color:#030303;stop-opacity:0"/>
			<stop  offset="1" style="stop-color:#000000;stop-opacity:0"/>
		</radialGradient>
		<path fill-rule="evenodd" clip-rule="evenodd" fill="url(#SVGID_1_)" d="M109.5,69c-11.9-3.2-26.3-4.8-43-4.8
			c-16.9,0-31.3,1.6-43.2,4.8c-1.7,0.4-3.3,0.9-4.6,1.5c-8.6,2.8-13,6.1-13.1,9.8V63.4v-0.9c0-0.1,0-0.2,0.1-0.4c0-0.1,0-0.2,0-0.3
			c0.1-0.5,0.4-1.1,0.9-1.6c1.9-2.2,6.2-4.4,13-6.8h0.3c1.1-0.3,2.4-0.7,3.9-1.2c1.1-0.2,2.3-0.5,3.4-0.9c1.2-0.3,2.4-0.5,3.6-0.8
			c10.3-2,22.2-3,35.8-3c16.8,0,31,1.6,42.8,4.6c1.4,0.5,2.7,0.9,4,1.2c3.8,1.2,6.8,2.5,8.9,3.7c1,0.5,1.8,1,2.4,1.5
			c0.6,0.4,1.1,0.9,1.5,1.4l1.4,2.1v16.5c-0.1,0-0.2,0-0.4-0.2c-1.2-2.9-5.5-5.6-12.7-8C112.8,69.9,111.2,69.5,109.5,69z"/>
		<g>
			<path fill-rule="evenodd" clip-rule="evenodd" fill="#46515A" d="M4.7,81.6v-0.2V60.3c0,1,0.1,1.3,0.2,1.1H5v-0.3
				c-1.5-3.8,4.5-7.6,17.9-11.5c13.4-3.8,28.9-5.6,46.4-5.5c17.4,0.1,31.6,2,42.5,5.6c10.9,3.7,16.1,7,15.6,10v21.9
				c0,0.2-0.1,0.3-0.1,0.4c-0.8,3-6.7,5.5-17.9,7.3C97.4,91.2,83,92.1,66,92c-17-0.1-31.5-1.1-43.4-3c-11.3-1.7-17.3-4-17.9-7
				c0-0.1,0-0.2,0-0.3V81.6z"/>
			
				<line fill-rule="evenodd" clip-rule="evenodd" fill="none" stroke="#99FF00" stroke-width="0.1" stroke-linecap="round" stroke-linejoin="round" stroke-miterlimit="3" x1="4.7" y1="81.6" x2="4.7" y2="81.4"/>
		</g>
	</g>
	<g>
		
			<radialGradient id="SVGID_2_" cx="67.2002" cy="69.6499" r="179.4" gradientTransform="matrix(1 0 0 -0.3637 0 94.9824)" gradientUnits="userSpaceOnUse">
			<stop  offset="0" style="stop-color:#040404"/>
			<stop  offset="0.3216" style="stop-color:#040404;stop-opacity:0.498"/>
			<stop  offset="0.4431" style="stop-color:#030303;stop-opacity:0"/>
			<stop  offset="1" style="stop-color:#000000;stop-opacity:0"/>
		</radialGradient>
		<path fill-rule="evenodd" clip-rule="evenodd" fill="url(#SVGID_2_)" d="M113.2,53.5c3.8,1.2,6.8,2.5,8.9,3.7c1,0.5,1.8,1,2.4,1.5
			c0.6,0.4,1.1,0.9,1.5,1.4l1.4,2.1v16.5c-0.1,0-0.2,0-0.4-0.2c-1.2-2.9-5.5-5.6-12.7-8c-1.5-0.6-3.1-1-4.8-1.5
			c-11.9-3.2-26.3-4.8-43-4.8c-16.9,0-31.3,1.6-43.2,4.8c-1.7,0.4-3.3,0.9-4.6,1.5c-8.6,2.8-13,6.1-13.1,9.8V63.4v-0.9
			c0-0.1,0-0.2,0.1-0.4c0-0.1,0-0.2,0-0.3c0.1-0.5,0.4-1.1,0.9-1.6c1.9-2.2,6.2-4.4,13-6.8h0.3c1.1-0.3,2.4-0.7,3.9-1.2
			c1.1-0.2,2.3-0.5,3.4-0.9c1.2-0.3,2.4-0.5,3.6-0.8c10.3-2,22.2-3,35.8-3c16.8,0,31,1.6,42.8,4.6C110.5,52.8,111.9,53.2,113.2,53.5
			z"/>
		<g>
			<linearGradient id="SVGID_3_" gradientUnits="userSpaceOnUse" x1="66.6504" y1="93.2129" x2="66.6504" y2="121.3879">
				<stop  offset="0" style="stop-color:#000000;stop-opacity:0.9922"/>
				<stop  offset="1" style="stop-color:#FFFFFF;stop-opacity:0"/>
			</linearGradient>
			<path fill-rule="evenodd" clip-rule="evenodd" fill="url(#SVGID_3_)" d="M66.7,92.3c15.4,0,28.6,2.2,39.4,6.7
				c10.9,4.6,16.4,10,16.4,16.4c0,6.4-5.5,11.9-16.4,16.4c-10.9,4.5-24,6.8-39.4,6.8c-15.4,0-28.6-2.3-39.5-6.8
				c-10.9-4.5-16.4-10-16.4-16.4c0-6.4,5.4-11.8,16.4-16.4C38.1,94.5,51.3,92.3,66.7,92.3z"/>
		</g>
		<g>
			<g>
				<linearGradient id="SVGID_4_" gradientUnits="userSpaceOnUse" x1="4.7002" y1="62.9229" x2="127.3828" y2="62.9229">
					<stop  offset="0" style="stop-color:#383C45"/>
					<stop  offset="0.2431" style="stop-color:#37414A"/>
					<stop  offset="0.6118" style="stop-color:#5E6C77"/>
					<stop  offset="0.8" style="stop-color:#39464F"/>
					<stop  offset="1" style="stop-color:#373C45"/>
				</linearGradient>
				<path fill-rule="evenodd" clip-rule="evenodd" fill="url(#SVGID_4_)" d="M109.3,73.4C97.4,71,82.9,69.8,66,69.8
					c-17,0-31.5,1.2-43.5,3.6c-1.7,0.3-3.3,0.7-4.6,1.1C9.1,76.6,4.8,79,4.7,81.8V60.3c0,1,0.1,1.3,0.2,1.1H5v-0.3
					c-1.5-3.8,4.5-7.6,17.9-11.5c13.4-3.8,28.9-5.6,46.4-5.5c17.4,0.1,31.6,2,42.5,5.6c10.9,3.7,16.1,7,15.6,10v22
					c-0.1-2.8-4.5-5.2-13.1-7.3C112.7,74.1,111.1,73.7,109.3,73.4z M5,59.4v-0.3C4.9,59.2,4.9,59.3,5,59.4L5,59.4z"/>
				<linearGradient id="SVGID_5_" gradientUnits="userSpaceOnUse" x1="4.6626" y1="59.2251" x2="127.3376" y2="59.2251">
					<stop  offset="0" style="stop-color:#383C45"/>
					<stop  offset="0.2431" style="stop-color:#37414A"/>
					<stop  offset="0.6118" style="stop-color:#5E6C77"/>
					<stop  offset="0.8" style="stop-color:#39464F"/>
					<stop  offset="1" style="stop-color:#373C45"/>
				</linearGradient>
				<path fill-rule="evenodd" clip-rule="evenodd" fill="url(#SVGID_5_)" d="M5,59.4L5,59.4c-0.1-0.1,0-0.2,0-0.3V59.4z"/>
			</g>
			<g>
				<path fill-rule="evenodd" clip-rule="evenodd" fill="#333333" d="M22.4,74.2c-1-0.1-1.9-0.3-2.6-0.5c0.8-0.2,1.8-0.4,2.8-0.5
					L22.4,74.2z M109.3,74.4l0.3-1.2c1,0.2,2,0.4,3,0.6C111.7,74,110.5,74.2,109.3,74.4z"/>
				<linearGradient id="SVGID_6_" gradientUnits="userSpaceOnUse" x1="66.0254" y1="79.8496" x2="66.0254" y2="67.6496">
					<stop  offset="0" style="stop-color:#23343C"/>
					<stop  offset="1" style="stop-color:#1E1E1E"/>
				</linearGradient>
				<path fill-rule="evenodd" clip-rule="evenodd" fill="url(#SVGID_6_)" d="M109.7,73.3l-0.3,1.2C97.4,76.3,83,77.2,66,77.1
					c-17-0.1-31.5-1-43.4-2.9c-0.1,0-0.2,0-0.3,0l0.1-1c12-2.4,26.5-3.6,43.5-3.6c16.9,0,31.4,1.2,43.3,3.6
					C109.4,73.2,109.5,73.2,109.7,73.3z"/>
				
					<linearGradient id="SVGID_7_" gradientUnits="userSpaceOnUse" x1="-89.6411" y1="66.0303" x2="-72.4911" y2="66.0303" gradientTransform="matrix(5.830904e-005 -1 1 -1.000000e-003 -2.434923e-004 9.336427e-005)">
					<stop  offset="7.843138e-003" style="stop-color:#22333B"/>
					<stop  offset="1" style="stop-color:#4A545D"/>
				</linearGradient>
				<path fill-rule="evenodd" clip-rule="evenodd" fill="url(#SVGID_7_)" d="M19.8,73.8c0.8,0.2,1.7,0.3,2.6,0.5c0.1,0,0.1,0,0.3,0
					C34.5,76.1,49,77,66,77.1c17,0.1,31.4-0.8,43.3-2.7c1.2-0.2,2.3-0.4,3.4-0.6c0.5,0.1,1,0.2,1.5,0.4c8.6,2.1,13,4.5,13.1,7.2v0
					c0,0.2,0,0.4-0.1,0.6c-0.8,3-6.7,5.5-17.9,7.3C97.4,91.2,83,92.1,66,92c-17-0.1-31.5-1.1-43.4-3c-11.3-1.7-17.3-4-17.9-7
					c0-0.1,0-0.3,0-0.5v-0.2c0.1-2.7,4.4-5.1,13.1-7.2C18.4,74,19,73.9,19.8,73.8z"/>
				
					<path fill-rule="evenodd" clip-rule="evenodd" fill="none" stroke="#99FF00" stroke-width="0.1" stroke-linecap="round" stroke-linejoin="round" stroke-miterlimit="3" d="
					M127.3,81.4L127.3,81.4 M4.7,81.6v-0.2"/>
			</g>
		</g>
		<g>
			
				<radialGradient id="SVGID_8_" cx="66.75" cy="43.6001" r="65.5261" gradientTransform="matrix(1 0 0 -1 0 87.2002)" gradientUnits="userSpaceOnUse">
				<stop  offset="0" style="stop-color:#FFFFFF;stop-opacity:0.498"/>
				<stop  offset="0.9804" style="stop-color:#FAFAFA;stop-opacity:0"/>
			</radialGradient>
			<path fill-rule="evenodd" clip-rule="evenodd" fill="url(#SVGID_8_)" d="M109.7,51.6c-11.8-3.2-26.2-4.8-43-4.8
				c-16.9,0-31.2,1.6-43.1,4.8c-1.7,0.5-3.3,0.9-4.6,1.4h-0.1c-7.3,3-11.8,5.6-13.4,7.6l0,0.1V60c1.1-3.6,5.3-6.7,12.6-9.4
				c1.4-0.5,3-1,4.8-1.4c12.1-3.2,26.7-4.8,43.8-4.8c17,0,31.6,1.6,43.8,4.8c1.7,0.5,4.7,1.5,9,3c4.2,1.6,7,4.1,8.6,7.8l-0.1,0.3
				c-0.4-0.4-0.9-0.9-1.7-1.7c-1.4-1.4-5.3-3.2-11.7-5.4C113,52.6,111.4,52.1,109.7,51.6z"/>
			
				<radialGradient id="SVGID_9_" cx="66" cy="70.7002" r="65.625" gradientTransform="matrix(1 0 0 -1 0 141.4004)" gradientUnits="userSpaceOnUse">
				<stop  offset="0" style="stop-color:#FFFFFF;stop-opacity:0.498"/>
				<stop  offset="0.9804" style="stop-color:#FAFAFA;stop-opacity:0"/>
			</radialGradient>
			<polygon fill-rule="evenodd" clip-rule="evenodd" fill="url(#SVGID_9_)" points="4.8,84.8 4.9,84.7 4.9,86 4.8,86 			"/>
			<g>
				<path fill-rule="evenodd" clip-rule="evenodd" fill="#233D49" d="M109.3,74.3c-11.8-3.1-26.2-4.6-43-4.6c-13.7,0-25.7,1-36,3
					c-1.2,0.3-2.5,0.5-3.7,0.8c-1.1,0.4-2.3,0.6-3.4,0.8c-1.5,0.5-2.8,0.9-3.9,1.3h-0.3c-6.8,2.3-11.1,4.6-13,6.8
					c-0.4,0.4-0.7,0.9-0.8,1.4c-0.8-0.9-0.8-2.1,0-3.4c2.2-2.7,6.6-5.1,13.2-7.3c0.2-0.1,0.4-0.2,0.6-0.3c1.1-0.3,2.3-0.6,3.6-0.9
					c1.3-0.4,2.6-0.7,4-1.1c1.2-0.2,2.5-0.5,3.7-0.8c10.4-2,22.4-3,36-3c16.5,0,30.7,1.5,42.5,4.5c9.8,2.8,15.9,5.6,18.1,8.3
					c0.3,0.4,0.5,0.7,0.7,0.8c0,0,0,0.1,0,0.1c0.2,1.3,0,2.1-0.8,2.6l-0.6-1l-0.1-0.1c-0.3-0.5-0.8-1-1.4-1.5
					c-0.6-0.5-1.4-1-2.3-1.5c-2.3-1.2-5.3-2.5-9-3.7C112,75.1,110.7,74.7,109.3,74.3z"/>
			</g>
		</g>
		<g>
			
				<radialGradient id="SVGID_10_" cx="110.4561" cy="38.8184" r="14.6534" gradientTransform="matrix(0.9964 8.530436e-002 8.103915e-002 -0.1885 -19.2989 44.8958)" gradientUnits="userSpaceOnUse">
				<stop  offset="0" style="stop-color:#FFFFFF"/>
				<stop  offset="0.1098" style="stop-color:#FFFFFF"/>
				<stop  offset="0.3176" style="stop-color:#FEFEFE;stop-opacity:0.8824"/>
				<stop  offset="0.4902" style="stop-color:#FBFBFB;stop-opacity:0.498"/>
				<stop  offset="0.7373" style="stop-color:#F9F9F9;stop-opacity:0.1059"/>
				<stop  offset="1" style="stop-color:#F6F6F6;stop-opacity:0"/>
			</radialGradient>
			<path fill-rule="evenodd" clip-rule="evenodd" fill="url(#SVGID_10_)" d="M95.4,43.9c4.8,0.4,8.7,1.1,11.6,1.9
				c3.3,0.9,4.7,2,4.2,3.2c-0.4,1-2.5,1.7-6.3,2.1c-3.6,0.4-7.8,0.4-12.7,0c-4.7-0.4-8.7-1.1-11.9-2.1c-3.1-1-4.5-2-4.1-3
				c0.5-1.1,2.5-1.9,6.3-2.3C86.3,43.4,90.7,43.4,95.4,43.9z"/>
		</g>
	</g>
</g>
</svg>
