<?xml version="1.0" encoding="utf-8"?>
<!-- Generator: Adobe Illustrator 16.0.0, SVG Export Plug-In . SVG Version: 6.00 Build 0)  -->
<!DOCTYPE svg PUBLIC "-//W3C//DTD SVG 1.1//EN" "http://www.w3.org/Graphics/SVG/1.1/DTD/svg11.dtd">
<svg version="1.1" id="Layer_1" xmlns="http://www.w3.org/2000/svg" xmlns:xlink="http://www.w3.org/1999/xlink" x="0px" y="0px"
	 width="130px" height="140px" viewBox="0 0 130 140" enable-background="new 0 0 130 140" xml:space="preserve">
<g>
	
		<radialGradient id="SVGID_1_" cx="66.2002" cy="96.2998" r="179.4" gradientTransform="matrix(1 0 0 0.3637 0 61.2744)" gradientUnits="userSpaceOnUse">
		<stop  offset="0" style="stop-color:#040404"/>
		<stop  offset="0.3216" style="stop-color:#040404;stop-opacity:0.498"/>
		<stop  offset="0.4431" style="stop-color:#030303;stop-opacity:0"/>
		<stop  offset="1" style="stop-color:#000000;stop-opacity:0"/>
	</radialGradient>
	<path fill-rule="evenodd" clip-rule="evenodd" fill="url(#SVGID_1_)" d="M108.4,96.9c1.7-0.4,3.4-0.9,4.9-1.4
		c7.2-2.4,11.4-5.1,12.6-8c0.2-0.1,0.3-0.2,0.4-0.2v16.4l-1.4,2l0,0.1c-0.4,0.5-0.9,1-1.5,1.5c-0.6,0.5-1.3,1-2.3,1.5
		c-2.2,1.2-5.2,2.4-8.9,3.7c-1.3,0.4-2.6,0.8-4,1.2c-11.8,3.1-26,4.7-42.8,4.7c-13.5,0-25.5-1-35.8-3c-1.2-0.3-2.4-0.5-3.6-0.8
		c-1.1-0.4-2.2-0.7-3.4-0.9c-1.5-0.4-2.8-0.8-3.9-1.2h-0.3c-6.7-2.4-11.1-4.6-13-6.8c-0.5-0.5-0.8-1-0.9-1.6c0-0.1,0-0.2,0-0.3
		c-0.1-0.2-0.1-0.3-0.1-0.4v-0.9V85.8c0.1,3.7,4.5,6.9,13,9.8c1.4,0.5,2.9,1,4.6,1.4c12,3.2,26.4,4.8,43.2,4.8
		C82.2,101.8,96.5,100.1,108.4,96.9z"/>
	<g>
		<path fill-rule="evenodd" clip-rule="evenodd" fill="#46515A" d="M126.3,84.4v0.2v21.6c0.5,3-4.7,6.3-15.6,10
			c-10.9,3.7-25.1,5.5-42.5,5.6c-17.4,0.1-32.9-1.8-46.3-5.5C8.4,112.5,2.5,108.7,4,104.8v-0.3H3.9c-0.1-0.2-0.1,0.1-0.2,1.1V84.6
			v-0.2v-0.2c0.3-3.2,6.3-5.6,18-7.4C33.5,75,48,74,65,74c17-0.1,31.5,0.8,43.4,2.7C120.1,78.6,126.1,81.1,126.3,84.4z"/>
	</g>
	<g>
		
			<radialGradient id="SVGID_2_" cx="66.2002" cy="96.2998" r="179.4" gradientTransform="matrix(1 0 0 0.3637 0 61.2744)" gradientUnits="userSpaceOnUse">
			<stop  offset="0" style="stop-color:#040404"/>
			<stop  offset="0.3216" style="stop-color:#040404;stop-opacity:0.498"/>
			<stop  offset="0.4431" style="stop-color:#030303;stop-opacity:0"/>
			<stop  offset="1" style="stop-color:#000000;stop-opacity:0"/>
		</radialGradient>
		<path fill-rule="evenodd" clip-rule="evenodd" fill="url(#SVGID_2_)" d="M108.4,96.9c1.7-0.4,3.4-0.9,4.9-1.4
			c7.2-2.4,11.4-5.1,12.6-8c0.2-0.1,0.3-0.2,0.4-0.2v16.4l-1.4,2l0,0.1c-0.4,0.5-0.9,1-1.5,1.5c-0.6,0.5-1.3,1-2.3,1.5
			c-2.2,1.2-5.2,2.4-8.9,3.7c-1.3,0.4-2.6,0.8-4,1.2c-11.8,3.1-26,4.7-42.8,4.7c-13.5,0-25.5-1-35.8-3c-1.2-0.3-2.4-0.5-3.6-0.8
			c-1.1-0.4-2.2-0.7-3.4-0.9c-1.5-0.4-2.8-0.8-3.9-1.2h-0.3c-6.7-2.4-11.1-4.6-13-6.8c-0.5-0.5-0.8-1-0.9-1.6c0-0.1,0-0.2,0-0.3
			c-0.1-0.2-0.1-0.3-0.1-0.4v-0.9V85.8c0.1,3.7,4.5,6.9,13,9.8c1.4,0.5,2.9,1,4.6,1.4c12,3.2,26.4,4.8,43.2,4.8
			C82.2,101.8,96.5,100.1,108.4,96.9z"/>
		<g>
			<linearGradient id="SVGID_3_" gradientUnits="userSpaceOnUse" x1="66.6504" y1="96.75" x2="66.6504" y2="132.05">
				<stop  offset="0" style="stop-color:#000000;stop-opacity:0.9922"/>
				<stop  offset="1" style="stop-color:#FFFFFF;stop-opacity:0"/>
			</linearGradient>
			<path fill-rule="evenodd" clip-rule="evenodd" fill="url(#SVGID_3_)" d="M66.7,92.3c15.4,0,28.6,2.2,39.4,6.5
				c10.9,4.5,16.4,9.8,16.4,16s-5.5,11.5-16.4,16c-10.9,4.4-24,6.5-39.4,6.5c-15.4,0-28.6-2.2-39.5-6.5c-10.9-4.4-16.4-9.8-16.4-16
				s5.4-11.5,16.4-16C38.1,94.4,51.3,92.3,66.7,92.3z"/>
		</g>
		<g>
			<g>
				<linearGradient id="SVGID_4_" gradientUnits="userSpaceOnUse" x1="3.6499" y1="103.0518" x2="126.3789" y2="103.0518">
					<stop  offset="0" style="stop-color:#383C45"/>
					<stop  offset="0.2431" style="stop-color:#37414A"/>
					<stop  offset="0.6118" style="stop-color:#5E6C77"/>
					<stop  offset="0.8" style="stop-color:#39464F"/>
					<stop  offset="1" style="stop-color:#373C45"/>
				</linearGradient>
				<path fill-rule="evenodd" clip-rule="evenodd" fill="url(#SVGID_4_)" d="M108.3,92.6c1.8-0.3,3.4-0.7,5-1.1
					c8.6-2.1,13-4.5,13.1-7.3v22c0.5,3-4.7,6.3-15.6,10c-10.9,3.7-25.1,5.5-42.5,5.6c-17.4,0.1-32.9-1.8-46.3-5.5
					C8.4,112.5,2.5,108.7,4,104.8v-0.3H3.9c-0.1-0.2-0.1,0.1-0.2,1.1V84.3c0.1,2.8,4.5,5.2,13.1,7.3c1.4,0.4,3,0.8,4.7,1.1
					C33.5,95,48,96.2,65,96.2C81.9,96.2,96.4,95,108.3,92.6z M4,106.9v-0.3H3.9C3.9,106.7,3.9,106.8,4,106.9z"/>
				<linearGradient id="SVGID_5_" gradientUnits="userSpaceOnUse" x1="3.6123" y1="106.75" x2="126.2873" y2="106.75">
					<stop  offset="0" style="stop-color:#383C45"/>
					<stop  offset="0.2431" style="stop-color:#37414A"/>
					<stop  offset="0.6118" style="stop-color:#5E6C77"/>
					<stop  offset="0.8" style="stop-color:#39464F"/>
					<stop  offset="1" style="stop-color:#373C45"/>
				</linearGradient>
				<path fill-rule="evenodd" clip-rule="evenodd" fill="url(#SVGID_5_)" d="M4,106.9c-0.1-0.1-0.1-0.2-0.1-0.3H4V106.9z"/>
			</g>
			<g>
				<linearGradient id="SVGID_6_" gradientUnits="userSpaceOnUse" x1="64.9995" y1="76.4248" x2="64.9995" y2="93.5748">
					<stop  offset="7.843138e-003" style="stop-color:#22333B"/>
					<stop  offset="1" style="stop-color:#4A545D"/>
				</linearGradient>
				<path fill-rule="evenodd" clip-rule="evenodd" fill="url(#SVGID_6_)" d="M108.3,92.8c-11.9,2.4-26.4,3.6-43.3,3.6
					c-16.9,0-31.4-1.2-43.5-3.6c-1.7-0.3-3.3-0.6-4.7-1c-8.7-2.1-13-4.5-13.1-7.2v-0.2c0.1-3.2,6.1-5.8,18-7.6C33.5,75,48,74,65,74
					c17-0.1,31.5,0.8,43.4,2.7c11.9,1.9,17.9,4.5,18,7.8v0.1c-0.1,2.7-4.5,5.1-13.1,7.2C111.7,92.2,110.1,92.5,108.3,92.8z"/>
			</g>
		</g>
		<g>
			<radialGradient id="SVGID_7_" cx="64.25" cy="99.2998" r="65.5179" gradientUnits="userSpaceOnUse">
				<stop  offset="0" style="stop-color:#FFFFFF;stop-opacity:0.498"/>
				<stop  offset="0.9804" style="stop-color:#FAFAFA;stop-opacity:0"/>
			</radialGradient>
			<path fill-rule="evenodd" clip-rule="evenodd" fill="url(#SVGID_7_)" d="M116.9,90.8c-4.3,1.5-7.3,2.5-9,3
				c-12.1,3.2-26.7,4.8-43.8,4.8c-17,0-31.6-1.6-43.8-4.8c-1.8-0.5-3.4-0.9-4.8-1.4C8.3,89.7,4.1,86.5,3,83v-0.8l0,0.1
				c1.6,2,6.1,4.5,13.4,7.5h0.1c1.3,0.5,2.8,1,4.6,1.5c11.8,3.2,26.2,4.8,43,4.8c16.9,0,31.3-1.6,43.1-4.8c1.7-0.5,3.3-1,4.8-1.5
				c6.4-2.2,10.3-3.9,11.7-5.3c0.8-0.8,1.3-1.3,1.7-1.7l0.1,0.3C123.9,86.7,121.1,89.2,116.9,90.8z"/>
			<radialGradient id="SVGID_8_" cx="64.9502" cy="95.2998" r="65.625" gradientUnits="userSpaceOnUse">
				<stop  offset="0" style="stop-color:#FFFFFF;stop-opacity:0.498"/>
				<stop  offset="0.9804" style="stop-color:#FAFAFA;stop-opacity:0"/>
			</radialGradient>
			<polygon fill-rule="evenodd" clip-rule="evenodd" fill="url(#SVGID_8_)" points="3.9,79.9 3.9,81.3 3.8,81.2 3.8,79.9 			"/>
			<g>
				<path fill-rule="evenodd" clip-rule="evenodd" fill="#233D49" d="M29,120c-1.2-0.3-2.5-0.5-3.7-0.8c-1.4-0.4-2.8-0.7-4.1-1.1
					c-1.2-0.3-2.4-0.6-3.5-0.9c-0.2-0.1-0.4-0.2-0.6-0.3c-6.9-2.3-11.4-4.8-13.5-7.6c-0.4-0.6-0.6-1.2-0.6-1.7
					c-0.1-0.6-0.1-1.2,0.1-1.9c0.1-0.4,0.3-0.8,0.5-1.3c-0.1,0.4,0,0.9,0.1,1.3c0,0.1,0,0.2,0,0.3c0.1,0.5,0.4,1,0.9,1.5
					c1.9,2.2,6.2,4.4,13,6.8H18c1.1,0.4,2.4,0.8,3.9,1.2c1.1,0.2,2.3,0.5,3.4,0.9c1.2,0.3,2.4,0.5,3.7,0.8c10.4,2,22.4,3,36,3
					c16.9,0,31.3-1.6,43-4.7c1.4-0.4,2.8-0.8,4.1-1.2c3.7-1.2,6.7-2.5,9-3.7c1-0.5,1.7-1,2.3-1.5c0.6-0.4,1.1-0.9,1.5-1.4l0-0.1
					l1.4-2c1.1,1,1.1,2.3,0,3.7c-0.2,0.2-0.4,0.4-0.7,0.8c-2.3,2.8-8.3,5.5-18.1,8.3c-11.8,2.9-26,4.4-42.6,4.4
					C51.4,123,39.4,122,29,120z"/>
			</g>
		</g>
		<g>
			
				<radialGradient id="SVGID_9_" cx="57.0078" cy="103.748" r="16.9561" gradientTransform="matrix(0.9948 -0.1015 8.094040e-002 0.2244 27.8794 77.3005)" gradientUnits="userSpaceOnUse">
				<stop  offset="0" style="stop-color:#FFFFFF"/>
				<stop  offset="0.1098" style="stop-color:#FFFFFF"/>
				<stop  offset="0.3176" style="stop-color:#FEFEFE;stop-opacity:0.8824"/>
				<stop  offset="0.4902" style="stop-color:#FBFBFB;stop-opacity:0.498"/>
				<stop  offset="0.7373" style="stop-color:#F9F9F9;stop-opacity:0.1059"/>
				<stop  offset="1" style="stop-color:#F6F6F6;stop-opacity:0"/>
			</radialGradient>
			<path fill-rule="evenodd" clip-rule="evenodd" fill="url(#SVGID_9_)" d="M113,92.2c0.5,1.6-1.1,3-4.8,4.3
				c-3.5,1.2-8,2.2-13.5,2.8c-5.5,0.5-10.5,0.6-15,0.1c-4.3-0.6-6.7-1.6-7.2-3.1c-0.5-1.4,1.1-2.8,4.7-4.1c3.8-1.5,8.4-2.5,13.8-3
				c5.6-0.5,10.5-0.5,14.7,0C110.1,89.8,112.5,90.8,113,92.2z"/>
		</g>
	</g>
</g>
</svg>
