<?xml version="1.0" encoding="utf-8"?>
<!-- Generator: Adobe Illustrator 16.0.0, SVG Export Plug-In . SVG Version: 6.00 Build 0)  -->
<!DOCTYPE svg PUBLIC "-//W3C//DTD SVG 1.1//EN" "http://www.w3.org/Graphics/SVG/1.1/DTD/svg11.dtd">
<svg version="1.1" id="Layer_1" xmlns="http://www.w3.org/2000/svg" xmlns:xlink="http://www.w3.org/1999/xlink" x="0px" y="0px"
	 width="130px" height="140px" viewBox="0 0 130 140" enable-background="new 0 0 130 140" xml:space="preserve">
<g>
	<g>
		<linearGradient id="SVGID_1_" gradientUnits="userSpaceOnUse" x1="66.1758" y1="98.5254" x2="66.1758" y2="137.3754">
			<stop  offset="0" style="stop-color:#000000;stop-opacity:0.9922"/>
			<stop  offset="1" style="stop-color:#FFFFFF;stop-opacity:0"/>
		</linearGradient>
		<path fill-rule="evenodd" clip-rule="evenodd" fill="url(#SVGID_1_)" d="M66.7,92.3c15.4,0,28.6,2.2,39.4,6.5
			c5,2,8.9,4.3,11.6,6.6c-1.3,0.6-2.8,1.1-4.5,1.7c-1.5,0.6-3.2,1-5,1.5c-11.9,3.2-26.4,4.8-43.3,4.8c-16.9,0-31.4-1.6-43.5-4.8
			c-1.7-0.4-3.3-0.9-4.7-1.5c-0.8-0.3-1.5-0.5-2.1-0.7c2.7-2.8,6.9-5.3,12.6-7.6C38.1,94.4,51.3,92.3,66.7,92.3z"/>
		<g>
			<path fill-rule="evenodd" clip-rule="evenodd" fill="#46515A" d="M126.3,88.3V115c-0.9,2-7.1,4.8-18.6,8.3
				c-11.6,3.5-26,5.3-43.1,5.5c-17.1,0.2-31.4-1.5-43-5.2C10,119.9,4,117,3.6,115V88.2c0.1-4.4,6.1-7.8,17.9-10.3
				c11.8-2.4,26.2-3.7,43.1-3.8c17-0.1,31.5,1.2,43.6,3.7C120.2,80.3,126.3,83.8,126.3,88.3z"/>
		</g>
	</g>
	<g>
		<linearGradient id="SVGID_2_" gradientUnits="userSpaceOnUse" x1="66.1758" y1="98.5254" x2="66.1758" y2="137.3754">
			<stop  offset="0" style="stop-color:#000000;stop-opacity:0.9922"/>
			<stop  offset="1" style="stop-color:#FFFFFF;stop-opacity:0"/>
		</linearGradient>
		<path fill-rule="evenodd" clip-rule="evenodd" fill="url(#SVGID_2_)" d="M66.7,92.3c15.4,0,28.6,2.2,39.4,6.5
			c5,2,8.9,4.3,11.6,6.6c-1.3,0.6-2.8,1.1-4.5,1.7c-1.5,0.6-3.2,1-5,1.5c-11.9,3.2-26.4,4.8-43.3,4.8c-16.9,0-31.4-1.6-43.5-4.8
			c-1.7-0.4-3.3-0.9-4.7-1.5c-0.8-0.3-1.5-0.5-2.1-0.7c2.7-2.8,6.9-5.3,12.6-7.6C38.1,94.4,51.3,92.3,66.7,92.3z"/>
		<g>
			
				<radialGradient id="SVGID_3_" cx="65.75" cy="107.8496" r="180.6" gradientTransform="matrix(1 0 0 0.3613 0 68.884)" gradientUnits="userSpaceOnUse">
				<stop  offset="0" style="stop-color:#040404"/>
				<stop  offset="0.3216" style="stop-color:#040404;stop-opacity:0.498"/>
				<stop  offset="0.4431" style="stop-color:#030303;stop-opacity:0"/>
				<stop  offset="1" style="stop-color:#000000;stop-opacity:0"/>
			</radialGradient>
			<path fill-rule="evenodd" clip-rule="evenodd" fill="url(#SVGID_3_)" d="M120.3,120.7c-2.2,1.1-4.9,2.2-8.3,3.3
				c-1.3,0.3-2.7,0.7-4.1,1.2c-11.8,3.1-26.2,4.7-43,4.7c-13.6,0-25.6-1-36-3c-1.2-0.3-2.5-0.5-3.7-0.8c-1.1-0.4-2.3-0.7-3.4-0.9
				c-1.5-0.5-2.8-0.9-3.9-1.2h-0.3c-1-0.4-1.9-0.7-2.8-1c-5.2-2-8.6-3.9-10.2-5.8c-0.5-0.5-0.8-1-0.9-1.5c0-0.1,0-0.2,0-0.3
				c-0.1-0.2-0.1-0.3-0.1-0.4v-0.9V97.3c0.1,3.4,3.8,6.4,11,9c0.7,0.2,1.4,0.4,2.1,0.7c1.4,0.6,3,1,4.7,1.5
				c12,3.2,26.5,4.8,43.5,4.8c17,0,31.4-1.6,43.3-4.8c1.8-0.4,3.4-0.9,5-1.5c1.6-0.5,3.1-1.1,4.5-1.7c4.5-2,7.3-4.1,8.2-6.4
				c0.2-0.1,0.3-0.2,0.4-0.2v16.5l-1.4,2l0,0.1c-0.4,0.5-0.9,1-1.5,1.4c-0.6,0.5-1.3,1-2.3,1.5C120.9,120.4,120.6,120.6,120.3,120.7
				z"/>
			<linearGradient id="SVGID_4_" gradientUnits="userSpaceOnUse" x1="67.625" y1="98.5254" x2="67.625" y2="137.3754">
				<stop  offset="0" style="stop-color:#000000;stop-opacity:0.9922"/>
				<stop  offset="1" style="stop-color:#FFFFFF;stop-opacity:0"/>
			</linearGradient>
			<path fill-rule="evenodd" clip-rule="evenodd" fill="url(#SVGID_4_)" d="M120.3,120.7c-2.5,3.5-7.2,6.7-14.3,9.5
				c-10.9,4.3-24,6.5-39.4,6.5c-15.4,0-28.6-2.2-39.5-6.5c-5.5-2.2-9.6-4.6-12.3-7.3c0.9,0.3,1.8,0.7,2.8,1H18
				c1.1,0.3,2.4,0.7,3.9,1.2c1.1,0.2,2.3,0.5,3.4,0.9c1.2,0.3,2.4,0.5,3.7,0.8c10.4,2,22.4,3,36,3c16.9,0,31.3-1.6,43-4.7
				c1.4-0.5,2.8-0.9,4.1-1.2C115.4,122.9,118.2,121.8,120.3,120.7z"/>
		</g>
		<g>
			<linearGradient id="SVGID_5_" gradientUnits="userSpaceOnUse" x1="64.9995" y1="77.1875" x2="64.9995" y2="100.8125">
				<stop  offset="7.843138e-003" style="stop-color:#22333B"/>
				<stop  offset="1" style="stop-color:#4A545D"/>
			</linearGradient>
			<path fill-rule="evenodd" clip-rule="evenodd" fill="url(#SVGID_5_)" d="M126.3,88.5c-0.1,3.7-4.5,7-13.1,9.9
				c-1.5,0.5-3.2,1-5,1.4c-11.9,3.3-26.4,4.9-43.3,4.9c-16.9,0-31.4-1.6-43.5-4.9c-1.7-0.4-3.3-0.9-4.7-1.4
				c-8.7-2.9-13-6.2-13.1-9.9v-0.3c0.1-4.4,6.1-7.8,17.9-10.3c11.8-2.4,26.2-3.7,43.1-3.8c17-0.1,31.5,1.2,43.6,3.7
				c12,2.5,18.1,6,18.2,10.5V88.5z"/>
			<linearGradient id="SVGID_6_" gradientUnits="userSpaceOnUse" x1="3.6499" y1="108.583" x2="126.3496" y2="108.583">
				<stop  offset="0" style="stop-color:#383C45"/>
				<stop  offset="0.2431" style="stop-color:#37414A"/>
				<stop  offset="0.6118" style="stop-color:#5E6C77"/>
				<stop  offset="0.8" style="stop-color:#39464F"/>
				<stop  offset="1" style="stop-color:#373C45"/>
			</linearGradient>
			<path fill-rule="evenodd" clip-rule="evenodd" fill="url(#SVGID_6_)" d="M3.6,88.5c0.1,3.7,4.5,7,13.1,9.9c1.4,0.5,3,1,4.7,1.4
				c12,3.3,26.5,4.9,43.5,4.9c17,0,31.4-1.6,43.3-4.9c1.8-0.4,3.4-0.9,5-1.4c8.6-2.9,13-6.2,13.1-9.9V115c-0.9,2-7.1,4.8-18.6,8.3
				c-11.6,3.5-26,5.3-43.1,5.5c-17.1,0.2-31.4-1.5-43-5.2C10,119.9,4,117,3.6,115V88.5z"/>
		</g>
		<g>
			<radialGradient id="SVGID_7_" cx="64.9502" cy="103.8496" r="65.625" gradientUnits="userSpaceOnUse">
				<stop  offset="0" style="stop-color:#FFFFFF;stop-opacity:0.498"/>
				<stop  offset="0.9804" style="stop-color:#FAFAFA;stop-opacity:0"/>
			</radialGradient>
			<path fill-rule="evenodd" clip-rule="evenodd" fill="url(#SVGID_7_)" d="M108,95.8c1.7-0.5,3.3-1,4.8-1.4
				c6.4-2.2,10.3-4,11.7-5.4c0.8-0.8,1.3-1.3,1.7-1.7l0.1,0.3c-1.6,3.6-4.5,6.1-8.6,7.7c-4.3,1.5-7.3,2.5-9,3
				c-12.1,3.2-26.7,4.8-43.8,4.8c-17,0-31.6-1.6-43.8-4.8c-1.8-0.5-3.4-0.9-4.8-1.4c-7.3-2.7-11.5-5.8-12.6-9.4v-0.8l0.1,0.2
				c1.6,2,6,4.5,13.4,7.5h0.1c1.3,0.5,2.9,0.9,4.5,1.4c11.8,3.2,26.2,4.8,43.1,4.8C81.8,100.6,96.2,99,108,95.8z"/>
			<radialGradient id="SVGID_8_" cx="64.9502" cy="103.5498" r="65.625" gradientUnits="userSpaceOnUse">
				<stop  offset="0" style="stop-color:#FFFFFF;stop-opacity:0.498"/>
				<stop  offset="0.9804" style="stop-color:#FAFAFA;stop-opacity:0"/>
			</radialGradient>
			<polygon fill-rule="evenodd" clip-rule="evenodd" fill="url(#SVGID_8_)" points="3.9,89.6 3.8,89.5 3.8,88.2 3.9,88.2 			"/>
			<path fill-rule="evenodd" clip-rule="evenodd" fill="#233D49" d="M25.3,122.2c1.2,0.3,2.4,0.5,3.7,0.8c10.4,2,22.4,3,36,3
				c16.9,0,31.3-1.5,43-4.7c1.4-0.5,2.8-0.9,4.1-1.3c3.7-1.2,6.7-2.4,9-3.6c1-0.5,1.7-1,2.3-1.5c0.6-0.4,1.1-0.9,1.4-1.5l0.1-0.1
				l1.4-2c1.1,1,1.1,2.3,0,3.7c-0.2,0.2-0.4,0.4-0.7,0.8c-2.3,2.8-8.3,5.6-18.1,8.4c-11.8,2.9-26,4.4-42.6,4.4c-13.6,0-25.6-1-36-3
				c-1.2-0.3-2.5-0.5-3.7-0.8c-1.4-0.4-2.8-0.7-4.1-1.1c-1.2-0.3-2.4-0.5-3.5-0.8c-0.2-0.1-0.4-0.2-0.6-0.3
				c-6.9-2.2-11.4-4.8-13.5-7.5c-0.4-0.6-0.6-1.2-0.6-1.7c-0.1-0.6-0.1-1.2,0.1-1.8c0.1-0.4,0.3-0.8,0.5-1.3c-0.1,0.5,0,0.9,0.1,1.3
				c0,0.1,0,0.2,0,0.3c0.1,0.6,0.4,1.1,0.9,1.6c1.9,2.2,6.2,4.4,13,6.8H18c1.1,0.4,2.4,0.8,3.9,1.3C23,121.5,24.2,121.8,25.3,122.2z
				"/>
		</g>
		<g>
			
				<radialGradient id="SVGID_9_" cx="54.7651" cy="108.4131" r="16.9565" gradientTransform="matrix(0.9948 -0.1015 8.094040e-002 0.2244 29.133 80.7763)" gradientUnits="userSpaceOnUse">
				<stop  offset="0" style="stop-color:#FFFFFF"/>
				<stop  offset="0.1098" style="stop-color:#FFFFFF"/>
				<stop  offset="0.3176" style="stop-color:#FEFEFE;stop-opacity:0.8824"/>
				<stop  offset="0.4902" style="stop-color:#FBFBFB;stop-opacity:0.498"/>
				<stop  offset="0.7373" style="stop-color:#F9F9F9;stop-opacity:0.1098"/>
				<stop  offset="1" style="stop-color:#F6F6F6;stop-opacity:0"/>
			</radialGradient>
			<path fill-rule="evenodd" clip-rule="evenodd" fill="url(#SVGID_9_)" d="M112.5,96.9c0.5,1.6-1.1,3-4.9,4.3
				c-3.5,1.2-8,2.1-13.5,2.7c-5.5,0.6-10.5,0.6-15,0.1c-4.3-0.6-6.7-1.6-7.1-3.1c-0.5-1.4,1.1-2.8,4.6-4.1c3.8-1.5,8.4-2.5,13.9-3
				c5.6-0.6,10.5-0.6,14.6,0C109.5,94.5,112,95.5,112.5,96.9z"/>
		</g>
	</g>
</g>
</svg>
