<?xml version="1.0" encoding="utf-8"?>
<!-- Generator: Adobe Illustrator 16.0.0, SVG Export Plug-In . SVG Version: 6.00 Build 0)  -->
<!DOCTYPE svg PUBLIC "-//W3C//DTD SVG 1.1//EN" "http://www.w3.org/Graphics/SVG/1.1/DTD/svg11.dtd">
<svg version="1.1" id="Layer_1" xmlns="http://www.w3.org/2000/svg" xmlns:xlink="http://www.w3.org/1999/xlink" x="0px" y="0px"
	 width="130px" height="140px" viewBox="0 0 130 140" enable-background="new 0 0 130 140" xml:space="preserve">
<g>
	<g>
		<g>
			<linearGradient id="SVGID_1_" gradientUnits="userSpaceOnUse" x1="66.6504" y1="91.4375" x2="66.6504" y2="116.0625">
				<stop  offset="0" style="stop-color:#000000;stop-opacity:0.9922"/>
				<stop  offset="1" style="stop-color:#FFFFFF;stop-opacity:0"/>
			</linearGradient>
			<path fill-rule="evenodd" clip-rule="evenodd" fill="url(#SVGID_1_)" d="M10.9,115.7c0-6.5,5.4-12,16.4-16.6
				c10.9-4.6,24-6.8,39.5-6.8c15.4,0,28.6,2.3,39.4,6.8c10.9,4.6,16.4,10.1,16.4,16.6s-5.5,12-16.4,16.5c-10.9,4.6-24,6.8-39.4,6.8
				c-15.4,0-28.6-2.3-39.5-6.8C16.3,127.7,10.9,122.2,10.9,115.7z"/>
		</g>
		<g>
			<g>
				<linearGradient id="SVGID_2_" gradientUnits="userSpaceOnUse" x1="3.9624" y1="49.3481" x2="126.6374" y2="49.3481">
					<stop  offset="0" style="stop-color:#383C45"/>
					<stop  offset="0.2431" style="stop-color:#37414A"/>
					<stop  offset="0.6118" style="stop-color:#5E6C77"/>
					<stop  offset="0.8" style="stop-color:#39464F"/>
					<stop  offset="1" style="stop-color:#373C45"/>
				</linearGradient>
				<path fill-rule="evenodd" clip-rule="evenodd" fill="url(#SVGID_2_)" d="M126.7,45v1.5l0.9,21.3C112.9,54.4,94,48,70.8,48.5
					c-29.1-0.9-51.4,6.5-67,22.1v-19c0-0.9,0.1-1.6,0.1-2.3H3.8c0.5-4.2,1.9-6.7,4-7.6c5.9-5.3,13.2-8.8,21.8-10.7
					c8.6-1.9,21.6-2.8,39-2.8c14.9,0.1,27.5,1.5,37.5,4.1c1.7,0.5,5.3,2,10.8,4.6c5.2,2.5,8.5,5.1,9.8,7.8c0.1,0.1,0.1,0.2,0.1,0.3
					H126.7z"/>
			</g>
			<g>
				<linearGradient id="SVGID_3_" gradientUnits="userSpaceOnUse" x1="66.0752" y1="72.7373" x2="66.0752" y2="46.9623">
					<stop  offset="0" style="stop-color:#23343C"/>
					<stop  offset="1" style="stop-color:#1E1E1E"/>
				</linearGradient>
				<path fill-rule="evenodd" clip-rule="evenodd" fill="url(#SVGID_3_)" d="M11.3,60.9c1.8-1.3,4-2.5,6.6-3.7
					c0.6-0.4,1.2-0.7,1.9-0.9c0.8-0.4,1.8-0.8,2.8-1.1c12-4.6,26.5-7,43.5-7c16.9,0,31.4,2.3,43.3,7c1.2,0.4,2.3,0.8,3.4,1.3
					c0.5,0.2,1,0.4,1.5,0.7c2.6,1.2,4.8,2.5,6.7,3.8c-2.9,1.9-6.8,3.6-11.6,5.1C97.4,69.8,83,71.5,66,71.3c-17-0.1-31.5-2-43.4-5.6
					C17.9,64.4,14.1,62.7,11.3,60.9z"/>
				
					<linearGradient id="SVGID_4_" gradientUnits="userSpaceOnUse" x1="-87.0283" y1="66.0278" x2="-53.8033" y2="66.0278" gradientTransform="matrix(3.009782e-005 -1 1 -1.000000e-003 -2.391617e-005 9.336427e-005)">
					<stop  offset="7.843138e-003" style="stop-color:#22333B"/>
					<stop  offset="1" style="stop-color:#4A545D"/>
				</linearGradient>
				<path fill-rule="evenodd" clip-rule="evenodd" fill="url(#SVGID_4_)" d="M120.9,61c4.2,3.1,6.4,6.4,6.4,10.1v0.1
					c0,0.5,0,0.9-0.1,1.3c-0.8,5.9-6.7,10.5-17.9,14C97.4,90.1,83,91.9,66,91.7c-17-0.1-31.5-2-43.4-5.7
					C11.4,82.8,5.4,78.2,4.8,72.5c0-0.3,0-0.6,0-1v-0.4c0-3.7,2.2-7.1,6.5-10.2c2.9,1.8,6.7,3.5,11.4,4.9C34.5,69.4,49,71.2,66,71.3
					c17,0.2,31.4-1.5,43.3-5.2C114.2,64.6,118,62.9,120.9,61z"/>
			</g>
		</g>
		<g>
			
				<radialGradient id="SVGID_5_" cx="66" cy="54.3999" r="65.625" gradientTransform="matrix(1 0 0 -1 0 108.7998)" gradientUnits="userSpaceOnUse">
				<stop  offset="0" style="stop-color:#FFFFFF;stop-opacity:0.498"/>
				<stop  offset="0.9804" style="stop-color:#FAFAFA;stop-opacity:0"/>
			</radialGradient>
			<polygon fill-rule="evenodd" clip-rule="evenodd" fill="url(#SVGID_5_)" points="4.8,69.8 4.8,68.5 4.9,68.4 4.9,69.8 			"/>
			<path fill-rule="evenodd" clip-rule="evenodd" fill="none" d="M5,49c0-0.1,0-0.3,0-0.5c0-5.6,5.9-10.4,17.7-14.4
				c11.8-3.9,26-5.9,42.6-5.9c16.6,0,30.8,2,42.6,5.9c11.8,4,17.7,8.8,17.7,14.4c0,0.2,0,0.3,0,0.5"/>
			<g>
				
					<path fill-rule="evenodd" clip-rule="evenodd" fill="none" stroke="#233D49" stroke-width="1.5" stroke-linecap="round" stroke-linejoin="round" stroke-miterlimit="3" d="
					M127.2,70c0,5.9-6,11-17.9,15.1c-12,4.2-26.5,6.3-43.3,6.3c-16.9,0-31.3-2.1-43.3-6.3C10.7,80.9,4.7,75.8,4.7,70
					c0-5.9,6-11,17.9-15.2c11.9-4.2,26.4-6.3,43.3-6.3c16.9,0,31.3,2.1,43.3,6.3C121.2,59,127.2,64,127.2,70z"/>
			</g>
		</g>
		<g>
			
				<radialGradient id="SVGID_6_" cx="107.5234" cy="12.4063" r="11.9279" gradientTransform="matrix(0.9813 0.1927 0.1005 -0.2157 -6.6452 14.2591)" gradientUnits="userSpaceOnUse">
				<stop  offset="0" style="stop-color:#FFFFFF"/>
				<stop  offset="0.1098" style="stop-color:#FFFFFF"/>
				<stop  offset="0.3176" style="stop-color:#FEFEFE;stop-opacity:0.8824"/>
				<stop  offset="0.4902" style="stop-color:#FBFBFB;stop-opacity:0.498"/>
				<stop  offset="0.7373" style="stop-color:#F9F9F9;stop-opacity:0.1059"/>
				<stop  offset="1" style="stop-color:#F6F6F6;stop-opacity:0"/>
			</radialGradient>
			<path fill-rule="evenodd" clip-rule="evenodd" fill="url(#SVGID_6_)" d="M110.8,32.1c2.5,1.1,3.6,2.2,3.2,3.3
				c-0.5,1-2.3,1.5-5.5,1.6c-2.8,0.1-6.3-0.2-10.3-0.9c-3.8-0.7-6.9-1.7-9.4-2.9c-2.4-1.2-3.5-2.3-3.1-3.2c0.4-1,2.2-1.5,5.2-1.8
				c3.2,0,6.8,0.4,10.5,1.1C105.4,30.2,108.5,31.1,110.8,32.1z"/>
		</g>
	</g>
	<g>
		<g>
			<linearGradient id="SVGID_7_" gradientUnits="userSpaceOnUse" x1="66.6504" y1="91.4375" x2="66.6504" y2="116.0625">
				<stop  offset="0" style="stop-color:#000000;stop-opacity:0.9922"/>
				<stop  offset="1" style="stop-color:#FFFFFF;stop-opacity:0"/>
			</linearGradient>
			<path fill-rule="evenodd" clip-rule="evenodd" fill="url(#SVGID_7_)" d="M27.2,99.1c10.9-4.6,24-6.8,39.5-6.8
				c15.4,0,28.6,2.3,39.4,6.8c10.9,4.6,16.4,10.1,16.4,16.6s-5.5,12-16.4,16.5c-10.9,4.6-24,6.8-39.4,6.8c-15.4,0-28.6-2.3-39.5-6.8
				c-10.9-4.6-16.4-10.1-16.4-16.5S16.3,103.7,27.2,99.1z"/>
		</g>
		<g>
			<g>
				<linearGradient id="SVGID_8_" gradientUnits="userSpaceOnUse" x1="3.9624" y1="49.3481" x2="126.6374" y2="49.3481">
					<stop  offset="0" style="stop-color:#383C45"/>
					<stop  offset="0.2431" style="stop-color:#37414A"/>
					<stop  offset="0.6118" style="stop-color:#5E6C77"/>
					<stop  offset="0.8" style="stop-color:#39464F"/>
					<stop  offset="1" style="stop-color:#373C45"/>
				</linearGradient>
				<path fill-rule="evenodd" clip-rule="evenodd" fill="url(#SVGID_8_)" d="M126.8,45h-0.1v1.5l0.9,21.3
					C112.9,54.4,94,48,70.8,48.5c-29.1-0.9-51.4,6.5-67,22.1v-19c0-0.9,0.1-1.6,0.1-2.3H3.8c0.5-4.2,1.9-6.7,4-7.6
					c5.9-5.3,13.2-8.8,21.8-10.7c8.6-1.9,21.6-2.8,39-2.8c14.9,0.1,27.5,1.5,37.5,4.1c1.7,0.5,5.3,2,10.8,4.6
					c5.2,2.5,8.5,5.1,9.8,7.8C126.7,44.8,126.8,44.9,126.8,45z"/>
			</g>
			<g>
				<linearGradient id="SVGID_9_" gradientUnits="userSpaceOnUse" x1="66.0752" y1="72.7373" x2="66.0752" y2="46.9623">
					<stop  offset="0" style="stop-color:#23343C"/>
					<stop  offset="1" style="stop-color:#1E1E1E"/>
				</linearGradient>
				<path fill-rule="evenodd" clip-rule="evenodd" fill="url(#SVGID_9_)" d="M11.3,60.9c1.8-1.3,4-2.5,6.6-3.7
					c0.6-0.4,1.2-0.7,1.9-0.9c0.8-0.4,1.8-0.8,2.8-1.1c12-4.6,26.5-7,43.5-7c16.9,0,31.4,2.3,43.3,7c1.2,0.4,2.3,0.8,3.4,1.3
					c0.5,0.2,1,0.4,1.5,0.7c2.6,1.2,4.8,2.5,6.7,3.8c-2.9,1.9-6.8,3.6-11.6,5.1C97.4,69.8,83,71.5,66,71.3c-17-0.1-31.5-2-43.4-5.6
					C17.9,64.4,14.1,62.7,11.3,60.9z"/>
				
					<linearGradient id="SVGID_10_" gradientUnits="userSpaceOnUse" x1="-87.0283" y1="66.0278" x2="-53.8033" y2="66.0278" gradientTransform="matrix(3.009782e-005 -1 1 -1.000000e-003 -2.391617e-005 9.336427e-005)">
					<stop  offset="7.843138e-003" style="stop-color:#22333B"/>
					<stop  offset="1" style="stop-color:#4A545D"/>
				</linearGradient>
				<path fill-rule="evenodd" clip-rule="evenodd" fill="url(#SVGID_10_)" d="M120.9,61c4.2,3.1,6.4,6.4,6.4,10.1v0.1
					c0,0.5,0,0.9-0.1,1.3c-0.8,5.9-6.7,10.5-17.9,14C97.4,90.1,83,91.9,66,91.7c-17-0.1-31.5-2-43.4-5.7
					C11.4,82.8,5.4,78.2,4.8,72.5c0-0.3,0-0.6,0-1v-0.4c0-3.7,2.2-7.1,6.5-10.2c2.9,1.8,6.7,3.5,11.4,4.9C34.5,69.4,49,71.2,66,71.3
					c17,0.2,31.4-1.5,43.3-5.2C114.2,64.6,118,62.9,120.9,61z"/>
			</g>
		</g>
		<g>
			
				<radialGradient id="SVGID_11_" cx="66" cy="54.3999" r="65.625" gradientTransform="matrix(1 0 0 -1 0 108.7998)" gradientUnits="userSpaceOnUse">
				<stop  offset="0" style="stop-color:#FFFFFF;stop-opacity:0.498"/>
				<stop  offset="0.9804" style="stop-color:#FAFAFA;stop-opacity:0"/>
			</radialGradient>
			<polygon fill-rule="evenodd" clip-rule="evenodd" fill="url(#SVGID_11_)" points="4.8,68.5 4.9,68.4 4.9,69.8 4.8,69.8 			"/>
			<path fill-rule="evenodd" clip-rule="evenodd" fill="none" d="M5,49c0-0.1,0-0.3,0-0.5c0-5.6,5.9-10.4,17.7-14.4
				c11.8-3.9,26-5.9,42.6-5.9c16.6,0,30.8,2,42.6,5.9c11.8,4,17.7,8.8,17.7,14.4c0,0.2,0,0.3,0,0.5"/>
			<g>
				
					<path fill-rule="evenodd" clip-rule="evenodd" fill="none" stroke="#233D49" stroke-width="1.5" stroke-linecap="round" stroke-linejoin="round" stroke-miterlimit="3" d="
					M109.3,85.1c-12,4.2-26.5,6.3-43.3,6.3c-16.9,0-31.3-2.1-43.3-6.3C10.7,80.9,4.7,75.8,4.7,70c0-5.9,6-11,17.9-15.2
					c11.9-4.2,26.4-6.3,43.3-6.3c16.9,0,31.3,2.1,43.3,6.3C121.2,59,127.2,64,127.2,70C127.2,75.8,121.2,80.9,109.3,85.1z"/>
			</g>
		</g>
		<g>
			
				<radialGradient id="SVGID_12_" cx="107.5234" cy="12.4063" r="11.9279" gradientTransform="matrix(0.9813 0.1927 0.1005 -0.2157 -6.6452 14.2591)" gradientUnits="userSpaceOnUse">
				<stop  offset="0" style="stop-color:#FFFFFF"/>
				<stop  offset="0.1098" style="stop-color:#FFFFFF"/>
				<stop  offset="0.3176" style="stop-color:#FEFEFE;stop-opacity:0.8824"/>
				<stop  offset="0.4902" style="stop-color:#FBFBFB;stop-opacity:0.498"/>
				<stop  offset="0.7373" style="stop-color:#F9F9F9;stop-opacity:0.1098"/>
				<stop  offset="1" style="stop-color:#F6F6F6;stop-opacity:0"/>
			</radialGradient>
			<path fill-rule="evenodd" clip-rule="evenodd" fill="url(#SVGID_12_)" d="M114,35.4c-0.5,1-2.3,1.5-5.5,1.6
				c-2.8,0.1-6.3-0.2-10.3-0.9c-3.8-0.7-6.9-1.7-9.4-2.9c-2.4-1.2-3.5-2.3-3.1-3.2c0.4-1,2.2-1.5,5.2-1.8c3.2,0,6.8,0.4,10.5,1.1
				c3.8,0.8,6.9,1.7,9.3,2.8C113.4,33.3,114.4,34.4,114,35.4z"/>
		</g>
	</g>
</g>
</svg>
