<?xml version="1.0" encoding="utf-8"?>
<!-- Generator: Adobe Illustrator 16.0.0, SVG Export Plug-In . SVG Version: 6.00 Build 0)  -->
<!DOCTYPE svg PUBLIC "-//W3C//DTD SVG 1.1//EN" "http://www.w3.org/Graphics/SVG/1.1/DTD/svg11.dtd">
<svg version="1.1" id="Layer_1" xmlns="http://www.w3.org/2000/svg" xmlns:xlink="http://www.w3.org/1999/xlink" x="0px" y="0px"
	 width="130px" height="140px" viewBox="0 0 130 140" enable-background="new 0 0 130 140" xml:space="preserve">
<g>
	<g>
		<path fill-rule="evenodd" clip-rule="evenodd" fill="#46515A" d="M123.4,26.9c0.1,0,0.1,0.1,0.1,0.1c1.4,1.6,2.3,3.7,2.5,6.2
			c0.1,5.1,0.1,11.3,0,18.3c-0.1-0.3-0.2-0.6-0.3-0.9c0.3,1.4-0.3,4.6-1.6,9.6c-0.7,4-2.2,7.6-4.5,10.9c-2.9,4.3-7.2,8-12.8,11.1
			c-11.8,6.6-26,9.8-42.8,9.5c-16.8-0.3-31-3.7-42.8-10.2c-11.1-6-17-14.2-17.7-24.6c0-0.5,0-1.1,0-1.7v-0.8c0-2.8,0.4-5.5,1.1-8
			c0,0.1-0.1,0.1-0.1,0.2C5,41,5.8,35.3,7,29.4c2.8-4.8,8.3-9.9,16.5-15.3c8.2-5.4,19.2-8.9,32.9-10.4c1.1-0.1,2.2-0.2,3.3-0.3
			c4.6-0.3,9.1-0.3,13.5,0c10.2,0.7,19.6,3,28,7c3.9,1.8,7.7,3.9,11.6,6.5c3.4,2.3,6.9,5.5,10.5,9.7v0
			C123.3,26.8,123.4,26.8,123.4,26.9z"/>
	</g>
	<g>
		<g>
			<linearGradient id="SVGID_1_" gradientUnits="userSpaceOnUse" x1="66.6504" y1="89.6875" x2="66.6504" y2="110.7125">
				<stop  offset="0" style="stop-color:#000000;stop-opacity:0.9922"/>
				<stop  offset="1" style="stop-color:#FFFFFF;stop-opacity:0"/>
			</linearGradient>
			<path fill-rule="evenodd" clip-rule="evenodd" fill="url(#SVGID_1_)" d="M27.2,99.2c10.9-4.6,24-6.9,39.5-6.9
				c15.4,0,28.6,2.3,39.4,6.9c10.9,4.7,16.4,10.3,16.4,16.8c0,6.6-5.5,12.1-16.4,16.8c-10.9,4.7-24,7-39.4,7
				c-15.4,0-28.6-2.3-39.5-7c-10.9-4.6-16.4-10.2-16.4-16.8C10.9,109.4,16.3,103.8,27.2,99.2z"/>
		</g>
		<g>
			<g>
				<linearGradient id="SVGID_2_" gradientUnits="userSpaceOnUse" x1="123.5254" y1="29.9248" x2="125.9754" y2="29.9248">
					<stop  offset="0" style="stop-color:#263840"/>
					<stop  offset="1" style="stop-color:#1E1E1E"/>
				</linearGradient>
				<path fill-rule="evenodd" clip-rule="evenodd" fill="url(#SVGID_2_)" d="M126.1,33.2l-2.5-3.2l-0.3-3.3v0
					c0.1,0.1,0.2,0.2,0.2,0.3c0.1,0,0.1,0.1,0.1,0.1C125,28.6,125.8,30.7,126.1,33.2z"/>
				<linearGradient id="SVGID_3_" gradientUnits="userSpaceOnUse" x1="3.9624" y1="27.416" x2="126.6374" y2="27.416">
					<stop  offset="0" style="stop-color:#383C45"/>
					<stop  offset="0.2431" style="stop-color:#37414A"/>
					<stop  offset="0.6118" style="stop-color:#5E6C77"/>
					<stop  offset="0.8" style="stop-color:#39464F"/>
					<stop  offset="1" style="stop-color:#373C45"/>
				</linearGradient>
				<path fill-rule="evenodd" clip-rule="evenodd" fill="url(#SVGID_3_)" d="M123.2,26.7l0.3,3.3l2.5,3.2c0.1,5.1,0.1,11.3,0,18.3
					c-1.9-7.9-7.2-15.3-15.9-22.3c-8.7-7-18.6-11.8-29.6-14.5c-11-2.7-24-1.5-39,3.5c-15,5-27.3,14.5-36.8,28.4
					C5,41,5.8,35.3,7,29.4c2.8-4.8,8.3-9.9,16.5-15.3c8.2-5.4,19.2-8.9,32.9-10.4c17-1.5,31.9,0.7,44.8,6.7
					c3.9,1.8,7.7,3.9,11.6,6.5C116.1,19.3,119.6,22.5,123.2,26.7z"/>
			</g>
			<g>
				<linearGradient id="SVGID_4_" gradientUnits="userSpaceOnUse" x1="63.8774" y1="76.7168" x2="65.4754" y2="31.4667">
					<stop  offset="0" style="stop-color:#263840"/>
					<stop  offset="1" style="stop-color:#1E1E1E"/>
				</linearGradient>
				<path fill-rule="evenodd" clip-rule="evenodd" fill="url(#SVGID_4_)" d="M124.3,49.5c-2.7,6.7-9.3,12.3-19.9,16.8
					c-10.6,4.5-24.2,6.9-40.7,7.2C47.2,73.7,33.9,71.2,24,66c-10-5.3-16.2-12.4-18.5-21.4c1.1-3,2.6-5.8,4.8-8.5
					c1.8-2.4,3.9-4.6,6.5-6.8c0.5-0.6,1.1-1.1,1.9-1.5c0.8-0.8,1.7-1.5,2.7-2c11.9-8.4,26.2-12.6,42.9-12.6c16.7,0,31,4.2,42.8,12.6
					c1.2,0.6,2.3,1.4,3.3,2.3c0.6,0.3,1.2,0.7,1.7,1.2c2.5,2.2,4.7,4.5,6.5,6.9C121.5,40.3,123.5,44.8,124.3,49.5z"/>
				
					<linearGradient id="SVGID_5_" gradientUnits="userSpaceOnUse" x1="-83.1016" y1="64.251" x2="-23.1266" y2="64.251" gradientTransform="matrix(1.667362e-005 -1 1 -1.000000e-003 -2.357152e-004 9.336427e-005)">
					<stop  offset="7.843138e-003" style="stop-color:#22333B"/>
					<stop  offset="1" style="stop-color:#4A545D"/>
				</linearGradient>
				<path fill-rule="evenodd" clip-rule="evenodd" fill="url(#SVGID_5_)" d="M124.3,49.5c0.3,1.6,0.4,3.2,0.4,4.9v0.3
					c0,0.8,0,1.5,0,2.1c-0.8,10.6-6.7,19.1-17.7,25.4c-11.8,6.6-26,9.8-42.8,9.5c-16.8-0.3-31-3.7-42.8-10.2
					c-11.1-6-17-14.2-17.7-24.6c0-0.5,0-1.1,0-1.7v-0.8c0-3.4,0.6-6.7,1.8-9.9c2.3,9,8.4,16.1,18.5,21.4c10,5.2,23.2,7.7,39.8,7.5
					c16.5-0.3,30-2.7,40.7-7.2C115,61.8,121.7,56.2,124.3,49.5z"/>
			</g>
		</g>
		<g>
			
				<radialGradient id="SVGID_6_" cx="67.6504" cy="30" r="65.625" gradientTransform="matrix(1 0 0 -1 0 60)" gradientUnits="userSpaceOnUse">
				<stop  offset="0" style="stop-color:#FFFFFF;stop-opacity:0.498"/>
				<stop  offset="0.9804" style="stop-color:#FAFAFA;stop-opacity:0"/>
			</radialGradient>
			<polygon fill-rule="evenodd" clip-rule="evenodd" fill="url(#SVGID_6_)" points="6.5,44.1 6.6,44 6.6,45.4 6.5,45.4 			"/>
			<path fill-rule="evenodd" clip-rule="evenodd" fill="none" d="M127.3,23c0.1,0.4,0.1,0.8,0.1,1.1c0,0.1,0,0.3,0,0.4 M6.7,24.5
				c0-0.1,0-0.3,0-0.4c0-0.3,0-0.5,0.1-0.8"/>
			<path fill-rule="evenodd" clip-rule="evenodd" fill="none" d="M8.2,28.3c11.2-15.1,29.4-23.1,54.6-24c25.1-1,45.6,7.3,61.3,24.8"
				/>
			<g>
				
					<path fill-rule="evenodd" clip-rule="evenodd" fill="none" stroke="#233D49" stroke-width="1.5" stroke-linecap="round" stroke-linejoin="round" stroke-miterlimit="3" d="
					M125.1,53.8c0.4,11.4-5.3,20.5-17.1,27.5C96,88.1,81.8,91.5,65,91.5C48.3,91.4,33.9,88,22,81.3C10,74.5,4.3,65.4,4.8,53.9
					c0.1-3,0.6-5.9,1.5-8.6c2.5-7.8,8-14.5,16.6-20C34.5,17.7,48.6,14,65,14c16.4,0,30.5,3.8,42.1,11.3
					c10.5,6.8,16.4,15.3,17.7,25.3C125,51.6,125.1,52.6,125.1,53.8z"/>
			</g>
		</g>
		<g>
			
				<radialGradient id="SVGID_7_" cx="87.1299" cy="-18.7778" r="10.8379" gradientTransform="matrix(0.9262 0.3772 0.1373 -0.1407 16.7316 -17.1533)" gradientUnits="userSpaceOnUse">
				<stop  offset="0" style="stop-color:#FFFFFF"/>
				<stop  offset="0.1098" style="stop-color:#FFFFFF"/>
				<stop  offset="0.3176" style="stop-color:#FEFEFE;stop-opacity:0.8824"/>
				<stop  offset="0.4902" style="stop-color:#FBFBFB;stop-opacity:0.498"/>
				<stop  offset="0.7373" style="stop-color:#F9F9F9;stop-opacity:0.1059"/>
				<stop  offset="1" style="stop-color:#F6F6F6;stop-opacity:0"/>
			</radialGradient>
			<path fill-rule="evenodd" clip-rule="evenodd" fill="url(#SVGID_7_)" d="M92.7,20.6c-3.2-1.3-5.8-2.7-7.9-4.1
				c-2-1.3-2.7-2.2-2.2-2.8c0.6-0.6,2.2-0.6,4.9-0.1c2.8,0.7,5.9,1.7,9.2,3c3.3,1.3,5.9,2.6,7.8,3.9c2.1,1.3,2.9,2.3,2.3,3
				c-0.6,0.5-2.3,0.5-5.1-0.1C99.2,22.9,96.2,22,92.7,20.6z"/>
		</g>
	</g>
</g>
</svg>
