<?xml version="1.0" encoding="utf-8"?>
<!-- Generator: Adobe Illustrator 16.0.0, SVG Export Plug-In . SVG Version: 6.00 Build 0)  -->
<!DOCTYPE svg PUBLIC "-//W3C//DTD SVG 1.1//EN" "http://www.w3.org/Graphics/SVG/1.1/DTD/svg11.dtd">
<svg version="1.1" id="Layer_1" xmlns="http://www.w3.org/2000/svg" xmlns:xlink="http://www.w3.org/1999/xlink" x="0px" y="0px"
	 width="130px" height="140px" viewBox="0 0 130 140" enable-background="new 0 0 130 140" xml:space="preserve">
<g>
	<g>
		<g>
			<path fill-rule="evenodd" clip-rule="evenodd" fill="#46515A" d="M105,73.5c6.8-0.1,14.1-0.2,21.6-0.3v0.5h0.1v18.7
				c0,0,0.1,0,0.1,0c0.5,1.4,0.3,2.6-0.5,3.8c-26,1.3-41.7,2-47,2.3c-5.3,0.3-15.6,0.3-30.8,0.2c-15.2-0.2-25.3-0.6-30.4-1.1
				c-5-0.5-8.2-0.9-9.4-1c-1.3-0.1-2.5-0.3-3.8-0.7c-0.4-0.1-0.7-0.2-1-0.3v-3H3.8V75.2l-0.2-1.4c0.1,0,0.1,0,0.2,0
				c6.7-0.1,13.1-0.2,19.1-0.2c5.3-0.2,10.5-0.3,15.6-0.2c1,0,2.1,0,3.4,0h1.3c5.9,0,13.9,0,24.1,0h2.2c0.3,0,0.7,0,1,0
				c7.6,0,15.9,0,24.8,0c0.3,0,0.5,0,0.8,0H105z"/>
		</g>
	</g>
	<g>
		<g>
			<linearGradient id="SVGID_1_" gradientUnits="userSpaceOnUse" x1="66.6504" y1="95.0371" x2="66.6504" y2="126.7621">
				<stop  offset="0" style="stop-color:#000000;stop-opacity:0.9922"/>
				<stop  offset="1" style="stop-color:#FFFFFF;stop-opacity:0"/>
			</linearGradient>
			<path fill-rule="evenodd" clip-rule="evenodd" fill="url(#SVGID_1_)" d="M66.7,92.3c15.4,0,28.6,2.2,39.4,6.7
				c10.9,4.5,16.4,9.9,16.4,16.2c0,6.3-5.5,11.7-16.4,16.2c-10.9,4.4-24,6.7-39.4,6.7c-15.4,0-28.6-2.2-39.5-6.7
				c-10.9-4.5-16.4-9.9-16.4-16.2c0-6.3,5.4-11.7,16.4-16.2C38.1,94.5,51.3,92.3,66.7,92.3z"/>
		</g>
		<g>
			<g>
				<linearGradient id="SVGID_2_" gradientUnits="userSpaceOnUse" x1="3.7998" y1="84.5566" x2="126.4748" y2="84.5566">
					<stop  offset="0" style="stop-color:#383C45"/>
					<stop  offset="0.2431" style="stop-color:#37414A"/>
					<stop  offset="0.6118" style="stop-color:#5E6C77"/>
					<stop  offset="0.8" style="stop-color:#39464F"/>
					<stop  offset="1" style="stop-color:#373C45"/>
				</linearGradient>
				<path fill-rule="evenodd" clip-rule="evenodd" fill="url(#SVGID_2_)" d="M96,73.5c5.9,0,12,0.1,18.1,0.1
					c6.2,0,10.4,0.1,12.6,0.2v19c-3.7,0-10.9,0.5-21.5,1.5c-10.7,0.9-25.5,1.4-44.4,1.4c-19,0-33.1-0.5-42.4-1.5
					C9.1,93,4.3,92.6,3.8,92.7V73.8C8.6,74,14.1,74,20.3,73.8c6.2-0.3,12.2-0.4,18.2-0.3c5.9,0.1,15.5,0.1,28.8,0.1
					C80.5,73.5,90,73.5,96,73.5z"/>
			</g>
		</g>
		<g>
			<radialGradient id="SVGID_3_" cx="64" cy="75.7002" r="65.625" gradientUnits="userSpaceOnUse">
				<stop  offset="0" style="stop-color:#FFFFFF;stop-opacity:0.498"/>
				<stop  offset="0.9804" style="stop-color:#FAFAFA;stop-opacity:0"/>
			</radialGradient>
			<path fill-rule="evenodd" clip-rule="evenodd" fill="url(#SVGID_3_)" d="M126.6,73.3v2.5c-35.5,0.4-55.7,0.6-60.5,0.6
				c-9.4,0-30.1-0.1-62.1-0.2l-0.4-2.4c28.8-0.4,51.1-0.5,66.8-0.3C86.1,73.6,104.9,73.5,126.6,73.3z"/>
			<path fill-rule="evenodd" clip-rule="evenodd" fill="#233D49" d="M126.8,92.5c0.5,1.4,0.3,2.6-0.5,3.8c-26,1.3-41.7,2-47,2.3
				c-5.3,0.3-15.6,0.3-30.8,0.2c-15.2-0.2-25.3-0.6-30.4-1.1c-5-0.5-8.2-0.9-9.4-1c-1.3-0.1-2.5-0.3-3.8-0.7c-0.4-0.1-0.7-0.2-1-0.3
				v-3.2c0.5,0.1,1.1,0.2,1.9,0.3C6.4,93,7.2,93.1,8,93.3c0.8,0.1,3.1,0.3,7,0.6c3.9,0.3,14.1,0.7,30.7,1.2
				c16.6,0.5,27.5,0.5,32.5,0.2C83.3,94.8,99.5,93.9,126.8,92.5z"/>
		</g>
		<g>
			
				<radialGradient id="SVGID_4_" cx="70.8359" cy="84.3135" r="16.987" gradientTransform="matrix(0.9948 -0.1015 8.094040e-002 0.2244 22.657 62.8202)" gradientUnits="userSpaceOnUse">
				<stop  offset="0" style="stop-color:#FFFFFF"/>
				<stop  offset="0.1098" style="stop-color:#FFFFFF"/>
				<stop  offset="0.3176" style="stop-color:#FEFEFE;stop-opacity:0.8824"/>
				<stop  offset="0.4902" style="stop-color:#FBFBFB;stop-opacity:0.498"/>
				<stop  offset="0.7373" style="stop-color:#F9F9F9;stop-opacity:0.1098"/>
				<stop  offset="1" style="stop-color:#F6F6F6;stop-opacity:0"/>
			</radialGradient>
			<path fill-rule="evenodd" clip-rule="evenodd" fill="url(#SVGID_4_)" d="M112.7,68.9c4.4,0.6,6.8,1.6,7.3,3c0.6,1.6-1,3-4.8,4.3
				c-3.5,1.2-8,2.1-13.5,2.7c-5.5,0.5-10.5,0.6-15,0.1c-4.3-0.6-6.7-1.6-7.2-3.1c-0.4-1.4,1.1-2.8,4.7-4c3.8-1.5,8.4-2.5,13.8-3
				C103.6,68.4,108.5,68.4,112.7,68.9z"/>
		</g>
	</g>
</g>
</svg>
