<?xml version="1.0" encoding="utf-8"?>
<!-- Generator: Adobe Illustrator 16.0.0, SVG Export Plug-In . SVG Version: 6.00 Build 0)  -->
<!DOCTYPE svg PUBLIC "-//W3C//DTD SVG 1.1//EN" "http://www.w3.org/Graphics/SVG/1.1/DTD/svg11.dtd">
<svg version="1.1" xmlns="http://www.w3.org/2000/svg" xmlns:xlink="http://www.w3.org/1999/xlink" x="0px" y="0px" width="211.2px"
	 height="154.5px" viewBox="0 0 211.2 154.5" enable-background="new 0 0 211.2 154.5" xml:space="preserve">
<g id="Layer_2">
	<g>
		<path fill-rule="evenodd" clip-rule="evenodd" fill="#ABB2AE" d="M209.9,152.8H15c-4-0.3-6.2-2.5-6.7-6.5L3.9,73.1L2.4,50
			c0.2-3.6,1-6.5,2.3-8.8L9,33.5h200.9V152.8z"/>
	</g>
</g>
<g id="Layer_1">
	<g>
		<g>
			<linearGradient id="SVGID_1_" gradientUnits="userSpaceOnUse" x1="106.1665" y1="29.3623" x2="106.1665" y2="66.9373">
				<stop  offset="0" style="stop-color:#ABB2AE"/>
				<stop  offset="0.2863" style="stop-color:#ABB2AE"/>
				<stop  offset="0.4275" style="stop-color:#D3D6D3"/>
				<stop  offset="0.6314" style="stop-color:#ABB2AE"/>
				<stop  offset="1" style="stop-color:#ABB2AE"/>
			</linearGradient>
			<path fill-rule="evenodd" clip-rule="evenodd" fill="url(#SVGID_1_)" d="M209.9,73.1H3.9L2.5,52.2L2.4,50c0.2-3.6,1-6.5,2.3-8.8
				l7.6-13.7h197.6V73.1z"/>
			<linearGradient id="SVGID_2_" gradientUnits="userSpaceOnUse" x1="106.8931" y1="74.3975" x2="106.9818" y2="156.0474">
				<stop  offset="0" style="stop-color:#ABB2AE"/>
				<stop  offset="7.058824e-002" style="stop-color:#ABB2AE"/>
				<stop  offset="0.1137" style="stop-color:#88918B"/>
				<stop  offset="0.1569" style="stop-color:#C6CAC7"/>
				<stop  offset="0.1922" style="stop-color:#ABB2AE"/>
				<stop  offset="0.8627" style="stop-color:#ABB2AE"/>
				<stop  offset="1" style="stop-color:#6B726D"/>
			</linearGradient>
			<path fill-rule="evenodd" clip-rule="evenodd" fill="url(#SVGID_2_)" d="M3.9,73.1h206v79.7H15c-4-0.3-6.2-2.5-6.7-6.5L3.9,73.1z
				"/>
			<g>
				<g>
					<path fill-rule="evenodd" clip-rule="evenodd" fill="#ABB2AE" d="M209.9,27.5H28.7c0.1-0.9,0.5-1.9,1.2-3.1L42.5,2.1h62.3
						l7.3,5.1c12,1.9,24.7,1.9,38,0c3.8-2,6-3.6,6.6-5.1h53.3V27.5z M26,27.5H12.3L26.4,2.1h12.9L27.5,23v0.1
						C26.6,24.8,26,26.3,26,27.5z"/>
					<linearGradient id="SVGID_3_" gradientUnits="userSpaceOnUse" x1="106.1665" y1="29.3623" x2="106.1665" y2="66.9373">
						<stop  offset="0" style="stop-color:#ABB2AE"/>
						<stop  offset="0.2863" style="stop-color:#ABB2AE"/>
						<stop  offset="0.4275" style="stop-color:#D3D6D3"/>
						<stop  offset="0.6314" style="stop-color:#ABB2AE"/>
						<stop  offset="1" style="stop-color:#ABB2AE"/>
					</linearGradient>
					<path fill-rule="evenodd" clip-rule="evenodd" fill="url(#SVGID_3_)" d="M209.9,27.5v2.7H32.8c-2.6,0-4-0.7-4.1-2v-0.1
						c0-0.2,0-0.4,0-0.6H209.9z M209.9,73.1H3.9L2.4,50c0.2-3.6,1-6.5,2.3-8.8l7.6-13.7H26c0,0.3,0,0.5,0,0.8
						c-0.1,3,2.2,4.6,6.9,4.6h177.1V73.1z"/>
					<linearGradient id="SVGID_4_" gradientUnits="userSpaceOnUse" x1="106.8931" y1="74.3975" x2="106.9818" y2="156.0474">
						<stop  offset="0" style="stop-color:#ABB2AE"/>
						<stop  offset="7.058824e-002" style="stop-color:#ABB2AE"/>
						<stop  offset="0.1137" style="stop-color:#88918B"/>
						<stop  offset="0.1569" style="stop-color:#C6CAC7"/>
						<stop  offset="0.1922" style="stop-color:#ABB2AE"/>
						<stop  offset="0.8627" style="stop-color:#ABB2AE"/>
						<stop  offset="1" style="stop-color:#6B726D"/>
					</linearGradient>
					<path fill-rule="evenodd" clip-rule="evenodd" fill="url(#SVGID_4_)" d="M3.9,73.1h206v79.7H15c-4-0.3-6.2-2.5-6.7-6.5
						L3.9,73.1z"/>
				</g>
				<g>
					<g>
						
							<radialGradient id="SVGID_5_" cx="130.9165" cy="-1.3501" r="50.275" gradientTransform="matrix(1 0 0 0.3841 0 -0.8315)" gradientUnits="userSpaceOnUse">
							<stop  offset="0" style="stop-color:#401C1C"/>
							<stop  offset="0.6" style="stop-color:#401C1C"/>
							<stop  offset="0.7412" style="stop-color:#401C1C;stop-opacity:0.498"/>
							<stop  offset="1" style="stop-color:#401C1C;stop-opacity:0"/>
						</radialGradient>
						<path fill-rule="evenodd" clip-rule="evenodd" fill="url(#SVGID_5_)" d="M162.6,26.2c-2.2,1.8-7.4,3.4-15.8,4.8
							c-14.1,1.8-30.5-0.8-49.3-7.9V6.4H98c0.5,0.6,1,1.4,1.5,2.1c1.6-1.1,4.3-2.2,8-3.1c1-0.3,2.1-0.5,3.2-0.7v0.1
							c16.7,2.9,30.7,2.6,41.8-0.8c3.1,0.5,7.5,1.1,13.2,1.9l0.2,9.6C165.9,20.8,164.9,24.4,162.6,26.2z"/>
					</g>
					<g>
						
							<radialGradient id="SVGID_6_" cx="131.7417" cy="4" r="40.8512" gradientTransform="matrix(1 0 0 0.2682 0 2.9271)" gradientUnits="userSpaceOnUse">
							<stop  offset="0" style="stop-color:#401C1C"/>
							<stop  offset="0.8471" style="stop-color:#401C1C"/>
							<stop  offset="0.9922" style="stop-color:#130707"/>
							<stop  offset="1" style="stop-color:#120707"/>
						</radialGradient>
						<path fill-rule="evenodd" clip-rule="evenodd" fill="url(#SVGID_6_)" d="M135.1,15.5c-1.1,0-2.2,0-3.3,0
							c-9.5,0-17.6-0.9-24.3-2.6c-6.7-1.7-10-3.7-10-6c0-1.7,1.8-3.3,5.5-4.7h4.6c0.1,0.9,1.2,1.6,3.3,2.1c13.2,2.9,26.5,2.9,40,0
							c2.8-0.6,3.9-1.2,3.2-2.1h6.3c3.7,1.4,5.6,3,5.6,4.7c0,2.4-3.4,4.4-10.1,6C150.1,14.4,143.1,15.3,135.1,15.5z"/>
					</g>
					<g>
						
							<radialGradient id="SVGID_7_" cx="-391.5957" cy="108.707" r="1.4251" gradientTransform="matrix(8.771593e-003 -1 4.7717 -9.648752e-002 -380.2707 -368.5916)" gradientUnits="userSpaceOnUse">
							<stop  offset="0" style="stop-color:#FFFFFF;stop-opacity:0.8"/>
							<stop  offset="1" style="stop-color:#FAFAFA;stop-opacity:0"/>
						</radialGradient>
						<path fill-rule="evenodd" clip-rule="evenodd" fill="url(#SVGID_7_)" d="M141.3,11.4c0.8,0.5,0.7,1-0.2,1.5
							c-0.9,0.5-1.6,1-2,1.6l-9,0.5c-1,0.1-1.8,0-2.4-0.3l0.9-4.1c0.2,0,0.4,0,0.6-0.1c0.2-0.1,0.5-0.1,0.8-0.1l9.5-0.5
							c0.2,0,0.5,0,0.7,0C140.2,10.5,140.5,11,141.3,11.4z"/>
					</g>
					<g>
						
							<linearGradient id="SVGID_8_" gradientUnits="userSpaceOnUse" x1="73.0293" y1="73.5269" x2="90.1587" y2="73.5269" gradientTransform="matrix(0.9764 -0.216 0.2667 0.9652 49.3966 -44.2046)">
							<stop  offset="0" style="stop-color:#020101;stop-opacity:0"/>
							<stop  offset="0.4745" style="stop-color:#020101;stop-opacity:0.5765"/>
							<stop  offset="0.9922" style="stop-color:#000000"/>
							<stop  offset="1" style="stop-color:#120707"/>
						</linearGradient>
						<path fill-rule="evenodd" clip-rule="evenodd" fill="url(#SVGID_8_)" d="M135.6,8.2c5.4-0.2,10.1-0.6,14.1-1.4
							c4.7-0.9,7.2-2,7.5-3.1c-0.1-0.5-0.6-1.1-1.4-1.6h4.7c3.7,1.4,5.6,3,5.6,4.7c0,2.4-3.4,4.4-10.1,6c-5.5,1.4-11.8,2.2-19,2.5
							c-0.5,0-1,0-1.4,0.1V8.2z"/>
					</g>
					<g>
						<linearGradient id="SVGID_9_" gradientUnits="userSpaceOnUse" x1="101.479" y1="5.1748" x2="160.954" y2="5.1748">
							<stop  offset="7.843138e-003" style="stop-color:#582727"/>
							<stop  offset="1" style="stop-color:#582C27"/>
						</linearGradient>
						<path fill-rule="evenodd" clip-rule="evenodd" fill="url(#SVGID_9_)" d="M153.7,2.5c0-0.1,0-0.2-0.1-0.3h2.2
							c0.8,0.5,1.3,1,1.4,1.6c-0.3,1.2-2.8,2.3-7.5,3.1c-0.2,0.1-0.3,0.1-0.5,0.1c-0.2,0-0.4,0.1-0.6,0.1c-3.8,0.6-8.2,1-13,1.2
							c-0.2-0.1-0.3-0.1-0.5,0c-1.2,0-2.5,0-3.8,0c-7.2,0-13.3-0.5-18.4-1.4c-4.8-0.9-7.3-2-7.5-3.1c0.1-0.5,0.6-1.1,1.4-1.6h1.9
							c-0.1,0.1-0.1,0.2-0.1,0.3c0,1,2.2,1.8,6.6,2.4c4.4,0.6,9.8,0.9,16,0.9c1.3,0,2.6,0,3.9,0c0.7-0.1,1.4-0.1,2.1-0.1l10-0.9
							C151.5,4.2,153.7,3.4,153.7,2.5z"/>
					</g>
				</g>
				<g>
					<polygon fill-rule="evenodd" clip-rule="evenodd" fill="#939995" points="42.5,2.1 36.4,12.9 33.2,12.9 39.3,2.1 					"/>
				</g>
				<g>
					<path fill-rule="evenodd" clip-rule="evenodd" fill="#939995" d="M27.5,23l5.7-10.1h3.2l-6.5,11.5c-0.9,1.5-1.3,2.8-1.3,3.8
						v0.1c0.1,1.3,1.5,2,4.1,2h177.1V33H32.8c-4.7,0-6.9-1.6-6.9-4.6c-0.1-1.4,0.4-3.1,1.6-5.2V23z"/>
				</g>
			</g>
		</g>
		<g>
			<g>
				
					<radialGradient id="SVGID_10_" cx="130.9165" cy="-1.3501" r="50.275" gradientTransform="matrix(1 0 0 0.3841 0 -0.8315)" gradientUnits="userSpaceOnUse">
					<stop  offset="0" style="stop-color:#401C1C"/>
					<stop  offset="0.6" style="stop-color:#401C1C"/>
					<stop  offset="0.7412" style="stop-color:#401C1C;stop-opacity:0.498"/>
					<stop  offset="1" style="stop-color:#401C1C;stop-opacity:0"/>
				</radialGradient>
				<path fill-rule="evenodd" clip-rule="evenodd" fill="url(#SVGID_10_)" d="M157.7,5c2.5,0.3,5.2,0.7,8,1l0.2,9.6
					c0.1,5.2-1,8.8-3.3,10.6c-2.2,1.8-7.4,3.4-15.8,4.8c-14.1,1.8-30.5-0.8-49.3-7.9V6.4H98c0.5,0.6,1,1.4,1.5,2.1
					c1.6-1.1,4.3-2.2,8-3.1c0.4-0.1,0.8-0.2,1.2-0.3v2.6c16.3,2.3,32.7,2.3,49,0V5z"/>
			</g>
			<g>
				
					<radialGradient id="SVGID_11_" cx="131.7417" cy="4" r="40.8512" gradientTransform="matrix(1 0 0 0.2682 0 2.9271)" gradientUnits="userSpaceOnUse">
					<stop  offset="0" style="stop-color:#401C1C"/>
					<stop  offset="0.8471" style="stop-color:#401C1C"/>
					<stop  offset="0.9922" style="stop-color:#130707"/>
					<stop  offset="1" style="stop-color:#120707"/>
				</radialGradient>
				<path fill-rule="evenodd" clip-rule="evenodd" fill="url(#SVGID_11_)" d="M131.8,15.5c-9.5,0-17.6-0.9-24.3-2.6
					c-6.7-1.7-10-3.7-10-6c0-1.7,1.8-3.3,5.5-4.7h5.5c-2.1,0.6-2.2,1.3-0.3,2.1c11.7,3.1,26.3,3.4,43.8,0.9c3.2-0.9,4.1-1.9,2.9-3
					h5.6c3.7,1.4,5.6,3,5.6,4.7c0,2.4-3.4,4.4-10.1,6c-5.9,1.5-12.9,2.4-20.9,2.6C134,15.5,132.9,15.5,131.8,15.5z"/>
			</g>
			<g>
				
					<radialGradient id="SVGID_12_" cx="-391.5957" cy="108.707" r="1.4251" gradientTransform="matrix(8.771593e-003 -1 4.7717 -9.648752e-002 -380.2707 -368.5916)" gradientUnits="userSpaceOnUse">
					<stop  offset="0" style="stop-color:#FFFFFF;stop-opacity:0.8"/>
					<stop  offset="1" style="stop-color:#FAFAFA;stop-opacity:0"/>
				</radialGradient>
				<path fill-rule="evenodd" clip-rule="evenodd" fill="url(#SVGID_12_)" d="M141.3,11.4c0.8,0.5,0.7,1-0.2,1.5
					c-0.9,0.5-1.6,1-2,1.6l-9,0.5c-1,0.1-1.8,0-2.4-0.3l0.9-4.1c0.2,0,0.4,0,0.6-0.1c0.2-0.1,0.5-0.1,0.8-0.1l9.5-0.5
					c0.2,0,0.5,0,0.7,0C140.2,10.5,140.5,11,141.3,11.4z"/>
			</g>
			<g>
				
					<linearGradient id="SVGID_13_" gradientUnits="userSpaceOnUse" x1="73.0293" y1="73.5269" x2="90.1587" y2="73.5269" gradientTransform="matrix(0.9764 -0.216 0.2667 0.9652 49.3966 -44.2046)">
					<stop  offset="0" style="stop-color:#020101;stop-opacity:0"/>
					<stop  offset="0.4745" style="stop-color:#020101;stop-opacity:0.5765"/>
					<stop  offset="0.9922" style="stop-color:#000000"/>
					<stop  offset="1" style="stop-color:#120707"/>
				</linearGradient>
				<path fill-rule="evenodd" clip-rule="evenodd" fill="url(#SVGID_13_)" d="M137,15.4c-0.5,0-1,0-1.4,0.1V8.2
					c5.4-0.2,10.1-0.6,14.1-1.4c4.7-0.9,7.2-2,7.5-3.1c-0.1-0.5-0.6-1.1-1.4-1.6h4.7c3.7,1.4,5.6,3,5.6,4.7c0,2.4-3.4,4.4-10.1,6
					C150.5,14.3,144.2,15.1,137,15.4z"/>
			</g>
			<g>
				<linearGradient id="SVGID_14_" gradientUnits="userSpaceOnUse" x1="101.479" y1="5.1748" x2="160.954" y2="5.1748">
					<stop  offset="7.843138e-003" style="stop-color:#582727"/>
					<stop  offset="1" style="stop-color:#582C27"/>
				</linearGradient>
				<path fill-rule="evenodd" clip-rule="evenodd" fill="url(#SVGID_14_)" d="M153.7,2.5c0-0.1,0-0.2-0.1-0.3h2.2
					c0.8,0.5,1.3,1,1.4,1.6c-0.3,1.2-2.8,2.3-7.5,3.1c-0.2,0.1-0.3,0.1-0.5,0.1c-0.2,0-0.4,0.1-0.6,0.1c-3.8,0.6-8.2,1-13,1.2
					c-0.2-0.1-0.3-0.1-0.5,0c-1.2,0-2.5,0-3.8,0c-7.2,0-13.3-0.5-18.4-1.4c-4.8-0.9-7.3-2-7.5-3.1c0.1-0.5,0.6-1.1,1.4-1.6h1.9
					c-0.1,0.1-0.1,0.2-0.1,0.3c0,1,2.2,1.8,6.6,2.4c4.4,0.6,9.8,0.9,16,0.9c1.3,0,2.6,0,3.9,0c0.7-0.1,1.4-0.1,2.1-0.1l10-0.9
					C151.5,4.2,153.7,3.4,153.7,2.5z"/>
			</g>
		</g>
		<g>
			<polygon fill-rule="evenodd" clip-rule="evenodd" fill="#939995" points="42.5,2.1 36.4,12.9 33.2,12.9 39.3,2.1 			"/>
		</g>
	</g>
</g>
</svg>
