<?xml version="1.0" encoding="utf-8"?>
<!-- Generator: Adobe Illustrator 16.0.0, SVG Export Plug-In . SVG Version: 6.00 Build 0)  -->
<!DOCTYPE svg PUBLIC "-//W3C//DTD SVG 1.1//EN" "http://www.w3.org/Graphics/SVG/1.1/DTD/svg11.dtd">
<svg version="1.1" xmlns="http://www.w3.org/2000/svg" xmlns:xlink="http://www.w3.org/1999/xlink" x="0px" y="0px" width="436px"
	 height="352px" viewBox="0 0 436 352" enable-background="new 0 0 436 352" xml:space="preserve">
<g id="Layer_2">
	<g>
		<path fill-rule="evenodd" clip-rule="evenodd" fill="#ABB2AE" d="M370.5,10.1l1.8,4l1.9,4.2c0.5,1.1,0.9,3.1,1.1,5.9v0.1
			l10.9,114.2l0.4,5.4l0.9,8.8c0.1,2.5,0.6,4.3,1.5,5.3l6.3,10.8l12.6,21.7l16.9,29.3l7.5,13c1.6,2.6,2.5,6.5,2.6,11.6l-1.2,21
			l-4.5,72.9c-0.5,4.6-2.7,6.8-6.7,6.6v0.2H13.6c-4-0.3-6.2-2.5-6.7-6.4l-4.4-73.3l-1.4-23.1c0.2-3.6,0.9-6.5,2.3-8.8l7.6-13.7
			l28.3-51l6.1-11c0.9-1.5,1.4-3.5,1.4-6l0.8-13.4l6.6-114.9c-0.1-0.1-0.1-0.5,0-1.4c0.1-1,0.4-2.3,1-3.8l6.1-9.1l0.2-0.3
			c2.9-3.7,6.8-5.5,11.5-5.3h285.3C363.6,3.7,367.7,5.8,370.5,10.1z"/>
	</g>
</g>
<g id="Layer_1">
	<g>
		<path fill-rule="evenodd" clip-rule="evenodd" fill="#FFFDF6" d="M266.3,60.5v11.8h-2l-5.6-10.6v10.6h-1.5V60.5h2.5l5.1,9.6v-9.6
			H266.3z M275.1,61.9v10.5h-1.6V61.9h-4.2v-1.4h10v1.4H275.1z M282,67.6v-7.1h1.6v7.1c0,0.6,0,1.1,0.1,1.5c0.1,0.4,0.3,0.7,0.5,1
			c0.2,0.4,0.5,0.6,1,0.9c0.4,0.2,0.8,0.3,1.4,0.3c0.5,0,1-0.1,1.5-0.3c0.4-0.2,0.7-0.5,1-0.9c0.2-0.3,0.3-0.6,0.5-1
			c0.1-0.4,0.1-0.9,0.1-1.4v-7.2h1.6v7.1c0,0.9-0.1,1.6-0.3,2.3c-0.2,0.6-0.6,1.2-1,1.6c-0.4,0.4-0.9,0.7-1.5,0.9
			c-0.5,0.2-1.2,0.3-1.9,0.3c-0.8,0-1.4-0.1-1.9-0.4c-0.5-0.2-1-0.4-1.4-0.8c-0.5-0.4-0.8-1-1-1.6C282.2,69.3,282,68.5,282,67.6z"/>
		<g>
			<linearGradient id="SVGID_1_" gradientUnits="userSpaceOnUse" x1="218.3496" y1="263.4502" x2="218.3496" y2="373.3502">
				<stop  offset="0" style="stop-color:#040404"/>
				<stop  offset="1" style="stop-color:#000000;stop-opacity:0"/>
			</linearGradient>
			<polygon fill-rule="evenodd" clip-rule="evenodd" fill="url(#SVGID_1_)" points="24.3,288 412.5,288 432.5,352.1 4.1,352.1 			
				"/>
		</g>
		<g>
			<linearGradient id="SVGID_2_" gradientUnits="userSpaceOnUse" x1="216.8247" y1="12.0752" x2="216.8247" y2="35.0252">
				<stop  offset="0" style="stop-color:#959694"/>
				<stop  offset="0.2706" style="stop-color:#9DA6A7"/>
				<stop  offset="0.4118" style="stop-color:#CFD1D1"/>
				<stop  offset="0.5647" style="stop-color:#A3A9A6"/>
				<stop  offset="1" style="stop-color:#A6AEAA"/>
			</linearGradient>
			<path fill-rule="evenodd" clip-rule="evenodd" fill="url(#SVGID_2_)" d="M386.2,138.5H47.5l6.6-114.9c-0.1-0.1-0.1-0.5,0-1.4
				c0.1-1,0.4-2.3,1-3.8l6.1-9.1l0.2-0.3c2.9-3.7,6.8-5.5,11.5-5.3h285.3c5.3-0.1,9.4,2,12.3,6.3l1.8,4l1.9,4.2
				c0.5,1.1,0.9,3.1,1.1,5.9v0.1L386.2,138.5z"/>
			<linearGradient id="SVGID_3_" gradientUnits="userSpaceOnUse" x1="217.2783" y1="141.938" x2="217.3034" y2="172.463">
				<stop  offset="0" style="stop-color:#A6AEAA"/>
				<stop  offset="0.2235" style="stop-color:#A6AEAA"/>
				<stop  offset="0.4118" style="stop-color:#C1C6C2"/>
				<stop  offset="0.5647" style="stop-color:#ABB2AE"/>
				<stop  offset="1" style="stop-color:#ABB2AE"/>
			</linearGradient>
			<path fill-rule="evenodd" clip-rule="evenodd" fill="url(#SVGID_3_)" d="M395.3,168.9h-356l6.1-11c0.9-1.5,1.4-3.5,1.4-6
				l0.8-13.4h338.7l0.4,5.4l0.9,8.8c0.1,2.5,0.6,4.3,1.5,5.3L395.3,168.9z"/>
			<linearGradient id="SVGID_4_" gradientUnits="userSpaceOnUse" x1="218.0254" y1="221.6621" x2="218.0254" y2="259.2371">
				<stop  offset="0" style="stop-color:#ABB2AE"/>
				<stop  offset="0.2863" style="stop-color:#ABB2AE"/>
				<stop  offset="0.4275" style="stop-color:#D3D6D3"/>
				<stop  offset="0.6314" style="stop-color:#ABB2AE"/>
				<stop  offset="1" style="stop-color:#ABB2AE"/>
			</linearGradient>
			<path fill-rule="evenodd" clip-rule="evenodd" fill="url(#SVGID_4_)" d="M11,219.8h413.8l7.5,13c1.6,2.6,2.5,6.5,2.6,11.6
				l-1.2,21H2.5l-1.4-23.1c0.2-3.6,0.9-6.5,2.3-8.8L11,219.8z"/>
			<polygon fill-rule="evenodd" clip-rule="evenodd" fill="#ABB2AE" points="424.8,219.8 11,219.8 39.3,168.9 395.3,168.9 
				407.9,190.5 			"/>
			<linearGradient id="SVGID_5_" gradientUnits="userSpaceOnUse" x1="218.1514" y1="266.5752" x2="218.2401" y2="348.2252">
				<stop  offset="0" style="stop-color:#ABB2AE"/>
				<stop  offset="7.058824e-002" style="stop-color:#ABB2AE"/>
				<stop  offset="0.1137" style="stop-color:#88918B"/>
				<stop  offset="0.1569" style="stop-color:#C6CAC7"/>
				<stop  offset="0.1922" style="stop-color:#ABB2AE"/>
				<stop  offset="0.8627" style="stop-color:#ABB2AE"/>
				<stop  offset="1" style="stop-color:#6B726D"/>
			</linearGradient>
			<path fill-rule="evenodd" clip-rule="evenodd" fill="url(#SVGID_5_)" d="M2.5,265.4h431.2l-4.5,72.9c-0.5,4.6-2.7,6.8-6.7,6.6
				v0.2H13.6c-4-0.3-6.2-2.5-6.7-6.4L2.5,265.4z"/>
		</g>
		<g>
			
				<path fill-rule="evenodd" clip-rule="evenodd" fill="none" stroke="#7B847C" stroke-width="0.5" stroke-linecap="round" stroke-linejoin="round" stroke-miterlimit="3" d="
				M315.5,194.2l-1.4-24h-5.2h-0.1l0.4,24h-84.9l5.6-24h78.9 M389.8,194.2l-11.5-24h-64.3"/>
		</g>
		<g>
			<polygon fill-rule="evenodd" clip-rule="evenodd" fill="#88918B" points="237.8,190.5 240.3,174.4 291.5,174.4 290.7,190.5 			
				"/>
		</g>
		<g>
			<path fill-rule="evenodd" clip-rule="evenodd" fill="#50677C" d="M141.8,100.3c-0.1-0.7-0.2-1.5-0.1-2.3l1.5-32.6
				c0.2-4.4,2.5-6.6,7-6.6h145.9c0.9,0,1.8,0.1,2.5,0.3c0.1,0.6,0.2,1.3,0.3,2l1.5,32.6c0.2,4.6-2,6.9-6.6,6.9H144
				C143.2,100.5,142.4,100.4,141.8,100.3z"/>
			<path fill-rule="evenodd" clip-rule="evenodd" fill="#384B58" d="M141.8,100.3c-3.2-0.6-4.6-2.9-4.4-6.7l1.5-32.6
				c0.2-4.4,2.6-6.6,7.1-6.6h146c3.7,0,6,1.5,6.8,4.6c-0.8-0.2-1.7-0.3-2.5-0.3H150.3c-4.5,0-6.9,2.2-7,6.6L141.7,98
				C141.6,98.8,141.7,99.6,141.8,100.3z"/>
		</g>
		<g>
			<g>
				
					<radialGradient id="SVGID_6_" cx="129.6001" cy="190.9502" r="50.275" gradientTransform="matrix(1 0 0 0.3841 0 117.5991)" gradientUnits="userSpaceOnUse">
					<stop  offset="0" style="stop-color:#401C1C"/>
					<stop  offset="0.6" style="stop-color:#401C1C"/>
					<stop  offset="0.7412" style="stop-color:#401C1C;stop-opacity:0.498"/>
					<stop  offset="1" style="stop-color:#401C1C;stop-opacity:0"/>
				</radialGradient>
				<path fill-rule="evenodd" clip-rule="evenodd" fill="url(#SVGID_6_)" d="M164.4,198.3l0.1,9.6c0.1,5.2-1,8.8-3.3,10.6
					c-2.2,1.8-7.4,3.4-15.8,4.8c-14.1,1.8-30.5-0.8-49.3-7.9v-16.6h0.4c0.5,0.6,1,1.3,1.5,2.1c1.6-1.1,4.3-2.2,8-3.1
					c6.7-1.7,14.8-2.5,24.3-2.5c1.1,0,2.2,0,3.3,0C141,195.5,151.2,196.5,164.4,198.3z"/>
			</g>
			<g>
				
					<radialGradient id="SVGID_7_" cx="130.4248" cy="196.2998" r="40.8522" gradientTransform="matrix(1 0 0 0.2682 0 143.6487)" gradientUnits="userSpaceOnUse">
					<stop  offset="0" style="stop-color:#401C1C"/>
					<stop  offset="0.8471" style="stop-color:#401C1C"/>
					<stop  offset="0.9922" style="stop-color:#130707"/>
					<stop  offset="1" style="stop-color:#120707"/>
				</radialGradient>
				<path fill-rule="evenodd" clip-rule="evenodd" fill="url(#SVGID_7_)" d="M154.6,193c6.7,1.7,10.1,3.8,10.1,6.1
					c0,2.4-3.4,4.4-10.1,6c-5.9,1.5-12.9,2.3-20.9,2.5c-1.1,0-2.2,0-3.3,0c-9.5,0-17.6-0.8-24.3-2.5c-6.7-1.7-10-3.7-10-6
					c0-2.3,3.4-4.4,10-6.1c6.7-1.7,14.8-2.5,24.3-2.5c1.1,0,2.2,0,3.3,0C141.8,190.8,148.8,191.6,154.6,193z"/>
			</g>
			<g>
				
					<radialGradient id="SVGID_8_" cx="-207.5483" cy="135.4912" r="1.4251" gradientTransform="matrix(8.771593e-003 -1 4.7717 -9.648752e-002 -511.009 10.3328)" gradientUnits="userSpaceOnUse">
					<stop  offset="0" style="stop-color:#FFFFFF;stop-opacity:0.8"/>
					<stop  offset="1" style="stop-color:#FAFAFA;stop-opacity:0"/>
				</radialGradient>
				<path fill-rule="evenodd" clip-rule="evenodd" fill="url(#SVGID_8_)" d="M139.9,205.2c-0.9,0.5-1.6,1-2,1.6l-8.9,0.5
					c-1,0.1-1.8,0-2.4-0.3l0.9-4.1c0.2,0,0.4,0,0.6-0.1c0.2-0.1,0.5-0.1,0.8-0.1l9.5-0.5c0.2,0,0.5,0,0.7,0c-0.2,0.6,0.1,1.1,1,1.5
					C140.8,204.2,140.7,204.7,139.9,205.2z"/>
			</g>
			<g>
				
					<linearGradient id="SVGID_9_" gradientUnits="userSpaceOnUse" x1="79.9448" y1="224.4473" x2="97.0742" y2="224.4473" gradientTransform="matrix(0.9764 -0.216 0.2667 0.9652 -3.363490e-004 -1.709759e-004)">
					<stop  offset="0" style="stop-color:#020101;stop-opacity:0"/>
					<stop  offset="0.4745" style="stop-color:#020101;stop-opacity:0.5765"/>
					<stop  offset="0.9922" style="stop-color:#000000"/>
					<stop  offset="1" style="stop-color:#120707"/>
				</linearGradient>
				<path fill-rule="evenodd" clip-rule="evenodd" fill="url(#SVGID_9_)" d="M164.8,199.2c0,2.4-3.4,4.4-10.1,6
					c-5.5,1.4-11.8,2.2-19,2.5c-0.5,0-1,0-1.4,0v-7.3c5.4-0.2,10.1-0.6,14.1-1.3c4.7-0.9,7.2-2,7.5-3.2c-0.3-1.3-2.8-2.5-7.5-3.5
					c-2.4-0.5-5-0.9-7.9-1.2l-6.3-0.3v-0.5c7.8,0.2,14.6,1,20.4,2.5C161.4,194.8,164.8,196.8,164.8,199.2z"/>
			</g>
			<g>
				<linearGradient id="SVGID_10_" gradientUnits="userSpaceOnUse" x1="100.1626" y1="195.7002" x2="159.6376" y2="195.7002">
					<stop  offset="7.843138e-003" style="stop-color:#582727"/>
					<stop  offset="1" style="stop-color:#582C27"/>
				</linearGradient>
				<path fill-rule="evenodd" clip-rule="evenodd" fill="url(#SVGID_10_)" d="M143.8,192.2c-0.1-0.1-0.2-0.1-0.3-0.1l-8.3-0.5
					c-0.5,0-1,0-1.5,0c-1.2,0-2.5,0-3.9,0c-6.2,0-11.5,0.3-15.9,1c-4.4,0.7-6.6,1.4-6.6,2.3c0,1,2.2,1.8,6.6,2.4
					c4.4,0.6,9.8,0.9,15.9,0.9c1.3,0,2.6,0,3.9,0c0.7-0.1,1.4-0.1,2.1-0.1l9.9-0.8c4.4-0.6,6.6-1.4,6.6-2.4c0-0.9-2.2-1.6-6.6-2.3
					c-0.2,0-0.3,0-0.4,0c-0.3-0.1-0.6-0.2-0.9-0.2c-0.1,0-0.3,0-0.4,0C144,192.2,143.9,192.2,143.8,192.2z M148.4,199.2
					c-0.2,0.1-0.4,0.1-0.5,0.1c-0.2,0-0.4,0.1-0.6,0.1c-3.8,0.6-8.2,1-13,1.2c-0.2-0.1-0.3-0.1-0.5,0c-1.2,0-2.5,0-3.8,0
					c-7.2,0-13.3-0.5-18.4-1.3c-4.8-0.9-7.3-2-7.5-3.2c0.2-1.3,2.7-2.5,7.5-3.5c2.4-0.5,5.1-0.9,7.9-1.2l9.3-0.4c0.1,0,0.1,0,0.3,0
					c0.1,0,0.3,0,0.4,0s0.2,0,0.3,0c0.1,0,0.3,0,0.4,0c0.1,0,0.2,0,0.4,0c0.1,0,0.2,0,0.4,0c0,0,0.1,0,0.3,0c0.1,0,0.2,0,0.3,0
					l9.3,0.4c2.8,0.3,5.4,0.7,7.9,1.2c4.7,1,7.2,2.2,7.5,3.5C155.6,197.2,153.1,198.3,148.4,199.2z"/>
				<path fill-rule="evenodd" clip-rule="evenodd" d="M143.8,192.2c0.1,0,0.3,0,0.4,0c0.1,0,0.3,0,0.4,0c0.3,0,0.6,0,0.9,0.2
					c0.1,0,0.2,0,0.4,0c4.4,0.7,6.6,1.4,6.6,2.3c0,1-2.2,1.8-6.6,2.4l-9.9,0.8c-0.7,0-1.4,0-2.1,0.1c-1.2,0-2.5,0-3.9,0
					c-6.2,0-11.5-0.3-15.9-0.9c-4.4-0.6-6.6-1.4-6.6-2.4c0-0.9,2.2-1.6,6.6-2.3c4.4-0.6,9.8-1,15.9-1c1.3,0,2.6,0,3.9,0
					c0.5,0,1,0,1.5,0l8.3,0.5C143.6,192.1,143.7,192.1,143.8,192.2z"/>
			</g>
		</g>
		<g>
			
				<line fill-rule="evenodd" clip-rule="evenodd" fill="none" stroke="#7B847C" stroke-width="0.5" stroke-linecap="round" stroke-linejoin="round" stroke-miterlimit="3" x1="306.3" y1="194.2" x2="389.8" y2="194.2"/>
		</g>
		<g>
			
				<path fill-rule="evenodd" clip-rule="evenodd" fill="none" stroke="#FFFFFF" stroke-linecap="round" stroke-linejoin="round" stroke-miterlimit="3" stroke-opacity="0.498" d="
				M321.5,119.5c0-2.3,2-4.3,6.1-5.9c4.1-1.6,9-2.4,14.8-2.4c5.7,0,10.6,0.8,14.7,2.4c4.1,1.6,6.2,3.6,6.2,5.9c0,2.4-2,4.3-6.2,5.9
				c-4.1,1.7-9,2.5-14.7,2.5c-5.8,0-10.7-0.8-14.8-2.5C323.5,123.9,321.5,121.9,321.5,119.5z"/>
		</g>
		<g>
			<path fill-rule="evenodd" clip-rule="evenodd" fill="#939995" d="M68.5,32.7l0-0.9c0.1-0.4,0.2-0.6,0.5-0.8
				c0.2-0.3,0.5-0.4,0.9-0.4h290.8c0.4,0,0.7,0.1,1,0.3c0.2,0.2,0.4,0.5,0.4,0.9l13.1,108.4c0,0.2,0,0.5-0.2,0.8
				c-0.1,0.2-0.3,0.4-0.5,0.5c-0.2,0.1-0.5,0.2-0.8,0.2h-0.9l-13-107.7c-0.1-0.4-0.2-0.6-0.4-0.9c-0.3-0.2-0.6-0.3-1-0.3H68.5z
				 M63,165.6c-4,0-6.8,1.7-8.5,5.1v0l-19.4,34.4h-3.2l20.2-35.8l-0.1,0.1c2.1-4.5,5.7-6.7,10.9-6.6h312c5.1,0,8.7,2.2,10.9,6.6
				l18,35.7h-3l-17.4-34.5c-1.7-3.4-4.5-5.1-8.5-5.1H63z M71,35.4l-6.3,103.5h305l0.3,2.1H62.6L69,35.4H71z"/>
			<path fill-rule="evenodd" clip-rule="evenodd" fill="#FFFFFF" fill-opacity="0.1098" d="M372.9,141.6l0,0.6
				c0.1,0.2,0,0.5-0.1,0.8c-0.1,0.2-0.3,0.4-0.5,0.5c-0.2,0.1-0.4,0.2-0.8,0.2H61.1c-0.3,0-0.5-0.1-0.7-0.2
				c-0.2-0.1-0.4-0.3-0.5-0.4c-0.2-0.2-0.3-0.5-0.3-0.8L66.4,34c0-0.4,0.2-0.7,0.5-0.9c0.2-0.3,0.5-0.4,0.9-0.4h0.8h290.1
				c0.3,0,0.7,0.1,1,0.3c0.2,0.2,0.3,0.5,0.4,0.9L372.9,141.6z M71,35.4h-2L62.6,141H370l-0.3-2.1L357.3,35.4H71z"/>
		</g>
		<g>
			
				<radialGradient id="SVGID_11_" cx="323.0498" cy="237.9502" r="100.3875" gradientTransform="matrix(1 0 0 9.911592e-002 0 214.3655)" gradientUnits="userSpaceOnUse">
				<stop  offset="0" style="stop-color:#FFFFFF"/>
				<stop  offset="0.102" style="stop-color:#FFFFFF"/>
				<stop  offset="0.2118" style="stop-color:#FFFFFF;stop-opacity:0.498"/>
				<stop  offset="0.3804" style="stop-color:#FFFFFF;stop-opacity:0.1137"/>
				<stop  offset="0.6471" style="stop-color:#FEFEFE;stop-opacity:0"/>
				<stop  offset="1" style="stop-color:#FDFDFD;stop-opacity:0"/>
			</radialGradient>
			<path fill-rule="evenodd" clip-rule="evenodd" fill="url(#SVGID_11_)" d="M211.9,238c0-2.7,10.8-5,32.4-6.9
				c21.8-1.9,48.1-2.8,78.8-2.8c30.8,0,56.9,0.9,78.4,2.8c21.9,1.9,32.8,4.2,32.8,6.9c0,2.7-10.9,4.9-32.8,6.7
				c-21.5,2-47.6,3-78.4,3c-30.7,0-57-1-78.8-3C222.6,242.8,211.9,240.6,211.9,238z"/>
		</g>
		<g>
			
				<radialGradient id="SVGID_12_" cx="231.9502" cy="154.5498" r="100.3875" gradientTransform="matrix(1 0 0 4.781472e-002 0 147.16)" gradientUnits="userSpaceOnUse">
				<stop  offset="0" style="stop-color:#FFFFFF"/>
				<stop  offset="0.102" style="stop-color:#FFFFFF"/>
				<stop  offset="0.2118" style="stop-color:#FFFFFF;stop-opacity:0.498"/>
				<stop  offset="0.3804" style="stop-color:#FFFFFF;stop-opacity:0.1098"/>
				<stop  offset="0.6471" style="stop-color:#FEFEFE;stop-opacity:0"/>
				<stop  offset="1" style="stop-color:#FDFDFD;stop-opacity:0"/>
			</radialGradient>
			<path fill-rule="evenodd" clip-rule="evenodd" fill="url(#SVGID_12_)" d="M232,149.9c30.7,0,56.8,0.4,78.3,1.4
				c21.9,1,32.9,2.1,32.9,3.3s-11,2.4-32.9,3.3c-21.5,0.9-47.6,1.4-78.3,1.4s-57-0.5-78.9-1.4c-21.6-0.9-32.4-2-32.4-3.3
				s10.8-2.4,32.4-3.3C174.9,150.3,201.2,149.9,232,149.9z"/>
		</g>
		<g>
			
				<radialGradient id="SVGID_13_" cx="256.3496" cy="21.6499" r="100.3875" gradientTransform="matrix(1 0 0 4.781472e-002 0 20.6147)" gradientUnits="userSpaceOnUse">
				<stop  offset="0" style="stop-color:#FFFFFF"/>
				<stop  offset="0.102" style="stop-color:#FFFFFF"/>
				<stop  offset="0.2118" style="stop-color:#FFFFFF;stop-opacity:0.498"/>
				<stop  offset="0.3804" style="stop-color:#FFFFFF;stop-opacity:0.1137"/>
				<stop  offset="0.6471" style="stop-color:#FEFEFE;stop-opacity:0"/>
				<stop  offset="1" style="stop-color:#FDFDFD;stop-opacity:0"/>
			</radialGradient>
			<path fill-rule="evenodd" clip-rule="evenodd" fill="url(#SVGID_13_)" d="M367.5,21.6c0,1.3-10.9,2.4-32.8,3.3
				c-21.5,0.9-47.7,1.4-78.4,1.4s-57-0.5-78.8-1.4c-21.6-0.9-32.4-2-32.4-3.3s10.8-2.4,32.4-3.4c21.8-0.9,48.1-1.3,78.8-1.3
				s56.9,0.4,78.4,1.3C356.6,19.3,367.5,20.4,367.5,21.6z"/>
		</g>
		<g>
			<g>
				<linearGradient id="SVGID_14_" gradientUnits="userSpaceOnUse" x1="327.9746" y1="193.75" x2="362.8246" y2="193.75">
					<stop  offset="0" style="stop-color:#000000"/>
					<stop  offset="6.666666e-002" style="stop-color:#060606"/>
					<stop  offset="0.1608" style="stop-color:#444444"/>
					<stop  offset="0.2902" style="stop-color:#1A1A1A"/>
					<stop  offset="0.651" style="stop-color:#3C3C3C"/>
					<stop  offset="0.7451" style="stop-color:#2D2D2D"/>
					<stop  offset="0.8235" style="stop-color:#515151"/>
					<stop  offset="0.8863" style="stop-color:#1C1C1C"/>
					<stop  offset="1" style="stop-color:#000000"/>
				</linearGradient>
				<rect x="327.9" y="186.2" fill-rule="evenodd" clip-rule="evenodd" fill="url(#SVGID_14_)" width="34.9" height="15.2"/>
			</g>
			<g>
				
					<radialGradient id="SVGID_15_" cx="343.9004" cy="186.75" r="44.6625" gradientTransform="matrix(1 0 0 0.4814 0 96.8508)" gradientUnits="userSpaceOnUse">
					<stop  offset="0" style="stop-color:#ABB2AE;stop-opacity:0"/>
					<stop  offset="0.6157" style="stop-color:#ABB2AE"/>
					<stop  offset="1" style="stop-color:#ABB2AE"/>
				</radialGradient>
				<rect x="327.5" y="183.7" fill-rule="evenodd" clip-rule="evenodd" fill="url(#SVGID_15_)" width="35.5" height="19.6"/>
			</g>
			<g>
				<path fill-rule="evenodd" clip-rule="evenodd" d="M361.5,182.6c1.5,0.8,2.3,1.7,2.5,2.7l-0.1,0.9c-0.3,1.3-2,2.4-5,3.4l-2.8,0.7
					c-7.1,1.2-14.2,1.2-21.4,0h-0.3c-0.1,0-0.1,0-0.2,0c-0.7-0.1-1.5-0.3-2.3-0.6c-3.6-1.2-5.5-2.5-5.5-4v-0.1
					c0-1.5,1.5-2.8,4.6-3.8c9.9-2.2,19.3-2.2,28.3,0c0.1,0,0.2,0.1,0.3,0.1C360.3,182.1,361,182.3,361.5,182.6z"/>
			</g>
			<g>
				<linearGradient id="SVGID_16_" gradientUnits="userSpaceOnUse" x1="327.8379" y1="183.9141" x2="362.9629" y2="183.9141">
					<stop  offset="0" style="stop-color:#000000"/>
					<stop  offset="6.666666e-002" style="stop-color:#060606"/>
					<stop  offset="0.1608" style="stop-color:#444444"/>
					<stop  offset="0.2902" style="stop-color:#1A1A1A"/>
					<stop  offset="0.651" style="stop-color:#3C3C3C"/>
					<stop  offset="0.7451" style="stop-color:#2D2D2D"/>
					<stop  offset="0.8235" style="stop-color:#515151"/>
					<stop  offset="0.8863" style="stop-color:#1C1C1C"/>
					<stop  offset="1" style="stop-color:#000000"/>
				</linearGradient>
				<path fill-rule="evenodd" clip-rule="evenodd" fill="url(#SVGID_16_)" d="M335.4,189.3c0,0-0.1,0-0.2,0
					c-0.8-0.3-1.6-0.5-2.4-0.6c-3-0.9-4.7-2-5.1-3.3v-7.8h0.5c0.3,0.4,0.8,0.8,1.5,1.1c0.9,0.7,1.9,1.5,3.3,2.2
					c0.7,0.4,1.4,0.6,2.1,0.8c0.1,0,0.2,0,0.2,0h0.3c6.8,1.8,13.5,1.8,20.1,0l2.7-1c0.4-0.2,0.8-0.4,1.2-0.5
					c0.5-0.3,0.9-0.6,1.3-0.8c0.2-0.2,0.4-0.4,0.6-0.7c0.6-0.3,1-0.6,1.3-1h0.4v7.2c-0.1,1.3-1.7,2.5-4.8,3.5c-0.1,0-0.8,0.2-2,0.7
					C349.4,190.5,342.5,190.5,335.4,189.3z"/>
			</g>
			<g>
				<path fill-rule="evenodd" clip-rule="evenodd" d="M345.4,183.2c-4.9,0-9.1-0.5-12.5-1.5c-3.5-0.9-5.2-2-5.2-3.4
					c0-1.3,1.7-2.5,5.2-3.5c3.4-0.9,7.6-1.4,12.5-1.4c4.8,0,9,0.5,12.4,1.4c3.5,1,5.2,2.2,5.2,3.5c0,1.3-1.7,2.5-5.2,3.4
					C354.4,182.7,350.2,183.2,345.4,183.2z"/>
			</g>
			<g>
				<path fill-rule="evenodd" clip-rule="evenodd" d="M359.9,177.7c-0.6,1.1-3.4,2-8.5,2.8c-5.1,0.8-9.8,0.7-14.1-0.2
					c-4.2-0.9-6.5-1.8-6.7-2.6l2.2-22.5h24.5L359.9,177.7z"/>
			</g>
			<g>
				<path fill-rule="evenodd" clip-rule="evenodd" fill="#1F1F1F" d="M348.5,180.5c-0.4,0-0.7,0-1.1,0c-0.1,0-0.3,0-0.4,0
					c-0.4,0-0.8,0-1.2,0c-0.4,0-0.8,0-1.3,0c-0.2,0-0.3,0-0.5,0c-0.6,0-1.1,0-1.6,0l0.5-22.1c0.1,0,0.3,0,0.3,0h4.2h1V180.5z"/>
				
					<linearGradient id="SVGID_17_" gradientUnits="userSpaceOnUse" x1="330.1729" y1="189.3291" x2="340.7678" y2="189.3291" gradientTransform="matrix(0.9981 -6.134994e-002 9.571212e-002 0.996 -1.889989e-004 -6.560981e-005)">
					<stop  offset="0" style="stop-color:#1F1F1F"/>
					<stop  offset="0.651" style="stop-color:#3C3C3C"/>
					<stop  offset="1" style="stop-color:#000000"/>
				</linearGradient>
				<path fill-rule="evenodd" clip-rule="evenodd" fill="url(#SVGID_17_)" d="M347.5,158.4v-0.1c1.2-0.1,2.5-0.2,3.9-0.3
					c2.7-0.1,4.7-0.9,5.8-2.4l1.6,14.8l0.2,0.9l1,6.8c-0.6,0.3-1.3,0.5-2.1,0.8c-2.7,0.9-5.8,1.4-9.3,1.7v-22.1H347.5z"/>
				
					<linearGradient id="SVGID_18_" gradientUnits="userSpaceOnUse" x1="-357.7417" y1="-146.874" x2="-347.1467" y2="-146.874" gradientTransform="matrix(-0.9981 -6.134994e-002 9.523825e-002 -0.996 -3.582686e-004 7.342845e-004)">
					<stop  offset="0" style="stop-color:#1F1F1F"/>
					<stop  offset="0.651" style="stop-color:#3C3C3C"/>
					<stop  offset="1" style="stop-color:#000000"/>
				</linearGradient>
				<path fill-rule="evenodd" clip-rule="evenodd" fill="url(#SVGID_18_)" d="M342.5,180.5c-3.6-0.2-6.8-0.7-9.5-1.7
					c-0.7-0.2-1.4-0.5-1.9-0.8l1-6.9l0-0.8l0.8-15c1.6,1.7,3.7,2.7,6,2.8c2,0.1,3.4,0.2,4.2,0.2L342.5,180.5z"/>
			</g>
			<g>
				<path fill-rule="evenodd" clip-rule="evenodd" fill="#333333" d="M357.3,155.4c-0.2,0.9-1.3,1.7-3.3,2.3c-5.8,1.4-11.8,1.4-18,0
					c-2.2-0.7-3.3-1.5-3.3-2.5c0-0.5,0.4-1,1.1-1.5c0.3-0.3,0.8-0.5,1.4-0.6c0.2-0.1,0.6-0.2,1.3-0.4c5.5-1.5,11-1.5,16.6,0
					c0.6,0.1,1,0.2,1,0.2C356.2,153.4,357.2,154.2,357.3,155.4z"/>
			</g>
			<g>
				<path fill-rule="evenodd" clip-rule="evenodd" fill="#4D4D4D" d="M340.3,152.8c3.2-0.5,6.4-0.5,9.5,0c0.2,0,0.5,0.1,0.7,0.2
					c1.5,0.4,2.2,0.9,2.2,1.5c0,0.5-0.7,1-2.2,1.4c-1.5,0.5-3.3,0.8-5.5,0.8c-2.2,0-4-0.3-5.5-0.8c-1.5-0.4-2.2-0.9-2.2-1.4
					c0-0.6,0.7-1.1,2.2-1.5C339.8,152.9,340.1,152.8,340.3,152.8z"/>
			</g>
			<g>
				<linearGradient id="SVGID_19_" gradientUnits="userSpaceOnUse" x1="348.5752" y1="168.8247" x2="355.3252" y2="168.8247">
					<stop  offset="0" style="stop-color:#6E6E6E"/>
					<stop  offset="1" style="stop-color:#000000"/>
				</linearGradient>
				<path fill-rule="evenodd" clip-rule="evenodd" fill="url(#SVGID_19_)" d="M355.7,160.3v0.1l2.1,16.9c-0.4,0.1-0.7,0.2-1.1,0.2
					c-1.4,0.3-2.8,0.6-4.3,0.8c-0.3,0-0.6,0-0.9,0l-0.4-17h0.6l0.7,15.9c1.3-0.2,2.7-0.4,4.1-0.8l-2.1-15.8
					c-0.8,0.2-1.7,0.4-2.7,0.5c-0.2,0-0.4,0-0.6,0.1l-0.1-1.2h0.1c0,0,0.1,0,0.2,0l0.4,0c0.9-0.1,1.8-0.3,2.6-0.5
					c0.4-0.1,0.8-0.2,1.2-0.4L355.7,160.3z"/>
				
					<linearGradient id="SVGID_20_" gradientUnits="userSpaceOnUse" x1="372.2529" y1="99.5044" x2="377.6069" y2="99.5044" gradientTransform="matrix(0.9806 0.1961 -0.3467 0.9505 1.138449e-005 2.362132e-004)">
					<stop  offset="0" style="stop-color:#6E6E6E"/>
					<stop  offset="1" style="stop-color:#000000"/>
				</linearGradient>
				<path fill-rule="evenodd" clip-rule="evenodd" fill="url(#SVGID_20_)" d="M337.7,159.9c0.8,0.2,1.4,0.3,1.8,0.3l-1.2,18.2
					c-0.6-0.1-0.9-0.2-1-0.2c-0.8-0.1-1.5-0.3-2.3-0.5c-0.3,0-0.6-0.1-0.9-0.2l2-17.9C336.4,159.6,336.9,159.7,337.7,159.9z
					 M338.5,160.9c-0.2,0.1-0.7,0-1.4-0.2l-2,16.1c0.8,0.1,1.6,0.3,2.4,0.5L338.5,160.9z"/>
				<path fill-rule="evenodd" clip-rule="evenodd" d="M344.1,160.4c1,0,2,0.1,2.9,0.1c0.2,0,0.3,0,0.5,0l0.3,18.3
					c-0.2,0-0.4,0-0.6,0c-1.6,0-3.2,0-4.8-0.2c-0.3,0-0.6,0-0.8,0l2-18.2C343.7,160.3,343.9,160.3,344.1,160.4z M347,161.5
					c-0.9,0-1.9,0-3-0.1l-1.6,16.2c1.6,0.1,3.1,0.1,4.8,0L347,161.5z"/>
			</g>
			<g>
				
					<radialGradient id="SVGID_21_" cx="351.4004" cy="157.9502" r="6.275" gradientTransform="matrix(1 0 0 0.741 0 40.9034)" gradientUnits="userSpaceOnUse">
					<stop  offset="0" style="stop-color:#FFFFFF;stop-opacity:0.6314"/>
					<stop  offset="1" style="stop-color:#FDFDFD;stop-opacity:0"/>
				</radialGradient>
				<path fill-rule="evenodd" clip-rule="evenodd" fill="url(#SVGID_21_)" d="M357.3,156.5c0,0.1,0,0.1,0,0.1
					c-1.9,1.8-6,2.6-12.3,2.5c-0.1,0-0.2,0-0.2,0c-0.1-0.1-0.2-0.2-0.2-0.2c0-0.1,0-0.1,0.2-0.1c0-0.1,0.1-0.1,0.2-0.1
					c6,0.1,9.9-0.6,11.8-2.2c0-0.1,0.1-0.1,0.3-0.1c0.1,0,0.1,0,0.3,0C357.3,156.4,357.3,156.4,357.3,156.5z"/>
				
					<radialGradient id="SVGID_22_" cx="341.4004" cy="153.4004" r="4.0874" gradientTransform="matrix(1 0 0 0.7431 0 39.4056)" gradientUnits="userSpaceOnUse">
					<stop  offset="0" style="stop-color:#FFFFFF;stop-opacity:0.451"/>
					<stop  offset="1" style="stop-color:#FDFDFD;stop-opacity:0"/>
				</radialGradient>
				<path fill-rule="evenodd" clip-rule="evenodd" fill="url(#SVGID_22_)" d="M345.3,152.5c0.1,0,0.2,0,0.3,0.1c0,0,0.1,0.1,0.1,0.1
					c0,0.1,0,0.1-0.1,0.2c-0.1,0.1-0.2,0.1-0.3,0.1c-4,0-6.5,0.4-7.3,1.2c0,0.1-0.1,0.1-0.2,0.1c-0.1,0-0.2,0-0.3-0.1
					c-0.1,0-0.1-0.1-0.1-0.1c0-0.1,0-0.2,0-0.2C338.3,153,340.9,152.5,345.3,152.5z"/>
				
					<radialGradient id="SVGID_23_" cx="336.2002" cy="157.25" r="3.3" gradientTransform="matrix(1 0 0 0.7386 0 41.0994)" gradientUnits="userSpaceOnUse">
					<stop  offset="0" style="stop-color:#FFFFFF;stop-opacity:0.6824"/>
					<stop  offset="1" style="stop-color:#FDFDFD;stop-opacity:0"/>
				</radialGradient>
				<path fill-rule="evenodd" clip-rule="evenodd" fill="url(#SVGID_23_)" d="M341.1,158.5c0,0,0.1,0,0.2,0c0.1,0,0.1,0.1,0.1,0.2
					c0,0,0,0.1-0.1,0.2c-0.1,0-0.2,0-0.3,0c-4.1-0.1-6.8-0.9-8.1-2.3c0,0-0.1-0.1-0.1-0.1c0-0.1,0-0.1,0.1-0.2c0.1,0,0.2,0,0.3,0
					s0.2,0,0.2,0.1C334.7,157.6,337.3,158.3,341.1,158.5z"/>
				
					<radialGradient id="SVGID_24_" cx="351.2998" cy="169.4502" r="12.8" gradientTransform="matrix(1 0 0 0.7412 0 43.8519)" gradientUnits="userSpaceOnUse">
					<stop  offset="0" style="stop-color:#FFFFFF;stop-opacity:0.2824"/>
					<stop  offset="1" style="stop-color:#FDFDFD;stop-opacity:0"/>
				</radialGradient>
				<path fill-rule="evenodd" clip-rule="evenodd" fill="url(#SVGID_24_)" d="M351.4,160.3c0.1,0.1,0.1,0.1,0.1,0.2l0.3,18
					c0,0,0,0.1,0,0.2c-0.1,0-0.2,0-0.3,0c-0.1,0-0.1,0-0.2,0c-0.1-0.1-0.2-0.2-0.2-0.2l-0.3-18c0-0.1,0-0.1,0.2-0.2c0,0,0.1,0,0.2,0
					C351.3,160.3,351.3,160.3,351.4,160.3z"/>
				
					<radialGradient id="SVGID_25_" cx="334.4004" cy="181.5996" r="6.475" gradientTransform="matrix(1 0 0 0.7413 0 46.9775)" gradientUnits="userSpaceOnUse">
					<stop  offset="0" style="stop-color:#FFFFFF;stop-opacity:0.498"/>
					<stop  offset="1" style="stop-color:#FDFDFD;stop-opacity:0"/>
				</radialGradient>
				<path fill-rule="evenodd" clip-rule="evenodd" fill="url(#SVGID_25_)" d="M340.1,182.9c0.1,0,0.1,0,0.2,0.1c0,0.1,0,0.1,0,0.2
					c0,0.1,0,0.2-0.1,0.2c-0.1,0-0.1,0-0.2,0c-5.9-0.6-9.7-1.6-11.5-3.1c-0.1-0.1-0.2-0.2-0.2-0.2c0-0.1,0-0.2,0.2-0.2
					c0.1-0.1,0.1-0.1,0.3-0.1c0.1,0,0.2,0,0.3,0.1C330.7,181.3,334.4,182.3,340.1,182.9z"/>
				
					<radialGradient id="SVGID_26_" cx="354.0498" cy="181.6016" r="8.9121" gradientTransform="matrix(1 0 0 0.7419 0 46.8649)" gradientUnits="userSpaceOnUse">
					<stop  offset="0" style="stop-color:#FFFFFF;stop-opacity:0.6"/>
					<stop  offset="1" style="stop-color:#FDFDFD;stop-opacity:0"/>
				</radialGradient>
				<path fill-rule="evenodd" clip-rule="evenodd" fill="url(#SVGID_26_)" d="M345.8,183.5c-0.1,0-0.2,0-0.2,0
					c-0.1-0.1-0.2-0.1-0.2-0.2c0-0.1,0-0.1,0.2-0.2c0,0,0.1-0.1,0.2-0.1c7.1,0,12.5-1.1,16.2-3.4c0.1,0,0.2,0,0.3,0
					c0.1,0,0.1,0,0.2,0.1c0,0.1,0,0.1,0,0.2s0,0.1-0.1,0.1C358.6,182.5,353.1,183.6,345.8,183.5z"/>
			</g>
			<g>
				
					<radialGradient id="SVGID_27_" cx="284.9023" cy="238.5059" r="5.3738" gradientTransform="matrix(0.9863 -0.1652 6.513089e-002 0.2093 55.9756 179.9212)" gradientUnits="userSpaceOnUse">
					<stop  offset="0" style="stop-color:#FFFFFF"/>
					<stop  offset="0.1098" style="stop-color:#FFFFFF"/>
					<stop  offset="0.3176" style="stop-color:#FEFEFE;stop-opacity:0.8824"/>
					<stop  offset="0.4902" style="stop-color:#FBFBFB;stop-opacity:0.498"/>
					<stop  offset="0.7373" style="stop-color:#F9F9F9;stop-opacity:8.627451e-002"/>
					<stop  offset="1" style="stop-color:#F6F6F6;stop-opacity:0"/>
				</radialGradient>
				<path fill-rule="evenodd" clip-rule="evenodd" fill="url(#SVGID_27_)" d="M353,184.1c-1.7,0.3-3.3,0.5-4.7,0.4
					c-1.3-0.1-2-0.3-2.3-0.8c-0.1-0.4,0.4-0.8,1.5-1.3c1.2-0.5,2.7-0.9,4.4-1.2c1.8-0.3,3.3-0.4,4.5-0.4c1.4,0.1,2.2,0.4,2.3,0.8
					c0.2,0.5-0.3,0.9-1.5,1.4C356.1,183.5,354.7,183.8,353,184.1z"/>
			</g>
			<g>
				
					<radialGradient id="SVGID_28_" cx="214.4771" cy="197.208" r="6.2781" gradientTransform="matrix(0.9935 -0.1135 0.1115 0.1493 114.5704 153.4424)" gradientUnits="userSpaceOnUse">
					<stop  offset="0" style="stop-color:#FFFFFF"/>
					<stop  offset="0.1098" style="stop-color:#FFFFFF"/>
					<stop  offset="0.3176" style="stop-color:#FEFEFE;stop-opacity:0.8824"/>
					<stop  offset="0.4902" style="stop-color:#FBFBFB;stop-opacity:0.498"/>
					<stop  offset="0.7373" style="stop-color:#F9F9F9;stop-opacity:8.627451e-002"/>
					<stop  offset="1" style="stop-color:#F6F6F6;stop-opacity:0"/>
				</radialGradient>
				<path fill-rule="evenodd" clip-rule="evenodd" fill="url(#SVGID_28_)" d="M357.1,157.5c0.2,0.4-0.3,0.8-1.6,1.2
					c-1.2,0.4-2.9,0.7-4.9,0.9c-2,0.2-3.9,0.3-5.6,0.3c-1.7,0-2.6-0.2-2.9-0.6c-0.3-0.4,0.3-0.8,1.6-1.1c1.3-0.4,3-0.7,5-0.9
					c2.1-0.2,3.9-0.3,5.4-0.2C355.8,157.1,356.8,157.3,357.1,157.5z"/>
			</g>
		</g>
		<g>
			<g>
				<linearGradient id="SVGID_29_" gradientUnits="userSpaceOnUse" x1="240.7998" y1="215.5752" x2="281.5498" y2="215.5752">
					<stop  offset="0" style="stop-color:#000000"/>
					<stop  offset="6.666666e-002" style="stop-color:#060606"/>
					<stop  offset="0.1608" style="stop-color:#444444"/>
					<stop  offset="0.2902" style="stop-color:#1A1A1A"/>
					<stop  offset="0.651" style="stop-color:#3C3C3C"/>
					<stop  offset="0.7451" style="stop-color:#2D2D2D"/>
					<stop  offset="0.8235" style="stop-color:#515151"/>
					<stop  offset="0.8863" style="stop-color:#1C1C1C"/>
					<stop  offset="1" style="stop-color:#000000"/>
				</linearGradient>
				<rect x="240.8" y="206.7" fill-rule="evenodd" clip-rule="evenodd" fill="url(#SVGID_29_)" width="40.8" height="17.8"/>
			</g>
			<g>
				
					<radialGradient id="SVGID_30_" cx="259.5498" cy="207.4502" r="52.1375" gradientTransform="matrix(1.1995 0 0 0.4812 -53.9637 107.6294)" gradientUnits="userSpaceOnUse">
					<stop  offset="0" style="stop-color:#ABB2AE;stop-opacity:0"/>
					<stop  offset="0.6157" style="stop-color:#ABB2AE"/>
					<stop  offset="1" style="stop-color:#ABB2AE"/>
				</radialGradient>
				<rect x="234.4" y="203.8" fill-rule="evenodd" clip-rule="evenodd" fill="url(#SVGID_30_)" width="49.6" height="22.9"/>
			</g>
			<g>
				<path fill-rule="evenodd" clip-rule="evenodd" d="M248.4,211.5c0,0-0.1,0-0.3,0c-0.9-0.2-1.8-0.4-2.7-0.6
					c-4.2-1.5-6.3-3-6.4-4.7v-0.1c0-1.8,1.8-3.3,5.4-4.5c11.5-2.5,22.5-2.5,33,0c0.1,0.1,0.2,0.2,0.4,0.2c0.8,0.3,1.4,0.5,2,0.8
					c1.8,0.9,2.8,2,2.8,3.2l-0.1,1c-0.3,1.5-2.2,2.9-5.7,4l-3.3,0.8c-8.3,1.4-16.6,1.4-25,0H248.4z"/>
			</g>
			<g>
				<linearGradient id="SVGID_31_" gradientUnits="userSpaceOnUse" x1="240.6377" y1="204.126" x2="281.6377" y2="204.126">
					<stop  offset="0" style="stop-color:#000000"/>
					<stop  offset="6.666666e-002" style="stop-color:#060606"/>
					<stop  offset="0.1608" style="stop-color:#444444"/>
					<stop  offset="0.2902" style="stop-color:#1A1A1A"/>
					<stop  offset="0.651" style="stop-color:#3C3C3C"/>
					<stop  offset="0.7451" style="stop-color:#2D2D2D"/>
					<stop  offset="0.8235" style="stop-color:#515151"/>
					<stop  offset="0.8863" style="stop-color:#1C1C1C"/>
					<stop  offset="1" style="stop-color:#000000"/>
				</linearGradient>
				<path fill-rule="evenodd" clip-rule="evenodd" fill="url(#SVGID_31_)" d="M249.3,201.8h0.3c7.9,2,15.7,2,23.5,0l3.1-1.3
					c0.5-0.2,1-0.4,1.4-0.6c0.5-0.3,1-0.6,1.3-1c0.3-0.3,0.5-0.5,0.8-0.8c0.6-0.4,1.1-0.8,1.5-1.2h0.4v8.4c0,1.6-1.9,2.9-5.5,4
					c-0.1,0-0.8,0.3-2.3,0.8c-8,1.5-16.1,1.6-24.4,0.2c0,0-0.1,0-0.1,0c-0.9-0.3-1.9-0.5-2.9-0.7c-3.5-1.1-5.5-2.4-5.9-3.8v-9.1h0.5
					c0.3,0.5,0.8,1,1.6,1.4c1,0.8,2.3,1.7,3.8,2.5c0.9,0.4,1.7,0.7,2.4,0.9C249.2,201.6,249.3,201.7,249.3,201.8z"/>
			</g>
			<g>
				<path fill-rule="evenodd" clip-rule="evenodd" d="M240.6,197.6c0-1.6,2-2.9,6.1-4c4-1.1,8.9-1.7,14.5-1.7
					c5.7,0,10.6,0.6,14.6,1.7c4,1.1,6,2.5,6,4c0,1.5-2,2.9-6,4c-4,1.2-8.9,1.8-14.6,1.8c-5.6,0-10.5-0.6-14.5-1.8
					C242.6,200.5,240.6,199.1,240.6,197.6z"/>
			</g>
			<g>
				<path fill-rule="evenodd" clip-rule="evenodd" d="M251.8,199.9c-5-0.9-7.6-2-7.8-3.1l2.5-26.1h28.7l3,26.1
					c-0.6,1.2-3.9,2.2-9.9,3.2C262.3,201,256.8,200.9,251.8,199.9z"/>
			</g>
			<g>
				<path fill-rule="evenodd" clip-rule="evenodd" fill="#1F1F1F" d="M259.8,200.2c-0.7-0.1-1.3-0.1-1.9-0.2l0.6-25.7h0.4h4.9h1.1
					v25.7c-0.4,0-0.8,0-1.3,0.1c-0.1,0-0.3,0-0.5,0c-0.5,0-0.9,0-1.3,0c-0.5,0-1,0-1.5,0C260.1,200.2,259.9,200.2,259.8,200.2z"/>
				
					<linearGradient id="SVGID_32_" gradientUnits="userSpaceOnUse" x1="-275.3662" y1="-169.8418" x2="-262.9685" y2="-169.8418" gradientTransform="matrix(-0.9982 -6.049506e-002 9.603214e-002 -0.996 -3.718585e-005 2.179444e-004)">
					<stop  offset="0" style="stop-color:#1F1F1F"/>
					<stop  offset="0.651" style="stop-color:#3C3C3C"/>
					<stop  offset="1" style="stop-color:#000000"/>
				</linearGradient>
				<path fill-rule="evenodd" clip-rule="evenodd" fill="url(#SVGID_32_)" d="M258.8,174.4h-0.4l-0.6,25.7c0.6,0,1.2,0.1,1.9,0.2
					c-5.1-0.1-9.4-0.8-13.1-2c-0.9-0.3-1.6-0.5-2.3-0.8l1.1-8.1l0.2-1l0.8-17.5c1.9,2,4.3,3.1,7,3.3
					C256.3,174.2,258.1,174.3,258.8,174.4L258.8,174.4z"/>
				
					<linearGradient id="SVGID_33_" gradientUnits="userSpaceOnUse" x1="244.8877" y1="201.5361" x2="257.2854" y2="201.5361" gradientTransform="matrix(0.9982 -6.049506e-002 9.652341e-002 0.996 -2.633408e-004 -2.092421e-004)">
					<stop  offset="0" style="stop-color:#1F1F1F"/>
					<stop  offset="0.651" style="stop-color:#3C3C3C"/>
					<stop  offset="1" style="stop-color:#000000"/>
				</linearGradient>
				<path fill-rule="evenodd" clip-rule="evenodd" fill="url(#SVGID_33_)" d="M264.8,200.1v-25.7h-1.1v-0.2c1.4-0.1,2.9-0.2,4.6-0.3
					c3.2-0.2,5.4-1.1,6.7-2.9l2,17.3l0.1,1.1l1.1,7.9c-0.7,0.3-1.5,0.6-2.5,0.9C272.6,199.2,268.9,199.8,264.8,200.1z"/>
			</g>
			<g>
				<path fill-rule="evenodd" clip-rule="evenodd" fill="#333333" d="M270.2,167.5c0.7,0.2,1.1,0.4,1.2,0.4c2.4,0.6,3.7,1.6,3.8,2.9
					c-0.2,1.1-1.5,2-4,2.7c-6.8,1.6-13.8,1.6-21,0c-2.5-0.8-3.8-1.8-3.8-2.9c0-0.6,0.4-1.2,1.3-1.7c0.4-0.3,0.9-0.6,1.6-0.8
					c0.3-0.1,0.8-0.3,1.5-0.5C257.2,165.9,263.6,165.9,270.2,167.5z"/>
			</g>
			<g>
				<path fill-rule="evenodd" clip-rule="evenodd" fill="#4D4D4D" d="M254.5,171.5c-1.8-0.5-2.7-1-2.7-1.7c0-0.7,0.9-1.3,2.7-1.8
					c0.3-0.1,0.5-0.2,0.8-0.2c3.7-0.6,7.4-0.6,11.1,0c0.3,0,0.5,0.1,0.8,0.2c1.7,0.4,2.6,1,2.6,1.8c0,0.6-0.9,1.2-2.6,1.7
					c-1.8,0.6-3.9,0.8-6.3,0.8C258.4,172.3,256.3,172,254.5,171.5z"/>
			</g>
			<g>
				<linearGradient id="SVGID_34_" gradientUnits="userSpaceOnUse" x1="264.9629" y1="186.5508" x2="272.8379" y2="186.5508">
					<stop  offset="0" style="stop-color:#6E6E6E"/>
					<stop  offset="1" style="stop-color:#000000"/>
				</linearGradient>
				<path fill-rule="evenodd" clip-rule="evenodd" fill="url(#SVGID_34_)" d="M273.3,176.6L273.3,176.6l2.5,19.7
					c-0.4,0.1-0.8,0.3-1.3,0.4c-1.6,0.4-3.3,0.7-5,0.9c-0.3,0-0.7,0.1-1,0.1l-0.5-19.9h0.8l0.8,18.7c1.6-0.2,3.2-0.5,4.8-0.9
					l-2.5-18.5c-1,0.3-2.1,0.5-3.1,0.6c-0.3,0-0.5,0-0.8,0.1l-0.1-1.3h0.1c0,0,0.1,0,0.3,0l0.3-0.1c1.1-0.2,2.2-0.4,3.1-0.6
					c0.5-0.1,1-0.2,1.4-0.3L273.3,176.6z"/>
				<path fill-rule="evenodd" clip-rule="evenodd" d="M263.7,176.7L264,198c-0.2,0-0.5,0-0.7,0c-1.8,0.1-3.7,0-5.5-0.2
					c-0.4,0-0.7,0-1,0l2.4-21.2c0.2,0,0.4,0,0.6,0c1.1,0,2.2,0.1,3.3,0.1C263.2,176.7,263.5,176.7,263.7,176.7z M263,178
					c-1,0-2.2,0-3.3,0l-1.9,18.8c1.8,0.1,3.7,0.1,5.5,0L263,178z"/>
				
					<linearGradient id="SVGID_35_" gradientUnits="userSpaceOnUse" x1="295.8574" y1="133.6768" x2="302.1037" y2="133.6768" gradientTransform="matrix(0.9806 0.1961 -0.3455 0.9507 6.556511e-005 -3.805757e-004)">
					<stop  offset="0" style="stop-color:#6E6E6E"/>
					<stop  offset="1" style="stop-color:#000000"/>
				</linearGradient>
				<path fill-rule="evenodd" clip-rule="evenodd" fill="url(#SVGID_35_)" d="M252.3,176.1c0.9,0.2,1.6,0.4,2.1,0.4l-1.4,21.2
					c-0.6-0.2-1-0.3-1.2-0.3c-0.9-0.1-1.8-0.3-2.8-0.6c-0.3,0-0.6-0.1-1-0.2l2.4-21C250.7,175.7,251.3,175.9,252.3,176.1z
					 M253.2,177.3c-0.3,0.1-0.8,0-1.6-0.3l-2.4,18.8c0.9,0.1,1.8,0.3,2.8,0.5L253.2,177.3z"/>
			</g>
			<g>
				
					<radialGradient id="SVGID_36_" cx="268.0996" cy="187.2998" r="14.95" gradientTransform="matrix(1 0 0 0.7408 0 48.5476)" gradientUnits="userSpaceOnUse">
					<stop  offset="0" style="stop-color:#FFFFFF;stop-opacity:0.2824"/>
					<stop  offset="1" style="stop-color:#FDFDFD;stop-opacity:0"/>
				</radialGradient>
				<path fill-rule="evenodd" clip-rule="evenodd" fill="url(#SVGID_36_)" d="M268,176.5c0.1,0,0.2,0,0.3,0.1c0,0,0,0.1,0,0.2
					l0.4,21c0,0.1,0,0.2-0.2,0.3c-0.1,0.1-0.2,0.1-0.3,0.1c-0.1,0-0.2,0-0.3-0.1c-0.1-0.1-0.2-0.2-0.2-0.3l-0.3-21
					c0-0.1,0.1-0.2,0.2-0.2C267.8,176.5,267.8,176.5,268,176.5z"/>
				
					<radialGradient id="SVGID_37_" cx="256.5498" cy="168.5" r="4.7625" gradientTransform="matrix(1 0 0 0.7428 0 43.3412)" gradientUnits="userSpaceOnUse">
					<stop  offset="0" style="stop-color:#FFFFFF;stop-opacity:0.451"/>
					<stop  offset="1" style="stop-color:#FDFDFD;stop-opacity:0"/>
				</radialGradient>
				<path fill-rule="evenodd" clip-rule="evenodd" fill="url(#SVGID_37_)" d="M261.5,168c-0.1,0.1-0.2,0.1-0.4,0.1
					c-4.7,0-7.5,0.5-8.4,1.4c-0.1,0.1-0.2,0.1-0.3,0.1c-0.1,0-0.2,0-0.3-0.1c-0.1-0.1-0.2-0.1-0.2-0.1c0-0.1,0-0.2,0.1-0.3
					c1-1,4-1.6,9-1.6c0.1,0,0.3,0,0.4,0.1c0,0,0,0.1,0,0.2C261.5,167.8,261.5,167.9,261.5,168z"/>
				
					<radialGradient id="SVGID_38_" cx="250.5" cy="173" r="3.85" gradientTransform="matrix(1 0 0 0.7435 0 44.3734)" gradientUnits="userSpaceOnUse">
					<stop  offset="0" style="stop-color:#FFFFFF;stop-opacity:0.6824"/>
					<stop  offset="1" style="stop-color:#FDFDFD;stop-opacity:0"/>
				</radialGradient>
				<path fill-rule="evenodd" clip-rule="evenodd" fill="url(#SVGID_38_)" d="M256.3,174.4c0,0,0.1,0.1,0.2,0.1c0,0,0,0.1,0,0.2
					c0,0,0,0.1,0,0.2c-0.1,0-0.2,0-0.3,0c-4.8-0.2-8-1.1-9.5-2.7c0-0.1-0.1-0.1-0.1-0.2c0-0.1,0-0.2,0.1-0.2c0.1,0,0.2,0,0.3,0
					c0.1,0,0.2,0,0.2,0.1C248.8,173.4,251.8,174.2,256.3,174.4z"/>
				
					<radialGradient id="SVGID_39_" cx="268.2998" cy="173.8501" r="7.3" gradientTransform="matrix(1 0 0 0.7432 0 44.6533)" gradientUnits="userSpaceOnUse">
					<stop  offset="0" style="stop-color:#FFFFFF;stop-opacity:0.6314"/>
					<stop  offset="1" style="stop-color:#FDFDFD;stop-opacity:0"/>
				</radialGradient>
				<path fill-rule="evenodd" clip-rule="evenodd" fill="url(#SVGID_39_)" d="M260.6,175.3c-0.1,0-0.1,0-0.2-0.1
					c-0.1-0.1-0.2-0.2-0.2-0.3c0-0.1,0.1-0.1,0.2-0.1c0.1-0.1,0.1-0.1,0.2-0.1c7.1,0.1,11.7-0.8,13.9-2.6c0-0.1,0.1-0.1,0.3-0.1
					c0,0,0.1,0,0.2,0c0.1,0,0.2,0.1,0.2,0.2c0,0.1,0,0.1,0,0.2C272.8,174.3,268,175.3,260.6,175.3z"/>
				
					<radialGradient id="SVGID_40_" cx="248.4004" cy="201.4004" r="7.5625" gradientTransform="matrix(1 0 0 0.7405 0 52.2642)" gradientUnits="userSpaceOnUse">
					<stop  offset="0" style="stop-color:#FFFFFF;stop-opacity:0.498"/>
					<stop  offset="1" style="stop-color:#FDFDFD;stop-opacity:0"/>
				</radialGradient>
				<path fill-rule="evenodd" clip-rule="evenodd" fill="url(#SVGID_40_)" d="M241.7,199.3c0.1,0,0.3,0,0.3,0.2
					c2.1,1.6,6.4,2.8,13,3.5c0.1,0,0.2,0,0.3,0.1c0,0.1,0.1,0.2,0.1,0.3c0,0.1-0.1,0.2-0.2,0.2c-0.1,0-0.2,0-0.3,0
					c-6.9-0.7-11.4-1.9-13.5-3.7c-0.1-0.1-0.2-0.2-0.2-0.3c0-0.1,0.1-0.1,0.2-0.1C241.5,199.3,241.6,199.3,241.7,199.3z"/>
				
					<radialGradient id="SVGID_41_" cx="271.4004" cy="201.4512" r="10.4123" gradientTransform="matrix(1 0 0 0.7407 0 52.237)" gradientUnits="userSpaceOnUse">
					<stop  offset="0" style="stop-color:#FFFFFF;stop-opacity:0.6"/>
					<stop  offset="1" style="stop-color:#FDFDFD;stop-opacity:0"/>
				</radialGradient>
				<path fill-rule="evenodd" clip-rule="evenodd" fill="url(#SVGID_41_)" d="M281,199.2c0.1,0,0.2,0,0.3,0.1c0,0.1,0,0.2,0,0.2
					c0,0.1,0,0.2-0.1,0.2c-4.5,2.8-10.9,4.1-19.4,4c-0.1,0-0.2,0-0.3,0c-0.1-0.1-0.2-0.2-0.2-0.2c0-0.1,0.1-0.2,0.2-0.2
					c0-0.1,0.1-0.1,0.3-0.1c8.3,0.1,14.6-1.2,19-3.9C280.8,199.2,280.9,199.2,281,199.2z"/>
			</g>
			<g>
				
					<radialGradient id="SVGID_42_" cx="195.3555" cy="244.6055" r="6.2862" gradientTransform="matrix(0.9863 -0.165 6.760833e-002 0.2068 60.3367 184.5577)" gradientUnits="userSpaceOnUse">
					<stop  offset="0" style="stop-color:#FFFFFF"/>
					<stop  offset="0.1098" style="stop-color:#FFFFFF"/>
					<stop  offset="0.3176" style="stop-color:#FEFEFE;stop-opacity:0.8824"/>
					<stop  offset="0.4902" style="stop-color:#FBFBFB;stop-opacity:0.498"/>
					<stop  offset="0.7373" style="stop-color:#F9F9F9;stop-opacity:8.627451e-002"/>
					<stop  offset="1" style="stop-color:#F6F6F6;stop-opacity:0"/>
				</radialGradient>
				<path fill-rule="evenodd" clip-rule="evenodd" fill="url(#SVGID_42_)" d="M276.8,201.4c0.2,0.5-0.4,1.1-1.8,1.6
					c-1.3,0.6-2.9,1-4.9,1.4c-2,0.3-3.9,0.4-5.5,0.4c-1.5-0.1-2.4-0.4-2.6-0.9c-0.1-0.5,0.5-1,1.8-1.6c1.5-0.6,3.2-1.1,5.1-1.4
					c2.1-0.3,3.8-0.5,5.3-0.5C275.9,200.7,276.7,201,276.8,201.4z"/>
			</g>
			<g>
				
					<radialGradient id="SVGID_43_" cx="125.7368" cy="204.2627" r="7.3245" gradientTransform="matrix(0.9932 -0.116 0.1109 0.1485 118.654 158.8139)" gradientUnits="userSpaceOnUse">
					<stop  offset="0" style="stop-color:#FFFFFF"/>
					<stop  offset="0.1098" style="stop-color:#FFFFFF"/>
					<stop  offset="0.3176" style="stop-color:#FEFEFE;stop-opacity:0.8824"/>
					<stop  offset="0.4902" style="stop-color:#FBFBFB;stop-opacity:0.498"/>
					<stop  offset="0.7373" style="stop-color:#F9F9F9;stop-opacity:8.627451e-002"/>
					<stop  offset="1" style="stop-color:#F6F6F6;stop-opacity:0"/>
				</radialGradient>
				<path fill-rule="evenodd" clip-rule="evenodd" fill="url(#SVGID_43_)" d="M265.1,173c2.4-0.3,4.6-0.5,6.4-0.4
					c2,0.1,3.2,0.4,3.5,0.8c0.3,0.4-0.4,0.9-1.9,1.4c-1.5,0.5-3.4,0.8-5.7,1c-2.4,0.3-4.6,0.4-6.6,0.4c-1.9,0-3-0.3-3.3-0.8
					c-0.3-0.4,0.3-0.8,1.8-1.3C260.8,173.6,262.7,173.2,265.1,173z"/>
			</g>
		</g>
		<g>
			<g>
				<linearGradient id="SVGID_44_" gradientUnits="userSpaceOnUse" x1="332.7002" y1="215.5752" x2="373.4502" y2="215.5752">
					<stop  offset="0" style="stop-color:#000000"/>
					<stop  offset="6.666666e-002" style="stop-color:#060606"/>
					<stop  offset="0.1608" style="stop-color:#444444"/>
					<stop  offset="0.2902" style="stop-color:#1A1A1A"/>
					<stop  offset="0.651" style="stop-color:#3C3C3C"/>
					<stop  offset="0.7451" style="stop-color:#2D2D2D"/>
					<stop  offset="0.8235" style="stop-color:#515151"/>
					<stop  offset="0.8863" style="stop-color:#1C1C1C"/>
					<stop  offset="1" style="stop-color:#000000"/>
				</linearGradient>
				<rect x="332.7" y="206.7" fill-rule="evenodd" clip-rule="evenodd" fill="url(#SVGID_44_)" width="40.8" height="17.8"/>
			</g>
			<g>
				
					<radialGradient id="SVGID_45_" cx="351.4004" cy="207.4502" r="52.1375" gradientTransform="matrix(1.1935 0 0 0.4812 -69.7892 107.6294)" gradientUnits="userSpaceOnUse">
					<stop  offset="0" style="stop-color:#ABB2AE;stop-opacity:0"/>
					<stop  offset="0.6157" style="stop-color:#ABB2AE"/>
					<stop  offset="1" style="stop-color:#ABB2AE"/>
				</radialGradient>
				<rect x="326.8" y="203.8" fill-rule="evenodd" clip-rule="evenodd" fill="url(#SVGID_45_)" width="49.4" height="22.9"/>
			</g>
			<g>
				<path fill-rule="evenodd" clip-rule="evenodd" d="M331,206.1c0-1.8,1.8-3.3,5.3-4.5c11.5-2.5,22.6-2.5,33.1,0
					c0.1,0.1,0.2,0.2,0.3,0.2c0.8,0.3,1.4,0.5,2,0.8c1.8,0.9,2.8,2,2.9,3.2l-0.1,1c-0.4,1.5-2.3,2.9-5.7,4l-3.3,0.8
					c-8.3,1.4-16.6,1.4-25.1,0h-0.3c-0.1,0-0.2,0-0.3,0c-0.8-0.2-1.7-0.4-2.7-0.6c-4.2-1.5-6.3-3-6.3-4.7V206.1z"/>
			</g>
			<g>
				<linearGradient id="SVGID_46_" gradientUnits="userSpaceOnUse" x1="332.5498" y1="204.126" x2="373.5996" y2="204.126">
					<stop  offset="0" style="stop-color:#000000"/>
					<stop  offset="6.666666e-002" style="stop-color:#060606"/>
					<stop  offset="0.1608" style="stop-color:#444444"/>
					<stop  offset="0.2902" style="stop-color:#1A1A1A"/>
					<stop  offset="0.651" style="stop-color:#3C3C3C"/>
					<stop  offset="0.7451" style="stop-color:#2D2D2D"/>
					<stop  offset="0.8235" style="stop-color:#515151"/>
					<stop  offset="0.8863" style="stop-color:#1C1C1C"/>
					<stop  offset="1" style="stop-color:#000000"/>
				</linearGradient>
				<path fill-rule="evenodd" clip-rule="evenodd" fill="url(#SVGID_46_)" d="M332.5,205.9v-9.1h0.5c0.3,0.5,0.9,1,1.7,1.4
					c1,0.8,2.2,1.7,3.8,2.5c0.8,0.4,1.6,0.7,2.4,0.9c0.1,0,0.2,0.1,0.3,0.2h0.3c7.9,2,15.8,2,23.5,0l3.1-1.3
					c0.5-0.2,0.9-0.4,1.3-0.6c0.6-0.3,1-0.6,1.3-1c0.3-0.3,0.6-0.5,0.9-0.8c0.6-0.4,1.1-0.8,1.5-1.2h0.4v8.4c-0.1,1.6-1.9,2.9-5.5,4
					c-0.1,0-0.9,0.3-2.3,0.8c-8,1.5-16.1,1.6-24.3,0.2c0,0-0.1,0-0.2,0c-0.9-0.3-1.8-0.5-2.8-0.7C334.9,208.6,333,207.3,332.5,205.9
					z"/>
			</g>
			<g>
				<path fill-rule="evenodd" clip-rule="evenodd" d="M353,203.3c-5.7,0-10.5-0.6-14.5-1.8c-4-1.1-6-2.4-6-4c0-1.6,2-2.9,6-4
					c4-1.1,8.8-1.7,14.5-1.7c5.7,0,10.5,0.6,14.5,1.7c4,1.1,6.1,2.5,6.1,4c0,1.5-2,2.9-6.1,4C363.6,202.7,358.8,203.3,353,203.3z"/>
			</g>
			<g>
				<path fill-rule="evenodd" clip-rule="evenodd" d="M338.4,170.7h28.7l3,26.1c-0.6,1.2-3.9,2.2-9.9,3.2c-6,0.9-11.5,0.9-16.5-0.1
					c-5-0.9-7.6-2-7.9-3.1L338.4,170.7z"/>
			</g>
			<g>
				<path fill-rule="evenodd" clip-rule="evenodd" fill="#1F1F1F" d="M350.7,174.4h4.9h1.1v25.7c-0.4,0-0.9,0-1.3,0.1
					c-0.1,0-0.3,0-0.5,0c-0.4,0-0.9,0-1.3,0c-0.4,0-0.9,0-1.4,0c-0.1,0-0.3,0-0.5,0c-0.7-0.1-1.3-0.1-1.9-0.2l0.5-25.7H350.7z"/>
				
					<linearGradient id="SVGID_47_" gradientUnits="userSpaceOnUse" x1="-366.8999" y1="-164.2837" x2="-354.5022" y2="-164.2837" gradientTransform="matrix(-0.9982 -6.049506e-002 9.603214e-002 -0.996 -3.718585e-005 2.179444e-004)">
					<stop  offset="0" style="stop-color:#1F1F1F"/>
					<stop  offset="0.651" style="stop-color:#3C3C3C"/>
					<stop  offset="1" style="stop-color:#000000"/>
				</linearGradient>
				<path fill-rule="evenodd" clip-rule="evenodd" fill="url(#SVGID_47_)" d="M351.6,200.2c-5.1-0.1-9.4-0.8-13-2
					c-0.9-0.3-1.6-0.5-2.3-0.8l1.1-8.1l0.1-1l0.9-17.5c1.9,2,4.3,3.1,7,3.3c2.8,0.2,4.5,0.3,5.2,0.3v0.1h-0.4l-0.5,25.7
					C350.3,200.1,350.9,200.1,351.6,200.2z"/>
				
					<linearGradient id="SVGID_48_" gradientUnits="userSpaceOnUse" x1="336.418" y1="207.0938" x2="348.8157" y2="207.0938" gradientTransform="matrix(0.9982 -6.049506e-002 9.652341e-002 0.996 -2.633408e-004 -2.092421e-004)">
					<stop  offset="0" style="stop-color:#1F1F1F"/>
					<stop  offset="0.651" style="stop-color:#3C3C3C"/>
					<stop  offset="1" style="stop-color:#000000"/>
				</linearGradient>
				<path fill-rule="evenodd" clip-rule="evenodd" fill="url(#SVGID_48_)" d="M355.5,174.4v-0.2c1.4-0.1,2.9-0.2,4.6-0.3
					c3.2-0.2,5.4-1.1,6.7-2.9l2,17.3l0.1,1.1l1.1,7.9c-0.7,0.3-1.5,0.6-2.5,0.9c-3.2,1-6.8,1.7-10.9,1.9v-25.7H355.5z"/>
			</g>
			<g>
				<path fill-rule="evenodd" clip-rule="evenodd" fill="#333333" d="M341.3,168c0.3-0.1,0.7-0.3,1.4-0.5c6.4-1.7,12.9-1.7,19.4,0
					c0.7,0.2,1.2,0.4,1.3,0.4c2.4,0.6,3.6,1.6,3.8,2.9c-0.2,1.1-1.5,2-3.9,2.7c-6.8,1.6-13.8,1.6-21,0c-2.5-0.8-3.8-1.8-3.8-2.9
					c0-0.6,0.4-1.2,1.2-1.7C340,168.5,340.5,168.3,341.3,168z"/>
			</g>
			<g>
				<path fill-rule="evenodd" clip-rule="evenodd" fill="#4D4D4D" d="M346.4,171.5c-1.8-0.5-2.7-1-2.7-1.7c0-0.7,0.9-1.3,2.7-1.8
					c0.3-0.1,0.5-0.2,0.8-0.2c3.7-0.6,7.4-0.6,11.1,0c0.3,0,0.5,0.1,0.8,0.2c1.7,0.4,2.5,1,2.5,1.8c0,0.6-0.9,1.2-2.5,1.7
					c-1.8,0.6-3.9,0.8-6.4,0.8C350.3,172.3,348.2,172,346.4,171.5z"/>
			</g>
			<g>
				
					<linearGradient id="SVGID_49_" gradientUnits="userSpaceOnUse" x1="383.1797" y1="115.6582" x2="389.426" y2="115.6582" gradientTransform="matrix(0.9806 0.1961 -0.3455 0.9507 6.556511e-005 -3.805757e-004)">
					<stop  offset="0" style="stop-color:#6E6E6E"/>
					<stop  offset="1" style="stop-color:#000000"/>
				</linearGradient>
				<path fill-rule="evenodd" clip-rule="evenodd" fill="url(#SVGID_49_)" d="M346.3,176.5l-1.3,21.2c-0.6-0.2-1-0.3-1.2-0.3
					c-0.9-0.1-1.8-0.3-2.8-0.6c-0.3,0-0.6-0.1-1-0.2l2.3-21c0.3,0,1,0.2,1.9,0.4C345.1,176.3,345.8,176.5,346.3,176.5z M345,177.3
					c-0.3,0.1-0.8,0-1.5-0.3l-2.5,18.8c0.9,0.1,1.8,0.3,2.8,0.5L345,177.3z"/>
				<path fill-rule="evenodd" clip-rule="evenodd" d="M354.8,178c-1,0-2.1,0-3.3,0l-1.9,18.8c1.8,0.1,3.6,0.1,5.5,0L354.8,178z
					 M351.6,176.6c1.1,0,2.2,0.1,3.3,0.1c0.2,0,0.5,0,0.7,0l0.3,21.3c-0.2,0-0.4,0-0.6,0c-1.9,0.1-3.7,0-5.6-0.2c-0.4,0-0.7,0-0.9,0
					l2.3-21.2C351.2,176.6,351.4,176.6,351.6,176.6z"/>
				<linearGradient id="SVGID_50_" gradientUnits="userSpaceOnUse" x1="356.8125" y1="186.5508" x2="364.6875" y2="186.5508">
					<stop  offset="0" style="stop-color:#6E6E6E"/>
					<stop  offset="1" style="stop-color:#000000"/>
				</linearGradient>
				<path fill-rule="evenodd" clip-rule="evenodd" fill="url(#SVGID_50_)" d="M363.5,175.8c0.5-0.1,1-0.2,1.4-0.3l0.3,1.1v0
					l2.4,19.6c-0.4,0.1-0.8,0.3-1.3,0.4c-1.6,0.4-3.3,0.7-5,0.9c-0.3,0-0.6,0.1-1,0.1l-0.5-19.9h0.8l0.8,18.7
					c1.6-0.2,3.3-0.5,4.9-0.9l-2.5-18.5c-1,0.3-2.1,0.5-3.2,0.6c-0.3,0-0.5,0-0.8,0.1l0-1.3h0c0.1,0,0.2,0,0.3,0l0.4-0.1
					C361.6,176.2,362.6,176,363.5,175.8z"/>
			</g>
			<g>
				
					<radialGradient id="SVGID_51_" cx="348.4502" cy="168.5" r="4.7625" gradientTransform="matrix(1 0 0 0.7428 0 43.3412)" gradientUnits="userSpaceOnUse">
					<stop  offset="0" style="stop-color:#FFFFFF;stop-opacity:0.451"/>
					<stop  offset="1" style="stop-color:#FDFDFD;stop-opacity:0"/>
				</radialGradient>
				<path fill-rule="evenodd" clip-rule="evenodd" fill="url(#SVGID_51_)" d="M353.3,167.5c0.1,0,0.1,0.1,0.1,0.2
					c0,0.1,0,0.2-0.1,0.3c-0.1,0.1-0.2,0.1-0.3,0.1c-4.6,0-7.4,0.5-8.4,1.4c0,0.1-0.1,0.1-0.3,0.1c-0.1,0-0.2,0-0.3-0.1
					c-0.1-0.1-0.2-0.1-0.2-0.1c0-0.1,0-0.2,0.2-0.3c1-1,4-1.6,9-1.6C353.1,167.5,353.2,167.5,353.3,167.5z"/>
				
					<radialGradient id="SVGID_52_" cx="342.4004" cy="173" r="3.85" gradientTransform="matrix(1 0 0 0.7435 0 44.3734)" gradientUnits="userSpaceOnUse">
					<stop  offset="0" style="stop-color:#FFFFFF;stop-opacity:0.6824"/>
					<stop  offset="1" style="stop-color:#FDFDFD;stop-opacity:0"/>
				</radialGradient>
				<path fill-rule="evenodd" clip-rule="evenodd" fill="url(#SVGID_52_)" d="M348.2,174.4c0.1,0,0.1,0.1,0.2,0.1
					c0.1,0,0.1,0.1,0.1,0.2c0,0,0,0.1-0.1,0.2c-0.1,0-0.1,0-0.3,0c-4.8-0.2-8-1.1-9.5-2.7c-0.1-0.1-0.1-0.1-0.1-0.2
					c0-0.1,0-0.2,0.1-0.2c0.1,0,0.2,0,0.4,0c0.1,0,0.1,0,0.2,0.1C340.7,173.4,343.7,174.2,348.2,174.4z"/>
				
					<radialGradient id="SVGID_53_" cx="360.1504" cy="173.8501" r="7.3" gradientTransform="matrix(1 0 0 0.7432 0 44.6533)" gradientUnits="userSpaceOnUse">
					<stop  offset="0" style="stop-color:#FFFFFF;stop-opacity:0.6314"/>
					<stop  offset="1" style="stop-color:#FDFDFD;stop-opacity:0"/>
				</radialGradient>
				<path fill-rule="evenodd" clip-rule="evenodd" fill="url(#SVGID_53_)" d="M352.3,174.8c0-0.1,0.1-0.1,0.2-0.1
					c7.1,0.1,11.7-0.8,13.8-2.6c0-0.1,0.1-0.1,0.3-0.1c0.1,0,0.1,0,0.2,0c0.2,0,0.3,0.1,0.3,0.2c0,0.1,0,0.1-0.1,0.2
					c-2.3,2-7.1,3-14.5,3c-0.1,0-0.2,0-0.2-0.1c-0.1-0.1-0.2-0.2-0.2-0.3C352.1,174.8,352.2,174.8,352.3,174.8z"/>
				
					<radialGradient id="SVGID_54_" cx="359.9502" cy="187.2998" r="14.95" gradientTransform="matrix(1 0 0 0.7408 0 48.5476)" gradientUnits="userSpaceOnUse">
					<stop  offset="0" style="stop-color:#FFFFFF;stop-opacity:0.2824"/>
					<stop  offset="1" style="stop-color:#FDFDFD;stop-opacity:0"/>
				</radialGradient>
				<path fill-rule="evenodd" clip-rule="evenodd" fill="url(#SVGID_54_)" d="M360.2,176.6c0.1,0,0.1,0.1,0.1,0.2l0.3,21
					c0,0.1,0,0.2-0.1,0.3c-0.1,0.1-0.2,0.1-0.3,0.1c-0.1,0-0.2,0-0.3-0.1c-0.1-0.1-0.2-0.2-0.2-0.3l-0.3-21c0-0.1,0.1-0.2,0.2-0.2
					c0.1-0.1,0.1-0.1,0.2-0.1C359.9,176.5,360,176.5,360.2,176.6z"/>
				
					<radialGradient id="SVGID_55_" cx="340.2998" cy="201.4004" r="7.5625" gradientTransform="matrix(1 0 0 0.7405 0 52.2642)" gradientUnits="userSpaceOnUse">
					<stop  offset="0" style="stop-color:#FFFFFF;stop-opacity:0.498"/>
					<stop  offset="1" style="stop-color:#FDFDFD;stop-opacity:0"/>
				</radialGradient>
				<path fill-rule="evenodd" clip-rule="evenodd" fill="url(#SVGID_55_)" d="M333.6,199.3c0.1,0,0.2,0,0.3,0.2
					c2.1,1.6,6.4,2.8,13,3.5c0.1,0,0.2,0,0.3,0.1c0.1,0.1,0.1,0.2,0.1,0.3c0,0.1,0,0.2-0.1,0.2c-0.1,0-0.2,0-0.3,0
					c-6.9-0.7-11.3-1.9-13.4-3.7c-0.2-0.1-0.3-0.2-0.3-0.3c0-0.1,0.1-0.1,0.3-0.1C333.4,199.3,333.5,199.3,333.6,199.3z"/>
				
					<radialGradient id="SVGID_56_" cx="363.2998" cy="201.4512" r="10.4123" gradientTransform="matrix(1 0 0 0.7407 0 52.237)" gradientUnits="userSpaceOnUse">
					<stop  offset="0" style="stop-color:#FFFFFF;stop-opacity:0.6"/>
					<stop  offset="1" style="stop-color:#FDFDFD;stop-opacity:0"/>
				</radialGradient>
				<path fill-rule="evenodd" clip-rule="evenodd" fill="url(#SVGID_56_)" d="M373.1,199.3c0.1,0.1,0.1,0.2,0.1,0.2
					c0,0.1,0,0.2-0.2,0.2c-4.5,2.8-10.9,4.1-19.4,4c-0.1,0-0.2,0-0.3,0c-0.1-0.1-0.2-0.2-0.2-0.2c0-0.1,0-0.2,0.2-0.2
					c0-0.1,0.1-0.1,0.3-0.1c8.3,0.1,14.6-1.2,18.9-3.9c0.1-0.1,0.2-0.1,0.3-0.1C373,199.2,373.1,199.2,373.1,199.3z"/>
			</g>
			<g>
				
					<radialGradient id="SVGID_57_" cx="283.7002" cy="259.7725" r="6.2862" gradientTransform="matrix(0.9863 -0.165 6.760833e-002 0.2068 64.0779 196.0014)" gradientUnits="userSpaceOnUse">
					<stop  offset="0" style="stop-color:#FFFFFF"/>
					<stop  offset="0.1098" style="stop-color:#FFFFFF"/>
					<stop  offset="0.3176" style="stop-color:#FEFEFE;stop-opacity:0.8824"/>
					<stop  offset="0.4902" style="stop-color:#FBFBFB;stop-opacity:0.498"/>
					<stop  offset="0.7373" style="stop-color:#F9F9F9;stop-opacity:8.627451e-002"/>
					<stop  offset="1" style="stop-color:#F6F6F6;stop-opacity:0"/>
				</radialGradient>
				<path fill-rule="evenodd" clip-rule="evenodd" fill="url(#SVGID_57_)" d="M356.5,204.8c-1.5-0.1-2.4-0.4-2.7-0.9
					c-0.1-0.5,0.5-1,1.9-1.6c1.4-0.6,3.1-1.1,5-1.4c2.1-0.3,3.9-0.5,5.4-0.5c1.6,0.2,2.4,0.5,2.5,0.9c0.2,0.5-0.4,1.1-1.9,1.6
					c-1.3,0.6-2.9,1-4.8,1.4C360,204.7,358.1,204.8,356.5,204.8z"/>
			</g>
			<g>
				
					<radialGradient id="SVGID_58_" cx="210.7871" cy="214.9219" r="7.3245" gradientTransform="matrix(0.9932 -0.116 0.1109 0.1485 124.8458 167.1014)" gradientUnits="userSpaceOnUse">
					<stop  offset="0" style="stop-color:#FFFFFF"/>
					<stop  offset="0.1098" style="stop-color:#FFFFFF"/>
					<stop  offset="0.3176" style="stop-color:#FEFEFE;stop-opacity:0.8824"/>
					<stop  offset="0.4902" style="stop-color:#FBFBFB;stop-opacity:0.498"/>
					<stop  offset="0.7373" style="stop-color:#F9F9F9;stop-opacity:8.627451e-002"/>
					<stop  offset="1" style="stop-color:#F6F6F6;stop-opacity:0"/>
				</radialGradient>
				<path fill-rule="evenodd" clip-rule="evenodd" fill="url(#SVGID_58_)" d="M352.5,176.1c-1.9,0-3-0.3-3.3-0.8
					c-0.3-0.4,0.3-0.8,1.9-1.3c1.5-0.5,3.5-0.8,5.8-1c2.5-0.3,4.6-0.5,6.4-0.4c2,0.1,3.2,0.4,3.5,0.8c0.3,0.4-0.4,0.9-1.9,1.4
					c-1.4,0.5-3.3,0.8-5.7,1C356.8,176,354.6,176.2,352.5,176.1z"/>
			</g>
		</g>
		<g>
			<path fill-rule="evenodd" clip-rule="evenodd" fill="#939995" d="M35.1,205.2l-6.5,11.5c-0.9,1.5-1.3,2.8-1.3,3.8v0
				c0.1,1.3,1.5,2,4.1,2h372.2c2.5,0,3.8-0.7,4-2.1c-0.1-1-0.5-2.3-1.2-3.8l-5.8-11.5h3l5.2,10.3c0.9,2,1.4,3.6,1.4,5v0.1
				c0,3.1-2.2,4.6-6.7,4.7H31.5c-4.7,0-7-1.6-6.9-4.6c-0.1-1.4,0.4-3.1,1.6-5.2v-0.1l5.7-10.1H35.1z"/>
		</g>
		<g>
			<path fill-rule="evenodd" clip-rule="evenodd" fill="#FFFDF6" d="M283.7,60.5v7.1c0,0.6,0,1.1,0.1,1.5c0.1,0.4,0.3,0.7,0.5,1
				c0.2,0.4,0.5,0.6,1,0.9c0.4,0.2,0.8,0.3,1.4,0.3c0.5,0,1-0.1,1.5-0.3c0.4-0.2,0.7-0.5,1-0.9c0.2-0.3,0.3-0.6,0.5-1
				c0.1-0.4,0.1-0.9,0.1-1.4v-7.2h1.6v7.1c0,0.9-0.1,1.6-0.3,2.3c-0.2,0.6-0.6,1.2-1,1.6c-0.4,0.4-0.9,0.7-1.5,0.9
				c-0.5,0.2-1.2,0.3-1.9,0.3c-0.8,0-1.4-0.1-1.9-0.4c-0.5-0.2-1-0.4-1.4-0.8c-0.5-0.4-0.8-1-1-1.6c-0.2-0.6-0.3-1.4-0.3-2.3v-7.1
				H283.7z M279.3,61.9h-4.2v10.5h-1.6V61.9h-4.2v-1.4h10V61.9z M259.7,60.5l5.1,9.6v-9.6h1.5v11.8h-2l-5.6-10.6v10.6h-1.5V60.5
				H259.7z"/>
		</g>
	</g>
</g>
</svg>
