<?xml version="1.0" encoding="utf-8"?>
<!-- Generator: Adobe Illustrator 16.0.0, SVG Export Plug-In . SVG Version: 6.00 Build 0)  -->
<!DOCTYPE svg PUBLIC "-//W3C//DTD SVG 1.1//EN" "http://www.w3.org/Graphics/SVG/1.1/DTD/svg11.dtd">
<svg version="1.1" id="Layer_1" xmlns="http://www.w3.org/2000/svg" xmlns:xlink="http://www.w3.org/1999/xlink" x="0px" y="0px"
	 width="249px" height="186px" viewBox="0 0 249 186" enable-background="new 0 0 249 186" xml:space="preserve">
<symbol  id="glace_x5F_pH1" viewBox="-23.5 -31.3 22.3 50">
	<g id="Layer_1_2_">
		<g>
			
				<radialGradient id="SVGID_1_" cx="-12.3501" cy="-9.4502" r="7.2875" gradientTransform="matrix(1 0 0 2.3568 0 12.8218)" gradientUnits="userSpaceOnUse">
				<stop  offset="0" style="stop-color:#FFFFFF"/>
				<stop  offset="0.2275" style="stop-color:#FFFFFF"/>
				<stop  offset="0.3608" style="stop-color:#FFFFFF;stop-opacity:0.5922"/>
				<stop  offset="0.5961" style="stop-color:#FFFFFF;stop-opacity:0.2706"/>
				<stop  offset="0.7373" style="stop-color:#FFFFFF;stop-opacity:4.705882e-002"/>
				<stop  offset="1" style="stop-color:#FFFFFF;stop-opacity:0"/>
			</radialGradient>
			<path fill-rule="evenodd" clip-rule="evenodd" fill="url(#SVGID_1_)" d="M-4.6,11c0-0.1,0.1-0.3,0.1-0.5C-3.2,7.4-2.3,3.9-1.8,0
				C-1.4-3-1.2-6.1-1.2-9.5c0-1.8,0-3.6-0.1-5.3c-0.1-0.8-0.1-1.6-0.2-2.4c-0.5-4.4-1.4-9.1-2.8-14.1L-20.4-29
				c-1.4,3.5-2.3,7.4-2.7,11.9c-0.3,2.4-0.4,5-0.4,7.6c0,7.8,1.1,14.5,3.3,20c0.1,0.2,0.1,0.3,0.2,0.5c2.1,5.2,4.7,7.8,7.7,7.8
				S-6.8,16.2-4.6,11z"/>
		</g>
	</g>
</symbol>
<g>
	
		<radialGradient id="SVGID_2_" cx="121.4502" cy="71" r="54.1" gradientTransform="matrix(1 0 0 1.7186 0 -51.019)" gradientUnits="userSpaceOnUse">
		<stop  offset="0" style="stop-color:#FFFFFF"/>
		<stop  offset="0.8941" style="stop-color:#FCFCFC;stop-opacity:0.8706"/>
		<stop  offset="1" style="stop-color:#F7F7F7;stop-opacity:0"/>
	</radialGradient>
	<path fill-rule="evenodd" clip-rule="evenodd" fill="url(#SVGID_2_)" d="M168.5,71.5l0.1-0.9h4.1l0,0.9H168.5z M166.4,70.5
		l-0.1,0.9H75.4l-0.1-0.9H166.4z M73,70.5l0,0.9h-3c-0.1,0-0.1,0-0.1-0.1c-0.1-0.1-0.1-0.2-0.1-0.3s0-0.2,0.1-0.3
		c0-0.1,0.1-0.2,0.1-0.2H73z"/>
	
		<path fill-rule="evenodd" clip-rule="evenodd" fill="none" stroke="#0000FF" stroke-width="0.1" stroke-linecap="round" stroke-linejoin="round" stroke-miterlimit="3" d="
		M170,14.5l-0.3,1 M72,15.5l-0.3-1"/>
	<path fill-rule="evenodd" clip-rule="evenodd" fill="none" d="M153.5,53.7c7.8,0.7,11.9,0.7,12.2,0"/>
	<g>
		<g>
			<g>
				<linearGradient id="SVGID_3_" gradientUnits="userSpaceOnUse" x1="125.1758" y1="147.5986" x2="125.1005" y2="217.2986">
					<stop  offset="0" style="stop-color:#000000;stop-opacity:0.251"/>
					<stop  offset="1" style="stop-color:#000000;stop-opacity:0"/>
				</linearGradient>
				<path fill-rule="evenodd" clip-rule="evenodd" fill="url(#SVGID_3_)" d="M6,159c0.2-0.2,0.3-0.3,0.3-0.4l14.4-39.2l192.4,1
					l31.3,40.8c-0.1,6-0.1,14.2,0,24.7H6V159z"/>
			</g>
			<g>
				<g>
					<path fill-rule="evenodd" clip-rule="evenodd" fill-opacity="0.498" d="M22.5,174L8.4,163.5c-1.4-1.4-2.3-2.8-2.5-4l14.6-40
						l192.3,1l31.4,39.3l-0.3,4.3c0.1,0.7-5.8,4.9-17.9,12.6c-0.8,0.5-2,0.8-3.6,1c-65.5,2.3-129.1,2.3-190.8,0
						C28.5,177.3,25.4,176,22.5,174L22.5,174z"/>
				</g>
			</g>
		</g>
	</g>
	<g>
		<g>
			<g>
				<path fill-rule="evenodd" clip-rule="evenodd" fill="#E6E4EF" d="M244.4,146.9c-0.2,0.5-0.8,1-1.9,1.5l-16.1,9.1
					c-1.5,0.9-3.2,1.4-5,1.5c-47.6,3-110,3.2-187,0.6c-4.2-0.1-7.5-1.1-10-3l-13.3-8c-3.1-1.9-4.9-3.6-5.2-5v-0.9
					c1-6.4,2.1-12.8,3.5-19.3c5.1-24.1,12.7-47.8,23-71c0.1-0.1,0.1-0.3,0.2-0.4l4.3-9c0.9-1.7,2.3-2.5,4-2.4
					c34-4.4,66.2-5.9,96.5-4.4c30.4,1.5,47.8,2.6,52.2,3.3c4.4,0.8,7.2,2,8.6,3.8c1.4,2.3,3.3,5.4,5.5,9.3
					c13,22.9,23.9,46.6,32.7,70.9c2.1,5.8,4.1,11.7,6,17.5c0.5,1.7,1.2,3.4,1.9,5.1c0,0,0,0.1,0.1,0.1
					C244.5,146.5,244.5,146.7,244.4,146.9z"/>
				<path fill-rule="evenodd" clip-rule="evenodd" fill="#020001" d="M6,156.9L24.9,169c1.9,1.3,4.3,2,6.9,2.2
					c2.7,0.1,4.1,0.1,4.2,0.1c61.3,2.3,123.1,2.3,185.3-0.1c2.2,0,4-0.6,5.6-1.8l17.5-10.4v3.2v0.4c-0.1,1.2-0.5,2.1-1.3,2.6
					l-16,9.1c-2.3,1.3-4.1,1.9-5.3,1.8c-62.1,1.8-124.1,1.9-186.2,0.1c-5.2,0-8.9-0.8-11.3-2.5L9.5,164c-2.3-1.5-3.4-3.2-3.5-4.9
					V156.9z"/>
				<linearGradient id="SVGID_4_" gradientUnits="userSpaceOnUse" x1="6.0498" y1="158.3438" x2="244.4004" y2="158.3438">
					<stop  offset="0" style="stop-color:#3C323D"/>
					<stop  offset="7.058824e-002" style="stop-color:#716071"/>
					<stop  offset="0.1412" style="stop-color:#AC9BAE"/>
					<stop  offset="0.3333" style="stop-color:#B3A4B7"/>
					<stop  offset="0.6118" style="stop-color:#AB9DAE"/>
					<stop  offset="0.7098" style="stop-color:#A291A3"/>
					<stop  offset="0.8863" style="stop-color:#AA9CAD"/>
					<stop  offset="0.9333" style="stop-color:#786877"/>
					<stop  offset="1" style="stop-color:#534651"/>
				</linearGradient>
				<path fill-rule="evenodd" clip-rule="evenodd" fill="url(#SVGID_4_)" d="M244.4,146.9v3.1v9l-17.5,10.4
					c-1.6,1.2-3.4,1.8-5.6,1.8c-62.2,2.4-124,2.5-185.3,0.1c-0.1,0-1.5,0-4.2-0.1c-2.7-0.1-5-0.8-6.9-2.2L6,156.9v-13.3
					c0.3,1.4,2,3.1,5.2,5l13.3,8c2.5,1.9,5.8,2.9,10,3c77,2.7,139.4,2.5,187-0.6c1.8-0.1,3.5-0.6,5-1.5l16.1-9.1
					C243.6,148,244.2,147.4,244.4,146.9z"/>
			</g>
		</g>
		<g>
			<g>
				
					<radialGradient id="SVGID_5_" cx="13.0244" cy="145.0215" r="62.0524" gradientTransform="matrix(0.9818 -0.1898 1.0272 2.8283 5.7525 -332.1358)" gradientUnits="userSpaceOnUse">
					<stop  offset="0" style="stop-color:#A496AA;stop-opacity:0"/>
					<stop  offset="0.5529" style="stop-color:#B5A9BD;stop-opacity:0"/>
					<stop  offset="0.6118" style="stop-color:#B7ABBF"/>
					<stop  offset="1" style="stop-color:#B5A9BD"/>
				</radialGradient>
				<path fill-rule="evenodd" clip-rule="evenodd" fill="url(#SVGID_5_)" d="M198.3,43.3c1.4,2.3,3.3,5.4,5.5,9.3
					c16.1,28.4,29,57.9,38.7,88.5c0.5,1.7,1.2,3.4,1.9,5.1c0,0,0,0.1,0.1,0.1c0.1,0.2,0.1,0.5,0,0.7c-0.2,0.5-0.8,1-1.9,1.5
					l-16.1,9.1c-1.5,0.9-3.2,1.4-5,1.5l-14.4,0.8c-2.7-46.4-10.4-86.7-23.1-120.9l9.5,1.5C195.8,41.2,197.4,42.1,198.3,43.3z"/>
				
					<radialGradient id="SVGID_6_" cx="88.7783" cy="103.8682" r="42.9357" fx="87.7681" fy="103.8682" gradientTransform="matrix(0.9992 4.075864e-002 -0.262 3.4263 -4.9394 -243.3561)" gradientUnits="userSpaceOnUse">
					<stop  offset="0" style="stop-color:#A496AA;stop-opacity:0"/>
					<stop  offset="0.5529" style="stop-color:#B5A9BD;stop-opacity:0"/>
					<stop  offset="0.6118" style="stop-color:#B7ABBF"/>
					<stop  offset="1" style="stop-color:#B5A9BD"/>
				</radialGradient>
				<path fill-rule="evenodd" clip-rule="evenodd" fill="url(#SVGID_6_)" d="M32.8,52l4.3-9c0.9-1.7,2.3-2.5,4-2.4
					c1.2-0.2,6.7-0.8,16.5-1.9c-10.9,37.1-11.1,77.7-0.8,121.8l-25.2-1c-2.3,0.1-4.6-0.9-7.1-2.8l-13.3-8c-3.1-1.9-4.9-3.6-5.2-5
					v-0.9c4.7-30.8,13.5-60.9,26.5-90.3C32.6,52.3,32.7,52.2,32.8,52z"/>
			</g>
		</g>
		<g>
			<g>
				
					<linearGradient id="SVGID_7_" gradientUnits="userSpaceOnUse" x1="64.2988" y1="-741.1982" x2="238.9045" y2="-741.1982" gradientTransform="matrix(-0.1502 0.9887 -0.9992 -8.076439e-002 -586.196 -107.118)">
					<stop  offset="0" style="stop-color:#5B4458"/>
					<stop  offset="1" style="stop-color:#584255;stop-opacity:0"/>
				</linearGradient>
				<path fill-rule="evenodd" clip-rule="evenodd" fill="url(#SVGID_7_)" d="M198.3,43.3c1.4,2.3,3.3,5.4,5.5,9.3
					c16.1,28.4,29,57.9,38.7,88.5c0.5,1.7,1.2,3.4,1.9,5.1c0,0,0,0.1,0.1,0.1c0.1,0.2,0.1,0.5,0,0.7c-0.2,0.5-0.8,1-1.9,1.5
					l-16.1,9.1c-1.5,0.9-3.2,1.4-5,1.5c-47.6,3-110,3.2-187,0.6c-4.2-0.1-7.5-1.1-10-3l-13.3-8c-3.1-1.9-4.9-3.6-5.2-5v-0.9
					c4.7-30.8,13.5-60.9,26.5-90.3c0.1-0.1,0.1-0.3,0.2-0.4l4.3-9c0.9-1.7,2.3-2.5,4-2.4c34-4.4,66.2-5.9,96.5-4.4
					c30.4,1.5,47.8,2.6,52.2,3.3C194.1,40.3,196.9,41.5,198.3,43.3z"/>
			</g>
		</g>
		<g>
			
				<use xlink:href="#glace_x5F_pH1"  width="22.3" height="50" x="-23.5" y="-31.3" transform="matrix(7.766724e-002 0.3014 3.6981 -1.124573e-002 162.1504 164.4502)" overflow="visible" opacity="0.8398"/>
		</g>
		<g>
			<g>
				
					<radialGradient id="SVGID_8_" cx="215.9502" cy="116.5498" r="4.0935" gradientTransform="matrix(-0.9815 0.1913 -1.6216 -8.3189 616.9132 1044.8025)" gradientUnits="userSpaceOnUse">
					<stop  offset="0" style="stop-color:#FFFFFF;stop-opacity:0.502"/>
					<stop  offset="0.2275" style="stop-color:#FFFFFF;stop-opacity:0.502"/>
					<stop  offset="0.3608" style="stop-color:#FFFFFF;stop-opacity:0.251"/>
					<stop  offset="0.5961" style="stop-color:#FFFFFF;stop-opacity:0.1294"/>
					<stop  offset="0.7373" style="stop-color:#FFFFFF;stop-opacity:1.960784e-002"/>
					<stop  offset="1" style="stop-color:#FFFFFF;stop-opacity:0"/>
				</radialGradient>
				<path fill-rule="evenodd" clip-rule="evenodd" fill="url(#SVGID_8_)" d="M212.9,77.1c2.1,6.7,4.1,14.5,6,23.2
					c1.1,4.7,2.1,9.7,3.2,15.1c3,15.4,4.9,28.8,5.9,39.9c0,0.3-2.7,1.5-8.2,3.5c-0.1-0.3-0.2-0.6-0.3-0.8c-0.1-0.3-0.2-0.6-0.3-0.9
					c-1.9-6.1-3.7-13-5.5-20.7c-1.4-5.7-2.7-11.9-4-18.5c-0.7-3.6-1.4-7.1-2-10.4c-0.3-1.6-0.5-3.2-0.8-4.8
					c-1.4-8.9-2.8-18.3-4-28.4L212.9,77.1z"/>
			</g>
		</g>
		<g>
			<path fill-rule="evenodd" clip-rule="evenodd" fill="none" d="M204.2,160l10.2-0.5c6.5-0.1,10.9-0.9,13.2-2.5l9.1-5.3"/>
			<path fill-rule="evenodd" clip-rule="evenodd" fill="none" d="M204.2,160.6l10.2-0.4c6.5-0.1,10.9-0.9,13.2-2.5l9.1-5.4"/>
			<path fill-rule="evenodd" clip-rule="evenodd" fill="none" d="M34.5,160.8c62.1,2.7,116.2,2.7,162.3,0"/>
		</g>
	</g>
	<g>
		
			<linearGradient id="SVGID_9_" gradientUnits="userSpaceOnUse" x1="246.5244" y1="-535.7573" x2="305.5585" y2="-535.7573" gradientTransform="matrix(0.2926 0.9562 -0.9772 0.224 -474.7698 -18.7807)">
			<stop  offset="0" style="stop-color:#0B0B0B"/>
			<stop  offset="0.9882" style="stop-color:#44314D"/>
		</linearGradient>
		<path fill-rule="evenodd" clip-rule="evenodd" fill="url(#SVGID_9_)" d="M191.5,87c0.7,19.3-0.3,38.7-3,58c0,1.6-1,2.4-3,2.4
			c-18.2,1.6-38.4,2.3-60.6,2.3s-42.1-0.8-59.5-2.3c-2,0-3.1-0.8-3.5-2.4c-3.3-19.5-5.3-39-6.1-58.5c-0.3-1.8,0.8-2.7,3.2-2.6
			c45.3-2.3,88.6-2.3,129.9,0C190.6,84.1,191.5,85.1,191.5,87z"/>
	</g>
	<g>
		
			<radialGradient id="SVGID_10_" cx="124.9502" cy="108.7002" r="92.675" gradientTransform="matrix(1 0 0 0.5306 0 51.0219)" gradientUnits="userSpaceOnUse">
			<stop  offset="0" style="stop-color:#FEFEFE;stop-opacity:0.5137"/>
			<stop  offset="0.5882" style="stop-color:#FCFCFC;stop-opacity:0.4863"/>
			<stop  offset="1" style="stop-color:#F7F7F7;stop-opacity:0"/>
		</radialGradient>
		<path fill-rule="evenodd" clip-rule="evenodd" fill="url(#SVGID_10_)" d="M191.3,86.4c0-1.6-0.8-2.5-2.3-2.7
			c-17.2-1-34.7-1.5-52.6-1.7c-25.2-0.2-51.1,0.3-77.7,1.7h-0.1c-0.7-0.1-1.4,0-1.9,0.5c-0.5,0.4-0.8,1-0.7,1.6v0.1l0.1,0.6
			c-1-0.6-1.4-1.2-1.1-2c0.2-0.4,0.3-0.6,0.4-0.8c0,0,0.1-0.1,0.1-0.1c0,0,0,0,0.1,0.1c0.3-0.7,1.3-1.1,3-1
			c26.6-1.4,52.5-1.9,77.8-1.7c17.9,0.2,35.5,0.7,52.7,1.7c2.2,0.2,3.3,1.4,3.3,3.7c0,0.2-0.2,1-0.5,2.4c-0.3,1.4-0.5,1.2-0.4-0.5
			c0.1-1.6,0.1-2.4,0-2.3C191.4,86.2,191.3,86.3,191.3,86.4z"/>
		
			<radialGradient id="SVGID_11_" cx="124.4004" cy="117.7998" r="92.675" gradientTransform="matrix(1 0 0 0.5306 0 55.2931)" gradientUnits="userSpaceOnUse">
			<stop  offset="0" style="stop-color:#FFFFFF;stop-opacity:0.8"/>
			<stop  offset="0.6824" style="stop-color:#FEFEFE;stop-opacity:0.7216"/>
			<stop  offset="1" style="stop-color:#F7F7F7;stop-opacity:0"/>
		</radialGradient>
		<path fill-rule="evenodd" clip-rule="evenodd" fill="url(#SVGID_11_)" d="M56.2,86.5c0.1,19.5,2.1,39.1,6.1,58.8v0
			c0.3,1.4,1.2,2,2.8,2h0.1c17.5,1.6,37.4,2.4,59.8,2.4c3.9,0,7.8,0,11.5,0c17.8-0.2,34.2-1,49.3-2.4h0c1.6,0,2.5-0.7,2.5-2v0
			c3.1-19.4,4.1-39,3-58.9c0-0.1,0.1-0.3,0.2-0.4c0.1-0.1,0.2,0.7,0,2.3c-0.1,1.7,0,1.8,0.4,0.5c0.3-1.4,0.5-2.2,0.5-2.4
			c0.9,19.9-0.1,39.5-3,58.9v0.1c0,1.9-1.2,2.9-3.6,2.9c-15.1,1.3-31.5,2.1-49.3,2.4c-3.8,0-7.6,0-11.5,0c-22.3,0-42.3-0.8-59.9-2.4
			h0c-2.3,0.1-3.6-0.9-4-2.8C56.9,125.8,54.8,106,55,86c-0.1-0.8,0-1.5,0.3-2c0,0,0.1-0.1,0.1-0.1c0,0,0.1-0.1,0.1-0.1
			c-0.1,0.1-0.2,0.4-0.4,0.8C54.8,85.3,55.1,85.9,56.2,86.5z M55.6,83.7c0,0,0-0.1,0.1-0.1v0.1C55.7,83.7,55.7,83.7,55.6,83.7
			C55.6,83.7,55.6,83.7,55.6,83.7z"/>
	</g>
	<g>
		<path fill-rule="evenodd" clip-rule="evenodd" fill="#61505F" d="M172.5,73.4c3.9-19.6,6.3-38.9,7.5-58c0.1,0.6,0.2,1.3,0.3,2.1h0
			l0.1,33.9l0,0.4c0,0.8,0,1.7-0.1,2.7c-0.8,5.4-3.1,11.2-6.8,17.6c-0.1,0.1-0.2,0.3-0.3,0.5c-0.1,0.1-0.1,0.2-0.2,0.3
			c-0.1,0.2-0.2,0.3-0.3,0.5C172.6,73.2,172.5,73.3,172.5,73.4L172.5,73.4z M60.5,14.5C62,39.8,64.8,59.3,69,73c0,0,0.1,0,0.1,0
			c0,0-0.1,0-0.1,0c0,0,0,0.1,0.1,0.3c-0.1-0.2-0.2-0.2-0.2-0.3c-4.1-4.1-6.8-9.6-8-16.4c-0.3-1.7-0.5-3.5-0.7-5.3v-0.1
			c0-0.5-0.1-1.1-0.1-1.6l0.1-32c0.1-1.7,0.2-2.6,0.2-2.8C60.4,14.8,60.4,14.6,60.5,14.5z"/>
		<linearGradient id="SVGID_12_" gradientUnits="userSpaceOnUse" x1="120.1768" y1="13.2383" x2="120.1452" y2="74.0633">
			<stop  offset="0" style="stop-color:#BDB0C4"/>
			<stop  offset="0.9137" style="stop-color:#BFB0C7"/>
			<stop  offset="0.949" style="stop-color:#E6E1EA"/>
			<stop  offset="1" style="stop-color:#2B2431"/>
		</linearGradient>
		<path fill-rule="evenodd" clip-rule="evenodd" fill="url(#SVGID_12_)" d="M69.2,73.4c-0.1-0.2-0.1-0.2-0.1-0.3c0,0,0,0,0.1,0
			c0,0-0.1,0-0.1,0c-4.2-13.8-7.1-33.3-8.6-58.6c0.3-1.6,0.8-2.8,1.4-3.4c0.2-0.2,0.4-0.3,0.6-0.5c0.6-0.3,4.2-1.1,10.8-2.4
			C74.2,8,75.1,7.9,76,7.8c26.2-4.3,52.4-4.6,78.5-0.9c2.9,0.4,5.8,0.9,8.8,1.4c7.2,1.1,10.9,1.7,11.1,1.7c0.3,0.1,0.7,0.3,1,0.3
			c2.4,0.9,3.9,2.6,4.5,5.2c-1.1,19.1-3.6,38.4-7.5,58L69.2,73.4L69.2,73.4z"/>
	</g>
	<g>
		<path fill-rule="evenodd" clip-rule="evenodd" fill-opacity="0.3137" d="M171.5,9.5h1l0.2-0.2h0c-5.5,17.1-7.3,37-5.3,59.5v0
			c0.1,2.1-0.1,3.6-0.5,4.5h-1c-0.1-0.1-0.1-0.3,0-0.3c0.4-0.8,0.6-2.2,0.5-4.2C164.4,46.3,166.1,26.5,171.5,9.5z"/>
		<path fill-rule="evenodd" clip-rule="evenodd" fill="#FFFFFF" fill-opacity="0.3137" d="M173.8,9.8L173.8,9.8
			c-5.4,16.8-7.1,36.4-5,58.9v0c0.1,2.1-0.1,3.6-0.5,4.5h-1c-0.1-0.1-0.1-0.3,0-0.3c0.4-0.8,0.6-2.2,0.5-4.2
			c-2-22.6-0.3-42.3,5.1-59.3L173.8,9.8z"/>
	</g>
	<g>
		<path fill-rule="evenodd" clip-rule="evenodd" fill="#FFFFFF" fill-opacity="0.3137" d="M68.8,9.3C74.3,26.2,76,46,74,68.7
			c-0.1,1.9,0.1,3.3,0.5,4.2c0.1,0.1,0.1,0.2,0,0.3h-1c-0.5-1-0.6-2.5-0.5-4.6v-0.1c2-22.7,0.3-42.4-5-59.3v0H68.8z"/>
		<path fill-rule="evenodd" clip-rule="evenodd" fill-opacity="0.3137" d="M70,9c5.5,17.1,7.3,37,5.3,59.8c-0.1,1.9,0.1,3.3,0.5,4.2
			c0.1,0.1,0.1,0.2,0,0.3h-1c-0.5-1-0.6-2.5-0.5-4.6v-0.1c2-22.7,0.3-42.4-5-59.3V9H70z"/>
	</g>
	<g>
		<path fill-rule="evenodd" clip-rule="evenodd" fill="#020106" d="M117,15.3c0.7,0,1.4,0,2.1,0s1.4,0,2.1,0c0.7,0,1.5,0,2.2,0
			c0.7,0,1.4,0,2.1,0s1.3,0,1.7,0c0.4,0,1.1,0,2.1,0c1,0,1.8,0,2.5,0c0.7,0,1.4-0.1,2.1-0.1s1.4,0,2.1,0c0.7,0,1.4-0.1,2.1-0.1
			c0.7,0,1.5,0,2.2,0c0.7,0,1.4-0.1,2.1-0.1c0.7,0,1.4-0.1,2.1-0.1s1.4-0.1,2.1-0.1c0.7,0,1.5-0.1,2.2-0.1c0.7,0,1.9-0.1,3.7-0.1
			s4.7-0.3,8.9-0.7c4.1-0.4,6.9-0.2,8.5,0.6l-0.3,1c-1.7,6.7-2.8,13-3.4,18.8c-0.7,6-0.9,12.5-0.6,19.4v0c0,0.1,0,0.2,0,0.3
			c-0.2,0.7-4.3,0.7-12.2,0c-21.4-0.9-39.5-1-54.2-0.3C84.7,54.5,76.9,54.5,76,54c0-0.1,0-0.2,0-0.3c0.3-6.9,0.1-13.4-0.5-19.5
			c-0.6-5.8-1.8-12.1-3.5-18.8l-0.3-1c0-0.1,0.1-0.2,0.2-0.3c0.8-0.7,3.5-0.9,8.1-0.4c5.1,0.5,8.1,0.8,9,0.8c0.9,0,1.7,0,2.4,0
			c0.7,0,1.4,0.1,2.1,0.1s1.4,0.1,2.1,0.1c0.7,0,1.5,0.1,2.2,0.1c0.7,0,1.4,0.1,2.1,0.1s1.4,0.1,2.1,0.1c0.7,0,1.4,0,2.1,0
			c0.7,0,1.5,0.1,2.2,0.1c0.7,0,1.4,0,2.1,0c0.7,0,1.4,0,2.1,0c0.7,0,1.4,0,2.1,0c0.7,0,1.5,0,2.2,0C115.5,15.3,116.3,15.3,117,15.3
			z"/>
	</g>
	<g>
		<path fill-rule="evenodd" clip-rule="evenodd" fill="none" d="M70.5,14c0.4-1.1,3.1-1.3,8.3-0.8c5.1,0.5,8.1,0.8,9,0.8
			c0.9,0,1.6,0,2.3,0s1.4,0.1,2.1,0.1c0.7,0,1.4,0.1,2.1,0.1c0.7,0,1.5,0.1,2.2,0.1c0.7,0,1.4,0.1,2.1,0.1c0.7,0,1.4,0.1,2.1,0.1
			c0.7,0,1.4,0,2.1,0c0.7,0,1.5,0.1,2.2,0.1c0.7,0,1.4,0,2.1,0.1c0.7,0,1.4,0,2.1,0c0.7,0,1.4,0,2.1,0c0.7,0,1.5,0,2.2,0
			c0.7,0,1.4,0,2.1,0s1.4,0,2.1,0c0.7,0,1.4,0,2.1,0c0.7,0,1.5,0,2.2,0c0.7,0,1.4,0,2.1,0s1.4,0,2.1,0c0.7,0,1.4,0,2.1,0
			c0.7,0,1.5,0,2.2,0c0.7,0,1.4-0.1,2.1-0.1c0.7,0,1.4,0,2.1,0c0.7,0,1.4-0.1,2.1-0.1c0.7,0,1.5,0,2.2,0c0.7,0,1.4-0.1,2.1-0.1
			s1.4-0.1,2.1-0.1c0.7,0,1.4-0.1,2.1-0.1c0.7,0,1.5-0.1,2.2-0.1c0.7,0,1.9-0.1,3.7-0.1c1.8,0,4.7-0.3,8.8-0.7
			c4.1-0.4,7-0.2,8.5,0.6"/>
		<path fill-rule="evenodd" clip-rule="evenodd" fill="none" d="M74.6,53.5c0.9,0.5,10.2,0.5,28.1-0.2c17.9-0.7,37.1-0.4,57.8,0.8"
			/>
	</g>
	<g>
		<linearGradient id="SVGID_13_" gradientUnits="userSpaceOnUse" x1="124.626" y1="104.0137" x2="124.6725" y2="94.5638">
			<stop  offset="0" style="stop-color:#4E3957"/>
			<stop  offset="0.5882" style="stop-color:#231B26"/>
			<stop  offset="1" style="stop-color:#1C161E"/>
		</linearGradient>
		<path fill-rule="evenodd" clip-rule="evenodd" fill="url(#SVGID_13_)" d="M124.7,94.5c2.7,0,5,0.4,6.9,1.3c1.9,0.9,2.9,2,2.9,3.3
			s-1,2.4-2.9,3.3c-1.9,0.9-4.2,1.4-6.9,1.4c-2.7,0-5.1-0.5-7-1.4c-1.9-0.9-2.9-2-2.9-3.3s1-2.4,2.9-3.3
			C119.6,94.9,121.9,94.5,124.7,94.5z"/>
		<linearGradient id="SVGID_14_" gradientUnits="userSpaceOnUse" x1="167.4268" y1="103.6992" x2="167.4742" y2="94.5001">
			<stop  offset="0" style="stop-color:#4E3957"/>
			<stop  offset="0.5882" style="stop-color:#231B26"/>
			<stop  offset="1" style="stop-color:#1C161E"/>
		</linearGradient>
		<path fill-rule="evenodd" clip-rule="evenodd" fill="url(#SVGID_14_)" d="M174.3,95.8c1.9,0.9,2.9,2,2.9,3.3s-1,2.4-2.9,3.3
			c-1.9,0.9-4.2,1.4-6.9,1.4c-2.7,0-5-0.5-7-1.4c-1.9-0.9-2.8-2-2.8-3.3s0.9-2.4,2.8-3.3c1.9-0.9,4.2-1.3,7-1.3
			C170.2,94.5,172.5,94.9,174.3,95.8z"/>
		<linearGradient id="SVGID_15_" gradientUnits="userSpaceOnUse" x1="165.0498" y1="123.9004" x2="165.0498" y2="113.5004">
			<stop  offset="0" style="stop-color:#4E3957"/>
			<stop  offset="0.5882" style="stop-color:#231B26"/>
			<stop  offset="1" style="stop-color:#1C161E"/>
		</linearGradient>
		<path fill-rule="evenodd" clip-rule="evenodd" fill="url(#SVGID_15_)" d="M158.1,115.4c1.9-0.9,4.2-1.3,7-1.3c2.7,0,5,0.4,6.9,1.3
			c1.9,0.9,2.9,2,2.9,3.3s-1,2.3-2.9,3.3c-1.9,0.9-4.2,1.3-6.9,1.3c-2.7,0-5-0.5-7-1.3c-1.9-0.9-2.8-2-2.8-3.3
			S156.2,116.3,158.1,115.4z"/>
		<linearGradient id="SVGID_16_" gradientUnits="userSpaceOnUse" x1="83.4502" y1="103.7002" x2="83.4502" y2="94.5">
			<stop  offset="0" style="stop-color:#4E3957"/>
			<stop  offset="0.5882" style="stop-color:#231B26"/>
			<stop  offset="1" style="stop-color:#1C161E"/>
		</linearGradient>
		<path fill-rule="evenodd" clip-rule="evenodd" fill="url(#SVGID_16_)" d="M93.3,99.1c0,1.3-1,2.4-2.9,3.3
			c-1.9,0.9-4.2,1.4-6.9,1.4c-2.7,0-5-0.5-7-1.4c-1.9-0.9-2.8-2-2.8-3.3s0.9-2.4,2.8-3.3c1.9-0.9,4.2-1.3,7-1.3c2.7,0,5,0.4,6.9,1.3
			C92.3,96.7,93.3,97.8,93.3,99.1z"/>
		<linearGradient id="SVGID_17_" gradientUnits="userSpaceOnUse" x1="87.0498" y1="123.0996" x2="87.0498" y2="114.2996">
			<stop  offset="0" style="stop-color:#4E3957"/>
			<stop  offset="0.5882" style="stop-color:#231B26"/>
			<stop  offset="1" style="stop-color:#1C161E"/>
		</linearGradient>
		<path fill-rule="evenodd" clip-rule="evenodd" fill="url(#SVGID_17_)" d="M80.1,115.4c1.9-0.9,4.2-1.3,7-1.3c2.7,0,5,0.4,6.9,1.3
			c1.9,0.9,2.9,2,2.9,3.3s-1,2.3-2.9,3.3c-1.9,0.9-4.2,1.3-6.9,1.3c-2.7,0-5-0.5-7-1.3c-1.9-0.9-2.8-2-2.8-3.3
			S78.2,116.3,80.1,115.4z"/>
		
			<linearGradient id="SVGID_18_" gradientUnits="userSpaceOnUse" x1="-696.5547" y1="11.6934" x2="-686.2297" y2="11.6934" gradientTransform="matrix(9.685231e-005 -1 1 -3.942183e-003 79.0229 -552.2419)">
			<stop  offset="0" style="stop-color:#4E3957"/>
			<stop  offset="0.5882" style="stop-color:#231B26"/>
			<stop  offset="1" style="stop-color:#1C161E"/>
		</linearGradient>
		<path fill-rule="evenodd" clip-rule="evenodd" fill="url(#SVGID_18_)" d="M100.5,138.3c0,1.3-1,2.4-2.9,3.3
			c-1.9,0.9-4.2,1.4-6.9,1.4c-2.7,0-5.1-0.5-7-1.4c-1.9-0.9-2.9-2-2.9-3.3s1-2.4,2.9-3.3c1.9-0.9,4.2-1.3,7-1.3c2.7,0,5,0.4,6.9,1.3
			C99.5,135.9,100.5,137,100.5,138.3z"/>
		<linearGradient id="SVGID_19_" gradientUnits="userSpaceOnUse" x1="164.25" y1="144.2002" x2="164.25" y2="133.2002">
			<stop  offset="0" style="stop-color:#4E3957"/>
			<stop  offset="0.5882" style="stop-color:#231B26"/>
			<stop  offset="1" style="stop-color:#1C161E"/>
		</linearGradient>
		<path fill-rule="evenodd" clip-rule="evenodd" fill="url(#SVGID_19_)" d="M164.3,133.7c2.7,0,5,0.4,6.9,1.3c1.9,0.9,2.9,2,2.9,3.3
			s-1,2.4-2.9,3.3c-1.9,0.9-4.2,1.4-6.9,1.4c-2.7,0-5-0.5-7-1.4c-1.9-0.9-2.8-2-2.8-3.3s1-2.4,2.8-3.3
			C159.2,134.1,161.5,133.7,164.3,133.7z"/>
		
			<path fill-rule="evenodd" clip-rule="evenodd" fill="none" stroke="#FFFBF0" stroke-linecap="round" stroke-linejoin="round" stroke-miterlimit="3" d="
			M124.7,94.5c2.7,0,5,0.4,6.9,1.3c1.9,0.9,2.9,2,2.9,3.3s-1,2.4-2.9,3.3c-1.9,0.9-4.2,1.4-6.9,1.4c-2.7,0-5.1-0.5-7-1.4
			c-1.9-0.9-2.9-2-2.9-3.3s1-2.4,2.9-3.3C119.6,94.9,121.9,94.5,124.7,94.5z M174.3,95.8c1.9,0.9,2.9,2,2.9,3.3s-1,2.4-2.9,3.3
			c-1.9,0.9-4.2,1.4-6.9,1.4c-2.7,0-5-0.5-7-1.4c-1.9-0.9-2.8-2-2.8-3.3s0.9-2.4,2.8-3.3c1.9-0.9,4.2-1.3,7-1.3
			C170.2,94.5,172.5,94.9,174.3,95.8z M158.1,115.4c1.9-0.9,4.2-1.3,7-1.3c2.7,0,5,0.4,6.9,1.3c1.9,0.9,2.9,2,2.9,3.3
			s-1,2.3-2.9,3.3c-1.9,0.9-4.2,1.3-6.9,1.3c-2.7,0-5-0.5-7-1.3c-1.9-0.9-2.8-2-2.8-3.3S156.2,116.3,158.1,115.4z M93.3,99.1
			c0,1.3-1,2.4-2.9,3.3c-1.9,0.9-4.2,1.4-6.9,1.4c-2.7,0-5-0.5-7-1.4c-1.9-0.9-2.8-2-2.8-3.3s0.9-2.4,2.8-3.3c1.9-0.9,4.2-1.3,7-1.3
			c2.7,0,5,0.4,6.9,1.3C92.3,96.7,93.3,97.8,93.3,99.1z M80.1,115.4c1.9-0.9,4.2-1.3,7-1.3c2.7,0,5,0.4,6.9,1.3
			c1.9,0.9,2.9,2,2.9,3.3s-1,2.3-2.9,3.3c-1.9,0.9-4.2,1.3-6.9,1.3c-2.7,0-5-0.5-7-1.3c-1.9-0.9-2.8-2-2.8-3.3
			S78.2,116.3,80.1,115.4z M100.5,138.3c0,1.3-1,2.4-2.9,3.3c-1.9,0.9-4.2,1.4-6.9,1.4c-2.7,0-5.1-0.5-7-1.4c-1.9-0.9-2.9-2-2.9-3.3
			s1-2.4,2.9-3.3c1.9-0.9,4.2-1.3,7-1.3c2.7,0,5,0.4,6.9,1.3C99.5,135.9,100.5,137,100.5,138.3z M164.3,133.7c2.7,0,5,0.4,6.9,1.3
			c1.9,0.9,2.9,2,2.9,3.3s-1,2.4-2.9,3.3c-1.9,0.9-4.2,1.4-6.9,1.4c-2.7,0-5-0.5-7-1.4c-1.9-0.9-2.8-2-2.8-3.3s1-2.4,2.8-3.3
			C159.2,134.1,161.5,133.7,164.3,133.7z"/>
	</g>
	<g>
		<linearGradient id="SVGID_20_" gradientUnits="userSpaceOnUse" x1="165.2246" y1="117" x2="165.2246" y2="120">
			<stop  offset="0" style="stop-color:#AF986F"/>
			<stop  offset="1" style="stop-color:#EBD6C5"/>
		</linearGradient>
		<polygon fill-rule="evenodd" clip-rule="evenodd" fill="url(#SVGID_20_)" points="165.5,117.2 168.7,116.3 165.5,121.2 
			165.5,121.2 161.8,116.3 		"/>
	</g>
	<g>
		
			<linearGradient id="SVGID_21_" gradientUnits="userSpaceOnUse" x1="-671.5225" y1="7.9707" x2="-668.5225" y2="7.9707" gradientTransform="matrix(3.333333e-004 -1 1 -1.000000e-003 79.0788 -551.3154)">
			<stop  offset="0" style="stop-color:#AF986F"/>
			<stop  offset="1" style="stop-color:#EBD6C5"/>
		</linearGradient>
		<polygon fill-rule="evenodd" clip-rule="evenodd" fill="url(#SVGID_21_)" points="87,120 83.3,121 87,116 87.1,116 90.3,121 		"/>
	</g>
	<g>
		<path fill-rule="evenodd" clip-rule="evenodd" fill="#C0A87C" d="M90.5,136.5h0.8L91,136c-0.1-0.2-0.1-0.3-0.2-0.4
			c0,0.1,0,0.3-0.1,0.4L90.5,136.5z M91,135.3l0.8,2.2h-0.3l-0.3-0.7h-0.9l-0.3,0.7h-0.3l0.8-2.2H91z M94.3,135.3l-0.8,1l0.8,1.2H94
			l-0.5-0.8c0-0.1-0.1-0.1-0.1-0.2c-0.1,0.1-0.1,0.1-0.1,0.2l-0.5,0.8h-0.4l0.9-1.1l-0.8-1h0.3l0.4,0.5c0.1,0.1,0.1,0.2,0.1,0.3
			c0.1-0.1,0.1-0.1,0.2-0.3l0.4-0.5H94.3z M87.1,135.3h0.5l0.5,1.5c0.1,0.2,0.1,0.3,0.1,0.4c0-0.1,0.1-0.2,0.1-0.4l0.5-1.5h0.4v2.2
			h-0.3v-1.8l-0.7,1.8H88l-0.6-1.9v1.9h-0.3V135.3z M89.7,139.3v2.2h-0.3v-1.8l-0.7,1.8h-0.3l-0.6-1.9v1.9h-0.3v-2.2H88l0.5,1.5
			c0.1,0.2,0.1,0.3,0.1,0.4c0-0.1,0.1-0.2,0.1-0.4l0.5-1.5H89.7z M93.5,139.3v2.2h-0.3l-1.1-1.7v1.7h-0.3v-2.2h0.3l1.1,1.7v-1.7
			H93.5z M90.9,139.3v2.2h-0.3v-2.2H90.9z"/>
	</g>
	<g>
		
			<line fill-rule="evenodd" clip-rule="evenodd" fill="none" stroke="#C0A87C" stroke-width="0.1" stroke-linecap="round" stroke-linejoin="round" stroke-miterlimit="3" x1="85.3" y1="138.4" x2="97.2" y2="138.4"/>
	</g>
	<g>
		
			<line fill-rule="evenodd" clip-rule="evenodd" fill="none" stroke="#C0A87C" stroke-width="0.1" stroke-linecap="round" stroke-linejoin="round" stroke-miterlimit="3" x1="158" y1="138.3" x2="170" y2="138.3"/>
	</g>
	<g>
		<path fill-rule="evenodd" clip-rule="evenodd" fill="#C0A87C" d="M167.5,136.6c0,0.3-0.1,0.6-0.3,0.8c-0.2,0.2-0.5,0.3-0.8,0.3
			c-0.3,0-0.6-0.1-0.8-0.3c-0.2-0.2-0.3-0.5-0.3-0.8c0-0.2,0-0.4,0.1-0.5c0-0.1,0.1-0.2,0.2-0.3c0.1-0.1,0.1-0.2,0.3-0.2
			c0.1-0.1,0.3-0.1,0.5-0.1c0.3,0,0.6,0.1,0.8,0.3C167.4,136,167.5,136.2,167.5,136.6z M166.4,135.8c-0.2,0-0.3,0.1-0.4,0.2
			c-0.1,0.1-0.2,0.3-0.2,0.5c0,0.3,0.1,0.5,0.2,0.6c0.1,0.1,0.2,0.1,0.4,0.1c0.2,0,0.3,0,0.4-0.1c0.1-0.1,0.2-0.3,0.2-0.6
			c0-0.2,0-0.4-0.2-0.5C166.8,135.9,166.6,135.8,166.4,135.8z M166.8,141h1.1v0.3h-1.5v-2.1h0.4V141z M162.3,136.1l-0.5,0.1
			c0-0.1,0-0.2-0.1-0.3c-0.1-0.1-0.2-0.1-0.3-0.1c-0.1,0-0.2,0-0.3,0.1c0,0,0,0.1,0,0.1c0,0,0,0.1,0,0.1c0.1,0.1,0.2,0.1,0.4,0.1
			c0.2,0.1,0.4,0.1,0.5,0.2c0.1,0.1,0.2,0.1,0.2,0.3c0.1,0.1,0.1,0.2,0.1,0.3s0,0.3-0.1,0.3c-0.1,0.1-0.2,0.2-0.3,0.3
			c-0.1,0.1-0.3,0.1-0.5,0.1c-0.3,0-0.5-0.1-0.7-0.2c-0.1-0.1-0.2-0.3-0.3-0.5l0.5,0c0,0.1,0,0.2,0.2,0.3c0.1,0.1,0.2,0.1,0.3,0.1
			c0.1,0,0.2,0,0.3,0c0.1-0.1,0.1-0.1,0.1-0.2s0-0.1,0-0.1c0,0-0.1-0.1-0.2-0.1c0,0-0.2,0-0.4-0.1c-0.2-0.1-0.4-0.1-0.5-0.2
			c-0.1-0.1-0.2-0.3-0.2-0.5c0-0.1,0-0.2,0.1-0.3c0-0.1,0.1-0.2,0.3-0.2c0.1-0.1,0.2-0.1,0.4-0.1c0.3,0,0.5,0.1,0.6,0.2
			C162.2,135.8,162.3,135.9,162.3,136.1z M163,135.5h1.7v0.3h-0.6v1.8h-0.4v-1.8H163V135.5z M164.5,139.5c-0.2,0-0.3,0-0.5,0.2
			c-0.1,0.1-0.1,0.3-0.1,0.5c0,0.3,0,0.5,0.1,0.6c0.1,0.1,0.3,0.2,0.5,0.2c0.1,0,0.2,0,0.3,0c0.1,0,0.1-0.1,0.2-0.1v-0.3h-0.5v-0.3
			h1v0.8c-0.1,0.1-0.2,0.2-0.4,0.3c-0.2,0.1-0.3,0.1-0.5,0.1c-0.2,0-0.4-0.1-0.6-0.2c-0.2-0.1-0.3-0.2-0.4-0.4
			c-0.1-0.2-0.1-0.4-0.1-0.6c0-0.2,0-0.4,0.1-0.6c0.1-0.2,0.2-0.3,0.4-0.4c0.1-0.1,0.3-0.1,0.5-0.1c0.3,0,0.5,0.1,0.7,0.2
			c0.1,0.1,0.2,0.3,0.3,0.5l-0.4,0.1c0-0.1-0.1-0.2-0.2-0.3C164.7,139.6,164.6,139.5,164.5,139.5z M162.5,139.5
			c0.1,0.1,0.1,0.2,0.1,0.3c0,0.2-0.1,0.3-0.2,0.4c-0.1,0.1-0.3,0.2-0.5,0.2c0.1,0.1,0.2,0.1,0.3,0.2c0.1,0.1,0.2,0.2,0.3,0.4
			l0.3,0.4h-0.5l-0.3-0.4c-0.1-0.2-0.2-0.3-0.2-0.4c0,0-0.1,0-0.2,0c0,0-0.1,0-0.2,0h-0.1v0.9h-0.5v-2.1h1c0.2,0,0.4,0,0.5,0
			C162.4,139.3,162.5,139.3,162.5,139.5z M161.3,139.5v0.5h0.3c0.2,0,0.4,0,0.4,0c0.1,0,0.1-0.1,0.2-0.1c0,0,0-0.1,0-0.2
			c0-0.1,0-0.2-0.1-0.2c0,0-0.1-0.1-0.1-0.1c0,0-0.1,0-0.3,0H161.3z"/>
	</g>
	<g>
		
			<line fill-rule="evenodd" clip-rule="evenodd" fill="none" stroke="#C0A87C" stroke-width="0.1" stroke-linecap="round" stroke-linejoin="round" stroke-miterlimit="3" x1="118.3" y1="99.1" x2="130.2" y2="99.1"/>
	</g>
	<g>
		<path fill-rule="evenodd" clip-rule="evenodd" fill="#C0A87C" d="M126.5,100.2l-0.8,1.8h-0.5l-0.8-1.8h0.5l0.5,1.3l0.5-1.3H126.5z
			 M125.4,95.8h0.4v1.8h-0.4v-0.8h-0.9v0.8h-0.5v-1.8h0.5v0.8h0.9V95.8z M123.6,96.4c0.1,0.1,0.2,0.3,0.2,0.5c0,0.2,0,0.4-0.2,0.5
			c-0.1,0.1-0.3,0.2-0.5,0.2c-0.1,0-0.1,0-0.2-0.1c-0.1,0-0.2-0.1-0.3-0.1v0.6h-0.4v-1.8h0.4v0.2c0-0.1,0.1-0.1,0.2-0.2
			c0.1,0,0.2,0,0.3,0C123.3,96.3,123.5,96.3,123.6,96.4z M122.8,96.6c-0.1,0.1-0.1,0.2-0.1,0.3c0,0.2,0,0.3,0.1,0.3s0.2,0.1,0.3,0.1
			s0.2,0,0.3-0.1s0.1-0.2,0.1-0.3c0-0.2,0-0.3-0.1-0.4c-0.1-0.1-0.2-0.1-0.3-0.1S122.8,96.5,122.8,96.6z M122.4,100.9
			c0.1-0.1,0.3-0.2,0.5-0.2c0.1,0,0.2,0,0.3,0c0.1,0,0.1,0.1,0.2,0.2c0.1-0.1,0.1-0.1,0.2-0.2c0.1,0,0.2,0,0.3,0c0.1,0,0.2,0,0.3,0
			c0.1,0,0.1,0.1,0.2,0.2c0,0.1,0,0.2,0,0.3v0.8h-0.4v-0.8c0-0.1,0-0.2-0.1-0.3c0-0.1-0.1-0.1-0.1-0.1s-0.1,0-0.2,0
			c-0.1,0-0.1,0.1-0.1,0.2c0,0,0,0.1,0,0.3v0.6H123v-0.8c0-0.1,0-0.2,0-0.3c0,0,0,0,0,0c0,0-0.1,0-0.2,0s-0.1,0-0.2,0
			c-0.1,0-0.1,0.1-0.1,0.2c0,0,0,0.1,0,0.3v0.6H122v-1.3h0.4V100.9z"/>
	</g>
	<g>
		<path fill-rule="evenodd" clip-rule="evenodd" fill="#C0A87C" d="M171.1,98.3c-0.1-0.1-0.3-0.1-0.4-0.1c-0.2,0-0.4,0-0.5,0.1
			c-0.1,0-0.1,0.1-0.1,0.2c0,0.1,0,0.1,0.1,0.2c0.1,0.1,0.3,0.1,0.6,0.2c0.4,0.1,0.6,0.1,0.8,0.2c0.2,0.1,0.3,0.2,0.4,0.3
			c0.1,0.1,0.2,0.3,0.2,0.5c0,0.2-0.1,0.3-0.2,0.5c-0.1,0.2-0.3,0.3-0.5,0.3c-0.2,0.1-0.5,0.1-0.8,0.1c-0.4,0-0.8-0.1-1-0.3
			c-0.2-0.2-0.4-0.5-0.4-0.8l0.7,0c0,0.2,0.1,0.3,0.3,0.5c0.1,0.1,0.3,0.1,0.5,0.1c0.2,0,0.4,0,0.5-0.1c0.1-0.1,0.2-0.2,0.2-0.3
			c0-0.1,0-0.1-0.1-0.2c-0.1,0-0.1-0.1-0.3-0.1c-0.1,0-0.3-0.1-0.6-0.1c-0.4-0.1-0.7-0.2-0.8-0.3c-0.2-0.2-0.4-0.4-0.4-0.6
			c0-0.2,0.1-0.3,0.2-0.5c0.1-0.1,0.3-0.2,0.5-0.3s0.4-0.1,0.7-0.1c0.5,0,0.8,0.1,1,0.3c0.2,0.2,0.3,0.4,0.3,0.6l-0.8,0.1
			C171.3,98.5,171.2,98.4,171.1,98.3z M166.8,99h1.8v0.5h-1.8v0.8h2v0.5H166v-3h2.7v0.5h-1.9V99z M164.8,97.8
			c0.2,0.1,0.4,0.2,0.5,0.3c0.1,0.1,0.2,0.3,0.2,0.5c0,0.2-0.1,0.4-0.3,0.6c-0.2,0.2-0.4,0.3-0.7,0.3c0.2,0.1,0.3,0.1,0.4,0.3
			c0.1,0.1,0.2,0.3,0.4,0.5l0.5,0.6h-0.9l-0.5-0.6c-0.2-0.3-0.3-0.4-0.4-0.5c-0.1-0.1-0.1-0.1-0.2-0.2s-0.2,0-0.4,0h-0.1v1.3h-0.8
			v-3h1.5C164.4,97.8,164.6,97.8,164.8,97.8z M163.2,99h0.5c0.4,0,0.6,0,0.6,0c0.1,0,0.2-0.1,0.3-0.2c0-0.1,0.1-0.1,0.1-0.2
			c0-0.1,0-0.2-0.1-0.3c-0.1-0.1-0.1-0.1-0.3-0.2c-0.1,0-0.3,0-0.5,0h-0.5V99z"/>
	</g>
	<g>
		
			<line fill-rule="evenodd" clip-rule="evenodd" fill="none" stroke="#C0A87C" stroke-width="0.1" stroke-linecap="round" stroke-linejoin="round" stroke-miterlimit="3" x1="77.5" y1="98.3" x2="89.3" y2="98.3"/>
	</g>
	<g>
		<path fill-rule="evenodd" clip-rule="evenodd" fill="#C0A87C" d="M83.6,96.3c-0.1,0.1-0.1,0.2-0.3,0.2c-0.1,0-0.3,0-0.3-0.2
			c0-0.1,0-0.1,0-0.3c0-0.1,0-0.2,0-0.3c0.1-0.1,0.2-0.1,0.3-0.1c0.1,0,0.2,0,0.3,0.1c0.1,0.1,0.2,0.2,0.2,0.3
			C83.8,96.2,83.7,96.3,83.6,96.3z"/>
		
			<path fill-rule="evenodd" clip-rule="evenodd" fill="none" stroke="#C0A87C" stroke-width="0.5" stroke-linecap="round" stroke-linejoin="round" stroke-miterlimit="3" d="
			M84.7,95.5c0.1,0.2,0.1,0.4,0.1,0.6c0,0.4-0.1,0.7-0.5,1c-0.3,0.3-0.6,0.5-1,0.5c-0.4,0-0.8-0.1-1.1-0.5c-0.2-0.3-0.3-0.6-0.3-1
			c0-0.2,0-0.4,0.1-0.6"/>
	</g>
	<g>
		<path fill-rule="evenodd" clip-rule="evenodd" fill="#C0A87C" d="M87,102.1h-2v-2.8h0.6v2.3H87V102.1z M81.8,100l-0.6,0.1
			c0-0.1-0.1-0.3-0.2-0.4c-0.1-0.1-0.2-0.1-0.4-0.1c-0.2,0-0.4,0.1-0.5,0.2c-0.1,0.2-0.2,0.4-0.2,0.8c0,0.4,0.1,0.6,0.2,0.8
			c0.1,0.2,0.3,0.3,0.5,0.3c0.1,0,0.3-0.1,0.4-0.2c0.1-0.1,0.2-0.3,0.2-0.5l0.6,0.2c-0.1,0.3-0.3,0.5-0.5,0.7
			c-0.2,0.2-0.4,0.3-0.8,0.3c-0.4,0-0.7-0.1-0.9-0.4s-0.4-0.6-0.4-1c0-0.5,0.1-0.8,0.4-1.1c0.3-0.3,0.6-0.4,1-0.4
			c0.3,0,0.6,0.1,0.8,0.3C81.6,99.6,81.7,99.8,81.8,100z M83.4,99.9l-0.4,1h0.8L83.4,99.9z M83.8,99.3l1.1,2.8h-0.6l-0.3-0.6h-1.2
			l-0.3,0.6H82l1.1-2.8H83.8z"/>
	</g>
	<g>
		<path fill-rule="evenodd" clip-rule="evenodd" fill="#C0A87C" d="M135.6,89h-0.8v-1.5h-1.4V89h-0.8v-3.6h0.8v1.4h1.4v-1.4h0.8V89z
			 M131.1,86.3c0.3,0,0.6,0.1,0.8,0.4c0.2,0.2,0.3,0.6,0.3,1s-0.1,0.8-0.3,1c-0.2,0.2-0.4,0.3-0.8,0.3c-0.2,0-0.3,0-0.4-0.1
			c-0.1,0-0.3-0.1-0.4-0.3V90h-0.7v-3.6h0.6v0.4c0.1-0.1,0.2-0.3,0.3-0.3C130.8,86.4,130.9,86.3,131.1,86.3z M130.9,86.9
			c-0.2,0-0.3,0.1-0.4,0.2c-0.1,0.1-0.2,0.3-0.2,0.6c0,0.3,0.1,0.5,0.2,0.6c0.1,0.1,0.2,0.2,0.4,0.2c0.2,0,0.3-0.1,0.4-0.2
			c0.1-0.1,0.2-0.3,0.2-0.6c0-0.3,0-0.5-0.2-0.6C131.2,87,131.1,86.9,130.9,86.9z M126.7,85.5c0.2,0.1,0.4,0.2,0.5,0.3
			c0.2,0.2,0.3,0.4,0.3,0.6s0.1,0.5,0.1,0.8c0,0.3,0,0.5-0.1,0.8c-0.1,0.3-0.2,0.5-0.4,0.7c-0.1,0.1-0.3,0.2-0.5,0.3
			c-0.2,0.1-0.4,0.1-0.7,0.1h-1.3v-3.6h1.3C126.3,85.4,126.5,85.4,126.7,85.5z M126.7,86.3c-0.1-0.1-0.2-0.2-0.4-0.2
			c-0.1,0-0.3,0-0.6,0h-0.3v2.4h0.5c0.2,0,0.4,0,0.4-0.1c0.1,0,0.2-0.1,0.3-0.1c0.1-0.1,0.1-0.2,0.2-0.4c0-0.1,0.1-0.3,0.1-0.6
			c0-0.3,0-0.5-0.1-0.6C126.8,86.4,126.7,86.3,126.7,86.3z M121.5,88h-1.3v-0.7h1.3V88z M122.7,86.8c0.2,0,0.3,0,0.4-0.1
			c0.1-0.1,0.2-0.2,0.2-0.4c0-0.1,0-0.2-0.1-0.3c-0.1-0.1-0.2-0.1-0.3-0.1c-0.1,0-0.2,0-0.3,0.1c-0.1,0.1-0.1,0.2-0.2,0.4l-0.6-0.1
			c0-0.2,0.1-0.4,0.2-0.5c0.1-0.1,0.2-0.2,0.3-0.3c0.2-0.1,0.4-0.1,0.5-0.1c0.3,0,0.6,0.1,0.8,0.3c0.2,0.2,0.3,0.3,0.3,0.5
			c0,0.3-0.2,0.6-0.5,0.8c0.2,0,0.4,0.1,0.5,0.3c0.1,0.2,0.1,0.4,0.1,0.6c0,0.3-0.1,0.6-0.3,0.8c-0.2,0.2-0.5,0.3-0.9,0.3
			c-0.3,0-0.6-0.1-0.8-0.3c-0.2-0.2-0.3-0.5-0.3-0.8l0.6-0.1c0,0.2,0.1,0.3,0.2,0.4c0.1,0.1,0.2,0.2,0.3,0.2c0.1,0,0.3,0,0.4-0.2
			c0.1-0.1,0.1-0.3,0.1-0.4c0-0.2,0-0.3-0.1-0.4c-0.1-0.1-0.2-0.2-0.3-0.2c-0.1,0-0.2,0-0.4,0.1L122.7,86.8z M116.2,85.4V89h-0.8
			v-1.5H114V89h-0.8v-3.6h0.8v1.4h1.4v-1.4H116.2z M117.6,86.5c0.1,0.1,0.3,0.1,0.7,0.2c0.4,0.1,0.6,0.2,0.8,0.3
			c0.2,0.1,0.3,0.2,0.4,0.4c0.1,0.1,0.1,0.3,0.1,0.5c0,0.2-0.1,0.4-0.2,0.6c-0.1,0.2-0.3,0.3-0.5,0.4c-0.2,0.1-0.5,0.1-0.8,0.1
			c-0.4,0-0.8-0.1-1.1-0.3c-0.2-0.2-0.4-0.5-0.4-0.9l0.7-0.1c0,0.2,0.1,0.4,0.3,0.5c0.1,0.1,0.3,0.2,0.5,0.2c0.2,0,0.4,0,0.5-0.2
			c0.1-0.1,0.1-0.2,0.1-0.3c0-0.1,0-0.1,0-0.2c-0.1-0.1-0.1-0.1-0.3-0.2c-0.1,0-0.3-0.1-0.6-0.1c-0.4-0.1-0.7-0.2-0.8-0.4
			c-0.2-0.2-0.4-0.4-0.4-0.8c0-0.2,0-0.3,0.2-0.5c0.1-0.2,0.3-0.3,0.5-0.3c0.2-0.1,0.4-0.2,0.7-0.2c0.5,0,0.8,0.1,1.1,0.3
			c0.2,0.2,0.3,0.5,0.3,0.8l-0.8,0c0-0.2-0.1-0.3-0.2-0.4c-0.1-0.1-0.3-0.1-0.5-0.1c-0.2,0-0.4,0-0.5,0.1c-0.1,0-0.1,0.1-0.1,0.2
			C117.5,86.4,117.5,86.5,117.6,86.5z M112,85.5c0.2,0.1,0.4,0.2,0.5,0.4c0.1,0.2,0.2,0.4,0.2,0.7c0,0.2,0,0.4-0.1,0.6
			c-0.1,0.1-0.2,0.3-0.3,0.4c-0.1,0.1-0.3,0.1-0.4,0.1c-0.2,0-0.4,0.1-0.8,0.1h-0.4V89h-0.8v-3.6h1.1
			C111.5,85.4,111.8,85.4,112,85.5z M111.5,86c-0.1,0-0.2,0-0.5,0h-0.3v1h0.4c0.3,0,0.5,0,0.5,0c0.1,0,0.2-0.1,0.3-0.2
			c0-0.1,0.1-0.1,0.1-0.3c0-0.1,0-0.3-0.1-0.3C111.7,86.1,111.6,86.1,111.5,86z"/>
	</g>
	<g>
		<polygon fill-rule="evenodd" clip-rule="evenodd" fill="#1B4D6D" points="160.6,20 83.5,20 83.5,51 81.1,51 81.1,18 160.6,18 		
			"/>
		<rect x="83.5" y="20" fill-rule="evenodd" clip-rule="evenodd" fill="#2772AB" width="77.1" height="31"/>
	</g>
	<g>
		<path fill-rule="evenodd" clip-rule="evenodd" fill="#011C43" d="M151.2,26.2c-0.1,0.3-0.3,0.6-0.5,0.8c-0.2,0.2-0.4,0.4-0.7,0.5
			c-0.3,0.1-0.5,0.2-0.9,0.2c-0.3,0-0.5,0-0.7-0.1c-0.2-0.1-0.4-0.1-0.6-0.3v2h-1.6v-6.8h1.6v0.6c0.2-0.2,0.5-0.4,0.8-0.5
			c0.2-0.1,0.5-0.2,0.9-0.2c0.6,0,1.1,0.2,1.4,0.7c0.3,0.5,0.5,1.1,0.5,1.8C151.3,25.4,151.3,25.8,151.2,26.2z M153.8,21v2.4h2.5V21
			h1.7v6.5h-1.7v-2.9h-2.5v2.9h-1.7V21H153.8z M147.8,26.4c0.1,0.1,0.2,0.1,0.3,0.1c0.1,0,0.3,0,0.4,0c0.4,0,0.7-0.1,0.9-0.3
			c0.2-0.2,0.3-0.6,0.3-1.1c0-0.5-0.1-0.8-0.3-1c-0.2-0.2-0.4-0.3-0.8-0.3c-0.2,0-0.3,0-0.5,0c-0.2,0-0.3,0.1-0.5,0.2V26.4z"/>
	</g>
	<g>
		<path fill-rule="evenodd" clip-rule="evenodd" fill="none" d="M180.3,53.3c-0.8,6.1-3.3,12.8-7.8,20.1H69.2
			c-4.6-4.6-7.4-10.7-8.6-18.5"/>
	</g>
</g>
</svg>
