<?xml version="1.0" encoding="utf-8"?>
<!-- Generator: Adobe Illustrator 16.0.0, SVG Export Plug-In . SVG Version: 6.00 Build 0)  -->
<!DOCTYPE svg PUBLIC "-//W3C//DTD SVG 1.1//EN" "http://www.w3.org/Graphics/SVG/1.1/DTD/svg11.dtd">
<svg version="1.1" id="Layer_1" xmlns="http://www.w3.org/2000/svg" xmlns:xlink="http://www.w3.org/1999/xlink" x="0px" y="0px"
	 width="171px" height="98.7px" viewBox="0 0 171 98.7" enable-background="new 0 0 171 98.7" xml:space="preserve">
<g>
	<path fill-rule="evenodd" clip-rule="evenodd" fill="#FFFFDD" d="M44,47.8l0.1-0.4L44,47.8H7.2c-3.5,0-5.2-1.7-5.2-5.2V8.1
		c0-3.5,1.7-5.2,5.2-5.2h155.3c3.5,0,5.2,1.7,5.2,5.2v34.6c0,3.5-1.7,5.2-5.2,5.2H62.2L37.5,96.4L44,47.8z"/>
	
		<path fill-rule="evenodd" clip-rule="evenodd" fill="none" stroke="#FAC783" stroke-width="1.9" stroke-linecap="round" stroke-linejoin="round" stroke-miterlimit="3" d="
		M44,47.8l-6.4,48.6l24.6-48.6h100.3c3.5,0,5.2-1.7,5.2-5.2V8.1c0-3.5-1.7-5.2-5.2-5.2H7.2C3.7,2.9,2,4.6,2,8.1v34.6
		c0,3.5,1.7,5.2,5.2,5.2H44l0.1-0.4"/>
</g>
</svg>
