<?xml version="1.0" encoding="utf-8"?>
<!-- Generator: Adobe Illustrator 16.0.0, SVG Export Plug-In . SVG Version: 6.00 Build 0)  -->
<!DOCTYPE svg PUBLIC "-//W3C//DTD SVG 1.1//EN" "http://www.w3.org/Graphics/SVG/1.1/DTD/svg11.dtd">
<svg version="1.1" id="bulb" xmlns="http://www.w3.org/2000/svg" xmlns:xlink="http://www.w3.org/1999/xlink" x="0px" y="0px"
	 width="14px" height="42px" viewBox="0 0 14 42" enable-background="new 0 0 14 42" xml:space="preserve">
<g>
	<g>
		<g>
			<path fill-rule="evenodd" clip-rule="evenodd" d="M6.1,16.6l0.1-0.1l0.2,0.1l0,0.1v3.7c0,0.1,0,0.1,0,0.1c-0.1,0-0.1,0.1-0.2,0.1
				c-0.1,0-0.1,0-0.1-0.1c0,0,0-0.1,0-0.1v-3.7L6.1,16.6z"/>
			<linearGradient id="SVGID_1_" gradientUnits="userSpaceOnUse" x1="4.3032" y1="25.8213" x2="8.6145" y2="36.277">
				<stop  offset="0" style="stop-color:#0D0D0D"/>
				<stop  offset="0.8078" style="stop-color:#030303"/>
				<stop  offset="1" style="stop-color:#000000;stop-opacity:0"/>
			</linearGradient>
			<polygon fill-rule="evenodd" clip-rule="evenodd" fill="url(#SVGID_1_)" points="7.7,13 2.5,14.4 2.5,27.9 2.5,27.9 9.2,25.5 
				9.3,37 1,40.7 1,12.9 7.7,11 			"/>
		</g>
		<g>
			<polygon fill-rule="evenodd" clip-rule="evenodd" fill="#42324E" points="9.8,11.8 3.1,13.6 1.6,13 7.8,11.3 			"/>
			<linearGradient id="SVGID_2_" gradientUnits="userSpaceOnUse" x1="6.0684" y1="12.5786" x2="0.108" y2="43.9564">
				<stop  offset="0" style="stop-color:#352541"/>
				<stop  offset="1" style="stop-color:#09060B"/>
			</linearGradient>
			<polygon fill-rule="evenodd" clip-rule="evenodd" fill="url(#SVGID_2_)" points="3.1,13.6 3.1,26.8 6,36.3 1.6,35.7 1.6,13 			
				"/>
			<polygon fill-rule="evenodd" clip-rule="evenodd" fill="#120D15" points="9.8,24.4 3.1,26.8 3.1,13.6 9.8,11.8 			"/>
			<polygon fill-rule="evenodd" clip-rule="evenodd" fill="#1B141F" points="3.1,26.8 9.8,24.4 12.7,33.4 6,36.3 			"/>
		</g>
		<g>
			<path fill-rule="evenodd" clip-rule="evenodd" fill="#FFFFFF" fill-opacity="0.498" d="M8,29c0-0.1,0-0.1,0-0.1
				c0,0,0.1-0.1,0.2-0.1c0,0,0.1,0,0.1,0c0.1,0.1,0.1,0.1,0.1,0.2l0.9,3.1c0,0,0,0.1,0,0.1c0,0.1-0.1,0.1-0.2,0.1c0,0-0.1,0-0.1,0
				c0,0-0.1-0.1-0.1-0.1L8,29z M6.9,16.9c0.2-0.4,0.5-0.6,0.7-0.6c0.3,0,0.6,0.2,0.8,0.6l0,0.1c0.1,0.3,0.2,0.6,0.2,1.1
				c0,0.4-0.1,0.8-0.3,1.2c-0.2,0.4-0.4,0.5-0.7,0.5c-0.3,0-0.5-0.2-0.7-0.5c-0.1-0.3-0.2-0.7-0.2-1.2C6.6,17.6,6.7,17.2,6.9,16.9
				L6.9,16.9z M7.5,16.6c-0.1,0-0.3,0.1-0.3,0.4C7,17.3,7,17.7,7,18c0,0.4,0,0.7,0.2,1l0,0.1c0.1,0.2,0.3,0.3,0.4,0.3
				c0.1,0,0.3-0.1,0.4-0.3c0.2-0.3,0.3-0.6,0.3-1.1c0-0.4-0.1-0.8-0.2-1C7.9,16.8,7.7,16.7,7.5,16.6z"/>
		</g>
		<g>
			<radialGradient id="SVGID_3_" cx="4.5" cy="13.2002" r="4.225" gradientUnits="userSpaceOnUse">
				<stop  offset="0" style="stop-color:#FFFFFF;stop-opacity:0.3294"/>
				<stop  offset="1" style="stop-color:#FEFEFE;stop-opacity:0"/>
			</radialGradient>
			<path fill-rule="evenodd" clip-rule="evenodd" fill="url(#SVGID_3_)" d="M3.3,13.8v-0.1c0,0,0-0.1,0-0.1
				c-0.1-0.1-0.1-0.1-0.1-0.1c0,0-0.1,0-0.1,0c0,0,0,0,0.1,0l6.1-1.7c0,0,0.1,0,0.1,0c0,0,0,0,0,0.1c0,0,0,0.1,0,0.1
				c0,0-0.1,0.1-0.1,0.1L3.3,13.8z"/>
			<radialGradient id="SVGID_4_" cx="3.1499" cy="15.8501" r="11.2625" gradientUnits="userSpaceOnUse">
				<stop  offset="0" style="stop-color:#FFFFFF;stop-opacity:0.3294"/>
				<stop  offset="1" style="stop-color:#FEFEFE;stop-opacity:0"/>
			</radialGradient>
			<path fill-rule="evenodd" clip-rule="evenodd" fill="url(#SVGID_4_)" d="M3.3,13.8v12.8c0,0,0,0.1,0,0.1c-0.1,0-0.1,0-0.1,0
				c-0.1,0-0.1,0-0.1,0l0,0c0,0-0.1-0.1-0.1-0.1L3,13.8c0,0,0-0.1,0-0.1c0,0,0,0,0,0c0,0,0-0.1,0-0.1c0,0,0.1,0,0.1,0
				c0,0,0.1,0,0.1,0.1c0,0,0,0.1,0,0.1V13.8z"/>
			<radialGradient id="SVGID_5_" cx="4.4502" cy="30.9502" r="5.8625" fx="4.91" fy="30.9502" gradientUnits="userSpaceOnUse">
				<stop  offset="0" style="stop-color:#FFFFFF;stop-opacity:0.1686"/>
				<stop  offset="1" style="stop-color:#FEFEFE;stop-opacity:0"/>
			</radialGradient>
			<path fill-rule="evenodd" clip-rule="evenodd" fill="url(#SVGID_5_)" d="M3.3,26.6v0.1l3,9.2l-0.4,0.3L3,26.8c0,0,0-0.1,0-0.1
				l0,0c0,0,0,0,0.1,0c0,0,0.1,0,0.1,0C3.3,26.7,3.3,26.6,3.3,26.6z"/>
		</g>
	</g>
	<g>
		<g>
			
				<radialGradient id="SVGID_6_" cx="5.7002" cy="5.75" r="2.7" gradientTransform="matrix(1 0 0 1.7546 0 -4.3391)" gradientUnits="userSpaceOnUse">
				<stop  offset="0" style="stop-color:#000000"/>
				<stop  offset="0.5412" style="stop-color:#000000;stop-opacity:0.7059"/>
				<stop  offset="1" style="stop-color:#000000;stop-opacity:0"/>
			</radialGradient>
			<path fill-rule="evenodd" clip-rule="evenodd" fill="url(#SVGID_6_)" d="M7.8,2.8c0.5,0.8,0.8,1.9,0.8,3C8.5,7,8.3,8,7.8,9
				c-0.6,1-1.2,1.5-2,1.6c-0.8,0.2-1.5-0.3-2-1.4C3.2,8.1,2.9,7,2.9,5.8c0-1.2,0.3-2.2,0.8-3c0.6-0.9,1.2-1.3,2-1.3
				C6.5,1.5,7.2,1.9,7.8,2.8z"/>
		</g>
		<g>
			<path fill-rule="evenodd" clip-rule="evenodd" fill="none" d="M4,7.1C3.6,6.6,3.5,5.9,3.5,5c0-0.8,0.2-1.5,0.6-2.1
				C4.5,2.3,4.9,2,5.5,2s1,0.3,1.5,0.9C7.3,3.5,7.5,4.2,7.5,5c0,0.9-0.2,1.6-0.6,2.1C6.5,7.8,6.1,8,5.5,8S4.5,7.8,4,7.1z"/>
		</g>
		<g>
			
				<radialGradient id="SVGID_7_" cx="6.1499" cy="4.8999" r="1.8375" gradientTransform="matrix(1 0 0 1.3469 0 -1.7)" gradientUnits="userSpaceOnUse">
				<stop  offset="0" style="stop-color:#5D1018"/>
				<stop  offset="0.2706" style="stop-color:#540F15"/>
				<stop  offset="1" style="stop-color:#300809"/>
			</radialGradient>
			<path fill-rule="evenodd" clip-rule="evenodd" fill="url(#SVGID_7_)" d="M4.5,7.1C4.1,6.6,3.9,5.9,3.9,5c0-0.8,0.2-1.5,0.6-2.1
				C5,2.3,5.5,2,6.1,2s1.2,0.3,1.6,0.9S8.4,4.2,8.4,5c0,0.9-0.2,1.6-0.7,2.1C7.3,7.8,6.8,8,6.1,8S5,7.8,4.5,7.1z"/>
		</g>
		<g>
			
				<linearGradient id="SVGID_8_" gradientUnits="userSpaceOnUse" x1="-3.1802" y1="-7.0796" x2="-0.8638" y2="-7.0796" gradientTransform="matrix(-0.572 0.8202 -0.7376 -0.6905 8.462667e-004 2.658367e-005)">
				<stop  offset="0" style="stop-color:#FFFFFF;stop-opacity:0.498"/>
				<stop  offset="1" style="stop-color:#FAFAFA;stop-opacity:0"/>
			</linearGradient>
			<path fill-rule="evenodd" clip-rule="evenodd" fill="url(#SVGID_8_)" d="M7.2,3.8C7,4,6.7,4.1,6.4,4.1C6.1,4.1,5.9,4,5.6,3.8
				C5.5,3.6,5.4,3.4,5.4,3.2c0-0.2,0.1-0.4,0.3-0.6c0.2-0.2,0.5-0.3,0.8-0.4c0.3,0,0.6,0.1,0.8,0.3C7.3,2.8,7.5,3,7.5,3.2
				C7.5,3.4,7.3,3.6,7.2,3.8z"/>
		</g>
	</g>
</g>
</svg>
