<?xml version="1.0" encoding="utf-8"?>
<!-- Generator: Adobe Illustrator 16.0.0, SVG Export Plug-In . SVG Version: 6.00 Build 0)  -->
<!DOCTYPE svg PUBLIC "-//W3C//DTD SVG 1.1//EN" "http://www.w3.org/Graphics/SVG/1.1/DTD/svg11.dtd">
<svg version="1.1" id="Layer_1" xmlns="http://www.w3.org/2000/svg" xmlns:xlink="http://www.w3.org/1999/xlink" x="0px" y="0px"
	 width="33px" height="131px" viewBox="0 0 33 131" enable-background="new 0 0 33 131" xml:space="preserve">
<g>
	<g>
		<path fill-rule="evenodd" clip-rule="evenodd" fill="#FFFFFF" fill-opacity="0.5176" d="M1.3,44.5c0.2-0.7,1-1.3,2.4-1.8
			c0.6-0.2,1.2-0.3,1.9-0.5c3-0.7,6.5-1.1,10.6-1.1c4.1,0,7.6,0.4,10.5,1.1c0.7,0.2,1.4,0.4,2,0.5c1.3,0.5,2,1,2.3,1.5v1.1
			c-0.4,0.8-1.9,1.5-4.3,2.1c-2.9,0.7-6.5,1-10.5,1c-4.1,0-7.7-0.3-10.6-1c-2.6-0.7-4-1.5-4.3-2.3V44.5z"/>
		<path fill-rule="evenodd" clip-rule="evenodd" fill="#FFFFFF" fill-opacity="0.2" d="M31.1,45.4v71.3v0.6
			c-0.1,3.4-1.5,6.3-4.3,8.8c-2.9,2.5-6.4,3.8-10.5,3.8c-4.1,0-7.7-1.3-10.6-3.8c-2.8-2.4-4.2-5.3-4.3-8.8V45.2
			C1.6,46,3,46.8,5.6,47.5c3,0.7,6.5,1,10.6,1c4.1,0,7.6-0.3,10.5-1C29.2,46.9,30.7,46.2,31.1,45.4z"/>
		<path fill-rule="evenodd" clip-rule="evenodd" fill="none" d="M31.1,44.3v-6.8 M1.3,44.5v-7 M1.3,45.2v72.1
			c0.1,3.4,1.5,6.3,4.3,8.8c2.9,2.5,6.5,3.8,10.6,3.8c4.1,0,7.6-1.3,10.5-3.8c2.8-2.4,4.3-5.3,4.3-8.8v-0.6V45.4 M1.3,45.2v-0.7
			 M31.1,44.3v1.1"/>
	</g>
	<g>
		
			<radialGradient id="SVGID_1_" cx="14.7998" cy="48.8501" r="14.65" gradientTransform="matrix(1 0 0 0.541 0 22.4244)" gradientUnits="userSpaceOnUse">
			<stop  offset="0" style="stop-color:#FEFEFE"/>
			<stop  offset="0.4706" style="stop-color:#FEFEFE"/>
			<stop  offset="1" style="stop-color:#FFFFFF;stop-opacity:0"/>
		</radialGradient>
		<path fill-rule="evenodd" clip-rule="evenodd" fill="url(#SVGID_1_)" d="M30.9,44.5c-0.3-0.5-1-1-2.2-1.4c-0.6-0.2-1.3-0.4-2-0.5
			c-2.9-0.7-6.4-1.1-10.5-1.1c-4.1,0-7.6,0.4-10.5,1.1C5,42.8,4.4,43,3.8,43.1c-1.3,0.5-2,1-2.3,1.6c0,0.1,0,0.1,0,0.2
			c0,0.1,0,0.2,0,0.3c0.3,0.7,1.7,1.4,4.2,2.1c2.9,0.7,6.4,1,10.5,1c4.1,0,7.6-0.4,10.5-1c2.3-0.6,3.7-1.3,4.2-2
			C31,45.3,31,45.1,31,45C31,44.8,31,44.6,30.9,44.5z M28.8,42.6L28.8,42.6c1.3,0.5,2.2,1.1,2.5,1.6c0.1,0.2,0.2,0.4,0.2,0.7
			c0,0.2-0.2,0.7-0.7,1.4c-0.5,0.7-1.8,1.4-4,2c-2.6,0.7-6,1.1-10.1,1.1C12.3,49.5,8.4,49,5,48c-2.4-0.8-3.7-1.7-4-2.6v0
			C1,45.2,1,45,1,45c0-0.1,0-0.3,0.1-0.4H1c0.2-0.8,1.1-1.4,2.6-1.9v-0.1c0.5-0.2,1.2-0.4,1.9-0.5c3-0.7,6.5-1.1,10.7-1.1
			c4.1,0,7.7,0.4,10.6,1.1h0.1C27.6,42.3,28.3,42.5,28.8,42.6z"/>
	</g>
	<g>
		<path fill-rule="evenodd" clip-rule="evenodd" fill="#9CA7A1" d="M31.1,5c0,1.1-1.5,2.1-4.4,3c-2.9,0.8-6.4,1.3-10.5,1.3
			C12.1,9.3,8.6,8.8,5.6,8C2.8,7.2,1.3,6.2,1.3,5v0c0-1.1,1.2-2,3.6-2.8C5.1,2.1,5.4,2.1,5.6,2C6,1.9,6.3,1.8,6.7,1.8
			c2.7-0.7,5.9-1,9.5-1c0,0,0.1,0,0.1,0c3.6,0,6.8,0.3,9.5,1c0.3,0.1,0.6,0.1,1,0.3c0.3,0.1,0.6,0.2,0.8,0.3C29.9,3,31.1,3.9,31.1,5
			L31.1,5z M3.1,4.9c0,0.9,1.3,1.7,3.8,2.3c2.6,0.6,5.7,1,9.4,1c3.6,0,6.7-0.3,9.3-1c2.6-0.6,3.9-1.4,3.9-2.3c0-0.7-0.7-1.3-2.2-1.8
			c-0.5-0.2-1.1-0.3-1.7-0.5c-2.6-0.6-5.7-0.9-9.3-0.9c-3.6,0-6.8,0.3-9.4,0.9C6.3,2.7,5.7,2.9,5.3,3C3.8,3.6,3.1,4.2,3.1,4.9z"/>
		<linearGradient id="SVGID_2_" gradientUnits="userSpaceOnUse" x1="1.2998" y1="67.4248" x2="31.0996" y2="67.4248">
			<stop  offset="0" style="stop-color:#000000;stop-opacity:0.251"/>
			<stop  offset="0.2078" style="stop-color:#FFFFFF;stop-opacity:0.2431"/>
			<stop  offset="0.4588" style="stop-color:#CFCFCF;stop-opacity:0"/>
			<stop  offset="0.8" style="stop-color:#FFFFFF;stop-opacity:0.1373"/>
			<stop  offset="1" style="stop-color:#000000;stop-opacity:0.1686"/>
		</linearGradient>
		<path fill-rule="evenodd" clip-rule="evenodd" fill="url(#SVGID_2_)" d="M1.3,5c0,1.1,1.5,2.1,4.4,3c2.9,0.8,6.5,1.3,10.6,1.3
			c4.1,0,7.6-0.4,10.5-1.3c2.9-0.8,4.4-1.8,4.4-3v111.6v0.6c-0.1,3.4-1.5,6.3-4.3,8.8c-2.9,2.5-6.4,3.8-10.5,3.8
			c-4.1,0-7.7-1.3-10.6-3.8c-2.8-2.4-4.2-5.3-4.3-8.8V5z"/>
		<linearGradient id="SVGID_3_" gradientUnits="userSpaceOnUse" x1="3.1001" y1="4.8501" x2="29.4004" y2="4.8501">
			<stop  offset="0" style="stop-color:#666666;stop-opacity:0.8314"/>
			<stop  offset="0.2078" style="stop-color:#9D9D9D;stop-opacity:0.2431"/>
			<stop  offset="0.4588" style="stop-color:#CFCFCF;stop-opacity:0"/>
			<stop  offset="0.8" style="stop-color:#FFFFFF;stop-opacity:0.1373"/>
			<stop  offset="1" style="stop-color:#666666;stop-opacity:0.3294"/>
		</linearGradient>
		<path fill-rule="evenodd" clip-rule="evenodd" fill="url(#SVGID_3_)" d="M3.1,4.9c0-0.7,0.7-1.3,2.1-1.8c0.5-0.2,1-0.3,1.6-0.5
			c2.6-0.6,5.7-0.9,9.4-0.9c3.6,0,6.7,0.3,9.3,0.9c0.6,0.2,1.2,0.3,1.7,0.5c1.5,0.5,2.2,1.1,2.2,1.8c0,0.9-1.3,1.7-3.9,2.3
			c-2.6,0.6-5.7,1-9.3,1c-3.6,0-6.8-0.3-9.4-1C4.4,6.5,3.1,5.8,3.1,4.9z"/>
		<path fill-rule="evenodd" clip-rule="evenodd" fill="none" d="M1.3,5L1.3,5c0-1.1,1.2-2,3.6-2.8C5.1,2.1,5.4,2.1,5.6,2
			C6,1.9,6.3,1.8,6.7,1.8c2.7-0.7,5.9-1,9.5-1c0,0,0.1,0,0.1,0c3.6,0,6.8,0.3,9.5,1c0.3,0.1,0.6,0.1,1,0.3c0.3,0.1,0.6,0.2,0.8,0.3
			C29.9,3,31.1,3.9,31.1,5v0"/>
		<path fill-rule="evenodd" clip-rule="evenodd" fill="none" d="M31.1,5c0,1.1-1.5,2.1-4.4,3c-2.9,0.8-6.4,1.3-10.5,1.3
			C12.1,9.3,8.6,8.8,5.6,8C2.8,7.2,1.3,6.2,1.3,5"/>
		<path fill-rule="evenodd" clip-rule="evenodd" fill="none" d="M31.1,5v111.6v0.6c-0.1,3.4-1.5,6.3-4.3,8.8
			c-2.9,2.5-6.4,3.8-10.5,3.8c-4.1,0-7.7-1.3-10.6-3.8c-2.8-2.4-4.2-5.3-4.3-8.8V5"/>
	</g>
	<g>
		<radialGradient id="SVGID_4_" cx="14.6001" cy="98.75" r="38.1125" gradientUnits="userSpaceOnUse">
			<stop  offset="0.549" style="stop-color:#FFFFFF;stop-opacity:0"/>
			<stop  offset="1" style="stop-color:#FEFEFE"/>
		</radialGradient>
		<path fill-rule="evenodd" clip-rule="evenodd" fill="url(#SVGID_4_)" d="M31.1,93.2v23.5v0.6c-0.1,3.4-1.5,6.3-4.3,8.8
			c-2.9,2.5-6.4,3.8-10.5,3.8c-4.1,0-7.7-1.3-10.6-3.8c-2.8-2.4-4.2-5.3-4.3-8.8V93.2H31.1z"/>
		<path fill-rule="evenodd" clip-rule="evenodd" fill="none" d="M1.3,93.2v24.1c0.1,3.4,1.5,6.3,4.3,8.8c2.9,2.5,6.5,3.8,10.6,3.8
			c4.1,0,7.6-1.3,10.5-3.8c2.8-2.4,4.3-5.3,4.3-8.8v-0.6V93.2"/>
	</g>
</g>
</svg>
