<?xml version="1.0" encoding="utf-8"?>
<!-- Generator: Adobe Illustrator 16.0.0, SVG Export Plug-In . SVG Version: 6.00 Build 0)  -->
<!DOCTYPE svg PUBLIC "-//W3C//DTD SVG 1.1//EN" "http://www.w3.org/Graphics/SVG/1.1/DTD/svg11.dtd">
<svg version="1.1" id="Layer_1" xmlns="http://www.w3.org/2000/svg" xmlns:xlink="http://www.w3.org/1999/xlink" x="0px" y="0px"
	 width="102px" height="19px" viewBox="0 0 102 19" enable-background="new 0 0 102 19" xml:space="preserve">
<g>
	<path fill-rule="evenodd" clip-rule="evenodd" fill="#FFFFFF" d="M92.3,7.4C92.4,7,92.6,6.7,93,6.7c1.5-0.7,2.7-0.6,3.6,0.4
		c0,0.1,0,0.1,0,0.1c0,0.1,0,0.2,0,0.4c-1.4,0-2.8,0-4.2-0.1l0,0C92.3,7.4,92.3,7.4,92.3,7.4z M91.2,7.5c-0.9,0-1.8-0.1-2.7-0.1
		c0.1,0.2,0.1,0.3,0.2,0.5c-0.4-0.3-0.7-0.7-1-1.3c-0.1-0.2,0-0.3,0.3-0.3c1.3-0.1,2.5,0.2,3.5,0.8c0,0.1,0,0.1,0,0.1
		C91.4,7.3,91.3,7.4,91.2,7.5z M91.2,11.6c0.4-0.1,0.8,0.1,1,0.5c0,0,0,0,0,0c-0.1,0.1-0.1,0.2-0.2,0.3c-0.7,0-1.5,0-2.3-0.1
		C90,11.7,90.5,11.5,91.2,11.6L91.2,11.6z M99,12c-1.4,0.8-2.3,1.2-2.7,1.2c-0.4,0-0.7-0.1-0.8-0.4l0-0.4c0-0.4,0.3-0.7,0.8-0.9
		c1.2-0.3,1.9-0.5,2.1-0.6c0.1,0,0.6-0.4,1.5-1c0.8-0.4,1.3-0.3,1.3,0.4C101.1,10.6,100.4,11.2,99,12z M85.8,5.4
		c0.8,0.1,1.6,0.2,2.4,0.3c-1.2,0.3-2.3,0.4-3.5,0.3C85,5.5,85.3,5.3,85.8,5.4z M85.9,11.4c0-0.1,0-0.1,0-0.2
		c0.5-0.1,1.1-0.2,1.6-0.3c0.3,0,0.5,0.1,0.6,0.5v0c0,0.4-0.2,0.6-0.4,0.8c-0.4,0-0.8,0-1.3,0c-0.4,0-0.6-0.2-0.7-0.6
		C85.8,11.5,85.9,11.4,85.9,11.4z M85,8.5c1-0.4,1.7-0.2,2.2,0.5l0,0.1c-0.6,1.2-1.6,1.3-2.9,0.3c0,0,0-0.1,0-0.1v0
		C84.4,8.8,84.6,8.5,85,8.5z M82.2,9.3C81.6,9.7,81,10,80.5,10c-0.3-0.3-0.6-0.6-0.8-0.9C80,9,80.4,8.9,80.8,8.8
		C81.3,8.9,81.7,9,82.2,9.3L82.2,9.3z M87.2,13.2c0,0.3-1.1,0.6-3.3,1.1c-2.3,0.5-4.2,0.8-5.7,0.8c-0.3,0-0.5-0.1-0.6-0.3l-0.1-0.3
		c0-0.5,1.6-0.9,4.9-1.3C85.6,12.7,87.2,12.7,87.2,13.2z M83.7,12.5c1.1,0,2.2,0.1,3.3,0.1C85.8,12.8,84.7,12.8,83.7,12.5z
		 M90.3,10.2c2.6,0,5.2,0,7.9,0.1C95.7,11.3,93.1,11.2,90.3,10.2z M89.8,12.8c0.6,0,1.2,0,1.8,0C91.2,13.2,90.5,13.2,89.8,12.8z
		 M71,3.8V5c-0.9-0.1-1.8-0.3-2.7-0.7v0c0,0,0-0.1,0-0.1c0-0.1,0-0.1,0-0.2l0,0C69.3,3.8,70.1,3.8,71,3.8z M73.5,9.2
		c-1.3,1-2.9,1.1-4.6,0.1c0,0,0-0.1,0-0.1C69.1,8.3,69.9,8,71,8.4v0.8H73.5z M75.1,11.7c0.7,0.3,1.3,0.7,1.9,1.4
		c0.2,0.2,0.1,0.4-0.3,0.6c0,0-0.1,0-0.1,0c-1.7,0.1-3.5,0.1-5.2,0.1c-0.5-0.5-0.8-1.1-1.1-1.8c0-0.1,0.1-0.1,0.1-0.1
		c0.1-0.1,0.1-0.1,0.2-0.1c0.1,0,0.2,0,0.3,0v-0.1c0,0,0.1,0,0.1,0C72.4,11.6,73.7,11.6,75.1,11.7z M79.3,8.5c0.2,0,0.4,0,0.6,0
		c-0.2,0.1-0.4,0.1-0.6,0.3V8.5z M78,9.2c-0.2,0.1-0.3,0.1-0.5,0.1c-0.1,0-0.2-0.1-0.3-0.1H78z M78.7,11.8c0.2,0.1,0.3,0.3,0.4,0.6
		c0,0.1,0,0.2,0,0.3c-0.2-0.1-0.5-0.3-0.7-0.5C78.5,12.2,78.6,12,78.7,11.8z M66.7,4.9c1.4,0,2.7,0.2,3.9,0.6
		c-1.5-0.1-3-0.1-4.5-0.1c0-0.1,0.1-0.3,0.2-0.4C66.4,5,66.6,4.9,66.7,4.9z M62.7,9.5c0.3,0,0.5,0.2,0.6,0.7c0,0.2-0.2,0.4-0.5,0.6
		c-0.5,0.3-1,0.5-1.8,0.5c-0.5,0-1-0.1-1.7-0.2c-0.7-0.2-1.2-0.3-1.6-0.3c-0.3,0-0.5-0.1-0.5-0.3l-0.1-0.3c0-0.6,0.3-0.8,0.9-0.7
		c1.3,0.3,2.1,0.5,2.5,0.5c0.8,0,1.3-0.1,1.6-0.2C62.3,9.6,62.5,9.5,62.7,9.5z M64.1,11.5L64.1,11.5c1.6,0,3.2,0,4.8,0
		C67.5,12.6,65.9,12.6,64.1,11.5C64.1,11.6,64.1,11.6,64.1,11.5z M62.9,9.2h2.6c-0.1,0.3-0.3,0.4-0.5,0.5
		C64.3,9.6,63.6,9.4,62.9,9.2z M66,9.9l-0.1-0.4c0-0.4,0.4-0.6,1.3-0.5c0.8,0.1,1.1,0.3,1.1,0.7c0,0.4-0.3,0.6-0.8,0.6
		C66.8,10.3,66.3,10.2,66,9.9z M66,13.7c0.8-0.3,1.7-0.4,2.8-0.2c0.3,0,0.5,0.1,0.6,0.3C68.3,13.7,67.2,13.7,66,13.7z M63.9,16.1
		c-2,0.4-3.6,0.6-4.7,0.6c-1.2,0-2-0.2-2.5-0.5c-0.2-0.3-0.3-0.5-0.3-0.5c0-0.4,0.2-0.7,0.7-0.7l0.9,0.4h2.6c4.1-1,6.2-1.1,6.2-0.2
		C66.8,15.4,65.9,15.7,63.9,16.1z M80.2,12.4c0.5,0,1,0,1.5,0c-0.7,0.8-1.5,0.9-2.6,0.4C79.5,12.5,79.8,12.4,80.2,12.4z M77,13.7
		c0,0,0-0.1,0-0.2c0.1-0.1,0.2-0.2,0.3-0.3c0.1,0,0.2-0.1,0.3-0.1c0.4,0,0.8,0.1,1.1,0.3c-0.2,0.1-0.5,0.2-0.8,0.2
		C77.6,13.7,77.3,13.7,77,13.7z M54.5,9.2H57l0,0c-0.1,0-0.1,0-0.2,0c-0.8,0.2-1.5,0.3-2,0.3v0c0,0.3-0.5,0.5-1.4,0.8
		c-0.9,0.2-1.6,0.3-2.1,0.3c-0.9,0-1.7-0.2-2.4-0.5c-0.7-0.3-1.1-0.5-1.2-0.5c-0.1,0-0.4,0.2-0.9,0.5c-0.5,0.3-1.1,0.5-1.8,0.5
		c-1,0-1.5-0.3-1.5-0.9c0-0.5,0.3-0.7,0.8-0.7c0.2,0,0.5,0.1,0.6,0.3C45.5,9.5,46,9.3,46.4,9c0.4-0.3,0.7-0.5,1.1-0.5
		c0.6,0.1,1.2,0.3,1.8,0.6c0.4,0.2,1.1,0.4,2,0.4c0.8,0,1.4-0.1,1.7-0.2c0.3-0.1,0.6-0.2,1-0.2C54.2,9,54.4,9.1,54.5,9.2z
		 M50.9,12.3c-2.5,0.6-5.1,0.4-7.9-0.6v-0.1c0-0.1,0-0.2,0-0.2c0,0,0-0.1,0.1-0.1c2,0,4.1,0.1,6.1,0.1
		C49.8,11.6,50.3,11.9,50.9,12.3C50.9,12.2,50.9,12.2,50.9,12.3z M55.3,11.6c0.4,0,0.7,0.2,0.8,0.7c0,0.4-0.1,0.7-0.2,0.8
		c-0.8-0.1-1.7-0.4-2.5-0.8l-0.1,0c0,0,0-0.1,0-0.1c0,0,0-0.1,0-0.1l0.1,0c0.1-0.2,0.2-0.4,0.3-0.5C54.2,11.6,54.8,11.6,55.3,11.6z
		 M59.3,12C59.3,12.1,59.3,12.1,59.3,12c-0.1,0.2-0.2,0.3-0.3,0.4c0-0.2,0.1-0.3,0.1-0.4C59.2,12,59.2,12,59.3,12z M41,3L41,3
		c-0.4,1.1-1.1,1.2-2,0.3c0-0.1,0-0.1,0-0.1v0c0-0.2,0.1-0.4,0.3-0.5c0.6,0,1.1,0,1.6,0.1C40.9,2.7,41,2.8,41,3z M44,4.1v1.1
		c-2.5,0.8-5.2,0.8-8.1,0c0-0.3,0.1-0.4,0.3-0.4c2.6-0.1,5.2-0.4,7.7-0.8C43.9,4.1,43.9,4.1,44,4.1z M43.4,8.5c0.2,0,0.4,0,0.6,0
		v0.2c-0.1-0.1-0.3-0.1-0.4-0.1S43.4,8.6,43.4,8.5z M40.8,11.8c-1.2,1.3-2.6,1.5-4.2,0.6c0.7-0.7,1.8-1.1,3.1-1.1
		C40.2,11.2,40.5,11.4,40.8,11.8C40.8,11.8,40.8,11.8,40.8,11.8z M43.1,15.5c0.3-0.1,0.7-0.2,1.2-0.2c0.7,0,1.1,0.2,1.1,0.5
		c0,0.5-1.3,0.9-4,1.1c-0.9,0-1.5-0.1-1.8-0.4l-2.8,0c-0.7-0.3-1.5-0.4-2.3-0.3c-0.4,0-1.1,0.1-2.1,0.2c-1.7,0-2.8-0.4-3.3-1.3
		c0-0.3,0.1-0.5,0.4-0.8c0.3-0.3,0.7-0.2,1.2,0.2c0.3,0.2,1,0.4,2.1,0.5c1,0,1.5,0,1.5,0l5.2,0.3c0.2,0,0.4,0.1,0.6,0.2
		c0.2,0.2,0.6,0.3,1.3,0.3C42.2,15.7,42.7,15.6,43.1,15.5z M42.5,13.5c-0.7,0-1.4,0-2.1,0c0.5-0.2,1-0.3,1.4-0.5
		C42.1,13,42.3,13.1,42.5,13.5L42.5,13.5z M59.8,13.2c0.2,0,0.3-0.1,0.5-0.1c0.5,0.1,0.8,0.3,1,0.5c-0.6,0-1.2,0-1.7,0
		c-0.1,0-0.3,0-0.3-0.1C59.4,13.3,59.5,13.2,59.8,13.2z M53,15.4c-1.2,0.4-2.4,0.4-3.7,0C50.5,15.4,51.8,15.4,53,15.4z M36.3,3.6
		c-0.7,1.1-1.3,1.2-1.8,0.1c-0.2-0.4,0-0.6,0.4-0.6C35.5,2.9,36,3,36.3,3.5C36.3,3.5,36.3,3.6,36.3,3.6z M31.1,3.8
		c0.7,0,1.2,0.2,1.6,0.8c0,0,0,0,0,0.1c0,0.1,0,0.1,0,0.1c-0.4-0.1-0.7-0.3-1.1-0.4C31.4,4.3,31.2,4.1,31.1,3.8z M31.1,9.3
		c-1.2,0-2.3,0-3.4-0.1c-0.2,0-0.3-0.1-0.4-0.4v0c0.1-0.4,0.3-0.6,0.6-0.6c1.8-0.6,3.5-0.6,5,0.1c-0.7,0.1-1.4,0.2-2.1,0.2
		C31,8.5,31.1,8.8,31.1,9C31.1,9.1,31.1,9.2,31.1,9.3z M34.6,12.2L34.6,12.2c-0.5,0.5-1.3,0.8-2,0.9c-0.1-0.1-0.2-0.3-0.2-0.5
		c0-0.1,0-0.1,0-0.1c0.1-0.4,0.2-0.8,0.4-1C33.4,11.7,34,11.9,34.6,12.2z M40.3,8.9c0.4,0.3,0.3,0.6-0.3,0.8
		c-0.4,0.1-0.8,0.2-1.2,0.3c-0.6,0-1.1,0-1.6,0c-0.5-0.2-1-0.4-1.5-0.8c0,0,0-0.1,0-0.1c0,0,0-0.1,0-0.1s0-0.1,0-0.1
		c0.1-0.4,0.4-0.6,0.7-0.6c0.1,0,0.2-0.1,0.3-0.1c1,0.1,1.9,0.2,2.9,0.3C39.7,8.5,40,8.6,40.3,8.9z M27.1,5.3c-0.4,1-1.1,1-1.9,0.3
		c0,0,0,0,0,0c0-0.1,0-0.1,0-0.2c0.1-0.3,0.3-0.5,0.5-0.5c0.6-0.2,1,0,1.3,0.4C27.1,5.2,27.1,5.2,27.1,5.3z M20.4,5
		c0.3,0.1,0.6,0.4,0.8,0.6l0.1,0.1c0,0.1,0,0.1,0,0.2c-0.3-0.2-0.6-0.4-0.9-0.6C20.3,5.2,20.3,5.1,20.4,5z M24.5,9.6
		c-1.5,0.5-2.9,0.4-4-0.4C20.4,9.1,20.4,9,20.4,9c0,0,0-0.1,0-0.1c0.1-0.4,0.3-0.6,0.6-0.6c1.5-0.6,2.8-0.5,4,0.3
		c0,0,0.1,0.1,0.1,0.2C25.1,9.1,24.9,9.4,24.5,9.6z M20.6,14.7H15c-0.7-0.2-1.5-0.4-2.4-0.7c-0.5-0.1-0.7-0.4-0.7-0.8
		c0-0.3,0.2-0.5,0.6-0.4c0.8,0.2,1.6,0.4,2.4,0.5h5.8c0.9,0.2,2.2,0.5,4,0.8c0.6,0.2,1,0.4,1,0.7c0,0.2-0.1,0.3-0.1,0.3
		c-0.2,0.2-0.5,0.3-1.1,0.3c-0.7,0-1.5-0.1-2.2-0.3C21.2,14.9,20.7,14.7,20.6,14.7z M25.1,13.3c-2,0.5-4.2,0.3-6.6-0.5
		c-0.7-0.2-1.4-0.5-2.1-0.7c2.1,0,4.2,0,6.4,0.2C23.5,12.4,24.3,12.8,25.1,13.3C25.1,13.2,25.1,13.2,25.1,13.3z M12,9.1L12,9.1
		c0-0.5,0.2-0.7,0.6-0.7c1.6-0.6,3-0.5,4.2,0.3c0.1,0.1,0.1,0.1,0.1,0.2c0,0.4-0.2,0.7-0.6,0.9c-0.5,0.1-0.9,0.2-1.4,0.3
		c-0.4,0-0.7,0-1,0c-0.7-0.1-1.3-0.4-1.8-0.8C12,9.3,12,9.3,12,9.1z M5,10.3c0,0,0.1,0.1,0.1,0.2c-0.1,0.1-0.3,0.1-0.4,0.2
		c-0.6,0-1.2-0.3-1.9-0.8l-0.1,0c0-0.1,0-0.2,0.1-0.3c0,0,0-0.1,0-0.1C2.9,9.4,3,9.3,3,9.3C3.7,9.6,4.4,10,5,10.3z M8.1,8.4
		c0-0.4,0.2-0.7,0.4-0.9c0.3,0,0.5,0,0.9,0c0.3,0,0.6,0.1,0.7,0.4V8c0,0.5-0.3,0.8-0.8,0.8c-0.3,0-0.7,0-1,0c0-0.1-0.1-0.1-0.1-0.3
		C8.1,8.5,8.1,8.4,8.1,8.4z M8.4,11.3c1.1,0,2,0.5,2.8,1.4C10.1,12.6,9.2,12.1,8.4,11.3z"/>
</g>
</svg>
