<?xml version="1.0" encoding="utf-8"?>
<!-- Generator: Adobe Illustrator 16.0.0, SVG Export Plug-In . SVG Version: 6.00 Build 0)  -->
<!DOCTYPE svg PUBLIC "-//W3C//DTD SVG 1.1//EN" "http://www.w3.org/Graphics/SVG/1.1/DTD/svg11.dtd">
<svg version="1.1" id="Layer_1" xmlns="http://www.w3.org/2000/svg" xmlns:xlink="http://www.w3.org/1999/xlink" x="0px" y="0px"
	 width="102px" height="19px" viewBox="0 0 102 19" enable-background="new 0 0 102 19" xml:space="preserve">
<g>
	<path fill-rule="evenodd" clip-rule="evenodd" fill="#FFFFFF" d="M93,6.7c0.8-0.4,1.6-0.5,2.3-0.4c-0.8,0.2-1.7,0.4-2.5,0.4
		C92.8,6.7,92.8,6.7,93,6.7z M92.5,7.8c1.4-0.1,2.8-0.3,4-0.6c0,0.1,0,0.1,0,0.1c0,0.4-0.2,0.7-0.6,0.9C94.7,8.5,93.5,8.4,92.5,7.8z
		 M99.7,9c0.3-0.2,0.5-0.4,0.8-0.6c0.8,0.8,0.5,1.1-0.7,0.7C99.7,9.1,99.7,9.1,99.7,9z M98.8,12.2c-0.7,0.6-1.3,0.9-1.8,0.9
		c-0.4,0-0.6-0.1-0.7-0.3l0-0.3l1.8-1.5c1.1-0.9,1.7-0.8,1.7,0.1C99.7,11.2,99.4,11.6,98.8,12.2z M96.8,9.8c-2.3,0-4.7,0-7-0.1
		c0,0,0-0.1,0-0.1c0,0,0-0.1,0-0.1c0-0.1,0.1-0.1,0.1-0.1c0,0,0-0.1,0-0.1c0.2-0.1,0.3-0.1,0.5-0.1c2.5,0.1,4.8,0.3,7.1,0.6
		C97.4,9.8,97.1,9.8,96.8,9.8z M88.3,5.5c-0.8,0.2-1.6,0.3-2.3,0.4c-1.2-0.4-2.4-1-3.6-1.7C84.6,4.1,86.5,4.6,88.3,5.5
		C88.3,5.5,88.3,5.5,88.3,5.5z M85,8.5c1-0.4,1.7-0.2,2.2,0.5l0,0.1c-0.6,1.1-1.5,1.3-2.7,0.4c0.1-0.1,0.3-0.2,0.5-0.2
		c-0.2-0.1-0.3-0.3-0.4-0.5c0,0,0-0.1,0-0.1C84.7,8.6,84.8,8.5,85,8.5z M82.2,11.8c-0.3,0.4-0.6,0.8-0.9,1c-0.7-0.3-1.2-0.8-1.6-1.5
		c0,0,0.1,0,0.1,0c0.4-0.1,1-0.1,1.7,0C81.8,11.3,82,11.5,82.2,11.8L82.2,11.8z M83.5,11.3c1.5,0.1,2.8,0,4-0.3
		c0.3,0,0.5,0.1,0.6,0.5v0c0,0,0,0.1,0,0.2c-0.2,0.2-0.6,0.5-1,0.7c0.2,0,0.4,0,0.5,0c-0.1,0-0.2,0.1-0.3,0.1
		c-0.4,0.1-0.8,0.2-1.2,0.3v0c0,0,0,0,0,0c-1.3,0.1-2.4-0.1-3.3-0.7C82.8,11.5,83,11.3,83.5,11.3z M88,6.4c1-0.1,2,0.1,2.9,0.5
		c-1.1-0.1-2.1-0.2-3.1-0.5C87.8,6.4,87.8,6.4,88,6.4z M90.8,7.8c-0.9,0.5-1.6,0.5-2.3,0C89.2,7.8,90,7.8,90.8,7.8z M89.8,12.4
		c0.8,0,1.5,0,2.3,0c-0.6,0.8-1.4,0.9-2.3,0.2C89.7,12.6,89.7,12.5,89.8,12.4C89.7,12.5,89.7,12.4,89.8,12.4z M90.1,13.7
		c0,0.3-0.8,0.8-2.4,1.3c-1.5,0.5-2.6,0.8-3.2,0.8c-0.3,0-0.5-0.1-0.6-0.3l-0.1-0.3c0-0.2,0.2-0.4,0.6-0.5c1.1-0.3,2-0.5,2.8-0.9
		c1.2-0.5,1.8-0.7,2-0.8C89.8,13,90.1,13.2,90.1,13.7z M79.3,5.5c0.3,0,0.6,0.1,0.9,0.2c-0.2,0.4-0.5,0.7-0.9,1V5.5z M75.8,12
		c-1.7,0.3-3.4,0.5-5.1,0.5c-0.1-0.2-0.2-0.4-0.3-0.6c0-0.1,0.1-0.1,0.1-0.1c0.1-0.1,0.1-0.1,0.2-0.1c0.1,0,0.2,0,0.3,0v-0.1
		C72.9,11.1,74.5,11.2,75.8,12z M73.5,9.2c-1.3,1-2.9,1.1-4.6,0.1c0,0,0-0.1,0-0.1c0.1-0.3,0.3-0.6,0.5-0.8c0.5,0,1.1,0,1.7,0v0.7
		H73.5z M78.3,9.2c1.1,0.2,2.1,0.3,3.1,0.5c-1.3,0.7-2.7,0.5-4.2-0.5H78.3z M70.4,6c-1,0.4-2,0.5-3.1,0.1C68.3,6.1,69.4,6,70.4,6z
		 M64.2,11.2c0,0,0-0.1,0-0.1c0.2-0.2,0.3-0.3,0.5-0.3c1.5-0.1,2.9,0.1,4.2,0.6l0.1,0c-0.6,0.5-1.3,0.7-1.9,0.8
		c-0.8,0.1-1.6,0-2.4-0.4c-0.2-0.1-0.3-0.2-0.5-0.3c0,0-0.1,0-0.1-0.1v0C64.1,11.3,64.1,11.3,64.2,11.2z M63.3,10.7
		C63,10.8,62,11,60.6,11c-0.3,0-0.5-0.1-0.5-0.4c0-0.1,0-0.2,0-0.4c0-0.4,0.5-0.7,1.7-0.7c-0.3-0.1-0.7-0.2-1-0.3h4.9
		c-0.2,0.4-0.5,0.6-0.9,0.6c-0.5,0-0.9,0-1.4,0c0.2,0.1,0.3,0.2,0.3,0.4C63.5,10.4,63.5,10.6,63.3,10.7z M65.3,9.9
		c0-0.4,0.5-0.6,1.3-0.6c0.8,0,1.3,0.2,1.3,0.6c0,0.2-0.1,0.4-0.2,0.5c-0.3,0.2-0.9,0.3-1.8,0.3c-0.3,0-0.5-0.1-0.5-0.3
		C65.3,10.2,65.3,10,65.3,9.9z M63.8,15.3c0,0.2-2,0.8-6,1.8c-1.1,0-1.6-0.3-1.6-1c0-0.5,0.2-0.7,0.6-0.7c0.1,0,0.3,0.1,0.5,0.3
		l1.4,0l2.5-0.8C62.9,14.5,63.8,14.6,63.8,15.3z M70.3,15c1.7,0.1,3.2,0.1,4.7-0.1c0.6-0.1,1.3-0.2,2-0.4c0.5,0,0.8,0.2,0.8,0.5
		c0,0.4-0.7,0.7-2,1c-1.3,0.3-2.7,0.4-4.1,0.4c-1,0-1.7-0.1-2-0.4l-0.2-0.4C69.6,15.3,69.8,15,70.3,15z M78.3,14
		c0.2,0,0.3,0.1,0.5,0.2c-0.6,0.8-1.2,0.7-1.6-0.2C77.5,14,78,14,78.3,14z M71.5,13.8c1.6,0,3.1,0.1,4.7,0.1
		C74.2,14.8,72.6,14.7,71.5,13.8z M50.9,12.3c-2.5,0.6-5.1,0.4-7.9-0.6v-0.1c0-0.1,0-0.2,0-0.2c0-0.2,0.1-0.3,0.3-0.4
		c0.1,0,0.2,0,0.3,0C46.3,10.5,48.8,10.9,50.9,12.3C50.9,12.2,50.9,12.2,50.9,12.3z M51,10.7c-0.6,0-1.1-0.2-1.4-0.5L49,9.6
		c-0.6,0-1.1,0.1-1.8,0.6c-0.6,0.4-1,0.5-1.3,0.5c-1,0-1.5-0.4-1.6-1.2c0-0.4,0.2-0.6,0.6-0.6c0.3,0,0.5,0.1,0.6,0.3
		c0,0.2,0.1,0.3,0.2,0.3c0.2,0,0.6-0.2,1.2-0.6c0.6-0.3,0.9-0.5,1.1-0.5c1.3,0.1,2,0.3,2.2,0.6c0.2,0.2,0.6,0.3,1.2,0.3
		c0.4,0,0.6,0.2,0.6,0.7C52.1,10.5,51.7,10.7,51,10.7z M53.4,12c0.1-0.3,0.3-0.5,0.5-0.5c1-0.1,2-0.2,3,0c-0.5,0.7-1.2,1.2-2.2,1.4
		c-0.5-0.2-0.9-0.4-1.4-0.6l-0.1,0c0,0,0-0.1,0-0.1C53.3,12.1,53.3,12,53.4,12L53.4,12z M54,9.8c0-0.4,0.8-0.6,2.3-0.5
		s2.3,0.3,2.3,0.6c0,0.5-0.4,0.7-1.3,0.7c-1.7,0-2.7-0.1-3.1-0.4L54,9.8z M44,5.3c-2.6,0.8-5.3,0.8-8.1,0c0-0.3,0.1-0.4,0.3-0.4
		c0.5,0,1.1-0.1,1.6-0.1c2.1,0,4.1,0.1,6.2,0.2V5.3z M43.3,8.3L43.3,8.3c0.1-0.5,0.3-0.6,0.6-0.6c0,0,0.1,0,0.1,0v0.8
		c-0.2,0-0.5,0-0.7,0C43.3,8.4,43.3,8.3,43.3,8.3z M40.5,12.2c-1.1,0-2.3-0.1-3.5-0.1c0.7-0.5,1.6-0.7,2.7-0.7c0.5-0.1,0.8,0,1,0.5
		c0,0,0,0,0,0C40.7,12,40.6,12.1,40.5,12.2z M47.7,13.6c2,0,4,0.1,5.9,0.2c0.2,0,0.3,0.2,0.4,0.4c0,0.4-0.2,0.6-0.5,0.7
		c0.2,0,0.3,0.1,0.5,0.1l0,0c-2.1,1-4.2,0.9-6.4-0.3c-0.2,0-0.5,0-0.7,0c-0.2,0-0.3-0.2-0.3-0.4c0,0,0-0.1,0-0.1
		c0.1-0.4,0.3-0.6,0.6-0.7C47.4,13.6,47.5,13.6,47.7,13.6L47.7,13.6z M41.6,14.5c1.1,0.3,2.1,0.4,3.1,0.5v0c-0.4,0.3-0.7,0.5-1,0.7
		c-1,0-2,0-3,0c-0.3,0.6-1.8,0.8-4.3,0.8c-1,0-1.8-0.1-2.4-0.4c-0.5-0.3-1.1-0.4-1.9-0.4L30,16c-0.2,0-0.7-0.3-1.5-1
		c-0.1-0.1-0.2-0.2-0.3-0.3c-0.1,0.1-0.3,0.2-0.4,0.3c-0.5,0.2-1.2,0.3-1.9,0.3c-0.1,0-1-0.1-2.6-0.5c-1.9-0.3-3.4-0.5-4.6-0.4v-0.1
		h-3.3c-0.7-0.1-1.1-0.2-1.3-0.4C14,13.8,14,13.7,14,13.4c0-0.3,0.1-0.5,0.3-0.7c0.3-0.2,0.6-0.1,1.1,0.3h3.4c0.5,0.1,1.8,0.3,4,0.6
		L26,14c0.7,0,1.1,0,1.4-0.2l0.1,0c0.2-0.2,0.8-0.2,1.8,0.2c0.1,0,0.3,0.1,0.4,0.3c0.1,0.2,0.2,0.3,0.2,0.3l2.3-0.2
		c0.8,0,1.6,0.1,2.2,0.4c0.6,0.3,1.3,0.4,2.1,0.4s1.5-0.1,2.1-0.2c0.3-0.1,0.6-0.1,0.8-0.1c-1.7,0.1-3.4,0-5-0.5
		c-0.1,0-0.2-0.1-0.2-0.3c0-0.5,0.3-0.7,0.9-0.7c1.9,0.3,3.6,0.3,5.2,0c0.7,0,1.4,0,2.1,0C42.3,14,42,14.3,41.6,14.5z M58.9,15
		c0,0,0-0.1,0-0.2c0.1-0.8,0.5-1.3,1.2-1.3c0.4,0,0.8,0,1.2,0c0.5,0.5-0.1,1-1.6,1.5c-0.3,0.1-0.5,0.2-0.7,0.3
		C59,15.3,58.9,15.1,58.9,15z M31.3,5.5c-0.3,0-0.6,0-1,0c-0.2-0.2-0.5-0.4-0.8-0.6c0,0,0-0.1,0-0.1v0c0.1-0.4,0.3-0.6,0.6-0.6
		c1.1-0.5,2-0.4,2.6,0.4c0,0,0,0,0,0.1c-0.4,0.7-0.9,1.1-1.6,1.1V5.6C31.2,5.6,31.2,5.5,31.3,5.5z M32.7,9.3c-1.7,0-3.3,0-5-0.1
		c-0.2,0-0.3-0.1-0.4-0.4v0c0.1-0.4,0.3-0.6,0.6-0.6c1.2-0.4,2.3-0.5,3.4-0.3c0.5,0.1,1,0.2,1.5,0.4c0.1,0,0.2,0.1,0.3,0.1
		c0.1,0,0.2,0.1,0.3,0.3C33.3,9,33.1,9.3,32.7,9.3z M31.1,11.3c0,0.8-0.4,1.3-1.2,1.3c-0.2,0-0.5,0-0.8,0c-0.8-0.2-1.6-0.3-2.5-0.3
		c-0.2,0-0.3-0.2-0.4-0.4c0,0,0-0.1,0-0.1c0-0.1,0-0.2,0.1-0.3c0.1-0.1,0.2-0.2,0.3-0.3c0.1,0,0.2-0.1,0.3-0.1
		C28.4,10.9,29.8,10.9,31.1,11.3L31.1,11.3z M27.1,5.4c-0.6,0-1.3-0.1-1.9-0.1v0c0.1-0.3,0.3-0.5,0.5-0.5c0.6-0.2,1,0,1.3,0.4
		c0,0,0,0.1,0,0.1C27.1,5.3,27.1,5.3,27.1,5.4z M24.5,9.6c-1.2-0.4-2.3-0.9-3.3-1.5c1.4-0.5,2.6-0.4,3.7,0.4c0,0,0.1,0.1,0.1,0.2
		C25.1,9.1,24.9,9.4,24.5,9.6z M21.1,9.5c1.1,0,2.2,0.1,3.3,0.1C23.1,10,22.1,10,21.1,9.5z M33,13.8L33,13.8
		c-0.1,0.2-0.3,0.3-0.5,0.5c0.1-0.3,0.3-0.5,0.5-0.7C33,13.6,33,13.7,33,13.8z M10.4,11.6c0-0.1,0-0.1,0-0.1c-0.5,0-1,0-1.5,0
		c-0.1,0-0.1,0-0.1,0c0.7,0.2,1,0.5,1,0.8c0,0.4-0.2,0.6-0.6,0.6c-0.5,0-1.2-0.1-2-0.4c-0.9-0.3-1.3-0.7-1.3-1
		c0-0.5,0.6-0.6,1.9-0.3c0.2,0.1,0.5,0.2,0.8,0.3c-0.2-0.1-0.3-0.3-0.4-0.4c0-0.1,0.1-0.2,0.3-0.3c0.1,0,0.2-0.1,0.3-0.1
		c2.2,0.1,4.1,0.5,5.6,1.2v0c-0.3,0.2-0.7,0.4-1,0.5c-0.7-0.1-1.5-0.1-2.2-0.1C10.8,12.2,10.5,12,10.4,11.6z M16,11.5
		c0,0,0-0.1,0-0.2c0.2-0.3,0.4-0.5,0.7-0.5c2.5,0.2,4.8,0.7,6.9,1.7c-2,0-4,0-5.9,0c-0.6-0.2-1.1-0.4-1.6-0.6
		c-0.1,0-0.1-0.1-0.1-0.2C16,11.6,16,11.5,16,11.5z M16.3,9.9c-1.6,0.5-3,0.4-4.1-0.5c1.5,0,3.1,0,4.6,0.1
		C16.6,9.6,16.5,9.8,16.3,9.9z M4.1,7.8C6,7.7,7.7,7.6,9.4,7.5c0.2,0,0.4,0.1,0.5,0.3C9.4,8.2,9,8.5,8.5,8.8C7,8.8,5.5,8.7,4.1,8.6
		c-0.2,0-0.3-0.1-0.4-0.4C3.8,8,3.9,7.8,4.1,7.8z M20.6,5.2c-0.9,0-1.8-0.1-2.6-0.1C19.1,4.7,20,4.7,20.6,5.2z"/>
</g>
</svg>
