<?xml version="1.0" encoding="utf-8"?>
<!-- Generator: Adobe Illustrator 16.0.0, SVG Export Plug-In . SVG Version: 6.00 Build 0)  -->
<!DOCTYPE svg PUBLIC "-//W3C//DTD SVG 1.1//EN" "http://www.w3.org/Graphics/SVG/1.1/DTD/svg11.dtd">
<svg version="1.1" id="Layer_1" xmlns="http://www.w3.org/2000/svg" xmlns:xlink="http://www.w3.org/1999/xlink" x="0px" y="0px"
	 width="102px" height="19px" viewBox="0 0 102 19" enable-background="new 0 0 102 19" xml:space="preserve">
<g>
	<path fill-rule="evenodd" clip-rule="evenodd" fill="#FFFFFF" d="M93,6.7c1.1,0.1,2.2,0.2,3.4,0.3c0.1,0,0.1,0.1,0.1,0.1
		c0,0.1,0,0.1,0,0.1c0,0.4-0.2,0.7-0.6,0.9c-1.4,0.4-2.5,0.3-3.5-0.4c-0.1-0.1-0.1-0.2-0.2-0.3c0,0,0-0.1,0-0.1
		C92.4,7,92.6,6.7,93,6.7C93,6.7,93,6.7,93,6.7z M91.5,7.3c-1.6,1.5-2.9,1.3-3.8-0.6c-0.1-0.2,0-0.3,0.3-0.3
		c1.3-0.1,2.5,0.2,3.5,0.8C91.5,7.2,91.5,7.3,91.5,7.3z M92.2,12C92.2,12.1,92.2,12.1,92.2,12c-0.2,0.5-0.5,0.8-0.8,0.9
		c-0.3,0.2-0.7,0.1-1.1,0c-0.2-0.1-0.4-0.2-0.5-0.3c0,0,0-0.1,0-0.1c0.2-0.7,0.7-1,1.5-0.8v-0.1C91.6,11.5,92,11.7,92.2,12z
		 M99.7,7.6C99.7,7.6,99.8,7.6,99.7,7.6c-0.1,0.1-0.3,0.3-0.5,0.4C99.3,7.8,99.4,7.6,99.7,7.6z M98.3,10.4c0.2,0.1,0.3,0.3,0.3,0.6
		c0,0.3-0.3,0.7-1,1.3c-0.7,0.6-1.4,0.9-2,0.9c-0.4,0-0.7-0.1-0.8-0.3l0-0.4c0-0.3,0.3-0.5,0.8-0.6c0.7-0.1,1.3-0.5,1.8-1
		C97.6,10.6,97.9,10.4,98.3,10.4z M98,10.3c-1.5,0.5-3,0.7-4.6,0.6c1.2-0.2,2.3-0.4,3.4-0.7C97.3,10.2,97.7,10.3,98,10.3z M82.7,5.4
		L82.7,5.4c1.2,0.1,2.5,0.4,3.7,0.5C85,6,83.6,5.8,82.3,5.5C82.4,5.4,82.5,5.4,82.7,5.4z M81.5,6.2c0-0.1,0.1-0.2,0.1-0.2
		c0.3,0,0.6,0.1,0.9,0.2v0c-0.4,0.2-0.7,0.4-1,0.5C81.4,6.5,81.4,6.3,81.5,6.2z M85,8.5c1-0.4,1.7-0.2,2.2,0.5l0,0.1
		c-0.1,0.1-0.1,0.3-0.2,0.4c-0.8-0.2-1.5-0.5-2.3-0.9C84.7,8.6,84.8,8.5,85,8.5z M84.8,11.3c1,0,1.9-0.1,2.8-0.3c0.1,0,0.2,0,0.3,0
		c0.1,0.1,0.3,0.2,0.4,0.4v0c0,0.5-0.3,0.8-0.8,1c-1,0.3-2,0.4-2.9,0.3c0.1-0.1,0.2-0.2,0.4-0.2c-0.2-0.1-0.3-0.3-0.4-0.5
		C84.6,11.8,84.7,11.5,84.8,11.3z M90.5,9.1c1.8,0.1,3.5,0.2,5.2,0.4C93.8,10,91.9,10.2,90,10c0,0,0,0,0,0c-0.1,0-0.1-0.1-0.2-0.1
		c0-0.1,0-0.2,0-0.3c0,0,0-0.1,0-0.1c0-0.1,0.1-0.1,0.1-0.1c0,0,0-0.1,0-0.1C90.2,9.1,90.3,9.1,90.5,9.1z M88.3,14
		c-1.1,0.3-1.9,0.5-2.6,0.5s-1.1-0.1-1.3-0.3c-0.1-0.1-0.1-0.3-0.1-0.5c0-0.3,0.1-0.5,0.3-0.5h0.8c0,0,1-0.2,2.8-0.5
		c1.1-0.2,1.7-0.1,1.7,0.4C90,13.4,89.4,13.7,88.3,14z M71,5.6c-0.2,0.1-0.4,0.2-0.5,0.3c-1.4,0-2.7-0.1-4-0.2
		c-0.2-0.1-0.3-0.1-0.4-0.2c0,0,0,0,0-0.1v0c0-0.2,0.1-0.4,0.3-0.5c0.1,0,0.3-0.1,0.4-0.1c1.6,0,3,0.2,4.3,0.7V5.6z M71,3.4V5
		c-0.9-0.1-1.8-0.3-2.7-0.7v0c0,0,0-0.1,0-0.1c0-0.1,0-0.1,0-0.2c0,0,0-0.1,0-0.1c0.1-0.2,0.3-0.3,0.6-0.3C69.6,3.4,70.3,3.4,71,3.4
		z M73.5,9.2c-1.3,1-2.9,1.1-4.6,0.1l0-0.1c0.8,0,1.5-0.1,2.2-0.1H73.5z M79.3,8.5c0.4,0,0.7,0.1,1,0.1l0.1,0.1
		c-0.3,0.6-0.7,1-1.2,1.3c-0.6-0.1-1.3-0.4-2-0.8h2.1V8.5z M64,10c0-0.1,0-0.2,0-0.3c-1.2,0-2.4-0.2-3.4-0.6h2.4c0.3,0,0.6,0,1,0
		c0-0.3,0.2-0.5,0.5-0.5S65,8.9,65.1,9c0.1,0.1,0.2,0.2,0.4,0.2c0.2,0,0.8-0.3,1.6-0.9C67.8,8,68.2,8.2,68.2,9
		c-1.3,1-2.2,1.5-2.9,1.5C64.6,10.6,64.2,10.4,64,10z M70.5,11.8C70.5,11.8,70.6,11.8,70.5,11.8c1.9,0,3.7,0.1,5.5,0.3
		c0.4,0.2,0.7,0.5,1,0.9c0.2,0.2,0.1,0.4-0.3,0.6c-3.3,1.6-5.4,1-6.3-1.7C70.4,11.9,70.5,11.8,70.5,11.8z M68.5,11.8
		c-1.2,0.7-2.5,0.7-3.9,0.1C66,11.8,67.3,11.8,68.5,11.8z M67.6,15.5c0,0.4-1.8,0.9-5.5,1.6c-0.7,0-1.6-0.1-2.5-0.4
		c-1.1-0.3-1.6-0.6-1.6-0.9c0-0.4,0.3-0.5,0.9-0.5c0.5,0,1.3,0.2,2.6,0.5c0.4,0,1.6-0.3,3.5-0.8c0.1,0,0.2,0,0.3,0
		c-0.1-0.1-0.3-0.2-0.4-0.3c0,0-0.1-0.1-0.1-0.2c0.8-1,2.2-1.3,4-1.1c0.3,0,0.5,0.1,0.6,0.3c0,0,0,0,0,0.1c0.1,0.7-0.2,1.2-0.9,1.5
		C68.2,15.3,67.9,15.4,67.6,15.5L67.6,15.5z M78.9,13.8L78.9,13.8c-0.7,1.2-1.3,1.1-1.9-0.1c0,0,0-0.1,0-0.2
		c0.1-0.1,0.2-0.2,0.3-0.3c0.1,0,0.2-0.1,0.3-0.1C78.2,13.2,78.6,13.4,78.9,13.8z M58.2,9.9c0,0.7-1.1,1.1-3.3,1.1
		c-0.8,0-1.4-0.1-1.6-0.4c-0.1-0.1-0.1-0.3-0.1-0.5c0-0.9,0.5-1,1.3-0.4h0.9c0.6,0,1.3-0.1,2.1-0.3C58,9.3,58.2,9.5,58.2,9.9z M44,5
		c-1.7-0.1-3.3-0.2-5-0.3c1.6-0.2,3.3-0.4,4.9-0.6c0,0,0.1,0,0.1,0V5z M41.1,3c-0.5,1-1.2,1.1-2.1,0.3c0-0.1,0-0.1,0-0.1v0
		c0.1-0.4,0.3-0.6,0.6-0.6C40.2,2.2,40.7,2.4,41.1,3L41.1,3z M43.6,8.6c-0.2,0-0.3-0.1-0.4-0.4v0c0.2,0,0.5,0,0.7,0v0.5
		C43.9,8.6,43.7,8.6,43.6,8.6z M42.9,9.5c0.2-0.2,0.4-0.3,0.5-0.3c0.3,0,0.6,0.1,0.9,0.3l0.9,0C45.4,9.3,45.6,9.1,46,9
		c0.5-0.2,0.9-0.1,1.2,0.2c0.4,0.1,1.1,0.3,2.1,0.6C49.7,9.8,50,10,50,10.4c0.1,0.4-0.3,0.6-1.1,0.6c-0.4,0-1-0.1-1.6-0.4
		c-0.4-0.2-0.8-0.4-0.9-0.6c-0.1,0.1-0.3,0.3-0.5,0.5c-0.1,0.1-0.2,0.1-0.4,0.2c0.9,0,1.8,0.1,2.6,0.3c-0.3,0.2-0.7,0.3-1.2,0.3
		c-1.3,0.2-2.6,0.3-3.9,0.3v-0.1c0-0.1,0-0.2,0-0.2c0-0.2,0.1-0.3,0.3-0.4c0.1,0,0.2,0,0.3,0c0.3,0,0.6-0.1,0.9-0.2
		c-1.3,0-2-0.3-2-0.9C42.5,9.8,42.6,9.6,42.9,9.5z M47,14.7c-0.2,0-0.3-0.2-0.3-0.4c0,0,0-0.1,0-0.1c0-0.2,0.1-0.3,0.1-0.3
		c0.8-0.1,1.6-0.2,2.4-0.3c1.5,0,2.9,0.1,4.3,0.1c0.2,0,0.3,0.2,0.4,0.4c0,0.4-0.2,0.6-0.5,0.7c0.2,0,0.3,0.1,0.5,0.1l0,0
		c-2.1,1-4.2,0.9-6.4-0.3C47.5,14.7,47.3,14.7,47,14.7z M44.8,15L44.8,15c-0.3,0.3-0.6,0.5-0.8,0.7c-1.3-0.1-2.6-0.2-3.9-0.3
		c-0.3-0.1-0.5-0.3-0.6-0.5c-1.7,0.1-3.3,0-4.9-0.4c0-0.5,0.2-0.9,0.5-1c0,0,0.1,0,0.1,0c1.2,0.2,2.3,0.3,3.4,0.2
		c1.2,0.1,2.4,0.2,3.6,0.3c-0.1,0.2-0.3,0.4-0.6,0.5C42.7,14.8,43.8,14.9,44.8,15z M59.8,13.3c0-0.1,0-0.1,0.1-0.1
		c0.1,0,0.2-0.1,0.3-0.1c1,0.3,1.4,0.7,1.2,1.1c-0.5-0.2-0.9-0.3-1.4-0.5c-0.1,0-0.1-0.1-0.2-0.2C59.8,13.5,59.8,13.4,59.8,13.3z
		 M54.3,12.7c0.9-0.3,1.8-0.2,2.5,0.4C56,13.1,55.1,13,54.3,12.7z M35.8,4.4c-0.4-0.1-0.7-0.1-1.1-0.1c-0.1-0.1-0.2-0.3-0.3-0.5
		c-0.2-0.4,0-0.6,0.4-0.6C35.5,2.9,36,3,36.3,3.5c0,0,0,0.1,0,0.1C36.1,4,35.9,4.2,35.8,4.4z M32.8,4.6c-0.2,0.3-0.3,0.6-0.5,0.7
		c-0.2,0.1-0.4,0.2-0.6,0.2c-0.4,0-0.8,0-1.3,0c-0.2-0.1-0.5-0.3-0.8-0.6c0,0,0-0.1,0-0.1v0c0.1-0.4,0.3-0.6,0.6-0.6
		C31.2,3.6,32.1,3.8,32.8,4.6C32.8,4.5,32.8,4.6,32.8,4.6z M32.7,9.3c-0.5,0-1.1,0-1.6,0c0-0.1,0-0.2,0.1-0.4c0-0.1,0-0.1,0-0.2
		c-1.3-0.1-2.6-0.1-3.9-0.1c0.1-0.3,0.3-0.5,0.6-0.5c1.8-0.6,3.5-0.6,5.1,0.3c0.1,0,0.2,0.1,0.3,0.3C33.3,9,33.1,9.3,32.7,9.3z
		 M34.7,12.2c-1.1,0.9-2.6,1.1-4.4,0.6c-1.2-0.4-2.4-0.6-3.6-0.6c-0.2,0-0.3-0.2-0.4-0.4c0,0,0-0.1,0-0.1c0-0.1,0-0.2,0.1-0.3
		c0.1-0.1,0.2-0.2,0.3-0.3c0.1,0,0.2-0.1,0.3-0.1C29.7,10.8,32.3,11.2,34.7,12.2L34.7,12.2z M40.3,8.9c0.4,0.3,0.3,0.6-0.3,0.8
		c-1.7,0.5-3.1,0.4-4.3-0.5c0,0,0-0.1,0-0.1c0,0,0-0.1,0-0.1s0-0.1,0-0.1c0.1-0.4,0.4-0.6,0.7-0.6c0.2,0,0.4-0.1,0.6-0.1
		c0.6-0.1,1.2-0.1,1.8,0C39.2,8.2,39.8,8.5,40.3,8.9z M39.7,11.3c0.4-0.1,0.7,0,0.9,0.3c-0.6-0.1-1.3-0.1-1.9-0.2
		C39,11.4,39.4,11.3,39.7,11.3z M27.1,5.3c0,0.1,0,0.1,0,0.2c-0.7,0-1.3,0-1.9,0c0-0.1,0-0.2,0-0.2c0.1-0.3,0.3-0.5,0.5-0.5
		c0.6-0.2,1,0,1.3,0.4C27.1,5.2,27.1,5.2,27.1,5.3z M24.5,9.6C23.2,10,22,10,21,9.5c0.2-0.1,0.4-0.1,0.6-0.1V9.3
		C22.6,9.4,23.5,9.5,24.5,9.6z M20.5,8.5c0.1-0.1,0.2-0.2,0.4-0.3c1.5-0.6,2.8-0.5,4,0.3C23.5,8.5,22,8.5,20.5,8.5z M20.6,6.6
		c-1.4,0.5-2.5,0.3-3.4-0.6c0,0,0-0.1,0-0.1v0c0-0.1,0-0.2,0.1-0.3c1.3,0,2.6,0.1,3.9,0.2C21.2,6.1,21,6.4,20.6,6.6z M21.8,14
		c0.1,0.1,0.1,0.2,0.1,0.4c0,0.2-0.1,0.4-0.4,0.5c-0.4,0.2-1.1,0.3-2.1,0.3h-2.6c-0.4-0.1-1-0.4-1.8-0.7c-0.6-0.3-1.3-0.6-2-0.7H9.9
		c-1.2-0.1-1.8-0.6-1.8-1.3c0-0.3,0.1-0.5,0.4-0.5c0.2-0.1,0.7,0.1,1.3,0.5l3.1,0c1.7,0.7,2.7,1,2.9,1.2c0.2,0.1,1.8,0.1,4.9,0.1
		C21.2,13.8,21.5,13.9,21.8,14z M25,13.2C25.1,13.2,25.1,13.2,25,13.2c-1.9,0.5-4,0.3-6.3-0.5c1.9,0,3.9,0.1,5.8,0.2
		C24.7,13,24.9,13.1,25,13.2z M28.5,15.5c0-0.6,0.9-0.7,2.8-0.5c1.8,0.3,2.7,0.5,2.7,0.8c0,0.2,0,0.4-0.1,0.5
		c-0.2,0.1-0.7,0.2-1.6,0.2c-1.5,0-2.6-0.1-3.2-0.3C28.7,16.1,28.5,15.8,28.5,15.5z M28,14c1.2-0.2,2.3-0.4,3.5-0.7
		c0.7-0.2,1.2-0.1,1.6,0.4c-0.7,0.1-1.5,0.2-2.2,0.2c0.1,0.1,0.2,0.3,0.3,0.6c0,0.1,0,0.1,0,0.2c-1,0.2-2.1,0-3.3-0.5
		C27.6,14,27.7,14,28,14z M19.5,4.8c0.4,0,0.8,0.2,1.2,0.5c-0.2,0-0.4,0-0.7,0C19.8,5.2,19.6,5,19.5,4.8z M10.3,6.5
		c0-0.1,0-0.1,0-0.1v0c0.1-0.4,0.3-0.6,0.6-0.6c1-0.4,1.7-0.2,2.2,0.5c0,0,0,0,0,0C12.5,7.5,11.5,7.5,10.3,6.5z M10,7.9V8
		c0,0,0,0.1,0,0.1C9.2,8.1,8.4,8.1,7.5,8C7.5,8,7.4,7.9,7.4,7.8c0,0-0.1-0.1-0.1-0.1C8,7.5,8.6,7.5,9.4,7.5C9.7,7.5,9.9,7.6,10,7.9z
		 M6.5,10c-1,1-2.1,1-3.5,0c0.5-0.6,1.2-0.8,2.1-0.7c0,0,0.1,0,0.1,0C5.7,9.4,6.1,9.6,6.5,10C6.4,9.9,6.5,9.9,6.5,10z M8.9,11.8
		c-0.2-0.1-0.4-0.3-0.6-0.5c-0.2-0.2-0.1-0.4,0.2-0.6c0.1,0,0.2-0.1,0.3-0.1c0.5,0,1,0.1,1.4,0.1C9.7,11.1,9.3,11.5,8.9,11.8z
		 M78.5,12.5c0.9,0.1,1.8,0.3,2.6,0.5C80.4,13.3,79.5,13.2,78.5,12.5z"/>
</g>
</svg>
