<?xml version="1.0" encoding="utf-8"?>
<!-- Generator: Adobe Illustrator 16.0.0, SVG Export Plug-In . SVG Version: 6.00 Build 0)  -->
<!DOCTYPE svg PUBLIC "-//W3C//DTD SVG 1.1//EN" "http://www.w3.org/Graphics/SVG/1.1/DTD/svg11.dtd">
<svg version="1.1" id="Layer_1" xmlns="http://www.w3.org/2000/svg" xmlns:xlink="http://www.w3.org/1999/xlink" x="0px" y="0px"
	 width="102px" height="19px" viewBox="0 0 102 19" enable-background="new 0 0 102 19" xml:space="preserve">
<g>
	<path fill-rule="evenodd" clip-rule="evenodd" fill="#FFFFFF" d="M91.5,7.3c-1.6,1.5-2.9,1.3-3.8-0.6c-0.1-0.2,0-0.3,0.3-0.3
		c1.3-0.1,2.5,0.2,3.5,0.8C91.5,7.2,91.5,7.3,91.5,7.3z M92.3,7.5c0,0,0-0.1,0-0.1C92.4,7,92.6,6.7,93,6.7c1.5-0.7,2.7-0.6,3.6,0.4
		c0,0.1,0,0.1,0,0.1c0,0.4-0.2,0.7-0.6,0.9c-1.4,0.4-2.5,0.3-3.5-0.4C92.4,7.6,92.3,7.5,92.3,7.5z M91.2,11.6c0.4-0.1,0.6,0,0.8,0.3
		c-0.6,0-1.3,0-1.9,0C90.4,11.6,90.7,11.5,91.2,11.6L91.2,11.6z M98.8,12c-0.4,0-0.6-0.2-0.6-0.7c0-0.5,0.4-0.9,1.1-1.2
		c0.8-0.3,1.2-0.2,1.2,0.4C99.8,11.6,99.3,12,98.8,12z M98.8,10c-2.7,1.3-5.7,1.3-8.8,0c2,0,4-0.2,5.8-0.5c1,0.1,2,0.2,3,0.4
		C98.7,9.9,98.7,10,98.8,10z M97,12c0,0.3-0.9,0.8-2.5,1.5c-1.7,0.7-2.8,1-3.4,1c-1.1,0-1.7-0.3-1.7-0.8c0-0.4,0.1-0.6,0.3-0.6
		c0.2,0,0.6,0,1.3,0.1c0.6,0,1.8-0.4,3.8-1.2C96.2,11.4,97,11.4,97,12z M88.3,5.5c-2.3,0.6-4.5,0.5-6.8-0.3c0,0,0-0.1,0-0.1
		c0.2-0.6,0.6-0.9,1.2-0.9v0c1.3,0.2,2.6,0.4,4,0.6C87.3,5,87.8,5.2,88.3,5.5C88.3,5.5,88.3,5.5,88.3,5.5z M85.8,9.7
		c0.3,0.1,0.5,0.1,0.8,0.1c-0.4,0.3-1,0.3-1.6,0C85.3,9.7,85.5,9.7,85.8,9.7z M84.8,11.3c0.9,0,1.9-0.2,2.8-0.4
		c0.3,0,0.5,0.1,0.6,0.5v0c0,0.5-0.3,0.8-0.8,1c-1.7,0.5-3.1,0.4-4.4-0.3c0.6-0.2,1.2-0.5,1.9-0.8C84.9,11.4,84.8,11.4,84.8,11.3z
		 M82.3,6.3C82.2,6.2,82,6.1,82,6c0.2,0.1,0.3,0.1,0.5,0.2v0C82.4,6.3,82.4,6.3,82.3,6.3z M81.7,12c-0.7,0.3-1.4,0.7-2.1,1
		c-0.4-0.2-0.8-0.4-1.3-0.7c0.2-0.4,0.5-0.7,0.8-0.9C80,11.6,80.8,11.8,81.7,12C81.6,12,81.7,12,81.7,12z M86.2,13.7
		c0,0.6-1.9,1.3-5.7,2.1c-0.6,0-1-0.1-1.1-0.4L79.3,15c0-0.5,0.2-0.8,0.7-0.8c0.2,0,0.4,0.1,0.8,0.3c0.3,0,1.3-0.3,3-0.9
		C85.4,13.1,86.2,13.2,86.2,13.7z M71,3.4V5c-0.3,0-0.5,0-0.8-0.1c-0.6-0.1-1.2-0.3-1.9-0.6v0c0,0,0-0.1,0-0.1c0-0.1,0-0.1,0-0.2
		c0,0,0-0.1,0-0.1c0.1-0.2,0.3-0.3,0.6-0.3C69.6,3.4,70.3,3.4,71,3.4z M73.5,9.2c-0.3,0.3-0.6,0.5-1,0.6c-1,0-1.9,0-2.8,0
		c-0.3-0.1-0.6-0.3-0.9-0.4c0,0,0-0.1,0-0.1C69.1,8.3,69.9,8,71,8.4v0.8H73.5z M71,11.6c2.7-0.7,4.7-0.2,6,1.5
		c0.2,0.2,0.1,0.4-0.3,0.6c-0.6,0.3-1.2,0.5-1.7,0.6c-0.5,0.1-0.9,0.2-1.4,0.3c-1.6,0-2.7-0.9-3.3-2.6c0-0.1,0.1-0.1,0.1-0.1
		c0.1-0.1,0.1-0.1,0.2-0.1C70.8,11.7,70.9,11.7,71,11.6L71,11.6z M79.3,8.9V8.5c0.2,0,0.3,0,0.5,0C79.7,8.6,79.5,8.8,79.3,8.9z
		 M79.3,7V6.6c0.3,0,0.5,0.2,0.7,0.4C79.8,7,79.6,7,79.3,7z M77.3,9.2h1.6c-0.3,0.2-0.6,0.3-0.9,0.4C77.7,9.5,77.5,9.4,77.3,9.2z
		 M65.5,9.3c0.1,0,0.2,0.1,0.4,0.2c0.1,0,0.6-0.3,1.6-0.9c0.6-0.3,0.9-0.1,0.9,0.6c0,0.3-0.3,0.6-0.8,1c-0.6,0.4-1.2,0.5-1.9,0.5
		c-0.5,0-0.8-0.1-0.9-0.4c0-0.2,0-0.4,0-0.4c0-0.1,0-0.1,0-0.2c-0.9,0-1.8-0.1-2.5-0.1c-0.5-0.1-1-0.2-1.5-0.4
		c0.2,0.1,0.3,0.2,0.3,0.4c0,0.4-1.4,0.8-4.1,1.1c-0.8,0-1.1-0.3-1-0.8c0-0.4,0.8-0.6,2.5-0.8c1-0.1,1.7-0.1,2.1,0L65.5,9.3
		L65.5,9.3z M64.7,10.8c1.5-0.1,2.9,0.1,4.2,0.6l0.1,0c-1.4,1.1-3,1.1-4.8,0.1c0,0-0.1,0-0.1-0.1v0c0-0.1,0-0.2,0.1-0.3
		c0,0,0-0.1,0-0.1C64.4,10.9,64.5,10.8,64.7,10.8z M69.3,14.7c-1.3-0.1-2.7-0.2-4-0.5c0.8-0.7,2-0.9,3.5-0.7c0.3,0,0.5,0.1,0.6,0.3
		c0,0,0,0,0,0.1C69.5,14.1,69.5,14.4,69.3,14.7z M67.3,16.8c-2,0.2-3.6,0.3-4.6,0.3c-1.1,0-1.8-0.1-2.1-0.4l-0.1-0.5
		c0-0.3,0.1-0.5,0.3-0.5c0.2,0,0.8,0,2,0c2.1,0,3.7-0.1,4.6-0.3h2.9c0.3,0.1,0.5,0.2,0.6,0.2c0.8,0,1.8-0.1,2.9-0.4
		c0.4-0.1,0.6,0.1,0.6,0.6c0,0.4-0.3,0.7-0.9,0.9c-0.8,0.3-1.9,0.3-3.3,0L67.3,16.8z M77,13.5c0.1-0.1,0.2-0.2,0.3-0.3
		c0.1,0,0.2-0.1,0.3-0.1c0.4,0,0.7,0,0.9,0.3c-0.5,0.1-0.9,0.3-1.4,0.4c0,0,0-0.1,0-0.1C77,13.7,77,13.6,77,13.5z M53.7,9.9
		c0,0.6-1.1,0.9-3.3,0.9c-1,0-1.7-0.1-1.9-0.4c-0.2-0.3-0.4-0.5-0.4-0.5c0,0-0.3,0.1-0.9,0.4c-0.6,0.2-1,0.4-1.3,0.4
		c-1.6,0-2.4-0.3-2.4-0.9c0-0.4,0.3-0.6,0.8-0.6l1.4,0.3c0.6,0,1.3-0.3,2.1-1c0.4-0.3,1,0.1,1.8,1.1c1.2,0,2.3-0.1,3.2-0.3
		C53.4,9.3,53.7,9.5,53.7,9.9z M53.7,11.8c1.6-0.6,2.8-0.3,3.6,0.8c0,0.1,0,0.1,0,0.2c0,0.1-0.1,0.2-0.1,0.3
		c-1.2,0.2-2.5-0.1-3.8-0.8l-0.1,0c0,0,0-0.1,0-0.1c0,0,0-0.1,0-0.1l0.1,0c0-0.1,0-0.1,0-0.2C53.5,11.8,53.6,11.8,53.7,11.8z
		 M40.6,3.7C40.3,4,39.9,4,39.4,3.6c-0.1-0.1-0.3-0.3-0.4-0.4c0-0.1,0-0.1,0-0.1v0c0.1-0.4,0.3-0.6,0.6-0.6C40.2,2.2,40.7,2.4,41,3
		l0.1,0C41,3.3,40.8,3.5,40.6,3.7z M44,8.7c-0.1-0.1-0.2-0.1-0.4-0.1c-0.2,0-0.3-0.1-0.4-0.4v0c0.1-0.4,0.3-0.6,0.6-0.6
		c0,0,0.1,0,0.1,0V8.7z M47,14.7c-0.2-0.1-0.3-0.2-0.3-0.4c0,0,0-0.1,0-0.1c0.1-0.4,0.3-0.6,0.6-0.7c0.1,0,0.2,0,0.4,0h0.1
		c2,0,4,0.1,5.9,0.2c0.2,0,0.3,0.2,0.4,0.4c0,0.4-0.1,0.6-0.4,0.7l2.2-0.1c0.4,0,1.2-0.3,2.5-0.7c1.1-0.3,1.6-0.1,1.6,0.5
		c0,0.5-1.4,1-4.1,1.5l-2.9,0c-0.3,0-0.8,0.2-1.5,0.4c-0.5,0.1-1.1,0.2-1.8,0.2c-3.1,0-4.6-0.3-4.6-1c0-0.2,0-0.3,0.1-0.4
		c0.2-0.2,0.5-0.3,1.1-0.3l3.4,0.3c0.9-0.1,1.6-0.2,2.1-0.3c-1.3-0.1-2.6-0.2-3.9-0.3c-0.1,0-0.1,0-0.2,0
		C47.4,14.7,47.2,14.7,47,14.7z M41.9,14.4c-2.2-0.1-4.4-0.3-6.6-0.4c-0.3,0-0.5-0.2-0.6-0.5c0.2-0.1,0.4-0.1,0.6,0
		c2.4,0.5,4.6,0.3,6.6-0.5c0.3,0,0.5,0.2,0.6,0.5l0.1,0C42.4,13.9,42.1,14.2,41.9,14.4z M31.6,4.4c-0.7,0-1.3,0-2,0
		c0.1-0.2,0.3-0.3,0.5-0.3c0.9-0.4,1.7-0.4,2.3,0C32.2,4.3,31.9,4.4,31.6,4.4z M34.7,12.2c-1.2,0.4-2.5,0.6-3.9,0.6
		c0.1,0,0.1,0.1,0.1,0.2c-0.2,0-0.5-0.1-0.7-0.2c-1.2-0.4-2.4-0.6-3.6-0.6c-0.2,0-0.3-0.2-0.4-0.4c0,0,0-0.1,0-0.1
		c0-0.1,0-0.2,0.1-0.3c0.1-0.1,0.2-0.2,0.3-0.3c0.1,0,0.2-0.1,0.3-0.1C29.7,10.8,32.3,11.2,34.7,12.2L34.7,12.2z M31.1,8.1
		c0-0.1,0-0.2,0.1-0.4v0c0.7,0.1,1.3,0.3,1.9,0.6c0.1,0,0.2,0.1,0.3,0.3c0,0.3-0.1,0.5-0.3,0.6c-0.5-0.2-1-0.3-1.5-0.5
		C31.4,8.6,31.2,8.5,31.1,8.1z M40,9.6c-1.7,0.5-3.1,0.4-4.3-0.5c0,0,0-0.1,0-0.1c0,0,0-0.1,0-0.1s0-0.1,0-0.1
		c0.1-0.4,0.4-0.6,0.7-0.6c1.5-0.4,2.9-0.1,4,0.8C40.6,9.2,40.5,9.4,40,9.6z M27.1,5.3c-0.4,1-1.1,1-1.9,0.3c0,0,0,0,0,0
		c0-0.1,0-0.1,0-0.2c0-0.1,0.1-0.2,0.1-0.3c0.5,0,1.1,0.1,1.7,0.2C27.1,5.2,27.1,5.2,27.1,5.3z M21.2,5.7c0,0.4-0.2,0.7-0.6,0.9
		c-1.4,0.5-2.5,0.3-3.4-0.6c0,0,0-0.1,0-0.1v0c0-0.4,0.2-0.6,0.6-0.6C19.2,4.5,20.4,4.7,21.2,5.7L21.2,5.7z M24.5,9.6
		c-1.5,0.5-2.9,0.4-4-0.4c0,0-0.1-0.1-0.1-0.1c0.2-0.6,0.6-0.9,1.3-0.9v0c1.1,0.1,2.2,0.2,3.3,0.3c0,0,0.1,0.1,0.1,0.2
		C25.1,9.1,24.9,9.4,24.5,9.6z M28.5,9.2c-0.3,0-0.5-0.1-0.8-0.1c-0.1,0-0.2-0.1-0.3-0.2C27.8,9,28.1,9.1,28.5,9.2z M28,14
		c1.1-0.2,2.1-0.4,3.2-0.5c0,0.4-0.1,0.8-0.3,0.9c1,0.1,2.1,0.2,3.2,0.2c1.1,0,1.7,0.3,1.7,0.8c0,0.1-0.4,0.3-1.2,0.4
		c-0.4,0.1-0.8,0.1-1.2,0.1c0,0,0,0.1,0,0.2c-0.9,0-1.6-0.1-2.3-0.2c-0.4-0.1-0.8-0.2-1.3-0.3h-3.6c-0.4-0.1-0.6-0.4-0.6-0.8
		c0-0.2,0.1-0.4,0.3-0.5c0.2-0.2,0.5-0.2,0.9,0l1.3,0c0,0,0,0,0,0C27.6,14,27.7,14,28,14z M21.6,13.7c0,0.2-0.4,0.5-1.1,0.8
		c-0.7,0.3-1.5,0.4-2.3,0.4c-1.3,0-2-0.4-2.1-1.2c0-0.4,0.2-0.6,0.6-0.6c0.3-0.1,0.6,0.1,1,0.5h1.5l1.1-0.3
		c-0.6-0.1-1.2-0.3-1.8-0.5c-0.8-0.3-1.6-0.6-2.4-0.9c-0.1,0-0.1-0.1-0.1-0.2v-0.1c1.9,0,3.7,0.1,5.5,0.1c1.2,0.4,2.4,0.9,3.5,1.5
		c0,0,0.1,0,0.1,0c-1.1,0.3-2.3,0.3-3.5,0.2C21.6,13.5,21.6,13.5,21.6,13.7z M39.7,12.8c-0.9,0.4-2,0.3-3.1-0.3
		C37.7,12.5,38.7,12.6,39.7,12.8z M13,6.3c-0.2,0.4-0.4,0.7-0.8,0.9C12,7.3,11.6,7.3,11.1,7c-0.3-0.1-0.6-0.3-0.9-0.5
		c0-0.1,0-0.1,0-0.1v0c0.1-0.4,0.3-0.6,0.6-0.6C11.8,5.3,12.5,5.5,13,6.3C13,6.2,13,6.2,13,6.3z M10.4,11.5c1.1,0,2.2,0,3.4,0
		c0.2,0.1,0.4,0.2,0.6,0.3v0c-0.4,0.3-0.8,0.5-1.3,0.6l2,0c0.4,0.1,0.6,0.3,0.6,0.6c0,0.2,0,0.4-0.1,0.4c-0.2,0.1-0.8,0.2-1.8,0.2
		c-1.2,0-2.3-0.2-3.4-0.7c-0.9-0.4-1.3-0.7-1.4-1c-0.1-0.1-0.3-0.2-0.4-0.3c0.1-0.1,0.3-0.2,0.5-0.2C9.4,11.2,9.8,11.2,10.4,11.5
		L10.4,11.5z M3.8,8.4c0.3-0.2,0.8-0.3,1.3-0.2c2-0.8,3.5-0.7,4.7,0.4C9.6,8.7,9.4,8.8,9.2,8.8c-1.7,0-3.4-0.1-5.1-0.2
		C3.9,8.6,3.8,8.5,3.8,8.4z M3.2,9.2c0.1,0,0.2-0.1,0.3-0.1C4.6,9,5.6,9.2,6.4,9.9c0,0,0.1,0,0.1,0.1c-1,1-2.2,1-3.6-0.1l-0.1,0
		c0-0.1,0-0.2,0.1-0.3c0,0,0-0.1,0-0.1C3,9.3,3.1,9.2,3.2,9.2z M9,10.7C8.7,10.8,8.5,11,8.1,11c0-0.1,0.1-0.2,0.3-0.3
		c0.1,0,0.2-0.1,0.3-0.1C8.8,10.6,8.9,10.6,9,10.7z M40.4,15.6c1.2,0,2.3,0,3.5,0.1C42.6,16.3,41.5,16.3,40.4,15.6z"/>
</g>
</svg>
