<?xml version="1.0" encoding="utf-8"?>
<!-- Generator: Adobe Illustrator 16.0.0, SVG Export Plug-In . SVG Version: 6.00 Build 0)  -->
<!DOCTYPE svg PUBLIC "-//W3C//DTD SVG 1.1//EN" "http://www.w3.org/Graphics/SVG/1.1/DTD/svg11.dtd">
<svg version="1.1" id="Layer_1" xmlns="http://www.w3.org/2000/svg" xmlns:xlink="http://www.w3.org/1999/xlink" x="0px" y="0px"
	 width="102px" height="19px" viewBox="0 0 102 19" enable-background="new 0 0 102 19" xml:space="preserve">
<g>
	<path fill-rule="evenodd" clip-rule="evenodd" fill="#FFFFFF" d="M93,6.7C94.4,6,95.6,6.1,96.5,7c-1.2,0.4-2.5,0.7-3.7,0.8
		c-0.1,0-0.3-0.1-0.3-0.1c-0.1-0.1-0.1-0.2-0.2-0.3c0,0,0-0.1,0-0.1C92.4,7,92.6,6.7,93,6.7z M91.5,7.3c-0.3,0.3-0.6,0.5-0.9,0.6
		c-0.8,0-1.5-0.1-2.3-0.3c-0.2-0.2-0.5-0.6-0.7-1c-0.1-0.2,0-0.3,0.3-0.3c1.3-0.1,2.5,0.2,3.5,0.8C91.5,7.2,91.5,7.3,91.5,7.3z
		 M92.8,10.9C91.9,10.7,91,10.4,90,10c-0.1,0-0.1-0.1-0.2-0.1c0-0.1,0-0.2,0-0.3c0,0,0-0.1,0-0.1c0-0.1,0.1-0.1,0.1-0.1
		c0,0,0-0.1,0-0.1c0.2-0.1,0.3-0.1,0.5-0.1c2.9,0.1,5.6,0.4,8.3,0.8c0,0.1-0.1,0.1-0.1,0.3c-0.9,0.4-1.7,0.6-2.6,0.8
		C95,11,93.9,11,92.8,10.9z M99,12c-0.3,0.6-0.6,0.8-0.7,0.8c-0.3,0-0.6-0.1-0.7-0.4L97.4,12c0-0.4,0.3-0.8,1-1.4
		c0.7-0.6,1-0.5,1,0.3C99.5,11,99.3,11.4,99,12z M97.2,12.3c0,0.4-0.4,0.6-1.3,0.8c-1.6,0.2-2.7,0.4-3.3,0.5c0,0-0.6,0.3-1.6,0.8
		c-1.1,0.6-1.8,0.8-2.3,0.8c-0.7,0-1.2-0.2-1.6-0.5c-0.2-0.1-0.3-0.3-0.3-0.5c0-0.4,0.2-0.6,0.6-0.6c0.2,0,0.5,0.1,1,0.3l4.4-1.7
		C95.8,11.3,97.2,11.4,97.2,12.3z M88.3,5.5C86.6,6,84.8,6,83,5.6c-0.5-0.3-1-0.6-1.5-0.9c0,0-0.1,0-0.1-0.1c0-0.1,0-0.3,0-0.4
		C84,4,86.3,4.4,88.3,5.5C88.3,5.5,88.3,5.5,88.3,5.5z M85.8,8.7c0.4,0,0.7,0.1,1.1,0.1C87,8.9,87.1,9,87.2,9l0,0.1
		c-0.6,1.1-1.5,1.3-2.5,0.5C84.7,8.9,85.1,8.6,85.8,8.7z M82.2,11.8c-0.6,0.9-1.2,1.3-2,1.3c-0.2-0.2-0.4-0.5-0.5-0.8
		c0.8-0.3,1.5-0.5,2.3-0.8C82.1,11.6,82.1,11.7,82.2,11.8L82.2,11.8z M83.5,11.3c1.5,0.1,2.8,0,4-0.3c0.3,0,0.5,0.1,0.6,0.5v0
		c0,0.5-0.3,0.8-0.8,1c-1.7,0.5-3.3,0.4-4.5-0.4C82.8,11.5,83,11.3,83.5,11.3z M79.4,5.5c0.4,0.1,0.7,0.4,0.9,0.8
		c0,0.1,0.1,0.1,0.1,0.2c-0.1,0.1-0.2,0.3-0.3,0.5c-0.2,0-0.5,0-0.8,0L79.4,5.5L79.4,5.5z M71,3.4v0.4c-0.9,0-1.7,0-2.6,0
		c0.1-0.2,0.3-0.3,0.5-0.3C69.6,3.4,70.3,3.4,71,3.4z M71,11.6c2.6-0.6,4.5-0.2,5.8,1.3c-1.8,0.4-3.6,0.7-5.4,0.8
		c-0.4-0.4-0.8-1-1-1.7c0-0.1,0.1-0.1,0.1-0.1c0.1-0.1,0.1-0.1,0.2-0.1C70.8,11.7,70.9,11.7,71,11.6L71,11.6z M71,8.4v0.4
		c-0.6,0-1.3,0-1.8,0C69.5,8.3,70.1,8.1,71,8.4z M61.1,11c-0.2,0-0.5-0.1-0.8-0.3c-0.4-0.1-0.8-0.2-1.2-0.2l-1,0.2
		c-0.3,0-0.5-0.2-0.7-0.5l-0.2-0.5c0-0.6,0.8-0.8,2.3-0.5s2.3,0.5,2.3,1S61.5,11,61.1,11z M63.8,10c0-0.1,0-0.1,0-0.2
		c0-0.1,0-0.2,0-0.3c0-0.3,0.6-0.6,1.7-0.8c1.2-0.2,1.8,0,1.8,0.5c0,0.7-0.8,1-2.3,1C64.3,10.3,63.9,10.2,63.8,10z M64.1,11.5
		L64.1,11.5c0-0.2,0-0.3,0.1-0.3c0,0,0-0.1,0-0.1c0.2-0.2,0.3-0.3,0.5-0.3c1.5-0.1,2.9,0.1,4.2,0.6l0.1,0
		C67.6,12.5,66,12.6,64.1,11.5C64.1,11.6,64.1,11.6,64.1,11.5z M69.3,13.6c-0.7,0-1.4-0.1-2.1-0.1c0.5-0.1,1-0.1,1.6,0
		C69,13.5,69.2,13.5,69.3,13.6z M68.5,15.3c-0.6,0.2-1.1,0.3-1.6,0.3c0,0.1,0,0.2,0,0.3c0,0.4-0.4,0.7-1.3,0.8
		c-1.5,0.1-2.4,0.3-2.8,0.4h-2.8c-0.5,0-0.8-0.1-0.9-0.2C59,16.6,59,16.4,59,16.1c0-0.5,0.2-0.8,0.6-0.8c0.2,0,0.4,0,0.5,0.1
		c0.1,0.1,0.2,0.1,0.1,0.3h3c0.6,0,1.4-0.2,2.5-0.4h0c-0.3-0.1-0.5-0.3-0.8-0.5c1.4,0,2.9,0,4.3,0.1C69.1,15,68.8,15.1,68.5,15.3z
		 M75.5,16.5c-0.3,0-0.5-0.1-0.6-0.3l-0.1-0.4c0-0.5,1.3-0.9,3.9-1.3c2.6-0.4,4-0.3,4,0.2c0,0.3-0.9,0.6-2.8,1.1
		C78,16.2,76.6,16.5,75.5,16.5z M72.7,9.7c-1,0.5-2.1,0.4-3.3-0.1C70.5,9.6,71.5,9.6,72.7,9.7z M78.3,12.3c0.5-1,1.4-1.3,2.8-1
		c-0.9,0.4-1.8,0.8-2.7,1.1C78.4,12.4,78.4,12.3,78.3,12.3z M50.9,12.3c-2.3,0.5-4.8,0.4-7.4-0.5c2,0,4-0.1,5.9-0.3
		C49.9,11.7,50.4,11.9,50.9,12.3C50.9,12.2,50.9,12.2,50.9,12.3z M53.3,12L53.3,12c0.2-0.4,0.3-0.5,0.6-0.5c1.1-0.2,2.2-0.2,3.3,0
		c0,0,0.1,0.1,0.1,0.1c0,0,0,0.1,0,0.2c-0.2,0.5-0.5,1-0.8,1.4c-1,0-2-0.3-3.1-0.9l-0.1,0C53.3,12.2,53.3,12.1,53.3,12
		C53.3,12.1,53.3,12,53.3,12z M55.3,9.6c0,0.4-1.3,0.9-4,1.4c-0.6,0-1.1-0.2-1.6-0.5c-0.6-0.4-1-0.6-1.4-0.6c-0.5,0-0.9,0.1-1.3,0.5
		c-0.4,0.3-1.1,0.4-2,0.4c-0.5,0-0.7-0.2-0.6-0.6c0.3-0.9,0.7-1.3,1-1.3c0.4,0.3,0.7,0.4,0.8,0.4c0.4-0.2,0.8-0.3,1.1-0.5
		c0.7-0.3,1.2-0.3,1.7,0c1.3,0.7,2.1,1,2.4,1c0.4,0,1.4-0.3,3.1-0.8C55,9,55.3,9.3,55.3,9.6z M43.3,8.2c0.1-0.4,0.3-0.6,0.6-0.6
		c0,0,0.1,0,0.1,0v1.1c-0.1-0.1-0.3-0.1-0.4-0.1C43.4,8.6,43.3,8.5,43.3,8.2L43.3,8.2z M40.8,11.8C40.8,11.8,40.8,11.8,40.8,11.8
		c-1.1,1.4-2.5,1.5-4.1,0.6c0.4-0.4,0.9-0.7,1.5-0.9C39,11.6,39.8,11.7,40.8,11.8C40.7,11.8,40.8,11.8,40.8,11.8z M47.3,13.6
		c0.1,0,0.2,0,0.4,0h0.1c2,0,4,0.1,5.9,0.2c0.2,0,0.3,0.2,0.4,0.4c-0.3,0-0.7,0-1.2-0.1c-1.9-0.1-3.8-0.3-5.7-0.4
		C47.2,13.6,47.2,13.6,47.3,13.6z M46.9,14.7c2.2,0,4.4,0.1,6.6,0.2c0.2,0,0.3,0.1,0.5,0.1l0,0c-0.7,0.3-1.4,0.5-2,0.7
		c0.1,0,0.2,0.2,0.2,0.4c0.2,0.4-0.4,0.7-1.9,0.7c-1.9,0-3.1-0.1-3.6-0.3c-0.2-0.1-0.3-0.3-0.3-0.6c0-0.4,0.5-0.5,1.5-0.5
		c0.4,0,0.7,0,1,0c-0.4-0.2-0.9-0.3-1.3-0.5c-0.2,0-0.5,0-0.7,0C47,14.7,46.9,14.7,46.9,14.7z M44.8,15c-1.5,1.2-2.8,1.4-4.1,0.8
		c-1.5,0-2.5,0.1-2.8,0.1l-5.5,0.5c-0.9,0-1.6-0.1-2.1-0.3c-0.2-0.1-0.5-0.2-0.8-0.4h-2.9l-1.4-0.6c-1.5,0-2.4,0-2.8,0.2
		c-0.6,0-1-0.3-1.1-0.9c0-0.2,0.1-0.4,0.3-0.4c0.2-0.1,0.5-0.1,0.9-0.1c0.3,0,0.6,0,1,0c-0.1,0-0.3,0-0.6-0.1c-0.1,0-0.2,0-0.3,0
		c0.1-0.1,0.3-0.1,0.5-0.2c-1.5,0-3.1-0.2-4.7-0.8c-0.8-0.3-1.6-0.6-2.4-0.9c-0.1,0-0.1-0.1-0.1-0.2c0,0,0-0.1,0-0.2
		c0,0,0-0.1,0-0.2c0.2-0.3,0.4-0.5,0.7-0.5c3,0.2,5.8,1,8.3,2.4c0,0,0.1,0,0.1,0c-0.4,0.1-0.8,0.2-1.3,0.3c0.5,0,1.1,0.2,1.9,0.5
		l0.7,0.3c0.8,0.3,1.3,0.4,1.6,0.3c0.6-0.1,1.2-0.2,1.7-0.1c0,0,0.3,0.1,0.8,0.3C31,15,31.7,15,32.4,15c1.2,0,2.4-0.1,3.5-0.3
		c0.1,0,0.1,0,0.1,0c-0.4-0.1-0.8-0.2-1.2-0.3c1.3,0,2.6,0,3.9,0c0.7-0.1,1-0.1,1-0.1c0.9,0,1.6,0.1,2,0.2c0.1,0,0.1,0,0.2,0
		C42.9,14.8,43.9,14.9,44.8,15L44.8,15z M42.4,13.4c-0.5-0.1-1-0.1-1.4-0.1c0.3-0.1,0.5-0.2,0.8-0.3C42.1,13,42.3,13.1,42.4,13.4z
		 M60.7,14.7c-0.3,0.1-0.6,0.3-1,0.4c-0.2,0.1-0.4,0.2-0.6,0.3c0.2-0.4,0.5-0.6,1-0.6C60.3,14.7,60.5,14.7,60.7,14.7z M39.5,2.5
		c0.5-0.2,1-0.1,1.3,0.2c-0.5,0-1.1-0.1-1.6-0.1C39.4,2.5,39.5,2.5,39.5,2.5z M34.6,12.3c0-0.1,0-0.2,0-0.2h0l0.1,0
		C34.7,12.2,34.6,12.3,34.6,12.3z M31.1,12.3c0,0.3,0,0.5-0.1,0.6c-0.2,0-0.5-0.1-0.8-0.2c-1.2-0.4-2.4-0.6-3.6-0.6
		c-0.2,0-0.3-0.2-0.4-0.4c0,0,0-0.1,0-0.1c0-0.1,0-0.2,0.1-0.3c0.1-0.1,0.2-0.2,0.3-0.3c0.1,0,0.2-0.1,0.3-0.1
		c2.1-0.2,4.2,0,6.1,0.5c-0.7,0.1-1.5,0.2-2.2,0.2C31,11.9,31.1,12.1,31.1,12.3z M40.5,9.4c-1.6-0.1-3.3-0.3-4.9-0.6
		c0.1-0.4,0.4-0.6,0.7-0.6c1.5-0.4,2.9-0.1,4,0.8C40.5,9.1,40.5,9.3,40.5,9.4z M27.1,5.3c-0.4,1-1.1,1-1.9,0.3c0,0,0,0,0,0
		c0-0.1,0-0.1,0-0.2c0.1-0.3,0.3-0.5,0.5-0.5c0.6-0.2,1,0,1.3,0.4C27.1,5.2,27.1,5.2,27.1,5.3z M29.6,4.4c1,0.1,2,0.3,3,0.5
		c-0.8,1.1-1.8,1.1-3.1,0c0,0,0-0.1,0-0.1v0C29.5,4.6,29.6,4.5,29.6,4.4z M21.2,5.7c0,0.2-0.1,0.4-0.2,0.6c-1.2,0-2.4,0-3.6,0
		c-0.1-0.1-0.1-0.1-0.1-0.2c0,0,0-0.1,0-0.1v0c0-0.4,0.2-0.6,0.6-0.6C19.2,4.5,20.4,4.7,21.2,5.7L21.2,5.7z M24.5,9.6
		c-0.7,0.2-1.4,0.3-2,0.3c-0.8-0.4-1.5-0.8-2.1-1.2c0.1-0.3,0.3-0.5,0.6-0.5c1.5-0.6,2.8-0.5,4,0.3c0,0,0.1,0.1,0.1,0.2
		C25.1,9.1,24.9,9.4,24.5,9.6z M28,8.1c1.6,0.3,3.1,0.7,4.7,1.1c-1.7,0-3.3,0-5-0.1c-0.2,0-0.3-0.1-0.4-0.4v0
		C27.4,8.3,27.6,8.1,28,8.1C28,8.1,28,8.1,28,8.1z M10.4,6c0.1-0.2,0.3-0.3,0.4-0.3c0.9-0.3,1.6-0.2,2.1,0.3C12.1,6,11.2,6,10.4,6z
		 M14.4,11.8c-0.4,0.2-0.8,0.4-1.1,0.6c0.5,0,1,0,1.7,0.1c2.2,0.3,3.3,0.6,3.3,1c0,0.2,0,0.4-0.1,0.4C17.9,14,17.4,14,16.5,14
		c-3.3,0-4.9-0.4-4.9-1.3c0,0,0-0.1,0-0.1c-1.2,0-2.3-0.4-3.4-1.4l0,0c0.1-0.3,0.3-0.5,0.5-0.7C10.9,10.7,12.8,11.1,14.4,11.8
		L14.4,11.8z M4.1,7.8C6,7.7,7.7,7.6,9.4,7.5c0.2,0,0.4,0.1,0.5,0.2l0,0.1C10,7.8,10,7.8,10,7.9V8c0,0.5-0.3,0.8-0.8,0.8
		c-1.7,0-3.4-0.1-5.1-0.2c-0.2,0-0.3-0.1-0.4-0.4C3.8,8,3.9,7.8,4.1,7.8z M3.2,9.2c0.1,0,0.2-0.1,0.3-0.1C4.6,9,5.6,9.2,6.4,9.9
		c0,0,0.1,0,0.1,0.1c-0.1,0.1-0.3,0.3-0.4,0.3c-0.9-0.1-1.9-0.4-3-1C3,9.3,3.1,9.2,3.2,9.2z"/>
</g>
</svg>
