<?xml version="1.0" encoding="utf-8"?>
<!-- Generator: Adobe Illustrator 16.0.0, SVG Export Plug-In . SVG Version: 6.00 Build 0)  -->
<!DOCTYPE svg PUBLIC "-//W3C//DTD SVG 1.1//EN" "http://www.w3.org/Graphics/SVG/1.1/DTD/svg11.dtd">
<svg version="1.1" id="Layer_1" xmlns="http://www.w3.org/2000/svg" xmlns:xlink="http://www.w3.org/1999/xlink" x="0px" y="0px"
	 width="102px" height="19px" viewBox="0 0 102 19" enable-background="new 0 0 102 19" xml:space="preserve">
<g>
	<path fill-rule="evenodd" clip-rule="evenodd" fill="#FFFFFF" d="M96,8.1c-1.3,0.4-2.5,0.3-3.5-0.4C93.7,7.9,94.9,8,96,8.1
		C96.1,8.1,96,8.1,96,8.1z M100.2,8.5c-0.2,0.2-0.5,0.3-0.7,0.4c-0.2-0.1-0.3-0.3-0.3-0.5c0.3,0,0.6,0,0.9,0
		C100.1,8.4,100.2,8.4,100.2,8.5z M97.6,11.1c0.7-0.2,1,0,1,0.7c0,0.2-0.1,0.4-0.3,0.6c-0.3,0.2-0.6,0.4-1,0.4
		c-0.4,0-0.6-0.1-0.7-0.3L96.6,12C96.6,11.7,96.9,11.4,97.6,11.1z M93.9,11c-1.3-0.1-2.6-0.5-4-1c-0.1,0-0.1-0.1-0.2-0.1
		c0-0.1,0-0.2,0-0.3c0,0,0-0.1,0-0.1c0-0.1,0.1-0.1,0.1-0.1c0,0,0-0.1,0-0.1c0.2-0.1,0.3-0.1,0.5-0.1c2.6,0.1,5,0.3,7.4,0.7
		C96.5,10.3,95.2,10.7,93.9,11z M88.3,5.5c-1-0.2-1.9-0.5-2.9-0.8c0,0,0,0,0-0.1c0.1,0,0.1-0.1,0.3-0.1C86.5,4.7,87.4,5.1,88.3,5.5
		C88.3,5.5,88.3,5.5,88.3,5.5z M85,8.5c1-0.4,1.7-0.2,2.2,0.5l0,0.1c-0.6,1.2-1.6,1.3-2.9,0.3c0,0,0-0.1,0-0.1v0
		C84.4,8.8,84.6,8.5,85,8.5z M88,12.1c-0.1,0.2-0.3,0.3-0.5,0.4c-1,0.3-1.9,0.4-2.8,0.3c0.1-0.6,0.5-0.9,1.2-0.8
		C86.5,12,87.3,12.1,88,12.1z M89.7,12.5c0-0.1,0.1-0.2,0.1-0.3c0.8,0,1.6,0,2.4,0c-0.1,0.1-0.2,0.3-0.3,0.3c0.9-0.1,1.4,0,1.4,0.5
		c0,0.2-0.4,0.5-1.3,1c-0.9,0.4-1.6,0.6-2.2,0.6c-0.3,0-0.5-0.1-0.5-0.3l0-0.4c0-0.4,0.4-0.7,1.1-0.9C90.1,12.8,89.9,12.7,89.7,12.5
		C89.7,12.6,89.7,12.5,89.7,12.5z M84,15.7c-0.8,0.3-1.5,0.5-2,0.5c-0.3,0-0.5-0.1-0.5-0.4c0-0.1,0-0.2,0-0.4c0-0.5,0.6-0.9,1.9-1
		c1.2-0.2,1.9-0.1,1.9,0.5C85.2,15.1,84.8,15.4,84,15.7z M88,7.1c1,0.2,2.1,0.3,3.2,0.5C89.8,8.6,88.8,8.4,88,7.1z M79.3,6V5.5
		c0.3,0,0.5,0.1,0.7,0.1c-0.1,0.1-0.3,0.2-0.5,0.3C79.5,5.9,79.4,5.9,79.3,6z M71,3.4V5c-0.9-0.1-1.8-0.3-2.7-0.7v0c0,0,0-0.1,0-0.1
		c0-0.1,0-0.1,0-0.2c0,0,0-0.1,0-0.1c0.1-0.2,0.3-0.3,0.6-0.3C69.6,3.4,70.3,3.4,71,3.4z M71,5.6c-1.5,0.9-3.1,0.9-4.9,0
		c0,0,0,0,0-0.1v0c0-0.2,0.1-0.4,0.3-0.5c0.1,0,0.3-0.1,0.4-0.1c1.6,0,3,0.2,4.3,0.7V5.6z M75.8,12c-1.8,0-3.6,0-5.3,0l0,0
		c0-0.1,0.1-0.1,0.1-0.1c0.1-0.1,0.1-0.1,0.2-0.1c0.1,0,0.2,0,0.3,0v-0.1C72.9,11.1,74.5,11.2,75.8,12z M80.4,9.8
		c-0.1,0.1-0.1,0.2-0.2,0.3c-1,0.1-2-0.1-3-0.8c0,0,0.1,0,0.2,0h1.9V8.8c0.4,0.1,0.8,0.3,1,0.8C80.3,9.7,80.4,9.7,80.4,9.8z
		 M64.2,11c0.2-0.2,0.3-0.3,0.5-0.3c0.6-0.1,1.3-0.1,1.8,0c-0.1-0.1-0.2-0.2-0.3-0.3V10c0-0.4,0.4-0.9,1.3-1.4
		c0.8-0.6,1.2-0.5,1.2,0.3c-0.8,1.2-1.4,1.9-1.6,2.1c0.6,0.1,1.2,0.3,1.8,0.5l0.1,0c-0.3,0.2-0.5,0.4-0.8,0.5c-1.2,0-2.3,0-3.5-0.1
		c-0.2-0.1-0.4-0.1-0.6-0.3c0,0-0.1,0-0.1-0.1v0c0-0.1,0-0.2,0.1-0.3C64.2,11.1,64.2,11.1,64.2,11z M63.8,10.6
		c-0.4,0.1-0.9,0.3-1.4,0.5h-3.1c-1-0.1-1.5-0.4-1.5-1c0-0.3,0.1-0.5,0.4-0.5c0.3-0.1,0.6-0.1,1,0.2l3.3,0.1c1-0.3,1.5-0.2,1.5,0.5
		C64,10.4,64,10.5,63.8,10.6z M69.7,15.8c0.2,0,0.6,0,1.4,0.1c0.2,0,0.9-0.1,2-0.2c0.2,0,0.4,0.2,0.4,0.5c0,0.6-0.8,0.9-2.5,0.9
		c-0.8,0-1.3-0.1-1.5-0.4l-0.1-0.4C69.3,16,69.5,15.8,69.7,15.8z M64.9,14.7c0,0-0.1-0.1-0.1-0.2c0.8-1,2.2-1.3,4-1.1
		c0.3,0,0.5,0.1,0.6,0.3c0,0,0,0,0,0.1c0.1,0.7-0.2,1.2-0.9,1.5C67.1,15.8,65.9,15.6,64.9,14.7z M78.9,13.8L78.9,13.8
		c-0.7,1.2-1.3,1.1-1.9-0.1c0,0,0-0.1,0-0.2c0-0.1,0.1-0.1,0.2-0.1c0.5,0,1.1,0.1,1.6,0.2C78.8,13.7,78.9,13.7,78.9,13.8z
		 M76.8,13.7c-2.8,1.4-4.8,1.1-5.9-0.8c2.1,0,4.2,0.2,6.3,0.5C77.1,13.5,77,13.6,76.8,13.7z M53.4,9.2h1.4c-0.3,0.1-0.7,0.1-1,0.3
		C53.7,9.4,53.5,9.3,53.4,9.2z M51.7,11c-0.4,0-0.9-0.1-1.4-0.3C49.8,10.4,49,10.2,48,10h-1.1c-0.1,0.1-0.2,0.3-0.5,0.5
		c-0.1,0.1-0.2,0.1-0.3,0.2c0.9,0,1.9,0.2,2.8,0.5c-0.2,0.7-0.8,1.1-1.9,1.2c-0.1,0-0.2,0-0.3,0c-1.2-0.2-2.4-0.5-3.6-0.8v-0.1
		c0-0.1,0-0.2,0-0.2c0-0.2,0.1-0.3,0.3-0.4c0.1,0,0.2,0,0.3,0c0.2,0,0.4,0,0.5,0c-0.3-0.1-0.6-0.2-0.8-0.4c-0.1-0.2-0.2-0.3-0.1-0.5
		c0-0.5,0.3-0.7,0.8-0.7c0.1,0,0.2,0.1,0.4,0.2c0.2,0.1,0.3,0.1,0.3,0.1h0.8c2.6-1.2,4.8-1,6.8,0.6C52.3,10.7,52.1,11,51.7,11z
		 M57.2,11.5c0.5,0,0.9,0.1,1.4,0.3c-0.4,0-0.7,0-1,0c-0.1,0-0.2,0-0.3,0C57.3,11.6,57.2,11.5,57.2,11.5z M41,3L41,3
		c-0.4,1.1-1.1,1.2-2,0.3c0-0.1,0-0.1,0-0.1v0c0-0.3,0.1-0.4,0.3-0.5c0.5,0,1.1,0,1.6,0.1C40.9,2.7,41,2.8,41,3z M44,5.3
		c-1.3,0.4-2.6,0.6-3.9,0.6c-1,0-2.1-0.1-3.1-0.3c-0.4-0.1-0.7-0.1-1-0.3c0-0.3,0.1-0.4,0.3-0.4c2.6-0.1,5.2-0.4,7.7-0.8
		c0,0,0.1,0,0.1,0V5.3z M40.8,11.8c-0.3,0.3-0.6,0.6-0.9,0.8c-1-0.1-2.1-0.2-3.1-0.4c0.7-0.6,1.7-0.9,2.9-0.9
		C40.2,11.2,40.5,11.4,40.8,11.8C40.8,11.8,40.8,11.8,40.8,11.8z M50.3,16c0,0.5-0.5,0.8-1.4,0.8h-3.4c-0.8-0.1-1.3-0.4-1.3-0.8
		c0-0.6,0.5-0.7,1.3-0.4H49l-1.7-0.2c1.1,0,1.9,0,2.4,0.1c-0.6-0.1-1.1-0.3-1.7-0.6c1.9-0.2,3.8-0.5,5.7-1c0,0,0.1,0,0.1,0
		c0,0.1,0.1,0.1,0.1,0.3c0,0.4-0.2,0.6-0.5,0.7c0.2,0,0.3,0.1,0.5,0.1l0,0c-1.3,0.6-2.7,0.8-4,0.6C50.2,15.6,50.3,15.8,50.3,16z
		 M44.8,15c-1.2,0.9-2.3,1.3-3.4,1c-0.4,0.1-1,0.2-1.7,0.4c-1.7,0.3-2.6,0.5-2.9,0.5c-0.8,0-1.4-0.2-1.6-0.5C35,16.2,35,16,35,15.8
		c0-0.1,0.1-0.3,0.2-0.4c0.1-0.1,0.2-0.2,0.3-0.2c0.2,0,0.5,0.1,0.6,0.4h1.4c0.4-0.2,1.2-0.4,2.3-0.5c-0.1-0.1-0.2-0.2-0.3-0.3
		c-1.5,0.1-3,0-4.4-0.3c0.2-0.1,0.4-0.2,0.8-0.1c1.2,0.1,2.4,0.3,3.6,0.4c0.6,0,1.3,0.1,1.9,0.1c0.1,0,0.2,0,0.4,0
		C42.7,15,43.8,15,44.8,15z M60.7,13.3c1.1,0.5,1,1.1-0.5,1.7c-0.1,0-0.1-0.1-0.2-0.1c-0.1,0-0.1-0.1-0.2-0.3c0,0,0-0.1,0-0.2
		c0-0.2,0.1-0.3,0.2-0.5c0-0.1,0.1-0.2,0.1-0.3C60.3,13.5,60.5,13.3,60.7,13.3z M36.3,3.6c-0.7,1.1-1.3,1.2-1.8,0.1
		c-0.2-0.4,0-0.6,0.4-0.6C35.5,2.9,36,3,36.3,3.5C36.3,3.5,36.3,3.6,36.3,3.6z M32.8,4.6C32,5.9,31,6,29.5,4.9c0,0,0-0.1,0-0.1v0
		c0.1-0.4,0.3-0.6,0.6-0.6C31.2,3.6,32.1,3.8,32.8,4.6C32.8,4.5,32.8,4.6,32.8,4.6z M32.7,9.3c-1.7,0-3.3,0-5-0.1
		c-0.2,0-0.3-0.1-0.4-0.4v0c0.1-0.4,0.3-0.6,0.6-0.6c0.7-0.2,1.4-0.4,2.1-0.4c0.8,0,1.7,0.1,2.5,0.4c0.2,0,0.4,0.1,0.6,0.3
		c0.1,0,0.2,0.1,0.3,0.3C33.3,9,33.1,9.3,32.7,9.3z M35.6,9.1L35.6,9.1c1.6,0,3.2,0.1,4.9,0.1c0,0.2-0.1,0.3-0.5,0.4
		C38.3,10.1,36.9,10,35.6,9.1z M27.1,5.3c-0.4,1-1.1,1-1.9,0.3c0,0,0,0,0,0c0-0.1,0-0.1,0-0.2c0.1-0.3,0.3-0.5,0.5-0.5
		c0.6-0.2,1,0,1.3,0.4C27.1,5.2,27.1,5.2,27.1,5.3z M21.2,5.7c0,0.3-0.1,0.5-0.3,0.6c-0.3,0-0.6-0.1-0.9-0.1c-0.3,0-0.5-0.3-0.6-0.7
		c0,0,0-0.1,0-0.1c0-0.2,0.1-0.5,0.2-0.7C20.2,4.8,20.7,5.1,21.2,5.7L21.2,5.7z M25.1,8.8c0,0.4-0.2,0.7-0.6,0.9c0,0,0,0,0,0
		c-1.1,0-2.3-0.1-3.4-0.1c-0.2-0.1-0.4-0.2-0.6-0.3C20.4,9.1,20.4,9,20.4,9c0,0,0-0.1,0-0.1c0.1-0.4,0.3-0.6,0.6-0.6
		c1.5-0.6,2.8-0.5,4,0.3C25,8.6,25,8.6,25.1,8.8z M20.4,11.4c1.6,0.4,3.2,1,4.6,1.8c0,0,0.1,0,0.1,0c-0.6,0.2-1.3,0.3-1.9,0.3
		c-1-0.5-2-1-2.9-1.7C20.3,11.7,20.3,11.6,20.4,11.4z M26.3,11.7c0-0.1,0-0.2,0.1-0.3c0.1-0.1,0.2-0.2,0.3-0.3
		c0.1,0,0.1-0.1,0.3-0.1c2.3,0.4,4.6,1,6.8,1.8c-0.9,0.4-2,0.4-3.4,0c-1.2-0.4-2.4-0.6-3.6-0.6C26.5,12.1,26.3,12,26.3,11.7
		C26.3,11.8,26.3,11.7,26.3,11.7z M27.5,14.6c1.1,0.2,2.5,0.3,4,0.4c0.6,0,1,0.2,1,0.6c0,0.1,0,0.3-0.1,0.4
		c-0.3,0.2-0.8,0.3-1.6,0.3c-1.4,0-2.8-0.2-4.3-0.6c-1.4-0.4-2.6-0.6-3.6-0.6s-1.6,0-2,0.1c-0.4,0.1-1.4,0.2-2.9,0.2
		c-2.7,0-4-0.5-4-1.3c0-0.7,0.3-0.9,0.9-0.7c1.1,0.5,1.7,0.7,1.8,0.7h2.9c0.5,0,0.9,0,1.4-0.1c0.6-0.2,1.3-0.3,2-0.3
		c1,0,2,0.1,2.9,0.4C26.6,14.4,27.2,14.6,27.5,14.6z M28,14c1.2-0.2,2.3-0.4,3.5-0.7c0.7-0.2,1.3-0.1,1.6,0.5l0.1,0
		c-1.5,1.1-3.3,1.2-5.3,0.3C27.6,14,27.7,14,28,14z M36.1,13.8c-0.5,0.2-1,0.5-1.5,0.7c0-0.1-0.1-0.1-0.1-0.1
		c-0.1,0-0.2-0.1-0.2-0.3c0-0.5,0.3-0.7,0.9-0.7c0.2,0,0.3,0.1,0.5,0.1c0.1,0,0.2,0.1,0.3,0.1C36.1,13.8,36.1,13.8,36.1,13.8z
		 M17.3,5.6c0.1-0.3,0.3-0.4,0.5-0.4c0.6-0.3,1.2-0.4,1.7-0.4c-0.2,0.4-0.6,0.6-1.1,0.7C18,5.5,17.6,5.5,17.3,5.6z M12.9,6
		c-0.9,0.1-1.8,0.2-2.6,0.2c0.1-0.3,0.3-0.5,0.5-0.5C11.7,5.4,12.4,5.5,12.9,6z M12,9.1L12,9.1c0-0.5,0.2-0.7,0.6-0.7
		c1.6-0.6,3-0.5,4.2,0.3c0.1,0.1,0.1,0.1,0.1,0.2c0,0.2,0,0.4-0.1,0.5c-1.6-0.1-3.2-0.1-4.8-0.2C12,9.3,12,9.2,12,9.1z M10.4,11.5
		c-0.2,0.3-0.4,0.5-0.6,0.8c-0.5-0.2-1-0.5-1.5-1c-0.2-0.2-0.1-0.4,0.2-0.6c0.1,0,0.2-0.1,0.3-0.1c0.3,0,0.6,0,0.9,0.1
		c0.2,0.2,0.4,0.4,0.6,0.7C10.3,11.4,10.3,11.4,10.4,11.5z M10.4,6.6c0.8,0,1.6,0,2.5,0C12.3,7.4,11.5,7.4,10.4,6.6z M9.2,8.8
		c-0.7,0-1.3,0-1.9,0l0,0C7.1,8.4,7.1,8,7.1,7.6c0.7-0.1,1.5-0.2,2.2-0.2c0.3,0,0.6,0.1,0.7,0.4V8C10,8.5,9.7,8.8,9.2,8.8z M6.4,10
		c-0.7,0.7-1.5,0.9-2.4,0.5c0.3-0.1,0.7-0.2,1.1-0.1C5.6,10.2,6,10.1,6.4,10z"/>
</g>
</svg>
