<?xml version="1.0" encoding="utf-8"?>
<!-- Generator: Adobe Illustrator 16.0.0, SVG Export Plug-In . SVG Version: 6.00 Build 0)  -->
<!DOCTYPE svg PUBLIC "-//W3C//DTD SVG 1.1//EN" "http://www.w3.org/Graphics/SVG/1.1/DTD/svg11.dtd">
<svg version="1.1" id="Layer_1" xmlns="http://www.w3.org/2000/svg" xmlns:xlink="http://www.w3.org/1999/xlink" x="0px" y="0px"
	 width="102px" height="19px" viewBox="0 0 102 19" enable-background="new 0 0 102 19" xml:space="preserve">
<g>
	<path fill-rule="evenodd" clip-rule="evenodd" fill="#FFFFFF" d="M93,6.7c1.5-0.7,2.7-0.6,3.6,0.4c0,0.1,0,0.1,0,0.1
		c0,0.1,0,0.2,0,0.4c-1.4,0-2.8-0.1-4.3-0.3C92.4,7,92.6,6.7,93,6.7z M91.5,7.3c-1.3-0.2-2.5-0.5-3.8-0.8c0-0.1,0.1-0.1,0.3-0.1
		c1.3-0.1,2.5,0.2,3.5,0.8V7.3z M92.2,12C92.2,12.1,92.2,12.1,92.2,12c0,0.1,0,0.2-0.1,0.2c-0.7,0.1-1.5,0-2.3,0
		c0.2-0.5,0.7-0.7,1.4-0.5v-0.1C91.6,11.5,92,11.7,92.2,12z M99.3,11.3c-0.5,0.9-1,1.4-1.6,1.4c-0.3,0-0.5-0.1-0.5-0.4
		c0-0.1-0.1-0.2-0.1-0.4c0-0.3,0.4-0.7,1.2-1C99,10.5,99.3,10.6,99.3,11.3z M99,10c-2.8,1.4-5.8,1.4-9,0c-0.1,0-0.1-0.1-0.2-0.1
		c0-0.1,0-0.2,0-0.3c0,0,0-0.1,0-0.1c0-0.1,0.1-0.1,0.1-0.1c0,0,0-0.1,0-0.1c0.2-0.1,0.3-0.1,0.5-0.1C93.4,9.2,96.2,9.5,99,10
		C98.9,9.9,99,9.9,99,10z M88.3,5.5c-0.9,0.2-1.8,0.4-2.7,0.4c-0.1,0-0.1,0-0.2,0c0,0,0-0.1,0-0.1c0.5-0.3,1-0.6,1.6-0.8
		C87.5,5.1,87.9,5.3,88.3,5.5C88.3,5.5,88.3,5.5,88.3,5.5z M84.3,9.2c0.1-0.4,0.3-0.7,0.7-0.7c1-0.4,1.7-0.2,2.2,0.5l0,0.1
		c-0.6,1.2-1.6,1.3-2.9,0.3C84.3,9.3,84.3,9.3,84.3,9.2L84.3,9.2z M81.4,8.9c0.3,0.1,0.5,0.2,0.8,0.3v0c-0.1,0-0.2,0.1-0.2,0.2
		c-0.2-0.1-0.3-0.3-0.5-0.4C81.5,9.1,81.4,9,81.4,8.9L81.4,8.9z M88.2,11.4L88.2,11.4c0,0.3,0,0.4-0.1,0.5c-0.8-0.2-1.6-0.4-2.3-0.7
		c0.6-0.1,1.3-0.2,1.8-0.3C87.9,11,88.1,11.1,88.2,11.4z M91.1,12.8c2.1-0.4,3.1-0.3,3.1,0.3c0,0.1-2.1,0.7-6.2,1.8
		c-0.9,0-1.6-0.1-2-0.3c-0.4-0.2-0.6-0.4-0.6-0.7c0-0.4,0.3-0.6,0.8-0.6l1.8,0.3L91.1,12.8z M80.4,5.9c0,0.6-0.2,0.9-0.7,1.1
		c-0.1,0-0.2,0-0.4,0V5.5c0.2,0,0.5,0.1,0.7,0.1c0.1,0,0.2,0,0.3,0.1C80.3,5.8,80.4,5.8,80.4,5.9z M71,4.4V5
		c-0.9-0.1-1.8-0.3-2.7-0.7v0C69.2,4.2,70.1,4.3,71,4.4z M71,5.6c-1.5,0.9-3.1,0.9-4.9,0c0,0,0,0,0-0.1v0c0-0.2,0.1-0.4,0.3-0.5
		c0.1,0,0.3-0.1,0.4-0.1c1.6,0,3,0.2,4.3,0.7V5.6z M71,11.6c2.7-0.7,4.7-0.2,6,1.5l0,0.1c-0.3,0-0.6,0-1,0c-1.7,0-3.4-0.1-5.1-0.1
		c-0.2-0.4-0.4-0.8-0.5-1.1c0-0.1,0.1-0.1,0.1-0.1c0.1-0.1,0.1-0.1,0.2-0.1C70.8,11.7,70.9,11.7,71,11.6L71,11.6z M79.1,9.9
		c0.3,0,0.6,0.1,0.8,0.3c-0.4,0-0.8-0.1-1.2-0.2C78.8,9.9,79,9.9,79.1,9.9z M80.3,11.3c-0.4,0.6-0.9,1-1.5,1.3
		c-0.1-0.1-0.3-0.2-0.4-0.3C78.7,11.6,79.3,11.3,80.3,11.3z M64.1,11.5L64.1,11.5c1.6,0.1,3.2,0.1,4.8,0
		C67.5,12.6,65.9,12.6,64.1,11.5C64.1,11.6,64.1,11.6,64.1,11.5z M64.8,9.2c1.9-0.1,2.9,0.2,2.9,0.8c0,0.3-0.1,0.5-0.3,0.5l-3.6,0.2
		c-1,0-1.5-0.1-1.8-0.3C62,10.4,62,10.2,62,10C62,9.5,63,9.3,64.8,9.2z M69.4,14.6c0.1,0,0.1,0,0.3,0c1.7,0,2.8-0.1,3.4-0.1
		c-0.5-0.1-0.9-0.3-1.2-0.5c0.9,0,1.8,0.1,2.6,0.2c2.2-0.6,3.4-0.9,3.6-1c1-0.1,1.4,0.2,1.4,1c0,0.4-0.3,0.6-0.9,0.6
		c-1.5,0.1-2.9,0.3-4.3,0.7c-0.7,0.2-1.1,0.4-1.3,0.5C72.8,16,71.9,16,70.5,16c0,0,0-0.1,0-0.1c-0.6-0.1-1.2-0.1-1.8-0.2
		c-0.9-0.1-1.5-0.2-1.8-0.3c-0.8,0-1.5-0.3-2-0.8c0,0-0.1-0.1-0.1-0.2c0.2-0.2,0.4-0.4,0.6-0.5c1.4,0,2.7,0,4,0
		C69.5,14.2,69.5,14.4,69.4,14.6z M61.3,14.3C61,14.5,60.6,14.8,60,15c0-0.1,0.1-0.2,0.1-0.3c0.3-0.3,0.7-0.5,1.1-0.5
		C61.2,14.3,61.2,14.3,61.3,14.3z M53.4,9.2H57c-0.1,0-0.2,0.1-0.3,0.1c-0.4,0.1-0.8,0.2-1.2,0.3c0.4,0.1,0.7,0.2,1,0.4
		c1.1,0,1.8,0,2-0.1l0.5-0.2c0.4,0,0.6,0.2,0.6,0.6c0,0.7-0.7,1-2.2,1c-1,0-2-0.2-3-0.6c-0.8-0.3-1.3-0.6-1.3-0.9
		c0-0.2,0.1-0.4,0.3-0.5C53.5,9.3,53.4,9.2,53.4,9.2z M52.5,10.3c0,0.4-0.2,0.7-0.6,0.7h-3.8c0.2,0,0.3,0.1,0.5,0.2
		c0.1,0.5,0.1,1,0,1.3c-1.8,0.1-3.7-0.2-5.7-0.9v-0.1c0-0.1,0-0.2,0-0.2c0-0.2,0.1-0.3,0.3-0.4c0.1,0,0.2,0,0.3,0c0.1,0,0.2,0,0.3,0
		c-0.9-0.1-1.2-0.5-1.1-1c0-0.5,0.3-0.7,1-0.7C46,9.6,47.5,9.7,48,9.7L52,9.8c0.2,0,0.3,0.1,0.5,0.3C52.5,10.2,52.5,10.3,52.5,10.3z
		 M59.3,12C59.3,12.1,59.3,12.1,59.3,12c-0.4,0.4-0.8,0.6-1.3,0.8c-0.1,0-0.3,0-0.4,0c-0.1,0-0.2,0-0.3,0c-0.3-0.6-0.4-1.1-0.4-1.4
		C57.7,11.5,58.5,11.8,59.3,12z M44,4.1v1.1c-2.5,0.8-5.2,0.8-8.1,0c0-0.3,0.1-0.4,0.3-0.4c2.6-0.1,5.2-0.4,7.7-0.8
		C43.9,4.1,43.9,4.1,44,4.1z M40.8,11.8c-1.2,1.3-2.6,1.5-4.2,0.6c0.7-0.7,1.8-1.1,3.1-1.1C40.2,11.2,40.5,11.4,40.8,11.8
		C40.8,11.8,40.8,11.8,40.8,11.8z M42.4,13.8c-1,0-2.1-0.1-3.1-0.2c0.9-0.1,1.8-0.3,2.5-0.7c0.3,0,0.5,0.2,0.6,0.5l0.1,0
		C42.4,13.6,42.4,13.7,42.4,13.8z M47.4,15.5c0-0.3,0.3-0.5,0.8-0.5c1.1,0.1,2.2,0,3.2-0.2l4.5-0.1c1-0.1,1.5,0.1,1.5,0.6
		c0,0.5-0.8,0.8-2.3,0.8l-6.3,0.3C47.6,16.3,47.1,16.1,47.4,15.5z M36.3,3.6c-0.7,1.1-1.3,1.2-1.8,0.1c-0.1-0.2-0.1-0.3-0.1-0.4
		c0.6,0,1.3,0.1,1.9,0.1C36.3,3.5,36.3,3.6,36.3,3.6z M32.8,4.6C32,5.9,31,6,29.5,4.9c0,0,0-0.1,0-0.1v0c0.1-0.4,0.3-0.6,0.6-0.6
		C31.2,3.6,32.1,3.8,32.8,4.6C32.8,4.5,32.8,4.6,32.8,4.6z M34.7,12.2c-0.2,0.2-0.5,0.4-0.8,0.5c-0.8-0.2-1.5-0.5-2.3-0.7
		c-0.3-0.1-0.4-0.3-0.5-0.6c0-0.1,0-0.2,0.1-0.3C32.4,11.3,33.5,11.7,34.7,12.2L34.7,12.2z M32.7,9.3c-1.7,0-3.3,0-5-0.1
		c-0.2,0-0.3-0.1-0.4-0.4v0c0-0.1,0-0.2,0.1-0.3c1.8,0.2,3.6,0.5,5.4,0.8C32.8,9.3,32.8,9.3,32.7,9.3z M27.1,5.3
		c-0.4,1-1.1,1-1.9,0.3c0,0,0,0,0,0c0-0.1,0-0.1,0-0.2c0.1-0.3,0.3-0.5,0.5-0.5c0.6-0.2,1,0,1.3,0.4C27.1,5.2,27.1,5.2,27.1,5.3z
		 M21.1,5.6L21.1,5.6c0,0.5-0.2,0.8-0.5,1c-0.4,0.1-0.8,0.2-1.1,0.3c0-0.1-0.1-0.2-0.1-0.2c0,0,0-0.1,0-0.2c0.1-0.8,0.5-1.3,1.2-1.3
		c0,0,0.1,0,0.1,0C20.9,5.4,21,5.5,21.1,5.6z M25.1,8.8c0,0.4-0.2,0.7-0.6,0.9c-1.5,0.5-2.9,0.4-4-0.4C20.4,9.1,20.4,9,20.4,9
		c0,0,0-0.1,0-0.1c0.1-0.4,0.3-0.6,0.6-0.6C21.3,8.1,21.5,8,21.9,8c0.8-0.2,1.6-0.1,2.3,0.1c0.3,0.1,0.6,0.2,0.8,0.4
		C25,8.6,25,8.6,25.1,8.8z M28,14c1.2-0.2,2.3-0.4,3.5-0.7c0,0,0.1,0,0.1,0c0.5,0.1,0.9,0.3,1.4,0.4c0,0,0,0,0,0.1l0.1,0
		c-0.3,0.2-0.6,0.4-0.9,0.6h2.3c-0.1,0-0.2-0.1-0.2-0.2c0.3,0.1,0.6,0.2,0.9,0.3c0.6,0.1,1,0.1,1.1,0.2c0.3,0.1,0.4,0.3,0.4,0.6
		c0,0.1,0,0.2-0.1,0.4c-0.1,0.2-0.3,0.3-0.5,0.3l-1.4-0.3H30c-0.6-0.1-0.9-0.4-0.9-0.8c0-0.1,0-0.2,0.1-0.3
		c-0.5-0.1-0.9-0.3-1.4-0.5C27.6,14,27.7,14,28,14z M23.7,13.7c0.4,0.1,0.5,0.3,0.5,0.6c0,0.4-0.3,0.7-0.8,0.7
		c-0.3,0-0.8-0.1-1.5-0.4h-3.6c-0.9-0.2-2.1-0.5-3.6-1c-1,0-1.8,0.1-2.3,0.3c-0.5,0.2-0.9,0.3-1.2,0.3c-1.3,0-1.9-0.4-1.9-1.3
		c0-0.2,0-0.4,0.1-0.5c-0.5-0.3-0.9-0.6-1.4-1c-0.1-0.1-0.1-0.2-0.1-0.3c0.7,0.2,1.2,0.5,1.7,1c0.1,0,0.1,0,0.2,0
		c0.4-0.1,0.7,0.1,0.9,0.8h0.8c0.7-0.4,1.6-0.5,2.7-0.5c0.7,0,1.4,0.1,2.3,0.4c0.8,0.3,1.3,0.5,1.6,0.6h2.4
		c-0.1-0.1-0.3-0.2-0.4-0.3c0-0.2,0-0.4,0-0.5c0.2-0.4,0.4-0.7,0.8-0.8c1.3,0.4,2.6,0.9,3.8,1.5c0,0,0.1,0,0.1,0
		c-0.6,0.2-1.3,0.3-2,0.3C23.5,13.6,23.6,13.6,23.7,13.7z M17.8,5.2c0.6-0.3,1.2-0.4,1.7-0.4c0,0,0.1,0.1,0.1,0.1
		c0,0.1,0.1,0.1,0.1,0.2c0,0.9-0.5,1.4-1.3,1.4c-0.1,0-0.3,0-0.4,0.1c-0.3-0.1-0.5-0.3-0.8-0.6c0,0,0-0.1,0-0.1v0
		C17.2,5.4,17.4,5.2,17.8,5.2z M13,6.3c-0.3,0.5-0.6,0.9-0.9,1c-0.1,0-0.3,0-0.4,0c-0.4-0.1-0.9-0.3-1.5-0.7c0-0.1,0-0.1,0-0.1v0
		c0.1-0.4,0.3-0.6,0.6-0.6C11.8,5.3,12.5,5.5,13,6.3C13,6.2,13,6.2,13,6.3z M12,9.1c0-0.4,0.2-0.6,0.6-0.6c1.6-0.6,3-0.5,4.2,0.3
		c0.1,0.1,0.1,0.1,0.1,0.2c0,0.4-0.2,0.7-0.6,0.9c-1.6,0.5-3,0.4-4.1-0.5C12,9.3,12,9.3,12,9.1L12,9.1z M10,8c0,0.5-0.3,0.8-0.8,0.8
		c-0.7,0-1.4,0-2.1,0c0-0.1,0-0.1,0.1-0.3c0-0.1,0.1-0.1,0.1-0.2C7.6,8,8,7.8,8.4,7.8c0.6,0,1.1,0,1.6,0c0,0,0.1,0.1,0.1,0.1V8z"/>
</g>
</svg>
