<?xml version="1.0" encoding="utf-8"?>
<!-- Generator: Adobe Illustrator 16.0.0, SVG Export Plug-In . SVG Version: 6.00 Build 0)  -->
<!DOCTYPE svg PUBLIC "-//W3C//DTD SVG 1.1//EN" "http://www.w3.org/Graphics/SVG/1.1/DTD/svg11.dtd">
<svg version="1.1" id="Layer_1" xmlns="http://www.w3.org/2000/svg" xmlns:xlink="http://www.w3.org/1999/xlink" x="0px" y="0px"
	 width="102px" height="19px" viewBox="0 0 102 19" enable-background="new 0 0 102 19" xml:space="preserve">
<g>
	<path fill-rule="evenodd" clip-rule="evenodd" fill="#FFFFFF" d="M92.3,7.5c0,0,0-0.1,0-0.1C92.4,7,92.6,6.7,93,6.7
		c0.1,0,0.2-0.1,0.3-0.1c0.7-0.3,1.3-0.4,1.8-0.3c0.6,0.1,1.1,0.3,1.5,0.8c0,0.1,0,0.1,0,0.1c0,0.4-0.2,0.7-0.6,0.9
		c-1.4,0.4-2.5,0.3-3.5-0.4C92.4,7.6,92.3,7.5,92.3,7.5z M91.5,7.3c-1.6,1.5-2.9,1.3-3.8-0.6c1,0.1,1.9,0.1,2.9,0.1
		c0.3,0.1,0.6,0.2,0.9,0.4C91.5,7.2,91.5,7.3,91.5,7.3z M91.2,11.6c0.4-0.1,0.8,0.1,1,0.5c0,0,0,0,0,0c-0.6,1.1-1.4,1.2-2.5,0.5
		c0,0,0-0.1,0-0.1C89.9,11.8,90.4,11.5,91.2,11.6L91.2,11.6z M99.8,7.8c0.4,0.3,0.7,0.6,0.9,0.9c-0.4-0.1-0.9-0.2-1.3-0.4
		c0,0-0.1,0-0.1-0.1C99.5,8,99.7,7.9,99.8,7.8z M84.3,9.2c0.1-0.4,0.3-0.7,0.7-0.7c1-0.4,1.7-0.2,2.2,0.5l0,0.1
		c-0.6,1.2-1.6,1.3-2.9,0.3C84.3,9.3,84.3,9.3,84.3,9.2L84.3,9.2z M82.2,11.8C82.1,11.9,82.1,12,82,12c-0.6-0.2-1.1-0.4-1.5-0.8
		c0.3,0,0.6,0,1,0.1C81.8,11.3,82,11.5,82.2,11.8L82.2,11.8z M82.9,12.1c-0.1-0.6,0.1-0.8,0.6-0.8c1.5,0.1,2.8,0,4-0.3
		c0,0,0.1,0,0.1,0c-0.2,0.1-0.4,0.2-0.5,0.3c0.3,0,0.6,0,0.9,0c0,0,0.1,0.1,0.1,0.2v0c0,0.5-0.3,0.8-0.8,1c-0.6,0.2-1.1,0.3-1.5,0.3
		c0,0-0.1,0-0.1,0c0-0.1,0-0.2,0.1-0.2c0.1-0.4,0.2-0.7,0.4-0.9c-0.5,0.1-1.1,0.3-1.7,0.4C84,12.1,83.5,12.2,82.9,12.1
		C83,12.1,82.9,12.1,82.9,12.1z M86.2,14.8c-0.5,0-0.8-0.1-0.9-0.3l0-0.3c0-0.4,0.7-0.7,2.1-1c1.4-0.3,2.1-0.3,2.1,0.3
		c0,0.2-0.3,0.5-0.8,0.8C88,14.7,87.2,14.8,86.2,14.8z M93.1,13c3.1-2.1,4.7-2.5,4.7-1.3c0,0.4-0.4,0.8-1.3,1.3
		c-0.9,0.4-1.7,0.6-2.4,0.6c-0.5,0-0.8-0.1-1-0.2C93.1,13.3,93.1,13.2,93.1,13z M71,4.9V5c-0.2,0-0.5,0-0.7-0.1
		C70.5,4.9,70.8,4.9,71,4.9z M79.3,5.6L79.3,5.6L79.3,5.6L79.3,5.6z M71,5.6c-1.5,0.9-3.1,0.9-4.9,0c0,0,0,0,0-0.1v0
		c0-0.2,0.1-0.4,0.3-0.5h0.1c0.7,0,1.4,0,2.1,0c0.9,0.1,1.7,0.3,2.5,0.6V5.6z M71,9.2h2.5c-1.3,1-2.9,1.1-4.6,0.1c0,0,0-0.1,0-0.1
		C69.1,8.3,69.9,8,71,8.4V9.2z M77.3,9.2h2.1V8.5c0.7,0.1,1.4,0.2,2.1,0.4C80.7,9.3,79.8,9.7,79,10C78.4,9.9,77.8,9.6,77.3,9.2z
		 M65.5,9.2c-0.2,0.4-0.5,0.6-0.9,0.6c-0.2,0-0.4,0-0.6,0C64,9.9,63.9,10,63.8,10l-3.6-0.3c-0.1,0-0.3-0.1-0.4-0.2
		c0.2-0.3,0.5-0.4,1-0.5c0.4,0,1.4,0.1,3,0.2H65.5z M65.7,9.5c0.3-0.4,0.6-0.5,0.9-0.4c0.2-0.1,0.5,0.1,0.7,0.6
		C67.2,9.9,67.1,10,67,10c-0.2,0-0.3,0-0.3-0.1L66.6,10c-0.3-0.1-0.6-0.1-0.8,0.2c-0.3,0.4-0.5,0.7-0.6,0.7H64
		c-0.2,0-0.4-0.2-0.5-0.4c-0.1-0.2-0.1-0.3,0-0.4c0.1,0,0.2,0,0.3-0.2c0,0,0.2,0.1,0.3,0.2h1C65.2,10.2,65.4,9.9,65.7,9.5z
		 M69.3,14.8c-1.4,0-2.9,0-4.3-0.1c0,0,0,0,0,0c0,0-0.1-0.1-0.1-0.2c0.8-1,2.2-1.3,4-1.1c0.3,0,0.5,0.1,0.6,0.3c0,0,0,0,0,0.1
		C69.5,14.2,69.5,14.5,69.3,14.8z M70,15.2c0-0.4,0.8-0.7,2.5-0.8c0.1,0,0.2,0,0.3,0c-0.9-0.2-1.6-0.8-2.1-1.7c2,0,4,0.1,6,0.1
		c0.1,0.1,0.2,0.2,0.3,0.3c0.2,0.2,0.1,0.4-0.3,0.6c-1,0.5-1.8,0.8-2.6,0.8c0.3,0,0.5,0.1,0.6,0.2c0.4,0,1.3,0,2.5,0
		c0.1,0,0.2,0,0.5-0.1c-0.2-0.1-0.5-0.4-0.7-0.9c0,0,0-0.1,0-0.2c0.1-0.1,0.2-0.2,0.3-0.3c0.1,0,0.2-0.1,0.3-0.1
		c0.6,0,1,0.2,1.3,0.6l0,0c-0.2,0.3-0.3,0.5-0.5,0.7c0.5-0.1,1.3-0.3,2.2-0.5c1.5-0.3,2.3-0.2,2.3,0.3c0,0.3-0.8,0.6-2.3,1
		c-1.6,0.4-3,0.7-4.4,0.7c-0.9,0-1.6-0.1-1.9-0.3c-0.6,0.2-1.7,0.3-3.2,0.3c-0.6,0-1-0.1-1.2-0.4C70,15.4,70,15.2,70,15.2z
		 M63.3,15.5c0,0.2-0.1,0.4-0.3,0.6c-0.3,0.3-0.8,0.4-1.5,0.4c-0.9,0-1.5-0.1-1.8-0.2c-0.2-0.1-0.3-0.3-0.3-0.6
		c0-0.5,0.1-0.7,0.4-0.7c1.1,0.2,1.7,0.3,1.7,0.3c0.2,0,0.5-0.1,1.1-0.3C63.1,15,63.3,15.1,63.3,15.5z M54.2,9.7
		c0.4,0.2,1,0.3,1.9,0.3c0.9,0,1.5-0.1,1.8-0.3c0.6-0.3,1-0.5,1.2-0.6l0.3,0.4c0,0.3-0.5,0.6-1.4,0.8c-0.7,0.2-1.4,0.3-2,0.3
		c-0.9,0-1.6-0.1-2.1-0.3c-0.4-0.3-0.8-0.4-1.2-0.5l-3.9-0.1c-0.1,0-0.5-0.1-1.1-0.1c-0.7,0-1.2,0.1-1.6,0.4
		c-0.3,0.3-0.7,0.5-1.2,0.5c-0.4,0-0.8-0.1-1-0.3c-0.3-0.3-0.5-0.4-0.6-0.5V9.5l0.3-0.1c0.3,0,0.6,0.2,0.8,0.5h0.8
		c0.2-0.1,0.4-0.3,0.8-0.6C46.2,9.1,46.7,9,47.7,9c0.7,0,1.1,0,1.1,0.1h3.9C53,9.2,53.5,9.4,54.2,9.7z M54,11.5
		c0.7-0.1,1.3-0.1,2-0.1c-0.7,0.4-1.5,0.6-2.5,0.6C53.5,11.6,53.7,11.5,54,11.5z M56.8,9.3c-1.3,0.4-2.4,0.4-3.3-0.1H57
		C56.9,9.2,56.8,9.3,56.8,9.3z M44,4.1v1.1c-2.5,0.8-5.2,0.8-8.1,0c0-0.3,0.1-0.4,0.3-0.4c2.6-0.1,5.2-0.4,7.7-0.8
		C43.9,4.1,43.9,4.1,44,4.1z M43.4,11c0.1,0,0.2,0,0.3,0c2.3-0.4,4.4-0.2,6.1,0.7c-2.2-0.2-4.4-0.3-6.6-0.4
		C43.2,11.1,43.3,11,43.4,11z M47.7,13.6c2,0,4,0.1,5.9,0.2c0.2,0,0.3,0.2,0.4,0.4c0,0.2,0,0.4-0.2,0.5c-2.3,0-4.6,0-6.9,0
		c-0.1-0.1-0.2-0.2-0.2-0.3c0,0,0-0.1,0-0.1c0.1-0.4,0.3-0.6,0.6-0.7C47.4,13.6,47.5,13.6,47.7,13.6L47.7,13.6z M48.8,16
		c0-0.5,0.8-0.7,2.5-0.6c1.6,0.1,2.4,0.3,2.4,0.8c0,0.2-0.1,0.4-0.3,0.6c-1,0.9-1.8,1-2.5,0c-1,0-1.6-0.1-1.8-0.2
		C48.8,16.5,48.8,16.3,48.8,16z M42,14.6c-0.8,0-1.6,0-2.4,0c0.1,0.1,0.1,0.2,0.1,0.4c0,0.1-0.1,0.3-0.2,0.6
		c0.1,0.2,0.2,0.5,0.2,0.9c0,0.5-0.2,0.7-0.6,0.7c-0.2,0-0.3,0-0.5,0c-0.1,0.1-0.3,0.2-0.4,0.2c-0.8,0-1.3-0.3-1.6-0.9
		c-0.1-0.3-0.3-0.7-0.5-1.3v-0.5c0-0.1,0.1-0.1,0.3-0.1c0,0,0.1,0.1,0.2,0.2c0.1,0.1,0.1,0.2,0.1,0.3c0.2-0.2,0.5-0.4,0.7-0.5
		c-1-0.1-2-0.1-3-0.1c-0.1,0-0.1-0.1-0.2-0.3c0-0.5,0.3-0.7,0.9-0.7c2.4,0.5,4.6,0.3,6.6-0.5c0.3,0,0.5,0.2,0.6,0.5l0.1,0
		c-0.1,0.5-0.4,0.8-0.8,1C41.8,14.5,41.9,14.6,42,14.6z M58.9,13.9c0,0,0-0.1,0-0.2c0-0.1,0-0.1,0-0.2c0.2-0.2,0.5-0.3,0.8-0.4
		c0.2,0,0.3-0.1,0.5-0.1c1.4,0.5,1.6,1,0.6,1.6c-0.4,0-0.8-0.1-1.3-0.1C59.2,14.6,59,14.3,58.9,13.9z M55.3,12.7
		c0.3,0,0.5,0.1,0.7,0.4c-0.6,0-1.2-0.2-1.8-0.4C54.6,12.7,55,12.7,55.3,12.7z M32.8,4.6c-0.3,0.5-0.6,0.8-0.9,0.9
		c-0.1,0-0.1,0-0.2,0c-0.3-0.1-0.4-0.3-0.5-0.6c0-0.1,0-0.2,0.1-0.4c0-0.1,0-0.1,0-0.2c-0.5,0-1,0-1.5,0c0.1-0.2,0.2-0.3,0.4-0.3
		C31.2,3.6,32.1,3.8,32.8,4.6C32.8,4.5,32.8,4.6,32.8,4.6z M34.4,3.5c0.6,0,1.3,0,1.9,0.1c-0.7,1.1-1.3,1.2-1.8,0.1
		C34.4,3.7,34.4,3.6,34.4,3.5z M32.7,9.3c-1.7,0-3.3,0-5-0.1c-0.2,0-0.3-0.1-0.4-0.4v0c0.1-0.4,0.3-0.6,0.6-0.6
		c1.8-0.6,3.5-0.6,5.1,0.3c0.1,0,0.2,0.1,0.3,0.3C33.3,9,33.1,9.3,32.7,9.3z M34.6,12.3c-0.6,0.5-1.4,0.8-2.1,0.8
		c0.2-0.5,0.5-0.8,1.1-0.8C33.9,12.3,34.3,12.3,34.6,12.3z M36,8.3c0,0.1,0.1,0.1,0.1,0.1c-0.1,0.1-0.3,0.1-0.5,0.2
		C35.7,8.4,35.8,8.3,36,8.3C36,8.3,36,8.3,36,8.3z M35.9,9c1.5,0.2,3,0.4,4.4,0.5c-0.1,0-0.2,0.1-0.3,0.1c-1.7,0.5-3.1,0.4-4.3-0.5
		l0-0.1C35.7,9,35.8,9,35.9,9z M40.3,12.3c-1.1,0.8-2.3,0.9-3.7,0.1c0,0,0.1-0.1,0.1-0.1C37.9,12.3,39.1,12.3,40.3,12.3z M20.8,5.3
		c0.1,0.1,0.2,0.2,0.4,0.4l0.1,0.1c0,0.4-0.2,0.7-0.6,0.9c-0.1,0-0.2-0.1-0.3-0.2c0-0.2,0-0.4,0-0.5C20.5,5.6,20.6,5.4,20.8,5.3z
		 M25.2,5.4c0.6,0.1,1.1,0.2,1.8,0.3c-0.4,0.6-1,0.6-1.7-0.1c0,0,0,0,0,0V5.4z M22.8,7.9c0.8,0,1.5,0.2,2.2,0.7c0,0,0.1,0.1,0.1,0.2
		c0,0.4-0.2,0.7-0.6,0.9c-1.5,0.5-2.9,0.4-4-0.4C20.4,9.1,20.4,9,20.4,9c0,0,0-0.1,0-0.1c0-0.2,0.1-0.3,0.2-0.4
		c1.3,0,2.7,0.1,4.1,0.1C24,8.4,23.4,8.1,22.8,7.9z M26.4,11.4c0.1-0.1,0.2-0.2,0.3-0.3c0.1,0,0.2-0.1,0.3-0.1
		c1.3-0.1,2.6-0.1,3.9,0c-0.2,0.2-0.5,0.3-0.9,0.3C28.8,11.4,27.5,11.4,26.4,11.4z M28.1,14.2C28.1,14.2,28.1,14.2,28.1,14.2
		c-0.1,0.1-0.2,0-0.3,0C27.6,14,27.7,14,28,14c0,0,0.1,0,0.1,0C28.1,14,28.1,14,28.1,14.2z M24.9,13.3c-0.1,0.1-0.3,0.1-0.4,0.1
		c0,0.1,0,0.3,0,0.5c0,0.4-0.3,0.6-0.9,0.6l-1-0.3v-0.8h0.9c0.1,0,0.2-0.1,0.3-0.1c-0.9,0.1-1.9,0-2.9-0.2c0.5,0.2,1,0.5,1.6,0.8
		c0,0.1,0,0.3-0.1,0.4c-0.1,0.2-0.4,0.3-0.7,0.3c-0.6,0-1.3-0.2-2.2-0.5c-0.8-0.4-1.3-0.6-1.3-0.8c0-0.8,0.8-0.9,2.3-0.3
		c1.2,0,2.4,0.1,3.6,0.1v0c0.1,0,0.3,0,0.4,0C24.6,13.3,24.7,13.3,24.9,13.3z M32.4,13.5c0-0.1,0-0.2,0.1-0.3
		c0.2,0.1,0.4,0.3,0.6,0.5l0.1,0c-0.2,0.1-0.3,0.2-0.5,0.4c-0.1-0.1-0.2-0.3-0.2-0.5C32.4,13.6,32.4,13.6,32.4,13.5z M10.4,6
		c0,0.1-0.1,0.1-0.1,0.2C10.3,6.1,10.3,6,10.4,6L10.4,6z M12,9.1L12,9.1c0-0.5,0.2-0.7,0.6-0.7c0.2-0.1,0.4-0.1,0.6-0.2
		C14.1,8,15,8,15.9,8.4c0.3,0.1,0.5,0.2,0.9,0.4c0.1,0.1,0.1,0.1,0.1,0.2c0,0.4-0.2,0.7-0.6,0.9c-1.6,0.5-3,0.4-4.1-0.5
		C12,9.3,12,9.3,12,9.1z M10.5,10.8c0.8,0.1,1.5,0.3,2.1,0.4c-0.5,0-1-0.1-1.5-0.1C10.9,11.1,10.6,11,10.5,10.8z M10.6,12.3
		c-0.1,0.2-0.3,0.3-0.4,0.3v0l5,0.1c0.3-0.1,0.6-0.1,0.8,0c0.3,0,0.5,0.2,0.6,0.5c0,0,0,0.1,0,0.2c0,0.1-0.1,0.1-0.3,0.1l-1-0.2
		l-4.8,0c-0.5-0.1-0.8-0.3-1-0.5c-0.1,0-0.1-0.1-0.1-0.3C8.7,12.4,7.9,12.3,7,12c-1.2-0.4-1.8-0.8-1.8-1c0-0.6,0.9-0.7,2.8-0.3
		c1.9,0.4,2.8,0.8,2.8,1.1C10.8,12,10.8,12.1,10.6,12.3z M16.7,10.8c1.2,0.1,2.4,0.3,3.5,0.5c-1.4,0-2.8,0-4.3,0
		C16.2,11,16.4,10.8,16.7,10.8z M8.8,7.5C7.6,8.2,6.2,8.3,4.6,7.8C6.1,7.7,7.5,7.6,8.8,7.5z M9.2,8.8c-0.3,0-0.6,0-0.9,0
		c0.2-0.4,0.6-0.6,1.1-0.6c0.2,0,0.5,0,0.7,0C9.9,8.6,9.6,8.8,9.2,8.8z"/>
</g>
</svg>
