<?xml version="1.0" encoding="utf-8"?>
<!-- Generator: Adobe Illustrator 16.0.0, SVG Export Plug-In . SVG Version: 6.00 Build 0)  -->
<!DOCTYPE svg PUBLIC "-//W3C//DTD SVG 1.1//EN" "http://www.w3.org/Graphics/SVG/1.1/DTD/svg11.dtd">
<svg version="1.1" id="Layer_1" xmlns="http://www.w3.org/2000/svg" xmlns:xlink="http://www.w3.org/1999/xlink" x="0px" y="0px"
	 width="102px" height="19px" viewBox="0 0 102 19" enable-background="new 0 0 102 19" xml:space="preserve">
<g>
	<path fill-rule="evenodd" clip-rule="evenodd" fill="#FFFFFF" d="M91.5,7.3C91,7.7,90.6,8,90.2,8.1c-0.1,0-0.2,0-0.3,0
		c-0.5,0.1-1,0-1.4-0.4c-0.3-0.3-0.5-0.6-0.8-1.1c-0.1-0.2,0-0.3,0.3-0.3c0.7,0,1.3,0,1.9,0.2c0.6,0.1,1.1,0.3,1.6,0.6
		C91.5,7.2,91.5,7.3,91.5,7.3z M92.3,7.4C92.4,7,92.6,6.7,93,6.7c1.5-0.7,2.7-0.6,3.6,0.4c0,0.1,0,0.1,0,0.1c0,0.4-0.2,0.7-0.6,0.9
		c-1.4,0.4-2.5,0.3-3.5-0.4c-0.1-0.1-0.1-0.2-0.2-0.3C92.3,7.4,92.3,7.4,92.3,7.4z M91.2,11.6c0.4-0.1,0.8,0.1,1,0.5c0,0,0,0,0,0
		c-0.1,0.3-0.3,0.5-0.5,0.7c0,0.1,0,0.1,0,0.2c0,0.2-0.6,0.5-2,0.9c-0.2,0-0.4,0.1-0.6,0.1c-1.6,0.4-2.8,0.6-3.3,0.6
		c-0.7,0-1.2-0.1-1.4-0.3c-0.1,0-0.1-0.2-0.1-0.3c2.3-0.7,4.1-1.2,5.3-1.4c0,0,0,0,0,0c0-0.2,0.1-0.3,0.1-0.4
		C90.1,11.7,90.6,11.5,91.2,11.6L91.2,11.6z M97.7,10.5c0.4-0.1,0.5,0.1,0.5,0.5c0,0.3-0.5,0.7-1.5,1.3c-1,0.6-1.8,1-2.2,1
		c-0.3,0-0.5-0.1-0.7-0.3l-0.1-0.4c1.4-0.9,2.4-1.5,3.1-1.8C94.7,11.2,92.4,11,90,10c0,0-0.1,0-0.1,0c0,0,0-0.1,0-0.1
		c0-0.1,0-0.2,0-0.3c2.7,0.4,5.4,0.6,8,0.8C97.7,10.5,97.7,10.5,97.7,10.5z M99.7,7.6c0.3,0.3,0.5,0.5,0.8,0.8
		c-0.4,0.1-0.8,0.1-1.2,0.1c0,0,0-0.1,0-0.1C99.1,7.9,99.3,7.6,99.7,7.6z M88.3,5.5c-0.2,0-0.3,0.1-0.4,0.1
		C88,5.6,88.2,5.5,88.3,5.5L88.3,5.5z M84.3,9.2c0-0.1,0.1-0.2,0.1-0.3c0.9,0.1,1.8,0.3,2.7,0.4c-0.6,1-1.5,1.1-2.8,0.1
		C84.3,9.3,84.3,9.3,84.3,9.2L84.3,9.2z M82.2,9.2L82.2,9.2c-0.3,0.3-0.5,0.4-0.8,0.5c0-0.1,0-0.1,0-0.2c0.1-0.2,0.2-0.4,0.3-0.5
		C81.9,9.1,82,9.1,82.2,9.2z M83.5,11.3c1.5,0.1,2.8,0,4-0.3c0.3,0,0.5,0.1,0.6,0.5v0c0,0.5-0.3,0.8-0.8,1c-0.3,0.1-0.6,0.1-0.9,0.3
		c-1.1-0.4-2.1-0.8-3.2-1.4C83.4,11.3,83.5,11.3,83.5,11.3z M71,5.6c-1.5,0.9-3.1,0.9-4.9,0c0,0,0,0,0-0.1v0c0-0.1,0-0.2,0-0.2
		c1.5,0,2.9,0,4.4,0.1c0.2,0.1,0.3,0.1,0.5,0.2V5.6z M79.3,7V6.6c0.3,0,0.7,0.1,1,0.1c0,0.1,0.1,0.1,0.1,0.2C80.1,7,79.7,7,79.3,7z
		 M71,8.4v0.8h1.5c-1.2,0.1-2.5,0.1-3.7,0C69.1,8.3,69.9,8,71,8.4z M80.3,11.8c0,0.1,0.1,0.2,0.1,0.2c-0.2,0.4-0.5,0.7-0.8,1
		c-0.4-0.1-0.9-0.4-1.3-0.7c0.3-0.6,0.9-1,1.6-1.1C80.1,11.4,80.2,11.6,80.3,11.8z M63.6,10.7c-0.4,0-0.6-0.1-0.7-0.3L62.8,10
		c2.5-1.7,3.8-2,3.8-0.9C65.6,10.2,64.6,10.7,63.6,10.7z M69,15c-0.2,0.1-0.3,0.2-0.5,0.2c1,0.2,1.7,0.3,2.1,0.3
		c0.3,0,1.7-0.4,4.3-1.3c-0.9,0-1.8,0-2.7,0c-0.7-0.3-1.2-0.9-1.5-1.7c1.6-0.1,3.2-0.3,4.8-0.7c0.6,0.3,1.1,0.7,1.5,1.3
		c0.2,0.2,0.1,0.4-0.3,0.6c-0.1,0-0.1,0.1-0.2,0.1c0.2-0.1,0.3-0.1,0.5-0.1c0,0,0-0.1,0-0.2c0.1-0.1,0.2-0.2,0.3-0.3
		c0.1,0,0.2-0.1,0.3-0.1c0.5,0,0.9,0.1,1.2,0.5c-0.3,0.2-0.6,0.3-1,0.4c0.1,0.1,0.1,0.2,0.1,0.4c0,0.4-0.4,0.7-1.2,0.8
		c-1,0.1-1.8,0.2-2.4,0.3c-1.4,0.9-2.6,1.3-3.6,1.3c-0.3,0-1.2-0.1-2.7-0.4c-1.5-0.3-2.5-0.5-3.2-0.5c-0.3,0-0.5-0.1-0.5-0.3l0-0.4
		c0-0.5,0.3-0.8,1-0.8c0.4,0,1.2,0.2,2.5,0.5C68.2,15,68.6,15,69,15z M69.4,13.7C69.4,13.7,69.5,13.7,69.4,13.7
		c0.1,0.2,0.1,0.3,0.1,0.5c-1.4,0-2.8,0-4.2,0c0.8-0.7,2-0.9,3.5-0.7C69.1,13.5,69.3,13.5,69.4,13.7z M54,11.5
		c0.4-0.1,0.7-0.1,1.1-0.1c-0.5,0.2-1,0.3-1.5,0.3C53.7,11.5,53.8,11.5,54,11.5z M53.4,9.2H57c-0.1,0-0.2,0.1-0.3,0.1
		c-0.4,0.1-0.7,0.2-1,0.3h2.6c0.3-0.1,0.6-0.1,0.8,0.1c0.2,0.2,0.3,0.3,0.3,0.5c0,0.4-0.4,0.6-1.1,0.8h-2.8
		c-0.4-0.1-0.7-0.3-0.8-0.5c0-0.1-0.1-0.3-0.1-0.5c0-0.2,0-0.3,0.1-0.4C54.2,9.6,53.8,9.4,53.4,9.2z M51.2,11.7
		c-0.5,0-1.1-0.1-1.7-0.4c-0.3-0.2-0.7-0.3-1.1-0.5h-1.3C46.9,11,46.6,11,46,11c-1.4,0-2.2-0.4-2.5-1.3c0-0.9,0.7-0.9,2,0
		c0.6,0,1-0.1,1.1-0.2c0.1-0.1,0.5-0.1,1-0.1c1.5,0,2.9,0.5,4.2,1.5C51.8,11.4,51.6,11.7,51.2,11.7z M59.3,12
		C59.3,12.1,59.3,12.1,59.3,12c-0.7,0.6-1.5,0.9-2.3,1c-0.3-1,0.2-1.4,1.6-1.1C58.8,12,59.1,12,59.3,12z M44,5.3
		c-2.5,0.8-5.2,0.8-8.1,0c0-0.3,0.1-0.4,0.3-0.4c0.7,0,1.5-0.1,2.3-0.1C40.3,4.9,42.1,5,44,5.1V5.3z M43.3,8.2
		c0.1-0.4,0.3-0.6,0.6-0.6c0,0,0.1,0,0.1,0v0.6C43.7,8.2,43.5,8.2,43.3,8.2z M40.8,11.8c-1.2,1.3-2.6,1.5-4.2,0.6
		c0.6-0.6,1.5-1,2.5-1.1c0.4,0,0.8,0,1.3,0.1C40.5,11.5,40.6,11.6,40.8,11.8C40.8,11.8,40.8,11.8,40.8,11.8z M43,11.5
		c1.7,0,3.4,0.1,5.1,0.1c0.1,0,0.2,0,0.3,0.1c0.1,0.3,0.2,0.6,0.3,0.8c-1.8,0.1-3.8-0.2-5.8-0.9v-0.1C43,11.5,43,11.5,43,11.5z
		 M49.5,15.5c0.6,0.2,1.1,0.3,1.7,0.3c0.7,0,2.7-0.3,6.2-0.8c2.4-0.4,3.6-0.4,3.6,0.2c0,0.4-0.3,0.6-0.9,0.6
		c-1.2,0.1-2.1,0.2-2.9,0.5c-0.5,0.2-1.7,0.4-3.4,0.6c-1.5,0.2-2.4,0.3-2.6,0.3c-1.4,0-2.6-0.4-3.6-1.3c0-0.1,0.1-0.2,0.1-0.3
		c0.2-0.2,0.4-0.3,0.7-0.3C48.6,15.2,48.9,15.3,49.5,15.5z M47.3,13.6c0.1,0,0.2,0,0.4,0h0.1c0.4,0,0.7,0,1,0.1
		c-0.2,0.6-0.8,0.9-1.8,1c-0.1,0-0.2-0.1-0.2-0.3c0,0,0-0.1,0-0.1C46.8,13.8,47,13.6,47.3,13.6z M42.2,14.6c0.6,0.1,1.2,0.2,1.8,0.3
		c-0.5,0-1,0-1.5,0c0.1,0.1,0.2,0.3,0.2,0.5c0,0.4-0.3,0.6-1,0.6c-0.4,0-0.8-0.1-1-0.2c-0.3-0.1-0.8-0.2-1.5-0.2
		c-0.5,0-1,0.1-1.4,0.2C37.4,16,36.7,16,35.8,16c-0.7,0-1.4,0-1.9,0c-1.1-0.1-1.8-0.2-2.2-0.3c-0.2-0.1-0.3-0.3-0.3-0.6
		c0-0.2,0-0.4,0.1-0.4c-1.1,0.3-2.3,0.1-3.6-0.5C27.6,14,27.7,14,28,14c0.4-0.1,0.8-0.1,1.2-0.2c0.9,0.2,1.8,0.4,2.6,0.7
		c0-0.1,0.1-0.1,0.2-0.1c0.5,0,1.1,0.1,1.7,0.2c0.1,0,0.1,0,0.2,0.1c0.5,0.1,1.2,0.1,1.9,0.1c0.6-0.1,1.3-0.1,1.9-0.2
		c-1.1-0.2-2.2-0.4-3.3-0.6c0.1-0.4,0.4-0.5,0.9-0.5c2.4,0.5,4.6,0.3,6.6-0.5c0.3,0,0.5,0.2,0.6,0.5l0.1,0c-0.1,0.4-0.4,0.8-0.7,1
		C41.9,14.5,42.1,14.5,42.2,14.6z M59.8,13.2c0.2,0,0.3-0.1,0.5-0.1c0.9,0.3,1.3,0.6,1.3,1c-1,0-2,0-3,0
		C58.8,13.5,59.2,13.3,59.8,13.2z M32.8,4.5C32.8,4.5,32.8,4.6,32.8,4.5C32,5.9,31,6,29.5,4.9c0,0,0-0.1,0-0.1v0
		c0-0.2,0.1-0.4,0.2-0.5c1,0.1,1.9,0.1,2.9,0.1C32.7,4.4,32.7,4.5,32.8,4.5z M31.6,8.8c-1.4,0-2.8,0-4.3,0c0.1-0.4,0.3-0.6,0.6-0.6
		c1.7-0.6,3.3-0.6,4.8,0C32.5,8.5,32.2,8.8,31.6,8.8z M34.6,12.2L34.6,12.2c-0.2,0.3-0.5,0.5-0.8,0.6c-0.7,0.3-1.5,0.4-2.4,0.3
		c-0.2-0.1-0.3-0.3-0.3-0.5c0-0.1,0-0.2,0.1-0.3c0-0.1,0-0.1,0-0.2c-1.6,0-3.3-0.1-4.9-0.2c0,0-0.1,0-0.1,0s0-0.1,0-0.1
		c0-0.1,0-0.2,0.1-0.3c0.1-0.1,0.2-0.2,0.3-0.3c0.1,0,0.2-0.1,0.3-0.1c2.4-0.2,4.7,0,6.9,0.8C34.1,12,34.4,12,34.6,12.2z M25.6,5
		c0-0.1,0.1-0.1,0.1-0.1s0-0.1,0-0.1c0.6-0.2,1,0,1.3,0.4c0,0,0,0.1,0,0.1c-0.4,1-1.1,1-1.9,0.3h0c0.1,0,0.3,0,0.4,0
		C25.6,5.3,25.6,5.1,25.6,5z M25,8.7c-1.5-0.1-3.1-0.1-4.6-0.2c0.1-0.2,0.3-0.3,0.5-0.3c1.5-0.6,2.8-0.5,4,0.3C25,8.6,25,8.6,25,8.7
		z M20.4,9c1.5,0.1,3,0.2,4.5,0.3c-0.1,0.1-0.2,0.2-0.4,0.3c-1.5,0.5-2.9,0.4-4-0.4C20.4,9.1,20.4,9,20.4,9z M21,6.3
		c-0.1,0.1-0.3,0.3-0.4,0.4c-0.3,0.1-0.6,0.2-0.9,0.2c0.2-0.3,0.5-0.4,0.9-0.4C20.8,6.3,20.9,6.3,21,6.3z M27.6,14.4
		c0,0.2,0,0.3-0.1,0.3C27.3,15,26.8,15,26,15c-1.2,0-2.2-0.1-3-0.3l-4.3,0c-0.8-0.1-2.1-0.2-4.1-0.4c-1.6-0.2-2.4-0.5-2.4-1
		c0-0.6,0.6-0.8,1.7-0.5c2.3,0.5,3.9,0.7,4.7,0.8h2.9c-0.4,0-0.8-0.1-1.1-0.2c0.2-0.4,0.6-0.6,1.1-0.5v-0.1c1,0.1,1.9,0.2,2.9,0.3
		c0.2,0.1,0.3,0.2,0.5,0.3c0,0,0.1,0,0.1,0c-0.5,0.1-1.1,0.2-1.7,0.3c1.3,0.3,2.5,0.5,3.6,0.5C27.4,14,27.6,14.2,27.6,14.4z
		 M17.8,5.2C18,5.1,18.2,5,18.4,5c0.4,0.2,0.8,0.5,1,0.9c0.1,0,0.1,0.1,0.1,0.1c0,0.1,0.1,0.2,0.1,0.2c0,0.2,0,0.5-0.1,0.7
		c-0.1,0-0.1,0-0.1,0c-0.8,0-1.5-0.3-2.1-0.9c0,0,0-0.1,0-0.1v0C17.2,5.4,17.4,5.2,17.8,5.2z M12,9.1L12,9.1c0-0.2,0-0.3,0-0.4
		c1.6,0,3.2,0,4.8,0.1c0,0,0,0.1,0.1,0.1c0,0.4-0.2,0.7-0.6,0.9c-1.6,0.5-3,0.4-4.1-0.5C12,9.3,12,9.3,12,9.1z M10.3,6.5
		c0-0.1,0-0.1,0-0.1v0c0.1-0.4,0.3-0.6,0.6-0.6c1-0.4,1.7-0.2,2.2,0.5c0,0,0,0,0,0C12.5,7.5,11.5,7.5,10.3,6.5z M16,11.5
		c0,0,0-0.1,0-0.2c0.2-0.3,0.4-0.5,0.7-0.5c0.9,0.1,1.8,0.2,2.7,0.4c0.8,0.2,1.6,0.4,2.4,0.6c-0.8,0-1.6,0-2.4,0c-1.2,0-2.3,0-3.4,0
		C16,11.6,16,11.5,16,11.5z M3.8,8.3c0-0.3,0.1-0.5,0.4-0.5C6,7.7,7.7,7.6,9.4,7.5c0.3,0,0.6,0.1,0.7,0.4V8c0,0.1,0,0.3-0.1,0.5
		c-2.1,0.1-4.1,0.1-6.1,0C3.8,8.5,3.8,8.4,3.8,8.3z M8.5,10.7c0.1,0,0.2-0.1,0.3-0.1c2,0.1,3.7,0.4,5.1,1c-1.8-0.1-3.7-0.2-5.5-0.2
		c0,0-0.1-0.1-0.1-0.1C8,11.1,8.1,10.9,8.5,10.7z"/>
</g>
</svg>
