<?xml version="1.0" encoding="utf-8"?>
<!-- Generator: Adobe Illustrator 16.0.0, SVG Export Plug-In . SVG Version: 6.00 Build 0)  -->
<!DOCTYPE svg PUBLIC "-//W3C//DTD SVG 1.1//EN" "http://www.w3.org/Graphics/SVG/1.1/DTD/svg11.dtd">
<svg version="1.1" id="Layer_1" xmlns="http://www.w3.org/2000/svg" xmlns:xlink="http://www.w3.org/1999/xlink" x="0px" y="0px"
	 width="102px" height="19px" viewBox="0 0 102 19" enable-background="new 0 0 102 19" xml:space="preserve">
<g>
	<path fill-rule="evenodd" clip-rule="evenodd" fill="#FFFFFF" d="M92.2,12.1c-0.6,1.1-1.4,1.2-2.5,0.5c0,0,0-0.1,0-0.1
		c0.1-0.5,0.4-0.8,0.8-0.8c0.5,0,0.9,0.1,1.4,0.1C92,11.8,92.1,11.9,92.2,12.1C92.2,12.1,92.2,12.1,92.2,12.1z M98.8,11.1l0.1,0.2
		c0,0.4-1.1,1-3.4,1.8h-1.3c-0.2-0.2-0.3-0.3-0.3-0.4c0-0.2,0-0.3,0-0.4c0.1-0.1,0.2-0.1,0.5,0.1h1.2c0.2,0,0.3-0.2,0.5-0.5
		c0.2-0.2,0.4-0.4,0.6-0.4c0.1,0,0.2,0.1,0.4,0.4c0.6-0.2,0.8-0.5,0.6-1C98.1,11,98.5,11,98.8,11.1z M99,10c-2.8,1.4-5.8,1.4-9,0
		c-0.1,0-0.1-0.1-0.2-0.1c0-0.1,0-0.2,0-0.3c0,0,0-0.1,0-0.1c0-0.1,0.1-0.1,0.1-0.1c0,0,0-0.1,0-0.1c0.2-0.1,0.3-0.1,0.5-0.1
		C93.4,9.2,96.2,9.5,99,10C98.9,9.9,99,9.9,99,10z M88.3,5.5C87.2,5.9,86,6,84.8,5.9c-0.1-0.1-0.2-0.3-0.3-0.4
		c0-0.5,0.2-0.9,0.6-1.1C86.3,4.6,87.3,5,88.3,5.5C88.3,5.5,88.3,5.5,88.3,5.5z M84.3,9.2c0.1-0.4,0.3-0.7,0.7-0.7
		c1-0.4,1.7-0.2,2.2,0.5l0,0.1C86.9,9.7,86.5,10,86,10c0.1-0.3,0.2-0.5,0.3-0.7c-0.4,0.1-0.9,0.3-1.4,0.4c-0.2-0.1-0.4-0.2-0.6-0.4
		C84.3,9.3,84.3,9.3,84.3,9.2L84.3,9.2z M82.2,9.3c-0.2,0.2-0.5,0.3-0.7,0.4C81,9.4,80.5,9,80,8.5C80.8,8.7,81.5,8.9,82.2,9.3
		L82.2,9.3z M81.6,6.5c0,0,0.1,0,0.1,0.1C80.9,6.9,80.2,7,79.3,7V6C80.1,6.2,80.9,6.3,81.6,6.5z M82.2,11.8c-0.6,1-1.4,1.5-2.4,1.3
		c-0.2,0-0.4-0.1-0.6-0.2c-0.1-0.1-0.3-0.1-0.3-0.2c0-0.3,0-0.5,0.1-0.8c0-0.1,0.1-0.2,0.1-0.3c0.3-0.3,0.6-0.5,1-0.5
		c0.4,0,0.7,0,1.1,0c0,0,0.1,0,0.2,0C81.8,11.3,82,11.5,82.2,11.8L82.2,11.8z M83.2,11.3c1.7,0,3.4,0.1,5,0.2
		c-0.1,0.5-0.3,0.8-0.8,1c-1.7,0.5-3.3,0.4-4.5-0.4C82.8,11.7,82.9,11.5,83.2,11.3z M88,6.4c0.2,0,0.4,0,0.6,0c0.2,0.5,0.2,1,0,1.4
		c-0.3-0.3-0.6-0.6-0.8-1.1C87.6,6.5,87.7,6.4,88,6.4z M88,11.2c-0.5,0-0.9-0.1-1.3-0.1c0.3,0,0.5-0.1,0.8-0.1
		C87.8,11,88,11,88,11.2z M86.1,13c0.8-0.2,1.2-0.1,1.2,0.5c0,0.5-0.4,0.9-1.2,1.1h-0.8C85,14.3,85,14.1,85,14
		C85,13.6,85.3,13.3,86.1,13z M71,5.6c-1.5,0.9-3.1,0.9-4.9,0c0,0,0,0,0-0.1v0c0-0.1,0-0.2,0.1-0.3c1.2-0.1,2.5-0.1,3.7,0
		c0.4,0.1,0.8,0.2,1.2,0.3V5.6z M71,3.4v1c-0.9-0.1-1.8-0.1-2.7-0.1v0c0,0,0-0.1,0-0.1c0-0.1,0-0.1,0-0.2c0,0,0-0.1,0-0.1
		c0.1-0.2,0.3-0.3,0.6-0.3C69.6,3.4,70.3,3.4,71,3.4z M71,9.2h1.3c-1.1,0.1-2.3,0.1-3.4,0C69.2,8.3,69.9,8,71,8.4V9.2z M71,11.6
		c2.4-0.6,4.3-0.3,5.6,1c-1.9,0.1-3.9,0.1-5.8,0c-0.1-0.2-0.2-0.4-0.3-0.6c0-0.1,0.1-0.1,0.1-0.1c0.1-0.1,0.1-0.1,0.2-0.1
		C70.8,11.7,70.9,11.7,71,11.6L71,11.6z M79.1,11.5c-0.1,0.5-0.3,0.8-0.5,1c-0.1-0.1-0.1-0.1-0.2-0.2C78.5,12,78.8,11.7,79.1,11.5z
		 M64.1,11.5L64.1,11.5c0-0.2,0-0.3,0.1-0.3c0,0,0-0.1,0-0.1c0.2-0.2,0.3-0.3,0.5-0.3c1.5-0.1,2.9,0.1,4.2,0.6l0.1,0
		C67.6,12.5,66,12.6,64.1,11.5C64.1,11.6,64.1,11.6,64.1,11.5z M64.7,9.7l-0.3-0.1l0-0.4c0-0.4,0.7-0.5,2.2-0.4l0,0.2
		c-0.2,0.2-0.5,0.3-1,0.4C65.2,9.6,64.8,9.7,64.7,9.7z M63.7,9c-0.3,0.3-1.4,0.5-3.4,0.6c-2.4,0-4.1,0-5,0.1C55.1,9.6,55,9.6,55,9.5
		c-0.1,0-0.3,0.1-0.3,0.1c-0.2,0-0.4-0.1-0.5-0.1c0,0,0,0,0,0c-0.6,0.3-1,0.5-1.3,0.4c-0.3-0.1-0.6-0.1-0.9,0
		c0.4,0.1,0.8,0.1,1.2,0.1c0.4,0,0.6,0.1,0.6,0.3c0,0.5-0.4,0.7-1.3,0.7c-1,0-2-0.2-2.9-0.6C49.3,10.2,49,10,48.9,10
		c-0.1,0-0.1-0.1-0.1-0.1c-0.2-0.1-0.4-0.1-0.5-0.2c-0.1,0-0.3,0-0.5,0.1c-0.1,0-0.1,0.1-0.3,0.2c-0.2,0.2-0.5,0.3-1,0.3
		c-0.5,0-1-0.1-1.4-0.2l-0.4,0c0,0-0.1,0-0.1,0c-0.1,0-0.1,0-0.1,0l-0.9,0.1c-0.7,0-1.1-0.3-1.1-0.8c0-0.2,0.1-0.4,0.4-0.4
		c0.5-0.2,1.7-0.3,3.5-0.4c1.9,0,2.9,0,3,0c0.5,0.3,1,0.5,1.5,0.7c0.4-0.1,0.9-0.2,1.4-0.4h1.6c0,0,0,0.1,0.1,0.1h1.1
		c0.4-0.1,1.4-0.2,3-0.4c1.8-0.1,3-0.1,3.8-0.1C62.8,8.7,63.3,8.8,63.7,9z M61.3,16c-0.8,0-1.3,0.1-1.5,0.2
		c-0.2,0.1-0.6,0.1-1.2,0.1l-1.5-0.3c-0.1,0-0.2,0.1-0.4,0.4c-0.3,0.2-0.7,0.3-1.3,0.3c-0.8,0-1.2-0.1-1.3-0.3
		C54,16.2,53.9,16,53.8,16v-0.3c0,0,0.1-0.1,0.3-0.2c0.3,0,0.5,0.2,0.6,0.6l1.5,0c0.1-0.1,0.3-0.2,0.5-0.5c0.3-0.2,0.6-0.1,0.9,0.1
		c1.2,0,1.9,0,2,0c0.1,0,0.2-0.1,0.2-0.3h1.4l0.3,0.1l0.1,0.2L61.3,16z M69.4,14.6c-0.1,0.3-0.4,0.5-0.9,0.7
		c-1.4,0.5-2.6,0.3-3.6-0.5c0,0-0.1-0.1-0.1-0.2l0.1,0C66.4,14.5,67.9,14.6,69.4,14.6z M77.3,14.8c0,0.7-1,1.1-3,1.1
		c-0.9,0-1.5-0.1-1.6-0.2c0,0,0-0.2,0-0.4s0.1-0.4,0.2-0.5c0.1-0.1,0.5-0.2,1.2-0.5h3C77.2,14.5,77.3,14.7,77.3,14.8z M74.5,15H74
		V15l-0.1,0.2l0.5,0V15z M50.9,12.3c-0.4,0.1-0.7,0.2-1,0.2c-1.2,0.2-2.4,0.2-3.7,0c-1.1-0.2-2.1-0.4-3.2-0.8v-0.1
		c0-0.1,0-0.2,0-0.2c0-0.2,0.1-0.3,0.3-0.4c0.1,0,0.2,0,0.3,0C46.3,10.5,48.8,10.9,50.9,12.3C50.9,12.2,50.9,12.2,50.9,12.3z
		 M53.3,12.1C53.3,12.1,53.3,12,53.3,12.1l0.1-0.1c0.1-0.3,0.3-0.5,0.5-0.5c0.7-0.1,1.5-0.1,2.2-0.1c-0.1,0.7-0.5,1.1-1.3,1.1
		c-0.4,0-0.7,0-1,0c-0.1,0-0.3-0.1-0.4-0.2l-0.1,0C53.3,12.2,53.3,12.1,53.3,12.1z M59.2,12.2C59.1,12.1,59,12,59,12
		c0.1,0,0.2,0.1,0.3,0.1c0,0,0,0,0,0C59.3,12.1,59.2,12.2,59.2,12.2z M41.1,3c-0.5,1-1.2,1.1-2.1,0.3c0-0.1,0-0.1,0-0.1v0
		c0.1-0.4,0.3-0.6,0.6-0.6C40.2,2.2,40.7,2.4,41.1,3L41.1,3z M44,5c-2,0.1-4,0-6-0.3c2-0.1,3.9-0.4,5.9-0.6c0,0,0.1,0,0.1,0V5z
		 M43.3,8.2c0.1-0.4,0.3-0.6,0.6-0.6c0,0,0.1,0,0.1,0v1.1c-0.1-0.1-0.3-0.1-0.4-0.1C43.4,8.6,43.3,8.5,43.3,8.2L43.3,8.2z
		 M40.8,11.8c-0.2,0.2-0.3,0.4-0.5,0.5c-1.2,0-2.4,0-3.5-0.1c0.7-0.6,1.7-0.9,3-0.9C40.2,11.2,40.5,11.4,40.8,11.8
		C40.8,11.8,40.8,11.8,40.8,11.8z M47,14.7c-0.2,0-0.3-0.2-0.3-0.4c0,0,0-0.1,0-0.1c2.4,0,4.8,0.1,7.3,0.1c-0.1,0.3-0.2,0.4-0.5,0.5
		c0.2,0,0.3,0.1,0.5,0.1l0,0c-2.1,1-4.2,0.9-6.4-0.3C47.5,14.7,47.3,14.7,47,14.7z M44.8,15c-0.1,0.1-0.2,0.2-0.3,0.3
		c0-0.1,0.1-0.2,0.1-0.3C44.7,15,44.7,15,44.8,15L44.8,15z M42.4,15.5c0.3,0.3,0.5,0.4,0.8,0.4c0.3,0,0.5-0.1,0.6-0.2
		c0.1-0.2,0.3-0.4,0.4-0.4l0.3,0.3c0,0.1-0.1,0.3-0.4,0.6c-0.3,0.2-0.6,0.3-0.9,0.3c-0.4,0-0.7-0.1-0.9-0.2
		c-0.1-0.1-0.2-0.3-0.4-0.5c-0.1,0.1-0.1,0.3-0.2,0.5c-0.1,0.1-0.3,0.2-0.6,0.2c-1.1,0-1.8-0.4-1.9-1c0-0.1,0.1-0.1,0.3-0.1l1.4,0.4
		c0.1,0,0.2-0.1,0.4-0.4c0.2-0.3,0.3-0.4,0.4-0.4C41.9,15,42.1,15.2,42.4,15.5z M58.2,14.4c1,0,2,0,3,0c-0.3,0.2-0.8,0.5-1.5,0.7
		C58.1,15.7,57.6,15.5,58.2,14.4z M35.7,4.4c-0.3-0.1-0.7-0.2-1-0.3c-0.1-0.1-0.2-0.2-0.3-0.4c-0.2-0.4,0-0.6,0.4-0.6
		C35.5,2.9,36,3,36.3,3.5c0,0,0,0.1,0,0.1C36.1,4,35.9,4.2,35.7,4.4z M33,12.2c-0.3,0-0.5-0.2-0.6-0.7c0,0,0-0.1,0-0.1
		c0.8,0.2,1.5,0.4,2.3,0.8l0.1,0C34.2,12.2,33.6,12.2,33,12.2z M31.1,7.9c0,0.9-0.4,1.3-1.2,1.3c-0.4,0-0.8,0-1.2,0s-0.7,0-1-0.1
		c-0.2,0-0.3-0.1-0.4-0.4v0c0.1-0.4,0.3-0.6,0.6-0.6c1.1-0.4,2.1-0.5,3.1-0.4C31.1,7.8,31.1,7.8,31.1,7.9z M35.6,8.6
		c0.1-0.3,0.4-0.5,0.6-0.5c1.5-0.4,2.9-0.1,4,0.8C38.7,8.8,37.2,8.7,35.6,8.6z M27.1,5.3c-0.4,1-1.1,1-1.9,0.3c0,0,0,0,0,0
		c0-0.1,0-0.1,0-0.2c0.1-0.3,0.3-0.5,0.5-0.5c0.6-0.2,1,0,1.3,0.4C27.1,5.2,27.1,5.2,27.1,5.3z M29.5,4.8L29.5,4.8
		c0.1-0.4,0.3-0.7,0.5-0.7c0.9,0.2,1.8,0.5,2.7,0.8c-0.8,1.1-1.9,1.1-3.2,0C29.5,4.9,29.5,4.8,29.5,4.8z M25,9.2c-1.5,0-3,0-4.5-0.1
		c0,0-0.1-0.1-0.1-0.2c0,0,0-0.1,0-0.1c0.1-0.4,0.3-0.6,0.6-0.6c1.5-0.6,2.8-0.5,4,0.3c0,0,0.1,0.1,0.1,0.2C25.1,9,25.1,9.1,25,9.2z
		 M20.6,6.6c-1.3,0.5-2.4,0.3-3.3-0.5c1.2,0,2.5,0.1,3.7,0.1C21,6.4,20.8,6.5,20.6,6.6z M27.4,11.3c0.4,0,0.6,0.2,0.8,0.7
		c0,0.1,0,0.3,0,0.4c-0.5-0.1-1-0.2-1.5-0.2c-0.2,0-0.3-0.2-0.4-0.4c0,0,0-0.1,0-0.1c0-0.1,0-0.2,0.1-0.3c0.1-0.1,0.1-0.2,0.3-0.2
		C26.9,11.3,27.1,11.3,27.4,11.3z M29.8,13.9c0.3,0.2,0.5,0.4,0.5,0.4c0.1,0.1,0.1,0.3,0.1,0.5c0,0.4-0.2,0.6-0.5,0.8h-1.5
		c-0.4-0.1-0.6-0.3-0.6-0.7c0-0.4,0.1-0.7,0.2-0.8C28.2,14,28.8,13.9,29.8,13.9z M37.5,16c0,0.3-0.5,0.4-1.6,0.4
		c-1.7,0-2.9-0.1-3.5-0.3c-0.4-0.2-0.6-0.4-0.6-0.7l0.5,0c0.3,0,0.5,0,0.6,0.2c0,0.1,0.1,0.2,0.4,0.2l0.7-0.1
		c0.3-0.4,0.7-0.6,1.2-0.6c0.5,0,0.7,0.3,0.8,0.8h1.5L37.5,16z M12.9,6c0,0.1,0.1,0.1,0.1,0.2c0,0,0,0,0,0c-0.6,1.2-1.5,1.3-2.8,0.3
		c0-0.1,0-0.1,0-0.1v0c0-0.1,0.1-0.2,0.1-0.4C11.2,6,12.1,6,12.9,6z M12.5,8.5c1.6-0.6,3-0.5,4.2,0.3c0.1,0.1,0.1,0.1,0.1,0.2
		c0,0.1,0,0.1,0,0.1C15.2,9.1,13.6,9,12,9C12,8.6,12.2,8.5,12.5,8.5z M11.3,11.8c0,0,0.1,0.1,0.1,0.2c-0.1,0.3-0.3,0.5-0.5,0.8
		c-0.9-0.2-1.8-0.6-2.6-1.4c-0.2-0.2-0.1-0.4,0.2-0.6c0.1,0,0.2-0.1,0.3-0.1c0.5,0,1,0.1,1.4,0.1C10.5,10.9,10.9,11.3,11.3,11.8z
		 M14.4,11.8c-0.5,0.3-1,0.5-1.4,0.7c0,0-0.1-0.1-0.1-0.2c0-0.1,0-0.1,0.1-0.2c0-0.3,0.1-0.5,0.3-0.8C13.6,11.5,14,11.6,14.4,11.8
		L14.4,11.8z M17.3,10.9c2.8,0.2,5.4,1,7.8,2.3c-1.6,0-3.3,0-4.8,0c-0.5-0.2-1.1-0.3-1.7-0.5c-0.8-0.3-1.6-0.6-2.4-0.9
		c-0.1,0-0.1-0.1-0.1-0.2c0,0,0-0.1,0-0.2c0,0,0-0.1,0-0.2c0.1-0.2,0.3-0.4,0.5-0.4C16.8,10.9,17,10.9,17.3,10.9z M4.9,9.1
		c0,0,0.1,0.1,0.1,0.1c0,0,0.1,0.1,0.1,0.1C4.5,9.7,3.9,10,3.2,10.2C3.1,10,3,10,2.9,9.9l-0.1,0c0-0.1,0-0.2,0.1-0.3
		c0,0,0-0.1,0-0.1C3,9.3,3.1,9.2,3.2,9.2c0.1,0,0.2-0.1,0.3-0.1C4,9.1,4.4,9.1,4.9,9.1z M8.9,8.1c-0.4,0-0.6-0.2-0.7-0.5
		C8.5,7.5,9,7.5,9.4,7.5c0.3,0,0.6,0.1,0.7,0.4V8c0,0.1,0,0.1,0,0.1C9.6,8.1,9.3,8.1,8.9,8.1z M17.6,13.9c0-0.7,0.3-1,0.9-0.9
		c0.6,0.1,1.3,0.5,2.1,1.2c-0.2,0.3-0.7,0.5-1.7,0.7C18.3,14.9,17.9,14.6,17.6,13.9z"/>
</g>
</svg>
