<?xml version="1.0" encoding="utf-8"?>
<!-- Generator: Adobe Illustrator 16.0.0, SVG Export Plug-In . SVG Version: 6.00 Build 0)  -->
<!DOCTYPE svg PUBLIC "-//W3C//DTD SVG 1.1//EN" "http://www.w3.org/Graphics/SVG/1.1/DTD/svg11.dtd">
<svg version="1.1" id="Layer_1" xmlns="http://www.w3.org/2000/svg" xmlns:xlink="http://www.w3.org/1999/xlink" x="0px" y="0px"
	 width="37.33px" height="388.67px" viewBox="314.5 67.17 37.33 388.67" enable-background="new 314.5 67.17 37.33 388.67"
	 xml:space="preserve">
<g>
	<path fill="#FFFFFF" fill-opacity="0.251" d="M319.69,70.06h26.9v274.93v1.06c-0.05,3.77-0.2,7.38-0.46,10.84
		c-0.25,3.46-1.46,7.43-3.64,11.9c-2.18,4.46-3.52,8.78-4.02,12.96v68.81c0-0.16-0.09,0.02-0.27,0.53c-3.49,1.23-6.89,1.23-10.19,0
		c-0.11-0.19-0.19-0.37-0.23-0.53v-68.81c-0.5-4.19-1.84-8.51-4.02-12.96c-2.17-4.45-3.38-8.41-3.64-11.9
		c-0.25-3.44-0.4-7.05-0.45-10.84v-1.06V70.06H319.69z"/>
</g>
</svg>
