<?xml version="1.0" encoding="utf-8"?>
<!-- Generator: Adobe Illustrator 16.0.0, SVG Export Plug-In . SVG Version: 6.00 Build 0)  -->
<!DOCTYPE svg PUBLIC "-//W3C//DTD SVG 1.1//EN" "http://www.w3.org/Graphics/SVG/1.1/DTD/svg11.dtd">
<svg version="1.1" xmlns="http://www.w3.org/2000/svg" xmlns:xlink="http://www.w3.org/1999/xlink" x="0px" y="0px" width="16px"
	 height="95.167px" viewBox="0 0 16 95.167" enable-background="new 0 0 16 95.167" xml:space="preserve">
<g id="Layer_1">
	<g>
		<g>
			<path fill="#0C2230" d="M8.2,1.1l3.5,42c0,0,0.1,1.7,0.5,5L10.1,40.4L8.2,1.1z"/>
			<path fill="#0C2230" d="M8.2,1.1l3.5,42c0,0,0.1,1.7,0.5,5L10.1,40.4L8.2,1.1z"/>
			<polygon fill="#184167" points="12.2,48.1 4.5,48.1 6.5,40.4 8.2,1.1 10.1,40.4 			"/>
			<polygon fill="#184167" points="12.2,48.1 4.5,48.1 6.5,40.4 8.2,1.1 10.1,40.4 			"/>
			<polygon fill="#2878AC" points="4.5,48.1 8.2,1.1 6.5,40.4 			"/>
			<polygon fill="#2878AC" points="4.5,48.1 8.2,1.1 6.5,40.4 			"/>
		</g>
	</g>
</g>
<g id="Layer_3">
	<radialGradient id="SVGID_1_" cx="8.0527" cy="47.6846" r="5.2584" gradientUnits="userSpaceOnUse">
		<stop  offset="0" style="stop-color:#4D91D5"/>
		<stop  offset="1" style="stop-color:#102B45"/>
	</radialGradient>
	<circle fill="url(#SVGID_1_)" stroke="#3E7BB5" stroke-width="0.5" stroke-miterlimit="10" cx="8.208" cy="47.563" r="5.854"/>
</g>
</svg>
