<?xml version="1.0" encoding="utf-8"?>
<!-- Generator: Adobe Illustrator 16.0.0, SVG Export Plug-In . SVG Version: 6.00 Build 0)  -->
<!DOCTYPE svg PUBLIC "-//W3C//DTD SVG 1.1//EN" "http://www.w3.org/Graphics/SVG/1.1/DTD/svg11.dtd">
<svg version="1.1" xmlns="http://www.w3.org/2000/svg" xmlns:xlink="http://www.w3.org/1999/xlink" x="0px" y="0px" width="131.7px"
	 height="130px" viewBox="0 0 131.7 130" enable-background="new 0 0 131.7 130" xml:space="preserve">
<g id="Layer_1">
	<g>
		
			<path fill-rule="evenodd" clip-rule="evenodd" fill="none" stroke="#0B3653" stroke-width="3" stroke-linecap="round" stroke-linejoin="round" stroke-miterlimit="3" d="
			M32.5,31.2l-1.8-1.8 M66.3,17.5v-2.8 M101.6,29.6l-2,2 M116.1,64.9h-2.8 M101.7,100.1l-2.1-2 M66.3,115v-2.7 M32.5,98.7l-1.8,1.8
			 M18.4,64.9H16"/>
		<g>
			<radialGradient id="SVGID_1_" cx="65.4331" cy="64.9492" r="62.525" gradientUnits="userSpaceOnUse">
				<stop  offset="0.8784" style="stop-color:#145463"/>
				<stop  offset="0.9412" style="stop-color:#6FB7D5"/>
				<stop  offset="1" style="stop-color:#132531"/>
			</radialGradient>
			<path fill-rule="evenodd" clip-rule="evenodd" fill="url(#SVGID_1_)" d="M66.3,11.1c-0.2,0-0.3,0-0.4,0
				c-14.9,0-27.6,5.3-38.1,15.8C17.3,37.4,12.1,50.1,12.1,64.9s5.2,27.5,15.7,38c10.5,10.5,23.2,15.8,38.1,15.8c0.1,0,0.2,0,0.4,0
				c14.7-0.1,27.2-5.4,37.5-15.8c0.1-0.1,0.2-0.2,0.3-0.3c5.1-5.2,8.9-11,11.5-17.2c2.6-6.3,4-13.1,4-20.5c0-10-2.4-19.1-7.2-27.1
				c-2.3-3.8-5-7.3-8.3-10.7c-0.1-0.1-0.2-0.1-0.3-0.3C93.5,16.5,81,11.3,66.3,11.1z M21.6,20.7c6.1-6,12.7-10.5,20-13.6
				C49.1,4,57.1,2.5,65.9,2.5C74.5,2.5,82.6,4,90,7.1c7.3,3.1,13.9,7.6,20,13.6c5.2,5.3,9.3,11,12.3,17.1c4,8.2,6,17.2,6,27.1
				c0,1.3,0,2.5,0,3.8c-0.3,5.9-1.4,11.5-3.2,16.8c-3,8.7-8,16.6-15,23.6c-12.2,12.2-27,18.3-44.2,18.3c-17.3,0-32-6.1-44.3-18.3
				C9.5,96.9,3.4,82.2,3.4,64.9S9.5,33,21.6,20.7z"/>
			<radialGradient id="SVGID_2_" cx="65.8579" cy="64.9238" r="54.2504" gradientUnits="userSpaceOnUse">
				<stop  offset="0" style="stop-color:#FFFFFF"/>
				<stop  offset="0.9412" style="stop-color:#3598B0"/>
				<stop  offset="1" style="stop-color:#275F83"/>
			</radialGradient>
			<path fill-rule="evenodd" clip-rule="evenodd" fill="url(#SVGID_2_)" d="M66.3,11.1c14.7,0.1,27.2,5.4,37.5,15.8
				c0.1,0.1,0.2,0.2,0.3,0.3c3.3,3.4,6.1,6.9,8.3,10.7c4.8,8,7.2,17.1,7.2,27.1c0,7.4-1.3,14.2-4,20.5c-2.6,6.2-6.4,12-11.5,17.2
				c-0.1,0.1-0.3,0.2-0.3,0.3c-10.3,10.4-22.8,15.6-37.5,15.8c-0.2,0-0.3,0-0.4,0c-14.9,0-27.6-5.3-38.1-15.8
				c-10.5-10.5-15.7-23.1-15.7-38s5.2-27.6,15.7-38.1C38.3,16.4,51,11.1,65.9,11.1C66,11.1,66.1,11.1,66.3,11.1z"/>
			
				<path fill-rule="evenodd" clip-rule="evenodd" fill="none" stroke="#1F607A" stroke-linecap="round" stroke-linejoin="round" stroke-miterlimit="3" d="
				M66.3,11.1c14.7,0.1,27.2,5.4,37.5,15.8c0.1,0.1,0.2,0.2,0.3,0.3c3.3,3.4,6.1,6.9,8.3,10.7c4.8,8,7.2,17.1,7.2,27.1
				c0,7.4-1.3,14.2-4,20.5c-2.6,6.2-6.4,12-11.5,17.2c-0.1,0.1-0.3,0.2-0.3,0.3c-10.3,10.4-22.8,15.6-37.5,15.8c-0.2,0-0.3,0-0.4,0
				c-14.9,0-27.6-5.3-38.1-15.8c-10.5-10.5-15.7-23.1-15.7-38s5.2-27.6,15.7-38.1C38.3,16.4,51,11.1,65.9,11.1
				C66,11.1,66.1,11.1,66.3,11.1z"/>
		</g>
		<g>
			<linearGradient id="SVGID_3_" gradientUnits="userSpaceOnUse" x1="66.0659" y1="62.4116" x2="66.0659" y2="-1.4134">
				<stop  offset="0" style="stop-color:#FFFFFF;stop-opacity:0"/>
				<stop  offset="1" style="stop-color:#FFFFFF"/>
			</linearGradient>
			<path fill-rule="evenodd" clip-rule="evenodd" fill="url(#SVGID_3_)" d="M66.2,12.9C81,13.1,93.6,19,104,30.8
				c0.1,0.1,0.2,0.2,0.2,0.3c4.8,5.4,7.6,11.3,8.6,17.6c1.4,9.3-14,13.6-46.2,12.9c-32.2-0.7-48-4.8-47.3-12.4
				c0.7-6.9,3.4-13,8.3-18.5c10.5-11.9,23.3-17.8,38.2-17.8C65.9,12.9,66.1,12.9,66.2,12.9z"/>
			
				<radialGradient id="SVGID_4_" cx="66.2832" cy="115.0488" r="66.7375" gradientTransform="matrix(1 0 0 0.5379 0 53.1608)" gradientUnits="userSpaceOnUse">
				<stop  offset="0" style="stop-color:#FFFFFF;stop-opacity:0.4"/>
				<stop  offset="1" style="stop-color:#FFFFFF;stop-opacity:0"/>
			</radialGradient>
			<path fill-rule="evenodd" clip-rule="evenodd" fill="url(#SVGID_4_)" d="M27.9,98.8c-4.7-4.8-7.6-10-8.6-15.8
				c-1.4-8.3,14-12.1,46.2-11.5c32.2,0.6,48,4.4,47.3,11.1c-0.6,6.1-3.4,11.5-8.2,16.4c-10.6,10.7-23.3,16-38.3,16
				c-0.1,0-0.3,0-0.4,0c-14.8-0.1-27.4-5.5-37.8-16C28.1,99,28,98.9,27.9,98.8z"/>
		</g>
	</g>
</g>
<g id="Layer_2">
	<g>
		<line fill="#FFFFFF" x1="65.7" y1="13.6" x2="65.7" y2="24.6"/>
		<rect x="65.2" y="13.6" width="1" height="11"/>
	</g>
	<g>
		<line fill="#FFFFFF" x1="65.7" y1="105.6" x2="65.7" y2="116.6"/>
		<rect x="65.2" y="105.6" width="1" height="11"/>
	</g>
	<g>
		<line fill="#FFFFFF" x1="117.2" y1="65.1" x2="106.2" y2="65.1"/>
		<rect x="106.2" y="64.6" width="11" height="1"/>
	</g>
	<g>
		<line fill="#FFFFFF" x1="25.2" y1="65.1" x2="14.2" y2="65.1"/>
		<rect x="14.2" y="64.6" width="11" height="1"/>
	</g>
</g>
<g id="Layer_3">
</g>
</svg>
