<?xml version="1.0" encoding="utf-8"?>
<!-- Generator: Adobe Illustrator 16.0.0, SVG Export Plug-In . SVG Version: 6.00 Build 0)  -->
<!DOCTYPE svg PUBLIC "-//W3C//DTD SVG 1.1//EN" "http://www.w3.org/Graphics/SVG/1.1/DTD/svg11.dtd">
<svg version="1.1" id="Layer_2" xmlns="http://www.w3.org/2000/svg" xmlns:xlink="http://www.w3.org/1999/xlink" x="0px" y="0px"
	 width="72px" height="26px" viewBox="0 0 72 26" enable-background="new 0 0 72 26" xml:space="preserve">
<g>
	<path fill-rule="evenodd" clip-rule="evenodd" fill="#FFFFFF" fill-opacity="0.5765" d="M4,6.8L4,6.8c0-0.1-0.1-0.2-0.1-0.2
		c0-0.9,3.2-1.6,9.6-2.1c6.1-0.5,13.5-0.8,22.2-0.8c8.7,0,16.1,0.2,22.3,0.7c6.5,0.5,9.7,1.3,9.7,2.2v0.1c0,0,0,0.1,0,0.1l-1.2,0
		c0.1-0.1,0.2-0.1,0.2-0.2c0-0.4-3-0.9-8.8-1.3c-6.1-0.5-13.5-0.7-22.2-0.8c-8.6,0-16,0.3-22.1,0.8C7.9,5.7,4.9,6.2,4.9,6.6
		c0,0.1,0.1,0.1,0.2,0.2L4,6.8z"/>
	<linearGradient id="SVGID_1_" gradientUnits="userSpaceOnUse" x1="3.9487" y1="8.3516" x2="67.6489" y2="8.4266">
		<stop  offset="0" style="stop-color:#FFFFFF;stop-opacity:0.5882"/>
		<stop  offset="0.2941" style="stop-color:#FFFFFF"/>
		<stop  offset="0.4902" style="stop-color:#FFFFFF"/>
		<stop  offset="0.702" style="stop-color:#FEFEFE"/>
		<stop  offset="1" style="stop-color:#FCFCFC;stop-opacity:0.6118"/>
	</linearGradient>
	<path fill-rule="evenodd" clip-rule="evenodd" fill="url(#SVGID_1_)" d="M4,6.8l1.1,0c0.8,0.3,3.6,0.7,8.5,1.1
		c6.1,0.4,13.5,0.7,22.1,0.7c8.6,0,16-0.2,22.2-0.7c4.9-0.4,7.7-0.8,8.5-1.2l1.2,0c0,0.1-0.1,0.2-0.2,0.3c-0.9,0.7-4.3,1.4-10.1,2
		c-5.8,0.7-13,1.1-21.7,1C27,10,19.8,9.6,14.2,9C8.6,8.4,5.3,7.8,4.3,7C4.1,7,4,6.8,4,6.8z"/>
	<path fill-rule="evenodd" clip-rule="evenodd" fill="#CCCCCC" fill-opacity="0.498" d="M5.1,6.8C5,6.7,4.9,6.7,4.9,6.6
		c0-0.4,3-0.9,8.8-1.3c6.1-0.5,13.5-0.8,22.1-0.8c8.7,0,16,0.3,22.2,0.8c5.8,0.4,8.7,0.9,8.8,1.3c0,0.1-0.1,0.1-0.2,0.2
		c-0.8,0.4-3.7,0.8-8.5,1.2c-6.1,0.5-13.5,0.7-22.2,0.7c-8.6,0-16-0.3-22.1-0.7C8.7,7.5,5.9,7.1,5.1,6.8z"/>
	<path fill-rule="evenodd" clip-rule="evenodd" fill="#FFFFFF" fill-opacity="0.1098" d="M67.5,7c0.6,6.4-2.4,11-9,13.6
		c-14.2,3.8-27.8,4.2-40.9,1.3C8.5,19.9,4,14.9,4.3,7c1,0.7,4.3,1.4,9.9,2c5.6,0.6,12.8,1,21.4,1c8.7,0.1,15.9-0.2,21.7-1
		C63.2,8.4,66.5,7.7,67.5,7z"/>
</g>
</svg>
