<?xml version="1.0" encoding="utf-8"?>
<!-- Generator: Adobe Illustrator 16.0.0, SVG Export Plug-In . SVG Version: 6.00 Build 0)  -->
<!DOCTYPE svg PUBLIC "-//W3C//DTD SVG 1.1//EN" "http://www.w3.org/Graphics/SVG/1.1/DTD/svg11.dtd">
<svg version="1.1" id="Layer_2" xmlns="http://www.w3.org/2000/svg" xmlns:xlink="http://www.w3.org/1999/xlink" x="0px" y="0px"
	 width="75px" height="130px" viewBox="0 0 75 130" enable-background="new 0 0 75 130" xml:space="preserve">
<g>
	<g>
		
			<radialGradient id="SVGID_1_" cx="17.5918" cy="61.2871" r="52.9751" gradientTransform="matrix(1 2.359597e-003 8.258590e-003 1.8617 1.8019 -52.0894)" gradientUnits="userSpaceOnUse">
			<stop  offset="0" style="stop-color:#595959"/>
			<stop  offset="1" style="stop-color:#FFFFFF;stop-opacity:0.5176"/>
		</radialGradient>
		<path fill-rule="evenodd" clip-rule="evenodd" fill="url(#SVGID_1_)" d="M45.4,23.7h0.3l0.1,20.5c0,0,0,0.1,0,0.1c0,0,0,0-0.1,0
			c0,0.7,0,1.5,0.1,2.2c0.2,1.7,0.7,3.5,1.6,5.5l22.4,55.8v0.1c0,0,0,0.1,0,0.1c0.7,5.9-1.2,10.3-5.9,13.2c-0.1,0.1-0.3,0.1-0.4,0.3
			c-2.2,1.2-4.9,2.2-8.2,2.8c-14.6,2.9-27.3,2.6-38.2-0.8c-0.1,0-0.1,0-0.1-0.1c-0.2,0-0.4-0.1-0.6-0.1c-1.4-0.5-2.7-1.1-3.9-1.8
			c-0.1-0.1-0.3-0.1-0.4-0.2c-4.6-3-6.6-7.6-6.1-13.9c0-0.1,0-0.1,0-0.1l22-54.8c0.7-1.9,1.1-3.7,1.3-5.5c0.1-0.8,0.1-1.7,0.1-2.5
			l-0.1-20.8h0.1l0.1,20.8c0,0.8,0,1.6-0.1,2.5c-0.2,1.7-0.7,3.6-1.4,5.5l-22,54.8c0,0,0,0.1,0,0.1c-0.6,6.3,1.5,11,6.1,13.9
			c0.1,0,0.2,0.1,0.3,0.2c1.1,0.7,2.4,1.3,3.9,1.8c0.2,0,0.3,0.1,0.5,0.1c0,0,0.1,0,0.1,0c10.9,3.4,23.6,3.7,38.2,0.9
			c3.3-0.6,6-1.6,8.2-2.8c0.1-0.1,0.2-0.1,0.3-0.2c4.7-2.8,6.6-7.2,5.9-13.2c0-0.1,0-0.1,0-0.1L47.3,52c-0.9-1.9-1.4-3.7-1.6-5.4
			c-0.1-0.8-0.1-1.5,0-2.3c0,0-0.1,0-0.1,0s0-0.1,0-0.1L45.4,23.7z"/>
		
			<radialGradient id="SVGID_2_" cx="36.1118" cy="86.1172" r="92.4503" gradientTransform="matrix(1 2.433741e-003 5.273106e-003 1.2038 1.9337 -16.8003)" gradientUnits="userSpaceOnUse">
			<stop  offset="0" style="stop-color:#FFFFFF;stop-opacity:0"/>
			<stop  offset="1" style="stop-color:#CCCCCC;stop-opacity:0.2824"/>
		</radialGradient>
		<path fill-rule="evenodd" clip-rule="evenodd" fill="url(#SVGID_2_)" d="M29.5,23.7h14.8h1.1l0.1,20.5c0,0,0,0.1,0,0.1
			s0.1,0,0.1,0c-0.1,0.7-0.1,1.5,0,2.3c0.2,1.7,0.7,3.5,1.6,5.4l22.5,55.9c0,0,0,0.1,0,0.1c0.7,5.9-1.2,10.3-5.9,13.2
			c-0.1,0.1-0.2,0.1-0.3,0.2c-2.2,1.2-4.9,2.2-8.2,2.8c-14.6,2.9-27.3,2.6-38.2-0.9c-0.1,0-0.1,0-0.1,0c-0.2-0.1-0.3-0.1-0.5-0.1
			c-1.5-0.5-2.8-1.1-3.9-1.8c-0.1-0.1-0.2-0.1-0.3-0.2c-4.7-2.9-6.7-7.6-6.1-13.9c0-0.1,0-0.1,0-0.1l22-54.8
			c0.7-1.9,1.1-3.8,1.4-5.5c0.1-0.9,0.1-1.7,0.1-2.5L29.5,23.7z"/>
		<linearGradient id="SVGID_3_" gradientUnits="userSpaceOnUse" x1="37.895" y1="7.2998" x2="37.7705" y2="14.5994">
			<stop  offset="0" style="stop-color:#FFFFFF;stop-opacity:0.298"/>
			<stop  offset="0.6549" style="stop-color:#FFFFFF;stop-opacity:0"/>
			<stop  offset="1" style="stop-color:#FFFFFF;stop-opacity:0.5255"/>
		</linearGradient>
		<path fill-rule="evenodd" clip-rule="evenodd" fill="url(#SVGID_3_)" d="M48.3,8.6c-0.1,0.3-1.2,0.6-3.1,0.9
			c-2,0.3-4.5,0.5-7.4,0.5c-2.9,0-5.3-0.2-7.4-0.5c-1.6-0.2-2.6-0.4-2.9-0.7c-0.1-0.1-0.1-0.1-0.1-0.2V8.5c0,0,0-0.1,0-0.1
			c0,0,0,0,0-0.1c0,0,0.1,0,0.1,0c0.3-0.3,1.3-0.5,2.9-0.8c2-0.2,4.5-0.3,7.4-0.3c2.9,0,5.4,0.1,7.4,0.4c1.9,0.2,2.9,0.5,3,0.9V8.6z
			"/>
		
			<linearGradient id="SVGID_4_" gradientUnits="userSpaceOnUse" x1="24.6616" y1="10.085" x2="45.9678" y2="10.085" gradientTransform="matrix(1 2.347411e-003 5.434882e-003 1 2.4948 0.7198)">
			<stop  offset="0" style="stop-color:#FFFFFF;stop-opacity:0.298"/>
			<stop  offset="0.6549" style="stop-color:#FFFFFF;stop-opacity:0"/>
			<stop  offset="1" style="stop-color:#FFFFFF;stop-opacity:0.5255"/>
		</linearGradient>
		<path fill-rule="evenodd" clip-rule="evenodd" fill="url(#SVGID_4_)" d="M45.6,12.8c-0.1,0-0.2,0-0.3,0c0,0-0.1,0-0.1,0
			c-2,0.3-4.5,0.4-7.4,0.4c-2.9,0-5.3-0.2-7.4-0.5c-0.4,0-0.8-0.1-1.1-0.2c0,0-0.1,0-0.1,0c-0.9-0.2-1.5-0.3-1.7-0.5
			c-0.5-0.9-0.5-2-0.1-3.5c0,0,0,0.1,0.1,0.2c0.3,0.3,1.3,0.5,2.9,0.7c2,0.3,4.5,0.5,7.4,0.5c2.9,0,5.4-0.2,7.4-0.5
			c1.9-0.2,3-0.5,3.1-0.9c0.3,1,0.3,2.1,0,3.4C48.1,12.3,47.2,12.5,45.6,12.8z"/>
		
			<radialGradient id="SVGID_5_" cx="36.064" cy="112.4668" r="92.4503" gradientTransform="matrix(1 2.433741e-003 7.571638e-003 1.7062 1.6846 -78.6757)" gradientUnits="userSpaceOnUse">
			<stop  offset="0" style="stop-color:#FFFFFF;stop-opacity:0"/>
			<stop  offset="1" style="stop-color:#CCCCCC;stop-opacity:0.2824"/>
		</radialGradient>
		<path fill-rule="evenodd" clip-rule="evenodd" fill="url(#SVGID_5_)" d="M45.3,12.8l0.1,10.9l-1.1,0H29.5l-0.1-11.1
			c0.3,0.1,0.7,0.1,1.1,0.2c2,0.3,4.5,0.5,7.4,0.5C40.8,13.2,43.2,13.1,45.3,12.8C45.2,12.8,45.3,12.8,45.3,12.8z"/>
		
			<radialGradient id="SVGID_6_" cx="17.6504" cy="77.2861" r="52.9751" gradientTransform="matrix(1 2.359597e-003 1.156203e-002 2.6387 1.4564 -125.9284)" gradientUnits="userSpaceOnUse">
			<stop  offset="0" style="stop-color:#595959"/>
			<stop  offset="1" style="stop-color:#FFFFFF;stop-opacity:0.5176"/>
		</radialGradient>
		<path fill-rule="evenodd" clip-rule="evenodd" fill="url(#SVGID_6_)" d="M29.4,12.6l0.1,11.1h-0.1l-0.1-11.1
			C29.3,12.6,29.4,12.6,29.4,12.6z M45.4,23.7l-0.1-10.9c0.1,0,0.2,0,0.3,0l0,10.9H45.4z"/>
		
			<path fill-rule="evenodd" clip-rule="evenodd" fill="none" stroke="#FFFFFF" stroke-width="0.2" stroke-linecap="round" stroke-linejoin="round" stroke-miterlimit="3" stroke-opacity="0.7059" d="
			M27.5,8.6L27.5,8.6c0-0.1,0-0.2,0-0.2c0,0,0,0,0-0.1c0,0,0.1,0,0.1,0c0.3-0.3,1.3-0.5,2.9-0.8c2-0.2,4.5-0.3,7.4-0.3
			c2.9,0,5.4,0.1,7.4,0.4c1.9,0.2,2.9,0.5,3,0.9v0.1c0.3,1,0.3,2.1,0,3.4c-0.2,0.3-1,0.6-2.6,0.8 M48.3,8.6
			c-0.1,0.3-1.2,0.6-3.1,0.9c-2,0.3-4.5,0.5-7.4,0.5c-2.9,0-5.3-0.2-7.4-0.5c-1.6-0.2-2.6-0.4-2.9-0.7c-0.1-0.1-0.1-0.1-0.1-0.2
			c-0.4,1.4-0.3,2.6,0.1,3.5c0.2,0.2,0.8,0.4,1.7,0.5c0,0,0.1,0,0.1,0c0.3,0.1,0.7,0.1,1.1,0.2c2,0.3,4.5,0.5,7.4,0.5
			c2.9,0,5.4-0.1,7.4-0.4c0,0,0.1,0,0.1,0c0.1,0,0.2,0,0.3,0"/>
	</g>
	<g>
		
			<linearGradient id="SVGID_7_" gradientUnits="userSpaceOnUse" x1="265.542" y1="-544.3662" x2="348.1584" y2="-544.3662" gradientTransform="matrix(0.404 0.9148 -0.8541 0.5413 -572.6466 66.6144)">
			<stop  offset="0" style="stop-color:#FFFFFF"/>
			<stop  offset="1" style="stop-color:#FFFFFF;stop-opacity:0"/>
		</linearGradient>
		<path fill-rule="evenodd" clip-rule="evenodd" fill="url(#SVGID_7_)" d="M10.8,109.3c-0.3-2.2-0.1-5.3,0.6-9.3l18.9-51
			c2.2,0.7,4.3,1.1,6.3,1.2c-0.2,0.6-0.3,1.3-0.3,2.2l-8.4,47.3c-2.1,2.7-5.9,6-11.3,9.6L10.8,109.3z M44.1,51.3
			c-0.5-0.6-0.9-1.1-1.4-1.5c0.8-0.2,1.6-0.5,2.4-0.8c5.6,13.4,9.4,23,11.4,28.6c-0.6-0.8-1.1-1.5-1.6-2.1L44.1,51.3z"/>
		<linearGradient id="SVGID_8_" gradientUnits="userSpaceOnUse" x1="39.5249" y1="140.8916" x2="39.1368" y2="118.3164">
			<stop  offset="0" style="stop-color:#FFFFFF"/>
			<stop  offset="1" style="stop-color:#FFFFFF;stop-opacity:0"/>
		</linearGradient>
		<path fill-rule="evenodd" clip-rule="evenodd" fill="url(#SVGID_8_)" d="M10.8,118.3c20.7,2.5,37.7-0.6,51-9.3
			c7.4,2.6,7.5,6.8,0.4,12.4c-0.1,0.1-0.2,0.2-0.3,0.3c-16.5,4.5-30,5.3-40.4,2.1c-2.4-0.7-4.5-1.5-6.3-2.4
			C13.3,120.5,11.8,119.5,10.8,118.3z"/>
		
			<linearGradient id="SVGID_9_" gradientUnits="userSpaceOnUse" x1="84.1953" y1="-827" x2="164.1745" y2="-827" gradientTransform="matrix(-6.689244e-002 0.9978 -0.995 -0.1079 -779.9777 -206.2161)">
			<stop  offset="0" style="stop-color:#FFFFFF"/>
			<stop  offset="1" style="stop-color:#FFFFFF;stop-opacity:0"/>
		</linearGradient>
		<polygon fill-rule="evenodd" clip-rule="evenodd" fill="url(#SVGID_9_)" points="34.1,12.4 34.3,46.7 32,46.6 31.9,12.3 		"/>
	</g>
	<g>
		
			<radialGradient id="SVGID_10_" cx="14.6958" cy="82.1016" r="24.8354" fx="28.7205" fy="82.1016" gradientTransform="matrix(1 2.520154e-003 5.544338e-003 1.2041 2.0363 -15.9862)" gradientUnits="userSpaceOnUse">
			<stop  offset="0" style="stop-color:#FFFFFF"/>
			<stop  offset="1" style="stop-color:#FFFFFF;stop-opacity:0"/>
		</radialGradient>
		<path fill-rule="evenodd" clip-rule="evenodd" fill="url(#SVGID_10_)" d="M6.5,110c-0.1-0.1-0.1-0.3,0-0.4L27,55.9
			c0.1-0.1,0.2-0.2,0.3-0.3c0.1-0.1,0.2-0.1,0.4,0c0.1,0,0.2,0.1,0.3,0.3c0,0.1,0,0.2,0,0.3L7.4,110c-0.1,0.1-0.1,0.2-0.3,0.3
			c-0.1,0-0.3,0-0.4,0S6.5,110.1,6.5,110z"/>
		
			<radialGradient id="SVGID_11_" cx="25.7314" cy="113.0195" r="18.8626" gradientTransform="matrix(1 2.650753e-003 5.301507e-003 1.2041 1.9194 -22.254)" gradientUnits="userSpaceOnUse">
			<stop  offset="0" style="stop-color:#FFFFFF;stop-opacity:0.6314"/>
			<stop  offset="1" style="stop-color:#FFFFFF;stop-opacity:0"/>
		</radialGradient>
		<path fill-rule="evenodd" clip-rule="evenodd" fill="url(#SVGID_11_)" d="M9.3,116.5c-0.1-0.1-0.1-0.2,0-0.3
			c1.5-4.9,13.9-7.4,37.4-7.6c0.1,0,0.2,0,0.3,0.2c0.1,0.1,0.1,0.2,0.1,0.3c0,0.1,0,0.2-0.1,0.3c-0.1,0.1-0.2,0.2-0.3,0.2
			c-22.9,0.2-35,2.5-36.5,7c-0.1,0.1-0.2,0.2-0.3,0.3c-0.1,0.1-0.3,0.1-0.4,0C9.5,116.7,9.4,116.6,9.3,116.5z"/>
		
			<radialGradient id="SVGID_12_" cx="30.8857" cy="8.0371" r="3.7875" fx="33.0246" fy="8.0371" gradientTransform="matrix(1 3.300312e-003 6.600624e-003 1.2013 2.5114 -0.6073)" gradientUnits="userSpaceOnUse">
			<stop  offset="0" style="stop-color:#FFFFFF"/>
			<stop  offset="1" style="stop-color:#FFFFFF;stop-opacity:0"/>
		</radialGradient>
		<path fill-rule="evenodd" clip-rule="evenodd" fill="url(#SVGID_12_)" d="M39.5,8.7c0.1,0,0.2,0,0.3,0.1s0.1,0.2,0.1,0.3
			c0,0.1,0,0.2-0.1,0.4c-0.1,0.1-0.2,0.1-0.3,0.1h0l-0.3,0.1c-0.1,0-0.3-0.1-0.4-0.2c-0.1-0.1-0.1-0.2-0.1-0.3c0-0.1,0-0.3,0.1-0.4
			c0.1-0.1,0.2-0.1,0.3-0.1l0.3,0H39.5z"/>
		
			<radialGradient id="SVGID_13_" cx="28.1055" cy="28.3477" r="13.5599" fx="35.7628" fy="28.3477" gradientTransform="matrix(1 2.770073e-003 5.540146e-003 1.2031 2.0873 -4.9092)" gradientUnits="userSpaceOnUse">
			<stop  offset="0" style="stop-color:#FFFFFF"/>
			<stop  offset="1" style="stop-color:#FFFFFF;stop-opacity:0"/>
		</radialGradient>
		<path fill-rule="evenodd" clip-rule="evenodd" fill="url(#SVGID_13_)" d="M30.3,12.7c0.1,0,0.3,0,0.4,0.1c0.1,0.1,0.1,0.2,0.1,0.3
			L31,45.4c0,0.1-0.1,0.3-0.2,0.3c-0.1,0.1-0.2,0.1-0.3,0.1s-0.3,0-0.4-0.1C30,45.7,30,45.5,30,45.4l-0.1-32.3c0-0.1,0-0.2,0.1-0.3
			C30,12.8,30.2,12.7,30.3,12.7z"/>
		
			<radialGradient id="SVGID_14_" cx="42.7749" cy="29.6797" r="15.0391" fx="51.2676" fy="29.6797" gradientTransform="matrix(1 2.493758e-003 4.987516e-003 1.2037 1.8771 -5.2808)" gradientUnits="userSpaceOnUse">
			<stop  offset="0" style="stop-color:#FFFFFF"/>
			<stop  offset="1" style="stop-color:#FFFFFF;stop-opacity:0"/>
		</radialGradient>
		<path fill-rule="evenodd" clip-rule="evenodd" fill="url(#SVGID_14_)" d="M44.7,12.2c0.1,0,0.3,0,0.3,0.1c0.1,0.1,0.1,0.2,0.1,0.3
			l0.1,35.9c0,0.1,0,0.3-0.1,0.3C45.1,48.9,45,49,44.9,49s-0.3,0-0.4-0.2c-0.1-0.1-0.1-0.2-0.1-0.3l-0.1-35.9c0-0.1,0-0.2,0.1-0.3
			C44.5,12.2,44.6,12.2,44.7,12.2z"/>
		
			<radialGradient id="SVGID_15_" cx="53.75" cy="78.6328" r="23.9249" gradientTransform="matrix(1 2.615054e-003 5.230108e-003 1.2034 1.9253 -15.1956)" gradientUnits="userSpaceOnUse">
			<stop  offset="0" style="stop-color:#FFFFFF"/>
			<stop  offset="1" style="stop-color:#FFFFFF;stop-opacity:0"/>
		</radialGradient>
		<path fill-rule="evenodd" clip-rule="evenodd" fill="url(#SVGID_15_)" d="M45.4,53.3c0.1-0.1,0.3-0.1,0.4,0c0.1,0,0.2,0.1,0.3,0.3
			l21,51.8c0.1,0.1,0.1,0.2,0,0.4c0,0.1-0.1,0.2-0.3,0.3c-0.1,0.1-0.3,0.1-0.3,0c-0.1,0-0.2-0.1-0.3-0.3L45.1,53.8
			c0-0.1,0-0.3,0-0.3C45.2,53.4,45.3,53.3,45.4,53.3z"/>
		
			<radialGradient id="SVGID_16_" cx="63.6709" cy="112.79" r="3.525" gradientTransform="matrix(1 3.546077e-003 3.546077e-003 1.2057 1.2798 -22.1129)" gradientUnits="userSpaceOnUse">
			<stop  offset="0" style="stop-color:#FFFFFF"/>
			<stop  offset="1" style="stop-color:#FFFFFF;stop-opacity:0"/>
		</radialGradient>
		<path fill-rule="evenodd" clip-rule="evenodd" fill="url(#SVGID_16_)" d="M63.2,110.2c0.1-0.1,0.2-0.1,0.3-0.1
			c3,0.8,4.9,1.8,5.5,3.1c0.8,1.3,0.3,2.9-1.4,4.8c-0.1,0.1-0.2,0.1-0.4,0.1c-0.1,0-0.3,0-0.3-0.1c-0.1-0.1-0.2-0.2-0.2-0.3
			c0-0.1,0-0.3,0.2-0.4c1.3-1.4,1.8-2.6,1.3-3.6c-0.6-1.1-2.3-1.9-5-2.6c-0.1-0.1-0.2-0.1-0.3-0.3c-0.1-0.1-0.1-0.2,0-0.3
			C63,110.3,63,110.2,63.2,110.2z"/>
	</g>
</g>
</svg>
