<?xml version="1.0" encoding="utf-8"?>
<!-- Generator: Adobe Illustrator 16.0.0, SVG Export Plug-In . SVG Version: 6.00 Build 0)  -->
<!DOCTYPE svg PUBLIC "-//W3C//DTD SVG 1.1//EN" "http://www.w3.org/Graphics/SVG/1.1/DTD/svg11.dtd">
<svg version="1.1" xmlns="http://www.w3.org/2000/svg" xmlns:xlink="http://www.w3.org/1999/xlink" x="0px" y="0px" width="98.33px"
	 height="150px" viewBox="0 0 98.33 150" enable-background="new 0 0 98.33 150" xml:space="preserve">
<g id="Layer_1">
</g>
<g id="Layer_2">
	<g>
		<g>
			<radialGradient id="SVGID_1_" cx="48.8501" cy="75.417" r="77.7375" gradientUnits="userSpaceOnUse">
				<stop  offset="0" style="stop-color:#000000;stop-opacity:0.0627"/>
				<stop  offset="1" style="stop-color:#FFFFFF;stop-opacity:0.4627"/>
			</radialGradient>
			<path fill-rule="evenodd" clip-rule="evenodd" fill="url(#SVGID_1_)" d="M39.35,2.67c0.03,0,0.08,0,0.15,0
				c0.17-0.03,0.37-0.05,0.58-0.05h0.17l0.3-0.1c0.1,0,0.22,0,0.35,0c0.03,0,0.07,0,0.1,0c2.09-0.1,3.77-0.2,5.05-0.3
				c0.2,0,0.38,0,0.55,0c0.6-0.03,1.23-0.05,1.9-0.05h0.05c0.07,0,0.12,0.02,0.15,0.05c1.47,0.07,4.75,0.27,9.85,0.6
				c1.37,0.2,2.38,0.43,3.05,0.7c0.3,0.1,0.55,0.2,0.75,0.3c0,0.03,0.03,0.05,0.1,0.05c0.2,0.1,0.32,0.23,0.35,0.4
				c-0.03-0.03-0.08-0.05-0.15-0.05H62.6l-0.1,0.05v0.25c-0.03-0.1-0.13-0.2-0.3-0.3l-0.05-0.1c-0.2-0.1-0.43-0.2-0.7-0.3
				c-0.6-0.2-1.58-0.4-2.95-0.6c-0.7-0.07-1.35-0.12-1.95-0.15c-0.2-0.07-0.42-0.1-0.65-0.1c-1.03-0.1-2.13-0.17-3.3-0.2
				c-0.57-0.07-1.1-0.1-1.6-0.1c-0.4,0-0.83,0-1.3,0c-0.57-0.03-1-0.05-1.3-0.05h-0.15v-0.1c-0.53,0-1.08,0.03-1.65,0.1
				c-0.17,0-0.35,0-0.55,0c-0.3,0-0.65,0.02-1.05,0.05c-1.2,0.07-2.68,0.15-4.45,0.25l-0.3,0.05c-0.27,0-0.5,0.03-0.7,0.1H39.4
				c-0.37,0.13-1.07,0.33-2.1,0.6c-1.23,0.3-2.17,0.73-2.8,1.3c0,0.03,0,0.08,0,0.15l-0.2,0.15c-0.03,0-0.03,0.1,0,0.3
				c0.07,0.3,0.23,0.7,0.5,1.2c0.03,0.07,0.1,0.15,0.2,0.25c0.2,0.1,0.43,0.2,0.7,0.3c0.3,0.1,0.62,0.17,0.95,0.2v0.1h0.1
				c0.07-0.07,0.15-0.1,0.25-0.1c0.03,0,0.08,0.05,0.15,0.15c0.13,0,0.28,0.03,0.45,0.1c0.83,0.1,1.73,0.2,2.7,0.3
				c3.8,0.3,7.13,0.35,10,0.15l0.1,0.05c0.03,0,0.05,0.03,0.05,0.1c0.87-0.07,1.78-0.12,2.75-0.15l1.05-0.1
				c1.1-0.1,2.12-0.22,3.05-0.35c0.1,0,0.2,0,0.3,0l2-0.4c-0.03,0.02-0.05,0.05-0.05,0.1c-0.03,0.03-0.03,0.08,0,0.15v0.05h0.1
				c0,0.07,0.02,0.1,0.05,0.1h-0.05l-1,0.15L58.5,7.97l-0.85,0.15c-0.1,0-0.2,0-0.3,0c-0.97,0.17-2,0.3-3.1,0.4L53.2,8.57
				c-1.07,0.07-2.08,0.12-3.05,0.15c-0.9,0-1.75,0-2.55,0c-2.73,0-5.17-0.1-7.3-0.3h-0.05c-0.97-0.1-1.88-0.2-2.75-0.3h-0.05
				c-0.17-0.03-0.3-0.05-0.4-0.05V7.82c0-0.03-0.02-0.08-0.05-0.15c-0.07-0.03-0.12-0.05-0.15-0.05c-0.07,0-0.13,0.02-0.2,0.05v0.1
				c-0.03,0-0.05,0.02-0.05,0.05l0.05,0.1v0.05L36.6,7.92c-0.4-0.07-0.73-0.15-1-0.25c-0.33-0.13-0.6-0.25-0.8-0.35
				c-0.1-0.1-0.2-0.2-0.3-0.3c-0.33-0.63-0.52-1.1-0.55-1.4c-0.07-0.33-0.02-0.55,0.15-0.65c0-0.1,0.02-0.18,0.05-0.25
				c0-0.03,0.03-0.05,0.1-0.05c0.67-0.63,1.65-1.1,2.95-1.4c1-0.23,1.68-0.43,2.05-0.6H39.35z M60.85,7.47v-0.1
				c0.03-0.03,0.03-0.05,0-0.05v-0.1c0-0.03-0.03-0.05-0.1-0.05H60.7c0.47-0.17,0.87-0.32,1.2-0.45c0.07-0.07,0.12-0.1,0.15-0.1
				c0.1-0.1,0.23-0.18,0.4-0.25h-0.1c0.17-0.1,0.27-0.2,0.3-0.3l0.1-0.05v0.05c-0.07,0-0.1,0.03-0.1,0.1c0,0.03,0.03,0.08,0.1,0.15
				c0,0.03,0.02,0.05,0.05,0.05h0.1c-0.07,0.13-0.15,0.25-0.25,0.35H62.6c-0.1,0.03-0.23,0.1-0.4,0.2l-0.05,0.1
				C61.78,7.15,61.35,7.3,60.85,7.47z M62.5,4.57V4.52h0.1c0.13,0.2,0.25,0.37,0.35,0.5v0.1C62.72,4.85,62.6,4.7,62.6,4.67
				L62.5,4.57z"/>
			<radialGradient id="SVGID_2_" cx="49.0498" cy="5.5674" r="14.8125" gradientUnits="userSpaceOnUse">
				<stop  offset="0" style="stop-color:#FFFFFF;stop-opacity:0.5412"/>
				<stop  offset="0.4863" style="stop-color:#FFFFFF;stop-opacity:0.2627"/>
				<stop  offset="1" style="stop-color:#FFFFFF;stop-opacity:0.651"/>
			</radialGradient>
			<path fill-rule="evenodd" clip-rule="evenodd" fill="url(#SVGID_2_)" d="M60.7,7.17h-0.15c-0.27,0.03-0.52,0.08-0.75,0.15
				c-0.07,0-0.1,0.02-0.1,0.05h-0.1l-2,0.4c-0.1,0-0.2,0-0.3,0c-0.93,0.13-1.95,0.25-3.05,0.35l-1.05,0.1
				c-0.97,0.03-1.88,0.08-2.75,0.15c0-0.07-0.02-0.1-0.05-0.1l-0.1-0.05c-2.87,0.2-6.2,0.15-10-0.15c-0.97-0.1-1.87-0.2-2.7-0.3
				c-0.17-0.07-0.32-0.1-0.45-0.1c-0.07-0.1-0.12-0.15-0.15-0.15c-0.1,0-0.18,0.03-0.25,0.1h-0.1v-0.1c-0.33-0.03-0.65-0.1-0.95-0.2
				c-0.27-0.1-0.5-0.2-0.7-0.3c-0.1-0.1-0.17-0.18-0.2-0.25c-0.27-0.5-0.43-0.9-0.5-1.2c-0.03-0.2-0.03-0.3,0-0.3l0.2-0.15
				c0-0.07,0-0.12,0-0.15c0.63-0.57,1.57-1,2.8-1.3c1.03-0.27,1.73-0.47,2.1-0.6h0.15c0.2-0.07,0.43-0.1,0.7-0.1l0.3-0.05
				c1.77-0.1,3.25-0.18,4.45-0.25c0.4-0.03,0.75-0.05,1.05-0.05c0.2,0,0.38,0,0.55,0c0.57-0.07,1.12-0.1,1.65-0.1v0.1h0.15
				c0.3,0,0.73,0.02,1.3,0.05c-0.33,0-0.68,0-1.05,0c-0.7,0-1.35,0-1.95,0c-0.63,0-1.2,0-1.7,0c-0.23,0.07-0.45,0.1-0.65,0.1
				c-1.07,0.03-2.07,0.1-3,0.2c-1.4,0.17-2.33,0.35-2.8,0.55c-0.3,0.13-0.42,0.28-0.35,0.45c-0.07,0.27,0.25,0.47,0.95,0.6
				c0.67,0.17,1.4,0.3,2.2,0.4c1.9,0.2,4.33,0.3,7.3,0.3c1.47,0,2.83-0.03,4.1-0.1h0.75c0.9-0.03,1.7-0.1,2.4-0.2
				c1.03-0.1,1.8-0.23,2.3-0.4c0.67-0.13,0.97-0.33,0.9-0.6c0.07-0.27-0.17-0.45-0.7-0.55c-0.4-0.13-1.02-0.25-1.85-0.35
				c0.6,0.03,1.25,0.08,1.95,0.15c1.37,0.2,2.35,0.4,2.95,0.6c0.27,0.1,0.5,0.2,0.7,0.3l0.05,0.1c0.17,0.1,0.27,0.2,0.3,0.3V4.27
				l0.1-0.05c0.03,0.03,0.05,0.08,0.05,0.15v0.05l0.1,0.1c0,0.03,0.12,0.18,0.35,0.45l0.1,0.05c0.2,0.27,0.15,0.57-0.15,0.9
				c-0.07-0.03-0.12-0.03-0.15,0h-0.1l-0.05,0.1l-0.1,0.05c-0.03,0.1-0.13,0.2-0.3,0.3h0.1c-0.17,0.07-0.3,0.15-0.4,0.25
				c-0.03,0-0.08,0.03-0.15,0.1C61.57,6.85,61.17,7,60.7,7.17z M62.5,4.57l0.1,0.1c0,0.03,0.12,0.18,0.35,0.45v-0.1
				c-0.1-0.13-0.22-0.3-0.35-0.5h-0.1V4.57z"/>
			
				<radialGradient id="SVGID_3_" cx="48.7998" cy="25.7168" r="47.4" gradientTransform="matrix(1 0 0 1.5467 0 -14.0588)" gradientUnits="userSpaceOnUse">
				<stop  offset="0" style="stop-color:#000000;stop-opacity:0.0627"/>
				<stop  offset="1" style="stop-color:#FFFFFF;stop-opacity:0.4627"/>
			</radialGradient>
			<path fill-rule="evenodd" clip-rule="evenodd" fill="url(#SVGID_3_)" d="M46.05,2.22c-1.28,0.1-2.96,0.2-5.05,0.3
				c0.09-0.01,0.19-0.03,0.3-0.05C42.77,2.37,44.35,2.28,46.05,2.22z M48.55,2.17c1.44,0,2.79,0.05,4.05,0.15
				c1.2,0.03,2.3,0.1,3.3,0.2c0.97,0.07,1.85,0.17,2.65,0.3c-5.1-0.33-8.38-0.53-9.85-0.6C48.67,2.19,48.62,2.17,48.55,2.17z
				 M39.35,2.67c0.03-0.03,0.08-0.05,0.15-0.05c0.17,0,0.37,0,0.58,0c-0.21,0-0.4,0.02-0.58,0.05C39.43,2.67,39.38,2.67,39.35,2.67z
				"/>
			
				<radialGradient id="SVGID_4_" cx="48.6465" cy="5.4668" r="14.7798" gradientTransform="matrix(1 0 0 0.2242 0 4.2412)" gradientUnits="userSpaceOnUse">
				<stop  offset="0" style="stop-color:#000000;stop-opacity:0.0627"/>
				<stop  offset="0.9725" style="stop-color:#F6F6F6;stop-opacity:0.4824"/>
				<stop  offset="1" style="stop-color:#FFFFFF"/>
			</radialGradient>
			<path fill-rule="evenodd" clip-rule="evenodd" fill="url(#SVGID_4_)" d="M56.55,3.07c0.83,0.1,1.45,0.22,1.85,0.35
				c0.53,0.1,0.77,0.28,0.7,0.55c0.07,0.27-0.23,0.47-0.9,0.6c-0.5,0.17-1.27,0.3-2.3,0.4c-0.7,0.1-1.5,0.17-2.4,0.2h-0.75
				c-1.27,0.07-2.63,0.1-4.1,0.1c-2.97,0-5.4-0.1-7.3-0.3c-0.8-0.1-1.53-0.23-2.2-0.4c-0.7-0.13-1.02-0.33-0.95-0.6
				c-0.07-0.17,0.05-0.32,0.35-0.45c0.47-0.2,1.4-0.38,2.8-0.55c0.93-0.1,1.93-0.17,3-0.2c0.2,0,0.42-0.03,0.65-0.1
				c0.5,0,1.07,0,1.7,0c0.6,0,1.25,0,1.95,0c0.37,0,0.72,0,1.05,0c0.47,0,0.9,0,1.3,0c0.5,0,1.03,0.03,1.6,0.1
				c1.17,0.03,2.27,0.1,3.3,0.2C56.13,2.97,56.35,3,56.55,3.07z M38.7,3.87l-0.15,0.1c0,0.03,0.23,0.12,0.7,0.25
				c0.67,0.13,1.37,0.25,2.1,0.35c1.9,0.2,4.33,0.3,7.3,0.3c1.47,0,2.8-0.02,4-0.05h0.85c0.87-0.07,1.65-0.15,2.35-0.25
				c1-0.13,1.75-0.25,2.25-0.35c0.43-0.13,0.65-0.22,0.65-0.25c0-0.07-0.13-0.12-0.4-0.15h-0.1c-0.43-0.17-1.23-0.32-2.4-0.45
				c-1-0.1-2.08-0.18-3.25-0.25c-0.57-0.03-1.1-0.05-1.6-0.05c-0.77,0-1.55,0-2.35,0c-0.7,0-1.35,0-1.95,0c-0.63,0-1.2,0-1.7,0
				c-0.23,0.03-0.43,0.05-0.6,0.05h-0.05c-1.07,0.07-2.07,0.15-3,0.25C40.05,3.5,39.17,3.67,38.7,3.87z"/>
			<radialGradient id="SVGID_5_" cx="48.2002" cy="3.7168" r="10.7" gradientUnits="userSpaceOnUse">
				<stop  offset="0" style="stop-color:#FFFFFF;stop-opacity:0"/>
				<stop  offset="1" style="stop-color:#CCCCCC;stop-opacity:0.2824"/>
			</radialGradient>
			<path fill-rule="evenodd" clip-rule="evenodd" fill="url(#SVGID_5_)" d="M38.7,3.87c0.47-0.2,1.35-0.37,2.65-0.5
				c0.93-0.1,1.93-0.18,3-0.25h0.05c0.17,0,0.37-0.02,0.6-0.05c0.5,0,1.07,0,1.7,0c0.6,0,1.25,0,1.95,0c0.8,0,1.58,0,2.35,0
				c0.5,0,1.03,0.02,1.6,0.05c1.17,0.07,2.25,0.15,3.25,0.25c1.17,0.13,1.97,0.28,2.4,0.45h0.1c0.27,0.03,0.4,0.08,0.4,0.15
				c0,0.03-0.22,0.12-0.65,0.25c-0.5,0.1-1.25,0.22-2.25,0.35c-0.7,0.1-1.48,0.18-2.35,0.25h-0.85c-1.2,0.03-2.53,0.05-4,0.05
				c-2.97,0-5.4-0.1-7.3-0.3c-0.73-0.1-1.43-0.22-2.1-0.35c-0.47-0.13-0.7-0.22-0.7-0.25L38.7,3.87z"/>
			<radialGradient id="SVGID_6_" cx="48.8501" cy="75.417" r="77.7375" gradientUnits="userSpaceOnUse">
				<stop  offset="0" style="stop-color:#000000;stop-opacity:0.0627"/>
				<stop  offset="0.9725" style="stop-color:#F6F6F6;stop-opacity:0.4824"/>
				<stop  offset="1" style="stop-color:#FFFFFF"/>
			</radialGradient>
			<path fill-rule="evenodd" clip-rule="evenodd" fill="url(#SVGID_6_)" d="M37.05,7.82L37,7.92c-0.07,0.03-0.12,0.05-0.15,0.05
				c-0.07,0-0.13-0.02-0.2-0.05l-0.05-0.1c0-0.03,0.02-0.05,0.05-0.05v-0.1c0.07-0.03,0.13-0.05,0.2-0.05
				c0.03,0,0.08,0.02,0.15,0.05C37.03,7.73,37.05,7.78,37.05,7.82z M60.4,7.62C60.2,7.65,60,7.7,59.8,7.77h-0.1
				c-0.03,0-0.05-0.03-0.05-0.1h-0.1V7.62c-0.03-0.07-0.03-0.12,0-0.15c0-0.04,0.02-0.08,0.05-0.1h0.1c0-0.03,0.03-0.05,0.1-0.05
				c0.23-0.07,0.48-0.12,0.75-0.15h0.15h0.05c0.07,0,0.1,0.02,0.1,0.05v0.1c0.03,0,0.03,0.02,0,0.05v0.1h-0.1
				c-0.03,0.03-0.08,0.05-0.15,0.05C60.5,7.52,60.43,7.55,60.4,7.62z M62.9,6.37h-0.1c-0.03,0-0.05-0.02-0.05-0.05
				c-0.07-0.07-0.1-0.12-0.1-0.15c0-0.07,0.03-0.1,0.1-0.1V6.02l0.05-0.1h0.1c0.03-0.03,0.08-0.03,0.15,0c0.03,0,0.05,0.03,0.05,0.1
				c0,0.03,0,0.08,0,0.15c-0.03,0.03-0.05,0.08-0.05,0.15h-0.1v0.05H62.9z M62.83,4.29c0.15,0.16,0.28,0.3,0.38,0.42
				c-0.2-0.13-0.3-0.23-0.3-0.3C62.9,4.39,62.88,4.34,62.83,4.29z"/>
			
				<radialGradient id="SVGID_7_" cx="22.6001" cy="69.9668" r="78.2125" gradientTransform="matrix(1 0 0 1.5461 0 -38.2095)" gradientUnits="userSpaceOnUse">
				<stop  offset="0" style="stop-color:#595959"/>
				<stop  offset="1" style="stop-color:#FFFFFF;stop-opacity:0.5412"/>
			</radialGradient>
			<path fill-rule="evenodd" clip-rule="evenodd" fill="url(#SVGID_7_)" d="M60.4,7.62c0.03-0.07,0.1-0.1,0.2-0.1
				c0.07,0,0.12-0.02,0.15-0.05v40.55c0.07,0.03,0.1,0.08,0.1,0.15c-0.27,2.9,0.53,6,2.4,9.3L96,125.97v0.1c0,0.03,0,0.08,0,0.15
				c0.4,2.67,0.25,5.12-0.45,7.35c-2.07,6.57-9.12,10.78-21.15,12.65c-21.57,3.63-40.38,3.35-56.45-0.85
				c-0.1-0.03-0.2-0.08-0.3-0.15c-0.27-0.03-0.5-0.08-0.7-0.15c-7.93-2.17-12.8-6-14.6-11.5c-0.8-2.4-1.03-5.08-0.7-8.05v-0.15
				c0-0.07,0.03-0.1,0.1-0.1l32.75-67.2c1.5-3.43,2.2-6.67,2.1-9.7c0-0.03,0.02-0.05,0.05-0.05V7.97V7.92
				c0.07,0.03,0.13,0.05,0.2,0.05c0.03,0,0.08-0.02,0.15-0.05l0.05-0.1v0.25v40.25L37,48.37c0.1,3.1-0.62,6.38-2.15,9.85
				l-32.8,67.25c0,0.03,0,0.08,0,0.15c-0.37,2.87-0.15,5.47,0.65,7.8c1.8,5.4,6.58,9.18,14.35,11.35v-0.1
				c0.27,0.07,0.52,0.15,0.75,0.25c0.07,0,0.15,0.03,0.25,0.1c16.07,4.17,34.83,4.43,56.3,0.8c11.8-1.8,18.77-5.93,20.9-12.4
				c0.67-2.13,0.8-4.52,0.4-7.15c0-0.03,0-0.08,0-0.15L62.9,57.72h0.05c-1.9-3.4-2.73-6.58-2.5-9.55c-0.03-0.07-0.05-0.12-0.05-0.15
				V7.62z"/>
			<radialGradient id="SVGID_8_" cx="49.7998" cy="100.417" r="136.4625" gradientUnits="userSpaceOnUse">
				<stop  offset="0" style="stop-color:#FFFFFF;stop-opacity:0"/>
				<stop  offset="1" style="stop-color:#CCCCCC;stop-opacity:0.2824"/>
			</radialGradient>
			<path fill-rule="evenodd" clip-rule="evenodd" fill="url(#SVGID_8_)" d="M59.7,7.77h0.1c0.2-0.07,0.4-0.12,0.6-0.15v40.4
				c0,0.03,0.02,0.08,0.05,0.15c-0.23,2.97,0.6,6.15,2.5,9.55H62.9l32.75,68.4c0,0.07,0,0.12,0,0.15c0.4,2.63,0.27,5.02-0.4,7.15
				c-2.13,6.47-9.1,10.6-20.9,12.4c-21.47,3.63-40.23,3.37-56.3-0.8c-0.1-0.07-0.18-0.1-0.25-0.1c-0.23-0.1-0.48-0.18-0.75-0.25v0.1
				C9.28,142.6,4.5,138.82,2.7,133.42c-0.8-2.33-1.02-4.93-0.65-7.8c0-0.07,0-0.12,0-0.15l32.8-67.25c1.53-3.47,2.25-6.75,2.15-9.85
				l0.05-0.05V8.07c0.1,0,0.23,0.02,0.4,0.05h0.05c0.87,0.1,1.78,0.2,2.75,0.3h0.05c2.13,0.2,4.57,0.3,7.3,0.3c0.8,0,1.65,0,2.55,0
				c0.97-0.03,1.98-0.08,3.05-0.15l1.05-0.05c1.1-0.1,2.13-0.23,3.1-0.4c0.1,0,0.2,0,0.3,0l0.85-0.15l0.15-0.05l1-0.15H59.7z"/>
		</g>
		<g>
			<radialGradient id="SVGID_9_" cx="44.3999" cy="55.0674" r="12.0625" fx="51.2117" fy="55.0674" gradientUnits="userSpaceOnUse">
				<stop  offset="0" style="stop-color:#FFFFFF"/>
				<stop  offset="1" style="stop-color:#FFFFFF;stop-opacity:0"/>
			</radialGradient>
			<path fill-rule="evenodd" clip-rule="evenodd" fill="url(#SVGID_9_)" d="M37.3,53.77c-0.07-0.1-0.07-0.2,0-0.3
				c0.03-0.1,0.1-0.18,0.2-0.25c0.1-0.03,0.2-0.03,0.3,0c6.13,2.07,13.27,2.12,21.4,0.15c0.1-0.03,0.2-0.03,0.3,0
				c0.03,0.07,0.08,0.17,0.15,0.3c0,0.07-0.03,0.15-0.1,0.25c-0.03,0.1-0.1,0.17-0.2,0.2c-8.3,1.97-15.58,1.9-21.85-0.2
				C37.4,53.85,37.33,53.8,37.3,53.77z"/>
			<radialGradient id="SVGID_10_" cx="49.3501" cy="124.3672" r="34.25" gradientUnits="userSpaceOnUse">
				<stop  offset="0" style="stop-color:#333333;stop-opacity:0.5529"/>
				<stop  offset="1" style="stop-color:#000000;stop-opacity:0"/>
			</radialGradient>
			<path fill-rule="evenodd" clip-rule="evenodd" fill="url(#SVGID_10_)" d="M14.25,129.67c-0.07,0-0.1-0.02-0.1-0.05
				c0-0.07,0-0.12,0-0.15c0.07-0.07,0.12-0.1,0.15-0.1c0.47-0.13,0.95-0.28,1.45-0.45c0.07-0.03,0.12-0.03,0.15,0
				c0.07,0,0.1,0.03,0.1,0.1h0.05v0.05c0,0.07-0.02,0.1-0.05,0.1c0,0.03-0.03,0.08-0.1,0.15c-0.5,0.13-0.98,0.28-1.45,0.45H14.3
				L14.25,129.67z M85.8,128.02v-0.05c0.03,0,0.08,0,0.15,0c1.77,0.4,3.25,0.85,4.45,1.35c0.07,0,0.12,0.02,0.15,0.05
				c0,0.07,0,0.12,0,0.15c-0.03,0.07-0.08,0.12-0.15,0.15c-0.03,0-0.08,0-0.15,0c-0.37-0.12-0.74-0.26-1.1-0.4l-0.1-0.05
				c-0.2-0.1-0.4-0.17-0.6-0.2c-0.2-0.07-0.4-0.12-0.6-0.15c-0.63-0.2-1.3-0.38-2-0.55c-0.03,0-0.05-0.02-0.05-0.05
				c-0.07-0.07-0.1-0.12-0.1-0.15C85.7,128.05,85.73,128.02,85.8,128.02z"/>
			
				<linearGradient id="SVGID_11_" gradientUnits="userSpaceOnUse" x1="6.0737" y1="142.3887" x2="93.8457" y2="142.3887" gradientTransform="matrix(0.9997 -0.0225 0 1.0003 -0.0717 -6.2852)">
				<stop  offset="0" style="stop-color:#FFFFFF;stop-opacity:0.0824"/>
				<stop  offset="1" style="stop-color:#FFFFFF;stop-opacity:0"/>
			</linearGradient>
			<path fill-rule="evenodd" clip-rule="evenodd" fill="url(#SVGID_11_)" d="M85.7,128.12c0,0.03,0.03,0.08,0.1,0.15
				c0,0.03,0.02,0.05,0.05,0.05c0.7,0.17,1.37,0.35,2,0.55c3.93,1.47,5.9,3.18,5.9,5.15c0,2.87-4.3,5.42-12.9,7.65
				c-8.53,2.27-18.87,3.55-31,3.85c-12.13,0.27-22.48-0.53-31.05-2.4C10.27,141.28,6,138.9,6,135.97c0-0.3,0.05-0.6,0.15-0.9
				c0.03,0,0.08,0,0.15,0c0-0.07,0.02-0.12,0.05-0.15c0-0.07-0.02-0.12-0.05-0.15c0.8-1.83,3.45-3.53,7.95-5.1l0.05,0.1h0.15
				c0.47-0.17,0.95-0.32,1.45-0.45c0.07-0.07,0.1-0.12,0.1-0.15c0.03,0,0.05-0.03,0.05-0.1c0.87-0.23,1.78-0.48,2.75-0.75
				c8.57-2.27,18.92-3.53,31.05-3.8c12.13-0.3,22.47,0.48,31,2.35C82.68,127.27,84.3,127.68,85.7,128.12z"/>
			<linearGradient id="SVGID_12_" gradientUnits="userSpaceOnUse" x1="46.3799" y1="118.9766" x2="54.4739" y2="156.3279">
				<stop  offset="0" style="stop-color:#FFFFFF;stop-opacity:0.251"/>
				<stop  offset="0.4706" style="stop-color:#FFFFFF;stop-opacity:0.0275"/>
				<stop  offset="1" style="stop-color:#FFFFFF;stop-opacity:0"/>
			</linearGradient>
			<path fill-rule="evenodd" clip-rule="evenodd" fill="url(#SVGID_12_)" d="M85.8,128.02c-0.07,0-0.1,0.03-0.1,0.1
				c-1.4-0.43-3.02-0.85-4.85-1.25c-8.53-1.87-18.87-2.65-31-2.35c-12.13,0.27-22.48,1.53-31.05,3.8c-0.97,0.27-1.88,0.52-2.75,0.75
				v-0.05H16c0.83-0.3,1.77-0.58,2.8-0.85c8.57-2.23,18.92-3.47,31.05-3.7c12.13-0.3,22.47,0.48,31,2.35
				C82.68,127.15,84.33,127.55,85.8,128.02z M6.2,134.62c0.87-1.83,3.52-3.5,7.95-5c0,0.03,0.03,0.05,0.1,0.05
				c-4.5,1.57-7.15,3.27-7.95,5.1c0-0.07-0.03-0.1-0.1-0.1V134.62z M87.85,128.87c0.2,0.03,0.4,0.08,0.6,0.15
				c0.2,0.03,0.4,0.1,0.6,0.2l0.1,0.05c3.1,1.35,4.65,2.93,4.65,4.75c0,2.93-4.32,5.53-12.95,7.8c-8.53,2.27-18.87,3.53-31,3.8
				c-12.13,0.23-22.48-0.58-31.05-2.45c-8.6-1.8-12.9-4.2-12.9-7.2c0-0.3,0.05-0.6,0.15-0.9h0.1c-0.1,0.3-0.15,0.6-0.15,0.9
				c0,2.93,4.27,5.32,12.8,7.15c8.57,1.87,18.92,2.67,31.05,2.4c12.13-0.3,22.47-1.58,31-3.85c8.6-2.23,12.9-4.78,12.9-7.65
				C93.75,132.05,91.78,130.33,87.85,128.87z"/>
			
				<radialGradient id="SVGID_13_" cx="13.7002" cy="133.7168" r="12.0125" fx="20.4837" fy="133.7168" gradientUnits="userSpaceOnUse">
				<stop  offset="0" style="stop-color:#FFFFFF"/>
				<stop  offset="1" style="stop-color:#FFFFFF;stop-opacity:0"/>
			</radialGradient>
			<path fill-rule="evenodd" clip-rule="evenodd" fill="url(#SVGID_13_)" d="M6.2,134.62v0.05c0.07,0,0.1,0.03,0.1,0.1
				c0.03,0.03,0.05,0.08,0.05,0.15c-0.03,0.03-0.05,0.08-0.05,0.15c-0.07,0-0.12,0-0.15,0h-0.1L6,134.97
				c-2.03-3.07-1.87-6.67,0.5-10.8c0-0.07,0.03-0.1,0.1-0.1c0.03,0,0.08,0,0.15,0c0.03,0.07,0.05,0.12,0.05,0.15
				c0.07,0.07,0.07,0.12,0,0.15C4.53,128.27,4.33,131.68,6.2,134.62z"/>
			<radialGradient id="SVGID_14_" cx="60.1499" cy="5.917" r="2.6125" fx="61.6252" fy="5.917" gradientUnits="userSpaceOnUse">
				<stop  offset="0" style="stop-color:#FFFFFF"/>
				<stop  offset="1" style="stop-color:#FFFFFF;stop-opacity:0"/>
			</radialGradient>
			<path fill-rule="evenodd" clip-rule="evenodd" fill="url(#SVGID_14_)" d="M60.55,4.02h0.05c0.53,0.37,0.82,0.73,0.85,1.1
				c0.17,0.33,0.07,0.63-0.3,0.9c-0.5,0.5-1.73,0.9-3.7,1.2c-0.07,0-0.12-0.02-0.15-0.05c-0.07,0-0.1-0.03-0.1-0.1V6.92
				c0.07-0.03,0.12-0.05,0.15-0.05c1.87-0.33,3.05-0.7,3.55-1.1c0.23-0.2,0.32-0.4,0.25-0.6c-0.1-0.23-0.35-0.5-0.75-0.8l-0.1-0.1
				c0-0.03,0.03-0.08,0.1-0.15C60.4,4.05,60.45,4.02,60.55,4.02z"/>
			
				<radialGradient id="SVGID_15_" cx="51.2998" cy="30.5674" r="18.1125" gradientTransform="matrix(1 0 0 0.8703 0 3.9659)" gradientUnits="userSpaceOnUse">
				<stop  offset="0" style="stop-color:#FFFFFF;stop-opacity:0.498"/>
				<stop  offset="1" style="stop-color:#FFFFFF;stop-opacity:0"/>
			</radialGradient>
			<path fill-rule="evenodd" clip-rule="evenodd" fill="url(#SVGID_15_)" d="M51.6,14.52c0.07,0.1,0.1,0.2,0.1,0.3v31.45
				c0,0.1-0.03,0.2-0.1,0.3c-0.1,0.03-0.2,0.05-0.3,0.05c-0.1,0-0.18-0.02-0.25-0.05c-0.1-0.1-0.15-0.2-0.15-0.3V14.82
				c0-0.1,0.05-0.2,0.15-0.3c0.07-0.07,0.15-0.1,0.25-0.1C51.4,14.42,51.5,14.45,51.6,14.52z"/>
			<radialGradient id="SVGID_16_" cx="78.1504" cy="96.2666" r="39.4875" gradientUnits="userSpaceOnUse">
				<stop  offset="0" style="stop-color:#FFFFFF"/>
				<stop  offset="1" style="stop-color:#FFFFFF;stop-opacity:0"/>
			</radialGradient>
			<path fill-rule="evenodd" clip-rule="evenodd" fill="url(#SVGID_16_)" d="M60.25,59.67l0.05,0.05l31.45,69.65
				c0.07,0.07,0.1,0.12,0.1,0.15c-0.07,0.07-0.12,0.12-0.15,0.15c-0.07,0-0.12,0-0.15,0c-0.07-0.03-0.1-0.08-0.1-0.15l-31.5-69.6
				c0-0.07,0-0.13,0-0.2c0.03-0.03,0.08-0.05,0.15-0.05C60.13,59.6,60.18,59.6,60.25,59.67z"/>
			<radialGradient id="SVGID_17_" cx="56.8496" cy="59.667" r="4.3628" gradientUnits="userSpaceOnUse">
				<stop  offset="0" style="stop-color:#FFFFFF;stop-opacity:0.498"/>
				<stop  offset="1" style="stop-color:#FFFFFF;stop-opacity:0"/>
			</radialGradient>
			<path fill-rule="evenodd" clip-rule="evenodd" fill="url(#SVGID_17_)" d="M54.5,56.32c0-0.13,0.05-0.23,0.15-0.3
				c0.1-0.03,0.2-0.03,0.3,0c0.1,0,0.17,0.05,0.2,0.15l4.05,6.7c0.03,0.03,0.05,0.1,0.05,0.2c0,0.1-0.05,0.18-0.15,0.25
				c-0.1,0.03-0.2,0.05-0.3,0.05c-0.1,0-0.18-0.05-0.25-0.15l-4.05-6.65C54.43,56.47,54.43,56.38,54.5,56.32z"/>
			<radialGradient id="SVGID_18_" cx="70.4502" cy="101.2168" r="16.2125" gradientUnits="userSpaceOnUse">
				<stop  offset="0" style="stop-color:#FFFFFF"/>
				<stop  offset="1" style="stop-color:#FFFFFF;stop-opacity:0"/>
			</radialGradient>
			<path fill-rule="evenodd" clip-rule="evenodd" fill="url(#SVGID_18_)" d="M64.7,85.97l0.1,0.05l11.5,30.25v0.1h-0.05l-11.6-30.35
				C64.65,85.98,64.67,85.97,64.7,85.97z"/>
		</g>
		<g>
			<linearGradient id="SVGID_19_" gradientUnits="userSpaceOnUse" x1="-7.1914" y1="12.1699" x2="41.6123" y2="104.768">
				<stop  offset="0" style="stop-color:#FFFFFF"/>
				<stop  offset="1" style="stop-color:#FFFFFF;stop-opacity:0"/>
			</linearGradient>
			<path fill-rule="evenodd" clip-rule="evenodd" fill="url(#SVGID_19_)" d="M34.15,116.12c-3.13,3.33-8.7,7.28-16.7,11.85H8.8
				c-0.37-2.7-0.07-6.5,0.9-11.4l28.2-62.5c3.27,0.77,6.37,1.22,9.3,1.35c-0.2,0.77-0.35,1.65-0.45,2.65L34.15,116.12z M76.6,88.92
				c-0.9-0.97-1.68-1.83-2.35-2.6L58.4,56.77c-0.7-0.7-1.35-1.35-1.95-1.95c1.17-0.2,2.3-0.5,3.4-0.9
				C68.05,70.32,73.63,81.98,76.6,88.92z"/>
			<linearGradient id="SVGID_20_" gradientUnits="userSpaceOnUse" x1="51.0947" y1="166.5986" x2="50.624" y2="138.899">
				<stop  offset="0" style="stop-color:#FFFFFF"/>
				<stop  offset="1" style="stop-color:#FFFFFF;stop-opacity:0"/>
			</linearGradient>
			<path fill-rule="evenodd" clip-rule="evenodd" fill="url(#SVGID_20_)" d="M8.8,139.02c23.73,2.27,44.22,0.42,61.45-5.55
				c4.83-1.7,9.45-3.72,13.85-6.05c5.3,1.57,8.05,3.58,8.25,6.05c0.23,2.63-2.52,5.77-8.25,9.4c-24.4,5.6-44.28,6.53-59.65,2.8
				C16.98,143.87,11.77,141.65,8.8,139.02z"/>
			<linearGradient id="SVGID_21_" gradientUnits="userSpaceOnUse" x1="48.8594" y1="-46.6396" x2="40.3602" y2="51.2268">
				<stop  offset="0" style="stop-color:#FFFFFF"/>
				<stop  offset="1" style="stop-color:#FFFFFF;stop-opacity:0"/>
			</linearGradient>
			<rect x="40.6" y="9.07" fill-rule="evenodd" clip-rule="evenodd" fill="url(#SVGID_21_)" width="3.2" height="41.95"/>
		</g>
		<g>
			
				<radialGradient id="SVGID_22_" cx="40.8398" cy="-7.3594" r="4.8786" fx="43.5948" fy="-7.3594" gradientTransform="matrix(0.9993 0.0384 0 1.3093 -0.21 13.4834)" gradientUnits="userSpaceOnUse">
				<stop  offset="0" style="stop-color:#FFFFFF;stop-opacity:0.3608"/>
				<stop  offset="1" style="stop-color:#FFFFFF;stop-opacity:0"/>
			</radialGradient>
			<path fill-rule="evenodd" clip-rule="evenodd" fill="url(#SVGID_22_)" d="M36.75,3.87c-0.17,0.17-0.22,0.3-0.15,0.4
				c0.1,0.1,0.3,0.2,0.6,0.3c1.3,0.4,4.63,0.7,10,0.9v0.15c-5.37-0.2-8.7-0.52-10-0.95c-0.37-0.1-0.6-0.23-0.7-0.4
				c-0.1-0.17-0.05-0.32,0.15-0.45c0.33-0.27,1.17-0.55,2.5-0.85h0.1l-0.1,0.1C37.85,3.37,37.05,3.63,36.75,3.87z"/>
			<radialGradient id="SVGID_23_" cx="37.6001" cy="29.8174" r="19.9625" fx="48.873" fy="29.8174" gradientUnits="userSpaceOnUse">
				<stop  offset="0" style="stop-color:#FFFFFF"/>
				<stop  offset="1" style="stop-color:#FFFFFF;stop-opacity:0"/>
			</radialGradient>
			<path fill-rule="evenodd" clip-rule="evenodd" fill="url(#SVGID_23_)" d="M37.45,9.87c0.03-0.03,0.08-0.05,0.15-0.05
				c0.03,0,0.08,0.02,0.15,0.05c0.03,0.07,0.05,0.12,0.05,0.15v39.5c0,0.03-0.02,0.08-0.05,0.15c-0.07,0.03-0.12,0.05-0.15,0.05
				c-0.07,0-0.12-0.02-0.15-0.05c0-0.07,0-0.12,0-0.15v-39.5C37.45,9.98,37.45,9.93,37.45,9.87z"/>
			<radialGradient id="SVGID_24_" cx="17.7627" cy="95.5791" r="36.609" fx="38.436" fy="95.5791" gradientUnits="userSpaceOnUse">
				<stop  offset="0" style="stop-color:#FFFFFF"/>
				<stop  offset="1" style="stop-color:#FFFFFF;stop-opacity:0"/>
			</radialGradient>
			<path fill-rule="evenodd" clip-rule="evenodd" fill="url(#SVGID_24_)" d="M32.95,62.57c0.07-0.07,0.12-0.1,0.15-0.1
				c0.07-0.03,0.12-0.03,0.15,0c0.07,0,0.1,0.03,0.1,0.1c0.03,0.03,0.03,0.08,0,0.15L2.5,128.62c0,0.07-0.03,0.1-0.1,0.1
				c-0.03,0-0.08,0-0.15,0l-0.05-0.1c-0.07-0.03-0.07-0.08,0-0.15L32.95,62.57z"/>
			<radialGradient id="SVGID_25_" cx="33.9502" cy="133.5674" r="27.85" gradientUnits="userSpaceOnUse">
				<stop  offset="0" style="stop-color:#FFFFFF;stop-opacity:0.6314"/>
				<stop  offset="1" style="stop-color:#FFFFFF;stop-opacity:0"/>
			</radialGradient>
			<path fill-rule="evenodd" clip-rule="evenodd" fill="url(#SVGID_25_)" d="M6.5,136.57v-0.05c0.4-1.17,1.47-2.2,3.2-3.1
				c6.77-3.73,23.9-5.72,51.4-5.95h0.05v0.1H61.1c-27.5,0.2-44.63,2.17-51.4,5.9c-1.67,0.9-2.7,1.92-3.1,3.05v0.05H6.5z"/>
			<radialGradient id="SVGID_26_" cx="58.7998" cy="31.2422" r="22.212" fx="71.3431" fy="31.2422" gradientUnits="userSpaceOnUse">
				<stop  offset="0" style="stop-color:#FFFFFF"/>
				<stop  offset="1" style="stop-color:#FFFFFF;stop-opacity:0"/>
			</radialGradient>
			<path fill-rule="evenodd" clip-rule="evenodd" fill="url(#SVGID_26_)" d="M58.75,9.22c0-0.07,0.02-0.1,0.05-0.1
				c0.07,0,0.12,0.03,0.15,0.1c0.07,0,0.1,0.02,0.1,0.05v43.95c0,0.07-0.03,0.12-0.1,0.15c-0.03,0-0.08,0-0.15,0h-0.05
				c-0.07-0.03-0.1-0.08-0.1-0.15V9.27C58.65,9.23,58.68,9.22,58.75,9.22z"/>
			<radialGradient id="SVGID_27_" cx="75.1504" cy="91.3291" r="35.2645" gradientUnits="userSpaceOnUse">
				<stop  offset="0" style="stop-color:#FFFFFF"/>
				<stop  offset="1" style="stop-color:#FFFFFF;stop-opacity:0"/>
			</radialGradient>
			<path fill-rule="evenodd" clip-rule="evenodd" fill="url(#SVGID_27_)" d="M59.8,59.57c0-0.03,0.02-0.03,0.05,0l30.8,63.45v0.1
				h-0.1L59.8,59.57z"/>
			<radialGradient id="SVGID_28_" cx="88.6504" cy="133.6172" r="5.2125" gradientUnits="userSpaceOnUse">
				<stop  offset="0" style="stop-color:#FFFFFF"/>
				<stop  offset="1" style="stop-color:#FFFFFF;stop-opacity:0"/>
			</radialGradient>
			<path fill-rule="evenodd" clip-rule="evenodd" fill="url(#SVGID_28_)" d="M85.7,129.37v-0.05h0.1c4.8,1,7.5,2.38,8.1,4.15
				c0.4,1.33-0.38,2.85-2.35,4.55h-0.1v-0.05h0.1c1.9-1.67,2.65-3.17,2.25-4.5c-0.6-1.7-3.27-3.07-8-4.1H85.7z"/>
		</g>
	</g>
</g>
</svg>
