<?xml version="1.0" encoding="utf-8"?>
<!-- Generator: Adobe Illustrator 16.0.0, SVG Export Plug-In . SVG Version: 6.00 Build 0)  -->
<!DOCTYPE svg PUBLIC "-//W3C//DTD SVG 1.1//EN" "http://www.w3.org/Graphics/SVG/1.1/DTD/svg11.dtd">
<svg version="1.1" id="Layer_1" xmlns="http://www.w3.org/2000/svg" xmlns:xlink="http://www.w3.org/1999/xlink" x="0px" y="0px"
	 width="65px" height="8px" viewBox="0 0 65 8" enable-background="new 0 0 65 8" xml:space="preserve">
<g>
	<g>
		<path fill-rule="evenodd" clip-rule="evenodd" fill="#FFFFFF" d="M59.95,4.3c-0.7-0.23-0.73-0.5-0.1-0.8
			c0.63,0.2,0.68,0.45,0.15,0.75L59.95,4.3z M57.75,3.5c0.77,0.13,0.87,0.38,0.3,0.75L58,4.3c-0.83-0.2-0.93-0.47-0.3-0.8H57.75z
			 M52.45,3.9c-1.63,0.13-2.13-0.12-1.5-0.75L51,3.1c0.4,0.1,0.83,0.13,1.3,0.1l0.05,0.05c0.13,0.07,0.23,0.15,0.3,0.25
			C52.65,3.63,52.58,3.77,52.45,3.9z M53.8,4.75c-0.03,0-0.07,0.02-0.1,0.05c-0.53-0.3-0.53-0.58,0-0.85
			C54.2,4.18,54.23,4.45,53.8,4.75z M55.2,3.8c-0.57-0.3-0.57-0.58,0-0.85c0.5,0.23,0.52,0.5,0.05,0.8L55.2,3.8z M46,2.8
			c0.9,0.03,1.22,0.27,0.95,0.7v0.05c-0.27,0.17-0.63,0.18-1.1,0.05c-0.3-0.23-0.33-0.47-0.1-0.7C45.82,2.87,45.9,2.83,46,2.8z
			 M47.95,5.35c-0.7-0.53-0.4-0.88,0.9-1.05C49.48,4.77,49.2,5.12,48,5.35H47.95z M42.25,2.75c0.13,0.07,0.2,0.15,0.2,0.25
			c0.03,0.13-0.03,0.27-0.2,0.4c-0.23,0.13-0.62,0.15-1.15,0.05c-0.07,0-0.13-0.02-0.2-0.05c-0.17-0.1-0.23-0.23-0.2-0.4
			c0.07-0.17,0.22-0.27,0.45-0.3c0.33,0,0.67,0,1,0C42.18,2.7,42.22,2.72,42.25,2.75z M42.95,4.7c0.97,0.6,0.7,0.77-0.8,0.5
			C42.05,5.2,42,5.13,42,5C42.13,4.8,42.45,4.7,42.95,4.7z M38.15,2.85c0.1,0.2,0.05,0.38-0.15,0.55c-0.27,0.17-0.73,0.18-1.4,0.05
			c-0.07,0-0.13-0.02-0.2-0.05c-0.1-0.07-0.17-0.15-0.2-0.25c-0.03-0.23,0.12-0.38,0.45-0.45c0.43,0,0.87,0,1.3,0L38,2.75
			C38.07,2.78,38.12,2.82,38.15,2.85z M36.7,5.2c0.23,0.83-0.03,0.93-0.8,0.3c-0.17-0.13-0.1-0.23,0.2-0.3
			c0.17,0.03,0.33,0.03,0.5,0C36.63,5.2,36.67,5.2,36.7,5.2z M38.8,5.9h-0.05c-0.6-0.23-0.63-0.48-0.1-0.75
			c0.03,0,0.05-0.02,0.05-0.05C39.27,5.33,39.3,5.6,38.8,5.9z M31.25,3.9c-0.03,0-0.07-0.02-0.1-0.05c-0.47-0.5-0.13-0.77,1-0.8
			C32.85,3.58,32.55,3.87,31.25,3.9z M27.75,3.05c0,0.1-0.03,0.18-0.1,0.25v0.05c-1.9,0.37-2.65,0.17-2.25-0.6
			c0.03-0.03,0.07-0.05,0.1-0.05c0.63,0.03,1.3,0.03,2,0c0.03,0,0.05,0.02,0.05,0.05C27.72,2.85,27.78,2.95,27.75,3.05z M30.1,5.3
			c0,0.13-0.07,0.25-0.2,0.35c-0.4,0.17-0.88,0.17-1.45,0c-0.2-0.17-0.27-0.35-0.2-0.55c0.07-0.1,0.2-0.18,0.4-0.25
			c0.33,0.1,0.72,0.13,1.15,0.1L29.85,5C29.98,5.1,30.07,5.2,30.1,5.3z M21.3,3.5c-0.47-0.53-0.07-0.8,1.2-0.8
			c1.2,0.5,0.83,0.77-1.1,0.8C21.37,3.5,21.33,3.5,21.3,3.5z M24,4.1c0.37,0.3,0.3,0.55-0.2,0.75c-0.17,0.03-0.33,0.07-0.5,0.1
			c-0.43-0.2-0.57-0.45-0.4-0.75c0.1-0.07,0.22-0.12,0.35-0.15c0.23,0,0.45,0.02,0.65,0.05C23.93,4.1,23.97,4.1,24,4.1z M18.45,5.05
			c-0.03,0.03-0.07,0.05-0.1,0.05c-0.57-0.33-0.48-0.65,0.25-0.95c0.03,0,0.07-0.02,0.1-0.05C19.3,4.47,19.22,4.78,18.45,5.05z
			 M18.25,3.35c-0.23-0.07-0.23-0.17,0-0.3c0.17-0.1,0.38-0.15,0.65-0.15C19.47,3.53,19.25,3.68,18.25,3.35z M10.65,4
			c-0.4,0.2-0.88,0.22-1.45,0.05C8.93,3.82,8.92,3.6,9.15,3.4c0.1-0.07,0.23-0.12,0.4-0.15c0.37,0.03,0.72,0.08,1.05,0.15
			c0.03,0,0.07,0,0.1,0c0.13,0.13,0.18,0.27,0.15,0.4C10.82,3.87,10.75,3.93,10.65,4z M13.5,3.55c0.17-0.1,0.38-0.17,0.65-0.2
			c0.63,0.67,0.42,0.83-0.65,0.5C13.27,3.78,13.27,3.68,13.5,3.55z M6.25,4.35c-0.73-0.33-0.73-0.68,0-1.05c0.53,0.33,0.53,0.67,0,1
			C6.28,4.33,6.28,4.35,6.25,4.35z"/>
	</g>
	<g>
		<path fill-rule="evenodd" clip-rule="evenodd" fill="#FFFFFF" fill-opacity="0.298" d="M62,4c0-0.27-2.78-0.58-8.35-0.95
			c-5.83-0.33-12.85-0.5-21.05-0.5c-8.2,0-15.18,0.17-20.95,0.5C6.15,3.42,3.38,3.73,3.35,4c0.07,0.27,2.87,0.57,8.4,0.9
			C17.58,5.27,24.6,5.45,32.8,5.45c8.2,0,15.18-0.18,20.95-0.55C59.28,4.57,62.03,4.27,62,4z M53.6,2.25
			c6.07,0.4,9.12,0.98,9.15,1.75c0.03,0.73-2.95,1.3-8.95,1.7c-5.77,0.37-12.75,0.55-20.95,0.55c-8.2,0-15.23-0.18-21.1-0.55
			C5.68,5.3,2.65,4.73,2.65,4c-0.07-0.77,2.9-1.35,8.9-1.75c5.8-0.33,12.8-0.5,21-0.5C40.75,1.75,47.77,1.92,53.6,2.25z"/>
	</g>
</g>
</svg>
