<?xml version="1.0" encoding="utf-8"?>
<!-- Generator: Adobe Illustrator 16.0.0, SVG Export Plug-In . SVG Version: 6.00 Build 0)  -->
<!DOCTYPE svg PUBLIC "-//W3C//DTD SVG 1.1//EN" "http://www.w3.org/Graphics/SVG/1.1/DTD/svg11.dtd">
<svg version="1.1" id="Layer_1" xmlns="http://www.w3.org/2000/svg" xmlns:xlink="http://www.w3.org/1999/xlink" x="0px" y="0px"
	 width="65px" height="8px" viewBox="0 0 65 8" enable-background="new 0 0 65 8" xml:space="preserve">
<g>
	<g>
		<path fill-rule="evenodd" clip-rule="evenodd" fill="#FFFFFF" d="M57.15,3c0.33,0.03,0.65,0.07,0.95,0.1
			c0.03,0.03,0.07,0.05,0.1,0.05c0.1,0.13,0.15,0.27,0.15,0.4c0,0.07-0.03,0.12-0.1,0.15c-1.3,0.2-1.72-0.02-1.25-0.65
			C57.03,3.02,57.08,3,57.15,3z M59.15,4.45c-0.63-0.33-0.57-0.62,0.2-0.85c0.03-0.03,0.07-0.05,0.1-0.05
			c0.53,0.33,0.47,0.63-0.2,0.9C59.22,4.45,59.18,4.45,59.15,4.45z M52.25,3.1c0.4,0.03,0.82,0.05,1.25,0.05h0.05
			c0.1,0.07,0.17,0.13,0.2,0.2c0.1,0.17,0.05,0.33-0.15,0.5c-0.3,0.17-0.75,0.18-1.35,0.05c-0.07,0-0.12-0.02-0.15-0.05
			c-0.13-0.1-0.22-0.2-0.25-0.3C51.82,3.35,51.95,3.2,52.25,3.1z M50.8,4.8c-0.63-0.4-0.48-0.7,0.45-0.9c0.03,0,0.07,0,0.1,0
			c0.77,0.3,0.67,0.58-0.3,0.85C50.98,4.78,50.9,4.8,50.8,4.8z M46.75,3.95c0.93,0.2,1,0.48,0.2,0.85
			c-0.03,0.03-0.08,0.05-0.15,0.05C46.2,4.55,46.18,4.25,46.75,3.95z M44.15,4.05c0.63,0.37,0.5,0.67-0.4,0.9c-0.07,0-0.15,0-0.25,0
			C42.87,4.58,43,4.3,43.9,4.1C44,4.1,44.08,4.08,44.15,4.05z M36.1,2.55c0.73,0.63,0.55,0.8-0.55,0.5c-0.2-0.07-0.2-0.17,0-0.3
			C35.68,2.65,35.87,2.58,36.1,2.55z M40.45,4.45c0.73,0.47,0.47,0.73-0.8,0.8H39.6c-0.47-0.47-0.23-0.73,0.7-0.8
			C40.37,4.45,40.42,4.45,40.45,4.45z M32.05,4.15c-1.1-0.1-1.35-0.37-0.75-0.8c0-0.03,0.03-0.05,0.1-0.05
			c0.93,0.1,1.15,0.37,0.65,0.8V4.15z M33.1,4.7c0.73,0.13,0.83,0.38,0.3,0.75h-0.05c-0.8-0.17-0.9-0.42-0.3-0.75H33.1z M26.75,2.5
			c0.23-0.03,0.43-0.02,0.6,0.05c0.03,0,0.05,0.02,0.05,0.05c0.37,0.33,0.22,0.58-0.45,0.75c-0.1,0-0.2,0-0.3,0
			c-0.33-0.23-0.38-0.48-0.15-0.75C26.57,2.53,26.65,2.5,26.75,2.5z M26.6,5.5c-0.2-0.07-0.22-0.17-0.05-0.3
			c0.17-0.13,0.43-0.2,0.8-0.2C27.98,5.67,27.73,5.83,26.6,5.5z M21.7,5.5c-0.23-0.2-0.27-0.42-0.1-0.65c0.07-0.07,0.17-0.1,0.3-0.1
			c0.27-0.03,0.48-0.02,0.65,0.05c0.03,0,0.07,0.02,0.1,0.05c0.1,0.13,0.15,0.27,0.15,0.4c-0.07,0.1-0.13,0.18-0.2,0.25
			c-0.2,0.07-0.43,0.07-0.7,0C21.83,5.5,21.77,5.5,21.7,5.5z M19.15,2.75c0.6,0.67,0.32,0.85-0.85,0.55c-0.2-0.03-0.2-0.13,0-0.3
			C18.5,2.87,18.78,2.78,19.15,2.75z M17.35,5.15C17.18,5.08,17.1,5,17.1,4.9c-0.03-0.23,0.12-0.38,0.45-0.45c0.43,0,0.87,0,1.3,0
			c0.03,0,0.07,0.02,0.1,0.05c0.07,0.03,0.12,0.08,0.15,0.15c0.1,0.17,0.05,0.33-0.15,0.5c-0.3,0.17-0.77,0.18-1.4,0.05
			C17.48,5.2,17.42,5.18,17.35,5.15z M14.2,3.15c0.1,0,0.17-0.02,0.2-0.05c0.7,0.5,0.43,0.78-0.8,0.85c-0.03,0-0.07-0.02-0.1-0.05
			C13.03,3.47,13.27,3.22,14.2,3.15z M11.15,3.8c0,0.13-0.07,0.25-0.2,0.35c-0.2,0.13-0.57,0.15-1.1,0.05
			c-0.07,0-0.13-0.02-0.2-0.05C9.48,4.02,9.43,3.87,9.5,3.7c0.07-0.13,0.18-0.22,0.35-0.25c0.33,0,0.65,0,0.95,0
			c0.03,0,0.07,0.02,0.1,0.05C11.07,3.6,11.15,3.7,11.15,3.8z M6.5,3.45C7.47,3.52,7.73,3.77,7.3,4.2v0.05c-0.3,0.1-0.63,0.1-1,0
			C6,3.95,6.03,3.68,6.4,3.45C6.43,3.45,6.47,3.45,6.5,3.45z"/>
	</g>
	<g>
		<path fill-rule="evenodd" clip-rule="evenodd" fill="#FFFFFF" fill-opacity="0.298" d="M62,4c0-0.27-2.78-0.58-8.35-0.95
			c-5.83-0.33-12.85-0.5-21.05-0.5c-8.2,0-15.18,0.17-20.95,0.5C6.15,3.42,3.38,3.73,3.35,4c0.07,0.27,2.87,0.57,8.4,0.9
			C17.58,5.27,24.6,5.45,32.8,5.45c8.2,0,15.18-0.18,20.95-0.55C59.28,4.57,62.03,4.27,62,4z M53.6,2.25
			c6.07,0.4,9.12,0.98,9.15,1.75c0.03,0.73-2.95,1.3-8.95,1.7c-5.77,0.37-12.75,0.55-20.95,0.55c-8.2,0-15.23-0.18-21.1-0.55
			C5.68,5.3,2.65,4.73,2.65,4c-0.07-0.77,2.9-1.35,8.9-1.75c5.8-0.33,12.8-0.5,21-0.5C40.75,1.75,47.77,1.92,53.6,2.25z"/>
	</g>
</g>
</svg>
