<?xml version="1.0" encoding="utf-8"?>
<!-- Generator: Adobe Illustrator 16.0.0, SVG Export Plug-In . SVG Version: 6.00 Build 0)  -->
<!DOCTYPE svg PUBLIC "-//W3C//DTD SVG 1.1//EN" "http://www.w3.org/Graphics/SVG/1.1/DTD/svg11.dtd">
<svg version="1.1" id="Layer_1" xmlns="http://www.w3.org/2000/svg" xmlns:xlink="http://www.w3.org/1999/xlink" x="0px" y="0px"
	 width="65px" height="8px" viewBox="0 0 65 8" enable-background="new 0 0 65 8" xml:space="preserve">
<g>
	<g>
		<path fill-rule="evenodd" clip-rule="evenodd" fill="#FFFFFF" d="M56.8,4.75L56.75,4.8c-0.53-0.3-0.53-0.58,0-0.85
			C57.25,4.18,57.27,4.45,56.8,4.75z M55.1,3.75c-0.17,0.03-0.27-0.02-0.3-0.15c-0.07-0.2,0.07-0.37,0.4-0.5
			C56.5,3.5,56.47,3.72,55.1,3.75z M50.45,2.9h0.05c0.13,0.1,0.2,0.2,0.2,0.3c0.03,0.13-0.02,0.27-0.15,0.4
			c-0.23,0.13-0.6,0.15-1.1,0.05c-0.07,0-0.13-0.02-0.2-0.05c-0.2-0.13-0.28-0.27-0.25-0.4c0.07-0.17,0.22-0.27,0.45-0.3
			C49.78,2.9,50.12,2.9,50.45,2.9z M46.9,4.45c0.87,0.33,0.77,0.63-0.3,0.9c-0.03,0-0.07,0-0.1,0c-0.63-0.33-0.53-0.62,0.3-0.85
			C46.83,4.47,46.87,4.45,46.9,4.45z M46.2,3.1c1.1,0.47,1.03,0.63-0.2,0.5c-0.17-0.03-0.22-0.12-0.15-0.25
			C45.88,3.22,46,3.13,46.2,3.1z M42.3,2.45l0.05,0.05c0.1,0.03,0.18,0.08,0.25,0.15c0.07,0.17,0,0.33-0.2,0.5
			c-0.3,0.17-0.73,0.18-1.3,0.05c-0.07,0-0.13-0.02-0.2-0.05c-0.13-0.1-0.22-0.2-0.25-0.3c-0.03-0.2,0.1-0.33,0.4-0.4
			C41.45,2.45,41.87,2.45,42.3,2.45z M42,3.5c0.67,0.53,0.32,0.8-1.05,0.8c-0.03,0-0.07,0-0.1,0c-0.43-0.5-0.12-0.77,0.95-0.8
			C41.9,3.5,41.97,3.5,42,3.5z M42.65,4.7c0.67,0.43,0.4,0.75-0.8,0.95H41.8c-0.57-0.43-0.33-0.75,0.7-0.95
			C42.57,4.7,42.62,4.7,42.65,4.7z M37.9,4.85V4.8c0.7,0.3,0.83,0.63,0.4,1v0.05C37.33,5.62,37.2,5.28,37.9,4.85z M37.75,3.85
			c-0.97-0.13-1.17-0.42-0.6-0.85h0.05c0.87,0.13,1.07,0.4,0.6,0.8C37.77,3.8,37.75,3.82,37.75,3.85z M34,4.8
			c0.63,0.67,0.4,0.85-0.7,0.55c-0.2-0.03-0.22-0.12-0.05-0.25C33.42,4.97,33.67,4.87,34,4.8z M31.2,4.1h-0.05
			c-0.3-0.17-0.38-0.37-0.25-0.6c0-0.03,0.02-0.07,0.05-0.1c0.53-0.1,1.1-0.15,1.7-0.15C33.82,3.82,33.33,4.1,31.2,4.1z M25.7,2.5
			c0.93,0.2,1.02,0.5,0.25,0.9c-0.07,0-0.13,0-0.2,0c-0.6-0.3-0.63-0.6-0.1-0.9H25.7z M28.9,5.3c-0.33-0.13-0.3-0.22,0.1-0.25
			c0.4,0,0.78-0.07,1.15-0.2C30.62,5.72,30.2,5.87,28.9,5.3z M21.75,2.6c0.67,0.5,0.37,0.83-0.9,1c-0.1,0-0.18,0-0.25,0
			c-0.7-0.53-0.35-0.85,1.05-0.95C21.68,2.65,21.72,2.63,21.75,2.6z M20.85,4.2c0.03-0.2,0.2-0.33,0.5-0.4
			c0.4,0.1,0.87,0.13,1.4,0.1h0.05C22.9,4,22.97,4.08,23,4.15c0.07,0.17,0.02,0.32-0.15,0.45c-0.47,0.2-1.03,0.2-1.7,0
			C20.98,4.47,20.88,4.33,20.85,4.2z M16.9,3.1c0.03,0.13-0.02,0.27-0.15,0.4c-0.33,0.13-0.77,0.18-1.3,0.15c-0.13,0-0.25,0-0.35,0
			c-0.43-0.17-0.53-0.37-0.3-0.6c0.1-0.13,0.32-0.22,0.65-0.25c0.4,0,0.78,0.02,1.15,0.05c0.03,0,0.07,0,0.1,0
			C16.8,2.92,16.87,3,16.9,3.1z M14.05,3.1c0.93,0.43,0.7,0.73-0.7,0.9H13.3c-0.57-0.4-0.37-0.68,0.6-0.85
			C13.97,3.15,14.02,3.13,14.05,3.1z M10.1,3.45c0.63,0.6,0.22,0.88-1.25,0.85c-0.4-0.4-0.27-0.7,0.4-0.9c0.03,0,0.07-0.02,0.1-0.05
			c0.23,0.1,0.47,0.13,0.7,0.1H10.1z"/>
	</g>
	<g>
		<path fill-rule="evenodd" clip-rule="evenodd" fill="#FFFFFF" fill-opacity="0.298" d="M62,4c0-0.27-2.78-0.58-8.35-0.95
			c-5.83-0.33-12.85-0.5-21.05-0.5c-8.2,0-15.18,0.17-20.95,0.5C6.15,3.42,3.38,3.73,3.35,4c0.07,0.27,2.87,0.57,8.4,0.9
			C17.58,5.27,24.6,5.45,32.8,5.45c8.2,0,15.18-0.18,20.95-0.55C59.28,4.57,62.03,4.27,62,4z M53.6,2.25
			c6.07,0.4,9.12,0.98,9.15,1.75c0.03,0.73-2.95,1.3-8.95,1.7c-5.77,0.37-12.75,0.55-20.95,0.55c-8.2,0-15.23-0.18-21.1-0.55
			C5.68,5.3,2.65,4.73,2.65,4c-0.07-0.77,2.9-1.35,8.9-1.75c5.8-0.33,12.8-0.5,21-0.5C40.75,1.75,47.77,1.92,53.6,2.25z"/>
	</g>
</g>
</svg>
