<?xml version="1.0" encoding="utf-8"?>
<!-- Generator: Adobe Illustrator 16.0.0, SVG Export Plug-In . SVG Version: 6.00 Build 0)  -->
<!DOCTYPE svg PUBLIC "-//W3C//DTD SVG 1.1//EN" "http://www.w3.org/Graphics/SVG/1.1/DTD/svg11.dtd">
<svg version="1.1" id="Layer_1" xmlns="http://www.w3.org/2000/svg" xmlns:xlink="http://www.w3.org/1999/xlink" x="0px" y="0px"
	 width="65px" height="8px" viewBox="0 0 65 8" enable-background="new 0 0 65 8" xml:space="preserve">
<g>
	<g>
		<path fill-rule="evenodd" clip-rule="evenodd" fill="#FFFFFF" d="M58,3.55c0.53,0.27,0.57,0.55,0.1,0.85h-0.05
			c-0.33-0.13-0.5-0.27-0.5-0.4c-0.07,0.17-0.33,0.3-0.8,0.4H56.7c-0.53-0.33-0.47-0.6,0.2-0.8c0.07,0,0.12-0.02,0.15-0.05
			c0.3,0.17,0.47,0.3,0.5,0.4C57.58,3.82,57.73,3.68,58,3.55z M51.2,5.3c-0.73-0.27-0.78-0.55-0.15-0.85
			c0.63,0.23,0.72,0.5,0.25,0.8C51.27,5.25,51.23,5.27,51.2,5.3z M55.25,3.8h0.05c0.5,0.27,0.5,0.55,0,0.85c-0.03,0-0.07,0-0.1,0
			C54.63,4.35,54.65,4.07,55.25,3.8z M53.75,4.05c0.6,0.23,0.65,0.48,0.15,0.75c0,0.03-0.03,0.05-0.1,0.05
			c-0.6-0.27-0.62-0.52-0.05-0.75V4.05z M41.8,2.6c0.5,0.23,0.55,0.48,0.15,0.75c0,0.03-0.02,0.05-0.05,0.05
			c-0.63-0.23-0.67-0.48-0.1-0.75V2.6z M45.2,4.55c0.13,0.1,0.18,0.22,0.15,0.35c-0.03,0.1-0.1,0.18-0.2,0.25
			c-1.67,0.13-2.28-0.13-1.85-0.8c-0.03-0.03-0.02-0.05,0.05-0.05c0.63,0.03,1.22,0.1,1.75,0.2C45.17,4.5,45.2,4.52,45.2,4.55z
			 M36.75,5.15c-0.67-0.43-0.43-0.73,0.7-0.9c0.03,0,0.07,0,0.1,0c0.67,0.4,0.47,0.7-0.6,0.9C36.88,5.15,36.82,5.15,36.75,5.15z
			 M31.2,5.15c-0.27-0.13-0.35-0.3-0.25-0.5c0.07-0.17,0.23-0.28,0.5-0.35c0.37,0,0.75,0.02,1.15,0.05c0.03,0,0.07,0,0.1,0
			c0.1,0.07,0.17,0.15,0.2,0.25c0.03,0.13-0.03,0.27-0.2,0.4c-0.27,0.17-0.67,0.23-1.2,0.2C31.43,5.17,31.33,5.15,31.2,5.15z
			 M33.7,3.55c-0.87-0.2-0.97-0.47-0.3-0.8c0.8,0.13,0.93,0.38,0.4,0.75C33.77,3.5,33.73,3.52,33.7,3.55z M27.95,2.25
			c0.93,0.03,1.27,0.25,1,0.65v0.05c-0.27,0.2-0.67,0.23-1.2,0.1c-0.23-0.23-0.25-0.47-0.05-0.7C27.77,2.28,27.85,2.25,27.95,2.25z
			 M27.1,4.3c0.8,0.63,0.6,0.8-0.6,0.5c-0.23-0.03-0.27-0.13-0.1-0.3C26.53,4.4,26.77,4.33,27.1,4.3z M21.25,4.7
			c0.37-0.13,0.83-0.22,1.4-0.25c0.57,0.77,0.1,0.93-1.4,0.5C21.02,4.88,21.02,4.8,21.25,4.7z M22.15,3.7H22.1
			c-0.8-0.2-0.88-0.45-0.25-0.75C22.55,3.12,22.65,3.37,22.15,3.7z M17.95,3.75c-0.03,0-0.05,0.02-0.05,0.05
			c-0.63-0.33-0.57-0.63,0.2-0.9C18.63,3.17,18.58,3.45,17.95,3.75z M13.1,4.1c-0.63-0.23-0.67-0.5-0.1-0.8
			c0.63,0.2,0.7,0.45,0.2,0.75C13.17,4.08,13.13,4.1,13.1,4.1z M8.15,3.9c-0.27-0.1-0.23-0.2,0.1-0.3c0.23-0.07,0.5-0.15,0.8-0.25
			C9.62,4.08,9.32,4.27,8.15,3.9z"/>
	</g>
	<g>
		<path fill-rule="evenodd" clip-rule="evenodd" fill="#FFFFFF" fill-opacity="0.298" d="M62,4c0-0.27-2.78-0.58-8.35-0.95
			c-5.83-0.33-12.85-0.5-21.05-0.5c-8.2,0-15.18,0.17-20.95,0.5C6.15,3.42,3.38,3.73,3.35,4c0.07,0.27,2.87,0.57,8.4,0.9
			C17.58,5.27,24.6,5.45,32.8,5.45c8.2,0,15.18-0.18,20.95-0.55C59.28,4.57,62.03,4.27,62,4z M53.6,2.25
			c6.07,0.4,9.12,0.98,9.15,1.75c0.03,0.73-2.95,1.3-8.95,1.7c-5.77,0.37-12.75,0.55-20.95,0.55c-8.2,0-15.23-0.18-21.1-0.55
			C5.68,5.3,2.65,4.73,2.65,4c-0.07-0.77,2.9-1.35,8.9-1.75c5.8-0.33,12.8-0.5,21-0.5C40.75,1.75,47.77,1.92,53.6,2.25z"/>
	</g>
</g>
</svg>
