<?xml version="1.0" encoding="utf-8"?>
<!-- Generator: Adobe Illustrator 16.0.0, SVG Export Plug-In . SVG Version: 6.00 Build 0)  -->
<!DOCTYPE svg PUBLIC "-//W3C//DTD SVG 1.1//EN" "http://www.w3.org/Graphics/SVG/1.1/DTD/svg11.dtd">
<svg version="1.1" id="Layer_1" xmlns="http://www.w3.org/2000/svg" xmlns:xlink="http://www.w3.org/1999/xlink" x="0px" y="0px"
	 width="10px" height="10px" viewBox="0 0 10 10" enable-background="new 0 0 10 10" xml:space="preserve">
<g>
	<path fill-rule="evenodd" clip-rule="evenodd" fill="#FFFFFF" d="M4.55,1.8c0.3-0.67,0.47-0.93,0.5-0.8v0.05
		C5.83,2.39,6.48,4.22,7,6.53C7,6.61,7,6.7,7,6.8c0,0.67-0.18,1.22-0.55,1.65c-0.4,0.47-1.03,0.67-1.9,0.6
		C3.67,8.98,3.16,8.43,3.02,7.42C2.89,6.41,3.02,5.4,3.42,4.38C3.84,3.36,4.21,2.5,4.55,1.8z M5,3.15C5.44,3.06,5.69,4.11,5.75,6.3
		L5.7,6.35c-0.79-1.53-1.04-2.59-0.75-3.2H5z M5.3,7.05c0.2,0.2,0.3,0.43,0.3,0.7c0,0.1-0.02,0.2-0.05,0.3
		c0.43-0.22,0.73-0.55,0.9-1c0.18-0.45,0.11-1.25-0.2-2.4C5.94,3.5,5.55,2.59,5.1,1.9C4.66,2.51,4.23,3.57,3.8,5.1
		C3.46,6.3,3.41,7.13,3.63,7.58C3.65,7.38,3.74,7.21,3.9,7.05c0.2-0.2,0.43-0.3,0.7-0.3S5.1,6.85,5.3,7.05z"/>
</g>
</svg>
