<?xml version="1.0" encoding="utf-8"?>
<!-- Generator: Adobe Illustrator 16.0.0, SVG Export Plug-In . SVG Version: 6.00 Build 0)  -->
<!DOCTYPE svg PUBLIC "-//W3C//DTD SVG 1.1//EN" "http://www.w3.org/Graphics/SVG/1.1/DTD/svg11.dtd">
<svg version="1.1" id="Layer_1" xmlns="http://www.w3.org/2000/svg" xmlns:xlink="http://www.w3.org/1999/xlink" x="0px" y="0px"
	 width="21px" height="13px" viewBox="0 0 21 13" enable-background="new 0 0 21 13" xml:space="preserve">
<g>
	<g>
		<path fill-rule="evenodd" clip-rule="evenodd" fill-opacity="0.498" d="M15.3,5c0.8-0.1,1.5,0,2.1,0.3c0.6,0.2,1,0.5,1.2,1v0
			c0.2,0.5,0.1,0.9-0.3,1.4c-0.4,0.4-1,0.7-1.7,0.8L8.3,9.9C7.4,10.1,6.5,10,5.8,9.8C4.9,9.5,4.4,9.1,4.2,8.6v0C4,8,4.2,7.5,4.8,7
			C5.3,6.5,6,6.2,6.9,6.1L15.3,5z"/>
	</g>
	<g>
		<linearGradient id="SVGID_1_" gradientUnits="userSpaceOnUse" x1="10.6328" y1="4.2866" x2="11.3795" y2="8.2123">
			<stop  offset="0" style="stop-color:#F1EEE7"/>
			<stop  offset="0.4078" style="stop-color:#FFFFFF"/>
			<stop  offset="1" style="stop-color:#C3AF93"/>
		</linearGradient>
		<path fill-rule="evenodd" clip-rule="evenodd" fill="url(#SVGID_1_)" d="M16.8,3.3c0.5,0.2,1,0.6,1.3,1.1l0,0
			c0.3,0.5,0.3,1.1,0.2,1.6c-0.2,0.6-0.5,1-1,1.3L7.1,9.2c-0.7,0.1-1.3,0.1-1.9,0C4.6,9,4.2,8.6,4,8.1L3.9,8C3.6,7.5,3.6,7,3.8,6.4
			c0.2-0.6,0.5-1,1-1.3l10.4-1.9C15.7,3.1,16.2,3.1,16.8,3.3z"/>
	</g>
</g>
</svg>
