<?xml version="1.0" encoding="utf-8"?>
<!-- Generator: Adobe Illustrator 16.0.0, SVG Export Plug-In . SVG Version: 6.00 Build 0)  -->
<!DOCTYPE svg PUBLIC "-//W3C//DTD SVG 1.1//EN" "http://www.w3.org/Graphics/SVG/1.1/DTD/svg11.dtd">
<svg version="1.1" id="Layer_1" xmlns="http://www.w3.org/2000/svg" xmlns:xlink="http://www.w3.org/1999/xlink" x="0px" y="0px"
	 width="21px" height="13px" viewBox="0 0 21 13" enable-background="new 0 0 21 13" xml:space="preserve">
<g>
	<g>
		<path fill-rule="evenodd" clip-rule="evenodd" fill-opacity="0.498" d="M15.8,9.8c-0.2,0.6-0.5,1.1-1,1.4h0
			c-0.5,0.3-1.1,0.3-1.7,0.1c-0.6-0.1-1.1-0.4-1.6-0.9l-6-5.2C5.1,4.8,5.1,4.2,5.2,3.5c0.2-0.5,0.5-0.9,1-1.3l0,0C6.8,2,7.4,1.9,8,2
			c0.6,0.2,1.1,0.6,1.6,1.1l5.9,5.1C15.8,8.7,15.9,9.2,15.8,9.8z"/>
	</g>
	<g>
		<linearGradient id="SVGID_1_" gradientUnits="userSpaceOnUse" x1="11.5537" y1="4.708" x2="9.1024" y2="7.757">
			<stop  offset="0" style="stop-color:#F1EEE7"/>
			<stop  offset="0.4078" style="stop-color:#FFFFFF"/>
			<stop  offset="1" style="stop-color:#C3AF93"/>
		</linearGradient>
		<path fill-rule="evenodd" clip-rule="evenodd" fill="url(#SVGID_1_)" d="M13,10.7c-0.6-0.1-1.1-0.4-1.7-1l-5.9-5
			C5.1,4.2,5.1,3.6,5.2,3c0.2-0.5,0.5-1,1-1.3h0c0.5-0.3,1.1-0.4,1.6-0.3C8.5,1.6,9,1.9,9.5,2.5l6,5c0.3,0.5,0.4,1,0.3,1.6
			c-0.2,0.6-0.5,1-1,1.4l0,0C14.1,10.8,13.6,10.8,13,10.7z"/>
	</g>
</g>
</svg>
