<?xml version="1.0" encoding="utf-8"?>
<!-- Generator: Adobe Illustrator 16.0.0, SVG Export Plug-In . SVG Version: 6.00 Build 0)  -->
<!DOCTYPE svg PUBLIC "-//W3C//DTD SVG 1.1//EN" "http://www.w3.org/Graphics/SVG/1.1/DTD/svg11.dtd">
<svg version="1.1" id="Layer_1" xmlns="http://www.w3.org/2000/svg" xmlns:xlink="http://www.w3.org/1999/xlink" x="0px" y="0px"
	 width="25px" height="38px" viewBox="0 0 25 38" enable-background="new 0 0 25 38" xml:space="preserve">
<g>
	
		<radialGradient id="SVGID_1_" cx="-12.8501" cy="-9.6001" r="2.875" gradientTransform="matrix(-1 0 0 1.0391 0 19.5759)" gradientUnits="userSpaceOnUse">
		<stop  offset="0.2039" style="stop-color:#FFFFFF;stop-opacity:0.6902"/>
		<stop  offset="0.5412" style="stop-color:#EAEAEA;stop-opacity:0"/>
		<stop  offset="1" style="stop-color:#CCCCCC"/>
	</radialGradient>
	<path fill-rule="evenodd" clip-rule="evenodd" fill="url(#SVGID_1_)" d="M13.75,11.85l0.05-0.65c-0.53-0.37-1.1-0.42-1.7-0.15
		l-0.15,0.4c-0.3-0.33-0.45-0.73-0.45-1.2s0.15-0.85,0.45-1.15c0.17-0.2,0.35-0.33,0.55-0.4c0.2-0.07,0.42-0.1,0.65-0.1
		c0.3,0,0.57,0.07,0.8,0.2c0.03,0.03,0.07,0.07,0.1,0.1c0.1,0.07,0.17,0.13,0.2,0.2c0.33,0.3,0.5,0.68,0.5,1.15
		c0,0.5-0.17,0.92-0.5,1.25C14.12,11.67,13.95,11.78,13.75,11.85z"/>
	
		<linearGradient id="SVGID_2_" gradientUnits="userSpaceOnUse" x1="13.7422" y1="10.8896" x2="16.6031" y2="10.8896" gradientTransform="matrix(0.9962 0.0874 -0.2282 0.9838 1.616478e-004 -3.720224e-004)">
		<stop  offset="0" style="stop-color:#FFFFFF"/>
		<stop  offset="0.4392" style="stop-color:#FFFFFF;stop-opacity:0"/>
		<stop  offset="1" style="stop-color:#FFFFFF"/>
	</linearGradient>
	<path fill-rule="evenodd" clip-rule="evenodd" fill="url(#SVGID_2_)" d="M13.6,13.1c-0.83-0.03-1.62-0.03-2.35,0l0.7-1.65l0.15-0.4
		c0.6-0.27,1.17-0.22,1.7,0.15l-0.05,0.65L13.6,13.1z"/>
	
		<radialGradient id="SVGID_3_" cx="-21.4907" cy="-17.1118" r="5.75" gradientTransform="matrix(-1 5.448918e-004 2.173646e-003 3.9891 0.0468 85.3733)" gradientUnits="userSpaceOnUse">
		<stop  offset="0" style="stop-color:#FFFFFF;stop-opacity:0.498"/>
		<stop  offset="0.1098" style="stop-color:#FFFFFF;stop-opacity:0"/>
		<stop  offset="0.2588" style="stop-color:#FFFFFF;stop-opacity:0.7059"/>
		<stop  offset="0.5098" style="stop-color:#FFFFFF;stop-opacity:0"/>
		<stop  offset="0.851" style="stop-color:#CCCCCC;stop-opacity:0.1216"/>
		<stop  offset="1" style="stop-color:#FFFFFF;stop-opacity:0.5333"/>
	</radialGradient>
	<path fill-rule="evenodd" clip-rule="evenodd" fill="url(#SVGID_3_)" d="M18,21.65c-0.37-2.83-0.32-5.52,0.15-8.05
		c0.17-0.9,0.33-1.65,0.5-2.25c0.23-0.13,0.47-0.23,0.7-0.3v2.6H19.3c-0.03,0-0.07,0.02-0.1,0.05c-0.03,0.03-0.03,0.07,0,0.1
		c0,0.03,0,0.07,0,0.1v0.05c-0.47,2.93-0.48,5.58-0.05,7.95c0.03,0.03,0.07,0.08,0.1,0.15h0.05v3.3c-0.53-0.17-0.85-0.52-0.95-1.05
		C18.15,23.37,18.03,22.48,18,21.65z"/>
	
		<linearGradient id="SVGID_4_" gradientUnits="userSpaceOnUse" x1="-17.1777" y1="12.1431" x2="-11.5277" y2="12.1431" gradientTransform="matrix(4.424735e-003 -1 1 -2.259911e-004 -2.170149e-004 -2.372239e-004)">
		<stop  offset="0.3922" style="stop-color:#FDFCFC;stop-opacity:0.3451"/>
		<stop  offset="1" style="stop-color:#FFFFFF"/>
	</linearGradient>
	<path fill-rule="evenodd" clip-rule="evenodd" fill="url(#SVGID_4_)" d="M15.1,17.2H7.95l0.75-4.1c0.7,0,1.55,0,2.55,0
		c0.73-0.03,1.52-0.03,2.35,0c0.5,0,1,0,1.5,0c0.1,0.03,0.22,0.1,0.35,0.2c0.07,0,0.12,0.02,0.15,0.05c0.2,0.1,0.4,0.22,0.6,0.35
		l-0.75-0.4C15.25,14.57,15.13,15.87,15.1,17.2z"/>
	
		<linearGradient id="SVGID_5_" gradientUnits="userSpaceOnUse" x1="15.7109" y1="-11.7295" x2="22.786" y2="-11.7295" gradientTransform="matrix(3.533547e-003 1 -1 -1.843331e-004 2.538571e-004 5.232746e-005)">
		<stop  offset="0.3922" style="stop-color:#FFFFFF;stop-opacity:0.6902"/>
		<stop  offset="1" style="stop-color:#CCCCCC"/>
	</linearGradient>
	<path fill-rule="evenodd" clip-rule="evenodd" fill="url(#SVGID_5_)" d="M7.95,17.2h7.15c0,0.03,0,0.07,0,0.1l0.55,5.3H12.1
		l0.6-2.25c-0.93-1-1.88-1.07-2.85-0.2L9.8,22.6H8.75c-0.03-0.07-0.12-0.15-0.25-0.25L7.95,17.2z"/>
	
		<linearGradient id="SVGID_6_" gradientUnits="userSpaceOnUse" x1="12.6641" y1="20.1641" x2="15.5107" y2="20.1641" gradientTransform="matrix(0.9924 0.123 -0.1392 0.9904 5.877018e-005 -3.859699e-004)">
		<stop  offset="0" style="stop-color:#FFFFFF"/>
		<stop  offset="0.4392" style="stop-color:#FFFFFF;stop-opacity:0"/>
		<stop  offset="1" style="stop-color:#FFFFFF"/>
	</linearGradient>
	<path fill-rule="evenodd" clip-rule="evenodd" fill="url(#SVGID_6_)" d="M11.8,23.9v0.05c-0.03-0.03-0.08-0.07-0.15-0.1
		c-0.3-0.2-0.65-0.3-1.05-0.3h-0.1c-0.23,0-0.45,0.03-0.65,0.1H9.8V22.6l0.05-2.45c0.97-0.87,1.92-0.8,2.85,0.2l-0.6,2.25L11.8,23.9
		z"/>
	
		<radialGradient id="SVGID_7_" cx="-10" cy="-24.8501" r="3.9125" gradientTransform="matrix(-1 0 0 1.0415 0 50.7323)" gradientUnits="userSpaceOnUse">
		<stop  offset="0.2039" style="stop-color:#FFFFFF;stop-opacity:0.6902"/>
		<stop  offset="0.5412" style="stop-color:#EAEAEA;stop-opacity:0"/>
		<stop  offset="1" style="stop-color:#CCCCCC"/>
	</radialGradient>
	<path fill-rule="evenodd" clip-rule="evenodd" fill="url(#SVGID_7_)" d="M9.8,23.65h0.05c0.2-0.07,0.42-0.1,0.65-0.1h0.1
		c0.4,0,0.75,0.1,1.05,0.3c0.07,0.03,0.12,0.07,0.15,0.1V23.9c0.1,0.07,0.18,0.13,0.25,0.2c0.4,0.43,0.6,0.95,0.6,1.55
		c0,0.6-0.2,1.1-0.6,1.5c-0.4,0.43-0.9,0.65-1.5,0.65c-0.57,0-1.05-0.22-1.45-0.65c-0.4-0.4-0.6-0.9-0.6-1.5
		c0-0.6,0.2-1.12,0.6-1.55c0.2-0.2,0.42-0.35,0.65-0.45H9.8z"/>
	
		<radialGradient id="SVGID_8_" cx="-19.3501" cy="-17.9502" r="4.0375" gradientTransform="matrix(-1 0 0 1.0402 0 36.6228)" gradientUnits="userSpaceOnUse">
		<stop  offset="0" style="stop-color:#FFFFFF"/>
		<stop  offset="1" style="stop-color:#FFFFFF;stop-opacity:0"/>
	</radialGradient>
	<path fill-rule="evenodd" clip-rule="evenodd" fill="url(#SVGID_8_)" d="M19.3,22.05h-0.05c-0.03-0.07-0.07-0.12-0.1-0.15
		c-0.43-2.37-0.42-5.02,0.05-7.95V13.9c0-0.03,0-0.07,0-0.1c-0.03-0.03-0.03-0.07,0-0.1c0.03-0.03,0.07-0.05,0.1-0.05h0.05h0.05
		c0.03,0.03,0.05,0.07,0.05,0.1c0.03,0.03,0.05,0.08,0.05,0.15c0,0.03,0,0.07,0,0.1c-0.07,0.33-0.12,0.67-0.15,1
		c-0.27,2.17-0.28,4.17-0.05,6c0.07,0.27,0.12,0.55,0.15,0.85c0.03,0.03,0.03,0.07,0,0.1c-0.03,0.07-0.07,0.1-0.1,0.1H19.3z"/>
	
		<radialGradient id="SVGID_9_" cx="-17.4341" cy="-17.1162" r="3.1607" gradientTransform="matrix(-1 9.241517e-004 1.976154e-003 2.1383 0.0492 53.7165)" gradientUnits="userSpaceOnUse">
		<stop  offset="0.3922" style="stop-color:#E1DFD2;stop-opacity:0.4824"/>
		<stop  offset="1" style="stop-color:#FFFFFF"/>
	</radialGradient>
	<path fill-rule="evenodd" clip-rule="evenodd" fill="url(#SVGID_9_)" d="M18.15,13.6c-0.47,2.53-0.52,5.22-0.15,8.05
		c-0.57-0.3-1.1-0.32-1.6-0.05l-0.05,0.05c-0.17,0.2-0.4,0.52-0.7,0.95l-0.55-5.3c0-0.03,0-0.07,0-0.1c0.03-1.33,0.15-2.63,0.35-3.9
		l0.75,0.4c0.07,0.03,0.13,0.07,0.2,0.1C17.07,14.07,17.65,14,18.15,13.6z"/>
</g>
</svg>
