<?xml version="1.0" encoding="utf-8"?>
<!-- Generator: Adobe Illustrator 16.0.0, SVG Export Plug-In . SVG Version: 6.00 Build 0)  -->
<!DOCTYPE svg PUBLIC "-//W3C//DTD SVG 1.1//EN" "http://www.w3.org/Graphics/SVG/1.1/DTD/svg11.dtd">
<svg version="1.1" id="Layer_1" xmlns="http://www.w3.org/2000/svg" xmlns:xlink="http://www.w3.org/1999/xlink" x="0px" y="0px"
	 width="25px" height="38px" viewBox="0 0 25 38" enable-background="new 0 0 25 38" xml:space="preserve">
<g>
	
		<radialGradient id="SVGID_1_" cx="-12.8501" cy="-12.6001" r="2.875" gradientTransform="matrix(-1 0 0 0.6783 0 21.1463)" gradientUnits="userSpaceOnUse">
		<stop  offset="0.2039" style="stop-color:#FFFFFF;stop-opacity:0.6902"/>
		<stop  offset="0.5412" style="stop-color:#EAEAEA;stop-opacity:0"/>
		<stop  offset="1" style="stop-color:#CCCCCC"/>
	</radialGradient>
	<path fill-rule="evenodd" clip-rule="evenodd" fill="url(#SVGID_1_)" d="M13.75,14.05l0.05-0.45c-0.53-0.23-1.1-0.27-1.7-0.1
		l-0.15,0.3c-0.3-0.23-0.45-0.5-0.45-0.8s0.15-0.55,0.45-0.75c0.17-0.13,0.35-0.22,0.55-0.25c0.2-0.07,0.42-0.1,0.65-0.1
		c0.3,0,0.57,0.05,0.8,0.15c0.03,0.03,0.07,0.05,0.1,0.05c0.1,0.03,0.17,0.08,0.2,0.15c0.33,0.2,0.5,0.45,0.5,0.75
		s-0.17,0.57-0.5,0.8C14.12,13.9,13.95,13.98,13.75,14.05z"/>
	
		<linearGradient id="SVGID_2_" gradientUnits="userSpaceOnUse" x1="-17.5034" y1="12.1855" x2="-13.8033" y2="12.1855" gradientTransform="matrix(6.756602e-003 -1 1 -2.259942e-004 -3.407709e-005 6.944354e-005)">
		<stop  offset="0.3922" style="stop-color:#FDFCFC;stop-opacity:0.3451"/>
		<stop  offset="1" style="stop-color:#FFFFFF"/>
	</linearGradient>
	<path fill-rule="evenodd" clip-rule="evenodd" fill="url(#SVGID_2_)" d="M15.1,17.5H7.95l0.75-2.65c0.7,0,1.55,0,2.55,0
		c0.73,0,1.52,0,2.35,0c0.5,0,1,0,1.5,0c0.1,0.03,0.27,0.08,0.5,0.15c0.2,0.07,0.4,0.15,0.6,0.25L15.45,15
		C15.25,15.8,15.13,16.63,15.1,17.5z"/>
	
		<linearGradient id="SVGID_3_" gradientUnits="userSpaceOnUse" x1="16.5859" y1="-11.6963" x2="21.211" y2="-11.6963" gradientTransform="matrix(5.405326e-003 1 -1 -1.843346e-004 5.936995e-005 1.409317e-004)">
		<stop  offset="0.3922" style="stop-color:#FFFFFF;stop-opacity:0.6902"/>
		<stop  offset="1" style="stop-color:#CCCCCC"/>
	</linearGradient>
	<path fill-rule="evenodd" clip-rule="evenodd" fill="url(#SVGID_3_)" d="M7.95,17.5h7.15c0,0.03,0,0.07,0,0.1l0.55,3.45H12.1
		l0.6-1.45c-0.93-0.67-1.88-0.72-2.85-0.15l-0.05,1.6H8.75c-0.03-0.03-0.12-0.08-0.25-0.15L7.95,17.5z"/>
	
		<linearGradient id="SVGID_4_" gradientUnits="userSpaceOnUse" x1="13.9668" y1="19.5244" x2="16.8007" y2="19.5244" gradientTransform="matrix(0.9968 0.0794 -0.2131 0.9862 1.524687e-004 2.096295e-004)">
		<stop  offset="0" style="stop-color:#FFFFFF"/>
		<stop  offset="0.4392" style="stop-color:#FFFFFF;stop-opacity:0"/>
		<stop  offset="1" style="stop-color:#FFFFFF"/>
	</linearGradient>
	<path fill-rule="evenodd" clip-rule="evenodd" fill="url(#SVGID_4_)" d="M11.8,21.9v0.05c-0.03-0.03-0.08-0.05-0.15-0.05
		c-0.3-0.17-0.65-0.25-1.05-0.25h-0.1c-0.23,0-0.45,0.03-0.65,0.1H9.8v-0.7l0.05-1.6c0.97-0.57,1.92-0.52,2.85,0.15l-0.6,1.45
		L11.8,21.9z"/>
	
		<radialGradient id="SVGID_5_" cx="-10" cy="-22.5" r="3.9125" gradientTransform="matrix(-1 0 0 0.6805 0 37.8115)" gradientUnits="userSpaceOnUse">
		<stop  offset="0.2039" style="stop-color:#FFFFFF;stop-opacity:0.6902"/>
		<stop  offset="0.5412" style="stop-color:#EAEAEA;stop-opacity:0"/>
		<stop  offset="1" style="stop-color:#CCCCCC"/>
	</radialGradient>
	<path fill-rule="evenodd" clip-rule="evenodd" fill="url(#SVGID_5_)" d="M9.8,21.75h0.05c0.2-0.07,0.42-0.1,0.65-0.1h0.1
		c0.4,0,0.75,0.08,1.05,0.25c0.07,0,0.12,0.02,0.15,0.05V21.9c0.1,0.07,0.18,0.12,0.25,0.15c0.4,0.27,0.6,0.6,0.6,1
		c0,0.4-0.2,0.73-0.6,1c-0.4,0.27-0.9,0.4-1.5,0.4c-0.57,0-1.05-0.13-1.45-0.4s-0.6-0.6-0.6-1c0-0.4,0.2-0.73,0.6-1
		c0.2-0.13,0.42-0.23,0.65-0.3H9.8z"/>
	
		<radialGradient id="SVGID_6_" cx="-19.3501" cy="-18" r="4.0375" gradientTransform="matrix(-1 0 0 0.678 0 30.2043)" gradientUnits="userSpaceOnUse">
		<stop  offset="0" style="stop-color:#FFFFFF"/>
		<stop  offset="1" style="stop-color:#FFFFFF;stop-opacity:0"/>
	</radialGradient>
	<path fill-rule="evenodd" clip-rule="evenodd" fill="url(#SVGID_6_)" d="M19.3,20.7h-0.05c-0.03-0.03-0.07-0.07-0.1-0.1
		c-0.43-1.57-0.42-3.3,0.05-5.2v-0.05c-0.03-0.03-0.03-0.07,0-0.1s0.07-0.05,0.1-0.05h0.05h0.05c0.03,0.03,0.05,0.07,0.05,0.1
		c0.03,0.03,0.05,0.07,0.05,0.1v0.05c-0.07,0.23-0.12,0.45-0.15,0.65c-0.27,1.43-0.28,2.75-0.05,3.95c0.07,0.17,0.12,0.33,0.15,0.5
		c0.03,0.03,0.03,0.07,0,0.1c-0.03,0.03-0.07,0.05-0.1,0.05H19.3z"/>
	
		<radialGradient id="SVGID_7_" cx="-21.4854" cy="-17.4678" r="5.75" gradientTransform="matrix(-1 8.347909e-004 2.174089e-003 2.6044 0.0529 62.9604)" gradientUnits="userSpaceOnUse">
		<stop  offset="0" style="stop-color:#FFFFFF;stop-opacity:0.498"/>
		<stop  offset="0.1098" style="stop-color:#FFFFFF;stop-opacity:0"/>
		<stop  offset="0.2588" style="stop-color:#FFFFFF;stop-opacity:0.7059"/>
		<stop  offset="0.5098" style="stop-color:#FFFFFF;stop-opacity:0"/>
		<stop  offset="0.851" style="stop-color:#CCCCCC;stop-opacity:0.1216"/>
		<stop  offset="1" style="stop-color:#FFFFFF;stop-opacity:0.5333"/>
	</radialGradient>
	<path fill-rule="evenodd" clip-rule="evenodd" fill="url(#SVGID_7_)" d="M18,20.45c-0.37-1.83-0.32-3.58,0.15-5.25
		c0.17-0.6,0.33-1.08,0.5-1.45c0.23-0.1,0.47-0.18,0.7-0.25v1.7H19.3c-0.03,0-0.07,0.02-0.1,0.05s-0.03,0.07,0,0.1v0.05
		c-0.47,1.9-0.48,3.63-0.05,5.2c0.03,0.03,0.07,0.07,0.1,0.1h0.05v2.15c-0.53-0.1-0.85-0.33-0.95-0.7
		C18.15,21.58,18.03,21.02,18,20.45z"/>
	
		<radialGradient id="SVGID_8_" cx="-17.4502" cy="-17.4502" r="3.1625" gradientTransform="matrix(-1 0 0 1.3953 0 41.7977)" gradientUnits="userSpaceOnUse">
		<stop  offset="0.3922" style="stop-color:#E1DFD2;stop-opacity:0.4824"/>
		<stop  offset="1" style="stop-color:#FFFFFF"/>
	</radialGradient>
	<path fill-rule="evenodd" clip-rule="evenodd" fill="url(#SVGID_8_)" d="M18.15,15.2c-0.47,1.67-0.52,3.42-0.15,5.25
		c-0.57-0.2-1.1-0.22-1.6-0.05c0,0.03-0.02,0.05-0.05,0.05c-0.17,0.13-0.4,0.33-0.7,0.6L15.1,17.6c0-0.03,0-0.07,0-0.1
		c0.03-0.87,0.15-1.7,0.35-2.5l0.75,0.25c0.07,0.03,0.13,0.05,0.2,0.05C17.07,15.47,17.65,15.43,18.15,15.2z"/>
	
		<linearGradient id="SVGID_9_" gradientUnits="userSpaceOnUse" x1="15.9111" y1="13.3564" x2="18.7665" y2="13.3564" gradientTransform="matrix(0.9981 0.0613 -0.3501 0.9804 1.524687e-004 -1.743138e-004)">
		<stop  offset="0" style="stop-color:#FFFFFF"/>
		<stop  offset="0.4392" style="stop-color:#FFFFFF;stop-opacity:0"/>
		<stop  offset="1" style="stop-color:#FFFFFF"/>
	</linearGradient>
	<path fill-rule="evenodd" clip-rule="evenodd" fill="url(#SVGID_9_)" d="M13.6,14.85c-0.83,0-1.62,0-2.35,0l0.7-1.05l0.15-0.3
		c0.6-0.17,1.17-0.13,1.7,0.1l-0.05,0.45L13.6,14.85z"/>
</g>
</svg>
