<?xml version="1.0" encoding="utf-8"?>
<!-- Generator: Adobe Illustrator 16.0.0, SVG Export Plug-In . SVG Version: 6.00 Build 0)  -->
<!DOCTYPE svg PUBLIC "-//W3C//DTD SVG 1.1//EN" "http://www.w3.org/Graphics/SVG/1.1/DTD/svg11.dtd">
<svg version="1.1" id="Layer_1" xmlns="http://www.w3.org/2000/svg" xmlns:xlink="http://www.w3.org/1999/xlink" x="0px" y="0px"
	 width="25px" height="38px" viewBox="0 0 25 38" enable-background="new 0 0 25 38" xml:space="preserve">
<g>
	<g>
		<g>
			
				<linearGradient id="SVGID_1_" gradientUnits="userSpaceOnUse" x1="15.9111" y1="13.3564" x2="18.7665" y2="13.3564" gradientTransform="matrix(0.9981 0.0613 -0.3501 0.9804 1.524687e-004 -1.743138e-004)">
				<stop  offset="0" style="stop-color:#FFFFFF"/>
				<stop  offset="0.4392" style="stop-color:#FFFFFF;stop-opacity:0"/>
				<stop  offset="1" style="stop-color:#FFFFFF"/>
			</linearGradient>
			<path fill-rule="evenodd" clip-rule="evenodd" fill="url(#SVGID_1_)" d="M11.95,13.8l0.15-0.3c0.6-0.17,1.17-0.13,1.7,0.1
				l-0.05,0.45l-0.15,0.8c-0.83,0-1.62,0-2.35,0L11.95,13.8z"/>
		</g>
		<g>
			
				<radialGradient id="SVGID_2_" cx="-12.8501" cy="-12.8999" r="2.875" gradientTransform="matrix(-1 0 0 0.6783 0 21.6494)" gradientUnits="userSpaceOnUse">
				<stop  offset="0.2039" style="stop-color:#FFFFFF;stop-opacity:0.6902"/>
				<stop  offset="0.5412" style="stop-color:#EAEAEA;stop-opacity:0"/>
				<stop  offset="1" style="stop-color:#CCCCCC"/>
			</radialGradient>
			<path fill-rule="evenodd" clip-rule="evenodd" fill="url(#SVGID_2_)" d="M12.5,12.35c0.2-0.07,0.42-0.1,0.65-0.1
				c0.3,0,0.57,0.05,0.8,0.15c0.03,0,0.07,0.02,0.1,0.05c0.1,0.03,0.17,0.08,0.2,0.15c0.33,0.2,0.5,0.45,0.5,0.75
				c0,0.3-0.17,0.57-0.5,0.8c-0.13,0.1-0.3,0.17-0.5,0.2l0.05-0.4c-0.53-0.23-1.1-0.27-1.7-0.1l-0.15,0.25
				c-0.3-0.2-0.45-0.45-0.45-0.75c0-0.3,0.15-0.55,0.45-0.75C12.12,12.47,12.3,12.38,12.5,12.35z"/>
		</g>
	</g>
	<g>
		
			<linearGradient id="SVGID_3_" gradientUnits="userSpaceOnUse" x1="16.5859" y1="-11.7495" x2="21.211" y2="-11.7495" gradientTransform="matrix(5.405326e-003 1 -1 -1.843346e-004 5.936995e-005 1.409317e-004)">
			<stop  offset="0.3922" style="stop-color:#FFFFFF;stop-opacity:0.6902"/>
			<stop  offset="1" style="stop-color:#CCCCCC"/>
		</linearGradient>
		<path fill-rule="evenodd" clip-rule="evenodd" fill="url(#SVGID_3_)" d="M15.1,16.15v1.35c0,0.03,0,0.07,0,0.1l0.55,3.45h-6.9
			c-0.03-0.03-0.12-0.08-0.25-0.15l-0.45-4.75H15.1z"/>
		
			<linearGradient id="SVGID_4_" gradientUnits="userSpaceOnUse" x1="-17.5029" y1="12.231" x2="-13.8028" y2="12.231" gradientTransform="matrix(6.756602e-003 -1 1 -2.259942e-004 -3.407709e-005 6.944354e-005)">
			<stop  offset="0.3922" style="stop-color:#FDFCFC;stop-opacity:0.3373"/>
			<stop  offset="1" style="stop-color:#FFFFFF"/>
		</linearGradient>
		<path fill-rule="evenodd" clip-rule="evenodd" fill="url(#SVGID_4_)" d="M16.2,15.25L15.45,15c-0.2,0.8-0.32,1.18-0.35,1.15H8.05
			l0.65-1.3c0.7,0,1.55,0,2.55,0c0.73,0,1.52,0,2.35,0c0.5,0,1,0,1.5,0c0.1,0.03,0.27,0.08,0.5,0.15C15.8,15.07,16,15.15,16.2,15.25
			z"/>
		
			<radialGradient id="SVGID_5_" cx="-21.4854" cy="-17.4678" r="5.75" gradientTransform="matrix(-1 8.347909e-004 2.174089e-003 2.6044 0.0529 62.9604)" gradientUnits="userSpaceOnUse">
			<stop  offset="0" style="stop-color:#FFFFFF;stop-opacity:0.498"/>
			<stop  offset="0.1098" style="stop-color:#FFFFFF;stop-opacity:0"/>
			<stop  offset="0.2588" style="stop-color:#FFFFFF;stop-opacity:0.7059"/>
			<stop  offset="0.5098" style="stop-color:#FFFFFF;stop-opacity:0"/>
			<stop  offset="0.851" style="stop-color:#CCCCCC;stop-opacity:0.1137"/>
			<stop  offset="1" style="stop-color:#FFFFFF;stop-opacity:0.5255"/>
		</radialGradient>
		<path fill-rule="evenodd" clip-rule="evenodd" fill="url(#SVGID_5_)" d="M19.35,15.4l-0.05,5.2C18.87,19.03,18.88,17.3,19.35,15.4
			c-0.47,1.9-0.48,3.63-0.05,5.2v2.25c-0.53-0.1-0.85-0.33-0.95-0.7c-0.2-0.57-0.32-1.13-0.35-1.7c-0.37-1.83-0.32-3.58,0.15-5.25
			c0.17-0.6,0.33-1.08,0.5-1.45c0.23-0.1,0.47-0.18,0.7-0.25v1.8C19.35,15.33,19.35,15.37,19.35,15.4z"/>
		
			<radialGradient id="SVGID_6_" cx="-17.4502" cy="-17.4502" r="3.1625" gradientTransform="matrix(-1 0 0 1.3953 0 41.7977)" gradientUnits="userSpaceOnUse">
			<stop  offset="0.3922" style="stop-color:#E1DFD2;stop-opacity:0.4824"/>
			<stop  offset="1" style="stop-color:#FFFFFF"/>
		</radialGradient>
		<path fill-rule="evenodd" clip-rule="evenodd" fill="url(#SVGID_6_)" d="M15.65,21.05L15.1,17.6c0-0.03,0-0.07,0-0.1v-1.35
			c0.03,0.03,0.15-0.35,0.35-1.15l0.75,0.25c0.07,0.03,0.13,0.05,0.2,0.05c0.13,0.03,0.27,0.07,0.4,0.1c0.1,0,0.18,0,0.25,0
			c0.4,0.03,0.77-0.03,1.1-0.2c-0.47,1.67-0.52,3.42-0.15,5.25c-0.33-0.13-0.65-0.18-0.95-0.15c-0.1,0-0.18,0-0.25,0
			c-0.13,0.03-0.27,0.07-0.4,0.1c0,0.03-0.02,0.05-0.05,0.05C16.18,20.58,15.95,20.78,15.65,21.05z"/>
		<path fill-rule="evenodd" clip-rule="evenodd" fill="none" d="M19.3,20.6c-0.43-1.57-0.42-3.3,0.05-5.2c0-0.03,0-0.07,0-0.1"/>
	</g>
	<g>
		<g>
			
				<linearGradient id="SVGID_7_" gradientUnits="userSpaceOnUse" x1="13.9717" y1="17.9014" x2="16.8056" y2="17.9014" gradientTransform="matrix(0.9968 0.0794 -0.2131 0.9862 1.524687e-004 2.096295e-004)">
				<stop  offset="0" style="stop-color:#FFFFFF"/>
				<stop  offset="0.4392" style="stop-color:#FFFFFF;stop-opacity:0"/>
				<stop  offset="1" style="stop-color:#FFFFFF"/>
			</linearGradient>
			<path fill-rule="evenodd" clip-rule="evenodd" fill="url(#SVGID_7_)" d="M10.25,17.85c0.93-0.57,1.87-0.52,2.8,0.15l-0.6,1.45
				l-0.3,0.85v0.05c-0.03-0.03-0.07-0.05-0.1-0.05c-0.33-0.17-0.7-0.25-1.1-0.25h-0.1c-0.2,0-0.42,0.03-0.65,0.1h-0.05v-0.7
				L10.25,17.85z"/>
		</g>
		<g>
			
				<radialGradient id="SVGID_8_" cx="-10.5" cy="-19.75" r="3.9125" gradientTransform="matrix(-1 0 0 0.6805 0 33.1901)" gradientUnits="userSpaceOnUse">
				<stop  offset="0.2039" style="stop-color:#FFFFFF;stop-opacity:0.6902"/>
				<stop  offset="0.5412" style="stop-color:#EAEAEA;stop-opacity:0"/>
				<stop  offset="1" style="stop-color:#CCCCCC"/>
			</radialGradient>
			<path fill-rule="evenodd" clip-rule="evenodd" fill="url(#SVGID_8_)" d="M9,20.3c0-0.4,0.2-0.73,0.6-1
				c0.2-0.13,0.43-0.23,0.7-0.3c0-0.03,0.02-0.05,0.05-0.05c0.23-0.03,0.45-0.05,0.65-0.05h0.1c0.4,0,0.77,0.07,1.1,0.2
				c0.03,0.03,0.07,0.07,0.1,0.1v-0.05c0.1,0.03,0.18,0.08,0.25,0.15c0.4,0.27,0.6,0.6,0.6,1c0,0.4-0.2,0.73-0.6,1
				c-0.4,0.27-0.88,0.4-1.45,0.4c-0.6,0-1.1-0.13-1.5-0.4S9,20.7,9,20.3z"/>
		</g>
	</g>
</g>
</svg>
